<?xml version="1.0" encoding="UTF-8" standalone="no"?>
<svg width="308px" height="175px" viewBox="0 0 308 175" version="1.1" xmlns="http://www.w3.org/2000/svg" xmlns:xlink="http://www.w3.org/1999/xlink">
    <!-- Generator: Sketch 49.1 (51147) - http://www.bohemiancoding.com/sketch -->
    <title>ambulance</title>
    <desc>Created with Sketch.</desc>
    <defs></defs>
    <g id="Page-1-Copy" stroke="none" stroke-width="1" fill="none" fill-rule="evenodd">
        <g id="Artboard" transform="translate(-2029.000000, -9913.000000)">
            <g id="ambulance" transform="translate(2029.082187, 9912.848372)">
                <rect id="Rectangle-51" fill="#FFFFFF" x="98.7582601" y="18.8495138" width="196" height="138"></rect>
                <rect id="Rectangle-52" fill="#FFFFFF" x="0.758260098" y="86.8495138" width="107" height="63"></rect>
                <path d="M274.59634,157.742698 C270.34937,157.998167 266.779313,158.269908 263.204373,158.411473 C259.704284,158.549785 256.197687,158.556293 252.388432,158.626263 C253.752018,160.920603 255.511012,161.488492 257.315568,161.649584 C260.665955,161.948987 264.039122,162.145878 267.402527,162.157268 C270.215941,162.168658 272.702289,161.267194 274.59634,157.742698 M255.540302,152.447817 C262.576277,152.338795 268.876762,153.547798 275.173993,152.250927 C275.237453,151.297393 274.763941,150.796218 274.272529,150.418709 C271.931,148.614154 269.441398,147.016252 267.234926,145.018061 C266.022669,143.924589 264.436157,144.308606 263.241798,145.101048 C260.495099,146.928384 258.073839,149.146246 255.540302,152.447817 M59.8119604,146.860042 C67.2921592,147.027643 74.0205955,146.358867 80.9849746,146.804717 C77.3124036,138.400274 69.9965512,135.033615 62.5602867,137.905608 C62.5423875,138.514177 63.0045099,138.807072 63.3950358,139.129256 C63.7953249,139.457948 64.2753464,139.7004 64.6430916,140.060009 C66.5485327,141.932906 66.1043095,143.922961 63.5593822,144.624281 C62.4301113,144.936702 61.279687,145.07664 59.8119604,146.860042 M67.7152289,153.376943 L67.7152289,152.846479 C65.250034,152.846479 62.7832119,152.86926 60.3163898,152.83997 C57.5485372,152.807426 56.5103891,154.052228 57.1986911,156.642716 C58.0155412,159.708345 64.0914737,163.1466 66.9667209,161.909935 C70.2975816,160.478006 73.6561046,159.037942 76.7087156,157.038124 C77.4507149,156.551594 78.1536616,155.912107 78.67599,155.19777 C79.3545288,154.26539 79.2080816,153.409487 77.8363592,153.391588 C74.4631915,153.347654 71.0900238,153.376943 67.7152289,153.376943 M163.052371,36.6189128 C164.044958,36.6709829 164.917133,33.5212813 164.908997,32.2488176 C164.902488,31.2676212 164.233712,30.9356742 163.381064,30.8705865 C162.865244,30.8299068 162.341289,30.8054989 161.823842,30.8461787 C156.377632,31.27413 150.92166,30.6769508 145.491722,30.8445515 C134.587913,31.1830073 123.723156,30.5028413 112.847009,30.1578767 C108.723706,30.0277014 108.616311,29.913798 107.838514,34.0956798 C107.696948,34.853951 107.644878,35.6350029 107.628606,36.4062916 C107.594435,37.9342243 108.312026,38.4451624 109.838332,38.144132 C115.056735,37.1124926 159.363529,36.0868212 162.14928,36.535926 C162.277828,36.5489435 162.6651,36.5977593 163.052371,36.6189128 Z M98.13069,84.2245644 C100.612157,84.1464592 100.646328,84.1383233 100.216749,81.6324486 C99.8815479,79.6700558 101.154012,57.667174 100.669109,48.585819 C100.582867,46.9814083 100.350179,45.7366069 98.2592381,45.9937031 C96.4058672,46.2215099 95.6931574,44.9620638 95.4767409,43.4211136 C95.2505613,41.8069397 96.1894507,41.00148 97.7206378,40.8713047 C99.9287365,40.6858049 100.553578,39.3547623 100.340416,37.3777248 C100.272074,36.741493 100.301363,35.9978665 99.686285,35.6382573 C98.8417727,35.1468455 98.1762514,35.7960948 97.6132432,36.2744891 C95.0243817,38.4777062 87.7817529,48.7192487 85.5622639,50.4945145 C81.7725352,53.525972 78.6727356,57.0651132 75.7600631,60.9410831 C71.3096947,66.8575509 67.1310672,72.9644001 62.6985979,78.8906311 C62.2283396,79.5170998 61.6897393,80.2102833 62.1925414,81.0010983 C62.6806988,81.7691326 63.5658909,81.5331899 64.3257893,81.5673609 C67.1831373,81.7007906 70.0486213,81.7528607 72.8962062,82.0132113 C80.9182597,82.7454475 88.8947518,83.9479419 96.9591122,84.2261916 C97.3496382,84.2261916 97.7401641,84.2375819 98.13069,84.2245644 Z M164.290664,45.6113132 C164.163743,43.6765826 163.491713,43.160763 161.586272,42.7311844 C154.927805,41.2357956 120.947167,41.9989483 110.832546,43.9190341 C108.697671,44.3242048 107.744137,45.2077697 107.747391,47.5102455 C107.757154,54.3753659 107.443106,61.2388591 107.495176,68.1023523 C107.519584,71.6056953 107.872685,75.0911392 107.067225,78.5635656 C106.741787,79.9645774 107.046072,81.3916242 107.220181,82.8202983 C107.405681,84.3628757 107.890584,85.1927433 109.576354,85.13091 C117.769263,84.8347612 125.884066,86.5888735 134.086738,86.1023433 C137.197928,85.9184706 155.643769,85.9135891 161.753873,85.8696549 C164.583558,85.8485014 164.892725,85.3489536 164.661664,82.6185265 C164.116555,76.1357961 164.079129,69.6416753 164.184897,62.4446079 C164.664918,57.301056 164.674681,51.4643205 164.290664,45.6113132 Z M171.072798,43.6082406 C171.058153,49.0625861 171.354302,54.503914 171.136258,59.9745314 C170.828719,67.7655237 170.721324,76.5760423 171.139512,84.3833065 C171.246907,86.4010238 171.933582,86.2487905 173.913874,86.1283783 C179.10136,85.8127032 184.279083,86.7873908 189.482841,86.1446502 C199.328976,84.9275111 251.220109,88.2420999 255.807161,89.1728534 C258.365106,89.6935546 260.937695,89.5487346 263.546083,89.0801035 C266.994102,88.4601436 283.358765,89.2851296 288.01416,89.765151 C290.079066,89.9783131 292.104919,90.5689836 294.168198,90.743093 C296.709871,90.9562551 297.777308,90.1068612 297.808225,87.8418108 C297.905856,80.4332085 298.234549,73.0067071 297.827751,65.6225127 C297.490922,59.49451 297.329831,53.4136958 298.047422,47.3345088 C298.649483,42.216992 297.79358,37.2247688 297.155721,32.1983747 C296.870963,29.956105 295.679858,28.851242 293.479896,28.2996242 C288.123182,26.9539369 257.047081,28.8496149 246.883644,28.0587998 C240.506681,27.5625065 198.611384,28.8528692 190.436375,29.6355483 C184.370206,30.2164556 178.299155,30.7875998 171.303859,30.8787225 C172.761822,33.2462859 171.079306,41.2488131 171.072798,43.6082406 Z M21.6787306,85.5523526 C19.9294999,85.4351948 18.8897246,85.8224663 18.1184359,87.6790917 C16.9078055,90.5966458 15.7004295,93.310801 16.3822227,96.6546793 C16.7271873,98.3485855 16.1690607,100.26379 15.8452496,102.048819 C15.1960002,105.653048 14.9014786,109.255649 15.2871229,112.911948 C15.4221798,114.199057 15.568627,115.538235 15.3684825,116.799308 C14.1041548,124.757901 14.4556281,132.926402 12.3012268,140.75482 C11.8342228,142.448726 12.4834722,143.177708 13.8389226,143.703291 C14.5630228,143.983168 15.3001405,144.30047 16.0600388,144.407864 C20.1784602,144.996908 24.3033903,145.538762 28.4299476,146.069227 C29.7089201,146.233573 30.9699934,146.176621 30.4834632,144.329759 C29.9155734,142.165595 31.0220635,140.507487 32.0650932,138.89494 C37.18261,130.980281 43.8687394,124.801836 52.3870862,120.645989 C57.9813701,117.915562 63.9043467,118.203575 69.5279201,119.651775 C75.2767872,121.130892 80.7067248,123.84342 86.2993816,125.953887 C87.7898889,126.516895 89.1827647,127.19218 90.2469478,128.373521 C93.9325363,132.46428 95.5336926,137.822621 98.6253562,142.299024 C99.7041841,143.859501 98.8368911,146.129433 97.5660546,146.775428 C96.0397491,147.551598 94.0838651,146.801463 93.0099188,144.915548 C92.5656955,144.136124 92.3053449,143.247677 92.0140777,142.390147 C91.387609,140.541658 90.8115832,138.675269 90.1883689,136.82678 C89.3991811,134.478743 87.7915161,132.511468 85.6257243,131.75157 C80.716488,130.030002 76.1798784,127.267031 71.065616,126.212611 C65.6503231,125.09473 60.1797057,125.164699 55.0377809,127.515991 C49.8844659,129.873791 45.6700402,133.567516 41.7810528,137.617595 C40.0546028,139.415641 39.0066916,141.698591 37.8936927,143.901808 C37.2151539,145.247495 37.607307,146.17174 39.2637878,146.261235 C41.8624124,146.404428 44.4577826,146.59481 47.0580345,146.679424 C50.5678862,146.793327 50.5532415,146.75102 51.9933059,143.452703 C52.2471477,142.871796 52.5904851,142.251836 53.065625,141.862937 C54.6163384,140.596982 55.0280178,139.689009 53.4089624,137.830757 C51.2496794,135.352544 52.2813188,133.220924 55.327421,131.880118 C59.2717329,130.145532 63.1688562,129.808703 67.469523,130.480734 C76.6761718,131.919171 82.7862754,137.108284 86.6101751,145.25075 C87.340784,146.806345 88.0827833,147.536953 89.6888212,147.566243 C92.2841914,147.611804 94.9055967,147.471866 97.4684231,147.790795 C102.278401,148.391229 212.187042,150.109543 220.762341,152.203738 C222.379769,152.599146 224.124118,152.535685 225.81477,152.569856 C231.923246,152.690269 238.028468,151.941761 244.143453,152.455953 C245.233672,152.547076 246.304363,152.4169 246.899916,151.401533 C248.90787,147.97955 251,136.82678 259.029,135.640557 C267.058,134.454335 263.132777,134.900185 265.19931,135.336273 C273.309231,137.048078 274.6598,137.94466 279.614598,144.747947 C280.148317,145.483438 280.62183,146.262863 281.101851,147.035779 C283.222081,150.446372 286.450429,152.137023 290.214123,153.141001 C292.524734,153.759333 294.243048,152.895295 295.9337,151.523572 C296.906761,150.736012 297.189892,149.90289 296.485318,148.837079 C295.129868,146.790073 298.732469,129.283121 298.559987,122.476579 C298.428185,117.280957 298.485318,96.128192 297.166752,96.128192 C292.431622,96.128192 270.712234,93.9047259 264.318999,94.7232031 C261.464905,95.087694 258.630338,95.0486414 255.763227,94.7638829 C250.461837,94.2383001 190.075138,92.4483896 184.593131,92.3475037 C180.949849,92.2791617 177.304941,92.2824161 173.666541,92.1506136 C171.756218,92.0806444 171.137885,92.7591832 171.40149,94.6874049 C171.845714,97.9222614 171.697639,101.186407 171.178565,104.406619 C170.140417,110.858433 170.674136,117.386725 170.102992,123.869455 C169.5709,129.911217 169.915865,136.02132 168.96233,142.050064 C168.562041,144.575465 167.260288,145.392315 164.886216,144.533158 C162.923823,143.82533 161.923101,142.227428 162.176942,139.898917 C162.839209,133.837629 163.135358,127.755188 163.525884,121.674374 C163.732537,118.441145 163.766708,115.194898 163.986379,111.961669 C164.332971,106.92063 164.951304,101.879591 164.975712,96.8287888 C164.998492,92.1912934 164.81462,92.0822715 160.170615,92.2026837 C150.677581,92.4483896 141.176411,92.4744247 131.683376,92.6371438 C121.313285,92.8161349 110.912278,91.6413027 100.52917,91.286575 C87.008837,90.8244526 73.6105433,88.4861786 60.0397672,88.9011124 C58.192905,88.9580641 56.5299154,88.8799589 54.8441452,89.7944405 C53.3341116,90.6112905 51.6825123,90.3981285 50.6834168,88.897858 C49.7429002,87.4854559 48.4411471,87.2446316 46.9962012,87.137237 C42.3277891,86.7906452 37.6561227,86.4652069 32.6199654,86.1039704 C29.2158811,85.9379969 25.4440515,85.8013129 21.6787306,85.5523526 Z M8.26579217,138.104125 C9.54476459,131.696245 9.40157174,125.172835 9.97759749,118.709631 C10.2867639,115.225814 9.87020286,111.680164 10.1468254,108.189839 C10.5422329,103.265958 11.0645613,98.3713662 10.5031803,93.4181957 C10.2997814,91.6201492 10.3990401,89.7993221 10.0182773,87.9947668 C9.61473381,86.0763082 9.48781289,84.07649 10.2428297,82.2182375 C11.7626264,78.4838333 13.9007559,76.5946641 17.5895987,77.6848823 C19.3827636,78.2137195 21.1417575,78.3634211 22.9528215,77.8345839 C23.3173124,77.7271893 37.5633728,77.665356 44.1909233,79.2225781 C45.7985883,79.6000865 47.5657182,79.2372229 49.2400981,79.4048236 C51.0950963,79.5903234 52.4570554,78.8580873 53.8125058,77.7044086 C57.8007519,74.3133418 61.1267311,70.3202141 64.3957585,66.279898 C67.1766286,62.8465242 85.920246,41.5840145 87.6369329,38.7966357 C88.1804148,37.9114436 88.5872126,36.9042121 89.2738874,36.1524497 C92.7886208,32.3090237 95.9469992,28.2768435 97.4098443,23.1398003 C97.6490414,22.303424 98.3666328,21.6037317 98.8645533,20.8422061 C99.5414649,19.8089396 100.385977,19.6885274 101.555928,20.0741718 C107.903601,22.1651127 114.378196,23.4115413 121.114768,22.7997173 C122.011351,22.7183578 122.956749,22.7785638 123.835432,22.9738268 C132.444902,24.8808951 141.208954,23.8720365 149.877003,24.0803169 C165.45736,24.454571 264.991029,22.5800465 272.121382,22.116297 C277.032245,21.7989946 281.952872,21.657429 286.865363,21.3531442 C289.101124,21.2132058 291.286442,21.4768108 293.460369,21.8705911 C296.371415,22.3978011 299.116487,23.1121381 302.250457,22.3245775 C305.7538,21.4442669 308.186451,24.3064965 306.604821,27.3249365 C304.661955,31.0316785 304.774231,34.7791002 304.829556,38.6778507 C304.893016,43.0907937 306.604821,110 304.035486,131.961478 C301.466151,153.922955 303.714929,157.264303 301.703721,159.40406 C299.897538,161.329028 296.797739,161.439677 293.953408,159.353617 C291.737174,157.726426 289.242689,158.126715 286.834446,157.856601 C285.926473,157.754088 285.439943,158.435881 285.278851,159.285275 C284.551497,163.136837 282.234376,165.795668 278.986502,167.788977 C278.439766,168.124179 277.884894,168.55213 277.525284,169.069577 C275.055208,172.610345 271.283378,173.103384 267.426935,174.087835 C259.873512,176.01443 253.950536,173.201016 248.450629,168.74902 C245.705557,166.529531 244.439602,163.253995 244.446111,159.757161 C244.449365,157.776869 243.769199,157.19108 242.006951,157.249659 C241.095724,157.278948 240.181242,157.165045 239.274897,157.218742 C232.476491,157.622286 225.819651,156.499524 219.102605,155.690809 C212.287928,154.869078 107.137194,153.900899 101.147503,153.775605 C97.2503795,153.695873 93.3418658,153.92368 89.4463697,153.806522 C87.7166653,153.754452 86.7061794,154.201929 86.370978,155.941397 C85.4760227,160.577265 82.4315477,163.265385 78.3293982,165.211506 C75.4883221,166.558821 72.5772767,167.678328 69.5832446,168.51145 C66.0229499,169.50241 62.5570323,168.88245 59.5630001,166.662961 C55.3908815,163.572924 52.1234812,159.736007 51.0560437,154.504587 C50.7485045,152.996181 50.1643428,152.390865 48.7828573,152.613791 C42.4661004,153.629158 36.085883,152.363203 29.7138016,153.292329 C27.0500894,153.679601 24.0886011,153.601496 21.2589153,153.381825 C18.4162119,153.163781 8.99802828,152.784646 8.02008627,150.952428 C7.01285481,149.063259 7.25530633,147.165954 8.59285763,145.473675 C9.15261147,144.767474 9.8051152,144.132869 10.8269914,143.011734 C8.11283618,142.038674 7.86875747,140.095807 8.26579217,138.104125 Z" id="Fill-228" fill="#000000"></path>
                <path d="M128.320622,9.36481178 C128.546802,11.3093055 127.546079,12.7265892 125.99862,13.8721319 C121.540116,17.1688216 113.247949,16.2136603 109.677891,11.9910987 C106.86285,8.66186511 107.935169,4.85098292 111.996639,3.58665522 C114.29586,2.87069102 116.344494,1.54127567 118.808062,1.15400412 C125.189906,0.148399853 128.317368,2.73726132 128.320622,9.36481178" id="Fill-248" fill="#000000"></path>
                <path d="M223.543211,62.5878007 C222.444856,62.5275947 221.138222,62.4299632 219.914574,63.0124977 C218.36386,63.7496154 216.832673,63.3314272 215.368201,62.8302523 C213.436725,62.1696126 212.038968,60.0542638 212.240739,58.3782567 C212.546651,55.8284478 214.391886,54.0824715 216.899388,53.9441602 C218.658382,53.8449015 220.153771,54.7056857 221.758182,55.2019791 C228.011478,57.1383368 228.882025,56.3979648 228.198605,49.9754404 C228.048903,48.5597839 228.060294,47.1294827 227.985443,45.7056903 C227.899202,44.0557182 228.637947,42.8483422 230.206559,42.480597 C231.780053,42.1128517 233.438161,42.4122549 234.412849,43.8116395 C235.603953,45.525072 236.32968,47.3052194 235.493304,49.6272215 C233.24778,55.8528557 233.355175,55.8853995 239.70773,55.4004965 C241.001347,55.2996106 242.301473,55.2036063 243.598344,55.2133695 C247.013819,55.2377773 248.603585,56.5053594 249.30165,59.8280842 C249.565255,61.0891575 249.778417,62.4722702 248.530361,63.4176683 C247.28556,64.3614393 245.835732,64.5143953 244.493299,63.7610057 C241.930473,62.3258229 239.182147,62.7863181 236.479382,62.7879453 C234.801748,62.7879453 234.10531,63.6340848 234.635774,65.3133463 C235.065353,66.6769327 235.465642,68.048655 235.922883,69.4024782 C236.453347,70.9694635 236.215777,72.4778699 235.654396,73.9683772 C234.839173,76.1390505 232.880035,77.0649224 230.668682,76.3424494 C228.164434,75.5255993 226.514462,73.4427944 226.595822,70.7839637 C226.646265,69.1128381 227.010755,67.436831 227.378501,65.7982493 C228.009851,62.9945986 227.868285,62.7554015 224.913306,62.5910551 C224.526034,62.5699016 224.133881,62.5878007 223.543211,62.5878007" id="Fill-262" fill="#000000"></path>
            </g>
        </g>
    </g>
</svg>