<?xml version="1.0" encoding="UTF-8" standalone="no"?>
<svg width="137px" height="161px" viewBox="0 0 137 161" version="1.1" xmlns="http://www.w3.org/2000/svg" xmlns:xlink="http://www.w3.org/1999/xlink">
    <!-- Generator: Sketch 49.1 (51147) - http://www.bohemiancoding.com/sketch -->
    <title>angry0001</title>
    <desc>Created with Sketch.</desc>
    <defs></defs>
    <g id="Page-1-Copy" stroke="none" stroke-width="1" fill="none" fill-rule="evenodd">
        <g id="Artboard" transform="translate(-13165.000000, -1811.000000)" fill="#000000" stroke="#000000">
            <g id="angry0001" transform="translate(13165.653694, 1811.465383)">
                <path d="M49.836,122.3958 C39.045,122.4678 9.272,128.7958 9.983,145.0778 C10.506,157.0538 52.893,151.3568 62.632,150.3988 C71.251,149.5508 105.408,149.1358 100.073,138.4508 C95.724,129.7418 58.961,122.4918 49.836,122.3958 M100.178,153.4388 C78.217,153.3108 -30.724,177.7938 8.9,128.6858 C24.77,109.0188 50.107,113.0828 71.691,119.4058 C82.494,122.5698 99.685,126.9348 107.182,136.3438 C115.817,147.1818 113.569,153.4388 100.178,153.4388" id="Fill-37"></path>
                <path d="M127.5948,19.2986 C131.4788,17.9916 133.6708,19.0036 135.1678,22.2106 C136.5088,25.0836 135.9618,27.6856 133.0918,29.1036 C123.0878,34.0456 115.0128,41.6026 106.3548,48.3746 C105.2978,49.2006 104.2408,50.1966 103.0138,50.5996 C99.8958,51.6216 97.2968,53.5166 94.4828,55.0656 C91.7378,56.5756 89.0748,58.0256 87.2908,60.7216 C86.6028,61.7626 85.5088,62.3346 84.2738,62.5856 C82.2088,63.0046 79.6008,62.3096 79.1758,61.0456 C78.5258,59.1116 79.5778,57.6376 80.9238,56.4376 C86.1388,51.7846 91.8458,47.7586 97.3778,43.5066 C105.1518,37.5306 112.8308,31.4146 120.1368,24.8516 C122.6338,22.6096 125.2228,20.4576 127.5948,19.2986" id="Fill-53"></path>
                <path d="M4.0762,1.0252 C8.8432,-0.5468 12.2702,1.0572 15.4032,3.5982 C18.5302,6.1342 21.5432,8.8272 24.1532,11.8942 C27.9972,16.4102 32.7752,19.9792 36.6382,24.4632 C42.8532,31.6802 49.7452,38.3252 54.9952,46.3582 C57.0672,49.5282 58.7572,52.8682 59.9752,56.4392 C60.7412,58.6822 59.9822,59.6862 57.7862,59.1122 C54.2502,58.1882 51.2622,56.8372 49.4182,52.9882 C46.0562,45.9682 41.5752,39.6292 36.3052,33.7682 C29.9422,26.6892 23.6442,19.5572 17.0282,12.7112 C15.3312,10.9542 13.5332,9.5312 11.0132,8.9242 C7.1392,7.9912 6.0912,4.3572 4.0762,1.0252" id="Fill-57"></path>
                <path d="M21.6817,54.7596 C27.0697,54.9846 32.3057,56.1386 37.5517,57.2406 C39.4067,57.6306 41.1387,58.3326 42.8327,59.1486 C44.1767,59.7946 45.3817,60.6666 46.3547,61.7816 C47.6587,63.2776 48.3227,67.7846 47.2657,68.5846 C45.5717,69.8666 43.9157,68.5986 42.4037,67.9716 C37.2477,65.8346 31.7447,65.3746 26.3447,64.4316 C23.0387,63.8546 19.6807,63.4436 16.6307,61.9826 C14.6177,61.0166 11.8937,59.9456 12.3247,57.3296 C12.7387,54.8206 15.6607,55.1506 17.6797,54.8016 C18.9777,54.5776 20.3447,54.7596 21.6817,54.7596" id="Fill-65"></path>
                <path d="M85.4121,67.9954 C88.4671,67.7824 91.9611,67.7104 95.3651,66.8474 C100.4451,65.5594 105.5301,64.3564 110.8541,64.9744 C112.6521,65.1824 114.2511,65.5844 115.4981,67.0124 C117.0651,68.8054 116.8181,72.0354 113.4841,72.2624 C108.7981,72.5814 104.2061,73.5654 99.6651,74.8134 C96.1391,75.7834 92.4731,75.7234 88.8561,75.6134 C86.7161,75.5484 84.6061,74.9474 82.8811,73.5034 C80.5921,71.5864 80.7921,69.9404 83.4811,68.6314 C83.9591,68.3994 84.4961,68.2914 85.4121,67.9954" id="Fill-69"></path>
            </g>
        </g>
    </g>
</svg>