<?xml version="1.0" encoding="UTF-8" standalone="no"?>
<svg width="196px" height="236px" viewBox="0 0 196 236" version="1.1" xmlns="http://www.w3.org/2000/svg" xmlns:xlink="http://www.w3.org/1999/xlink">
    <!-- Generator: Sketch 49.1 (51147) - http://www.bohemiancoding.com/sketch -->
    <title>baby0009</title>
    <desc>Created with Sketch.</desc>
    <defs></defs>
    <g id="Page-1-Copy" stroke="none" stroke-width="1" fill="none" fill-rule="evenodd">
        <g id="Artboard" transform="translate(-6559.000000, -1403.000000)">
            <g id="baby0009" transform="translate(6559.695487, 1393.635201)">
                <ellipse id="Oval-24" fill="#FFFFFF" cx="111" cy="86" rx="47" ry="52"></ellipse>
                <rect id="Rectangle-17" fill="#FFFFFF" x="69" y="147" width="69" height="71"></rect>
                <path d="M63.0511544,147.201976 C56.3569619,146.173281 49.8265416,144.576501 43.3754486,142.608675 C36.1797034,140.415661 30.2352809,136.144787 24.9203582,130.965488 C21.9852516,128.104591 20.951439,124.903354 22.5175115,123.565028 C24.8077647,121.59976 27.533038,122.505626 30.0868623,123.117213 C31.5096341,123.460111 32.4001459,124.563015 33.413487,125.630094 C36.9422682,129.34056 40.9853967,132.26799 46.1109577,133.62167 C54.2355989,135.766064 62.5214534,136.948295 70.7791596,138.335242 C74.1671989,138.903327 77.7164516,139.033833 80.618292,141.298497 C81.4832144,141.976616 82.4632892,141.805167 83.5175734,141.633718 C94.009236,139.898755 104.247563,141.160314 114.345149,144.251516 C117.464499,145.203442 120.6555,145.799676 123.959094,146.035098 C127.513465,146.290993 129.609239,148.471211 129.322637,150.781936 C129.007887,153.317848 126.24423,155.362442 122.935517,155.293351 C117.978847,155.188434 113.352279,153.307612 108.528673,152.442689 C103.69995,151.577767 98.912169,150.753788 93.9785287,150.423684 C87.3431918,149.980987 83.2975043,153.545593 80.9509544,158.694185 C76.0505803,169.44686 71.5500769,184.463552 69.6513419,196.334484 C69.070462,199.955387 68.2669542,203.591644 68.2208932,207.23046 C68.1748323,210.856481 70.9231361,212.970167 73.8966268,214.569506 C81.1128435,218.448862 88.2004374,214.883436 96.1485116,215.505259 C100.823699,215.871187 105.544947,215.686943 110.245724,215.753476 C117.46194,215.858393 123.106967,213.68841 126.963292,206.81765 C130.878474,199.841974 133.168727,192.879092 133.102194,184.764687 C133.030544,175.529465 132.472695,166.401719 131.157398,157.27909 C130.497191,152.716496 130.643051,152.557842 135.318238,151.500999 C136.687272,151.188808 136.74101,150.500452 136.953402,149.471758 C137.859268,145.103643 138.573213,144.197778 142.222264,144.791452 C153.049148,146.554564 162.015681,141.968939 171.051306,137.112067 C176.069391,134.417501 181.589029,132.797691 186.282129,129.29194 C189.089289,127.193608 192.712751,128.125063 193.946161,130.243867 C195.317754,132.603211 194.491216,136.326472 192.090928,138.46063 C190.555563,139.829664 188.89225,141.001659 186.967926,141.784695 C179.211772,144.947548 171.517033,148.269055 163.691788,151.250222 C156.439746,154.011321 148.954841,155.766755 140.216054,154.106002 C142.117347,159.049878 141.856335,163.52035 142.360447,167.919171 C143.744835,180.015291 142.920855,191.986022 139.03894,203.588265 C137.749233,207.434355 136.131982,211.26765 134.025973,214.714545 C132.109325,217.849249 133.432298,219.011009 135.957974,220.26745 C142.373242,223.458451 148.878073,226.406352 155.902369,228.036398 C159.868729,228.955058 164.090983,231.114805 167.740035,230.395743 C171.163899,229.722741 174.434227,226.79787 177.906712,225.088497 C179.552112,224.279871 180.990237,223.043902 182.65099,222.27366 C185.325085,221.037691 188.047799,221.687663 189.160939,223.770642 C190.453205,226.196519 190.243372,228.430475 188.042681,230.380389 C186.338426,231.890165 184.559961,233.307819 182.423245,234.031999 C179.462549,235.040223 177.81459,236.785421 176.883135,239.912448 C175.749524,243.722713 174.746418,243.999079 170.979655,242.678665 C164.613008,240.447267 158.169591,238.548532 151.552167,237.169262 C145.495151,235.905145 140.047163,232.982833 134.599176,230.150084 C130.811941,228.179699 126.94538,226.339819 123.263062,224.190308 C121.522981,223.174408 120.038795,223.762965 118.60067,224.308019 C115.606707,225.449308 112.602509,225.582373 109.549691,224.924724 C103.272606,223.573603 96.9520194,225.574696 90.605843,224.359198 C81.5343932,222.621677 73.3515721,225.473158 65.8666665,219.515941 C64.6972299,218.581927 63.8297486,218.338827 62.7140498,219.336815 C53.6656305,227.407718 42.1836573,231.051652 31.6126675,236.340985 C26.3207752,238.98949 20.8216087,241.228564 15.414564,243.659559 C9.81559867,246.177558 7.04938226,245.35102 3.56666206,240.092394 C2.3230162,238.214131 1.13054918,236.30516 0.531756724,234.096793 C0.0839418558,232.446275 -0.171952354,230.757373 1.52206732,229.690294 C2.96275172,228.779311 4.59279784,228.689748 6.176783,229.511168 C6.35590895,229.605849 6.55294749,229.713325 6.67577671,229.866861 C10.5807224,234.751882 14.9565134,232.592135 19.3297454,230.74202 C30.0773022,226.197338 40.0239102,220.12241 50.3057396,214.67954 C55.9686784,211.683019 58.55321,207.256049 58.4482933,200.868929 C58.374084,196.582701 59.4078966,192.393713 60.3777357,188.184253 C63.1618647,176.088134 69.2233228,161.383633 73.2152725,149.32078 C70.008918,147.516726 66.4110454,147.716323 63.0511544,147.201976 Z" id="Fill-161" fill="#000000"></path>
                <path d="M139.920694,41.548669 C139.419729,41.8287782 138.934925,41.9311258 138.797564,42.2058482 C138.39356,43.0354023 138.676363,43.8191694 139.408956,44.3120538 C139.947628,44.6810438 140.685608,44.5706161 140.658674,43.8057026 C140.63174,43.0596426 140.192723,42.324356 139.920694,41.548669 M134.073415,22.7625003 C137.467045,19.5547115 138.856818,19.686686 142.937254,23.1826641 C144.100785,24.176513 144.755271,23.6109079 145.738346,23.2715449 C147.884952,22.5281782 150.080039,22.35311 151.450958,24.5805166 C152.770703,26.7298159 151.72568,28.6555666 150.465189,30.5409168 C149.651795,31.7502344 148.151595,32.5420815 148.065407,34.2146565 C148.897655,34.9607165 149.724515,34.4408985 150.521749,34.2604436 C154.036581,33.4605164 157.793814,31.7071406 160.476399,35.6825363 C161.895798,37.7887419 159.536417,40.207377 153.95578,43.0138555 C150.920366,44.5409892 148.022313,46.3374587 144.542495,48.306303 C151.160075,55.7615166 154.085772,63.1021867 158.193143,71.26306 C162.357073,79.5316675 160.737654,90.5192953 159.016599,99.0491586 C155.843824,114.732579 146.49518,127.178584 135.121131,138.022042 C130.660931,142.277547 125.123388,143.847774 118.632396,143.958202 C106.094817,144.168284 94.3113778,141.310631 82.6760734,137.332542 C79.0077204,136.077438 75.6733438,133.895818 72.872252,131.213234 C67.9030074,126.451378 63.033417,121.565627 58.3819886,116.494035 C49.9113792,107.263899 50.595492,92.8119022 50.2803692,81.4917206 C50.2049552,78.8091365 52.2923072,76.7648781 54.3877394,75.2135042 C56.4804782,73.667517 58.8856464,73.9045325 61.1319066,74.9845688 C63.0899775,75.9299373 62.8798956,77.8314477 62.6132532,79.5147962 C61.3770021,87.295906 60.581219,99.0885987 64.7093966,105.335455 C76.1667308,122.672965 89.9104316,132.454872 108.047501,133.650723 C109.765863,133.763844 111.551559,133.586082 113.191814,133.995472 C120.455799,135.813489 125.376563,132.427938 130.19498,127.445227 C138.452814,118.90459 144.464388,109.22197 147.2978,97.6836263 C149.428246,89.0083218 150.036945,80.3141637 146.398219,71.803154 C145.547529,69.8091535 143.371688,64.658935 143.152723,64.0732179 C138.514761,51.651453 129.114944,45.5105979 116.391523,44.0292513 C111.276837,43.4367126 106.084044,43.5417536 100.928957,43.2643377 C93.333689,42.852254 86.3255728,45.00694 80.1012236,49.0227361 C72.7241173,53.7872855 65.1288491,58.5679951 61.6571113,67.3671941 C61.4227892,67.9624261 61.1480667,68.5980585 60.7144362,69.0451559 C59.2411696,70.5561294 57.7894499,72.4522531 55.349268,71.7681403 C53.2134355,71.1702149 51.2068841,66.462226 52.1091589,64.1082315 C53.7332535,59.8877403 55.3519614,55.4006067 58.5597502,52.2736186 C67.8895406,43.183537 78.0273383,34.941863 91.5830067,33.4632097 C101.190213,32.4128003 110.91862,32.4128003 120.50428,34.4139649 C121.759384,34.6752206 123.019876,34.9068494 124.889066,35.273146 C126.43236,29.6978959 130.367355,26.2665584 134.073415,22.7625003 Z" id="Fill-167" fill="#000000" transform="translate(105.579213, 82.211739) rotate(310.000000) translate(-105.579213, -82.211739) "></path>
                <path d="M116.534769,100.1172 C116.299005,98.6982507 116.949538,96.0306266 114.273182,94.6684356 C111.596826,93.3062446 109.649592,95.1617933 107.824605,96.6287682 C103.7293,99.9119978 101.808261,109.338185 104.23139,113.647424 C105.427673,115.77803 107.073654,116.533348 109.317776,115.101301 C114.465286,111.809339 116.185489,106.770979 116.534769,100.1172 M93.0369738,108.818631 C94.159035,100.632387 94.2594529,92.3893853 102.183737,86.5738775 C107.623769,82.5789904 112.37834,79.6625045 119.211125,82.4698405 C126.353896,85.3950583 127.820871,91.8741977 127.563277,97.9516652 C127.253291,105.46118 125.550552,113.123504 120.403042,119.305756 C115.342852,125.387589 110.016335,126.845832 102.773147,124.125816 C95.481932,121.388336 92.6353021,116.921922 93.0369738,108.818631" id="Fill-486" fill="#000000"></path>
            </g>
        </g>
    </g>
</svg>