<?xml version="1.0" encoding="UTF-8" standalone="no"?>
<svg width="356px" height="238px" viewBox="0 0 356 238" version="1.1" xmlns="http://www.w3.org/2000/svg" xmlns:xlink="http://www.w3.org/1999/xlink">
    <!-- Generator: Sketch 48.2 (47327) - http://www.bohemiancoding.com/sketch -->
    <title>bicycle_0001</title>
    <desc>Created with Sketch.</desc>
    <defs></defs>
    <g id="Page-1" stroke="none" stroke-width="1" fill="none" fill-rule="evenodd">
        <g id="bicycle_0001" fill="#000000">
            <path d="M249.7402,31.0082 C251.2532,31.0082 252.7542,31.0292 254.2552,30.9992 C254.9712,30.9852 256.1062,31.2422 256.2032,30.4282 C256.2862,29.7212 255.1742,29.4772 254.4812,29.0812 C253.4072,28.4662 252.3712,28.6082 251.3032,28.4602 C248.5962,28.0862 245.8932,27.6732 243.1912,27.2582 C239.9932,26.7652 236.9022,25.4042 233.5582,26.0852 C233.0222,26.1942 232.3142,25.8762 232.1592,26.7922 C232.0042,27.7092 232.5572,27.8632 233.2622,28.1112 C238.6032,29.9862 244.0002,31.5032 249.7402,31.0082 M220.9242,166.5422 C221.5252,166.5422 222.1272,166.5362 222.7282,166.5432 C225.8822,166.5812 226.0582,166.5602 225.8072,163.4902 C225.4502,159.1272 226.1722,154.8292 226.2832,150.4982 C226.3402,148.2712 227.8232,146.4132 228.8232,144.6482 C229.9932,142.5802 230.7992,140.7332 230.5562,138.4132 C230.4642,137.5182 230.3672,136.6632 231.0562,135.8672 C232.9442,133.6882 235.3602,132.4022 238.0912,131.7352 C240.2232,131.2132 241.2362,132.0002 241.2632,134.2482 C241.3022,137.3632 240.2192,140.2502 238.4692,142.7382 C236.6192,145.3642 235.2672,148.0372 235.4222,151.3202 C235.4492,151.9182 235.6142,152.6642 235.3352,153.0982 C233.0182,156.7012 233.7112,161.0522 232.3222,164.8772 C231.7152,166.5532 232.5762,167.2562 234.1672,167.5752 C237.5872,168.2612 241.0982,167.6752 244.5292,168.5662 C247.5592,169.3532 250.7712,169.1652 253.8652,169.5672 C258.5452,170.1752 263.1972,170.7912 267.9272,170.7132 C274.5882,170.6022 281.2512,170.4632 287.8322,171.8512 C288.5112,171.9942 289.4042,172.2312 289.9212,171.4782 C290.4062,170.7702 289.9912,170.0732 289.6842,169.3632 C287.3492,163.9462 283.9452,159.1262 280.8592,154.1652 C277.7722,149.2032 275.0342,144.0192 271.4592,139.3212 C268.6842,135.6752 266.6842,131.4352 264.3972,127.4262 C262.2622,123.6832 260.0932,119.9532 258.1522,116.1092 C256.9302,113.6882 256.5722,113.6392 254.0562,114.5962 C251.8842,115.4232 249.9752,116.5142 247.9832,117.6632 C244.9952,119.3862 242.3352,121.2192 240.6372,124.2542 C240.1462,125.1322 239.4852,125.5502 238.4642,125.5252 C237.0152,125.4872 235.6162,125.3922 234.8112,123.9382 C233.7262,121.9752 234.0302,120.0242 235.3572,118.4002 C239.7492,113.0282 246.1042,110.7022 252.1582,107.9892 C253.2402,107.5052 253.8462,107.1572 253.1952,106.2032 C252.1032,104.6032 251.5692,102.7702 250.7102,101.0792 C247.9952,95.7352 245.4242,90.3162 242.6252,85.0152 C240.9012,81.7492 238.8992,78.6262 236.7342,75.6182 C236.0552,74.6762 234.9732,74.1042 234.6272,75.3492 C234.1482,77.0722 233.1632,78.5082 232.5692,80.1512 C231.0882,84.2572 229.8462,88.4342 228.4692,92.5702 C227.4452,95.6402 226.1662,98.6492 225.2402,101.7152 C223.2032,108.4592 221.1652,115.1902 218.8542,121.8522 C216.3282,129.1392 213.6912,136.3832 210.9572,143.5912 C208.5632,149.9002 206.6152,156.3832 203.6782,162.4792 C202.9002,164.0962 203.6502,164.2602 205.0072,164.5752 C207.2932,165.1062 209.6472,164.6772 211.8662,165.1642 C214.8672,165.8222 217.8282,166.5532 220.9242,166.5422 M124.1282,72.0512 C124.7222,72.9812 124.8212,74.1122 125.6222,75.0862 C131.0162,81.6462 136.2852,88.3152 140.6602,95.6112 C142.6602,98.9452 145.2762,101.8322 147.2982,105.0932 C150.0552,109.5422 152.9962,113.8502 156.0492,118.0842 C161.0232,124.9842 166.5612,131.3892 173.0962,136.8872 C175.8172,139.1762 178.5802,141.4672 180.7532,144.2852 C182.4272,146.4562 183.5412,149.0582 185.2032,151.2402 C187.7672,154.6052 190.0002,158.1992 194.0842,160.2942 C196.8872,161.7322 196.9502,162.2222 198.3202,159.3372 C199.8622,156.0872 200.8382,152.5972 202.1942,149.2902 C203.5492,145.9872 204.9232,142.6352 205.9562,139.2822 C207.1602,135.3712 208.4232,131.3842 210.0112,127.7252 C212.1342,122.8332 213.6282,117.7532 215.6562,112.8812 C218.1672,106.8502 219.1212,100.4222 221.3512,94.3482 C223.6222,88.1682 224.9902,81.6742 227.9512,75.7232 C228.4282,74.7662 228.8922,73.3812 228.2272,72.2792 C227.4702,71.0252 226.0802,71.3572 224.9232,71.5462 C223.3432,71.8032 221.7262,72.0182 220.2252,71.5592 C216.9752,70.5672 213.6822,70.9172 210.3992,70.9482 C204.3802,71.0052 198.3402,71.4822 192.3452,71.1372 C183.9332,70.6542 175.5162,70.8752 167.1012,70.4952 C158.5492,70.1112 149.9482,70.6862 141.3722,70.9372 C138.9162,71.0092 136.4662,71.3852 134.0192,71.6762 C130.7972,72.0582 127.5712,72.1632 124.1282,72.0512 M286.1082,109.6832 C278.9802,109.0832 271.9802,110.5702 264.9132,111.1262 C264.6912,111.1432 264.4702,111.2012 264.2552,111.2602 C262.3592,111.7792 261.9292,112.6702 263.0852,114.3182 C264.6492,116.5492 265.6312,119.1012 266.9352,121.4502 C269.4582,125.9922 272.5692,130.1282 275.1292,134.6122 C276.9202,137.7502 279.0712,140.6482 280.7542,143.8722 C282.5272,147.2702 284.7242,150.4652 286.7112,153.7612 C288.4062,156.5762 290.4272,159.2322 292.1402,162.0762 C293.8372,164.8892 294.8632,168.2482 297.6842,170.2052 C300.0202,171.8242 301.2542,173.8642 301.5942,176.6232 C301.8792,178.9342 300.5152,182.1692 298.8792,182.4362 C296.2112,182.8722 293.8372,182.0352 292.1972,179.9282 C291.2602,178.7232 290.3402,178.1542 288.8682,178.2872 C288.2812,178.3402 287.6142,178.3542 287.0912,178.1332 C284.8892,177.2022 282.4872,176.6212 280.2382,176.8182 C273.8362,177.3792 267.5282,175.8552 261.1572,176.3072 C260.9362,176.3222 260.6922,176.3042 260.4882,176.2262 C256.8022,174.8082 252.8702,175.6862 249.0422,175.0002 C244.7742,174.2352 240.2822,173.7842 235.8382,174.2052 C235.3472,174.2522 234.7722,174.1242 234.3372,173.8912 C232.6172,172.9692 232.3252,174.1422 232.3232,175.3392 C232.3152,181.4862 233.0192,187.5792 233.9042,193.6522 C234.0222,194.4622 234.2812,195.2532 234.4892,196.0492 C235.3952,199.5132 237.6142,202.2542 239.4482,205.2262 C244.9312,214.1132 251.9702,221.1792 261.7692,225.2642 C265.0312,226.6242 268.4652,227.3772 271.8192,228.3672 C273.6992,228.9232 275.4432,229.8002 277.3302,230.3452 C279.8702,231.0802 282.4052,230.6802 284.9092,231.1032 C290.2202,232.0022 295.4842,231.4552 300.7982,230.8052 C304.0772,230.4042 307.0282,229.1342 310.1352,228.3142 C313.3912,227.4552 316.6522,226.4062 319.6422,224.7862 C323.6772,222.5992 326.6322,219.2042 329.6952,215.8562 C335.3672,209.6582 339.1502,202.2672 342.7712,194.8992 C345.0602,190.2412 345.7522,184.8002 346.5712,179.5592 C347.0042,176.7992 346.8752,173.9922 347.3252,171.2762 C348.1842,166.0942 349.0042,160.9372 348.5212,155.6702 C348.0372,150.3752 347.2672,145.1052 347.1782,139.7762 C347.1632,138.9472 346.8962,138.1972 346.5572,137.4152 C344.1562,131.8552 339.5542,128.2242 334.9072,124.8972 C331.5082,122.4632 327.9852,120.0962 324.0372,118.3182 C321.3672,117.1162 318.5662,115.7502 315.9092,114.4892 C311.0722,112.1952 305.6942,110.7122 300.2702,110.3862 C295.5582,110.1032 290.8872,108.9112 286.1082,109.6832 M113.4992,70.5902 C112.1252,71.8422 111.6092,73.5482 111.2252,75.2762 C110.4932,78.5742 108.7392,81.4992 107.8312,84.7222 C106.2162,90.4552 104.4302,96.1302 102.2982,101.6932 C101.9122,102.6992 102.3732,103.3802 103.2012,103.9722 C106.7242,106.4942 110.1522,109.1082 113.4042,112.0112 C117.4692,115.6392 120.3862,119.9132 122.9922,124.6332 C126.8512,131.6222 129.6942,139.0022 132.4162,146.4532 C134.5832,152.3842 134.7122,158.5642 134.5942,164.7932 C134.4982,169.7752 133.6822,174.7142 133.9512,179.7242 C134.0872,182.2522 132.8072,184.6242 132.0672,187.0122 C131.6572,188.3362 131.3132,189.7272 130.9272,191.0482 C129.0082,197.6052 124.8322,202.6442 120.4232,207.5712 C118.8082,209.3752 117.1522,211.1462 115.6202,213.0182 C112.8122,216.4492 109.2762,218.8952 105.5402,221.2222 C99.5942,224.9262 93.1182,227.5062 86.8812,230.5902 C83.9842,232.0232 81.1282,233.5882 78.1132,234.7162 C75.8342,235.5692 73.3542,236.0082 70.9252,236.3082 C65.8542,236.9332 60.8552,236.5492 55.8842,235.1622 C52.7512,234.2882 49.5562,233.6082 46.4492,232.6252 C41.0782,230.9252 35.7762,229.0962 30.7242,226.5062 C27.4462,224.8252 24.1472,223.1742 21.0612,221.1912 C19.2012,219.9952 17.6012,218.3432 16.1552,216.5962 C10.8192,210.1462 6.3642,203.1272 3.6642,195.2072 C2.5532,191.9492 1.7662,188.4742 1.4272,184.9552 C0.6142,176.5502 0.7952,168.1092 0.9272,159.7072 C1.0082,154.5492 2.4842,149.3992 3.4942,144.2772 C3.9072,142.1792 3.9032,140.0322 4.9082,137.9802 C6.3942,134.9442 8.9282,132.5822 10.1232,129.3982 C10.2792,128.9812 10.7272,128.5302 10.6462,128.1892 C10.0232,125.5722 11.8372,124.1782 13.2782,122.5362 C14.5622,121.0732 16.0872,120.8642 17.5342,122.0942 C20.0702,124.2532 20.6572,127.7292 18.3712,130.2422 C14.8292,134.1362 13.1322,139.0452 11.0422,143.7482 C9.7382,146.6802 8.9722,149.6692 8.4412,152.8472 C6.7952,162.6752 7.0352,172.5292 7.6692,182.3782 C8.0152,187.7662 9.5552,192.7772 12.0762,197.7932 C14.4102,202.4412 16.8902,206.9132 20.1692,210.8012 C23.2012,214.3962 27.1962,217.0322 31.3342,219.4642 C35.3532,221.8272 39.8502,222.8832 43.9702,224.9482 C47.2612,226.5982 50.9802,227.5762 54.6192,228.3052 C58.7512,229.1332 62.7852,230.5332 67.1522,230.2762 C72.2672,229.9752 76.8922,228.2622 81.4502,226.1952 C88.6642,222.9252 95.8802,219.6402 102.7602,215.7082 C107.4882,213.0052 111.1292,208.9652 114.5112,204.7952 C115.8442,203.1542 117.3452,201.6762 118.7192,200.0952 C121.8492,196.4932 124.3802,192.5072 125.7502,188.0472 C127.2732,183.0852 128.6632,177.9952 128.4862,172.6732 C128.3842,169.6002 128.5302,166.5422 128.7352,163.4622 C129.0522,158.7192 128.2402,154.0002 127.0952,149.3412 C124.7452,139.7782 119.9382,131.3222 115.2452,122.8372 C114.0302,120.6402 112.0392,118.7162 110.0252,117.1542 C107.4612,115.1652 105.1922,112.8742 102.7622,110.7562 C102.0062,110.0952 101.2562,109.6462 100.3972,109.7692 C99.3612,109.9172 99.9002,110.9892 99.6732,111.6312 C97.1842,118.6322 95.6312,125.9562 92.3882,132.6962 C90.1502,137.3472 87.6712,141.9022 85.7432,146.6782 C83.4062,152.4662 80.6142,158.0932 80.9992,164.7752 C81.1662,167.6842 79.5112,170.7742 78.3602,173.6532 C77.7192,175.2582 74.5022,175.6472 71.8472,174.8682 C69.7822,174.2622 68.4852,173.2002 68.5582,170.7682 C68.6512,167.6912 69.7192,165.1302 71.7962,162.8952 C74.0782,160.4402 75.5232,157.4972 76.3062,154.2632 C77.1912,150.6082 79.2712,147.4492 80.4662,143.9402 C82.3682,138.3502 86.1922,133.6862 88.0202,128.0972 C89.2312,124.3992 90.8312,120.8552 91.9802,117.1142 C93.0142,113.7492 93.7692,110.2042 95.4452,107.0302 C95.9922,105.9952 95.5692,105.3532 94.6932,104.8052 C90.7602,102.3432 86.4962,100.6152 82.1412,99.0712 C76.0072,96.8972 69.6652,95.8282 63.1882,95.6582 C60.0192,95.5752 56.8882,95.1722 53.6502,95.6412 C48.3002,96.4172 43.4182,98.0982 38.8872,101.0092 C35.5412,103.1592 32.3962,105.5442 29.4412,108.2032 C28.1762,109.3422 27.4702,110.7252 27.6382,112.3512 C27.8572,114.4652 26.4202,115.6162 25.2752,116.9102 C24.5902,117.6862 20.2882,116.4182 19.7092,115.3972 C18.6842,113.5892 19.1792,109.0742 20.6122,107.4382 C23.7122,103.8972 27.5582,101.2392 31.3372,98.5202 C33.5862,96.9022 35.8102,95.2192 38.4062,94.1272 C42.8452,92.2592 47.2582,90.6122 52.1352,89.8522 C58.8812,88.8022 65.4802,89.7622 72.1032,90.1882 C75.6842,90.4182 79.1912,91.7562 82.6832,93.0532 C86.3342,94.4092 89.8942,95.9162 93.4462,97.4842 C93.7832,97.6332 94.1442,97.7422 94.4542,97.9352 C97.5372,99.8622 97.6242,99.7332 98.5342,96.0442 C99.5302,92.0082 100.7072,88.0432 102.2322,84.1272 C103.9262,79.7822 105.1952,75.2302 106.7592,70.8062 C107.9702,67.3772 109.3612,64.0172 110.7622,60.6572 C112.0192,57.6442 112.7812,54.4312 114.1292,51.4112 C116.2482,46.6602 118.0892,41.7862 120.0582,36.9692 C120.5152,35.8522 120.3862,34.6342 120.7722,33.4682 C121.1052,32.4642 119.8092,32.1172 119.0072,31.8762 C113.5002,30.2182 109.9582,26.1822 106.8312,21.7242 C106.1732,20.7872 106.4582,19.4552 106.9682,18.2532 C108.6312,14.3382 112.3762,12.3592 114.9792,9.3442 C117.2912,6.6702 120.5212,5.6752 123.2762,3.8402 C125.7542,2.1892 128.6762,1.4782 131.5242,0.8782 C134.0482,0.3452 135.7692,2.3642 135.9472,5.4622 C136.0382,7.0432 134.1902,8.6652 132.0212,8.6382 C127.7012,8.5852 124.1802,10.1502 121.4072,13.4512 C119.7282,15.4492 117.1412,16.4182 115.9582,19.1332 C115.1822,20.9112 115.8412,21.8192 116.7762,22.5572 C118.3982,23.8362 120.1272,25.0602 122.1302,25.7502 C122.5462,25.8932 123.1452,26.1742 123.4002,26.0032 C126.0702,24.2152 128.2902,25.9332 130.6792,26.7512 C132.2562,27.2912 133.9512,27.1222 135.5122,26.4902 C136.5472,26.0712 137.5952,25.5882 138.4792,24.9232 C140.3172,23.5392 141.8332,24.3962 143.2562,25.5042 C145.0722,26.9192 145.1232,28.9742 144.6452,30.9512 C144.2342,32.6552 142.5252,32.9712 141.1052,33.2112 C138.2222,33.6962 135.3052,34.1952 132.3962,34.2392 C129.6582,34.2802 128.2522,35.5902 127.2012,37.8732 C123.4692,45.9812 119.6612,54.0552 115.9012,62.1512 C115.6852,62.6172 115.5952,63.1592 115.5372,63.6762 C115.4832,64.1482 114.9732,64.6712 115.5932,65.1092 C116.3772,65.6652 116.6842,64.8012 117.0392,64.4892 C119.3832,62.4262 120.3352,62.2572 122.9352,63.6292 C123.2562,63.7982 123.6002,64.0592 123.9292,64.0532 C127.3702,64.0012 130.6632,65.2162 134.1552,65.0042 C140.0872,64.6432 146.0522,64.2612 151.9772,64.5092 C161.7622,64.9182 171.5432,64.4572 181.3072,64.7102 C193.9862,65.0382 206.6402,64.7952 219.3032,64.4572 C221.8022,64.3902 224.1582,63.1432 226.8072,63.7512 C227.6222,63.9382 228.8382,62.7142 229.7582,62.4892 C233.9332,61.4672 234.0862,57.9402 234.8412,54.8732 C235.9772,50.2572 237.9862,45.8002 237.3342,40.8102 C237.2002,39.7892 237.7542,38.3002 239.1142,37.7332 C239.6112,37.5252 239.8032,37.2122 239.7582,36.6982 C239.7062,36.1242 239.3082,36.0442 238.8342,35.9292 C232.9712,34.5112 227.2142,32.6672 221.0542,32.6842 C219.2602,32.6892 217.6622,31.2602 217.0192,29.4142 C216.4872,27.8852 218.0112,25.4752 219.6312,24.6062 C220.8482,23.9512 222.1062,23.6352 222.3052,21.5582 C222.4732,19.7972 224.3552,18.2742 226.4972,18.1232 C229.8362,17.8882 233.0442,18.0192 236.3162,19.4102 C239.1192,20.6022 242.4322,20.5272 245.4422,21.3122 C249.6282,22.4042 254.1282,21.4572 258.1642,23.5262 C261.4232,25.1972 264.6672,26.8452 267.3272,29.4212 C269.0542,31.0932 269.4972,35.1972 268.1792,37.0732 C266.9362,38.8412 262.9492,39.6812 260.8602,38.2782 C258.7202,36.8412 256.5092,36.7602 254.1832,37.1472 C251.8062,37.5432 249.5842,36.5462 247.2592,36.5562 C246.6532,36.5592 245.9402,36.3732 245.6852,37.0682 C245.4382,37.7392 246.0512,38.0382 246.5222,38.4532 C248.4312,40.1302 248.6992,42.3882 247.0872,44.3232 C245.6202,46.0832 245.0172,48.1752 244.3312,50.2492 C243.1022,53.9662 241.0942,57.3902 240.2802,61.2682 C239.9552,62.8182 240.2982,65.1782 240.9482,66.6002 C241.9712,68.8382 242.5262,71.3152 243.7102,73.4522 C246.4932,78.4772 248.3172,83.9302 250.9922,89.0072 C253.4702,93.7122 255.5402,98.6362 257.6902,103.5082 C258.2832,104.8512 259.1132,105.4282 260.4832,105.1202 C265.7662,103.9312 271.1792,104.0082 276.5112,103.3692 C279.4122,103.0212 282.3022,102.5562 285.2032,102.6792 C288.8302,102.8332 292.4632,103.1812 296.0542,103.7102 C298.8012,104.1142 301.5602,103.7192 304.3282,104.4632 C308.4782,105.5772 312.6152,106.7142 316.7412,107.9262 C321.1452,109.2202 325.1852,111.2492 329.0982,113.4872 C337.1042,118.0682 344.7232,123.3092 350.1902,130.8652 C351.9312,133.2732 353.4252,136.1822 353.6602,139.5852 C354.1802,147.1422 355.0782,154.6672 355.1142,162.2662 C355.1262,164.6202 354.4342,166.7792 354.1222,169.0332 C353.2132,175.6102 352.3512,182.2082 351.0362,188.7092 C350.2762,192.4652 348.5212,196.0072 347.4932,199.7222 C346.1812,204.4592 342.7052,207.8902 340.4372,212.0462 C337.8322,216.8202 334.2032,220.9052 330.3382,224.6572 C327.6972,227.2192 325.0372,230.0442 321.5662,231.4882 C317.5712,233.1512 313.4312,234.5452 309.2492,235.6652 C300.8022,237.9272 292.2182,238.2932 283.4712,237.6112 C277.7532,237.1642 272.4522,235.4452 267.0792,233.8752 C262.2562,232.4662 257.5592,230.6232 252.8082,228.9662 C252.5422,228.8742 252.2522,228.7892 252.0342,228.6202 C246.8372,224.5912 241.3882,220.6502 237.4262,215.4772 C234.1812,211.2422 230.6972,206.9262 228.7912,201.7472 C227.3262,197.7692 226.8462,193.5962 226.1712,189.4432 C225.3712,184.5232 225.3052,179.6202 225.5372,174.6792 C225.5972,173.3982 225.0642,172.7732 223.6622,172.8152 C221.4092,172.8832 219.0622,173.1782 216.9152,172.6842 C212.7542,171.7262 208.4922,172.8042 204.3552,171.6452 C201.9482,170.9692 201.0532,171.9522 200.6822,174.4452 C200.3212,176.8742 200.4272,179.5332 198.2442,181.3322 C197.7942,181.7032 197.3262,182.1962 196.7992,182.3032 C194.5462,182.7632 192.2582,182.0502 190.6422,180.8442 C189.2842,179.8292 188.8842,177.6122 189.8362,175.6742 C190.0642,175.2092 190.1312,174.6672 190.3112,174.1752 C190.9032,172.5702 191.9722,170.9522 188.7902,170.8532 C187.0252,170.7982 185.1632,168.2062 185.2822,166.4052 C185.3722,165.0532 184.7932,164.0282 184.2342,162.9462 C180.8022,156.2922 177.0272,149.7522 171.8732,144.3712 C167.8492,140.1712 163.6552,136.0802 159.6782,131.8282 C156.2322,128.1442 153.1772,124.0752 150.3072,119.8592 C147.5682,115.8352 144.9472,111.7302 142.1682,107.7372 C138.2212,102.0702 134.1292,96.5052 130.0612,90.9242 C127.1122,86.8762 123.4912,83.4152 120.1352,79.7252 C118.4232,77.8422 117.0232,75.6962 115.1002,73.9832 C114.1672,73.1532 114.8802,71.4152 113.4992,70.5902" id="Fill-167"></path>
            <path d="M188.46,196.3056 C186.709,196.5946 185.438,195.6556 184.358,194.5336 C183.523,193.6636 182.811,193.4956 181.865,194.2236 C181.009,194.8826 179.947,195.0016 179.098,194.5216 C177.243,193.4756 175.344,193.8896 173.414,193.9396 C170.862,194.0056 168.254,194.9606 165.786,193.3176 C163.601,191.8626 163.364,187.8316 164.929,185.7526 C168.035,181.6236 171.398,183.6426 174.601,185.1176 C176.984,186.2156 179.315,186.8296 181.902,186.5866 C184.077,186.3826 186.183,187.1226 188.447,186.7246 C190.546,186.3556 192.061,188.0686 192.791,189.9346 C193.692,192.2356 192.811,194.8836 191.099,195.9656 C190.284,196.4796 189.337,196.2096 188.46,196.3056" id="Fill-169"></path>
        </g>
    </g>
</svg>