<?xml version="1.0" encoding="UTF-8"?>
<svg width="476px" height="218px" viewBox="0 0 476 218" version="1.1" xmlns="http://www.w3.org/2000/svg" xmlns:xlink="http://www.w3.org/1999/xlink">
    <!-- Generator: Sketch 51.1 (57501) - http://www.bohemiancoding.com/sketch -->
    <title>birds</title>
    <desc>Created with Sketch.</desc>
    <defs></defs>
    <g id="animals" stroke="none" stroke-width="1" fill="none" fill-rule="evenodd">
        <g id="birds_DL" transform="translate(-162.000000, -402.000000)" fill="#2C2C2C">
            <g id="birds" transform="translate(162.000000, 402.000000)">
                <g id="Group" transform="translate(0.000000, 34.000000)">
                    <path d="M136.697487,53.0845175 C136.314297,53.139532 135.931106,53.1914903 135.550933,53.2434485 C135.931106,53.1884339 136.314297,53.1364757 136.697487,53.0845175 M140.656116,35.3545385 C136.154383,35.7732606 131.65265,36.311181 127.208244,37.121118 C125.313413,37.4695437 123.448754,37.9218859 121.599181,38.4720317 C119.396591,39.1291504 117.308655,40.0460602 115.235806,41.0271537 C114.137528,41.5406232 113.135802,42.4361384 112.158214,43.151328 C110.32071,44.5236364 108.929759,45.9326211 108.29312,48.2493465 C107.704757,50.4468736 108.009499,52.8461209 109.140967,54.8144206 C110.248296,56.7246493 112.076748,58.1458595 114.173735,58.7326818 C116.15305,59.2919967 118.922883,59.160573 120.6578,57.8707866 C121.762113,57.0577932 122.824184,56.354829 123.997893,55.7466122 C127.53109,54.5362913 131.166873,53.882229 134.847915,53.3443086 C140.459995,52.7116408 146.123368,52.1523258 151.768638,52.5924425 C156.958304,53.5215778 161.804003,55.4134683 166.670823,57.4551208 C169.537208,58.6532163 172.412645,59.8390863 175.282047,61.031069 C178.525588,62.5439701 181.49456,64.3533388 184.427324,66.3919349 C186.379483,67.9812452 188.262246,69.6225137 190.054491,71.4104878 C192.350616,73.6905368 194.589413,76.4015335 197.479937,77.9297164 C201.49891,80.0538908 206.495472,79.0025009 208.87608,74.8978014 C211.256688,70.7655946 209.666599,65.8937472 205.882971,63.3630762 C205.870902,63.3508508 205.855815,63.3416817 205.843746,63.3355689 C204.452795,62.1069098 203.200638,60.7284888 201.897187,59.411195 C199.881665,57.3573171 197.748472,55.4593138 195.509674,53.6560579 C191.762253,50.6119174 187.860952,48.0476263 183.48896,45.9815229 C180.269557,44.45334 176.911361,43.151328 173.63463,41.7545688 C174.319545,42.0540927 174.989374,42.3383347 175.674289,42.6378586 C170.98247,40.620657 166.314788,38.4964827 161.447968,36.9438488 C157.000545,35.5195822 152.375105,35.0030564 147.740613,35 C145.375091,35 143.009569,35.1375365 140.656116,35.3545385" id="Fill-220"></path>
                    <path d="M239.274167,41.7160607 C239.022485,42.0458106 238.76777,42.3755605 238.513056,42.7083356 C238.746544,42.3604343 239.001258,42.0306845 239.274167,41.7160607 M230.055929,27.1586624 C227.308652,28.4322835 225.613588,31.1277619 223.909427,33.4783642 C223.196833,34.4615634 222.51153,35.4659392 221.835323,36.4703149 C220.152389,38.963103 218.472486,41.467992 216.847165,44.0212846 C213.475231,49.3608125 210.245816,54.8455513 206.476648,59.93096 C204.059893,62.8987089 201.470296,65.6002377 198.404626,67.9750419 C196.794467,69.2274864 196,71.8382583 196,73.7895305 C196,75.9495435 196.879371,78.0551024 198.404626,79.5919183 C199.945042,81.125709 202.055533,82 204.232735,82 C206.625232,82 208.238423,80.9956242 210.048715,79.5919183 C217.926669,73.4930582 223.302964,64.90141 228.739905,56.7000162 C232.136097,51.5631787 235.699067,46.5322241 239.377265,41.601102 C239.404556,41.5708498 239.431847,41.5405975 239.456106,41.5163957 C242.903848,38.8995732 244.110709,34.1227378 241.842537,30.24137 C240.717549,28.3264005 238.843578,26.8863919 236.687602,26.2934471 C235.953782,26.0907568 235.247252,26 234.558917,26 C233.012436,26 231.556925,26.4628599 230.055929,27.1586624" id="Fill-222"></path>
                    <path d="M252.127042,43.7082554 C244.139819,51.8940182 237.174961,60.9947321 229.638066,69.5830734 C228.022365,71.4312747 227,73.4563665 227,75.9694323 C227,78.3513551 227.952381,80.6631316 229.638066,82.3557912 C231.314622,84.0362515 233.633198,85 236.009587,85 C238.553328,85 240.49156,83.950856 242.381109,82.3557912 C246.589234,78.7691828 250.0458,74.3743675 253.554093,70.1320441 C257.321019,65.5938865 261.194442,61.1502738 265.308242,56.9201497 C268.862176,53.2877937 268.932159,47.3406114 265.308242,43.7082554 C263.516061,41.9119013 261.094031,41 258.675044,41 C256.283441,41 253.894881,41.8936023 252.127042,43.7082554" id="Fill-224"></path>
                    <path d="M275.315213,61.1502839 C273.088775,62.2915104 270.834924,63.3421633 268.565845,64.3747016 C261.877393,67.1220987 255.143253,69.7759032 248.582722,72.8010592 C245.201946,74.358924 241.882086,76.0345343 238.574408,77.7554314 C235.196679,79.5246344 231.569198,81.1519389 228.654422,83.6396919 C225.584312,86.257267 225.273646,91.2810789 227.225968,94.5839937 C229.796575,98.949638 235.327646,100.1754 239.707425,97.8265262 C241.132833,97.0626894 242.667888,96.4588658 244.108524,95.7040864 C245.905513,94.7621217 247.702502,93.8050613 249.496445,92.8510201 C253.197023,90.8946318 256.946334,88.9473009 260.799199,87.2716905 C268.724224,83.8298963 276.838085,80.7383198 284.522496,76.7651608 C288.926641,74.5008225 290.211945,68.4988164 287.79667,64.3928163 C286.069734,61.4763486 283.081859,60 279.981292,60 C278.406643,60 276.79849,60.3804088 275.315213,61.1502839" id="Fill-226"></path>
                    <path d="M76.705779,1.82291325 C69.7357471,3.72442641 62.6142585,5.8375547 56.5196457,9.81894235 C54.2114473,11.3183867 51.9880647,13.098977 49.9161386,14.9309594 C47.9774944,16.6299267 46.105491,18.4014477 44.4849056,20.4208607 C42.5462613,22.8544348 40.698491,25.3212627 39.065789,27.9785442 C37.7420585,30.1037647 36.6182507,32.3257237 35.5035302,34.5567518 C33.2680311,39.0792696 31.1749011,44.040133 30.2510159,49.0342503 C29.9783941,50.4762563 29.7542383,51.9273315 29.5543156,53.3814298 C29.3150142,55.080397 29.0666254,56.7098336 29.0090719,58.4239162 C28.9272854,60.39496 29.4119465,62.4839037 29.9208406,64.3854169 C30.8295801,67.7863745 32.9832927,71.0815244 35.1491218,73.7750828 C36.4395319,75.3803348 37.8238451,76.7618793 39.386877,78.0950547 C44.4152356,82.3606112 49.9403717,86.4085065 55.6442266,89.7399334 C61.4995381,93.1771678 68.2938804,93.8150363 74.8943583,93.0592679 C78.4808502,92.6330146 82.1854782,92.2067612 85.6265717,91.0731087 C85.6841253,91.0579934 85.7416788,91.0368318 85.7992323,91.0186934 C85.7962031,91.0670626 85.7962031,91.1184548 85.793174,91.1698471 C85.7113874,93.9450284 86.0294463,96.6023099 86.4686703,99.3412144 C86.9048653,102.152673 88.301295,104.891577 89.5553555,107.394682 C89.9945796,108.26835 90.6094933,109.081557 91.1638244,109.873602 C92.5844872,111.880923 94.1475191,113.818713 95.8498911,115.590234 C99.1758777,119.072814 102.974409,122.189603 106.972863,124.871069 C114.130701,129.653571 122.166987,133.054529 130.282031,135.82971 C133.892756,137.057078 137.606471,138.145384 141.347449,138.864876 C143.416346,139.254852 145.488272,139.608552 147.572314,139.820167 C150.328824,140.092244 153.012635,140.034805 155.772174,139.786913 C158.395402,139.560183 161.009542,139.136952 163.614595,138.749999 C166.398367,138.396299 169.182139,138.051669 171.956824,137.661693 C175.828054,137.105447 179.54177,135.902264 183.185815,134.520719 C188.99569,132.322945 194.699544,129.901463 200.118661,126.833044 C202.98422,125.203607 205.63471,122.993741 208.130714,120.86852 C210.187495,119.121184 211.929245,117.053401 213.631617,114.964458 C215.71566,112.412984 217.642188,109.719425 219.535395,107.02889 C221.713341,103.921171 224.091209,100.864843 223.997306,96.8260174 C223.87917,92.2067612 220.907592,88.0863122 216.376011,86.8468521 C214.531269,86.3510681 212.698645,86.3510681 210.850874,86.8468521 C210.023922,87.1884594 209.206056,87.542159 208.379103,87.8867894 C207.24015,88.5579117 206.270827,89.4013491 205.474166,90.4110557 C203.862668,92.236992 202.502588,94.2866357 201.1001,96.2697719 C200.067166,97.7480548 199.009999,99.2081992 197.934657,100.650205 C195.835469,103.174471 193.621174,105.459915 191.134257,107.57002 C187.856736,109.725472 184.445934,111.487923 180.871558,113.084106 C179.202507,113.743136 177.524368,114.39612 175.828054,114.97655 C173.92273,115.63558 172.029523,116.240195 170.075733,116.760163 C169.088236,117.026194 168.073477,117.198509 167.05266,117.343616 C164.114402,117.685224 161.185232,118.063108 158.26212,118.465177 C154.94825,118.870268 151.685875,119.133276 148.335655,118.900499 C141.556459,117.775916 134.952952,115.656741 128.552396,113.162706 C124.311612,111.212824 120.301042,109.009003 116.396491,106.433345 C113.667244,104.178132 111.147006,101.759673 108.872128,99.0540225 C107.987622,97.8054932 107.197018,96.5388254 106.491231,95.1844885 C106.224667,94.3682587 106.00657,93.555052 105.824822,92.7116145 C105.588549,89.2894954 105.788472,85.9369071 105.836938,82.4785111 C105.861171,80.7190824 105.576433,78.8054769 105.197791,77.1155789 C104.407188,73.6329984 101.162988,70.3136638 97.6128457,69.6999799 C95.755988,69.3825572 94.3353253,69.2525651 92.5390502,69.4520879 C90.9033191,69.6304492 89.3069667,69.8783412 87.6984978,70.2199485 C84.7390362,70.8427017 81.8159241,71.7314852 78.8352586,72.2877307 C75.6637577,72.5628304 72.4801404,72.8500224 69.3025812,72.6988687 C68.7694541,72.5809688 68.2423852,72.4388844 67.7153163,72.2786615 C65.4434675,71.0785014 63.4200076,69.5941723 61.2996154,68.1068202 C59.5820978,66.900614 57.8706384,65.6853385 56.1924994,64.4247169 C54.4053118,63.0068954 52.6817358,61.5527971 51.1277913,59.8810376 C50.7158294,59.2340999 50.3341588,58.581116 49.9827795,57.9130168 C49.9676339,56.7491335 50.0585078,55.5943195 50.1796731,54.4304363 C50.7945868,50.8904173 51.8396372,47.5620135 53.1482221,44.2154713 C55.008109,40.330822 57.0739767,36.6547648 59.5820978,33.1691612 C61.4904507,31.0560329 63.5078524,29.1212659 65.6676233,27.2499835 C67.5850636,25.8623928 69.5539992,24.6320019 71.7077118,23.60718 C76.5967303,21.7479899 81.6160014,20.2727301 86.7534087,19.3023235 C89.4705398,19.0967546 92.12103,19.0937315 94.8381611,19.320462 C96.5405331,19.6318385 98.1974681,20.0248381 99.8392575,20.5871297 C101.029706,21.1977906 102.159572,21.8870513 103.265205,22.6458427 C104.737363,23.9276258 106.130764,25.2698704 107.418145,26.7390841 C108.62071,28.4954897 109.587003,30.3365414 110.46848,32.2592161 C110.919821,33.5561145 111.304521,34.8439438 111.604405,36.1740961 C111.713454,37.9123633 111.643784,39.6264459 111.501414,41.3768054 C111.274229,42.7583499 111.025841,44.1368714 110.747161,45.5153929 C110.274616,47.8552516 110.380636,50.0620952 111.62258,52.1752235 C112.758504,54.1130136 114.639595,55.5640888 116.805424,56.1566112 C121.112849,57.3356098 126.531966,54.7387897 127.467967,50.1104644 C128.094998,47.0148372 128.616008,43.9222332 128.970417,40.7812599 C129.524748,35.8324888 128.9583,30.8504639 127.252899,26.1737693 C126.010955,22.7486272 124.605438,19.3597619 122.581978,16.3245963 C120.79479,13.6310379 118.592612,11.1763023 116.202627,9.00271253 C109.859625,3.22864237 101.777902,0.510899402 93.3054205,0.0755768346 C92.3785062,0.0272076604 91.4455337,0 90.5155902,0 C85.862844,0 81.1888939,0.613683897 76.705779,1.82291325" id="Fill-228"></path>
                    <path d="M20.9764629,9.53321338 C19.7391605,9.75998229 18.5231909,9.9867512 17.3224591,10.3238401 C15.356794,10.8723757 13.3697961,11.328978 11.4528917,12.0215425 C8.57296374,13.0757115 5.15666828,13.9858516 3.17881302,16.4527296 C1.81046631,17.840923 0.868775587,19.4681432 0.344598228,21.3374545 C-0.295385756,23.6940124 0.09469972,25.3089748 0.405549084,27.6685973 C0.618877078,29.2008196 2.62111269,32.2162332 3.73956089,33.2121778 C5.09571742,34.419569 6.53720516,35.4982535 8.03659621,36.4911336 C9.38056258,37.3890159 10.9530947,37.9988404 12.3823922,38.740436 C13.7141684,39.436065 15.0124216,40.1408873 16.3106749,40.8947407 C18.4043368,42.1174541 20.488856,43.3371031 22.6190884,44.4862699 C25.2034047,45.86527 28.0162867,46.891859 30.7529801,47.9797369 C32.1030416,48.5956903 33.4409128,49.2392237 34.7970694,49.8367904 C37.7135678,51.1299861 39.6792329,51.8378728 42.9401037,51.991095 C46.1796417,52.1351239 50.2145883,50.5201616 52.29606,48.0073169 C53.7009773,46.5823501 54.6792385,44.9060988 55.2125585,42.9663053 C56.0232049,40.0213739 55.6056915,36.8129003 54.0697299,34.1682845 C53.9447807,33.9568378 53.8137363,33.7453911 53.6765969,33.5462022 C53.7680232,33.5553956 53.8533544,33.5615245 53.9417331,33.5707178 C54.4994335,33.6779734 55.0449436,33.7944223 55.5843587,33.9261934 C56.355387,36.108078 58.3454325,38.1275471 60.1770057,39.2092961 C62.6180874,40.655714 65.6077269,41.0387696 68.3322301,40.2849162 C70.9744497,39.5555783 73.272297,37.7720715 74.665024,35.390998 C76.225366,32.7065444 76.1766053,30.1569264 75.7255689,27.1905439 C75.4634803,25.4530037 74.9271127,23.1914435 73.9153285,21.7664767 C73.2143937,20.7490811 72.4738408,19.7684588 71.6906223,18.7970298 C70.3679887,17.5160919 68.9143108,16.4895029 67.3570165,15.5425895 C65.9764796,14.9450228 64.5959427,14.3566494 63.2001681,13.7835982 C61.7617279,13.182967 60.1526253,12.9561981 58.6288539,12.6681403 C55.9531114,12.1533136 53.1889901,11.8192891 50.476677,11.604778 C46.6032501,11.2952691 42.7420134,11.0010824 38.8899193,10.605769 C36.5036933,10.1890046 34.1296575,9.70788673 31.7373364,9.3769267 C29.9849993,9.13177112 28.3332311,9 26.6906056,9 C24.8194143,9 22.9604132,9.1716089 20.9764629,9.53321338" id="Fill-230"></path>
                    <path d="M144.11614,139.087253 C144.496889,145.101231 144.865454,151.115209 145.307124,157.129187 C145.435055,158.852631 145.605631,160.567037 145.806667,162.281442 C144.841086,162.643004 143.905966,163.082904 142.949524,163.486648 C141.450894,164.369462 140.247727,165.544538 139.358296,167.038993 C138.011967,169.322858 137.643401,172.11291 138.356164,174.667947 C139.035421,177.138619 140.713764,179.280873 142.949524,180.585508 C145.06649,181.811805 148.280014,182.492747 150.658936,181.57679 C151.725034,181.170033 152.763718,180.877771 153.845046,180.66686 C154.417693,180.606599 154.99034,180.549352 155.562987,180.492105 C158.167313,180.199842 158.57243,180.151634 160.951352,179.091053 C162.593143,178.349851 163.595275,176.997008 164.594361,175.595956 C166.044255,173.571209 166.342762,170.371388 165.626953,168.039314 C165.441148,167.433698 165.194422,166.84616 164.932467,166.267661 C164.627867,165.342666 164.439016,164.396579 164.274532,163.435427 C163.345503,155.351508 163.022628,147.204315 162.498717,139.087253 C162.343371,136.628633 161.606241,134.450223 159.809104,132.660492 C158.085071,130.967178 155.730517,130 153.302859,130 C148.529786,130 143.79631,134.142896 144.11614,139.087253" id="Fill-232"></path>
                    <path d="M177.325215,183.4497 C177.334468,183.4497 177.343721,183.452758 177.352974,183.455815 L177.340637,183.455815 C177.334468,183.452758 177.328299,183.4497 177.325215,183.4497 M168.565751,131.736704 C166.712076,133.574423 165.95025,135.821884 165.796034,138.365948 C165.385819,145.077752 164.987942,151.789555 165.00028,158.516648 C165.00028,161.369547 165.037291,164.225504 165.216182,167.069229 C165.361145,169.301401 165.530782,171.594728 166.119887,173.756571 C166.53627,175.291571 167.30735,176.422946 168.084598,177.701093 C168.223392,178.037448 168.365271,178.370745 168.519487,178.700984 C169.157941,180.086154 171.011616,181.83214 172.362547,182.559889 C174.240897,183.5873 175.554816,183.896134 177.698418,183.993983 C178.269016,184.021503 178.855037,183.951174 179.444142,183.853326 C182.232365,184.094889 185.039095,183.208136 187.158021,181.101333 C190.782095,177.508454 191.109033,170.937308 187.158021,167.390295 C185.96439,166.31396 185.119287,165.732984 183.916403,165.207048 C183.463008,156.278361 184.150811,147.233479 184.69982,138.365948 C185.011336,133.265588 180.168956,129 175.252553,129 C172.760424,129 170.33615,129.993775 168.565751,131.736704" id="Fill-234"></path>
                </g>
                <path d="M308.439366,154.823817 C308.456839,154.952383 308.471399,155.08095 308.488871,155.206526 C308.471399,155.08095 308.453927,154.952383 308.439366,154.823817 M308.16272,147.519453 C308.066622,147.651009 307.970524,147.779575 307.874426,147.908142 C307.967612,147.776585 308.060798,147.648019 308.16272,147.519453 M330.725392,122.377251 C331.919339,122.664283 333.057956,123.017093 334.196573,123.444651 C337.6066,125.229631 340.82443,127.38536 343.902482,129.720484 C344.97121,130.647358 345.946751,131.607121 346.872787,132.665551 C347.475585,133.625314 347.999756,134.606007 348.480247,135.628558 C349.283977,138.03544 349.863477,140.463252 350.27699,142.965811 C350.495395,145.291965 350.556549,147.582241 350.396385,149.914375 C350.084794,151.582748 349.668369,153.188333 349.115077,154.796908 C347.367838,158.570181 345.192527,162.062403 342.781338,165.423068 C341.086516,167.557868 339.2723,169.513273 337.23968,171.325162 C335.777823,172.347713 334.272286,173.232728 332.679387,174.019076 C331.290333,174.521382 329.90419,174.93698 328.462719,175.259891 C327.126081,175.361548 325.809828,175.379488 324.458631,175.316699 C322.490075,174.92502 320.597234,174.353946 318.71604,173.630387 C317.265832,172.900847 315.87969,172.09656 314.537228,171.181646 C313.96064,170.634491 313.427732,170.072387 312.900648,169.471414 C312.300763,168.55351 311.764943,167.617666 311.272805,166.619034 C309.758531,162.310566 308.963538,157.879511 308.252994,153.358758 C308.034589,151.633577 307.848217,149.908395 307.833657,148.171254 C308.541288,147.384906 309.272217,146.616498 310.006057,145.84809 C313.564599,142.149564 313.654873,136.080035 310.145836,132.330681 C311.269892,131.104815 312.478399,129.974627 313.748059,128.889288 C316.24661,127.03554 318.817962,125.432945 321.601896,124.084493 C323.518034,123.360934 325.428348,122.78986 327.4202,122.371271 C328.532608,122.296523 329.618808,122.299513 330.725392,122.377251 M322.327,105.427419 C318.925709,106.079221 315.704966,107.610057 312.577409,109.057177 C310.064298,110.214274 307.766679,111.801919 305.536038,113.449363 C302.827819,115.458586 300.279763,117.653184 297.970496,120.128835 C293.727619,124.685466 291.543571,130.327437 289.406116,136.118904 C288.797494,137.775317 289.036283,139.862278 289.688586,141.5755 C289.618696,141.784794 289.560455,141.991098 289.508038,142.203382 C289.120733,143.734219 288.972218,145.288976 288.803318,146.852701 C288.529584,149.37619 289.155678,152.108973 289.554631,154.560704 C289.758475,155.77461 289.950672,156.979546 290.157428,158.181492 C290.588414,160.845507 291.167914,163.494572 291.794008,166.122708 C292.545321,169.26511 293.817893,172.243066 295.07008,175.197103 C296.310619,178.14217 298.404394,180.710507 300.486519,183.057591 C302.190077,184.998046 304.467311,186.516924 306.628062,187.847436 C309.289689,189.47096 312.248346,190.648987 315.172058,191.677518 C321.25536,193.803348 327.592011,193.803348 333.826741,192.517685 C336.578641,191.95857 339.205323,190.640017 341.753379,189.48292 C344.825606,188.08065 347.487233,185.862132 350.046937,183.676504 C352.300875,181.762958 354.187892,179.427833 355.972988,177.0658 C357.964839,174.440654 359.851857,171.776639 361.581623,168.951169 C364.447094,164.242051 366.610758,158.988769 367.484377,153.499284 C368.497775,147.178602 367.88333,140.848951 366.497187,134.647865 C365.859445,131.786516 364.744125,129.134461 363.593859,126.473436 C362.376616,123.612086 360.329435,121.112517 358.270606,118.85812 C356.293315,116.672492 353.687017,114.944321 351.322421,113.252028 C350.376001,112.573318 349.397547,111.942445 348.430742,111.278684 C343.564683,107.971837 338.159892,105.496187 332.324116,104.817476 C331.32819,104.697879 330.349736,104.647051 329.380019,104.647051 C327.021247,104.647051 324.71198,104.960992 322.327,105.427419" id="Fill-284"></path>
                <path d="M386.939958,71.784887 C382.935869,71.8656147 378.931781,72.4157592 375.017967,73.2110768 C369.831581,74.2605372 364.974258,76.8199051 360.617811,79.8307502 C356.794271,82.4708458 353.416276,85.5654086 350.527509,89.2459949 C347.752312,92.7830652 345.169311,96.625107 343.395864,100.796039 C341.575824,105.080589 339.904299,109.356168 338.585134,113.829082 C337.184431,118.606967 340.221714,123.791481 344.816951,125.089105 C349.595648,126.443537 354.371433,123.465581 355.783784,118.699655 C356.430262,116.508047 357.149542,114.376237 357.921239,112.235457 C359.461721,108.826953 361.156542,105.585884 363.285261,102.497301 C364.66558,100.793049 366.127436,99.2083942 367.75528,97.7463254 C369.895647,96.16167 372.114639,94.7623895 374.487972,93.5514736 C376.511856,92.8129644 378.544477,92.2807594 380.676108,91.8801107 C385.807165,91.3389359 391.043056,91.4405931 396.182849,91.9249594 C398.733817,92.3166384 400.984842,92.2807594 403.320318,90.8695192 C405.492718,89.5718957 407.108913,87.4131766 407.778688,84.9255667 C408.463023,82.3542391 408.110663,79.5526881 406.800234,77.2624126 C405.629585,75.1963809 403.378559,73.1273592 401.011051,72.6848516 C397.126358,71.9702618 393.311554,71.7579778 389.42686,71.7579778 C388.599834,71.7579778 387.772808,71.7669475 386.939958,71.784887" id="Fill-286"></path>
                <path d="M409.100769,147.573271 C408.902749,147.662969 408.701816,147.752666 408.503796,147.839374 C408.698904,147.749676 408.899837,147.659979 409.100769,147.573271 M436.383897,90.9382872 C431.937175,93.6112719 430.810207,99.2412832 433.107825,103.773995 C433.393207,104.33311 433.664029,104.898204 433.926115,105.466288 C434.252266,106.408111 434.534736,107.358904 434.773526,108.333617 C434.881272,110.145506 434.825943,111.924506 434.665779,113.745364 C434.06007,117.249546 433.139858,120.607221 431.884758,123.923038 C430.22197,127.576715 428.209733,130.970269 425.903379,134.211338 C423.364059,137.362709 420.577214,140.200139 417.513722,142.792396 C415.111269,144.517577 412.609806,145.937787 409.954004,147.181592 C406.747821,148.440347 403.506694,149.474858 400.131612,150.120679 C398.818271,150.225326 397.522402,150.246256 396.203237,150.168518 C394.080343,149.729 392.021513,149.098128 389.962684,148.365599 C389.199723,148.096506 388.436763,147.791535 387.676714,147.510483 C385.912003,146.882601 384.04537,146.682276 382.204946,146.517831 C378.244538,146.168011 374.47924,149.615384 373.480402,153.340819 C372.251511,157.954259 374.968466,163.757685 379.802493,164.762297 C381.782696,165.171915 383.57944,166.092809 385.481018,166.807399 C389.086153,168.149871 392.726233,168.849512 396.558509,169.25913 C399.380299,169.552142 402.382637,168.92127 405.149098,168.475772 C408.206765,167.985426 411.177071,166.912046 414.077487,165.823717 C416.922573,164.762297 419.718155,163.455704 422.414726,162.029514 C425.419976,160.441869 428.081603,158.223351 430.684988,156.073602 C435.291873,152.276409 439.010579,147.594201 442.458463,142.723628 C445.679206,138.190916 447.965176,133.134968 449.930819,127.938494 C452.04789,122.308483 453.026343,116.140287 453.174858,110.127566 C453.311725,104.509515 451.378115,99.2054042 448.897036,94.3019424 C447.371115,91.2910973 444.173668,89.6974722 440.98787,89.6974722 C439.377499,89.6974722 437.772952,90.1011108 436.383897,90.9382872" id="Fill-288"></path>
                <path d="M461.429291,36.9942274 C461.205062,37.0899047 460.983746,37.1855821 460.762429,37.2842493 C460.977921,37.1766123 461.199238,37.0779451 461.429291,36.9942274 M421.388411,2.63411577 C418.738432,5.08584667 418.304535,9.03253545 417.725034,12.4320696 L416.531088,19.6497262 C415.712798,24.6488654 414.894508,29.6599641 414.186876,34.6710629 C413.34529,40.5910961 412.527,46.5021595 411.720358,52.4221927 C410.639982,60.3454694 409.23928,68.3345242 406.449522,75.8152934 C405.51475,77.9500932 404.466407,80.0221049 403.415151,82.0881366 C401.219455,86.3966052 402.299831,91.7575241 406.53106,94.3019424 C410.468171,96.6729456 416.225321,95.4022314 418.418105,91.1027326 C421.548574,84.9614457 424.175256,78.7244814 425.835133,71.997171 C426.411721,69.6829762 426.851443,67.3448621 427.253308,65.0007682 C427.6377,65.3565682 428.071598,65.6645295 428.543352,65.9246521 C432.585297,68.3614335 437.617344,67.099689 441.006986,64.1516321 C441.001162,64.1665817 440.995338,64.1815313 440.986602,64.1964808 C438.563764,69.4407931 436.551528,74.8943994 434.504347,80.300167 C433.616168,82.6592105 432.7309,85.0092843 431.842721,87.3683278 C430.773993,90.1459595 429.475213,92.7860551 429.431532,95.8566986 C429.44318,97.6207489 429.874165,99.2801521 430.739048,100.807999 C431.877665,102.793303 434.140339,104.943053 436.449606,105.316792 C438.54338,105.654652 439.553866,105.923745 441.635992,105.340711 C443.365758,104.850365 445.095524,103.821834 446.207933,102.350796 C447.381494,101.148849 448.176488,99.7346193 448.63077,98.0991354 C448.843351,97.3097977 448.951097,96.4995305 448.962745,95.6862734 C449.961583,92.4242753 451.140969,89.1981563 452.227169,85.9660573 C453.581279,81.9655501 455.083904,78.0338109 456.595265,74.090112 C457.669817,71.608482 458.691951,69.0730334 459.894634,66.6721311 C461.429291,63.6343767 462.952301,60.5876525 464.478222,57.5498982 C466.036177,54.4553354 467.765943,51.4415003 469.402523,48.3947762 C471.19053,45.06401 472.952329,41.7930422 474.341383,38.2679316 C475.034455,36.5038813 475.637252,34.4826982 475.613955,32.5691522 C475.637252,31.4120548 475.53533,30.2549574 475.284892,29.1217793 C474.897588,27.6627004 473.71529,25.1631309 472.541728,24.1585192 C470.086858,22.0566084 467.468912,20.3164775 464.26273,19.7424136 C460.279026,19.018854 456.207961,19.5929178 452.579529,21.4616152 C450.645918,22.4662269 449.006426,23.8206587 447.64358,25.5368703 C446.834026,26.5654013 446.094362,27.6148618 445.354698,28.6912314 C444.649978,29.6958431 444.0035,30.7453036 443.330813,31.7857942 C441.930111,33.9803924 440.509023,36.157051 439.067552,38.3157702 C438.956893,36.7311149 438.852059,35.1434696 438.747225,33.5618042 C438.531732,30.2071187 438.371568,26.8434635 438.132779,23.491768 C437.960967,21.111795 437.792068,18.7168725 437.620256,16.3339097 C437.483389,14.405414 437.256248,12.4679486 436.962129,10.5514126 C436.848559,9.74712531 436.711692,8.93984806 436.551528,8.14752039 C436.312739,6.8379373 435.674997,5.6599105 435.162474,4.45497445 C434.300503,2.44575108 431.89805,0.882025143 429.920758,0.319920984 C429.154886,0.104647051 428.394837,0 427.652261,0 C425.340082,0 423.167682,0.98966211 421.388411,2.63411577" id="Fill-290"></path>
                <path d="M401.665127,174.521382 C401.638919,174.703767 401.615622,174.883162 401.595238,175.065546 C401.659303,174.57221 401.726281,174.075884 401.787434,173.576568 C401.743753,173.89051 401.705896,174.207441 401.665127,174.521382 M389.623743,162.627497 C387.952218,163.632109 386.041904,165.70113 385.76817,167.779122 C384.711091,175.836945 383.584122,183.909717 382.821161,192.015379 C382.503746,195.459762 382.174683,198.904145 381.967926,202.363477 C381.752434,206.053033 382.230012,210.176127 384.903287,212.92087 C386.496186,214.556353 388.805453,215.569935 391.056478,215.569935 C391.898065,215.525086 392.730915,215.408479 393.537557,215.196195 C395.185785,214.801527 396.143854,213.853723 397.428074,212.828182 C398.441473,211.775732 399.146192,210.525947 399.542233,209.099757 C400.124646,206.938048 399.818879,204.564055 398.726855,202.61463 C398.788008,200.802741 398.962732,198.990852 399.122896,197.175973 C399.315092,194.921577 399.521848,192.655221 399.772286,190.412784 C400.331402,185.288068 400.942936,180.178302 401.595238,175.065546 C401.574853,175.206072 401.554469,175.352578 401.534085,175.499084 C401.580678,175.176173 401.618534,174.847283 401.665127,174.521382 C401.720457,174.084854 401.775786,173.648326 401.831115,173.211799 C401.816555,173.334385 401.801994,173.453982 401.787434,173.576568 C401.839851,173.16994 401.892268,172.763311 401.944686,172.356683 C402.046608,171.597244 402.14853,170.828836 402.250452,170.069397 C402.238804,168.514641 401.863148,167.067522 401.103099,165.72505 C400.011075,163.796554 398.191035,162.349435 396.085613,161.763411 C395.360509,161.557107 394.609196,161.45545 393.860796,161.45545 C392.381467,161.45545 390.910875,161.856099 389.623743,162.627497" id="Fill-292"></path>
                <path d="M384.10182,188.026831 C382.532217,190.000176 380.974263,191.97352 379.369716,193.902016 C378.731974,194.649494 378.094232,195.396973 377.447754,196.132493 C377.139075,196.482313 376.833308,196.832133 376.515893,197.184943 C374.4658,199.496148 373.341743,201.819312 373.193228,205.009553 C373.021416,208.908403 375.956777,212.517231 379.518231,213.521843 C383.356332,214.616152 387.235201,212.795293 389.192108,209.479477 C391.745988,206.668956 394.165913,203.786677 396.54507,200.802741 C398.082639,198.865276 399.116422,196.996578 399.116422,194.416281 C399.116422,192.021359 398.184562,189.707164 396.54507,188.026831 C394.896841,186.346498 392.645816,185.374776 390.324901,185.374776 C388.196182,185.374776 385.499611,186.262781 384.10182,188.026831" id="Fill-294"></path>
                <path d="M376.538277,165.671231 C374.729886,166.756571 372.886549,168.858481 372.510893,171.056069 C371.782877,175.259891 371.066509,179.451753 370.350141,183.658564 C370.00943,185.700677 369.65707,187.745779 369.325095,189.799851 C369.138723,190.962928 368.975647,192.143945 368.765978,193.310012 C368.291312,193.7286 367.813733,194.141209 367.3711,194.589696 C366.631435,195.313256 365.9471,196.060735 365.288974,196.844093 C363.672778,198.781558 362.752566,200.569528 361.899331,202.97641 C361.124722,205.206887 361.67219,208.056277 362.807895,210.041581 C363.969809,212.095653 365.915068,213.638449 368.142797,214.269322 C370.452064,214.912153 372.965175,214.583263 375.035652,213.333478 C376.704265,212.337836 377.703103,211.016293 378.483536,209.404729 C378.480624,209.413698 378.4748,209.422668 378.471888,209.434628 C378.696117,208.983151 378.937818,208.573532 379.199904,208.169893 C379.692043,207.59284 380.198742,207.030736 380.722913,206.477601 C381.86153,205.299574 383.489374,204.142477 384.135852,202.60267 C384.85222,200.907388 385.376392,199.460269 385.717103,197.696219 C385.955893,196.482313 386.127704,195.244488 386.331549,194.015632 C387.344947,187.955073 388.390378,181.906474 389.438721,175.854884 C389.858058,173.379234 389.823114,171.148757 388.550542,168.90632 C387.400276,166.885137 385.501611,165.378219 383.305914,164.759307 C382.548778,164.550013 381.774169,164.445366 380.996647,164.445366 C379.444517,164.445366 377.895299,164.860964 376.538277,165.671231" id="Fill-296"></path>
                <path d="M292.254236,177.630894 C289.455743,182.627043 287.819163,188.251075 285.818575,193.632923 C284.33051,197.050397 282.691018,200.375183 281.130152,203.756778 C279.78769,206.689885 279.467363,209.784448 281.130152,212.702606 C281.901849,214.036108 282.938544,215.097528 284.222764,215.880886 C286.41846,217.199439 288.465641,217.142631 290.87683,216.768891 C294.23444,216.266585 296.814529,212.621878 299.04517,210.170147 C300.603124,208.453935 302.14943,206.701845 303.698648,204.961714 C306.963072,201.317007 310.329418,197.812825 313.809334,194.389372 C317.233922,191.025717 317.108703,185.141562 313.809334,181.753988 C312.021327,179.924159 309.668379,179.086983 307.34164,179.19163 C306.700986,177.260145 305.375997,175.594761 303.652055,174.560251 C302.367835,173.782873 300.929275,173.415113 299.502364,173.415113 C296.616508,173.415113 293.762686,174.92801 292.254236,177.630894" id="Fill-298"></path>
            </g>
        </g>
    </g>
</svg>