<?xml version="1.0" encoding="UTF-8" standalone="no"?>
<svg width="224px" height="266px" viewBox="0 0 224 266" version="1.1" xmlns="http://www.w3.org/2000/svg" xmlns:xlink="http://www.w3.org/1999/xlink">
    <!-- Generator: Sketch 49.1 (51147) - http://www.bohemiancoding.com/sketch -->
    <title>boyface0008</title>
    <desc>Created with Sketch.</desc>
    <defs></defs>
    <g id="Page-1-Copy" stroke="none" stroke-width="1" fill="none" fill-rule="evenodd">
        <g id="Artboard" transform="translate(-13535.000000, -5808.000000)">
            <g id="boyface0008" transform="translate(13534.707092, 5808.350049)">
                <path d="M112.292908,252.649951 C166.969098,252.649951 211.292908,199.147979 211.292908,133.149951 C211.292908,67.1519234 166.969098,47.649951 112.292908,47.649951 C57.6167179,47.649951 13.2929081,67.1519234 13.2929081,133.149951 C13.2929081,199.147979 57.6167179,252.649951 112.292908,252.649951 Z" id="Oval-124" fill="#FFFFFF"></path>
                <path d="M40.7445165,55.7905928 C45.9199533,65.4442697 39.7284652,71.8975039 35.1098341,78.1246847 C28.6470817,86.8360751 24.9207672,96.5159265 22.1129441,106.733547 C21.563277,108.732337 20.9112909,110.816789 22.0605948,112.882204 C31.8213496,105.929273 39.9354827,110.133869 41.9128565,124.763104 C46.7170895,123.261632 49.2346124,119.368752 51.8734902,115.768551 C56.0162192,110.114833 59.9067199,104.273133 63.9566479,98.5504085 C66.2457377,95.3142733 68.6918752,91.7949763 73.3128859,94.6813234 C77.3556753,97.2083642 77.065375,101.032239 75.3783016,104.929878 C74.9595076,105.898339 74.5597497,106.878698 74.0838475,107.816225 C67.1356749,121.448445 58.114948,133.586331 46.2459463,143.199556 C41.710598,146.871142 36.3566979,151.753899 29.3752121,147.137647 C26.8695869,145.481507 25.7107649,147.504092 24.1831188,148.97225 C16.2212744,156.622379 11.0862893,155.865694 4.94477098,146.93063 C-0.799368974,138.569027 0.259513496,129.431704 1.5182749,120.434773 C3.12444494,108.927457 5.90847301,97.6128811 10.3795745,86.831316 C12.2974605,82.2126849 12.518755,79.145495 7.89298532,75.2359581 C-0.183075582,68.4043815 0.640235282,62.1819598 8.43313436,54.8863786 C22.2342991,41.965633 38.1222952,34.9103824 57.3178118,37.1947131 C64.3278517,38.027542 70.4098822,36.3380891 76.3039314,32.6379492 C85.2580319,27.0151643 95.1068286,23.112766 104.601078,18.5298275 C113.429065,14.2705025 122.754369,10.9058737 129.792963,3.47703983 C132.060637,1.0856311 135.675115,-1.27246447 139.042123,0.980932611 C142.578076,3.34854622 144.938552,7.09151729 144.143795,11.8124674 C143.548917,15.334144 141.957024,18.4013339 139.713145,21.2519882 C136.707822,25.0687242 133.60494,28.8949781 131.422928,34.5249015 C141.897536,32.8735208 151.506002,30.7129247 161.219167,33.4612601 C166.963307,35.0888457 172.821663,36.3142939 178.608635,37.8014884 C183.334344,39.0150391 188.612099,39.5694652 190.137366,45.499207 C191.605525,51.2005158 188.635895,54.8102342 182.965519,56.9113426 C187.581771,62.5698202 192.450251,66.0153523 197.623308,68.9135969 C205.865935,73.5298486 212.02173,80.006878 216.628464,88.1757398 C220.830681,95.6236098 220.468995,97.7437542 213.228143,102.562264 C211.77902,103.528346 210.070531,104.073254 209.025926,106.210055 C213.456576,115.009487 218.798578,123.689944 222.24649,133.279374 C224.844916,140.50119 224.176273,142.421456 217.432739,145.633796 C215.217414,146.687919 212.914047,147.558821 210.748692,148.700986 C207.931351,150.185801 207.310298,152.355915 207.755267,155.684851 C211.367365,182.806519 198.277674,217.721087 178.177943,235.81251 C163.020457,249.456627 146.290114,260.076386 125.86201,263.8027 C96.7463118,269.11139 71.6948183,260.361927 52.5349943,238.694098 C40.9206003,225.554438 29.993885,211.072733 25.3681153,193.185947 C23.5906205,186.318678 22.2866484,179.515656 22.1129441,172.446128 C21.9987275,167.817979 24.868418,166.216568 28.699431,165.859641 C35.8831752,165.186239 42.6290893,171.127879 42.6267098,179.765504 C42.6195713,195.091936 48.9038603,207.957953 57.5819375,219.546172 C68.8988926,234.651309 81.9885836,247.959915 102.576114,249.651747 C114.454634,250.629726 125.509843,247.553018 136.177191,242.827309 C147.515562,237.801782 157.121649,230.016021 166.937132,222.639536 C169.390408,220.797795 171.339228,218.058977 172.98347,215.401063 C181.920914,200.95981 188.792942,185.600066 192.217059,168.903036 C194.460938,157.97632 188.312281,151.637303 177.290385,151.89191 C163.234613,152.215524 149.093178,152.025163 136.66975,143.884855 C133.198043,141.607663 130.199859,142.152571 126.897098,144.163258 C121.788287,147.275659 117.260078,146.066867 112.539127,142.573745 C107.189986,138.616618 101.265004,135.466145 96.1181209,131.140193 C87.3924534,123.794643 83.7660784,113.43901 79.5614822,103.464099 C78.2051608,100.24462 80.6631959,97.9412537 83.4591215,97.058455 C86.8975151,95.9757774 90.3811195,96.3112885 93.2817436,99.0572444 C97.9170313,103.452202 102.864035,106.531289 109.733684,107.366497 C115.147072,108.023242 119.263626,113.027354 123.810872,116.313459 C129.792963,120.632272 135.225387,125.683974 141.719073,129.329385 C155.26325,136.939062 169.956732,138.959267 187.474693,135.399518 C188.583545,131.194922 185.464006,128.134871 184.42178,124.522773 C182.465822,117.762582 182.594316,117.367583 189.649566,115.214125 C190.570437,114.933343 191.424682,114.436025 192.295583,114.045785 C192.174228,110.017273 189.497278,107.447401 187.83162,104.430181 C186.472919,101.972146 184.676388,99.7544412 183.365277,97.2773701 C178.394479,87.897337 179.091675,86.0413183 189.321194,82.0009084 C182.18504,76.4852015 175.17262,71.3264213 168.471917,65.7916783 C163.981779,62.0820204 158.520801,58.9529632 158.197188,51.9643389 C158.061556,48.9875704 155.332256,49.4016054 153.381057,49.1612747 C147.698784,48.4664575 142.180698,49.3325995 136.738756,51.038709 C129.340856,53.3563529 121.790667,55.0957756 114.088189,55.9761947 C109.569498,56.4925486 105.32445,56.7685719 102.066899,51.8525019 C98.7641373,46.872185 101.921749,44.1333676 104.125176,40.699733 C104.410717,40.2523849 104.163248,39.4647667 104.163248,38.1274815 C96.8890825,40.2047947 90.5334082,43.7812 84.4513776,47.6859778 C75.8066136,53.2326183 66.8739286,56.0808932 56.4588083,54.0487907 C51.6831293,53.1160223 46.6195296,53.4491539 40.7445165,55.7905928" id="Fill-683" fill="#000000"></path>
                <path d="M106.534431,210.465957 C101.701644,210.523066 97.4185237,209.200057 93.7707331,206.125729 C89.7731544,202.753962 85.7398829,199.40123 82.0040504,195.748681 C78.1920735,192.019987 77.9041527,187.710692 80.7714636,184.498352 C83.3794079,181.576312 88.8665606,180.772037 91.8790217,184.574496 C99.5791199,194.301938 108.785449,193.787964 119.041142,190.632732 C123.493207,189.262133 128.154669,189.554813 132.478241,191.144327 C135.345552,192.19845 138.481748,193.823656 138.269971,197.685603 C138.060574,201.511857 135.995159,204.681366 132.299778,205.526092 C123.778748,207.472532 115.129225,208.855028 106.534431,210.465957" id="Fill-745" fill="#000000"></path>
                <path d="M135.669404,163.665732 C135.421935,168.110659 130.47969,172.869681 126.658195,172.346188 C123.217422,171.875045 118.965235,165.064884 119.355475,160.691343 C119.72192,156.553373 121.892034,154.161964 126.09663,154.123892 C130.415443,154.08582 135.893078,159.694327 135.669404,163.665732" id="Fill-767" fill="#000000"></path>
                <path d="M110.164137,159.182019 C110.078475,163.153423 105.878638,167.757777 102.414069,167.681633 C99.3968493,167.615006 94.2404486,161.642433 94.0905394,158.039853 C93.9263532,154.039895 96.8840855,151.163066 101.326633,151.001259 C105.640687,150.841832 110.254559,155.115434 110.164137,159.182019" id="Fill-769" fill="#000000"></path>
            </g>
        </g>
    </g>
</svg>