<?xml version="1.0" encoding="UTF-8"?>
<svg width="503px" height="296px" viewBox="0 0 503 296" version="1.1" xmlns="http://www.w3.org/2000/svg" xmlns:xlink="http://www.w3.org/1999/xlink">
    <!-- Generator: Sketch 51.1 (57501) - http://www.bohemiancoding.com/sketch -->
    <title>RV</title>
    <desc>Created with Sketch.</desc>
    <defs></defs>
    <g id="transport" stroke="none" stroke-width="1" fill="none" fill-rule="evenodd">
        <g id="RV_DL" transform="translate(-135.000000, -331.000000)">
            <g id="RV" transform="translate(134.000000, 331.000000)">
                <path d="M33.390625,52.4296875 L33.390625,232.46875 L56.9570313,250.089844 L469.453125,250.089844 C486.736979,244.785156 495.378906,235.981771 495.378906,223.679687 C495.378906,205.226562 498.402344,127.847656 479.277344,101.988281 C460.152344,76.1289062 437.3125,50.3710938 384.519531,39.8085938 C349.324219,32.7669271 232.28125,36.9739583 33.390625,52.4296875 Z" id="Path-3" fill="#FFFFFF"></path>
                <path d="M376.2031,33.475 C375.2261,37.022 377.3791,40.448 380.7771,41.53 C384.7261,42.791 388.8011,43.62 392.7811,44.788 C396.9021,45.995 400.8481,47.713 404.8241,49.323 C408.6011,50.854 412.3711,52.401 416.1871,53.838 C419.9801,55.263 423.7691,56.701 427.5291,58.216 C429.3271,59.036 431.0911,59.899 432.8321,60.842 C434.1701,61.569 435.4131,62.452 436.6271,63.37 C438.5901,64.985 440.5011,66.639 442.3711,68.366 C444.2971,70.135 446.0391,72.123 447.8121,74.045 C451.2331,77.756 454.6411,81.454 457.7911,85.395 C460.3701,88.914 462.8481,92.465 465.0471,96.241 C467.2621,100.035 469.0761,104.1 470.9321,108.082 C471.1241,108.537 471.3161,108.991 471.5081,109.445 C472.4661,111.776 473.1461,114.246 473.8711,116.655 C474.6091,119.131 475.3871,121.592 476.1411,124.065 C476.9141,126.6 477.6441,129.147 478.3871,131.694 C479.0621,134.014 479.8401,136.303 480.5391,138.62 C481.3081,141.159 481.9731,143.69 482.4691,146.299 C482.9261,148.686 483.1991,151.108 483.6251,153.502 C484.5391,158.639 485.5121,163.756 486.3441,168.909 C486.9931,172.926 487.7031,176.935 488.2861,180.964 C488.8001,185.946 489.0011,190.924 489.0431,195.932 C489.0861,200.662 488.8701,205.433 488.3281,210.14 C487.8741,212.868 487.2511,215.525 486.3671,218.155 C485.3741,221.104 484.4891,224.092 483.4591,227.03 C482.9861,228.026 482.4701,228.979 481.8511,229.9 C481.3811,230.433 480.8911,230.93 480.3581,231.404 C477.9201,233.08 475.2441,234.364 472.5321,235.542 C470.3491,236.394 468.1561,237.115 465.8981,237.745 C463.8451,238.32 461.7391,238.678 459.6341,239.006 C454.5011,239.556 449.3611,239.728 444.2071,239.889 C438.8551,240.057 433.5001,240.1 428.1441,240.12 C417.8321,240.155 407.5191,240.174 397.2071,240.127 C386.3981,240.077 375.5901,240.006 364.7851,240.034 C359.3401,240.045 353.8831,240.065 348.4531,240.502 C342.6331,240.975 336.8201,241.475 330.9961,241.893 C325.9331,242.252 320.8441,242.346 315.7731,242.42 C310.3711,242.498 304.9691,242.58 299.5701,242.69 C288.6251,242.909 277.6831,242.928 266.7351,242.83 C255.8441,242.733 244.9531,242.733 234.0631,242.772 C228.8321,242.791 223.6141,242.67 218.3831,242.541 C212.7231,242.401 207.0671,242.276 201.4111,242.049 C198.9221,241.952 196.4381,241.764 193.9501,241.623 C191.0551,241.455 188.1681,241.346 185.2701,241.26 C184.0551,241.225 182.8211,241.338 181.6061,241.385 C180.3951,241.432 179.2001,241.514 177.9931,241.616 C174.9851,241.87 171.9811,242.061 168.9691,242.245 C167.9531,242.307 166.9341,242.287 165.9141,242.287 C164.4731,242.287 163.0121,242.354 161.5711,242.284 C158.8601,242.143 156.1451,242.018 153.4381,241.842 C148.1331,241.495 142.8251,241.26 137.5201,240.959 C131.9731,240.643 126.4301,240.198 120.8791,239.948 C118.0511,239.823 115.2311,239.737 112.3991,239.686 C109.7151,239.639 107.0041,239.819 104.3251,239.932 C93.6211,240.393 82.9221,240.459 72.2111,240.553 C68.5751,240.584 64.9501,240.69 61.3131,240.803 C59.5121,240.862 57.7071,240.854 55.9071,240.842 C53.9571,240.834 52.0081,240.823 50.0671,240.897 C47.3251,241.002 44.8951,242.694 44.1491,245.405 C43.7111,246.987 43.9381,248.713 44.7661,250.131 C45.5041,251.393 46.9421,252.694 48.4341,252.952 C51.3641,253.459 54.3561,253.479 57.3211,253.44 C60.0001,253.405 62.6721,253.303 65.3481,253.202 C70.5861,252.995 75.8401,253.014 81.0821,252.932 C86.4461,252.85 91.8051,252.799 97.1681,252.612 C102.2971,252.428 107.4461,251.944 112.5781,252.002 C118.0781,252.065 123.5551,252.334 129.0431,252.655 C134.3211,252.963 139.5981,253.178 144.8791,253.444 C150.4571,253.717 156.0361,254.041 161.6181,254.287 C163.0431,254.35 164.4891,254.268 165.9141,254.26 C167.0591,254.256 168.1881,254.252 169.3281,254.178 C172.3711,253.975 175.4071,253.756 178.4461,253.491 C180.7861,253.287 183.1721,253.1 185.5161,253.17 C188.4731,253.256 191.4181,253.377 194.3711,253.545 C199.6841,253.846 204.9931,254.127 210.3171,254.241 C215.7781,254.354 221.2351,254.545 226.7001,254.62 C230.4731,254.674 234.2501,254.662 238.0281,254.651 C239.8131,254.647 241.5981,254.639 243.3831,254.639 C253.9381,254.643 264.4931,254.795 275.0471,254.834 C285.8081,254.877 296.5581,254.639 307.3161,254.424 C312.9411,254.311 318.5621,254.194 324.1871,254.002 C329.5781,253.819 334.9651,253.311 340.3361,252.795 C345.5231,252.299 350.7231,251.745 355.9371,251.592 C361.4611,251.428 366.9841,251.385 372.5151,251.373 C383.5391,251.35 394.5621,251.381 405.5821,251.397 C415.9961,251.412 426.4141,251.526 436.8281,251.452 C442.0431,251.412 447.2621,251.342 452.4731,251.209 C455.6131,251.131 458.7541,250.893 461.8631,250.467 C464.3241,250.135 466.7811,249.772 469.1951,249.174 C471.6371,248.565 474.0581,247.897 476.4141,247.01 C479.2031,245.955 481.9451,244.791 484.6481,243.537 C486.8441,242.514 488.8051,241.135 490.6561,239.58 C492.0161,238.432 493.0781,236.928 494.1211,235.506 C494.7421,234.659 495.1871,233.694 495.6681,232.764 C496.4261,231.287 496.9961,229.682 497.5741,228.127 C498.0821,226.752 498.5861,225.373 499.0981,223.998 C499.9761,221.62 500.8161,219.264 501.4491,216.807 C502.1871,213.955 502.4921,210.967 502.8241,208.053 C503.4301,202.784 503.4181,197.428 503.3161,192.135 C503.2111,186.467 502.7261,180.834 501.8551,175.229 C501.0351,169.948 500.2031,164.662 499.3591,159.381 C498.9611,156.893 498.4961,154.413 498.0511,151.928 C497.6131,149.487 497.2851,147.03 496.9181,144.577 C496.5231,141.932 496.0391,139.342 495.3441,136.76 C494.7031,134.393 493.9411,132.061 493.2261,129.717 C491.7031,124.694 490.1911,119.67 488.6251,114.659 C487.8511,112.186 487.1441,109.69 486.2541,107.256 C485.1091,104.139 483.7661,101.108 482.3551,98.104 C480.1251,93.35 477.6831,88.737 474.8441,84.327 C473.4571,82.17 471.8711,80.123 470.3401,78.073 C468.4841,75.588 466.5351,73.182 464.4731,70.87 C460.9801,66.963 457.4371,63.045 453.7071,59.362 C451.8631,57.537 449.9331,55.811 447.9141,54.178 C445.4221,52.162 442.9181,50.233 440.1641,48.592 C437.7151,47.135 434.9801,45.983 432.3401,44.932 C430.0941,44.038 427.8321,43.174 425.5661,42.33 C421.0001,40.639 416.4021,39.045 411.8361,37.35 C407.2971,35.67 402.7621,33.866 398.1011,32.538 C393.5121,31.233 388.8051,30.358 384.2581,28.901 C383.6831,28.717 383.0991,28.631 382.5191,28.631 C379.6761,28.631 376.9661,30.706 376.2031,33.475" id="Fill-2" fill="#2C2C2C"></path>
                <path d="M344.1084,27.9545 C338.8784,27.9665 333.6474,28.1065 328.4204,28.3255 C322.8934,28.5565 317.3814,28.9855 311.8584,29.2635 C301.3234,29.7905 290.7804,29.9115 280.2414,30.2085 C269.6594,30.5055 259.0774,30.6885 248.4994,30.9975 C237.5734,31.3175 226.6434,31.5565 215.7134,31.7595 C210.4364,31.8605 205.1594,31.8645 199.8814,31.9935 C194.7414,32.1185 189.5964,32.3215 184.4604,32.5365 C175.5924,32.9075 166.7104,32.8955 157.8384,32.8845 C156.1164,32.8845 154.3894,32.8805 152.6714,32.8805 C142.2884,32.8805 131.8974,33.1025 121.5184,32.8375 C115.9954,32.6965 110.4794,32.7555 104.9564,32.8135 C102.3584,32.8415 99.7644,32.8415 97.1714,32.9195 C94.4754,32.9975 91.7884,33.1845 89.1004,33.3525 C83.8814,33.6845 78.6514,33.8065 73.4244,33.9035 C68.2294,33.9975 63.0264,34.0015 57.8354,34.2865 C53.8154,34.5095 49.7964,34.7355 45.7804,35.0095 C43.4324,35.1695 41.1004,35.5015 38.7764,35.8645 C36.2174,36.2635 33.6084,36.4035 31.3274,37.7745 C28.8934,39.2355 27.6594,42.1615 28.4174,44.9235 C29.3464,48.2945 32.8624,50.2005 36.2064,49.3455 C37.5654,48.9975 38.9754,48.8175 40.3584,48.5755 C41.5164,48.3745 42.6744,48.1665 43.8364,47.9755 C48.4804,47.4695 53.1724,47.3135 57.8354,47.0715 C63.0264,46.7985 68.2294,46.8095 73.4244,46.7275 C78.6554,46.6455 83.8784,46.5055 89.1004,46.1845 C91.7884,46.0205 94.4754,45.8375 97.1714,45.7985 C99.7644,45.7635 102.3584,45.8175 104.9564,45.8295 C110.4794,45.8495 115.9994,45.8725 121.5184,46.0915 C126.7494,46.2985 131.9714,46.2705 137.2024,46.3335 C147.7534,46.4585 158.2994,46.6845 168.8504,46.8175 C174.0574,46.8805 179.2564,46.9315 184.4604,46.8095 C189.6004,46.6885 194.7414,46.5445 199.8814,46.4465 C205.1594,46.3455 210.4364,46.3565 215.7134,46.2515 C221.2064,46.1385 226.6904,45.9665 232.1784,45.8295 C253.4914,45.2905 274.8034,44.7395 296.1084,43.9855 C301.3624,43.8025 306.6124,43.5565 311.8584,43.2005 C317.3814,42.8295 322.8934,42.3255 328.4204,41.9975 C338.9524,41.3685 349.4954,41.2675 360.0424,41.2555 C365.6674,41.2475 371.2924,41.3135 376.9174,41.4035 C380.4954,41.4585 383.4794,38.3765 383.4794,34.8415 C383.4794,31.2165 380.4954,28.3335 376.9174,28.2745 C366.7474,28.1155 356.5724,27.9525 346.3984,27.9525 C345.6344,27.9525 344.8724,27.9525 344.1084,27.9545" id="Fill-4" fill="#2C2C2C"></path>
                <path d="M46.7417,253.0072 C46.7687,253.0692 46.7957,253.1302 46.8207,253.1932 C46.7937,253.1312 46.7677,253.0692 46.7417,253.0072 M39.9317,226.8202 C39.9397,226.8822 39.9487,226.9442 39.9567,227.0052 C39.9477,226.9442 39.9387,226.8822 39.9317,226.8202 M34.1017,43.6072 C33.5507,43.8382 32.9997,44.0722 32.4527,44.3022 C31.4137,44.9202 30.5857,45.7442 29.9727,46.7832 C28.9067,48.1772 27.7577,49.5172 27.0667,51.1462 C26.4807,52.5372 25.9727,53.8222 25.6637,55.2912 C25.4997,56.0882 25.3437,56.8812 25.1917,57.6772 C24.6327,60.5952 24.3167,63.5722 24.0427,66.5292 C23.5467,71.8222 23.3207,77.1382 22.8127,82.4312 C22.3047,87.7672 21.7887,93.0762 21.5857,98.4352 C21.3827,103.6662 21.0587,108.8812 20.6997,114.1032 C20.3397,119.3222 20.5277,124.5412 20.5777,129.7632 C20.6017,132.3342 20.6407,134.9042 20.6167,137.4702 C20.5937,139.9082 20.4097,142.3342 20.3247,144.7712 C20.1527,149.8102 20.3167,154.8812 20.3127,159.9272 C20.3127,165.3612 20.3397,170.7832 20.8437,176.1962 C21.4847,183.0912 22.4997,189.9582 22.9377,196.8722 C23.1637,200.4032 23.3557,203.9432 23.7457,207.4622 C24.1417,211.0022 24.7617,214.5092 25.2797,218.0322 C25.4197,219.3352 25.5057,220.6222 25.4477,221.9222 C25.2347,222.7622 24.9457,223.5782 24.8127,224.4352 C24.6287,225.6302 24.4567,226.4862 24.5777,227.6142 C24.7927,229.5682 24.9727,230.2942 25.8247,232.0642 C26.7387,233.9622 28.2307,235.6112 29.6017,237.2002 C31.5467,239.4502 33.6757,241.5322 35.8557,243.5562 C39.2297,246.6842 43.2757,249.2032 46.4227,252.5872 C46.6017,253.0742 46.8147,253.5462 47.1167,253.9662 C47.5627,254.5402 48.0077,255.1182 48.4527,255.6932 C49.5197,256.7512 50.7777,257.4862 52.2227,257.8882 C54.4257,258.4972 56.8317,258.1852 58.8047,257.0282 C60.0707,256.2862 61.1267,255.2212 61.8647,253.9622 C61.8657,253.9632 61.8667,253.9652 61.8667,253.9662 C61.8847,253.9332 61.9027,253.8992 61.9207,253.8642 C62.1317,253.4942 62.3157,253.1082 62.4687,252.7072 C62.9047,251.6682 63.2357,250.4912 63.1207,249.4662 C62.8987,247.4972 62.7657,246.1932 61.7737,244.4502 C60.9567,243.0252 59.8557,241.7162 58.6247,240.6222 C56.9257,239.1032 55.0897,237.7392 53.2777,236.3572 C51.2257,234.7892 49.1057,233.3202 47.0357,231.7802 C44.6347,229.7932 42.2817,227.7282 40.1947,225.4122 C40.2337,225.2282 40.2687,225.0432 40.3007,224.8572 C40.5977,223.0712 40.8127,221.3102 40.8127,219.5052 C40.8167,217.0252 40.4567,214.5252 40.1677,212.0682 C39.5707,206.9582 39.4257,201.8642 39.3357,196.7282 C39.2457,191.5402 38.7307,186.3802 38.3317,181.2122 C38.1367,178.7162 37.9217,176.2242 37.7927,173.7242 C37.6527,170.9592 37.6367,168.1932 37.6567,165.4202 C37.6997,160.2562 37.7927,155.0952 37.7777,149.9272 C37.7617,145.0092 38.1567,140.1152 38.0817,135.1972 C37.9997,129.9392 37.8477,124.6812 37.7537,119.4272 C37.6597,114.1812 38.1527,108.9122 38.3437,103.6742 C38.4767,100.0802 38.3597,96.4782 38.4647,92.8812 C38.5777,88.9662 38.8167,85.0562 38.8397,81.1382 C38.8887,73.6922 38.5027,66.1832 39.2187,58.7592 C39.3247,58.1332 39.4517,57.5152 39.6307,56.9032 C40.2787,55.7872 41.1277,54.7862 41.9097,53.7592 C42.9687,52.3692 43.0467,50.0412 42.6057,48.4352 C42.1287,46.7092 40.9727,45.2092 39.4297,44.3022 C38.3667,43.6812 37.1507,43.3612 35.9297,43.3612 C35.3147,43.3612 34.6997,43.4422 34.1017,43.6072" id="Fill-6" fill="#2C2C2C"></path>
                <path d="M399.1631,155.3475 C388.3471,155.5665 377.5301,155.8905 366.7181,156.2385 C356.0181,156.5855 345.4091,157.7265 334.7761,158.9295 C323.6321,160.1915 312.4791,161.3945 301.3271,162.6055 C296.2761,163.1565 291.2021,163.6485 286.1241,163.8705 C280.6001,164.1095 275.0811,164.2345 269.5581,164.3435 C264.0151,164.4495 258.4911,164.6995 252.9601,165.0775 C247.4681,165.4495 241.9831,165.7225 236.4791,165.8515 C231.0421,165.9805 225.6041,165.9295 220.1711,165.8675 C215.0611,165.8085 209.9521,165.4925 204.8471,165.3245 C193.8901,164.9645 182.9291,165.0115 171.9681,165.0855 C166.7371,165.1205 161.5071,165.1405 156.2761,165.1915 C150.9641,165.2425 145.6431,165.4375 140.3351,165.3395 C137.2451,165.2855 134.1631,165.2065 131.0771,165.1055 C128.6711,165.0235 126.2571,164.9215 123.8511,164.9685 C118.0541,165.0775 112.2681,165.3275 106.4761,165.5075 C101.4521,165.6635 96.4251,165.6135 91.4011,165.7535 C85.7651,165.9135 80.1401,166.2455 74.5111,166.5775 C71.8581,166.7385 69.2021,166.8045 66.5501,166.8785 C64.0421,166.9495 61.5151,166.9685 59.0181,167.2265 C56.3901,167.5035 53.7651,167.8205 51.1281,168.0665 C48.2181,168.3355 45.3311,168.6175 42.4521,169.1365 C41.8941,169.2385 41.3371,169.3345 40.7781,169.4235 C38.0431,169.7375 35.2931,169.9075 32.5771,170.3715 C31.4781,170.3705 30.3831,170.6455 29.3541,171.2455 C28.3621,171.8355 27.5731,172.6205 26.9871,173.6135 C26.3901,174.6395 26.0931,175.7495 26.0891,176.9405 C26.0931,176.9835 26.0971,177.0265 26.1041,177.0695 C26.1081,178.2725 26.4091,179.3935 27.0151,180.4325 C27.8621,181.8865 29.3431,183.0975 30.9991,183.4955 C31.9481,183.7295 32.8661,183.8585 33.8351,183.7495 C34.6551,183.6515 35.4251,183.5425 36.2221,183.4055 C36.4851,183.3615 36.7491,183.3195 37.0141,183.2805 C39.1971,183.0305 41.3761,182.7795 43.5461,182.4365 C45.2271,182.1735 46.8801,181.7735 48.5551,181.4905 C51.6931,181.0925 54.8341,180.7265 57.9691,180.2775 C63.0511,179.6725 68.1711,179.5825 73.2801,179.3115 C78.3861,179.0385 83.4791,178.5615 88.5931,178.3895 C94.2141,178.1985 99.8351,178.1325 105.4561,178.0145 C110.7181,177.9055 115.9721,177.5735 121.2371,177.4875 C126.6981,177.4015 132.1401,177.7065 137.5971,177.8395 C142.9091,177.9725 148.2221,177.9015 153.5341,177.8895 C164.7411,177.8625 175.9481,177.8705 187.1511,177.9525 C197.9011,178.0265 208.6321,178.5075 219.3741,178.8435 C224.7451,179.0115 230.1321,178.8665 235.5031,178.7615 C240.6321,178.6595 245.7451,178.3825 250.8621,178.0545 C256.1941,177.7105 261.5301,177.3825 266.8781,177.3235 C272.3351,177.2615 277.8001,177.2455 283.2531,177.0305 C294.1241,176.6005 304.9171,175.3075 315.7291,174.1795 C326.6431,173.0385 337.5261,171.6135 348.4481,170.5465 C359.3431,169.4845 370.2651,169.1445 381.1981,168.7425 C391.2531,168.3705 401.3271,167.8515 411.3901,167.9415 C416.4011,167.9845 421.4091,168.1525 426.4051,168.5745 C431.4621,169.0025 436.5081,169.5185 441.5541,170.0655 C443.9341,170.4055 446.2941,170.7855 448.6671,171.2265 C451.3231,171.7145 453.9361,172.5235 456.5341,173.2535 C459.0971,173.9755 461.6471,174.7415 464.2021,175.4835 C466.6871,176.2085 469.1031,177.0785 471.5221,177.9775 C473.7021,178.9865 475.8281,180.0205 477.8901,181.2885 C479.6031,182.3415 481.2041,183.5565 482.7981,184.7785 C484.9561,186.6185 487.0731,188.4895 489.1471,190.4325 C491.5611,192.6985 495.3471,192.8315 497.7451,190.4325 C500.0301,188.1435 500.1591,184.1005 497.7451,181.8355 C495.6471,179.8625 493.5031,177.9725 491.3151,176.1005 C489.9521,174.9405 488.4521,173.9055 487.0261,172.8205 C484.9131,171.2065 482.5541,169.7065 480.1321,168.6015 C478.5581,167.8865 476.9911,167.0895 475.3701,166.4805 L471.5261,165.0385 C468.9481,164.0745 466.2261,163.3905 463.5851,162.6175 C461.1041,161.8865 458.6201,161.1595 456.1321,160.4495 C453.4761,159.6915 450.7531,159.2025 448.0461,158.6835 C444.9331,158.0895 441.7371,157.7885 438.5931,157.4175 C436.0651,157.1175 433.5341,156.8395 430.9991,156.5745 C425.5651,156.0035 420.1431,155.5745 414.6831,155.3785 C412.1821,155.2875 409.6801,155.2525 407.1791,155.2525 C404.5061,155.2525 401.8341,155.2925 399.1631,155.3475" id="Fill-8" fill="#2C2C2C"></path>
                <path d="M371.3223,68.349 C370.4673,68.372 369.6073,68.521 368.7713,68.704 C367.4783,68.99 366.5253,69.798 365.5253,70.595 C364.8493,71.134 363.9703,72.755 363.7833,73.576 C363.5413,74.634 363.4273,75.661 363.5023,76.736 C363.6073,78.204 363.8733,79.677 364.0683,81.138 C364.5063,84.392 364.4073,87.647 364.0473,90.893 C363.2323,95.88 362.2593,100.84 361.4433,105.826 C361.1313,107.74 360.8813,109.654 360.6423,111.576 C360.4903,112.837 360.3573,114.146 360.3773,115.415 C360.4163,118.138 360.6073,120.826 360.8383,123.54 C361.0493,126.064 361.0843,128.583 361.0413,131.115 C360.9983,133.622 360.8653,136.095 361.0763,138.603 C361.2793,141.001 361.5843,143.388 361.6893,145.794 C361.7403,146.978 361.7953,148.162 361.8653,149.345 C361.8843,149.673 361.9093,150 361.9353,150.328 C361.8343,150.474 361.7373,150.624 361.6463,150.779 C360.7013,152.396 360.4473,154.365 360.9433,156.169 C361.1773,156.724 361.4123,157.283 361.6463,157.837 C362.2713,158.888 363.1073,159.728 364.1583,160.349 C367.1193,162.572 371.6853,162.279 374.3143,159.65 C376.4313,157.533 377.0603,154.376 376.7913,151.49 C376.6033,149.47 376.4273,147.458 376.3143,145.435 C376.2133,143.611 376.0133,141.79 375.8223,139.97 C375.6073,137.904 375.5063,135.869 375.5453,133.79 C375.5763,131.915 375.6273,130.04 375.5523,128.165 C375.4703,125.954 375.2713,123.755 375.0453,121.552 C374.8453,119.591 374.7093,117.642 374.6383,115.669 C374.5633,113.64 374.8013,111.599 375.0013,109.58 C375.6423,105.075 376.3883,100.584 376.9783,96.072 C377.1383,94.857 377.2993,93.638 377.4593,92.423 C377.8103,89.724 377.8493,87.009 377.6773,84.294 C377.5953,83.003 377.4243,81.736 377.2003,80.48 C377.6483,80.501 378.0953,80.521 378.5413,80.537 C380.9243,80.619 383.3103,80.677 385.6973,80.755 C390.9313,80.927 396.1623,81.15 401.3963,81.146 C412.6233,81.138 423.8453,81.087 435.0683,81.044 C442.5523,81.017 450.0333,80.962 457.5133,80.763 C460.6583,80.677 463.2873,78.201 463.2873,74.99 C463.2873,71.904 460.6623,69.13 457.5133,69.216 C446.0683,69.521 434.6153,69.474 423.1663,69.462 C421.1353,69.462 419.1033,69.466 417.0723,69.466 C408.5493,69.478 400.0173,69.494 391.5063,69.119 C385.9433,68.876 380.3813,68.658 374.8183,68.411 C373.9483,68.37 373.0773,68.336 372.2053,68.336 C371.9113,68.336 371.6173,68.34 371.3223,68.349" id="Fill-10" fill="#2C2C2C"></path>
                <path d="M327.749,65.9564 C327.377,66.0584 326.982,66.2344 326.59,66.4204 C325.078,66.9034 323.519,67.1884 321.953,67.4434 C317.059,68.0254 312.134,68.3594 307.218,68.7334 C301.964,69.1364 296.698,69.4134 291.444,69.8114 C280.612,70.6364 269.772,71.2144 258.937,71.9524 C248.167,72.6864 237.41,73.3274 226.613,73.4794 C215.378,73.6404 204.136,73.6084 192.902,73.8584 C187.613,73.9764 182.328,74.1864 177.042,74.3744 C171.847,74.5584 166.644,74.6164 161.445,74.6834 C155.671,74.7574 149.91,74.9134 144.14,75.1984 C138.816,75.4644 133.496,75.6714 128.164,75.6834 C125.249,75.6904 122.335,75.6124 119.421,75.5304 C115.136,75.4094 110.847,75.2884 106.566,75.4524 C104.667,75.5224 102.769,75.6164 100.871,75.7104 C99.089,75.7964 97.296,75.8394 95.515,76.0154 C93.515,76.2144 91.496,76.4294 89.566,77.0074 C87.98,77.4794 86.515,78.2294 85.136,79.1204 C83.999,79.8544 82.726,80.5734 81.874,81.6284 C81.132,82.3784 80.617,83.2614 80.332,84.2764 C79.906,85.8234 80.128,87.5114 80.937,88.8934 C81.722,90.2334 83.023,91.2374 84.519,91.6474 C85.953,92.0424 87.886,91.9404 89.14,91.0464 C90.093,90.3664 91.031,89.6754 91.925,88.9174 C92.324,88.5794 92.707,88.2284 93.097,87.8854 C93.169,87.8414 93.241,87.7994 93.315,87.7584 C94.074,87.5014 94.84,87.3114 95.633,87.1554 C97.813,86.9414 100,86.8904 102.191,86.8194 C105.003,86.7264 107.804,86.7024 110.617,86.7334 C115.792,86.8004 120.964,87.2144 126.14,87.2614 C131.882,87.3154 137.605,87.1984 143.343,86.9834 C148.703,86.7844 154.054,86.5814 159.421,86.5154 C164.996,86.4524 170.566,86.3474 176.14,86.1944 C181.308,86.0584 186.476,85.7844 191.644,85.6634 C202.492,85.4054 213.339,85.4214 224.191,85.2684 C229.976,85.1864 235.753,85.0224 241.535,84.7964 C246.57,84.5974 251.597,84.2374 256.624,83.9214 C267.476,83.2374 278.335,82.7654 289.186,82.0584 C296.194,81.6044 303.214,81.3114 310.222,80.8154 C313.753,80.5614 317.288,80.3234 320.812,79.9764 C322.18,79.8414 323.556,79.6824 324.918,79.4604 C325.546,81.7974 326.301,84.1134 326.738,86.4904 C327.032,89.5464 326.982,92.6554 327.054,95.7184 C327.112,98.1284 327.183,100.5384 327.233,102.9444 C327.331,107.9524 327.194,112.9524 326.921,117.9524 C326.636,123.2334 326.452,128.5034 326.37,133.7924 C326.327,136.4524 326.245,139.1124 326.151,141.7724 C326.076,143.9544 325.841,146.1224 325.577,148.2854 C325.358,149.5964 325.139,150.9074 324.909,152.2144 C324.628,153.8114 324.647,155.2494 325.495,156.6944 C326.257,157.9954 327.519,158.9684 328.972,159.3704 C330.472,159.7844 332.108,159.5694 333.452,158.7844 C334.651,158.0814 335.874,156.7264 336.124,155.3084 C336.378,153.8824 336.616,152.4524 336.858,151.0224 C337.132,149.4054 337.378,147.7024 337.503,146.0694 C337.726,143.1904 337.901,140.3194 338.034,137.4364 C338.269,132.3394 338.308,127.2374 338.64,122.1444 C338.999,116.6514 339.284,111.1714 339.409,105.6674 C339.476,102.8474 339.354,100.0034 339.308,97.1794 C339.265,94.6474 339.229,92.1164 339.19,89.5854 C339.144,86.7844 338.901,83.9364 338.155,81.2264 C337.808,79.9684 337.444,78.7144 337.062,77.4644 C336.702,76.3044 336.358,75.1444 336.015,73.9794 C335.809,73.2894 335.597,72.6014 335.436,71.9014 C335.436,71.8634 335.438,71.8264 335.44,71.7884 C335.436,70.6944 335.163,69.6794 334.616,68.7374 C333.894,67.5074 332.472,66.1984 331.003,65.9604 C330.255,65.8384 329.734,65.7364 329.186,65.7364 C328.763,65.7364 328.323,65.7964 327.749,65.9564" id="Fill-12" fill="#2C2C2C"></path>
                <path d="M83.4336,83.1488 C82.3166,83.8048 81.1916,85.0588 80.9536,86.3758 C80.5276,88.7148 79.9536,91.0118 79.8286,93.3988 C79.7226,95.3768 79.6196,97.3408 79.4146,99.3068 C79.0196,101.7858 78.6046,104.2608 78.3866,106.7618 C78.1636,109.3088 78.2346,111.8868 78.1836,114.4418 C78.0816,119.2148 77.5746,123.9648 77.8086,128.7468 C78.0626,133.9258 78.5816,139.0868 78.8826,144.2658 C79.0236,146.7388 79.0466,149.1958 79.0666,151.6718 C79.0786,152.8168 78.9646,154.0198 78.8436,155.1568 C78.6676,156.8518 78.4926,158.5438 78.3006,160.2348 C78.1326,161.7118 79.0356,163.4298 80.0386,164.4378 C81.1486,165.5468 82.6716,166.1758 84.2426,166.1758 C85.8126,166.1758 87.3356,165.5468 88.4456,164.4378 C88.7536,164.0358 89.0626,163.6368 89.3706,163.2348 C89.9106,162.3088 90.1796,161.3088 90.1836,160.2348 C90.3746,158.5438 90.5506,156.8518 90.7306,155.1568 C90.8516,153.9968 90.9606,152.7778 90.9536,151.6098 C90.9416,150.0828 90.9336,148.5588 90.9216,147.0318 C90.9106,145.6608 90.7776,144.2818 90.7036,142.9108 C90.4176,137.8208 89.7736,132.7508 89.6796,127.6488 C89.5786,122.3008 89.9566,116.9498 89.7696,111.6018 C89.7186,110.2698 89.6836,108.9378 89.6566,107.6058 C89.6246,106.2658 89.7966,104.9028 89.9216,103.5708 C90.0316,102.3638 90.2146,101.1608 90.3556,99.9578 C90.5076,98.6718 90.5506,97.3678 90.5896,96.0748 C90.6156,95.0408 90.6356,94.0148 90.7106,92.9878 C90.8046,92.5018 90.9086,92.0188 91.0196,91.5358 C91.2966,90.3168 91.4336,89.0508 91.5586,87.8128 C91.5546,86.8368 91.3086,85.9298 90.8206,85.0858 C90.1136,83.8788 88.9416,82.9768 87.5936,82.6058 C87.1256,82.4778 86.6446,82.4148 86.1636,82.4148 C85.2106,82.4148 84.2616,82.6638 83.4336,83.1488" id="Fill-14" fill="#2C2C2C"></path>
                <path d="M155.9233,77.514 C154.8333,78.604 153.9893,80.327 154.1073,81.909 C154.2673,84.104 154.3373,86.295 154.4313,88.494 C154.5213,90.553 154.7513,92.623 154.7393,94.686 C154.7163,99.201 154.3503,103.704 153.8793,108.193 C153.1863,113.101 152.4683,118.005 151.9543,122.94 C151.7123,125.28 151.4893,127.619 151.2633,129.959 C151.0323,132.358 150.7473,134.776 150.7123,137.186 C150.6773,139.627 150.6933,142.049 150.8883,144.487 C151.0913,147.018 151.3843,149.534 151.6963,152.049 C151.9703,154.268 152.2243,156.494 152.3963,158.725 C152.4893,159.959 152.5833,161.198 152.6853,162.436 C152.7823,163.67 152.9543,164.901 153.1773,166.119 C153.2473,166.295 153.3213,166.471 153.3923,166.647 C153.7003,167.737 154.2513,168.682 155.0483,169.483 C156.0283,170.467 156.7593,170.674 158.0213,171.194 C159.1423,171.494 160.2673,171.494 161.3923,171.194 C162.4663,170.893 163.4003,170.35 164.1933,169.561 C164.9783,168.772 165.5213,167.838 165.8213,166.764 C166.0673,165.859 166.1143,164.954 165.9653,164.049 C165.8173,161.594 165.8773,159.124 165.6893,156.67 C165.4783,153.967 165.1963,151.272 164.9393,148.573 C164.4433,143.389 164.4273,138.221 164.8843,133.037 C165.3373,127.869 165.7593,122.686 166.3493,117.534 C166.6773,114.635 167.0483,111.741 167.3763,108.842 C167.6573,106.362 167.7283,103.846 167.7943,101.35 C167.8803,98.01 167.7783,94.737 167.3573,91.424 C166.9543,88.256 166.7633,85.092 166.5283,81.909 C166.4033,80.217 165.9393,78.744 164.7083,77.514 C163.5483,76.358 161.9583,75.698 160.3183,75.698 C158.6773,75.698 157.0833,76.358 155.9233,77.514" id="Fill-16" fill="#2C2C2C"></path>
                <path d="M242.3101,84.6659 C242.3101,87.1889 244.4151,89.2949 246.9391,89.2949 C249.4621,89.2949 251.5681,87.1889 251.5681,84.6659 C251.5681,82.1429 249.4621,80.0369 246.9391,80.0369 C244.4151,80.0369 242.3101,82.1429 242.3101,84.6659" id="Fill-18" fill="#2C2C2C"></path>
                <path d="M246.759342,90.0596678 C246.786772,97.4291362 246.783233,104.79269 246.704481,112.162158 C246.659354,116.15839 246.614227,120.164478 246.56556,124.16071 C246.529282,126.936582 246.400979,129.680911 246.251439,132.423268 C245.570992,141.099841 244.927708,149.794158 244.197709,158.447073 C243.827842,162.835633 243.399576,167.178848 243.074837,171.591066 C242.687274,176.929889 242.563395,182.312085 242.48022,187.710053 C242.349262,196.205248 242.220959,204.806904 242.393505,213.302099 C242.435093,215.358374 242.583747,217.422535 242.704971,219.455152 C242.888134,222.505063 243.06068,225.554974 243.392497,228.541797 C244.001272,234.02454 244.699417,239.686689 246.140833,244.398575 C246.631039,246.247842 247.288481,247.718581 248.117583,248.810792 C249.393533,250.466853 250.94467,250.922269 252.369274,250.04298 C255.261841,248.272573 257.018263,241.388093 256.219246,234.933401 C255.503404,229.154934 254.819417,223.333093 254.315939,217.452107 C254.188521,214.952245 254.090303,212.454354 254.035442,209.928862 C253.955806,206.11598 254.062872,202.257754 254.073491,198.446844 C254.099151,191.069489 254.098266,183.719736 254.375224,176.36604 C254.83092,170.145956 255.406956,163.979103 255.81841,157.737333 C256.333391,149.989336 257.021802,142.235425 257.373971,134.442084 C257.540323,130.82241 257.678359,127.240193 257.678359,123.598832 C257.678359,119.78595 257.67128,115.97504 257.664201,112.162158 C257.657123,104.79269 257.609341,97.4212502 257.581026,90.0596678 C257.557135,83.4827425 255.137962,78 252.168414,78 C249.237799,78 246.735451,83.4827425 246.759342,90.0596678" id="Fill-20" fill="#2C2C2C"></path>
                <path d="M353.809194,219.979 C356.436194,220.289 359.068194,220.528 361.696194,220.821 C363.978194,221.229 366.200194,221.823 368.372194,222.622 C368.800194,222.836 369.215194,223.067 369.623194,223.317 C370.104194,223.767 370.553194,224.244 370.982194,224.744 C371.723194,225.806 372.384194,226.889 372.946194,228.081 C373.645194,229.256 374.582194,230.194 375.758194,230.893 C377.571194,231.952 379.778194,232.241 381.805194,231.682 C382.964194,231.364 384.017194,230.764 384.899194,229.974 C385.352194,230.792 385.773194,231.63 386.163194,232.491 C387.217194,235.265 387.925194,238.107 388.382194,241.035 C388.628194,243.406 388.709194,245.736 388.490194,248.101 C388.115194,250.057 387.539194,251.92 386.814194,253.772 C385.408194,256.893 383.735194,259.88 382.055194,262.862 C381.422194,263.987 380.750194,265.092 380.098194,266.206 C379.143194,267.832 378.194194,269.478 377.109194,271.023 C376.371194,271.882 375.592194,272.681 374.738194,273.429 C372.830194,274.776 370.799194,275.856 368.665194,276.807 C363.598194,278.792 358.282194,280.17 352.908194,280.998 C349.120194,281.452 345.335194,281.592 341.538194,281.19 C338.891194,280.736 336.347194,280.007 333.841194,279.038 C330.811194,277.655 327.955194,275.991 325.269194,274.025 C323.002194,272.156 320.981194,270.075 319.132194,267.797 C317.631194,265.74 316.323194,263.586 315.250194,261.278 C314.588194,259.524 314.102194,257.75 313.770194,255.907 C313.576194,253.676 313.641194,251.458 313.872194,249.229 C314.406194,245.844 315.231194,242.541 316.470194,239.345 C318.155194,235.756 320.412194,232.583 322.729194,229.389 C324.175194,227.644 325.720194,226.052 327.464194,224.6 C329.707194,222.986 332.077194,221.563 334.585194,220.401 C336.111194,219.843 337.643194,219.418 339.237194,219.116 C344.092194,218.691 348.986194,219.414 353.809194,219.979 M341.547194,205.038 C337.067194,205.213 332.817194,206.299 328.750194,208.151 C325.344194,209.702 322.278194,211.756 319.325194,214.038 C318.090194,214.991 316.934194,216.01 315.829194,217.108 C314.313194,218.62 313.043194,220.389 311.750194,222.088 C308.774194,226.018 306.176194,230.276 304.356194,234.858 C303.043194,238.166 302.200194,241.584 301.668194,245.1 C301.364194,247.135 301.118194,249.182 301.024194,251.241 C300.914194,253.674 301.196194,256.042 301.528194,258.452 C302.039194,262.112 303.532194,265.643 305.223194,268.901 C307.004194,272.334 309.524194,275.456 312.110194,278.307 C314.614194,281.073 317.582194,283.397 320.661194,285.483 C324.024194,287.76 327.762194,289.487 331.555194,290.905 C338.657194,293.561 346.395194,293.76 353.829194,292.78 C357.106194,292.346 360.442194,291.874 363.618194,290.936 C365.200194,290.471 366.778194,290.006 368.356194,289.542 C371.664194,288.565 374.926194,287.112 377.957194,285.487 C381.493194,283.596 384.532194,280.885 386.895194,277.667 C388.868194,274.975 390.442194,271.956 392.106194,269.069 C393.551194,266.561 394.895194,263.979 396.129194,261.358 C397.754194,257.917 399.106194,254.405 399.653194,250.62 C399.957194,248.53 400.079194,246.483 399.989194,244.37 C399.883194,241.944 399.454194,239.495 398.997194,237.116 C397.594194,229.831 394.063194,222.874 388.813194,217.62 C386.922194,215.727 384.706194,214.175 382.318194,212.969 C382.195194,212.828 382.072194,212.688 381.950194,212.549 C379.020194,209.237 374.649194,207.651 370.461194,206.682 C367.450194,205.987 364.364194,205.666 361.282194,205.561 C360.082194,205.518 358.883194,205.534 357.684194,205.51 C354.860194,205.456 352.043194,205.334 349.219194,205.182 C347.356194,205.083 345.496194,205 343.633194,205 C342.938194,205 342.244194,205.011 341.547194,205.038" id="Fill-22" fill="#2C2C2C"></path>
                <path d="M112.5093,219.9232 C117.6613,220.6352 122.9033,221.4302 127.8493,223.0582 C128.6213,224.9792 130.2723,226.5262 132.3853,227.1962 C133.0613,227.4112 133.7333,227.6282 134.4003,227.8592 C134.4233,227.8872 134.4453,227.9142 134.4673,227.9432 C134.6473,228.1752 134.8263,228.4082 135.0073,228.6422 C135.9833,229.6142 137.1353,230.2862 138.4643,230.6572 C138.8983,230.7772 139.3413,230.8582 139.7863,230.9012 C140.5143,231.5762 141.1913,232.2962 141.8333,233.0662 C143.4173,235.2382 144.8433,237.5282 146.0023,239.9522 C146.5983,241.5392 147.0583,243.1532 147.3743,244.8192 C147.5723,247.4102 147.3763,249.9542 147.1123,252.5322 C146.7773,254.5952 146.3083,256.6082 145.6023,258.5802 C144.8713,260.0812 144.0163,261.4952 143.0493,262.8612 C141.3503,264.9172 139.4773,266.7912 137.4293,268.5042 C135.3663,269.9732 133.2743,271.3592 131.0813,272.6382 C128.9563,273.8762 126.7663,274.9212 124.5303,275.9122 C121.2803,277.2112 118.0353,278.5222 114.5933,279.1742 C111.6443,279.4352 108.6833,279.3332 105.7393,279.0232 C103.5053,278.6522 101.3373,278.1302 99.2113,277.3532 C96.8083,276.1922 94.6083,274.7682 92.4613,273.1792 C90.2993,271.4512 88.2443,269.6102 86.4593,267.4962 C85.5473,266.1942 84.7393,264.8432 84.0383,263.4142 C82.7893,260.0202 82.1433,256.4772 81.6073,252.9052 C81.3803,250.6242 81.3353,248.3842 81.5323,246.1092 C81.9103,244.1062 82.5053,242.1872 83.2453,240.2912 C84.1823,238.2502 85.2483,236.2982 86.3783,234.3532 C87.3323,232.7002 88.5203,231.1572 89.6633,229.6222 C90.4973,228.5602 91.3343,227.4992 92.1713,226.4392 C93.6063,224.6212 94.9963,222.7822 96.7133,221.2352 C97.0823,221.0012 97.4563,220.7862 97.8423,220.5852 C99.0433,220.1822 100.2643,219.8952 101.5113,219.6762 C105.1973,219.3312 108.8233,219.5712 112.5093,219.9232 M100.4873,204.4542 C98.4213,204.7282 96.4253,205.0402 94.4173,205.5992 C90.4053,206.7162 86.8823,209.0752 84.0613,212.0912 C81.9993,214.2902 80.2143,216.8102 78.3503,219.1772 C76.5033,221.5282 74.5303,223.9502 73.0383,226.5562 C70.9833,230.1532 69.2143,233.8332 67.8313,237.7552 C66.5343,241.4272 66.0813,245.4462 66.0653,249.3212 C66.0573,252.2122 66.5893,255.0952 67.0033,257.9462 C67.1823,259.1932 67.4363,260.4232 67.6783,261.6572 C68.3393,265.0322 69.4523,268.1732 70.8853,271.3022 C71.6243,272.9192 72.6243,274.4192 73.6633,275.8532 C74.8783,277.5282 76.1823,279.1182 77.6393,280.5872 C80.6083,283.5682 84.0573,286.1932 87.5343,288.5402 C94.4523,293.2122 102.9213,294.8572 111.1393,295.0172 C114.9563,295.0912 118.8583,294.5712 122.5103,293.4582 C123.8503,293.0522 125.1593,292.5442 126.4713,292.0642 C128.1673,291.4432 129.8353,290.7672 131.4953,290.0642 C132.6553,289.5752 133.8463,289.1302 134.9753,288.5682 C141.6553,285.2392 148.0813,281.2432 153.1353,275.6612 C155.6513,272.8802 157.8823,269.7632 159.4403,266.3452 C160.2963,264.4662 161.0143,262.5522 161.5143,260.5482 C161.9953,258.6382 162.1943,256.6262 162.4283,254.6772 C163.0653,249.3802 162.8423,243.8962 161.2173,238.7942 C159.4213,233.1502 156.0463,228.2822 152.2763,223.7862 C150.8703,222.1112 149.2193,220.6422 147.4333,219.3632 C147.3953,219.2892 147.3563,219.2152 147.3153,219.1422 C146.0963,216.9192 144.6593,214.8612 142.9833,212.9502 C142.2493,212.1142 140.9993,211.2042 140.1393,210.6342 C139.3703,210.1262 138.6163,209.7282 137.7723,209.3492 C136.1473,208.6182 134.5223,208.0092 132.8113,207.5252 C130.4483,206.8532 127.9793,206.5172 125.5573,206.1422 C119.0463,205.1382 112.4133,204.0952 105.8113,204.0682 L105.6863,204.0682 C103.9463,204.0682 102.2083,204.2262 100.4873,204.4542" id="Fill-24" fill="#2C2C2C"></path>
                <path d="M468.0059,204.8773 C468.1069,204.9963 468.2009,205.1193 468.2899,205.2453 C468.1949,205.1223 468.1009,205.0003 468.0059,204.8773 M467.8689,195.7483 C466.2679,196.2873 465.0259,197.1933 463.7759,198.3073 C462.2249,199.6933 461.3689,201.6823 460.7169,203.5963 C460.5569,204.3503 460.4439,205.1073 460.3689,205.8733 C460.2989,206.6433 460.2829,207.3693 460.3219,208.1433 C460.3889,209.5233 460.6409,210.9233 460.9139,212.2983 C460.5009,212.8253 460.1909,213.4333 460.0099,214.0843 C459.6469,215.4003 459.8339,216.8343 460.5259,218.0143 C460.9319,218.7083 461.4439,219.2153 462.0469,219.6103 C462.1139,220.1863 462.1939,220.7603 462.2909,221.3343 C462.5839,222.3733 463.1109,223.2793 463.8689,224.0453 C465.0179,225.1893 466.5919,225.8423 468.2129,225.8423 C469.3219,225.8383 470.3539,225.5613 471.3149,225.0023 C472.5569,224.2753 473.9039,222.8223 474.1349,221.3343 C474.1819,221.0323 474.2269,220.7423 474.2659,220.4573 C475.3849,219.7953 476.3939,218.9293 477.2439,217.9403 C478.3419,216.6623 479.1309,215.2523 479.6939,213.6703 C480.2479,212.0963 480.4159,210.4123 480.4859,208.7523 C480.5529,207.2363 480.2639,205.7013 480.0609,204.2093 C479.8459,202.5963 479.1659,201.0493 478.3929,199.6353 C477.9589,199.0453 477.5139,198.4673 477.0609,197.8933 L476.5569,197.4363 C476.0219,196.8653 475.3849,196.4593 474.6539,196.2213 C474.1969,196.0253 473.7359,195.8343 473.2789,195.6393 C472.4789,195.5063 471.6739,195.3933 470.8689,195.2953 C469.8499,195.3653 468.8419,195.4203 467.8689,195.7483" id="Fill-26" fill="#2C2C2C"></path>
                <path d="M2.791,224.1605 C1.248,225.7115 0.631,228.0125 1.213,230.1255 C1.74,232.0395 3.447,234.0395 5.494,234.4065 C6.908,234.6605 7.576,234.6645 8.986,234.3835 C9.171,234.3465 9.352,234.2975 9.529,234.2385 C11.552,234.2365 13.597,234.5125 15.604,234.5865 C18.939,234.7075 22.275,234.7505 25.611,234.7815 C28.853,234.8165 31.561,232.0515 31.561,228.8365 C31.561,225.5665 28.853,222.9185 25.611,222.8875 C22.041,222.8485 18.471,222.7895 14.9,222.6485 C13.514,222.5905 12.123,222.4575 10.74,222.3365 C9.934,222.2655 9.118,222.2045 8.313,222.2045 C6.301,222.2045 4.356,222.5865 2.791,224.1605" id="Fill-28" fill="#2C2C2C"></path>
                <path d="M81.7715,0.6869 C80.1385,1.1359 78.7205,2.2299 77.8615,3.6909 C77.0685,5.0499 76.5725,7.2069 77.2055,8.7339 C77.6085,9.7079 78.0035,10.6619 78.4685,11.5939 C76.5945,11.4619 74.7185,11.3399 72.8415,11.2299 C70.4315,11.0889 67.9945,10.9329 65.5765,10.9759 C63.0645,11.0229 60.5645,11.1989 58.0525,11.3589 C55.3885,11.5269 52.6265,11.5269 50.0055,12.0969 C48.3305,12.4599 46.7325,13.6789 45.8695,15.1519 C44.4585,17.5619 44.8735,20.6519 46.8105,22.6399 C48.2875,24.1599 50.3145,24.6239 52.3185,24.8939 C58.1545,25.6789 64.0135,26.2729 69.8575,27.0189 C74.4945,27.6129 79.1305,28.0779 83.7985,28.3119 C85.8145,28.4139 87.8305,28.4719 89.8495,28.5349 C90.8965,28.5659 91.9395,28.6009 92.9865,28.5849 C93.9905,28.5739 95.0725,28.5149 96.0055,28.1479 C97.4045,27.5929 97.7055,27.4679 98.8455,26.4799 C98.9355,26.4029 99.0245,26.3279 99.1145,26.2529 C99.2905,26.1189 99.4655,25.9849 99.6415,25.8509 C104.4885,26.2079 109.3525,26.3549 114.2095,26.3629 C124.9395,26.3819 135.6625,26.1279 146.3845,25.8859 C157.4665,25.6399 168.5445,25.3629 179.6265,25.0389 C186.4665,24.8349 193.3025,24.6909 200.1465,24.6749 C206.5215,24.6559 212.8765,24.7489 219.2285,24.1399 C220.9235,23.9799 222.3535,23.5739 223.5955,22.3319 C224.7485,21.1789 225.4045,19.5969 225.4045,17.9679 C225.4045,16.3389 224.7485,14.7569 223.5955,13.6049 C222.5335,12.5419 220.7795,11.6479 219.2285,11.7959 C214.3335,12.2609 209.4275,12.3319 204.5095,12.2959 C198.7015,12.2569 192.9005,12.2849 187.0915,12.3779 C176.5685,12.5539 166.0445,12.9529 155.5215,13.1709 C144.0845,13.4099 132.6465,13.6439 121.2055,13.8079 C119.7855,13.8289 118.3665,13.8379 116.9475,13.8369 C117.7475,12.4919 118.0305,10.8889 117.5725,9.2259 C117.1545,7.7069 116.1385,6.3859 114.7795,5.5929 C113.3105,4.7339 111.7245,4.6279 110.0955,4.9799 C108.0875,5.4099 106.1305,6.1239 104.1465,6.6519 C101.4665,7.3699 98.7905,8.0629 96.0545,8.5109 C95.1695,8.5919 94.2995,8.6169 93.4095,8.5829 C93.1245,8.5169 92.8445,8.4409 92.5635,8.3549 C92.3495,8.2389 92.1405,8.1169 91.9335,7.9859 C91.5355,7.6249 91.1615,7.2459 90.8055,6.8449 C90.1695,5.8329 89.7135,4.7559 89.1625,3.6909 C88.0905,1.6259 85.7465,0.4639 83.4595,0.4629 C82.8865,0.4629 82.3165,0.5369 81.7715,0.6869" id="Fill-30" fill="#2C2C2C"></path>
            </g>
        </g>
    </g>
</svg>