<?xml version="1.0" encoding="UTF-8"?>
<svg width="455px" height="207px" viewBox="0 0 455 207" version="1.1" xmlns="http://www.w3.org/2000/svg" xmlns:xlink="http://www.w3.org/1999/xlink">
    <!-- Generator: Sketch 51.1 (57501) - http://www.bohemiancoding.com/sketch -->
    <title>Jeep</title>
    <desc>Created with Sketch.</desc>
    <defs></defs>
    <g id="transport" stroke="none" stroke-width="1" fill="none" fill-rule="evenodd">
        <g id="Jeep_DL" transform="translate(-173.000000, -349.000000)">
            <g id="Jeep" transform="translate(173.000000, 349.000000)">
                <polygon id="Path-6" fill="#FFFFFF" points="36 163 51.1869065 5 248.719247 5 282.030667 73.4050703 411.39662 73.4050703 425 163"></polygon>
                <path d="M48.6441838,62.9052125 C48.5718381,63.4820482 48.4994923,64.0570291 48.4254033,64.6320099 C48.497749,64.0570291 48.5709664,63.4811208 48.6441838,62.9052125 M43.1476499,10.108056 C41.8881365,14.9406777 40.7332194,19.784428 39.7700621,24.6930955 C38.8269524,29.5034598 38.2952547,34.4195464 37.6389132,39.2846266 C37.0087206,43.9651565 36.4229815,48.649396 35.6603004,53.3076686 C34.8871597,58.0429144 34.1044309,62.7698138 33.307756,67.4976405 C32.4117147,72.8087946 31.5749445,78.1551895 31.0397603,83.5201322 C30.5464146,88.5159742 30.2090916,93.5155257 30.0086154,98.5289881 C29.610278,108.342614 29.6538597,118.174787 29.2799281,127.992122 C29.105601,132.527052 28.7761227,137.138955 29.2285016,141.667393 C29.4019571,143.402537 29.5518784,145.159011 29.9127355,146.865406 C30.4200274,149.292382 31.7928534,151.625691 33.8420686,152.90085 C35.0100603,153.62885 36.3785281,154.023918 37.7339214,153.998878 C39.071882,153.995169 40.3218074,153.636269 41.4758529,152.92218 C42.5924181,152.220147 43.4779998,151.27792 44.1386996,150.093645 C45.1497968,148.611678 45.3032047,146.380382 45.3772937,144.637819 C45.398213,144.119408 45.3947264,143.605635 45.3677057,143.090934 C45.3093061,141.89924 45.2343455,140.710328 45.1803041,139.522343 C44.9693683,134.791734 45.3162792,130.02403 45.5036809,125.296203 C45.6980556,120.434833 45.704157,115.562333 45.7555835,110.700963 C45.8410038,102.644738 45.8680245,94.6061347 46.2489293,86.5601118 C46.6272191,78.6086825 47.6784116,70.7110418 48.6546434,62.8236023 C48.7112997,62.3793832 48.7670844,61.9351641 48.8237407,61.490945 C49.5707324,55.8848813 50.2549663,50.2778903 50.8189145,44.6467871 C51.2808814,40.042303 51.7262872,35.4350368 52.2658296,30.840754 C53.1165459,25.0816713 54.3089434,19.4301655 55.7689329,13.8111184 C56.7225022,10.1516433 54.6323201,6.25011974 51.1998193,5.2429758 C50.6367427,5.07882803 50.0666931,5 49.5044881,5 C46.629834,5 43.9417099,7.05045604 43.1476499,10.108056" id="Fill-176" fill="#2C2C2C"></path>
                <path d="M80.7269456,0.506683403 C76.1976865,0.772261645 71.6985993,1.3704925 67.2098569,2.0258272 C65.2702237,2.30862724 63.3512798,2.75186192 61.4211292,3.08088889 C59.5832189,3.39269406 57.7780669,3.74256847 55.9694666,4.21390186 C51.6591705,5.33603792 49.1238543,10.3394232 50.2790137,14.7509226 C51.4807242,19.3391719 55.9936043,21.8571799 60.3039004,20.7341375 C61.5668172,20.4060169 62.8280099,20.1359066 64.1133402,19.9328707 C66.0831455,19.6500707 68.0495026,19.3455168 70.0175838,19.0464013 C79.0174822,18.0194384 88.0699662,17.877132 97.1129675,17.8454076 C106.652515,17.8100576 116.16189,18.124582 125.68161,18.7092167 C136.349593,19.368177 147.021025,19.0880962 157.695904,18.8043898 C165.289784,18.6067923 172.88625,18.4046628 180.483578,18.5424372 C185.248179,18.6312654 190.006746,18.7300641 194.767899,18.893218 C199.481639,19.0527462 204.192793,19.3427975 208.903946,19.5376758 C218.096946,19.9129297 227.293394,19.7824066 236.486393,19.5766514 C238.18034,19.5413014 239.870838,19.5168283 241.561336,19.4914488 C242.34581,19.4814783 243.130284,19.4706014 243.914758,19.4633501 C244.211306,19.4633501 244.507855,19.4669758 244.804403,19.4706014 C245.97939,19.4878232 247.14748,19.5059514 248.299191,19.0636231 C249.383662,18.7445667 250.326754,18.1671833 251.125021,17.3314729 C252.319835,16.0751881 253,14.3502892 253,12.5737248 C252.996552,11.3555093 252.707762,10.2224963 252.128458,9.17468588 C251.363812,7.80056774 249.855208,6.34487267 248.299191,6.07929443 C247.756956,5.98412134 247.23541,5.78924311 246.693175,5.67594181 C245.689738,5.46746742 244.662163,5.35779177 243.645795,5.25446098 C242.675979,5.15928789 241.702714,5.08858788 240.729449,5.02785839 C238.540681,4.89733529 236.348464,4.80850707 234.152799,4.74505835 C229.815779,4.61725448 225.478759,4.57827884 221.140877,4.45410062 C216.100417,4.30544931 211.065991,4.09697492 206.028117,3.82051976 C201.3911,3.56944408 196.757532,3.20778634 192.113619,2.97483887 C182.854241,2.50713112 173.583656,2.27327724 164.309622,2.22705031 C155.19076,2.17810415 146.078794,2.1917003 136.962517,1.83457461 C132.238433,1.64694766 127.527279,1.31429505 122.816125,0.941760386 C118.122213,0.566506489 113.4283,0.329933379 108.724043,0.174030793 C105.211152,0.0589166748 101.693088,0 98.1750245,0 C92.3535385,0 86.5303284,0.162247458 80.7269456,0.506683403" id="Fill-178" fill="#2C2C2C"></path>
                <path d="M243.705198,9.84496141 C241.44912,12.2906531 241.414149,16.4442465 243.705198,18.88605 C244.881658,20.1390296 245.966655,21.4406119 247.005025,22.8180146 C249.009132,25.7847281 250.850938,28.8778088 252.907053,31.7998078 C255.417791,35.3691957 258.124905,38.7626416 260.723519,42.253293 C263.677223,46.5828284 266.447106,51.0445633 269.099521,55.6035038 C271.824569,60.2820071 274.343377,65.0888217 276.967099,69.8353689 C278.623289,72.8312441 282.259376,73.9209183 285.068713,72.1401126 C286.392231,71.2973404 287.383972,69.907301 287.790174,68.3014653 C287.860116,67.7318407 287.930058,67.1622162 288,66.5964799 C287.99731,65.4348735 287.727406,64.3558918 287.191184,63.3537026 C285.867666,60.1449473 284.217752,57.0888046 282.514934,54.0958456 C280.658781,50.8345993 278.738963,47.6219558 276.78507,44.4248651 C274.833868,41.2277744 272.756232,38.1298334 270.616725,35.0804952 C268.320296,31.8173048 265.793417,28.7543578 263.377728,25.5971214 C259.697703,20.2595644 256.453471,14.5380455 252.045332,9.84496141 C250.895772,8.61919938 249.374982,8 247.856883,8 C246.349543,8 244.844893,8.60947882 243.705198,9.84496141" id="Fill-180" fill="#2C2C2C"></path>
                <path d="M282.117454,69.8485183 C280.709291,70.6661332 279.656292,72.017935 279.224384,73.5772308 C278.774629,75.1842062 279.00843,76.9395177 279.858861,78.3813807 C280.608453,79.647536 282.096929,81.0028696 283.622885,81.2439159 C284.776722,81.4266873 285.899326,81.678329 287.032638,81.9617571 C288.58358,82.3476077 290.15237,82.5409746 291.738115,82.7511175 C293.795032,83.0204183 295.876043,82.9930467 297.942776,82.9206446 C302.345739,82.7617129 306.716576,82.2584294 311.123108,82.209867 C315.815199,82.1551239 320.503721,82.2275261 325.19492,82.2584294 C327.492777,82.2716737 329.789742,82.2548976 332.083138,82.3405441 C334.443461,82.4270736 336.799323,82.5754097 339.156077,82.7511175 C343.966853,83.1131284 348.780307,83.385961 353.598223,83.6967607 C358.467896,84.013741 363.319721,84.4967165 368.176009,84.9585012 C372.801172,85.3964461 377.454891,85.5827493 382.101471,85.6489708 C384.273504,85.6763424 386.441076,85.6383754 388.613109,85.5280062 C390.657533,85.4220518 392.708203,85.2878428 394.753519,85.4873903 C396.494537,85.8017218 398.160595,86.3191325 399.812375,86.9433806 C400.183602,87.1217372 400.538766,87.3106893 400.885899,87.525247 C400.918024,87.5552674 400.949257,87.5861707 400.981382,87.6179571 C401.042064,87.7203797 401.099175,87.8236852 401.155395,87.9287567 C401.764885,89.8482976 402.070968,91.8534849 402.35742,93.8489598 C402.416316,94.3425308 402.471643,94.8352188 402.521616,95.3296728 C402.591221,95.8338392 402.660826,96.3335909 402.726862,96.8368743 C402.999035,97.7992936 403.490732,98.6345676 404.201952,99.3409304 C405.271906,100.400475 406.742535,101 408.255998,101 C409.768568,101 411.239197,100.400475 412.310043,99.3409304 C413.310392,98.3476077 414.101033,96.768004 413.989487,95.3296728 C413.857416,93.6573589 413.661986,91.9947575 413.418369,90.3356879 C413.334486,89.7564704 413.250603,89.1737211 413.164043,88.5936207 C412.881161,86.6387617 412.372509,84.810165 411.566697,83.0001104 C410.423569,80.4333646 408.318464,78.3849125 405.798406,77.1187572 C404.284943,76.3567684 402.626024,75.7740191 401.018862,75.2292368 C398.456862,74.3630594 395.759222,74.0081121 393.064259,73.8562441 C390.976109,73.7388113 388.867435,73.9286463 386.779285,73.9772088 C382.408447,74.0840461 378.009054,73.9286463 373.648033,73.6213785 C368.806916,73.2840903 363.989,72.7181171 359.15413,72.2907676 C354.420097,71.8731306 349.672679,71.6700513 344.9324,71.3142211 C340.132332,70.955742 335.317986,70.4489267 330.500962,70.386237 C325.724988,70.3244302 320.946337,70.2590917 316.166794,70.1902213 C313.873398,70.1557861 311.583572,70.1557861 309.289284,70.1690304 C307.100296,70.1796258 304.922016,70.3385575 302.735705,70.4657028 C299.449992,70.6581866 296.153571,70.7376524 292.879458,70.4250869 C290.899285,70.0745544 288.962838,69.5368357 286.972849,69.2207384 C286.415117,69.1483362 285.857384,69.0724022 285.299652,69 C284.160093,69.0035318 283.100848,69.2860769 282.117454,69.8485183" id="Fill-182" fill="#2C2C2C"></path>
                <path d="M73.728149,101.726387 C70.7553269,102.317467 68.3334868,104.845581 66.8523906,107.359451 C66.3297551,108.246071 65.8974734,109.181651 65.4926523,110.123462 C64.2020081,113.134944 63.0770129,116.191824 61.8696361,119.234462 C60.8730852,121.745662 59.8242707,124.238168 58.7798853,126.728893 C57.2022345,130.476554 55.6201546,134.218874 54.0256731,137.955853 C52.1946769,142.240293 46.5971612,153.251828 44.1611478,157.216693 C41.7313352,161.159304 43.2921554,166.56003 47.1950917,168.854916 C51.2574761,171.243271 56.3509586,169.737975 58.7798853,165.801596 C61.0644229,162.102005 66.6486513,151.409154 68.5965762,147.514613 C70.444403,143.825704 72.1708721,140.066471 73.9699787,136.352637 C75.6964478,132.788354 77.5513612,129.280151 79.1263546,125.646434 C80.17074,123.236714 81.2434716,120.809192 82.1089208,118.322917 C89.8217819,118.011354 97.479722,118.913997 105.091599,119.457007 C114.801106,120.148678 124.503525,120.252829 134.234291,120.239476 C136.147669,120.235915 138.068133,120.225233 139.981511,120.152238 C140.622847,120.128203 141.261525,120.082804 141.896661,120.023162 C142.383863,120.945389 142.852464,121.875628 143.337895,122.780942 C144.147537,124.29692 144.981096,125.803106 145.808455,127.308401 C147.81573,130.956362 149.839836,134.59364 151.912662,138.205994 C153.784406,141.471176 155.808511,144.666925 158.09925,147.654372 C160.417449,150.670304 166.176336,158.92673 168.552114,161.890142 C170.753384,164.899843 173.102587,168.352854 177.355423,168.051083 C179.435336,167.905093 181.252159,167.317574 182.760715,165.801596 C184.169174,164.386209 185.030194,162.383302 184.99919,160.369713 C184.957556,157.789969 183.805101,155.352655 182.279713,153.328384 C181.047533,151.697573 171.848109,139.352546 170.24034,137.391478 C165.002469,129.652247 160.516661,121.406503 156.075144,113.187464 C155.552508,112.220728 155.02633,111.253992 154.500151,110.290816 C153.26177,108.019965 151.576935,105.446453 149.123205,104.386247 C148.264842,104.017713 147.386106,103.552148 146.455106,103.353638 C145.354914,103.11685 144.230804,103.01982 143.112896,102.884513 C142.022447,102.748315 140.908968,102.758997 139.811433,102.737633 C136.583494,102.678881 133.351126,102.686002 130.123187,102.689563 C128.587169,102.693124 127.046723,102.696684 125.514249,102.689563 C120.908855,102.67532 116.302576,102.668199 111.704268,102.487492 C106.846415,102.299664 101.994762,101.93469 97.1466526,101.607993 C93.0417486,101.327587 88.9076125,101 84.785878,101 C84.3084193,101 83.8318466,101.004451 83.3543879,101.013353 C80.1291063,101.072105 76.9047104,101.09703 73.728149,101.726387 Z" id="Fill-184" fill="#2C2C2C"></path>
                <path d="M219.06311,149.448981 C214.574014,149.690465 210.089176,150.022282 205.610301,150.378247 C201.271125,150.724374 196.925986,151.210025 192.573181,151.213602 C190.623363,151.213602 188.673544,151.164411 186.723726,151.276209 C184.617173,151.39874 182.548099,151.670633 180.428769,151.67421 C175.836602,151.684943 172,155.695364 172,160.527724 C172,165.35919 175.836602,169.369611 180.428769,169.376766 C182.647763,169.380344 184.866756,169.383921 187.083195,169.484987 C189.089233,169.579791 191.085901,169.915186 193.096199,169.970638 C197.674737,170.100323 202.236238,169.775662 206.804554,169.481409 C215.835561,168.905425 224.859752,168.328547 233.910351,168.154142 C242.931135,167.983315 251.951068,167.926969 260.975259,168.09869 C265.620239,168.185446 270.261812,168.342857 274.907644,168.443923 C279.222969,168.53515 283.532331,168.919736 287.847657,168.91258 C289.930359,168.909003 292.007099,168.839241 294.086394,168.709555 C297.170837,168.513685 300.508272,168.381316 303.194064,166.60954 C305.509313,165.086403 307,162.557083 307,159.643178 C307,156.125563 304.664307,152.726007 301.356686,151.862925 C298.348906,151.080339 295.227834,151.164411 292.120391,151.248483 C290.549633,151.290519 288.985689,151.331661 287.438782,151.261899 C282.969278,151.059768 278.514254,150.640302 274.045601,150.398818 C264.937931,149.910484 255.848149,149.23254 246.727701,149.082283 C243.651776,149.030409 240.576702,149 237.501628,149 C231.354036,149 225.208147,149.123425 219.06311,149.448981" id="Fill-186" fill="#2C2C2C"></path>
                <path d="M343.021321,100 C340.369651,100.00716 338.144907,101.241377 336.422328,103.223821 C335.585096,104.18506 334.850222,105.310981 334.163465,106.401102 C333.306112,107.765095 332.447884,109.128193 331.583532,110.488606 C329.741098,113.393804 327.991398,116.358072 326.218077,119.308916 C324.448256,122.249019 322.465846,125.042341 320.551674,127.884888 C318.85184,130.409707 317.202748,132.964957 315.416304,135.424441 C310.415661,141.61611 304.861239,147.331635 299.046111,152.717797 C296.202848,155.350912 296.435558,160.224234 299.046111,162.892255 C300.358386,164.234768 302.159702,165 304.018758,165 C305.953052,165 307.579398,164.196282 308.991406,162.892255 C316.126682,156.284406 323.337196,149.648812 329.08846,141.698451 C330.397236,139.886954 331.610653,138.00654 332.871312,136.156558 C334.208082,134.195594 335.581597,132.258795 336.883374,130.269191 C339.416065,126.395594 341.617187,122.312565 344.043146,118.368262 C345.221569,116.449363 346.351875,114.490189 347.542546,112.576661 C347.684272,112.45315 347.821623,112.324269 347.95635,112.187332 C349.258127,110.855559 350,109.027057 350,107.139484 C350,103.259621 346.831293,100 343.033569,100 L343.021321,100 Z" id="Fill-188" fill="#2C2C2C"></path>
                <path d="M392.458192,92.0008846 C390.159619,92.0114992 387.851314,92.1910642 385.559819,92.3361314 C380.285841,92.66784 375.053446,93.1030417 369.835208,93.9769833 C366.195358,94.5899809 362.6024,95.4311939 358.952818,95.9858107 C357.520412,96.1777594 356.088006,96.3714772 354.656486,96.5731561 C351.986319,96.8907118 349.303765,97.11362 346.620327,97.2940695 C344.550904,97.4329448 342.732748,98.0264821 341.233102,99.5266896 C339.808659,100.949941 339,102.902156 339,104.913637 C339,106.924234 339.808659,108.87645 341.233102,110.299701 C342.577033,111.644226 344.674768,112.659697 346.620327,112.532321 C348.933056,112.376639 351.227206,112.220957 353.547013,112.228034 C355.692524,112.238648 357.860155,112.097119 360.002128,111.958244 C364.883278,111.63715 369.687455,110.636717 374.518174,109.898112 C380.39378,109.219658 386.335742,109.013556 392.247622,109.00471 C395.302654,108.997634 398.364764,109.260347 401.416257,109.432836 C403.963444,109.576134 406.493821,109.69378 409.025083,109.956493 C410.553041,110.250166 412.030569,110.62964 413.492171,111.139145 C414.33622,111.570808 415.142224,112.05643 415.924341,112.588932 C416.507389,113.108167 417.057702,113.653938 417.577048,114.234207 C418.510457,115.659227 419.305844,117.176241 420.117158,118.672026 C420.279066,118.969237 420.44186,119.269986 420.625002,119.556582 C420.717901,119.70165 420.808145,119.844063 420.901044,119.989131 C421.976011,121.660942 422.778477,122.334974 424.357751,123.502588 C427.68263,125.963424 433.022079,125.313275 435.655087,122.124449 C436.646889,121.125785 437.335222,119.947556 437.714778,118.589762 C438.28544,116.519901 437.991704,114.266936 436.906119,112.414675 C436.561068,111.824676 436.149661,111.294827 435.685168,110.830435 C434.901282,109.056015 434.046617,107.316977 433.015001,105.659318 C432.057705,104.12196 430.889839,102.691632 429.659156,101.364798 C428.386889,99.9999272 426.814693,98.8871554 425.324779,97.7885364 C422.612145,95.7912083 419.318231,94.5165627 416.097751,93.6213917 C414.12388,93.0720822 411.99164,92.8819026 409.973532,92.643957 C408.760543,92.4980052 407.551094,92.4051268 406.331027,92.3396696 C403.980254,92.211409 401.623288,92.1875259 399.273399,92.1149923 C397.195128,92.0486506 395.121281,92 393.04301,92 C392.848366,92 392.653721,92 392.458192,92.0008846" id="Fill-190" fill="#2C2C2C"></path>
                <path d="M440.24989,141.192454 C440.263223,141.251938 440.274777,141.313197 440.284554,141.372681 C440.281888,141.376233 440.278332,141.379784 440.274777,141.383335 C440.267667,141.3203 440.258779,141.255489 440.24989,141.192454 M438.829569,129.026635 C435.430751,129.189106 432.226583,130.240287 429.070411,131.412211 C427.323895,132.06476 425.910684,132.931274 424.941879,134.586173 C424.008626,136.180701 423.754426,138.123254 424.244161,139.906 C424.719676,141.629262 425.87602,143.127905 427.420776,144.032595 C428.903314,144.899996 431.080904,145.343907 432.747427,144.725983 C434.63793,144.024604 436.517768,143.374719 438.488265,142.975199 C438.522928,142.973424 438.558481,142.971648 438.593145,142.969872 C438.528261,143.024917 438.463378,143.079962 438.398495,143.135007 C438.09541,143.343645 437.789658,143.546956 437.479463,143.748492 C435.899155,144.778365 434.715257,146.155376 434.205079,148.003821 C433.698456,149.83806 433.962433,151.83921 434.924128,153.483455 C435.854714,155.075319 437.39947,156.265 439.180649,156.753302 C441.138703,157.294873 442.892329,156.895354 444.669953,156.035942 C445.513436,155.630208 446.315145,155.199614 447.110631,154.70421 C448.068771,154.104043 448.93003,153.35117 449.815287,152.650679 C450.884528,151.801033 451.675571,150.70191 452.498611,149.623207 C453.99537,147.663785 454.933067,145.083775 454.995284,142.607641 C455.029948,141.265255 454.877072,139.909551 454.418445,138.647069 C454.168689,137.845366 453.822052,137.093381 453.380312,136.389339 C452.846136,135.477546 452.082647,134.686497 451.43648,133.847506 C449.971718,131.957334 447.728356,130.667329 445.509881,129.872729 C443.750033,129.245039 441.810645,129 439.92103,129 C439.554839,129 439.191315,129.008878 438.829569,129.026635" id="Fill-192" fill="#2C2C2C"></path>
                <path d="M116.952019,138.840607 C119.248799,139.249593 121.471981,139.894704 123.654775,140.722478 C126.285436,141.94409 128.695305,143.437469 131.057605,145.099254 C132.68393,146.476798 134.230374,147.891765 135.626932,149.500087 C136.283924,150.462408 136.867318,151.450568 137.384296,152.490409 C137.923712,154.006955 138.326703,155.538648 138.62199,157.119348 C138.911892,160.365398 138.695588,163.574023 138.333883,166.803143 C137.982051,168.777682 137.505462,170.698758 136.815262,172.578847 C135.869265,174.532892 134.732991,176.364865 133.451318,178.121991 C131.476751,180.521555 129.267032,182.823104 126.862548,184.807445 C125.030689,186.077173 123.081253,187.121469 121.05463,188.049039 C119.483054,188.635341 117.921351,189.164618 116.302207,189.652015 C114.998993,190.04318 113.636542,190.272177 112.278579,190.474443 C110.355171,190.649086 108.453304,190.671362 106.53618,190.505629 C104.822794,190.200003 103.149798,189.768741 101.5136,189.183329 C100.75788,188.80553 100.033573,188.385851 99.3343967,187.919838 C98.439559,187.128597 97.6174213,186.281221 96.8401601,185.377709 C95.4139844,183.344361 94.2768135,181.191615 93.253629,178.946201 C92.5248344,177.026015 91.8436089,175.098701 91.2449562,173.133073 C90.7423393,171.488218 90.4138432,169.808612 90.1454816,168.115641 C89.948025,166.292578 89.7783917,164.45615 89.8564769,162.623286 C90.2325421,160.9517 90.7710602,159.294371 91.3957413,157.714561 C91.8373262,156.075052 91.8373262,154.439108 91.3957413,152.799599 C91.2961155,152.443184 91.1749489,152.093006 91.0340366,151.751739 C92.8299947,150.012434 94.8413601,148.46292 96.8132341,146.933009 C100.142174,144.447905 103.495347,142.020719 107.261384,140.237754 C108.955921,139.612245 110.678282,139.141778 112.453597,138.818331 C113.959653,138.707842 115.448656,138.715862 116.952019,138.840607 M114.895777,122.013366 C112.817097,122.079302 110.703413,122.441955 108.68038,122.907967 C106.467967,123.419423 104.39198,124.352339 102.31689,125.239812 C98.4602022,126.890013 95.1438278,129.667377 91.9324644,132.29861 C89.4041216,134.372945 86.9960478,136.631725 84.7100382,138.968025 C83.6509524,140.047072 82.6205877,141.17067 81.6557426,142.337038 C80.4422817,143.807249 79.2324108,145.284589 78.2720534,146.9339 C77.3188763,147.373181 76.4608373,147.969285 75.8361562,148.72043 C75.0050432,149.719283 74.1918807,150.725264 73.4909096,151.82124 C72.8841791,152.764849 72.5718386,153.913396 72.1616672,154.961256 C71.9722883,155.448653 71.8744575,155.998423 71.7694465,156.509879 C71.4328726,158.103945 71.2327234,159.715831 71.0541148,161.333955 C70.8431952,163.241666 71.2991406,165.26343 71.5585269,167.125698 C71.8816378,169.437049 72.2810387,171.7484 72.8698186,174.00718 C73.4487256,176.234774 74.1954708,178.392866 75.0615876,180.52601 C76.2355572,183.425446 77.445428,186.33201 78.9003246,189.105809 C80.4153558,191.994552 82.3988977,194.632914 84.5341223,197.093959 C86.7573048,199.659256 89.6213239,201.859228 92.6540788,203.386466 C95.5082251,204.8246 98.586754,205.774446 101.72452,206.334908 C105.212323,206.957744 108.68397,207.19476 112.206776,206.822306 C115.194654,206.502423 118.293827,206.056905 121.175796,205.172105 C125.112364,203.961185 128.951999,202.405433 132.580714,200.452279 C136.643833,198.263001 140.174717,195.065067 143.343897,191.747735 C145.685553,189.293818 147.796545,186.582391 149.654432,183.756021 C151.684646,180.67214 153.125182,177.136504 154.131313,173.599976 C154.640213,171.807209 154.90319,169.972563 155.186809,168.135244 C155.666988,165.044235 156.003562,161.963919 155.999972,158.834595 C155.999972,156.798575 155.695709,154.755426 155.404011,152.747028 C155.193989,151.302656 154.892419,149.903727 154.489428,148.504799 C153.903341,146.468778 153.003118,144.484438 152.052633,142.598112 C151.007908,140.537142 149.472234,138.696259 148.017337,136.921312 C145.521305,133.879311 142.16903,131.50826 138.975617,129.253044 C138.014362,128.574965 136.962457,127.976188 135.932092,127.408597 C132.664184,125.602464 129.070473,124.206209 125.463299,123.242106 C123.464499,122.709266 121.382228,122.427698 119.331372,122.19781 C118.162787,122.065937 117.005871,122 115.834594,122 C115.523151,122 115.21081,122.003564 114.895777,122.013366" id="Fill-194" fill="#2C2C2C"></path>
                <path d="M383.401392,133.726288 C385.739598,134.141616 388.010692,134.752129 390.235254,135.582785 C392.024031,136.418787 393.734062,137.376002 395.35461,138.498099 C396.722814,139.683476 397.953213,140.982934 399.112026,142.368845 C400.496337,144.258318 401.784006,146.178986 402.82291,148.284144 C403.719536,150.760067 404.27165,153.289465 404.714593,155.875013 C404.990203,158.92669 404.963358,161.978368 404.661798,165.023806 C404.312812,167.013992 403.812599,168.954267 403.117311,170.85087 C402.486452,172.153002 401.768794,173.390072 400.947334,174.581688 C399.633715,176.100397 398.177817,177.467591 396.621698,178.742985 C394.629793,180.170785 392.541246,181.413203 390.322053,182.451522 C386.720338,183.80713 382.899389,184.696608 379.097231,185.311578 C375.867769,185.670756 372.640096,185.777708 369.40079,185.469331 C366.763708,185.02281 364.170474,184.357929 361.6533,183.445278 C360.558916,182.919434 359.503905,182.33031 358.49095,181.662756 C357.980894,181.198409 357.503052,180.708215 357.043106,180.193067 C356.533944,179.431039 356.084737,178.644946 355.675797,177.824095 C354.958138,175.830345 354.446292,173.79827 354.021245,171.720741 C353.69642,168.360687 353.614095,164.993503 353.936236,161.629885 C354.225268,160.02918 354.634208,158.477495 355.185427,156.948982 C355.680271,155.938292 356.233279,154.966818 356.856085,154.02832 C357.835931,152.912462 358.908839,151.87236 359.999644,150.870583 C362.3119,148.751164 363.01703,145.320701 362.177674,142.370628 C363.537825,141.082756 364.957929,139.854598 366.386087,138.644266 C368.282245,137.272615 370.209721,136.005242 372.329588,134.975836 C373.887497,134.411668 375.474936,133.99634 377.107116,133.704898 C379.210876,133.516842 381.299423,133.530211 383.401392,133.726288 M371.656671,117.20855 C365.791022,118.597134 360.75757,121.971448 356.262809,125.83239 C354.416763,127.416161 352.749683,129.163924 351.089763,130.93575 C349.023587,133.139838 347.15338,135.594371 345.521199,138.121987 C344.755219,139.30469 344.067985,140.552455 343.480973,141.843892 C343.47113,141.853696 343.461287,141.862609 343.451443,141.871522 C342.665778,142.588095 341.822842,143.855468 341.270728,144.576498 C339.945476,146.302871 339.127596,148.304643 338.316875,150.30998 C336.943302,153.715488 336.418928,157.304595 336.118263,160.953418 C336.027885,162.053233 335.982248,163.194939 336.006409,164.299211 C336.076206,167.355345 336.251594,170.346416 336.705276,173.378486 C337.073053,175.833018 337.614429,178.165448 338.303453,180.550462 C338.868989,182.504106 339.725347,184.390906 340.557544,186.235816 C341.151715,187.554882 341.931117,188.759867 342.812531,189.905137 C343.969553,191.41315 345.088098,192.843624 346.507308,194.107432 C348.125171,195.555731 349.971218,196.781215 351.869165,197.832903 C355.126367,199.635923 358.772824,200.802584 362.387066,201.662651 C366.175801,202.563715 370.122027,203.016476 374.019933,202.999542 C379.574179,202.978152 385.068471,201.90953 390.466121,200.687611 C393.325122,200.036099 396.06153,198.950544 398.739774,197.780318 C401.696312,196.485316 404.415718,194.832027 406.984792,192.885513 C408.621447,191.645769 410.218729,190.396222 411.718474,188.993377 C413.213745,187.590532 414.462041,186.002305 415.706758,184.376645 C417.933109,181.463113 419.432854,178.196642 420.687414,174.760831 C421.22879,173.274208 421.596567,171.738566 421.917814,170.193119 C422.302593,168.344644 422.581782,166.408826 422.721376,164.53183 C422.843969,162.90617 422.977299,161.291205 422.99788,159.658415 C423.032779,156.771621 422.630998,153.916913 422.214899,151.069334 C421.875756,148.771663 421.400598,146.536381 420.701732,144.315359 C419.708464,141.161187 418.230195,138.097032 416.405624,135.336797 C415.126009,133.404543 413.637002,131.541808 412.179314,129.748591 C407.464424,123.955395 400.839954,120.22012 393.807439,117.925124 C390.378428,116.808374 386.690809,116.344918 383.115045,116.076648 C382.417967,116.024955 381.716416,116 381.013075,116 C377.868622,116 374.681216,116.491085 371.656671,117.20855" id="Fill-196" fill="#2C2C2C"></path>
                <path d="M183.208695,59.3430272 C183.093901,62.9645159 182.944402,66.6069582 183.020931,70.2328121 C183.037839,71.0849271 183.145514,71.9204538 183.278106,72.7664573 C183.493456,74.1136022 184.181331,75.1333463 185.06142,76.1530905 C185.805358,77.0156823 186.263645,77.5857961 187.359084,77.8040632 C188.40113,78.0118535 189.360418,78.0493955 190.399795,77.9402619 C192.499906,77.7150102 194.545734,77.2112496 196.625377,76.8646414 C200.518591,76.4866027 204.467867,76.9091679 208.3682,77.0366359 C212.834495,77.1798192 217.294561,77.4216592 221.760855,77.5273005 C226.359742,77.6329418 231.004012,78.1000335 235.599339,77.7455676 C240.500784,77.3736404 245.373753,76.821861 250.289436,76.6166899 C251.682984,76.5590674 253.09077,76.5896248 254.485208,76.6507396 C256.522138,76.7432848 258.4683,76.9781403 260.481202,76.4219956 C263.119689,75.689491 265,73.2946638 265,70.5942625 C264.99644,69.506419 264.718799,68.4866749 264.159066,67.5455069 C263.311013,66.1197859 262.034928,65.3008475 260.481202,64.7691487 C257.940602,63.9030646 255.100114,63.8655227 252.430481,63.8000425 C249.941494,63.74242 247.442718,63.9877523 244.967079,64.1859389 C240.410017,64.5508816 235.88766,65.3864082 231.299452,65.3628354 C226.543947,65.3383895 221.782213,65.3218012 217.026708,65.2598133 C214.31881,65.2292559 211.614473,65.2292559 208.910135,65.2327482 C207.269201,65.2362404 205.628267,65.2362404 203.988223,65.2292559 C202.722818,65.2257636 201.457412,65.2161598 200.195566,65.2327482 C198.505688,65.256321 196.840728,65.4745882 195.179327,65.7478586 C194.655189,65.8342924 194.13639,65.9416799 193.622931,66.0656556 C193.722597,65.1629027 193.802686,64.2584036 193.865868,63.3573968 C194.077658,60.382852 194.272542,57.3925919 194.28589,54.4084434 C194.314366,47.7102609 194.251184,37.519804 194.094566,30.8216216 C194.018926,27.6497633 191.45341,25 188.160863,25 C184.984891,25 183.041398,27.6497633 183.117928,30.8216216 C183.316371,39.1602999 183.469429,51.0043489 183.208695,59.3430272 Z" id="Fill-198" fill="#2C2C2C"></path>
                <path d="M253.044569,44.3057265 C250.986384,44.8961265 249.199522,46.3332243 248.123014,48.2499648 C247.011384,50.2344412 246.705817,52.6509622 247.292365,54.8642758 C247.817448,56.8524135 249.230254,59.0840341 251.075947,59.9957216 C251.567663,60.2373737 252.048843,60.4634649 252.512461,60.7270853 C252.555487,60.7737681 252.59939,60.8204509 252.642415,60.8680491 C252.968177,61.3980361 253.265841,61.9408379 253.540676,62.5028622 C254.156199,64.3427134 254.621574,66.2622 254.988605,68.1871787 C254.65494,68.7766633 254.396789,69.4119155 254.214151,70.092935 C253.641653,72.2595658 254.066637,74.1872905 254.971922,76.1534599 C256.378582,79.1960796 259.520299,81.0624759 262.720846,80.9984015 C266.802092,80.9123587 270.434647,77.7013149 271.50413,73.6325891 C271.854478,72.3025872 272.059945,70.8902039 271.984432,69.5098578 C271.915943,68.2045703 271.68589,66.8965367 271.456715,65.6086409 C271.325883,64.869039 271.15466,64.1358445 270.989584,63.4026501 C270.540893,61.4291579 270.046542,59.4657346 269.387993,57.5572322 C268.355389,54.5530572 266.915362,51.8363017 264.908984,49.4261881 C263.948381,48.2710178 262.940362,47.413336 261.735657,46.4979871 C260.99896,45.9359629 260.213092,45.5753154 259.390345,45.1707312 C258.73443,44.881481 258.079394,44.5949768 257.420845,44.3057265 C256.692051,44.1016037 255.962379,44 255.232707,44 C254.503035,44 253.773363,44.1016037 253.044569,44.3057265" id="Fill-200" fill="#2C2C2C"></path>
                <path d="M157.548835,71.9473212 C157.529267,72.0036108 157.506142,72.0590209 157.478569,72.1135515 C157.502584,72.0581414 157.525709,72.0027313 157.548835,71.9473212 M160.17534,26.2542233 C160.015241,26.5778886 159.897835,26.8540596 159.807113,27.1196762 C159.774204,27.1953154 159.742184,27.2718341 159.709275,27.3474733 C159.635452,27.6201261 159.586533,27.8927789 159.562518,28.1663113 C159.532277,28.3686021 159.506484,28.5858449 159.479801,28.8312324 C159.457565,29.0440775 159.438886,29.2551636 159.424655,29.4671292 C159.176503,30.3721607 158.83318,31.2508065 158.507647,32.1364885 C158.110958,33.2112684 158.39291,34.5965207 158.958591,35.5552033 C159.03864,35.6888911 159.124916,35.8181813 159.218306,35.9421944 C159.206744,36.6405375 159.19696,37.338001 159.184508,38.0354646 C159.125805,41.6080963 159.125805,50.4587593 158.945249,54.0278729 C158.785151,57.2267064 158.496974,60.4220218 158.319976,63.6208553 C158.216801,65.472256 158.048698,67.3218977 157.85658,69.1680213 C154.582565,69.2216723 151.31033,68.8320426 148.046099,68.5092569 C143.508196,68.0598194 71.7040198,68.2480378 67.4196061,68.0800485 C65.3320995,68.0008912 63.2437036,67.8874325 61.156197,67.7607808 C60.1795962,67.6983345 59.2065531,67.6473221 58.2299523,67.5989482 C57.2746979,67.5540924 56.3158858,67.4687784 55.3606314,67.5268271 C53.9081822,67.6165387 52.6229471,68.0422289 51.5698547,69.0800688 C50.5692391,70.0695347 50,71.4301603 50,72.827726 C50,75.6897013 52.4388338,78.163806 55.3606314,78.1295045 C57.4036661,78.1022392 59.4289121,78.0301181 61.4755046,78.0811306 C63.6368343,78.1330226 65.7972746,78.1708422 67.9621621,78.2218546 C72.5480947,78.3282772 130.258267,77.0441703 140.338246,78.2983733 C145.110071,78.9536197 149.876559,79.5868779 154.682182,79.9334109 C157.104117,80.1084364 159.525162,79.9228566 161.922192,79.5587331 C163.024203,79.3898642 164.031934,79.0503675 165.014761,78.5103389 C166.474326,77.7099709 167.433138,76.2156575 167.881414,74.6764882 C168.096657,73.937687 168.103773,73.0449688 168.138461,72.2577936 C168.158918,71.6904998 168.204279,71.1240855 168.242525,70.5603098 C168.39195,68.4925459 168.561833,66.4309386 168.603636,64.3596565 C168.648997,62.0913608 168.721931,59.8274627 168.825995,57.5635646 C169.051912,52.8361162 169.010108,42.8420703 168.962079,38.1111038 C168.94429,36.3142336 168.926501,34.5138453 168.906044,32.7169752 C168.898929,31.9781739 168.891813,31.2393727 168.88203,30.4979328 C168.874914,30.0476159 168.874914,29.5902627 168.853568,29.1408253 L168.833111,28.6667612 C168.787749,27.6667409 168.617867,27.1407848 168.151803,26.2542233 C167.396671,24.8118018 165.739652,24 164.126215,24 C163.722411,24 163.321275,24.0510125 162.937039,24.155676 C161.78344,24.4714256 160.779267,25.233974 160.17534,26.2542233 Z" id="Fill-202" fill="#2C2C2C"></path>
                <path d="M11.1587661,51.398357 C9.4897034,52.2915999 7.96573738,53.6350371 6.65986703,54.995446 C4.69520355,57.0472248 3.57228122,59.1999401 2.51965419,61.7787322 C1.25614126,64.8881105 0.847887792,68.3976616 0.580224924,71.7089129 C0.375647581,74.2492955 0.220637436,76.7861052 0.153947024,79.3327406 C0.0304796408,84.0749668 -0.0326058835,88.8234458 0.0169613142,93.5656721 C0.0656272901,98.1194241 0.323376718,102.662457 0.414400117,107.216209 C0.460362428,109.292106 0.49190519,111.368002 0.506324739,113.443898 C0.519843065,115.33936 0.43602944,117.272337 0.661334884,119.156186 C0.826258469,120.548752 0.995688163,121.936851 1.25253637,123.311552 C1.4814467,124.539761 2.25199132,126.113655 2.72783642,127.122126 C2.92790765,127.554456 3.11446056,127.927831 3.339766,128.336043 C4.93853343,131.1971 7.38535056,133.406089 10.1448916,135.130048 C11.9329156,136.246602 14.0733174,136.98978 16.1434238,137.471238 C17.245618,137.722239 18.9038661,137.963414 19.8050879,137.991105 C21.0055153,138.033087 22.9170066,137.931258 23.8849188,137.582893 C25.1349134,137.136272 26.3704885,136.651241 27.5393731,136.019718 C31.2388885,134.020641 32.9782466,129.397216 31.8796572,125.443723 C31.2316788,123.102533 29.651837,121.071299 27.5393731,119.846663 C26.7859517,119.529562 26.0325303,119.21514 25.2791089,118.901612 C24.080484,118.580938 22.8800566,118.49072 21.6796291,118.629173 C21.2407341,118.538956 20.805444,118.434446 20.3719564,118.314752 C20.358438,118.265623 20.3467221,118.216495 20.334105,118.167367 C20.0970837,114.856115 20.2466865,111.493056 20.1781937,108.182698 C20.0898739,104.21134 19.8925064,100.244449 19.7735451,96.2766641 C19.6536826,92.2258078 19.720373,88.1535137 19.7735451,84.0990844 C19.8276184,79.7847214 19.8735807,75.4551734 20.3151794,71.1586753 C20.4873127,70.1904 20.7009023,69.2364167 20.9910957,68.2967252 C21.0055153,68.2708212 21.020836,68.2449171 21.0361568,68.2199063 C21.0604898,68.1948955 21.0848228,68.1698847 21.110057,68.1457672 C23.1188803,68.0519767 25.1529379,68.1877496 27.1410331,68.3628252 C30.2953093,68.6424102 33.4180428,69.0399032 36.5867385,69.1792491 C41.7155917,69.4025598 46,64.7621633 46,59.8493276 C46,57.3821909 45.0005451,54.991873 43.2440638,53.2509427 C41.4199909,51.4439124 39.1245791,50.6310614 36.5867385,50.5158331 C34.5671005,50.4265088 32.581709,50.254113 30.5800954,49.996859 C28.3504727,49.7029821 26.1190476,49.4251836 23.8777091,49.2036594 C22.8602297,49.1027229 21.8256271,49.0116122 20.8009379,49.0008932 C20.7324451,49.0008932 20.6621498,49 20.5936569,49 C17.2483217,49 14.0976503,49.8262496 11.1587661,51.398357" id="Fill-204" fill="#2C2C2C"></path>
                <path d="M225.997896,27.1096503 C226.145885,27.1451042 226.291525,27.1841034 226.438339,27.2254662 C226.643879,27.3401003 226.845895,27.4594616 227.045562,27.5847319 C227.732652,28.2146285 228.361017,28.8929788 228.96824,29.6091465 C230.409368,31.6028344 231.75536,33.6957931 232.835912,35.9022041 C233.171823,36.8594579 233.439612,37.81553 233.635756,38.8046922 C233.67334,39.5539502 233.67334,40.2902084 233.631058,41.0359209 C233.472498,41.7887243 233.272831,42.5155281 233.023834,43.2376048 C232.619802,44.0199529 232.181708,44.7621201 231.693111,45.488924 C230.636049,46.7132634 229.492073,47.8288778 228.254136,48.870039 C226.606294,50.068379 224.898552,51.1296308 223.072184,52.0348857 C222.224185,52.3386069 221.372663,52.5773295 220.491778,52.7640531 C219.590927,52.8160521 218.704169,52.8018705 217.804492,52.73569 C216.432661,52.4662408 215.10781,52.0939754 213.797053,51.6082577 C212.958451,51.1922659 212.158607,50.7360931 211.376381,50.2231942 C211.033423,49.9194729 210.705734,49.6062972 210.388616,49.2718493 C210.094987,48.8215855 209.828373,48.3618673 209.580551,47.8820585 C209.386756,47.2817068 209.23172,46.6837186 209.106047,46.070367 C209.08608,45.4333796 209.099,44.8141191 209.144806,44.1794953 C209.292795,43.3250576 209.478368,42.487165 209.737935,41.6539996 C210.437945,40.2677543 211.304736,38.9760525 212.233776,37.7292589 C212.388812,37.5283538 212.543847,37.3262669 212.698883,37.1253618 C214.634481,36.8901846 216.449104,35.7710248 217.539052,33.9912418 C218.261378,32.8153559 218.986052,31.6418336 219.768278,30.5084924 C220.267446,29.9636849 220.795977,29.4696947 221.35622,28.989886 C222.130224,28.4403514 222.923021,27.9463611 223.762798,27.5008244 C224.217334,27.3495547 224.675394,27.2242844 225.1452,27.1191047 C225.430606,27.1084686 225.713664,27.1037414 225.997896,27.1096503 M224.388813,14.0945436 C223.223696,14.2292682 222.126701,14.4041738 220.997993,14.6948954 C219.915092,14.9714354 218.901487,15.5126974 217.873788,15.9511433 C216.285846,16.6247664 214.882303,17.7699256 213.53866,18.821723 C212.359449,19.7458866 211.253057,20.6830499 210.294655,21.8412089 C208.925172,23.4933581 207.789418,25.3275037 206.666583,27.1592857 C205.236026,27.3011011 203.595231,27.9227252 202.715521,29.0288852 C201.288487,30.8252134 199.921354,32.6439957 198.728048,34.6057751 C197.883573,35.9955659 197.324505,37.6335335 196.874667,39.1852302 C196.369626,40.9212868 196.232208,42.8180676 196.048984,44.6002142 C195.856364,46.4650865 196.268618,48.4918647 196.645636,50.2964654 C197.012085,52.0644305 197.88005,53.8052144 198.742143,55.3746379 C199.040469,55.8780825 199.379903,56.3626184 199.746351,56.819973 C200.421696,57.7145917 201.045363,58.5004853 201.834636,59.2757428 C203.137171,60.5544448 204.711019,61.6026968 206.280168,62.5162243 C207.780022,63.3883889 209.445481,64.0029222 211.060437,64.6068194 C212.937309,65.3088055 214.956298,65.6326173 216.933003,65.8583401 C220.213419,66.2282419 223.512626,65.8725216 226.646228,64.8053609 C229.917247,63.6932919 232.918128,61.8697825 235.670013,59.7969143 C238.868212,57.3966889 241.551975,54.677379 243.749489,51.3080818 C244.75957,49.751658 245.460755,47.9009673 246.062106,46.1601834 C246.63057,44.5080342 246.764464,42.6703432 246.94299,40.9437409 C247.121516,39.2124115 246.851378,37.2778133 246.538958,35.5843013 C246.278216,34.162602 245.878881,32.8460826 245.346827,31.5035636 C244.488258,29.3243339 243.395961,27.3720088 242.143929,25.4185019 C240.7075,23.1801824 239.10194,21.0056799 237.284968,19.0710817 C235.128562,16.7772179 232.247481,15.0364341 229.183176,14.3439023 C228.150779,14.1122705 227.108986,14.0011818 226.064843,14 C225.505775,14 224.946707,14.0330903 224.388813,14.0945436" id="Fill-25" fill="#2C2C2C"></path>
            </g>
        </g>
    </g>
</svg>