<?xml version="1.0" encoding="UTF-8"?>
<svg width="393px" height="414px" viewBox="0 0 393 414" version="1.1" xmlns="http://www.w3.org/2000/svg" xmlns:xlink="http://www.w3.org/1999/xlink">
    <!-- Generator: Sketch 51.1 (57501) - http://www.bohemiancoding.com/sketch -->
    <title>cat0003</title>
    <desc>Created with Sketch.</desc>
    <defs></defs>
    <g id="animals" stroke="none" stroke-width="1" fill="none" fill-rule="evenodd">
        <g id="cat0003_DL" transform="translate(-204.000000, -262.000000)">
            <g id="cat0003" transform="translate(204.000000, 262.000000)">
                <ellipse id="Oval-2" fill="#FFFFFF" cx="286.5" cy="105.5" rx="83.5" ry="80.5"></ellipse>
                <polygon id="Path-12" fill="#FFFFFF" points="59 379 234.706705 155 307 155 296.830591 369.464612"></polygon>
                <g id="Group-11" transform="translate(266.000000, 68.000000)" fill="#2C2C2C">
                    <path d="M41.4808163,0.909517647 C40.4044898,1.58522353 39.5240816,2.4104 38.9032653,3.53945882 C38.0889796,5.01563529 37.9934694,6.06316471 37.797551,7.7234 C37.744898,8.21010588 37.8073469,8.7314 37.855102,9.2144 C37.98,10.4249882 38.1612245,11.6269294 38.3387755,12.8239294 C38.8738776,16.4322235 39.4910204,20.0281647 40.0077551,23.6414 C40.2416327,25.2732235 41.7440816,26.8889882 43.0873469,27.6808118 C44.637551,28.5974 46.5220408,28.8432235 48.2534694,28.3664 C49.9273469,27.8982235 51.3820408,26.7691647 52.257551,25.2584 C52.4816327,24.7173412 52.7118367,24.1824588 52.9359184,23.6414 C53.2518367,22.4456353 53.2518367,21.2436941 52.9359184,20.0466941 C52.7693878,18.8595765 52.6065306,17.6699882 52.4436735,16.4804 C52.1791837,14.3779294 51.9318367,12.2754588 51.7457143,10.1643412 C51.4873469,7.18728235 51.3869388,4.12375294 49.0861224,1.89898824 C47.8677551,0.719282353 46.2,0.0398705882 44.5346939,0.0398705882 C43.4767347,0.0398705882 42.4212245,0.315341176 41.4808163,0.909517647" id="Fill-1"></path>
                    <path d="M21.5397551,4.41392353 C19.7654694,6.28168824 19.392,8.90174706 19.3724082,11.3871588 C19.3687347,12.1826882 19.392,12.9646294 19.2866939,13.7552176 C19.1911837,14.5038059 19.2156735,15.2276882 19.2242449,15.9849235 C19.276898,19.5512176 19.2866939,23.1224529 19.2536327,26.6875118 C19.2291429,29.9017471 21.9315918,32.5798647 25.0932245,32.5798647 C28.3026122,32.5798647 30.8960816,29.9017471 30.9340408,26.6875118 C30.972,23.2855118 31.029551,19.8835118 31.1054694,16.4864529 C31.1201633,15.7922176 31.1348571,15.1016882 31.154449,14.4074529 C31.1581224,14.0553941 31.0577143,13.6588647 31.0148571,13.3068059 C30.9622041,12.8868059 30.9964898,12.4581588 31.0013878,12.0332176 C31.0148571,10.3099824 31.0822041,8.54474706 30.6952653,6.85115882 C30.1087347,4.30398235 27.7197551,2.83398235 25.3405714,2.83398235 C23.9507755,2.83398235 22.5634286,3.33427647 21.5397551,4.41392353" id="Fill-3"></path>
                    <path d="M26.2272245,59.0413471 C26.170898,60.2000529 26.108449,61.3550529 26.0202857,62.5100529 C25.9272245,62.9671118 25.8145714,63.4142882 25.681102,63.8676412 C25.4962041,64.2308176 25.2990612,64.5828765 25.0823265,64.9312294 C24.4333469,65.6637588 23.7427347,66.3320529 23.0019184,66.9669941 C22.1949796,67.5204059 21.3721224,68.0417 20.5174286,68.5111118 C20.0839592,68.4061118 19.6602857,68.2850529 19.2353878,68.1491706 C19.0651837,68.0565235 18.8974286,67.9601706 18.728449,67.8588765 C18.1223265,67.2881706 17.5664082,66.6828765 17.0300816,66.0442294 C16.4251837,65.1844647 15.8606939,64.3160529 15.3353878,63.3932882 C14.7904898,62.4334647 14.3937551,61.3945824 13.8317143,60.4434059 C13.4986531,59.7615235 13.0602857,59.1426412 12.5141633,58.5879941 C11.2125306,57.2798176 9.43334694,56.5324647 7.59661224,56.5324647 C6.34395918,56.5374059 5.17702041,56.8548765 4.09089796,57.4922882 C2.4304898,58.4718765 1.54640816,59.9097588 0.899877551,61.6811706 C-0.00379591837,64.1517588 1.08722449,66.5445235 2.0337551,68.7692882 C2.48314286,69.8304059 2.97661224,70.9026412 3.59865306,71.8723471 C4.56967347,73.3769353 5.66436735,74.7913471 6.79334694,76.1810529 C7.97987755,77.6387 9.43334694,78.7381118 10.9162041,79.8770529 C12.2178367,80.8764059 13.9296735,81.4211706 15.4749796,81.8942882 C18.4113061,82.7923471 21.8643673,82.9072294 24.7443673,81.7781706 C26.466,81.1074059 27.8827347,80.2105824 29.3790612,79.1395824 C30.8998776,78.0438765 32.3447755,76.8369941 33.6500816,75.4868176 C36.2043673,72.8568765 37.9847755,69.5129353 38.7157959,65.9120529 C39.1700816,63.6737 39.1749796,61.3192294 39.2802857,59.0413471 C39.4480408,55.4515824 36.186,52.4597 32.7562041,52.4597 C29.0631429,52.4597 26.408449,55.4565235 26.2272245,59.0413471" id="Fill-5"></path>
                    <path d="M32.5315102,52.8864941 C29.2119184,53.8080235 27.3604898,57.2878471 28.1882449,60.6021412 C28.6719184,62.5366118 29.1886531,64.4192 29.8817143,66.2919059 C30.7045714,68.5104941 31.6033469,70.7451412 32.8278367,72.7722588 C33.1106939,73.2441412 33.4168163,73.6789647 33.7462041,74.1174941 C34.1772245,74.7796118 34.6694694,75.3824353 35.2290612,75.9321412 C35.8364082,76.4583765 36.4829388,76.9364353 37.1662041,77.3650824 C38.6919184,78.3743176 40.711102,78.4941412 42.456,78.5670235 C43.838449,78.6250824 45.393551,78.2248471 46.7417143,77.8814353 C48.8662041,77.3514941 50.856,76.2310824 52.6449796,74.9871412 C53.8976327,74.1137882 55.056,73.1342 56.0931429,72.0088471 C57.5429388,70.4363176 58.3131429,68.6080824 59.078449,66.6340824 C59.3796735,65.5099647 59.3796735,64.3809059 59.078449,63.2518471 C58.6425306,61.6632588 57.5906939,60.2834353 56.1788571,59.4533176 C55.1992653,58.8801412 54.1376327,58.5898471 52.9988571,58.5849059 C51.4964082,58.5849059 49.5164082,59.2025529 48.5404898,60.4477294 C47.6013061,61.6509059 46.5874286,62.7453765 45.460898,63.7595529 C44.8119184,64.2166118 44.1457959,64.6403176 43.4490612,65.0207882 C43.3768163,65.0442588 43.3070204,65.0664941 43.2347755,65.0899647 C42.5502857,63.8818471 41.9441633,62.6304941 41.3747755,61.3606118 C40.8947755,60.0190824 40.533551,58.6577882 40.1845714,57.2680824 C39.4902857,54.4960824 36.8539592,52.6690824 34.1306939,52.6690824 C33.5955918,52.6690824 33.0592653,52.7394941 32.5315102,52.8864941" id="Fill-7"></path>
                    <path d="M30.1279592,45.2129706 C27.7316327,45.7009118 25.2446939,46.7472059 24.0434694,49.0349706 C22.4320408,52.0985 23.7765306,55.3028529 25.9855102,57.6042059 C26.7704082,58.4157941 27.6838776,59.1001471 28.592449,59.7610294 C28.9181633,59.9982059 29.2377551,60.2292059 29.5781633,60.4416765 C30.8981633,61.2668529 32.2181633,61.7733235 33.7818367,61.8412647 C36.3226531,61.9475 38.0589796,60.0031471 39.5173469,58.2119706 C40.2544898,57.3102059 41.01,56.4220294 41.7606122,55.5301471 C42.6312245,54.4925 43.2006122,53.4165588 43.2006122,52.0169706 C43.2006122,51.1683235 42.9814286,50.3345 42.5797959,49.6019706 C42.4438776,49.1115588 42.2467347,48.6372059 41.9908163,48.1949706 L41.0577551,46.9794412 C40.3157143,46.2308529 39.4402041,45.7145 38.4312245,45.4303824 C37.1687755,44.8992059 35.7336735,44.7546765 34.3659184,44.7546765 L34.3095918,44.7546765 C32.9087755,44.7546765 31.4969388,44.9313235 30.1279592,45.2129706" id="Fill-9"></path>
                </g>
                <g id="Group-24" transform="translate(225.000000, 95.000000)" fill="#2C2C2C">
                    <path d="M20.3829098,5.00920105 C19.5038115,5.10033789 18.7697951,5.30231684 18.1255328,5.94766421 C17.5304508,6.54374842 17.1886475,7.36151684 17.1886475,8.20884316 C17.1886475,9.89733789 18.6443852,11.4749905 20.3829098,11.4023274 C22.7177459,11.3099589 25.0587295,11.3555274 27.3788115,11.6264747 C29.3128279,11.9208221 31.2419262,12.3100011 33.1538115,12.7312011 C36.9665164,13.5674432 40.6415164,14.7657695 44.3005328,16.1266642 C45.9284016,16.7289063 47.5476639,17.3730221 49.1988934,17.9260011 C51.5718443,18.7154432 53.9447951,19.50858 56.3312705,20.2783168 C58.137418,20.8559274 60.1255328,19.6144958 60.6111885,17.8397905 C61.134959,15.9493168 59.9816803,14.1352011 58.1804508,13.5526642 C55.6206148,12.7262747 53.0804508,11.8555484 50.5341393,10.9885168 C48.2534016,10.2150853 46.0243033,9.26184316 43.7583197,8.44900105 C41.0829098,7.48713789 38.3890574,6.71247474 35.6177459,6.10161158 C34.205041,5.79371684 32.7788115,5.57695895 31.352582,5.34172737 C29.3976639,5.01412737 27.4378279,4.77889579 25.4546311,4.73948526 C25.2947951,4.73702211 25.1361885,4.73579053 24.9763525,4.73579053 C23.4456148,4.73579053 21.900123,4.85648526 20.3829098,5.00920105" id="Fill-12"></path>
                    <path d="M24.7630328,19.1638611 C20.8728689,19.1921874 16.9827049,19.55304 13.1109836,19.9286716 C10.2917213,20.1983874 7.47737705,20.4681032 4.66795082,20.8240295 C3.96221311,20.9151663 3.26139344,21.0161558 2.55565574,21.1269979 C1.94459016,21.2230611 1.3495082,21.77604 1.04704918,22.2859137 C0.711393443,22.8684505 0.614262295,23.5803032 0.797459016,24.2342716 C0.969590164,24.86484 1.38762295,25.4128926 1.95442623,25.7404926 C2.58885246,26.1161242 3.19377049,26.1013453 3.89459016,25.9954295 C4.19336066,25.9498611 4.48721311,25.9067558 4.78352459,25.8648821 C7.79704918,25.4991032 10.8142623,25.1985979 13.8363934,24.9362716 C15.8343443,24.7638505 17.827377,24.5470926 19.8302459,24.4263979 C22.2941803,24.2823032 24.7531967,24.18624 27.2220492,24.2490505 C29.7794262,24.3155558 32.3269672,24.5692611 34.8695902,24.8439032 C40.2105738,25.6050189 45.5478689,26.3612084 50.8753279,27.2122295 C51.567541,27.3181453 52.167541,27.3279979 52.7970492,26.9572926 C53.3490984,26.6296926 53.7671311,26.0914926 53.9392623,25.4658505 C54.117541,24.8217347 54.0265574,24.1185032 53.6896721,23.5470505 C53.3921311,23.0371768 52.8019672,22.4928189 52.2007377,22.3967558 C48.0855738,21.7378611 43.9642623,21.1220716 39.8392623,20.5247558 C38.4659016,20.3277032 37.0863934,20.1257242 35.7081148,19.9286716 C34.1859836,19.7069874 32.6392623,19.5727453 31.1072951,19.4385032 C29.1277869,19.2623874 27.1470492,19.1626295 25.1638525,19.1626295 C25.0298361,19.1626295 24.8970492,19.1638611 24.7630328,19.1638611" id="Fill-14"></path>
                    <path d="M42.492418,33.2494295 C42.4088115,33.2617453 42.3227459,33.2740611 42.2379098,33.2851453 C42.3227459,33.2728295 42.407582,33.2605137 42.492418,33.2494295 M49.8018443,28.3378926 C49.0764344,28.3563663 48.3571721,28.3809979 47.6317623,28.3994716 C46.017418,28.4487347 44.3895492,28.6359347 42.780123,28.7997347 C40.839959,29.0017137 38.9047131,29.2849768 36.9793033,29.6076505 C34.7747951,29.9734295 32.5788934,30.3823137 30.4088115,30.9118926 C28.7514344,31.3158505 27.0903689,31.7148821 25.4329918,32.11884 C20.7645492,33.2543558 16.1489754,34.6017032 11.505123,35.8419032 C9.81946721,36.2901979 8.12889344,36.7175558 6.42848361,37.1178189 C5.13627049,37.4158611 4.3875,38.8728189 4.72807377,40.1142505 C5.0932377,41.4332716 6.42848361,42.11064 7.72069672,41.8125979 C12.5280738,40.7115663 17.2629098,39.3112611 21.9989754,37.94544 C28.5903689,36.0475768 35.2432377,34.2938084 42.0411885,33.3134716 C44.0661885,33.0462189 46.1096311,32.8085242 48.1543033,32.6964505 C49.3555328,32.6287137 50.5567623,32.5708295 51.7567623,32.4895453 C52.8903689,32.4846189 53.8370902,31.5461558 53.8370902,30.41064 C53.8370902,29.8576611 53.6157787,29.3280821 53.2260246,28.9389032 C52.8141393,28.5250926 52.3235656,28.3760716 51.7567623,28.32804 C51.5268443,28.3083347 51.2956967,28.3021768 51.0670082,28.3021768 C50.6452869,28.3021768 50.2247951,28.3243453 49.8018443,28.3378926" id="Fill-16"></path>
                    <path d="M130.455123,0.997455789 C124.864549,1.74256105 119.356352,3.01355053 113.842008,4.20571895 C111.325205,4.75500316 108.842828,5.48163474 106.350615,6.13067684 C103.919877,6.76986632 101.56168,7.66029789 99.1838115,8.46328737 C97.4932377,9.03104526 95.8125,9.63821368 94.1317623,10.2540032 C93.560041,10.4609084 93.0940574,10.7540242 92.7768443,11.2971505 C92.4694672,11.8218032 92.3883197,12.4622242 92.5518443,13.0435295 C92.8592213,14.1691926 94.1747951,15.0546979 95.3379098,14.6310347 C98.669877,13.4191611 102.032582,12.3033505 105.394057,11.1776874 C106.114549,10.9362979 106.825205,10.7343189 107.560451,10.5471189 L112.675205,9.23302421 C115.08627,8.61354 117.525615,8.13691895 119.956352,7.62211895 C122.294877,7.12702421 124.634631,6.66518211 126.982992,6.22181368 C128.33668,5.96195053 129.701434,5.73657158 131.069877,5.54814 C131.46332,5.43729789 131.805123,5.24024526 132.092828,4.95205579 C132.525615,4.51854 132.770287,3.92738211 132.770287,3.31651895 C132.770287,2.70072947 132.525615,2.10834 132.092828,1.67605579 C131.743648,1.32628737 131.146107,0.987603158 130.61127,0.987603158 C130.558402,0.987603158 130.506762,0.991297895 130.455123,0.997455789" id="Fill-18"></path>
                    <path d="M142.189549,12.6536116 C140.63668,12.9184011 139.080123,13.1462432 137.518648,13.3716221 C132.202254,14.05638 126.882172,14.6463063 121.552254,15.2226853 C119.304713,15.4677695 117.047336,15.6167905 114.794877,15.7855168 C112.373975,15.9640958 109.953074,16.1894747 107.533402,16.3052432 C102.067008,16.5700326 96.6067623,16.8298958 91.1502049,17.1907484 C89.8776639,17.2769589 88.8116803,18.1907905 88.8116803,19.5282853 C88.8116803,20.7450853 89.8776639,21.9532642 91.1502049,21.8707484 C96.7936475,21.5049695 102.442008,21.2648116 108.090369,21.0197274 C109.108402,20.9766221 110.126434,20.8756326 111.139549,20.8078958 C113.026844,20.6736537 114.914139,20.5431063 116.802664,20.4088642 C117.820697,20.3411274 118.83873,20.2696958 119.851844,20.1970326 C121.057992,20.1157484 122.26291,19.9420958 123.464139,19.8164747 C130.139139,19.1144747 136.843648,18.4506537 143.43873,17.1858221 C144.696516,16.9444326 145.397336,15.4529905 145.076434,14.2940747 C144.917828,13.7066116 144.523156,13.1967379 144.000615,12.8888432 C143.623156,12.6696221 143.250615,12.5895695 142.859631,12.5895695 C142.643238,12.5895695 142.420697,12.6142011 142.189549,12.6536116" id="Fill-20"></path>
                    <path d="M93.019918,27.6707463 C93.019918,29.2533253 94.292459,30.3937674 95.8109016,30.4701253 C98.0584426,30.5785042 100.312131,30.6905779 102.546148,30.9565989 C107.781393,31.7152516 112.928115,32.9369779 118.076066,34.1266832 C121.058852,34.8151358 124.036721,35.5023568 127.004754,36.2437674 C133.396967,37.8312726 139.76582,39.5148411 146.196148,40.9249989 C147.780984,41.2710726 149.403934,40.4730095 149.851475,38.8460937 C150.269508,37.3263253 149.351066,35.5602411 147.776066,35.1858411 C141.369098,33.6599147 134.971967,32.1105884 128.555164,30.6105253 C125.577295,29.91222 122.59082,29.2483989 119.603115,28.5845779 C114.195738,27.3911779 108.792049,26.1559042 103.297377,25.4292726 C100.815,25.1016726 98.3080328,24.9908305 95.8109016,24.8750621 C95.7740164,24.8738305 95.7395902,24.8738305 95.7051639,24.8738305 C94.2285246,24.8738305 93.019918,26.2371884 93.019918,27.6707463" id="Fill-22"></path>
                </g>
                <g id="Group-41" fill="#2C2C2C">
                    <path d="M288.341505,9.49654209 C283.359797,9.67079284 278.411458,10.0946794 273.453231,10.5729421 C270.581118,10.8534734 267.65092,11.2724167 264.807231,11.760566 C262.054995,12.2338854 259.313882,12.7022615 256.58142,13.2620884 C254.114665,13.7638316 251.681278,14.3483749 249.233061,14.941569 C245.502033,15.844954 241.905712,17.4811809 238.545439,19.3052525 C235.286505,21.0724764 232.563929,23.6022018 230.03909,26.2765182 C227.215175,29.2647331 227.07058,33.9769182 230.03909,36.94536 C232.887722,39.7939272 237.874373,39.9236884 240.703231,36.94536 C241.637533,35.9591749 242.559476,34.9964704 243.567929,34.1029719 C245.036118,33.1056645 246.562392,32.273957 248.170231,31.5188704 C251.877778,30.1322794 255.773175,29.3364107 259.666099,28.6567093 C262.393618,28.1784466 265.118665,27.7632107 267.851127,27.3652764 C271.815731,26.9327391 275.769212,26.5694078 279.75359,26.2765182 C283.876382,25.967563 288.037486,25.967563 292.170165,25.8859988 C299.895458,25.7339928 307.572552,26.0750794 315.249646,26.8660048 C321.699542,27.9300466 328.097533,29.2943928 334.210042,31.6548107 C336.676797,32.8300764 338.977948,34.2376764 341.193825,35.8355928 C343.805175,37.973563 346.145873,40.3302734 348.434665,42.8204525 C349.464127,43.9388704 350.416967,45.1227869 351.364863,46.3067033 C352.957873,48.5188227 354.575599,50.7358854 355.927618,53.1024824 C357.654099,56.1314794 359.331146,59.1654197 360.775854,62.3353003 C362.032712,65.663366 362.863203,69.0445719 363.42675,72.5518316 C364.103995,78.6333063 364.060741,84.6913003 363.355071,90.7641242 C362.536939,96.0670316 361.255363,101.256244 359.894693,106.445456 C358.855344,110.398847 357.38592,114.198996 355.875712,117.985551 C354.81659,120.235981 353.764882,122.49259 352.620486,124.703473 C351.162184,127.507551 349.627259,130.254781 348.057731,133.002011 C345.629288,137.255706 342.643476,141.206626 339.662608,145.099461 C334.588212,151.157456 329.454495,157.3069 323.344458,162.3577 C320.53908,164.388154 317.584165,166.057748 314.427807,167.490064 C308.373382,169.90733 302.136052,171.885879 295.91108,173.812524 C290.281788,175.557503 284.517788,177.047903 278.691995,177.978476 C273.340769,178.513587 268.019203,178.061276 262.669212,177.664578 C259.888552,177.454488 257.126429,177.182608 254.366778,176.852644 C250.662939,176.13216 247.030778,175.34247 243.49625,174.0325 C241.717863,173.169897 240.059354,172.176297 238.449042,171.031927 C235.889599,168.911259 233.577325,166.61016 231.398524,164.100208 C228.886042,160.653503 226.479844,157.120291 224.105778,153.575957 C221.582175,149.809175 219.577627,145.837247 217.71891,141.729378 C216.412618,138.220882 215.197778,134.714859 214.267184,131.075366 C213.268618,127.155342 212.597552,123.192064 211.969741,119.200363 C211.381476,115.42493 210.825344,111.644554 210.111024,107.888894 C209.417712,104.219742 208.755297,100.562948 208.19175,96.878966 C207.875373,93.7449242 207.581241,90.6158257 207.533042,87.4595391 C207.477429,83.9436287 207.614608,80.4808585 207.891439,76.9785421 C208.210288,74.9789839 208.588458,73.0029063 209.145825,71.0416585 C209.769929,68.8270675 210.57941,66.6928048 211.432146,64.565957 C213.217948,60.5272943 215.066778,56.5232346 216.93291,52.5228824 C217.956193,50.3268287 218.994307,48.1357182 220.03242,45.9483152 C221.200297,43.4816167 222.392892,40.898751 223.980958,38.6730376 C225.766759,36.1729719 225.462741,32.3011451 223.980958,29.7664764 C223.198665,28.4392048 222.142014,27.3875212 220.81842,26.6003033 C218.916448,25.4893003 216.155561,24.9294734 214.016307,25.7117481 C211.549552,26.6151331 209.454788,27.7496167 207.788863,29.8295033 C206.910175,30.9256764 206.109344,31.9687093 205.423448,33.1699272 C204.612731,34.5898854 203.878637,36.0469182 203.154429,37.5101301 C201.745561,40.3488107 200.403429,43.2258018 199.066241,46.0978496 C197.641307,49.1392048 196.27075,52.2003331 194.923675,55.2701122 C193.38875,58.769957 191.877307,62.3081122 190.795939,65.9822078 C188.759259,72.9188704 188.314354,80.2670615 188.42558,87.4595391 C188.536807,94.6866197 189.618175,101.854381 190.897278,108.9517 C191.501608,112.277294 192.157844,115.589294 192.751052,118.914888 C193.350439,122.275085 193.813882,125.663706 194.358892,129.028847 C194.870533,132.20985 195.749222,135.327826 196.569825,138.437151 C196.980127,139.98687 197.569627,141.501987 198.066439,143.028226 C198.317316,143.79567 198.660882,144.543342 198.959958,145.297193 C199.548222,146.812309 200.117948,148.343491 200.798901,149.820297 C202.116316,152.702232 203.386769,155.652136 205.03292,158.369706 C206.679071,161.097163 208.459929,163.689915 210.290222,166.296261 C212.258929,169.100339 214.218986,171.905653 216.295212,174.633109 C217.49275,176.197659 218.713769,177.785688 220.109042,179.18093 C221.572288,180.637963 223.077552,182.019611 224.66191,183.346882 C226.602193,184.968279 228.643816,186.494518 230.773184,187.865044 C232.83458,189.197259 235.156741,190.066041 237.405986,191.012679 C240.611778,192.364667 244.082042,193.092566 247.500401,193.662279 C251.507024,194.328387 255.514882,194.768339 259.564759,195.004381 C262.905259,195.203348 266.245759,195.338053 269.586259,195.49253 C271.242297,195.569151 272.893392,195.588924 274.549429,195.555557 C277.026071,195.50736 279.487882,195.100775 281.934863,194.768339 C284.411505,194.43096 286.849835,193.826644 289.293108,193.28659 C292.502608,192.577229 295.665146,191.534196 298.80791,190.57767 C301.694854,189.699002 304.54225,188.690572 307.385939,187.677199 C311.262797,186.291844 315.129769,184.871885 318.933712,183.303629 C323.398835,181.463491 327.599486,179.353945 331.489939,176.476954 C335.622618,173.417061 339.238712,169.872727 342.71392,166.103473 C347.353297,161.072447 351.853024,155.776954 355.821335,150.197223 C357.916099,147.257205 359.91941,144.297414 361.874524,141.265945 C363.70358,138.422321 365.244684,135.357485 366.822863,132.36927 C368.473958,129.236464 369.998995,126.025802 371.341127,122.743461 L373.325901,117.891629 C374.07359,116.066321 374.570401,114.097659 375.184618,112.219211 C375.618401,110.906769 375.932307,109.554781 376.289467,108.217623 C376.671344,106.78407 377.081646,105.354226 377.390608,103.902136 L378.649939,97.9788466 C379.581769,93.5756167 380.030382,88.9993719 380.277552,84.5096346 C380.518542,80.1360645 380.257778,75.7390137 379.72142,71.3988107 C379.070127,66.1218555 378.032014,61.0673481 375.960731,56.1586675 C374.286156,52.1706734 372.321156,48.4051272 370.201675,44.6445242 C368.367675,41.3918436 366.088769,38.249151 363.748071,35.3523869 C361.097175,32.0836406 358.384486,28.9360048 355.28992,26.0689003 C352.074241,23.0905719 348.444552,20.4261421 344.620835,18.2869361 C341.560873,16.5740884 338.229024,15.4099451 334.926835,14.2655749 C332.079439,13.2818615 329.11958,12.5181242 326.169608,11.8952704 C319.276042,10.428351 312.199571,9.50148537 305.141637,9.35195104 C303.21742,9.30993313 301.29691,9.29016 299.378873,9.29016 C295.698514,9.29016 292.024335,9.36307343 288.341505,9.49654209" id="Fill-25"></path>
                    <path d="M318.791095,389.979226 C318.990067,390.062026 319.187803,390.146061 319.385539,390.228861 C319.181624,390.163363 318.983888,390.080563 318.791095,389.979226 M305.222708,387.54713 L305.269671,387.608921 C305.254841,387.590384 305.238775,387.573082 305.223944,387.554545 C305.222708,387.552073 305.222708,387.549602 305.222708,387.54713 M302.836284,385.165703 C302.879539,385.19907 302.921558,385.231202 302.963576,385.265805 C302.920322,385.232438 302.878303,385.200306 302.836284,385.165703 M299.972822,180.246826 C296.029227,181.333112 293.538992,185.595459 294.683388,189.563679 C294.955275,190.514026 295.177727,191.456957 295.37052,192.419661 C295.659708,196.324856 295.001001,200.290605 294.611708,204.171082 C294.297803,207.295238 293.954237,210.4231 293.737963,213.555906 C293.278227,220.241697 293.090378,226.937375 292.902529,233.637996 C292.535482,246.913184 292.135067,260.189608 291.854529,273.464796 C291.583878,286.565733 291.555454,299.667906 291.449171,312.768844 C291.396029,319.040635 291.314463,325.306247 291.140208,331.571859 C290.952359,338.234169 290.560595,344.876706 290.27635,351.534073 C290.058841,356.684975 289.793133,361.835876 289.605284,366.986778 C289.426086,372.001739 289.484171,377.012993 289.513831,382.027954 C289.527425,385.007518 289.70168,387.844963 290.14535,390.799811 C290.527227,393.35796 291.786558,396.008796 293.794812,397.688276 C294.41768,398.248103 295.088746,398.746139 295.798124,399.179912 C296.671869,399.736032 297.71369,400.040044 298.680124,400.407082 C299.301756,400.648067 299.954284,400.830969 300.587039,401.04353 C303.038963,401.869059 305.477293,402.742784 307.919331,403.588085 C311.081869,404.674372 314.644822,406.146235 318.01869,406.001644 C321.571756,405.847166 324.71452,403.684479 325.684661,400.164861 C326.249444,398.113399 325.960256,395.874091 324.883831,394.038897 C323.91369,392.377954 322.078454,390.751614 320.133227,390.384575 C320.008407,390.370981 319.884822,390.353679 319.763708,390.327727 C318.285633,389.639375 316.759359,389.058539 315.175001,388.642067 C313.736473,388.265142 312.302888,387.879566 310.869303,387.469273 C309.570425,387.097291 308.281435,386.706772 306.987501,386.329847 C306.369576,386.150653 305.736822,385.994939 305.104067,385.839226 C305.039803,383.891572 305.112718,381.936503 305.085529,379.991321 C305.042275,376.959853 305.01385,373.933327 305.085529,370.905566 C305.158444,367.980378 305.432803,365.05519 305.650312,362.139888 C305.882652,359.10842 306.050727,356.072008 306.191614,353.03436 C306.485746,346.609327 307.012218,340.199124 307.20501,333.769148 C307.402746,327.087064 307.567114,320.406217 307.658567,313.725369 C307.75002,307.217536 307.876076,300.710939 307.885963,294.198163 C307.89585,287.990635 307.871133,281.776927 307.914388,275.569399 C308.015727,261.849315 308.218407,248.130467 308.527369,234.410384 C308.686793,227.280933 308.749822,220.111936 309.343029,213.001023 C309.656935,209.235476 310.000501,205.46993 310.332944,201.704384 C310.522029,199.52316 310.719765,197.335757 310.77785,195.144647 C310.864359,191.914211 310.18835,188.63187 309.291124,185.537375 C308.325925,182.224139 305.272142,179.979888 301.946473,179.979888 C301.29518,179.979888 300.634001,180.066396 299.972822,180.246826" id="Fill-27"></path>
                    <path d="M230.258947,184.151649 C229.833815,184.701589 229.409919,185.247822 228.98973,185.797762 C228.250692,187.06695 227.883645,188.433768 227.878702,189.900688 C227.391777,193.5995 227.019787,197.282246 226.691051,200.999595 C226.576117,202.33181 226.53657,203.673912 226.469834,205.01107 C226.387032,206.604043 226.242438,208.211846 226.237494,209.809762 L226.19424,221.091571 C226.189296,222.013494 226.290636,222.940359 226.343777,223.857339 C226.488372,226.315386 226.632966,228.777141 226.773853,231.233953 C227.559853,244.736533 229.621249,258.142718 231.248862,271.562497 C231.634447,274.748443 231.793872,277.964049 232.044749,281.163589 C232.165862,282.694771 232.079353,284.267971 232.092947,285.802861 C232.107777,287.275959 232.180692,288.757709 232.112721,290.225864 C231.788928,296.920306 231.311891,303.615983 231.094381,310.311661 C230.876872,317.036998 230.750815,323.751213 231.099325,330.471607 C231.451542,337.253792 231.95824,344.022383 232.406853,350.799625 C232.9049,358.272634 232.953098,365.769124 233.459796,373.242133 C233.667419,376.293374 233.946721,379.339673 234.053004,382.399565 C234.106145,383.954228 234.101202,385.518777 234.096258,387.078383 C234.095023,387.725953 234.101202,388.378467 234.101202,389.034688 C233.410362,389.393076 232.710872,389.73787 232.021268,390.095022 C230.654419,390.79944 229.322174,391.553291 228.004758,392.344216 C226.749136,393.098067 225.498457,393.865512 224.253957,394.632956 C223.272692,395.237273 222.318617,395.920682 221.346004,396.558365 C218.876777,397.518598 216.997051,399.62938 216.138136,402.27033 C216.114655,402.356837 216.084994,402.443344 216.05657,402.526144 C215.119796,405.41673 216.17274,408.81153 218.272447,410.911189 C220.493268,413.131959 223.644683,413.864801 226.657683,413.127016 C228.85873,412.585727 230.862042,411.258455 232.730645,409.997918 C234.067834,409.100712 235.400079,408.188676 236.742211,407.290234 C238.016372,406.436282 239.310306,405.60581 240.624013,404.818592 C242.979542,403.404813 245.383268,402.110909 247.372985,400.174377 C248.603891,398.978103 249.356523,397.509947 249.941079,395.936747 C250.404523,394.686097 250.510806,393.407022 250.650457,392.083458 C250.736966,391.244336 250.678881,390.35578 250.693711,389.505536 C250.718428,388.130067 250.761683,386.759541 250.799994,385.384073 C250.88156,382.801207 250.713485,380.261595 250.597315,377.688616 C250.462608,374.622544 250.55406,371.552765 250.592372,368.492873 C250.64057,365.054819 250.645513,361.618001 250.630683,358.186127 C250.597315,351.447195 250.153645,344.726801 249.70874,338.007643 C249.492466,334.695643 249.333042,331.373756 249.153843,328.058049 C248.975881,324.722568 249.042617,321.357428 248.989475,318.017004 C248.936334,314.714891 249.16373,311.393004 249.25024,308.095834 C249.337985,304.958085 249.574032,301.815392 249.733457,298.677643 C250.075787,292.136443 250.351381,285.533452 249.751994,279.000903 C249.371353,274.859667 248.917796,270.756741 248.328296,266.638986 C247.87474,263.40855 247.411296,260.184294 246.914485,256.960037 C246.516542,254.352455 246.119834,251.751052 245.718183,249.144706 C245.484608,247.341643 245.251032,245.53858 245.016221,243.736753 C244.698608,241.318252 244.248758,238.881213 244.070796,236.447882 C243.863174,233.720425 243.660494,230.992968 243.457815,228.265512 C243.278617,225.928574 242.954825,223.553327 242.931343,221.206503 C242.868315,216.002461 242.757089,210.813249 242.9264,205.61415 C243.090768,200.347082 243.476353,195.129446 244.133825,189.900688 C244.384702,187.892479 243.114249,185.513524 241.753579,184.151649 C240.237192,182.635297 238.152315,181.771458 236.003174,181.771458 C233.860211,181.771458 231.775334,182.635297 230.258947,184.151649" id="Fill-29"></path>
                    <path d="M48.2868472,364.695566 C48.1719132,364.843864 48.0569792,364.992163 47.9432811,365.140461 C48.0582151,364.992163 48.1719132,364.843864 48.2868472,364.695566 Z M57.2121491,353.339608 C57.1046302,353.481727 56.9946396,353.620139 56.8846491,353.762259 L57.2121491,353.339608 Z M233.470177,182.746891 C230.053055,184.002485 226.736036,185.431094 223.559904,187.206969 C222.116432,188.009017 220.691498,188.853082 219.257913,189.66996 C216.357375,191.316073 213.397517,192.879387 210.553828,194.621894 C207.595206,196.437315 204.789828,198.387441 202.019055,200.483393 C198.896064,202.848754 195.984404,205.4551 193.064092,208.061447 C188.404942,212.223691 183.539404,216.147423 178.851828,220.275064 C173.681036,224.82165 168.588102,229.470808 163.272715,233.849321 C160.864045,235.83405 158.368866,237.749572 156.051649,239.840581 C153.362442,242.268969 150.751092,244.725781 148.168168,247.2691 C143.538677,251.821864 138.995696,256.471023 134.39463,261.052211 C129.668743,265.76316 125.082508,270.586569 120.627272,275.553333 C116.3018,280.371799 112.183951,285.363279 107.805338,290.137256 C103.15113,295.215244 98.6032057,300.380975 94.1232528,305.613441 C89.9819226,310.450444 85.7577906,315.225656 81.7215075,320.149166 C77.0870736,325.79316 72.8579981,331.70162 68.6783566,337.682993 C65.195734,342.665823 61.6093,347.591805 57.9141113,352.422629 C54.9109981,356.222778 51.9066491,360.015512 48.9443189,363.844085 C49.0456585,363.713088 49.1457623,363.583327 49.2471019,363.451094 C47.7455453,365.391333 46.2205075,367.313035 44.7856868,369.306414 C43.5992717,370.95747 42.5030736,372.676497 41.9481774,374.664933 C41.6095547,375.87233 41.4649604,378.262408 41.9382906,379.463626 C42.2225358,380.197703 42.5265547,380.921894 42.8454038,381.641142 C43.3137906,382.273882 43.7970075,382.896736 44.2987623,383.50476 C45.3603566,384.793721 47.1226774,385.343661 48.5809792,385.956629 C48.9566774,386.082682 49.3434981,386.159303 49.7389698,386.193906 C50.5311491,386.352091 51.3319792,386.453429 52.1389887,386.502861 C54.4240736,386.648688 56.7005075,386.294008 58.9621113,385.945506 C62.5918,385.553751 66.2301396,385.53645 69.8796019,385.444999 C71.9657151,385.396802 74.0456491,385.368378 76.1268189,385.358491 C78.0139604,385.344897 79.9023377,385.552515 81.7795925,385.747775 C88.1578094,386.684527 94.5335547,387.768342 100.978508,388.076061 C105.941677,388.312103 110.913498,388.298509 115.886555,388.288623 C117.730442,388.283679 119.574328,388.278736 121.423158,388.283679 C124.595583,388.293566 127.80014,388.37513 130.967621,388.202115 C134.399574,388.013035 137.822875,387.786879 141.244942,387.506348 C147.824602,386.970002 154.370894,386.22233 160.970328,385.923261 C167.569762,385.6279 174.164253,385.454885 180.773574,385.358491 C187.531196,385.257154 194.271517,384.817202 201.019253,384.532963 C207.233102,384.267261 213.450658,384.252432 219.663272,384.185697 C226.398649,384.112784 233.132791,383.953363 239.866932,383.832253 C245.698904,383.725972 251.525932,383.677775 257.351725,383.350282 C263.328291,383.016611 269.296206,382.852247 275.276479,382.679232 C280.925545,382.509924 286.573375,382.365333 292.216262,382.031661 C294.780649,381.882127 297.338857,381.709112 299.902008,381.607775 C301.727357,381.534861 303.58113,381.30747 305.376819,381.013345 C307.403611,380.675966 309.262328,379.985142 311.107451,379.034796 C314.567828,377.242856 316.132413,372.777835 315.127668,369.148229 C314.104385,365.425936 310.576036,362.673763 306.689291,362.717017 C303.991432,362.75162 301.312111,363.045745 298.613017,363.074169 C295.8373,363.103829 293.066526,363.118659 290.290809,363.190336 C283.932366,363.3547 277.580102,363.577148 271.221658,363.731626 C264.816253,363.886103 258.414555,364.334706 252.00297,364.450873 C245.250291,364.575691 238.491432,364.595464 231.732574,364.735112 C218.490451,365.0107 205.248328,365.034181 192.021036,365.797918 C185.653942,366.163721 179.27696,366.193381 172.903687,366.347859 C166.391998,366.507279 159.879074,366.777924 153.385923,367.274724 C147.877743,367.699847 142.384394,368.326408 136.876215,368.80467 C131.653517,369.258217 126.409809,369.3163 121.167338,369.336073 C115.587479,369.359554 110.001442,369.442354 104.415404,369.427524 C99.2668566,369.412694 94.138083,368.847924 89.0364981,368.210241 C85.9542906,367.796241 82.8708472,367.404485 79.7663943,367.1635 C76.658234,366.922515 73.5191774,367.188217 70.4209038,367.376061 C69.3420075,367.444032 68.2643472,367.514473 67.1866868,367.596038 C69.7584887,364.382903 72.3129887,361.161118 74.7846868,357.871363 C80.8020358,349.859536 86.3015642,341.478199 92.2781302,333.441656 C96.2810453,328.477363 100.410017,323.630473 104.574828,318.802121 C108.664253,314.061512 112.719074,309.297423 116.928375,304.663094 C121.554158,299.58387 126.082309,294.437912 130.542489,289.21039 C134.834592,284.185542 139.367687,279.41033 143.992234,274.694438 C148.69464,269.895745 153.589838,265.289841 158.329319,260.525751 C160.511828,258.338348 162.694338,256.142294 164.986838,254.071059 C167.458536,251.836694 169.978432,249.692545 172.527989,247.554575 C177.625866,243.277399 182.526008,238.812378 187.487942,234.385667 C192.595706,229.823017 197.862894,225.45439 203.037394,220.975775 C205.701885,218.674676 208.340423,216.356276 211.040753,214.09596 C212.678253,212.89845 214.323168,211.740485 216.02864,210.625775 C217.945442,209.375124 219.972234,208.278951 221.971838,207.159297 C223.935602,206.058181 225.925319,204.991667 227.855715,203.832467 C230.611658,202.180175 233.339177,200.461148 236.252074,199.098038 C236.769894,198.892891 237.288951,198.690217 237.810479,198.493721 C239.876819,197.721333 241.546451,196.703017 242.690847,194.743005 C243.796932,192.855906 244.096008,190.557279 243.516394,188.447733 C242.956555,186.406157 241.590942,184.638933 239.760649,183.567476 C238.569291,182.870473 237.010885,182.407041 235.516743,182.407041 C234.803658,182.407041 234.10664,182.512085 233.470177,182.746891 Z" id="Fill-31"></path>
                    <path d="M147.498708,257.754793 C145.968727,257.972298 144.462227,258.517295 142.990331,258.970841 C138.452293,260.356196 135.613548,265.010298 136.902539,269.692823 C138.138388,274.182561 143.076841,277.151002 147.624765,275.780477 C148.666586,275.465343 149.69852,275.157623 150.752699,274.924053 C151.332312,274.90428 151.90451,274.912931 152.480416,274.943826 C153.037784,275.072352 153.581558,275.225593 154.122859,275.403552 C155.579925,276.151223 156.949246,277.024949 158.281492,277.981474 C161.688727,280.776901 164.780822,283.917122 167.82719,287.100596 C170.998378,290.410125 174.282029,293.691229 177.295029,297.152764 C177.662076,297.711355 177.99452,298.282304 178.302246,298.876734 C178.781756,300.290513 179.141388,301.717886 179.412039,303.186041 C179.639435,305.941922 179.554161,308.669379 179.26868,311.420316 C178.544473,315.802537 177.414907,320.017922 176.092548,324.258023 C175.504284,326.146358 174.773897,327.982787 174.044746,329.822925 C173.178416,331.693958 172.317029,333.566226 171.337001,335.380411 C169.994869,337.880477 168.584765,340.327402 167.15118,342.780507 C164.58185,347.163964 161.99151,351.624041 158.99952,355.74674 C156.289303,359.034023 153.173727,361.861581 149.84435,364.53219 C148.531878,365.58511 147.179859,366.59354 145.910642,367.689713 C145.331029,368.186513 144.809501,368.751283 144.274378,369.302459 C144.046982,369.533558 143.810935,369.756005 143.563765,369.963623 C141.706284,371.556596 141.164982,374.003522 140.962303,376.292262 C140.764567,378.536513 142.028841,381.047701 143.568708,382.587534 C144.168095,383.050967 144.77119,383.514399 145.369341,383.977832 C146.759671,384.783587 148.256284,385.188937 149.864124,385.19388 C150.593275,385.27668 151.428708,385.07277 152.161567,385.001092 C153.069916,384.914584 153.981973,384.884925 154.894029,384.841671 C156.119992,384.787295 157.336067,384.858973 158.549671,384.980083 C159.927642,385.253199 161.269775,385.611587 162.595841,386.063898 C162.768859,386.156584 162.941878,386.252979 163.112425,386.354316 C163.949095,387.150184 164.702963,388.007844 165.430878,388.900107 C166.93985,391.033134 168.294341,393.234131 169.584567,395.50557 C171.519907,398.904077 175.710671,400.55019 179.451586,399.521987 C181.634095,398.918907 183.532359,397.460638 184.676756,395.50557 C185.897775,393.414561 186.085624,391.10234 185.554208,388.771581 C185.245246,387.404764 184.92269,386.062662 184.391275,384.763814 C183.783237,383.277122 183.218454,381.944907 182.391671,380.589211 C182.074058,380.067695 181.682293,379.579546 181.330076,379.077802 C180.099171,377.325408 178.675473,375.606381 177.235708,374.018352 C176.159284,372.830728 174.687388,371.706131 173.398397,370.822519 C172.622284,370.288644 171.791793,369.843749 170.93535,369.453229 C173.014048,367.148423 174.824567,364.592746 176.565878,362.032125 C180.258595,356.587098 183.749869,350.924567 186.944539,345.179235 C188.750114,341.930262 190.35301,338.571301 191.719859,335.11471 C192.308124,333.628017 193.013793,332.140089 193.490831,330.610143 C194.085275,328.723044 194.678482,326.831002 195.267982,324.942668 C196.610114,320.660549 197.198378,316.122614 197.773048,311.692196 C198.429284,306.632746 198.053586,301.549814 197.025359,296.566984 C196.522369,294.153426 195.518859,291.92277 194.553661,289.668632 C193.631718,287.510889 192.023878,285.667044 190.550746,283.881283 C189.258048,282.306847 187.751548,280.873295 186.336501,279.406376 C182.570869,275.514776 178.853435,271.460047 174.702218,267.970089 C173.122803,266.641581 171.559454,265.324196 169.918246,264.073546 C168.566227,263.040399 167.190727,262.075223 165.747256,261.178017 C163.724171,259.922423 161.469982,259.010387 159.234331,258.22317 C157.250793,257.518752 155.020086,257.372925 152.933973,257.243164 C152.71152,257.22957 152.487831,257.22339 152.264142,257.22339 C150.66619,257.22339 149.065765,257.529874 147.498708,257.754793" id="Fill-33"></path>
                    <path d="M47.6398802,158.965743 C46.2198896,159.364913 44.9741538,160.058208 43.9039085,161.050573 C43.9002009,161.053044 43.8977292,161.05428 43.8952575,161.056752 C42.5308802,161.425026 41.1010028,161.637587 39.7465123,162.007098 C38.0521632,162.470531 36.4257858,163.068668 34.7932292,163.706352 C32.9110311,164.445373 31.0671443,165.251128 29.2813425,166.18788 C26.967833,167.398984 24.9262104,169.074758 22.8981821,170.691211 C20.8948708,172.299014 19.3117481,174.33194 17.7619934,176.363629 C16.3580689,178.207474 15.2087292,180.153892 14.1854462,182.233779 C11.4480406,187.804859 9.75863491,193.814656 7.98642736,199.742889 C7.11268208,202.654483 6.3551066,205.613038 5.68404057,208.58148 C4.88197453,212.101098 4.20225755,215.591056 3.58804057,219.153928 C2.8836066,223.256853 2.43005,227.389438 1.93323868,231.525731 C1.13611604,238.212758 1.0496066,244.912143 0.976691509,251.63748 C0.943323585,254.886453 1.16577642,258.158907 1.27082358,261.40788 C1.31531415,262.866149 1.45496509,264.319474 1.55136132,265.771564 C1.65764434,267.42262 1.70584245,269.09345 1.87515377,270.73462 C2.28051226,274.692955 2.56475755,278.680949 3.18268208,282.609623 C3.69432358,285.86354 4.09103113,289.16071 4.75221038,292.38991 C7.6094934,306.360865 10.7473142,320.268793 14.0742198,334.133468 C14.8416821,337.342895 15.7969934,340.510304 16.6954557,343.686364 C17.6075123,346.915564 18.7902198,350.068143 19.8913613,353.240495 C20.6205123,355.345098 21.580767,357.386674 22.4792292,359.42825 C23.4728519,361.702161 24.6469085,363.88462 25.9111821,366.017647 C27.205116,368.20505 28.7647575,370.261456 30.3528236,372.246184 C31.8346066,374.094973 33.4226726,375.78434 35.2331915,377.314286 C39.0470217,380.538543 44.4686915,384.295438 49.5418519,381.325761 C50.7245594,380.636173 51.9505217,379.375635 52.6463047,378.192955 C53.4817387,376.769289 53.6646443,375.32585 53.7276726,373.708161 C53.7944085,371.897683 53.1913142,370.000698 52.7427009,368.253247 C51.7663802,364.453098 47.8079557,362.103802 44.0361443,362.74025 C41.8128519,359.602501 39.9949179,356.248483 38.4216821,352.739987 C35.7127009,345.925671 33.9244274,338.84071 32.1237953,331.738447 C31.3513896,328.702035 30.7816632,325.602596 30.120484,322.537761 C29.5322198,319.780644 28.9723802,317.014877 28.4113047,314.254053 C27.2199462,308.330764 25.9494934,302.417361 24.8495877,296.479241 C24.2452575,293.210495 23.6372198,289.938041 23.0341255,286.669295 C22.6139368,284.410214 22.3284557,282.115295 22.0318519,279.82779 C21.6128991,275.341761 21.1840594,270.870561 20.9245311,266.37588 C20.63905,261.595725 20.5092858,256.831635 20.3782858,252.047773 C20.31155,249.518047 20.4561443,246.964841 20.4944557,244.430173 C20.524116,242.508471 20.663767,240.616429 20.8083613,238.699671 C20.9677858,236.585181 21.0641821,234.460805 21.3200028,232.356202 C21.5659368,230.370238 21.8118708,228.381802 22.055333,226.397074 C22.489116,223.897008 22.9228991,221.399414 23.3529745,218.898113 C23.7818142,216.426471 24.462767,213.969659 25.0176632,211.516555 C25.5540217,209.14625 26.2485689,206.777181 26.9295217,204.440244 C28.1542481,200.254519 29.35055,196.073737 30.9250217,192.009122 C31.7196726,190.313576 32.6193708,188.695886 33.6698425,187.148638 C34.5621255,186.125379 35.50755,185.173796 36.5283613,184.277826 C37.9743047,183.271868 39.4832764,182.404322 41.0713425,181.62699 C42.4802104,181.074579 43.8977292,180.566656 45.3560311,180.129176 C46.3360594,179.83505 47.3210311,179.564405 48.3060028,179.293761 C51.5266255,178.401498 54.1960594,176.48474 56.4205877,174.051408 C58.0679745,172.255761 59.0665406,170.141271 59.0665406,167.669629 C59.0665406,165.284495 58.1062858,162.972274 56.4205877,161.28785 C54.7361255,159.598483 52.4238519,158.641958 50.0386632,158.641958 C49.2427764,158.748238 48.4407104,158.854519 47.6398802,158.965743" id="Fill-35"></path>
                    <path d="M185.935121,6.70927164 C185.312253,6.97002985 184.694329,7.23078806 184.076404,7.49154627 C183.333659,8.01800597 182.627989,8.58277612 181.95198,9.18585672 C180.923753,10.0830627 180.026527,11.9516239 179.634763,13.2171045 C178.930329,15.4860716 178.699225,17.8650269 178.456999,20.216794 C178.129499,23.4361075 178.104782,26.7048537 178.003442,29.9340537 C177.902102,33.2843642 178.003442,36.6149015 178.13815,39.9602687 C178.288923,43.697391 178.887074,47.4382209 179.504999,51.122203 C180.01664,54.1672657 180.735904,57.1900836 181.652904,60.1436955 C182.252291,62.0505672 182.845499,63.9574388 183.48814,65.8494806 C184.114716,67.7081552 185.147885,69.2442806 186.871895,70.2576537 C188.576131,71.2524896 190.651121,71.5218985 192.553093,71.0003821 C196.27547,69.9771224 198.974565,65.7444358 197.704112,61.9306925 C196.675885,58.8411403 195.705744,55.7268716 195.00131,52.5458687 C194.712121,51.2470209 194.368555,49.9481731 194.180706,48.6258448 C194.038584,47.6223582 193.893989,46.6176358 193.753102,45.6141493 C193.594914,43.4625851 193.392234,41.3110209 193.355159,39.1545134 C193.311904,36.4851403 193.325499,33.8343045 193.39347,31.1649313 C193.437961,29.5138746 193.502225,27.8640537 193.564017,26.2142328 C194.626848,27.0756 195.681027,27.9480896 196.710489,28.8527104 C198.959734,30.8324955 201.195385,32.8258746 203.419914,34.8340836 C205.751961,36.9386866 208.266914,38.8455582 210.773216,40.7376 C212.954489,42.3837134 215.156772,43.9964597 217.424555,45.5313493 C219.225187,46.747397 221.832829,46.9364776 223.874451,46.3717075 C225.965508,45.7970507 227.784678,44.3968657 228.880876,42.5233612 C230.010442,40.593009 230.319404,38.2375343 229.721253,36.0748478 C229.440716,35.4087403 229.161414,34.7426328 228.880876,34.0715821 C228.133187,32.8159881 227.133385,31.8112657 225.872819,31.0685373 C224.519565,30.0798806 223.184848,29.0677433 221.852602,28.048191 C216.870895,24.1405254 212.106697,19.975809 207.175659,16.0063522 C205.549282,14.6988537 203.849989,13.4914567 202.165527,12.2655224 C199.302065,10.1806925 196.371867,8.22562388 193.041253,6.96014328 C191.739904,6.46828657 190.366876,6.17910448 188.997555,6.17910448 C187.964385,6.17910448 186.932451,6.34346866 185.935121,6.70927164" id="Fill-37"></path>
                    <path d="M377.343943,13.3839403 C377.377311,13.3913552 377.411915,13.3975343 377.445283,13.4061851 C377.409443,13.4012418 377.372368,13.3962985 377.336528,13.3901194 C377.339,13.3888836 377.341471,13.3864119 377.343943,13.3839403 M375.873283,13.3728179 L375.874519,13.3740537 C375.867103,13.3752896 375.859688,13.3752896 375.852273,13.3765254 C375.858453,13.3752896 375.865868,13.3740537 375.873283,13.3728179 M376.072254,13.3406866 C376.074726,13.3431582 376.075962,13.344394 376.078434,13.3456299 C376.075962,13.3456299 376.07349,13.3456299 376.072254,13.3468657 C376.069783,13.344394 376.068547,13.3431582 376.066075,13.3419224 C376.068547,13.3419224 376.069783,13.3419224 376.072254,13.3406866 M374.896962,12.7104179 C375.03167,12.7598507 375.161434,12.8154627 375.291198,12.8747821 C375.158962,12.820406 375.027962,12.764794 374.896962,12.7104179 M374.085009,0.337379104 C373.091386,0.656220896 372.129896,1.06651343 371.189415,1.5200597 C370.522056,1.93035224 369.895481,2.39378507 369.305981,2.90541493 C368.741198,3.34536716 368.239443,3.80385672 367.732745,4.3056 C365.869085,6.14573731 364.266188,8.30842388 362.590377,10.3166328 C359.090453,14.5258388 355.334707,18.5175403 351.603679,22.5203642 C349.20366,25.0933433 349.049179,29.0998746 351.603679,31.6530806 C354.037066,34.0814687 358.32299,34.2161731 360.736603,31.6530806 C363.663094,28.544991 366.660028,25.4937493 369.498773,22.307803 C370.918764,20.7148299 372.327632,19.1169134 373.717962,17.4942806 C374.627547,16.4364179 375.507471,15.3451881 376.450424,14.3157493 C376.56783,14.5221313 376.682764,14.7322209 376.792754,14.9460179 C377.500896,16.939397 377.986585,18.9908597 378.343745,21.0769254 C378.731802,24.8684239 378.652707,28.6290269 378.228811,32.4217612 C377.631896,36.2948239 376.772981,40.0677851 375.361641,43.7295224 C373.657405,47.5309075 371.65533,51.1790507 369.697745,54.8543821 C368.581773,56.9589851 367.447264,59.0586448 366.206471,61.0915701 C364.198217,64.383797 365.463726,68.8438746 368.741198,70.7655761 C370.372519,71.7208657 372.362236,71.9766806 374.186349,71.4749373 C376.035179,70.9682507 377.377311,69.7942209 378.410481,68.2259642 C379.830471,66.0781075 381.099688,63.8375642 382.350368,61.5883701 C383.267368,59.9323701 384.184368,58.2763701 385.101368,56.6154269 C386.91683,53.3330866 388.456698,49.8764955 389.784,46.3717075 C391.102651,42.9151164 391.682264,39.1841731 392.164245,35.534794 C392.652405,31.8458687 392.92182,28.1779522 392.71049,24.4556597 C392.511519,20.9459284 391.928198,17.4127164 390.971651,14.027803 C390.450122,12.1938448 389.69749,10.4562806 388.930028,8.71871642 C388.195934,7.05282985 386.979858,5.62916418 385.835462,4.23886567 C384.913519,3.11797612 383.614641,2.24919403 382.417103,1.4669194 C381.631103,1.1295403 380.843868,0.80081194 380.056632,0.478262687 C379.77733,0.415235821 379.496792,0.357152239 379.222434,0.294125373 C378.357339,0.139647761 377.488537,0.0432537313 376.609849,0 C375.770707,0.111223881 374.93033,0.222447761 374.085009,0.337379104" id="Fill-39"></path>
                </g>
            </g>
        </g>
    </g>
</svg>