<?xml version="1.0" encoding="UTF-8"?>
<svg width="348px" height="230px" viewBox="0 0 348 230" version="1.1" xmlns="http://www.w3.org/2000/svg" xmlns:xlink="http://www.w3.org/1999/xlink">
    <!-- Generator: Sketch 51.1 (57501) - http://www.bohemiancoding.com/sketch -->
    <title>crown</title>
    <desc>Created with Sketch.</desc>
    <defs></defs>
    <g id="ALL" stroke="none" stroke-width="1" fill="none" fill-rule="evenodd">
        <g id="crown_DL" transform="translate(-226.000000, -308.000000)" fill="#000000">
            <g id="crown" transform="translate(226.000000, 308.000000)">
                <path d="M297.316408,126.722587 L297.180778,127.734853 L297.316408,126.722587 Z M224.985745,119.487867 C225.141223,119.610265 225.30001,119.731009 225.457143,119.853407 C225.293394,119.739279 225.136261,119.618535 224.987399,119.491175 C224.987399,119.489521 224.985745,119.489521 224.985745,119.487867 Z M125.691109,115.471886 C125.449621,115.589322 125.199863,115.693526 124.948451,115.786151 C125.194901,115.680293 125.444659,115.57609 125.691109,115.471886 Z M13.341228,98.7099616 C13.4173133,99.2954877 13.4950526,99.8810137 13.5727919,100.464886 C13.4933986,99.8810137 13.4173133,99.2954877 13.341228,98.7099616 Z M170.98337,74.2965019 C172.956626,70.639445 175.359929,67.2205682 177.840972,63.8711607 C181.360745,69.298028 184.190787,75.1466725 186.981133,80.9771227 C188.866726,84.9285967 190.608418,88.9396156 192.336877,92.9572507 C193.936323,97.0608953 195.469607,101.167848 196.925152,105.334345 C198.230181,109.044331 199.270564,112.848597 200.522664,116.576777 C201.240512,118.715436 201.976555,120.840862 202.75891,122.95471 C203.069868,123.799919 203.437062,124.626933 203.779446,125.460564 C204.406323,126.972345 205.013351,128.408042 205.769242,129.848701 C206.654147,131.547388 207.965792,132.994663 209.168271,134.475018 L210.07964,135.230909 C211.009204,136.205132 212.089285,136.936213 213.329806,137.414227 C215.312986,138.325597 217.813877,139.241928 220.068318,139.11953 C221.624759,139.028559 223.163005,138.810227 224.688019,138.505886 C226.471062,138.15027 228.189598,137.149582 229.810545,136.353995 C230.968365,135.785009 232.002133,134.946417 233.016053,134.164061 C234.456711,133.052554 235.813015,131.98736 237.137891,130.758417 C239.309631,128.755388 241.23492,126.43644 243.049389,124.110876 C248.702858,116.874502 254.362944,109.696018 260.598631,102.937658 C266.723498,96.3016962 273.539749,90.3653882 280.43374,84.5498242 C286.972114,79.0402555 293.264038,73.2213834 299.959545,67.905336 C300.885801,67.20899 301.812057,66.5126441 302.736659,65.81299 C302.860711,70.6824498 302.53156,75.5618336 302.233835,80.4279853 C301.929493,85.2792507 301.477944,90.125554 300.993313,94.9652412 C299.98601,105.117668 298.829844,115.238668 297.498351,125.349744 C295.435778,139.190654 293.333508,153.029909 291.571967,166.915478 C290.764801,173.285142 289.893128,179.676308 289.497816,186.085668 C289.291062,189.36726 289.181896,192.648853 289.090925,195.938715 C289.069422,196.78227 289.06446,197.629132 289.062806,198.475995 C288.480588,198.791914 287.916564,199.134298 287.379005,199.478336 C286.088863,200.315274 284.906233,201.228298 283.601204,202.012308 C283.506925,202.037118 283.412645,202.061928 283.318365,202.085085 C282.17874,202.116511 281.052346,202.063582 279.917683,201.957725 C270.211844,200.350009 260.578782,198.423066 250.810091,197.197431 C242.015621,196.099156 233.178147,195.382962 224.312555,195.234099 C219.292579,195.15636 214.330493,195.162976 209.317133,195.325071 C204.846294,195.460701 200.406882,195.938715 195.955891,196.33899 C191.974645,196.701222 188.021517,197.366142 184.053503,197.83754 C179.460266,198.380061 174.880261,198.968895 170.265522,199.349322 C160.95665,200.118445 151.65274,200.583227 142.309133,200.783364 C133.082963,200.983502 123.863408,201.029815 114.637237,201.009966 C96.461119,200.965308 78.2998867,200.880952 60.2544365,203.348763 C54.3280526,204.159236 48.419863,205.077222 42.5215976,206.053099 C42.5695645,204.771227 42.5976829,203.486047 42.6224934,202.205829 C42.6737682,199.324511 42.5381379,196.448156 42.4339341,193.573455 C42.2734934,188.91571 42.0601237,184.269545 41.788863,179.616763 C41.2331095,170.230151 40.741863,160.841886 40.3085076,151.447004 C39.4881095,133.614924 38.2806687,115.853966 35.9931474,98.1442839 C35.3083796,92.8050801 34.4036261,87.5006109 33.5501474,82.1878716 C33.5551095,82.1895256 33.5584175,82.1911796 33.5633796,82.1928336 C43.3783844,86.5892412 52.4970431,92.4345777 61.5908915,98.1244355 C69.1448393,102.854957 76.5383464,107.774037 83.7945692,112.939568 C85.4370194,114.242943 87.0844318,115.544663 88.6574128,116.932393 C91.2211569,119.200066 93.7733227,121.480971 96.3072943,123.793303 C98.3615976,125.654085 100.467176,127.45036 102.581024,129.240018 C104.828849,131.133881 107.232152,132.943388 109.713195,134.499829 C111.689759,135.74035 113.97728,136.522706 116.129171,137.369568 C118.603598,138.337175 121.453489,138.538966 124.056929,138.750682 C126.240247,138.926009 128.650166,138.39672 130.764015,137.814502 C132.618181,137.310023 134.646019,136.224981 136.281854,135.164748 C140.564133,132.400867 143.562887,128.614796 146.606299,124.620317 C150.308015,119.755819 152.982579,114.257829 155.561209,108.753222 C158.234119,103.025322 160.564645,97.1220943 162.976218,91.2701417 C165.475455,85.530663 168.006119,79.8159948 170.98337,74.2965019 Z M174.162413,38.3395777 C172.399218,38.5992602 170.834508,39.4907815 169.226792,40.2135919 C168.068972,41.0670706 166.945887,41.9585919 165.847612,42.8831938 C165.387792,43.3281275 164.961053,43.8061417 164.567394,44.3106204 C161.401583,48.2257057 158.449143,52.3343123 155.490086,56.4114924 C153.07355,59.7393976 151.103602,63.36999 149.280863,67.0535114 C144.677702,76.3574213 140.83374,86.0235635 136.854147,95.6119664 C134.078688,101.541658 131.258569,107.357222 127.427839,112.678232 C126.518124,113.748388 125.567057,114.752383 124.54156,115.705104 C124.475399,115.748109 124.409237,115.791113 124.341422,115.832464 C123.937839,115.729914 123.539218,115.61744 123.13729,115.493388 C122.070441,114.944251 121.056522,114.333914 120.057489,113.6508 C113.959086,108.558047 108.332081,102.932696 102.12782,97.9689569 C97.9927493,94.6675161 93.7617445,91.579445 89.4381142,88.5294166 C85.8406024,85.9904829 82.0214507,83.7029616 78.2866545,81.3641654 C70.7922517,76.6601085 63.2978488,71.8865825 55.4792564,67.7448953 C46.8931948,63.1963171 38.0672991,58.6411227 28.2655265,57.665246 C27.0514697,57.549464 25.8357588,57.4717246 24.6150858,57.4518763 C22.2696735,57.4072175 18.9351521,57.838919 16.9205455,59.2679995 C15.8536972,60.0172744 14.7488062,60.7218905 13.8953275,61.7159616 C12.3769294,63.4923882 11.4209009,64.9214687 10.7493654,67.1957578 C9.98024218,69.766118 9.82641754,72.5134592 10.0000905,75.1814071 C10.5624602,83.7360422 12.3173844,92.2311322 13.6025645,100.694796 C14.563555,108.002293 15.4666545,115.327985 16.0736829,122.670218 C16.8163417,131.592047 17.4696829,140.51553 18.0502469,149.457208 C18.639081,158.463393 19.2709199,167.464616 19.9953844,176.457568 C20.3642327,181.083886 20.7512754,185.703587 21.0093038,190.336521 C21.2656782,194.797436 21.5385929,199.255042 21.5849057,203.714303 C21.5385929,203.78708 21.4939341,203.861511 21.4492754,203.937597 C21.1135076,204.744763 20.7777398,205.545312 20.4353559,206.347516 C19.9573417,208.130559 19.9573417,209.920218 20.4353559,211.70326 C20.4866308,212.06053 20.5379057,212.4178 20.5891806,212.773417 C20.6652659,213.44826 20.7413512,214.119796 20.8207445,214.791331 C20.7347351,215.059284 20.6569957,215.333853 20.5891806,215.618345 C19.4015882,220.593663 21.371536,225.239829 25.6290052,227.997094 C30.4306498,231.105014 36.3289152,229.406327 41.5176024,228.43045 C44.2831379,227.914393 47.0470194,227.376834 49.812555,226.860777 C54.6257777,225.960985 59.4737351,225.239829 64.3250005,224.555061 C72.5322896,223.637075 80.756119,222.993658 89.017991,222.881184 C98.3682137,222.745554 107.70355,222.75217 117.053773,222.783597 C126.266711,222.823293 135.47965,222.738938 144.687626,222.556995 C153.880716,222.376706 163.024185,221.80772 172.192465,221.071677 C178.840005,220.535772 185.475967,219.566511 192.098697,218.732881 C198.863673,217.886018 205.626996,217.350113 212.443247,217.130127 C219.390166,216.903526 226.328816,217.14336 233.267465,217.434469 C239.594124,217.699113 245.869508,218.360725 252.154816,219.091805 C257.159906,219.846042 262.161688,220.616819 267.143621,221.498417 C272.519214,222.447829 277.972545,223.726393 283.444072,223.637075 C287.656882,223.572568 291.825034,222.305582 295.371271,220.057758 C296.715996,219.199317 297.911858,218.201938 299.240043,217.341843 C300.533493,216.931644 301.805441,216.519791 303.047617,215.851564 C305.166427,214.713592 307.169455,212.828 308.294195,210.676109 C310.037541,207.321739 309.915143,203.937597 309.824171,200.331815 C309.728237,196.358838 309.934991,192.370976 310.102048,188.404616 C310.424583,180.653838 311.577441,172.903061 312.607901,165.210175 C315.13691,147.298701 318.132356,129.423616 320.130422,111.447635 C321.184038,102.019673 322.093754,92.5933645 322.902574,83.1472081 C323.264806,78.9476299 323.483138,74.7282033 323.554261,70.5170469 C323.612152,66.9426915 323.593958,63.4212649 323.180451,59.8617957 C322.818218,56.7671085 322.384863,53.6856536 321.293204,50.7580232 C320.777147,49.3686393 320.168465,47.9676773 319.432422,46.6692649 C318.34738,44.755554 316.331119,42.3985635 314.347939,41.3515635 C312.331678,40.2847152 310.522171,39.4973976 308.189991,39.4577009 C306.800607,39.4378526 305.424455,39.633028 304.081384,39.9886441 C302.433972,40.4269616 300.837835,41.2936725 299.332669,42.1074545 C297.561204,43.0502507 295.913792,44.2394972 294.286228,45.4022791 C290.448882,48.1347341 286.598304,50.8489948 282.928015,53.8080517 C276.072067,59.3391227 269.502266,65.2440043 262.750522,70.8974735 C255.739095,76.7709284 249.149446,83.0115777 242.966688,89.7385114 C236.368768,96.9103787 230.844313,104.934071 224.532541,112.339156 C224.016484,112.94453 223.477271,113.533364 222.921517,114.105658 C220.794436,107.69299 219.02628,101.154616 216.856195,94.7584877 C215.486659,90.7259664 213.878944,86.7794545 212.224915,82.8627152 C210.259929,78.198355 208.270133,73.547227 206.10501,68.9721844 C203.650432,63.776881 201.098266,58.6212744 198.125977,53.6988858 C196.529839,51.0557483 194.637631,48.6325967 192.743768,46.209445 C190.973958,43.941772 188.65501,42.1851938 186.32283,40.5493597 C184.7912,39.4775493 182.839446,38.9085635 181.063019,38.3858905 C179.997825,38.0732791 179.005408,37.9591512 178.019607,37.9591512 C176.762545,37.9591512 175.52037,38.1444024 174.162413,38.3395777 Z" id="Fill-2"></path>
                <path d="M10.8932659,14.8075498 C8.04337488,15.7569621 5.93779668,16.7328389 3.68997204,18.7226351 C1.55627536,20.6032654 0.0709578199,24.1825829 0.23966872,27.0192417 C0.386877251,29.4936682 0.742493365,31.3924929 2.0359436,33.5443839 C3.28804313,35.6317678 5.43331801,38.028455 7.70760711,39.0241801 C10.550882,40.2647014 10.4351,40.3159763 13.5678299,40.6070853 C14.5883654,40.703019 16.7799531,40.3093602 17.0760242,40.2051564 C19.2609957,39.4757299 21.2954507,38.5064692 22.8403133,36.7234265 C25.1724934,34.0290142 26.7553986,30.6696825 26.5800716,27.0192417 C26.4262469,23.7359953 25.3147398,19.8920332 22.6980668,17.6954834 C20.5230194,15.8727441 18.228882,14.5991422 15.377337,14.4486256 C14.8745123,14.3692322 14.3650716,14.3278815 13.8539768,14.3278815 C12.8665218,14.3278815 11.8707967,14.4800521 10.8932659,14.8075498" id="Fill-4"></path>
                <path d="M167.980812,11.9566664 C167.980812,18.2105479 173.207542,23.4372777 179.461424,23.4372777 C185.716959,23.4372777 190.943689,18.2105479 190.943689,11.9566664 C190.943689,5.70278483 185.716959,0.476054976 179.461424,0.476054976 C173.207542,0.476054976 167.980812,5.70278483 167.980812,11.9566664" id="Fill-6"></path>
                <path d="M336.405731,8.78672085 C334.592916,8.88927062 332.819798,9.17045545 331.132689,9.74605735 C330.145234,9.72786303 329.156125,9.85191517 328.16867,10.1182137 C325.563575,10.8344081 323.295902,12.5727919 321.932982,14.904972 C320.52375,17.3148915 320.143324,20.255754 320.885982,22.9435502 C320.973646,23.2644318 321.084466,23.5985455 321.216788,23.9359673 C321.084466,25.0755929 320.988532,26.2201806 320.854556,27.3432659 C320.550215,29.8623512 322.119888,32.8280242 323.838423,34.5465597 C325.738902,36.4536545 328.355575,37.532081 331.043371,37.532081 C333.737783,37.532081 336.34784,36.4536545 338.253281,34.5465597 C338.78257,33.8617919 339.313513,33.1704081 339.849418,32.4856403 C340.26458,31.7661379 340.587115,31.0185171 340.817025,30.2477398 C341.252035,30.0542185 341.67712,29.8391948 342.092281,29.6043227 C344.540243,28.2281711 346.245546,25.7735929 347.052712,23.1304555 C347.570423,21.4565787 347.770561,18.6976592 347.143684,16.9923559 C346.807916,16.0495597 346.42749,15.1315739 346.00075,14.2268204 C345.076148,12.6769957 343.835627,11.4364744 342.279186,10.5118725 C340.927845,9.54757393 338.471613,8.77845071 336.706764,8.77845071 C336.604215,8.77845071 336.503319,8.78175877 336.405731,8.78672085" id="Fill-8"></path>
            </g>
        </g>
    </g>
</svg>