<?xml version="1.0" encoding="UTF-8"?>
<svg width="306px" height="293px" viewBox="0 0 306 293" version="1.1" xmlns="http://www.w3.org/2000/svg" xmlns:xlink="http://www.w3.org/1999/xlink">
    <!-- Generator: Sketch 51.1 (57501) - http://www.bohemiancoding.com/sketch -->
    <title>attentive dog</title>
    <desc>Created with Sketch.</desc>
    <defs></defs>
    <g id="animals" stroke="none" stroke-width="1" fill="none" fill-rule="evenodd">
        <g id="attentive-dog_DL" transform="translate(-269.000000, -324.000000)">
            <g id="attentive-dog" transform="translate(269.000000, 324.000000)">
                <rect id="Rectangle" fill="#FFFFFF" x="15" y="118" width="164" height="99"></rect>
                <rect id="Rectangle-2" fill="#FFFFFF" x="182" y="53" width="122" height="62"></rect>
                <path d="M171.159484,194.601988 C171.159484,194.606901 171.159484,194.611814 171.159484,194.616727 C171.068707,194.872213 170.958123,195.122785 170.829385,195.368444 C170.939968,195.112958 171.050551,194.857473 171.159484,194.601988 M171.461524,193.110019 C171.453272,193.250863 171.440068,193.388432 171.421912,193.526001 C171.41531,193.530915 171.408708,193.537465 171.403757,193.544016 C171.423563,193.399896 171.441718,193.255777 171.461524,193.110019 M165.577512,128.241312 L165.590716,128.241312 C165.643532,128.313372 165.696348,128.385432 165.749164,128.45913 C165.691396,128.385432 165.635279,128.313372 165.577512,128.241312 M81.9997843,130.570159 C100.548039,130.39656 119.116099,130.768324 137.6528,129.815167 C146.808092,129.34514 156.011247,127.95471 165.2045,128.229848 C165.357996,128.51645 165.508191,128.807965 165.653435,129.101118 C167.244511,133.442731 168.198497,137.961218 168.906559,142.528838 C169.992584,151.303776 170.552102,160.208095 170.798025,169.037078 C170.91356,173.296804 171.022493,177.558169 171.088512,181.824446 C171.154532,185.781193 171.291523,189.778883 171.185892,193.747094 C171.141328,193.788038 171.096765,193.828981 171.052202,193.869924 C169.913361,194.623278 168.74151,195.280006 167.501988,195.885965 C160.784477,198.437543 153.665895,199.762464 146.557216,200.784405 C141.572724,201.41493 136.571726,201.898059 131.572379,202.405754 C129.354115,202.635036 127.097889,202.654689 124.874673,202.77588 C122.836313,202.892159 120.793001,203.06412 118.756291,203.108339 C109.090997,203.332707 99.4207511,203.557076 89.7488548,203.786358 C85.3205787,203.889534 80.8774482,204.336634 76.4557741,204.624874 C72.5672096,204.873808 68.6984511,205.366764 64.8181391,205.687758 C60.0465602,206.070986 55.2947873,206.447663 50.5116549,206.640915 C46.0635729,206.812876 41.6270444,206.768657 37.1855644,206.614711 C33.9555471,206.506621 30.7304813,206.416546 27.5004641,206.409995 C26.5415269,206.408358 25.5842403,206.42801 24.6253031,206.457489 C24.5444289,202.566251 24.8068575,198.679927 25.0775385,194.785413 C25.2904523,191.708125 25.5792888,188.670142 25.9159896,185.605956 C26.5596824,179.6823 27.3849295,173.78976 28.1458073,167.885756 C28.9842584,161.33485 29.7963016,154.783945 30.4152369,148.206835 C30.9301911,142.790874 31.2338821,137.351984 31.8429145,131.944212 C48.5657222,131.701828 65.2736755,130.729018 81.9997843,130.570159 M164.595468,127.338925 C164.644983,127.358577 164.694498,127.379868 164.745663,127.399521 C164.745663,127.401158 164.745663,127.401158 164.745663,127.402796 C164.696148,127.381506 164.644983,127.360215 164.595468,127.338925 M245.624028,59.4558464 C244.660873,59.30237 243.695398,59.1603325 242.731372,59.0145256 C240.091585,58.7724371 237.451797,58.5287017 234.81201,58.2816725 C232.233115,58.0494651 229.636117,58.0362903 227.052285,57.9341849 C221.940577,57.7283273 216.830514,57.5603475 211.713869,57.3874271 C206.334075,57.2011128 200.965727,56.7435938 195.594971,56.356959 C195.08769,57.3131811 194.444668,58.1746258 193.697649,58.9198753 C193.755034,59.9208157 193.797695,60.9213847 193.809108,61.919702 C193.865646,67.4288936 194.143489,72.9708877 193.904415,78.4735188 C193.759032,81.9407504 193.607187,85.3997813 193.461805,88.8588123 C193.335806,91.6847536 192.994964,94.510695 192.762351,97.3235153 C192.287434,102.924554 191.537904,108.505911 190.767375,114.065947 C190.732385,114.354322 190.697702,114.642635 190.663062,114.930909 C192.691198,115.015771 194.481743,115.668298 196.386973,116.111193 C200.147518,116.349988 203.940978,116.287407 207.727855,116.229767 C209.643512,116.198477 211.552585,116.165539 213.461658,116.172127 C220.500543,116.205064 227.534491,116.351635 234.573375,116.577255 C248.452009,117.018613 262.398118,117.802519 276.240545,116.318697 C277.264204,116.150718 278.279633,115.958035 279.286834,115.724181 C280.874985,111.068505 282.153735,106.253084 282.945342,101.421194 C283.249807,98.3218016 283.37653,95.1828847 283.032567,92.0801988 C282.948634,91.3456988 282.867992,90.6128457 282.785704,89.8799926 C282.53555,88.2446597 282.280458,86.5813302 281.811419,85.0102249 C281.363774,83.5082878 280.879923,82.0458753 280.351636,80.5801691 C279.150236,78.0934091 277.848446,75.6824048 276.456139,73.2829285 C275.59541,71.8106348 274.695184,70.3366943 273.962824,68.7935856 C273.80157,68.4561283 273.642108,68.1177743 273.483294,67.7792876 C273.415836,67.7807709 273.348214,67.7816332 273.280426,67.7818748 C272.366392,67.6597397 271.458947,67.5376046 270.54656,67.413819 C268.761239,66.9214766 267.137565,65.9359608 265.862134,64.6070939 C265.507937,64.4894943 265.153712,64.371739 264.799328,64.2544107 C264.321605,68.8216297 263.919728,73.3948169 263.642223,77.9888146 C263.4818,80.7016778 262.694403,83.1054426 260.767855,85.0680671 C258.939915,86.9331606 256.421716,88 253.828455,88 C248.728769,88 243.69237,83.4400491 244.014688,77.9888146 C244.279606,73.5684081 244.596037,69.1495021 245.055229,64.7425999 C245.23876,62.9822435 245.414295,61.2166789 245.624028,59.4558464 Z M13.6906255,124.09273 C12.2890381,122.293406 11.4378475,120.017928 11.3587151,117.569092 C11.242948,113.988516 11.0456547,110.427794 11.0211968,106.840599 C10.9885863,103.304696 11.0016305,99.7754122 11.0081526,96.2411644 C11.0211968,93.0279109 11.0521767,89.8030753 11.211968,86.5914765 C11.5364422,80.1980619 11.6766672,73.6772423 13.0022827,67.401305 C13.6838415,64.1499955 14.8105332,60.7696265 17.1862058,58.3654776 C19.2749062,56.2475762 22.2326757,55 25.183923,55 C26.0856025,55 26.9856514,55.1174773 27.8612425,55.3607051 C33.1033752,56.8266899 35.8361324,61.5836948 37.1601174,66.5938551 C37.9753791,69.6763943 38.2933312,72.9277037 38.7335725,76.0747727 C39.2422958,79.713261 39.7396054,83.3583677 40.4472526,86.9654184 C40.8728192,89.1495042 41.242948,91.3534452 41.7842818,93.5060934 C42.9452144,98.1125287 44.3947497,102.565085 46.0953856,106.976277 C46.4671112,107.848126 46.8388368,108.719805 47.2109402,109.591422 C58.5715974,109.199279 69.9291522,108.685639 81.2966737,108.575493 C87.3572886,108.524723 93.4245055,108.531274 99.4917223,108.537825 C111.881983,108.550927 124.287097,108.562391 136.672406,108.031768 C140.966992,107.846705 145.259928,107.545363 149.554514,107.296428 C152.163945,107.145758 154.801435,107 157.430673,107 C158.930972,107 160.429621,107.047494 161.920017,107.168686 C163.022547,107.257123 164.118475,107.353749 165.214403,107.461839 C165.678192,107.514246 166.13703,107.571567 166.600819,107.628887 C167.526142,107.740627 168.555405,107.785193 169.544679,107.927238 C169.820483,105.375207 170.094119,102.822197 170.354001,100.269186 C170.979148,94.1449464 171.376528,88.0338276 171.647909,81.8833459 C171.973653,74.3925156 171.887866,66.8937916 171.56993,59.4020783 C170.929753,58.4761499 170.446799,57.4323264 170.170699,56.2912296 C169.134944,52.015861 168.118918,47.7600146 166.553778,43.6522117 C165.92246,42.3442223 165.236889,41.0752772 164.451031,39.8616452 C164.063034,40.1056731 163.683257,40.3562084 163.305125,40.6181317 C161.266496,42.2905361 159.303494,44.0426564 157.416119,45.8940146 C153.235287,49.9936832 146.307238,50.0245934 142.126406,45.8940146 C137.983387,41.7894655 137.932421,34.8558198 142.126406,30.7626586 C144.104204,28.8315846 146.159273,26.9688384 148.349155,25.2720311 C149.999786,23.9949518 151.617536,22.6283956 153.422709,21.5481655 C154.956612,20.6273669 156.441194,19.9733722 158.129639,19.3047358 C160.030167,18.5547567 161.983304,18.1041186 164.044949,18.0211491 C164.360608,18.0081343 164.707504,18 165.072484,18 C166.432117,18 168.021919,18.1122528 169.059318,18.4734141 C171.198233,19.2168857 173.286184,20.0547148 175.224525,21.2048996 C176.567718,22.0004305 178.441941,23.4873738 179.482627,24.7449309 C180.46925,25.9302541 181.430757,27.1306662 182.307418,28.3855711 C183.128579,25.5714787 183.956633,22.7598725 184.797859,19.9527735 C185.377974,18.0161373 186.003844,16.0909994 186.776786,14.2233527 C187.517045,12.41484 188.193574,10.7656604 189.214902,9.12962172 C190.018892,7.82703266 191.110489,6.58193491 192.241304,5.53559288 C194.756224,3.21951396 198.259791,1.30094646 201.648969,0.762170651 C204.225986,0.354803579 206.794832,0 209.388191,0 C210.15623,0 210.924269,0.0312095741 211.697211,0.101841768 C214.359202,0.344947924 216.975439,0.684968021 219.549187,1.39128996 C224.221154,2.67416772 227.590722,6.60164622 228.664343,11.2650136 C229.424212,14.5765137 228.772196,17.823952 227.917548,21.0451086 C226.347152,26.9289346 220.039425,30.4638295 214.231741,28.8524299 C210.643199,27.8619366 208.020427,25.2107654 206.825881,21.9666123 C206.683712,21.9698975 206.539909,21.9715402 206.396105,21.976468 C206.239229,22.2737802 206.087256,22.5743777 205.940184,22.8782604 C204.361174,27.1775431 203.061935,31.5859347 201.779256,35.9845232 C201.993985,35.995358 202.208764,36.0058978 202.423594,36.0161132 C210.138883,36.3833632 217.852527,36.5892208 225.572753,36.8461311 L234.020403,37.1359786 C236.161527,37.2067936 238.309234,37.4966411 240.437193,37.6827364 C243.136227,37.9149438 245.810576,38.2294942 248.484924,38.6477969 C250.568447,38.9689348 252.68324,39.2011422 254.747014,39.6507352 C259.073698,40.5845053 263.349364,41.5874436 267.610218,42.8094144 C270.247366,43.5692466 272.826292,44.6337071 275.471169,45.4099074 C277.121523,44.7959784 278.801836,44.2725533 280.53011,43.9143629 C282.992236,43.4027158 285.66846,43 288.310098,43 C292.394427,43 296.396411,43.9622266 299.392135,46.9759931 C301.426065,49.020931 302.878637,51.5213999 303.599982,54.3272066 C303.907953,55.5518587 304.153343,56.7567051 304.346031,58.0011628 C304.731407,60.3927004 305.060788,62.7974418 305.30453,65.208785 C305.671791,68.8513823 306.057167,72.5203871 305.992938,76.1827901 C305.94047,79.1623819 304.705436,81.89465 302.726969,83.8677978 C302.814948,84.4273048 302.899871,84.9855796 302.988966,85.5388673 C303.657142,89.6560195 304.170617,94.0169072 303.946794,98.1851121 C303.675245,103.041705 302.969217,107.867007 301.772755,112.58197 C301.219782,114.764061 300.648706,116.944505 299.954198,119.087071 C299.560863,120.302454 299.202089,121.544187 298.751153,122.739808 C298.211346,124.213749 297.691288,125.840847 296.957282,127.211035 C296.18707,128.658626 295.138725,129.880597 294.039362,131.084452 C293.030516,131.907883 291.988754,132.691789 290.927244,133.444404 C289.719261,134.017512 288.498112,134.544507 287.257215,135.040212 C285.958716,135.451927 284.6668,135.779653 283.328803,136.03821 C279.999445,136.66237 276.630589,137.067498 273.248567,137.355699 C270.735502,137.568144 268.209272,137.652134 265.687978,137.780589 C256.521135,138.231829 247.347709,137.890928 238.174283,137.614256 C229.655866,137.355699 221.144032,137.260181 212.619033,137.330996 C208.568835,137.362286 204.518637,137.503916 200.475023,137.536853 C198.328961,137.556616 196.19442,137.568144 194.059878,137.330996 C192.504642,137.156428 190.717354,137.034561 189.160472,136.584968 C188.850918,136.495098 188.545801,136.385803 188.238682,136.28737 C189.082806,141.589223 189.491704,146.981432 189.862885,152.270034 C190.48182,161.085916 190.861434,169.906711 190.925803,178.740607 C190.965415,183.558798 191.074347,188.401555 190.919201,193.218109 C190.905997,194.043523 190.868036,194.875488 190.797064,195.700902 C190.668326,196.942299 190.486771,198.177144 190.2491,199.405439 C190.155385,199.635852 190.062539,199.866121 189.969489,200.095894 C191.704509,202.875626 192.956611,206.040585 193.511734,209.27274 C194.086248,212.668683 194.599264,216.107177 194.782138,219.547307 C195.117136,225.882581 195.066967,232.255497 194.62354,238.585861 C194.314435,243.053776 194.023132,247.523328 193.644438,251.984696 C193.257653,256.54917 192.835264,261.113644 192.480845,265.678118 C192.291498,268.11665 192.110243,270.53718 192.131282,272.962619 C193.846732,274.874167 194.901896,277.394529 194.901896,280.165291 C194.901896,284.908154 191.645777,289.402255 187.04481,290.598608 C181.380588,292.068274 175.82965,289.384252 172.782298,284.474456 C170.955182,281.526941 170.430836,278.145728 170.126587,274.749785 C169.74142,270.409525 170.348301,265.972706 170.722139,261.645539 C171.151002,256.696464 171.618705,251.749026 171.973123,246.786858 C172.686815,236.721775 173.497608,226.576499 172.461865,216.508143 C172.369395,215.954362 172.26842,215.404611 172.155926,214.857803 C169.548121,215.805729 166.89801,216.626542 164.196048,217.246831 C150.533257,220.361787 136.466095,221.655591 122.494661,222.49902 C113.656264,223.036194 104.784857,223.119718 95.9316062,223.381755 C86.8357324,223.656893 77.7893734,224.361115 68.738063,225.270053 C59.9442296,226.152788 51.1817556,226.894678 42.3367569,226.932345 C40.2736391,226.945447 38.2105213,226.888127 36.1474035,226.830806 C34.0380718,226.773486 31.9237887,226.707977 29.8161075,226.721079 C28.8754698,226.72377 27.9337173,226.727568 26.9918808,226.737812 C27.0153269,228.761566 26.9893029,230.787141 26.8966849,232.816139 C26.7532696,236.028547 26.5248056,239.222899 26.219631,242.422175 C25.776044,247.038063 25.3007721,251.649026 24.7604631,256.258347 C24.3235465,260.055128 23.8416042,263.850268 23.3863438,267.653614 C22.9360863,271.348623 22.3407458,275.094517 22.4941669,278.828921 C22.5258516,278.94875 22.559204,279.06858 22.5975593,279.188409 C24.3635694,284.88276 20.5580595,291.076125 14.8447917,292.622415 C10.142102,293.897857 4.70232394,291.872251 2.31929428,287.601077 C-0.854187499,281.939557 -0.0854144574,275.797078 0.658344277,269.698919 C1.1653009,265.544292 1.70727756,261.394589 2.20089322,257.239962 C2.78789563,252.302341 3.32153418,247.371286 3.81014699,242.422175 C4.17535587,238.722242 4.45551611,235.02231 4.5605762,231.302679 C4.71566491,225.526254 4.41049036,219.781017 3.96023283,214.016082 C3.88773862,213.074038 4.01428089,212.101423 4.28874104,211.151947 C4.07521106,209.235924 4.00645246,207.306231 4.00072694,205.443737 C3.98752299,202.14208 4.1558734,198.873178 4.36878716,195.57971 C4.67082761,190.813926 5.15442242,186.079259 5.65122119,181.326577 C6.52763364,172.913576 7.85628151,164.552983 8.72609198,156.139982 C9.17832741,151.827848 9.55794109,147.510801 9.8418261,143.179015 C10.158721,138.201964 10.4228001,133.224914 11.3701838,128.311734 C11.6648821,126.780721 12.5537191,125.302979 13.6906255,124.09273 Z" id="Combined-Shape" fill="#2C2C2C"></path>
            </g>
        </g>
    </g>
</svg>