<?xml version="1.0" encoding="UTF-8"?>
<svg width="472px" height="352px" viewBox="0 0 472 352" version="1.1" xmlns="http://www.w3.org/2000/svg" xmlns:xlink="http://www.w3.org/1999/xlink">
    <!-- Generator: Sketch 51 (57462) - http://www.bohemiancoding.com/sketch -->
    <title>dragon0001</title>
    <desc>Created with Sketch.</desc>
    <defs></defs>
    <g id="animals" stroke="none" stroke-width="1" fill="none" fill-rule="evenodd">
        <g id="dragon0001_DL" transform="translate(-164.000000, -292.000000)">
            <g id="dragon0001" transform="translate(165.000000, 293.500000)">
                <path d="M271.165823,123.919865 C307.126882,145.302117 337.742378,154.535361 363.012311,151.6196 C388.282245,148.703838 414.038138,133.15311 440.279992,104.967415 C458.746482,132.18119 467.979727,157.937083 467.979727,182.235096 C467.979727,206.533109 464.092045,229.859201 456.316681,252.213373 C419.383701,214.308473 388.282245,195.356023 363.012311,195.356023 C337.742378,195.356023 287.688472,202.159467 212.850592,215.766354 C182.721056,207.99099 163.768606,204.103308 155.993242,204.103308 C148.217878,204.103308 120.518144,212.850592 72.8940384,230.345161 L10.2051654,218.682115 C10.2051654,202.159467 16.0366885,182.235096 27.6997346,158.909004 C39.3627807,135.582911 54.4275487,120.032183 72.8940384,112.256819 C89.4166871,146.274037 113.7147,160.366885 145.788077,154.535361 C177.861454,148.703838 213.822513,133.63907 253.671254,109.341058 L271.165823,123.919865 Z" id="Path-45" fill="#FFFFFF"></path>
                <path d="M186.608738,75.8098 C173.001851,73.8659589 171.05801,67.5484756 180.777215,56.85735 C195.356023,40.8206615 279.913108,-2.91576154 287.202511,40.8206615 C294.491915,84.5570846 267.136402,134.125031 249.297611,161.824765 C231.45882,189.5245 214.555054,214.308473 223.055758,225.971519 C231.556462,237.634565 297.407677,242.008208 297.407677,262.418538 C297.407677,276.025426 297.407677,296.435756 297.407677,323.649531 C284.77271,312.958405 276.511386,300.809399 272.623704,287.202511 C266.792181,266.792181 211.392711,272.623704 205.561188,249.297611 C199.729665,225.971519 201.187546,195.356023 230.345161,142.872315 C259.502777,90.3886076 255.129134,56.85735 230.345161,56.85735 C213.822513,56.85735 199.243705,63.1748333 186.608738,75.8098 Z" id="Path-29" fill="#FFFFFF"></path>
                <path d="M205.63632,32.0718419 C210.32859,29.9131349 214.507899,28.170386 216.31148,23.2939771 C217.034885,21.3391389 218.718446,19.91699 220.456263,18.6493867 C222.789245,16.9477403 225.041666,15.1310068 227.261204,13.2813911 C230.562563,10.5324513 232.788678,6.97132464 234.595547,3.13727694 C235.261409,1.72663675 235.554059,-0.109826066 237.748936,0.416286826 C239.642942,0.870059195 240.453485,2.85613536 239.795844,5.23515209 C238.679498,9.28128905 236.195259,12.4922218 233.413437,15.5140827 C231.262951,17.8487087 228.627454,19.6095428 226.231996,21.6548066 C225.850564,21.9819831 225.541473,22.3930088 224.857526,23.1344991 C226.726871,23.5652541 228.183546,23.164093 229.643509,22.9898181 C233.684714,22.5048078 237.665087,21.6054835 241.758903,21.4427174 C249.091601,21.1533553 256.1037,22.636336 263.023728,24.8854686 C269.652751,27.0408874 276.270264,29.130542 281.791162,33.6863508 C286.371632,37.464499 290.79098,41.3445816 293.863808,46.5300818 C295.144564,48.6920769 296.244469,50.9033952 296.872516,53.3547524 C297.849113,57.170715 299.083835,60.9258458 299.912462,64.7697581 C301.444766,71.8755703 300.754243,78.8893128 298.457431,85.753442 C294.751624,96.8248301 289.240591,106.888383 281.61031,115.758318 C280.84087,116.65271 280.054989,117.532305 279.23787,118.382306 C277.011755,120.693914 276.753631,121.849719 278.142897,124.689084 C279.311855,127.081254 281.075977,129.044312 283.050544,130.800214 C288.652002,135.778557 294.860135,139.980884 300.795346,144.528472 C305.947964,148.475963 311.962092,149.745211 318.247497,149.667938 C331.143839,149.510104 343.946467,148.104396 356.737587,146.517837 C367.271354,145.210775 377.310245,142.323731 386.980858,138.035911 C393.356688,135.209698 399.505633,131.857372 405.199161,127.914814 C414.258167,121.642562 423.419108,115.450871 431.508094,107.879777 C433.143976,106.349118 434.549684,104.663912 435.90278,102.865264 C439.102204,98.6053934 440.98799,98.3406929 443.888188,102.409847 C451.181428,112.644387 459.107647,122.648753 462.811811,134.981168 C464.898177,141.929146 465.790925,149.133604 466.417328,156.338063 C467.489283,168.635952 468.960755,180.95357 468.766751,193.287629 C468.539865,207.589679 470.246443,221.909814 468.579323,236.17405 C467.947988,241.565063 466.243053,246.69302 460.950686,249.667202 C458.818285,250.864108 456.8766,253.246413 454.752419,253.366433 C452.670985,253.484808 451.18636,250.591187 449.492934,248.963526 C440.696984,240.506261 432.481402,231.448899 423.26785,223.425677 C418.277998,219.078669 412.808068,215.553713 406.136299,214.171022 C401.968499,213.307868 398.042381,213.376921 394.361235,215.701682 C392.551078,216.844334 390.913552,217.252071 389.019545,215.654003 C387.515191,214.3864 386.553391,213.145102 387.771671,211.338233 C388.718674,209.932525 388.325734,208.91647 387.354069,207.846159 C381.949903,201.88793 375.858502,197.121677 367.629768,195.656781 C363.674057,194.953105 359.739719,194.800203 355.879365,195.671578 C350.894446,196.797788 345.921035,198.057171 341.143272,199.931448 C340.169963,200.31288 339.203231,200.755144 338.318704,201.305918 C336.878469,202.205242 335.79665,203.298571 337.019862,205.158051 C337.3717,205.694028 337.787658,206.348381 337.125085,206.922173 C336.528276,207.436777 335.847617,207.231265 335.382336,206.70844 C333.989781,205.148186 333.088813,205.912694 331.855735,207.080007 C329.951864,208.881944 328.781263,208.482427 327.850701,206.022849 C327.194704,204.289965 326.583098,202.617912 328.11869,200.899825 C329.057473,199.845955 328.51163,198.821679 327.559695,197.818776 C319.54305,189.366444 309.745841,186.576401 298.46894,188.682497 C293.045045,189.695264 287.711576,191.130566 282.404412,192.657937 C278.461853,193.794012 275.259141,195.850785 272.916295,199.263942 C272.084379,200.474002 271.420161,202.366364 269.299269,201.088897 C267.318125,199.893634 266.328375,196.962199 267.574605,195.281925 C269.942113,192.084146 272.704205,189.054064 276.58922,187.896616 C284.776852,185.456767 293.058198,183.135294 301.66672,182.964307 C311.820699,182.762083 320.82545,185.815182 327.914821,193.463548 C328.630006,194.234632 329.432328,194.939952 330.057087,195.778445 C331.043549,197.10688 331.956026,196.95891 333.39626,196.302913 C343.076737,191.890141 353.191257,189.124761 363.912452,190.109578 C373.852697,191.022055 381.790425,195.799818 387.68289,203.915109 C388.603587,205.184357 389.757747,206.284261 390.691598,207.546932 C391.456106,208.584361 392.317615,208.640261 393.44547,208.314728 C401.460471,206.004764 408.561351,208.827688 415.201882,212.760382 C422.587192,217.13534 428.854512,222.971905 434.636821,229.318141 C440.825224,236.111574 447.120494,242.808005 453.287523,249.621167 C454.541974,251.007145 455.240717,250.642155 456.455709,249.588285 C460.898075,245.729575 462.713164,240.596686 463.653591,235.075789 C464.804463,228.293865 464.391793,221.434669 464.307944,214.601777 C464.061329,194.612776 463.2886,174.641859 460.833955,154.78603 C459.740627,145.930892 458.739368,136.963956 454.809962,128.771391 C451.79961,122.500783 448.531134,116.338686 443.759948,111.148254 C441.014296,108.160919 440.828512,108.123104 437.749108,110.562953 C432.193684,114.962572 426.717178,119.459193 421.11572,123.799625 C410.918994,131.699538 400.304667,138.92537 388.327378,143.954681 C379.431138,147.690082 370.192924,150.08554 360.673569,151.580029 C350.136514,153.233997 339.492593,153.806145 328.891418,154.698892 C322.26404,155.256243 315.518286,155.621234 308.974757,153.296473 C305.966049,152.227806 303.090513,150.948694 300.507628,149.164842 C295.430638,145.662903 290.46216,142.001486 285.533139,138.292391 C280.717562,134.668788 275.829645,131.079712 273.031382,125.198756 C270.053912,127.518585 268.161549,130.353018 266.16232,133.046059 C258.648771,143.172088 251.187832,153.340863 243.767996,163.535945 C235.892744,174.355785 230.373491,186.287039 225.947566,198.931834 C223.381122,206.261244 223.658975,213.306224 224.369228,220.619194 C224.444856,221.401786 224.637216,222.174515 224.732574,222.957108 C224.967681,224.887284 226.110332,226.046377 227.887608,226.595507 C233.175042,228.229745 238.141877,230.63178 243.190916,232.846386 C247.440922,234.710799 252.092089,235.100451 256.56076,236.149388 C268.639983,238.98711 279.043866,245.076867 288.232756,253.098444 C296.099788,259.96915 299.044376,269.363553 299.381417,279.591516 C299.695441,289.189788 298.508399,298.768331 298.82571,308.371536 C298.88983,310.341171 298.861881,312.314094 298.876678,314.285373 C298.879966,314.54843 298.949018,314.83286 298.873389,315.071255 C297.995439,317.849788 302.316141,319.166715 301.314882,320.947278 C299.886157,323.490705 300.269233,325.637903 300.762464,328.011988 C301.244186,330.326884 301.840995,332.620408 302.459178,334.904066 C302.768269,336.041786 303.146413,337.182793 303.657729,338.241595 C305.402122,341.847113 308.188876,343.963073 312.32215,344.007464 C316.920706,344.056787 321.086862,342.509686 325.136287,340.526898 C326.665303,339.775543 328.123622,338.82854 329.84993,338.567127 C331.873821,338.262968 332.449257,339.076799 331.758733,341.074384 C331.250706,342.540924 330.242871,343.524097 328.937453,344.226129 C324.021586,346.868202 318.836085,348.719462 313.216542,348.905246 C308.402609,349.06308 304.614596,346.874779 301.699602,343.126224 C299.221939,339.938309 297.921454,336.245654 297.130641,332.33269 C296.662071,330.017793 296.038956,327.73249 295.626286,325.407729 C295.356654,323.89351 294.56584,323.212852 293.105877,322.837996 C282.835167,320.204143 278.410886,312.570574 276.439607,302.983811 C275.775389,299.754793 275.910206,296.425485 276.081193,293.1455 C276.212721,290.613581 276.127227,288.08824 275.375872,285.72402 C273.850145,280.92324 273.41117,275.943252 272.54966,271.032317 C271.283701,263.813062 263.755354,256.562569 256.476911,255.686262 C251.38348,255.073012 246.344305,254.262469 241.316639,253.198734 C237.48588,252.388192 233.467692,253.093512 229.544863,252.550958 C226.1613,252.084033 222.730057,251.97881 219.341561,251.546411 C215.451614,251.049892 212.219308,249.464977 209.534488,246.337893 C207.157116,243.569224 205.088834,240.473379 202.154111,238.188076 C200.796082,237.129274 200.332445,235.712057 200.602078,233.985749 C200.967069,231.642903 201.315618,229.303344 202.320165,227.128196 C202.777226,226.138447 203.342797,225.196376 204.671232,225.520264 C206.050634,225.857305 207.129166,226.57249 207.045317,228.195219 C207.005858,228.971236 206.83816,229.755473 206.619494,230.503539 C206.196959,231.943774 205.590286,233.231106 208.020269,233.536909 C209.425977,233.714472 209.838647,235.125112 209.103733,236.322019 C208.1929,237.808288 209.01824,238.687883 209.748222,239.823958 C212.663216,244.351817 216.6403,246.780157 222.12996,246.972517 C225.669713,247.097469 229.199602,247.692634 232.754152,247.564394 C236.090036,247.442731 239.302613,248.25985 242.502037,248.891185 C245.486084,249.479774 248.473419,249.946699 251.477194,250.012463 C258.387358,250.162077 264.14665,252.965272 269.355168,257.22843 C269.762906,257.560539 270.192016,257.867986 270.596466,258.201739 C278.126456,264.419736 279.24609,266.488017 279.97114,276.221106 C280.178297,278.989775 280.487388,281.714053 281.378492,284.351194 C283.017662,289.198009 282.914084,294.197726 282.540872,299.189222 C282.197255,303.781201 283.282363,308.070665 285.046485,312.213804 C286.416023,315.431313 288.997264,317.381219 292.32164,318.375901 C293.814485,318.823097 294.592146,318.425224 294.468838,316.717001 C294.289631,314.226186 294.131797,311.732082 294.05288,309.23469 C293.817773,301.739225 294.008489,294.247049 294.218934,286.753228 C294.378412,281.109023 294.271546,275.509209 292.941467,269.911039 C291.016222,261.812189 286.042811,256.177849 279.441739,251.697669 C271.319871,246.186636 262.658737,241.930054 252.830291,240.338562 C246.028638,239.235369 239.812285,236.299002 233.459472,233.80983 C232.241192,233.33304 230.980165,232.898997 229.699409,232.660602 C224.418551,231.675785 220.931409,228.466496 220.03044,223.25469 C219.201813,218.467063 218.606647,213.636689 217.980244,208.814536 C217.759934,207.112889 217.741849,205.2978 218.410999,203.740834 C221.219127,197.210458 222.690599,190.224665 225.460912,183.677848 C229.373876,174.423193 234.444289,165.839333 240.418959,157.814467 C249.747598,145.283116 258.416952,132.251957 268.587372,120.353585 C269.175961,119.664706 269.95691,119.026794 270.032538,118.051841 C270.164067,116.351839 271.051882,115.528143 272.684476,115.126982 C274.004691,114.803094 274.797148,113.609475 275.637285,112.606573 C283.997547,102.612072 290.613417,91.6508387 293.811197,78.8909569 C295.105106,73.7317624 295.141276,68.4821422 293.92464,63.2703364 C293.418256,61.0935443 292.763904,58.9512783 292.282181,56.7695539 C290.710419,49.6423684 286.407802,44.4190538 281.19764,39.5229157 C273.562427,32.3513394 264.08253,29.2785112 254.369171,27.1050074 C246.906589,25.436243 239.174373,26.5049098 231.642738,27.9582967 C229.066429,28.4548157 226.467103,28.9496907 223.981219,29.7635216 C221.108972,30.7039484 218.466899,31.9830603 217.154905,35.1709756 C216.087882,37.7587934 215.666992,37.8114047 212.936137,36.8709779 C211.844453,36.4928343 210.999384,36.4320025 209.98004,37.0189472 C208.160018,38.0645965 206.228197,38.9129536 204.404887,39.9520265 C202.10972,41.2607324 201.003239,43.7794978 201.466876,46.4544531 C201.649371,47.5148994 201.950242,48.6756359 200.870066,49.3135478 C199.651786,50.0303766 198.379251,49.6604535 197.11658,49.060356 C195.977217,48.5194462 195.659905,46.3755361 194.073346,47.1005854 C192.960288,47.6086132 192.197424,48.8762165 191.276727,49.8034904 C190.349453,50.7356967 189.448484,51.6958527 188.48504,52.5902447 C187.362118,53.6326058 186.791614,54.6256439 187.215793,56.370037 C187.725465,58.4646239 186.906701,59.1666558 184.743062,59.3359984 C182.442962,59.5168497 180.456886,58.5106588 179.68087,56.3914103 C178.84731,54.1110397 179.758143,51.9457564 181.267429,50.3378238 C186.203025,45.0832713 191.181369,39.8303629 197.655846,36.3711707 C199.442985,35.4143028 200.320936,34.2190401 200.204205,31.9978573 C199.992116,27.899109 201.218616,24.2212511 204.460787,21.4164117 C207.084775,19.1442617 208.712437,16.0977392 210.670563,13.3076968 C211.349578,12.3409643 212.022016,11.3413498 212.862152,10.5258749 C214.062347,9.35856188 215.905386,9.43254651 217.141752,10.5932831 C218.287691,11.6685263 218.307421,12.8966711 217.378503,14.1165953 C214.677242,17.6563486 212.681301,21.7041297 209.370078,24.8164163 C207.490868,26.5805386 205.670847,28.5370209 205.63632,32.0718419" id="Fill-274" stroke="#000000" stroke-width="3" fill="#000000"></path>
                <path d="M244.208452,118.635169 C238.81415,124.282662 232.227874,128.40936 226.093727,133.108206 C218.660738,138.805022 210.320205,142.841294 201.810329,146.752615 C193.121246,150.74614 184.233226,153.442469 174.878281,155.111233 C169.577694,156.054948 164.374108,157.5182 158.948569,157.672745 C158.290928,157.692475 157.616846,157.81085 156.978934,157.707272 C147.457935,156.181544 137.836645,156.68464 128.263035,156.237444 C124.828504,156.077966 121.46467,155.41046 118.250449,154.205333 C109.904983,151.076605 101.431277,148.314512 93.5445162,144.006963 C87.4416067,140.671079 82.4320255,136.136643 77.7249592,131.178029 C75.0943948,128.407716 74.1950706,124.818639 73.5489382,121.167087 C72.2911995,114.059631 71.4329779,113.673267 65.7197207,117.94629 C61.3957304,121.18024 57.6899227,125.116222 54.0334381,129.052204 C45.8852647,137.826781 38.5032432,147.214608 32.0336987,157.312687 C27.6850468,164.102831 24.424791,171.412512 21.5361024,178.891536 C17.4110485,189.57656 14.1869629,200.541081 11.8293195,211.753862 C11.5876364,212.906379 11.4495318,214.083556 11.3163595,215.255801 C11.2916979,215.461314 11.5268046,215.694777 11.7372498,216.095938 C16.9194618,213.567308 22.4206297,211.910052 27.9826294,210.43858 C34.7135862,208.658017 41.1732661,209.039449 47.4948413,212.270111 C55.7219316,216.475726 63.5100465,221.284726 70.267309,227.630963 C71.1238865,228.433285 71.7486456,228.979127 72.9406201,228.221196 C86.5685881,219.550198 101.651587,217.199131 117.485941,217.758126 C120.945133,217.879789 124.723281,219.704744 127.827348,217.779499 C130.811394,215.926595 133.963139,214.206864 136.69235,211.962664 C139.461019,209.688869 142.594679,208.039834 145.58859,206.147472 C153.243533,201.308877 161.235516,200.476961 169.615508,204.16304 C172.255937,205.325421 174.963774,206.3349 177.619,207.464398 C178.330897,207.766913 179.016488,208.187804 179.611653,208.67939 C180.001305,208.99999 180.178868,209.549121 179.993085,210.113048 C179.792504,210.726298 179.245018,210.839741 178.745211,210.844674 C176.609521,210.864403 174.588919,210.293899 172.602843,209.558985 C169.770054,208.510048 166.940553,207.530162 163.879233,207.207918 C158.825261,206.676873 154.295758,207.857339 150.012871,210.53065 C144.544585,213.947096 139.551445,218.024471 134.19989,221.597106 C132.409462,222.794013 131.687701,224.372351 131.485476,226.529414 C131.278319,228.796632 130.078124,229.209302 128.30907,227.862782 C127.174639,226.997984 125.742625,226.268002 125.31187,224.816259 C124.784113,223.052137 123.57241,222.706875 122.018732,222.677281 C107.823549,222.406004 93.8716927,223.397398 81.1479812,230.65118 C78.1491378,232.361047 75.1239886,233.617141 71.5349122,232.645477 C70.7177932,232.423523 70.1883921,232.116076 69.5932269,231.571877 C64.9387719,227.310363 59.9242584,223.533859 54.3260884,220.579406 C52.4715404,219.601165 50.5890427,218.670603 48.7706651,217.63153 C42.2189155,213.887908 35.430415,214.164117 28.5728623,216.50532 C22.9944216,218.409191 17.1858064,219.880663 12.7237115,224.129024 C12.2255483,224.60417 11.5876364,224.775157 10.9151984,224.793242 C9.68705362,224.822836 9.46838795,225.653107 9.35001255,226.642857 C8.41451806,234.480295 7.77825028,242.342395 7.33763074,250.222579 C7.27515483,251.352078 7.4921764,252.248114 8.46384115,252.964943 C9.90900749,254.030322 10.3825091,255.473844 9.5588136,257.122879 C8.68250682,258.875492 6.99236915,259.350638 5.22989096,259.31118 C2.77853371,259.258568 0.217021568,256.036127 1.02263193,253.719586 C2.9528086,248.164163 3.11064247,242.399938 3.67292563,236.647223 C5.57022024,217.24681 9.17080534,198.219608 15.7307755,179.766199 C19.674978,168.675081 24.4626054,158.060754 31.0899837,148.358903 C37.2455045,139.34922 44.2099239,130.949499 51.6067424,122.921345 C55.4325696,118.766697 59.214006,114.559438 63.7747471,111.156145 C65.9893535,109.503822 68.2631477,107.925483 70.7769809,106.781188 C74.1342387,105.250528 77.593431,107.027803 78.0554239,110.677711 C78.5009757,114.182939 79.3411123,117.619113 79.3460446,121.218054 C79.352621,126.35752 82.5701301,129.995919 86.1756476,133.159173 C91.3512831,137.705117 97.2700532,141.096901 103.675478,143.627175 C111.483322,146.713156 119.174435,150.238113 127.743498,150.693529 C130.890311,150.861228 134.050277,150.834922 137.20531,150.80204 C141.024561,150.762581 144.85532,150.793819 148.62196,151.362679 C156.607367,152.567806 164.331362,151.390629 171.992881,149.264804 C174.526443,148.562772 177.066582,147.898554 179.687282,147.573022 C184.438739,146.982789 188.840002,145.284431 193.155772,143.303287 C202.101335,139.197962 211.29187,135.541478 219.372635,129.79205 C224.500591,126.143786 229.490443,122.29823 234.447413,118.42308 C239.378078,114.569303 243.141429,109.737285 245.998879,104.1572 C247.547624,101.130407 249.366002,98.2252769 251.047919,95.2806888 C253.698213,90.645963 254.553146,85.6840608 252.129739,80.2174191 C249.49753,74.2739875 244.86116,70.3758198 240.349742,66.1850018 C234.768013,60.9978575 227.93841,58.9295762 220.607356,58.3574284 C212.411504,57.7195165 205.751243,60.8860585 200.595337,67.2651773 C199.687792,68.3880995 198.747365,69.4847161 197.787209,70.5616034 C194.390493,74.3742778 190.124046,74.1408152 185.791835,72.9126704 C183.335546,72.2172149 182.242217,70.0404228 182.967267,68.1069579 C183.748216,66.0255238 185.712918,65.068656 188.133038,66.2129515 C190.290101,67.2339394 191.478787,66.5434162 192.877918,65.037418 C194.752196,63.0266803 196.776086,61.1458267 198.824638,59.3060757 C206.042249,52.8151579 214.601449,52.2051958 223.647302,53.7062616 C230.790929,54.8900156 237.285135,57.4022047 242.810964,62.2671048 C245.065029,64.2515369 247.792596,65.6917709 250.079543,67.6433209 C256.447153,73.067216 260.687294,79.9592949 260.402864,88.373813 C260.203928,94.1709194 259.0547,100.086401 256.912434,105.676351 C254.115815,112.963014 250.000626,119.539425 246.202748,126.290111 C245.106132,128.236729 243.901004,130.122515 242.861931,132.097082 C240.080109,137.373008 236.685037,142.001158 231.754373,145.631337 C226.897693,149.20726 222.968288,153.80746 219.150681,158.568781 C215.060153,163.670432 210.264305,168.241038 206.333256,173.505455 C202.393985,178.779737 199.403362,184.634387 196.76951,190.651803 C195.850456,192.759543 195.710708,194.992235 197.119704,197.055584 C197.765836,197.999299 197.981213,198.970963 197.252876,199.973866 C196.417672,201.126382 195.263512,201.078703 194.055096,200.795917 C191.404802,200.176091 189.643968,197.989434 190.040197,195.301326 C190.456155,192.476757 190.732364,189.64068 192.202192,186.990386 C195.064575,181.832836 197.397557,176.354685 200.892919,171.581855 C203.132187,168.523824 205.905789,165.862021 208.38674,162.974977 C213.863246,156.597502 219.063543,149.871478 225.779703,144.786268 C232.693156,139.5498 237.646837,133.055594 241.217829,125.285565 C242.186205,123.176181 243.598489,121.27231 244.806905,119.274725 C244.607968,119.062636 244.409032,118.848902 244.208452,118.635169" id="Fill-282" stroke="#000000" stroke-width="3" fill="#000000"></path>
                <path d="M181.785486,241.578545 C181.349798,241.497984 180.8056,241.478254 180.322234,241.294115 C178.668267,240.661135 177.514107,241.290827 176.678902,242.688314 C175.13509,245.261335 173.295339,247.683098 172.700174,250.74113 C172.555493,251.484264 172.225028,252.268501 171.753171,252.852157 C171.052783,253.723532 170.002201,253.75477 169.471156,252.76502 C168.616222,251.176817 167.626473,249.56724 168.185467,247.569655 C168.680342,245.797312 169.069995,243.955917 170.137017,242.451563 C172.931992,238.505717 175.404723,234.364222 178.696217,230.725822 C183.219143,225.726106 188.259962,221.436641 193.698655,217.523677 C196.414712,215.570483 199.428353,214.334117 202.591606,213.459455 C205.477007,212.663709 208.465986,215.322223 208.270338,218.335864 C208.216082,219.180932 207.880685,219.886253 207.052057,220.182191 C206.315499,220.443603 205.518109,220.802018 204.774975,220.744474 C200.179708,220.389348 196.815873,223.00676 193.443819,225.456473 C191.120701,227.143322 189.103387,229.24613 186.84439,231.028337 C184.932298,232.539268 184.342066,233.98279 185.552125,236.402909 C186.934816,239.161714 184.991486,241.62458 181.785486,241.578545" id="Fill-292" stroke="#000000" stroke-width="3" fill="#000000"></path>
            </g>
        </g>
    </g>
</svg>