<?xml version="1.0" encoding="UTF-8"?>
<svg width="366px" height="424px" viewBox="0 0 366 424" version="1.1" xmlns="http://www.w3.org/2000/svg" xmlns:xlink="http://www.w3.org/1999/xlink">
    <!-- Generator: Sketch 51.1 (57501) - http://www.bohemiancoding.com/sketch -->
    <title>family</title>
    <desc>Created with Sketch.</desc>
    <defs></defs>
    <g id="ALL" stroke="none" stroke-width="1" fill="none" fill-rule="evenodd">
        <g id="family_DL" transform="translate(-212.000000, -265.000000)" fill="#000000" stroke="#000000">
            <g id="family" transform="translate(213.000000, 266.000000)">
                <path d="M285.711004,13.8375716 C282.132635,14.4152496 278.587422,15.0163304 275.139221,16.1950893 C271.541205,17.4268122 267.871965,19.1931029 264.767601,21.4348386 C263.252259,22.5273769 261.789721,23.6716475 260.35911,24.8701139 C259.228129,25.8185405 258.22486,26.9775918 257.217907,28.0553494 C254.483168,30.9708375 254.329669,35.556542 257.217907,38.4523226 C259.975976,41.2187723 264.844965,41.3727377 267.583387,38.4523226 C268.848218,37.1023543 270.133926,35.8312162 271.517873,34.6241277 C273.467924,33.2753911 275.467095,32.0658392 277.608713,31.0459726 C281.119542,29.7206388 284.738434,29.039496 288.431006,28.47044 C291.520634,28.1391065 294.559914,27.9149329 297.666733,28.1686679 C300.356036,28.6453446 302.940959,29.3979274 305.486586,30.3931595 C307.789071,31.470917 309.950337,32.724811 312.007223,34.2065737 C314.497591,36.3128199 316.642893,38.6703376 318.720655,41.1645765 C320.407916,43.5344114 322.052197,45.9498201 323.404216,48.5327431 C324.682556,50.9715545 325.856516,53.4300734 326.956797,55.9440199 C328.438983,59.8941554 329.701359,63.8134977 330.404999,67.9767212 C330.710769,71.036321 330.640773,74.058969 330.311671,77.1111785 C329.34033,83.1219864 327.570793,88.9061572 325.360408,94.5622289 C324.155748,97.0860292 322.958455,99.6307688 321.500829,102.016616 C319.81234,104.780602 318.100519,107.500247 316.18608,110.105341 C314.423911,112.281795 312.537716,114.305516 310.408378,116.126002 C307.290506,118.344335 303.909844,119.956661 300.435855,121.544351 C297.218516,122.87338 293.990125,124.179007 290.704019,125.31835 C287.465804,126.442913 284.226361,127.249692 280.872715,127.792882 C279.071251,127.918518 277.317679,127.972713 275.517443,127.835992 C273.943157,127.571172 272.382379,127.274326 270.831425,126.881407 C269.265736,126.481097 267.757761,125.967468 266.253471,125.400876 C264.751637,124.671696 263.333306,123.8526 261.964095,122.888161 C259.194974,120.573754 256.833545,117.914464 254.553164,115.114758 C250.688673,109.845447 247.169248,104.355658 244.433282,98.4150582 C243.599476,96.104346 242.88724,93.7862435 242.303944,91.3930058 C241.812748,89.4000781 241.465226,87.3837477 241.15086,85.3612586 C241.008413,83.9226063 240.87579,82.4938077 240.831582,81.0440698 C240.78369,79.3997197 240.922453,77.7726137 241.10788,76.1455077 C241.611357,73.445571 242.245001,70.8109157 243.071439,68.1873458 C243.755431,66.0256721 244.565905,63.9083404 245.41936,61.8070211 C246.61788,59.1834512 247.940427,56.6990661 249.592077,54.3501705 C250.014506,53.8488592 250.444303,53.35617 250.894976,52.8770298 C253.788125,49.8075763 253.936712,44.96321 250.894976,41.9122323 C249.452085,40.4637262 247.470106,39.6409352 245.43164,39.6409352 C244.74642,39.7320827 244.059973,39.8244619 243.373525,39.9205363 C242.064486,40.286358 240.927365,40.9502567 239.963392,41.9122323 C233.420651,47.0078701 230.518906,55.1581807 227.918019,62.7603746 C226.863174,65.8532309 226.196374,69.0433933 225.683073,72.263117 C225.27538,74.8361862 225.03101,77.4449754 225.001538,80.0525328 C224.973294,82.7709453 225.338008,85.6100667 225.773945,88.289064 C226.297069,91.4940071 226.830018,94.7556094 227.817323,97.8595512 C228.959356,101.453719 230.283131,104.989995 232.034248,108.334123 C233.443982,111.037755 235.013356,113.660093 236.696933,116.199906 C238.788203,119.351885 240.937189,122.484156 243.335458,125.414425 C245.461112,128.007202 247.610098,130.591356 250.176601,132.766579 C252.746788,134.945497 255.385743,136.928571 258.421339,138.41526 C260.700492,139.531201 263.09876,140.353992 265.516676,141.099185 C267.017282,141.556154 268.581744,141.825901 270.116734,142.128905 C273.056547,142.701656 276.16091,143.173406 279.153527,142.938147 C283.010649,142.630216 286.765849,142.027904 290.517364,141.099185 C293.400689,140.377395 296.249631,139.261454 299.017524,138.17877 C302.600805,136.779532 306.164438,135.34088 309.671583,133.751957 C312.304397,132.55965 314.856165,131.270036 317.269169,129.65771 C321.141027,127.083409 324.41731,123.831661 327.299407,120.203005 C329.971517,116.850255 332.278914,113.304125 334.523684,109.652067 C338.154856,103.748419 340.845386,97.1574691 342.822453,90.5271046 C344.438491,85.0989017 345.537543,79.5561485 345.925589,73.8939182 C346.227675,69.4523253 345.570699,64.9343656 344.664441,60.5999326 C344.304639,58.8632033 343.758183,57.1646573 343.215411,55.4808921 C342.093026,52.0062017 340.658731,48.5807803 339.104094,45.2846897 C337.76681,42.4418732 336.298132,39.6606428 334.596135,37.0185971 C332.274002,33.4342834 329.679255,30.0187157 326.757862,26.9049201 C320.617903,20.3620079 312.400181,15.8920854 303.69863,13.9102432 C300.871792,13.2672839 298.027763,13 295.182506,13 C292.022882,13 288.859575,13.32887 285.711004,13.8375716" id="Fill-86"></path>
                <path d="M251.672654,295.939617 C251.702009,295.977765 251.731363,296.015913 251.760718,296.054061 C251.731363,296.015913 251.700786,295.977765 251.672654,295.939617 M250.968147,294.616745 C251.035418,294.780412 251.102688,294.941618 251.171182,295.105285 C251.169959,295.104054 251.167513,295.102824 251.16629,295.101593 C251.090457,294.944079 251.025633,294.784104 250.968147,294.616745 M289.706269,156.378399 C289.747855,156.383321 289.790664,156.389474 289.833472,156.395627 C289.790664,156.390704 289.747855,156.384551 289.706269,156.378399 M286.739021,145.293341 C285.177119,146.249501 284.010278,147.822181 283.040357,149.340716 C281.488239,151.782185 280.112248,154.335637 278.558907,156.777106 C274.986223,162.392239 271.517503,168.083668 268.951432,174.245178 C266.414716,180.331623 264.164207,186.527589 261.875781,192.713711 C259.505407,199.111492 257.174172,205.500659 255.086335,211.999348 C253.156278,218.008267 251.479404,224.118092 249.663096,230.165159 C247.767286,236.486644 245.531454,242.730603 243.863141,249.113617 C242.158135,255.631995 240.709981,262.208211 239.210457,268.774581 C237.619199,275.754427 236.458474,282.888094 236.060966,290.040221 C235.955779,291.958694 235.985134,293.875936 236.16126,295.789487 C236.376527,298.159582 236.811951,300.197422 237.810003,302.355857 C238.913242,304.734567 240.824953,306.638273 242.98006,308.085434 C245.535123,309.802092 248.569642,311.056052 251.589483,311.638116 C254.517592,312.200491 257.479948,312.609043 260.422734,313.075433 C264.144637,313.671033 324.27728,307.542749 331.229398,306.191573 C333.011459,305.840858 334.683441,304.360471 335.572637,302.827169 C336.556012,301.140045 336.823871,299.082517 336.307722,297.193578 C335.80625,295.366168 334.592931,293.779951 332.96865,292.818869 C331.181697,291.770415 329.34215,291.699041 327.364392,292.082982 C319.274788,293.658124 272.059337,298.964381 265.693086,298.363858 C263.341058,298.00576 260.998816,297.588594 258.650458,297.212036 C256.448872,296.85763 254.320673,296.444155 252.24262,295.709499 C251.955191,295.560599 251.676324,295.406777 251.401125,295.24434 C251.392564,295.209884 251.386448,295.176658 251.37911,295.143433 C251.105134,291.628898 251.480627,288.078677 251.875689,284.581371 C252.312337,281.800262 252.764885,279.025306 253.36176,276.273731 C254.111522,272.797345 254.905316,269.332034 255.688102,265.866723 C257.131364,259.457866 258.464546,253.060085 260.279631,246.743522 C262.051908,240.577089 263.748352,234.389737 265.401987,228.188848 C267.088646,221.873516 268.650549,215.494193 270.743278,209.293305 C274.256031,198.912138 277.801807,188.512513 281.773222,178.291323 C282.606156,176.395 283.475782,174.529442 284.431026,172.683573 C285.530595,170.563285 286.772045,168.515601 287.929101,166.42977 C288.999316,164.492838 290.150256,162.607591 291.215579,160.670659 C291.593518,159.987687 291.95311,159.288718 292.315148,158.59098 C293.160313,159.508992 293.960222,160.468844 294.763801,161.43854 C296.266995,163.471457 297.77875,165.520372 299.037323,167.713264 C300.71909,170.645734 302.381287,173.581896 304.000676,176.552514 C306.834606,181.734483 309.351752,187.065352 311.965523,192.358074 C314.841039,198.179944 317.913474,203.884909 320.961447,209.610794 C322.529465,212.556801 324.010643,215.542186 325.510167,218.522649 C326.707585,220.906281 327.750892,223.374823 328.837008,225.815061 C329.820383,228.305753 330.813543,230.791523 331.697846,233.322825 C332.763169,236.380814 333.756329,239.457262 334.736034,242.547247 C336.633067,248.518017 338.056759,254.656146 339.605208,260.727824 C341.09984,266.611223 342.776714,272.456474 344.014495,278.402633 C345.118957,283.700277 345.988583,289.079138 346.770146,294.43708 C346.870441,295.335403 346.956058,296.236187 347.039229,297.13574 C347.096715,297.759644 347.15787,298.379856 347.215356,299.000068 C347.310758,299.913158 347.415945,301.110511 347.593295,301.874701 C347.836692,302.91331 348.275786,303.86947 348.744235,304.82686 C349.986907,307.349548 353.049558,308.869313 355.748946,308.869313 C358.701517,308.869313 361.190532,307.273252 362.757327,304.82686 C363.727248,303.307095 363.789626,301.811941 364,300.091592 C363.996331,298.986532 363.782288,297.936847 363.360317,296.945001 C362.97504,294.008839 362.543284,291.108363 361.902378,288.209119 C361.223556,285.142515 360.641359,282.061145 360.024915,278.984697 C358.70641,272.413404 356.751891,266.015623 354.907451,259.583385 C353.082581,253.228674 351.358006,246.849352 349.385141,240.534019 C347.239818,233.664926 344.497621,227.030873 341.693045,220.411588 C341.195242,219.238846 340.631392,218.094407 340.082218,216.941354 C339.317779,215.350216 338.610825,213.711084 337.784007,212.148248 C336.284483,209.311763 334.826544,206.45682 333.249964,203.664635 C329.800813,197.53512 326.312523,191.440061 323.054176,185.210869 C321.564437,182.359617 320.135852,179.47514 318.639997,176.625118 C317.134357,173.755408 315.539431,170.933689 313.948174,168.116894 C312.438864,165.444076 310.947902,162.747877 309.251458,160.194425 C307.078003,156.935851 304.770008,153.8311 302.243077,150.83587 C301.315964,149.739424 300.303235,148.730349 299.251366,147.749577 C297.579384,146.196586 295.769192,145.144441 293.638546,144.380251 C292.905907,144.119368 292.118229,144.000002 291.323212,144.000002 C289.7026,143.998772 288.045295,144.494695 286.739021,145.293341" id="Fill-88"></path>
                <path d="M277.927582,313.427052 C277.833,326.877171 277.657175,340.318654 277.751757,353.763838 C277.803898,360.57896 277.894842,367.382978 278.059755,374.193165 C278.221029,380.617195 278.23073,387.031355 277.899693,393.450449 C277.756607,396.13011 277.505601,398.852951 277.666875,401.537546 C277.682639,401.812668 277.705678,402.08779 277.733568,402.362911 C276.3306,402.596086 274.930058,402.877376 273.536792,403.161134 C272.257508,403.426386 270.974588,403.696573 269.695304,403.96676 C266.748709,404.60213 263.503817,405.21406 262.026881,408.347733 C261.117438,410.279754 260.685756,412.168593 261.259311,414.299244 C261.624301,415.60453 262.273037,416.742029 263.21522,417.705572 C264.158616,418.665413 265.275412,419.325458 266.564395,419.691876 C266.634726,419.701746 266.706269,419.715317 266.777811,419.725187 C268.112874,420.091604 269.449149,420.091604 270.789061,419.725187 C271.049768,419.652397 271.305625,419.562334 271.556631,419.461169 C271.812488,419.421689 272.065919,419.387145 272.295099,419.335328 C273.005677,419.171242 273.711405,418.968911 274.413495,418.785085 C275.743706,418.433472 277.075131,418.086794 278.415044,417.773427 C279.84105,417.441553 281.271907,417.128186 282.706402,416.84813 C285.539014,416.28925 288.448019,415.715566 290.5458,413.498554 C292.568401,411.364202 293.084965,408.568571 292.923691,405.721123 C292.866699,404.727971 292.767266,403.739753 292.667834,402.751536 C292.416828,400.279142 292.592653,397.773437 292.706637,395.301044 C293.000084,388.925129 293.075264,382.588695 292.923691,376.207846 C292.767266,369.604925 292.540512,363.008173 292.459268,356.405253 C292.284655,342.077952 292.431379,327.759287 292.530811,313.427052 C292.558701,309.379185 289.186486,306 285.227378,306 C281.229467,306 277.955472,309.379185 277.927582,313.427052" id="Fill-90"></path>
                <path d="M308.076815,311.651576 C308.076815,325.040665 307.673045,338.487456 308.716939,351.848308 C309.226576,358.404125 309.92825,364.940299 310.312324,371.510848 C310.682857,377.768338 310.317248,384.00373 310.019345,390.25631 C309.736213,396.298956 309.600802,402.346512 309.408765,408.389158 C309.36568,409.631572 309.312746,410.867846 309.259813,412.105349 L309.201956,413.458253 C309.163794,414.326224 309.283202,414.954797 309.446926,415.923437 C309.538021,416.651452 309.797763,417.327904 310.22123,417.961387 C310.856429,419.030698 311.71198,419.883936 312.784187,420.517419 C314.62085,421.903471 317.213351,422.080257 319.435319,421.974677 C320.305641,421.931708 321.175963,421.816306 322.046286,421.725458 C323.237901,421.601462 324.440595,421.448002 325.628517,421.260166 C327.686761,420.934831 329.667452,420.142977 331.345315,418.895653 C331.84141,418.512616 332.341199,418.128352 332.836064,417.745316 C333.754396,416.829466 334.384672,415.745423 334.735509,414.494416 C335.264842,412.595194 334.990327,410.522868 333.995673,408.820074 C331.907885,405.267166 327.431942,404.273972 323.887872,406.178105 C323.800471,406.229667 323.713069,406.278775 323.624437,406.327882 C323.594893,406.337703 323.565349,406.347525 323.537035,406.356119 C323.598586,403.548412 323.67737,400.740706 323.7143,397.929316 C323.796778,391.762674 324.281795,385.591122 324.258406,379.423252 C324.233786,372.565426 323.585045,365.76039 322.896912,358.945532 C322.238323,352.395854 321.6856,345.863363 321.516952,339.27931 C321.276906,330.076613 321.420934,320.854273 321.420934,311.651576 C321.420934,308.026234 318.386501,305 314.751337,305 C311.111248,305 308.076815,308.026234 308.076815,311.651576" id="Fill-92"></path>
                <path d="M253.140079,221.523057 C252.957207,221.930685 252.771897,222.337188 252.585368,222.742564 C252.769459,222.336062 252.955988,221.928433 253.140079,221.523057 M284.328204,150.898585 C282.532406,152.10458 280.77562,153.357869 279.051751,154.641561 C277.380306,155.886968 275.913676,157.404878 274.489717,158.88225 C271.165113,162.326824 268.346454,166.197044 265.631421,170.063886 C262.40313,174.669413 259.673468,179.520419 256.921861,184.372551 C253.902043,189.707756 251.059001,195.131919 248.196452,200.536939 C242.243375,211.762491 236.404898,223.031958 232.076939,234.894851 C231.195498,237.313598 230.38111,239.754865 229.633776,242.21415 C229.292415,243.310918 228.971781,244.411065 228.677967,245.521346 C228.044013,245.532607 227.411277,245.615934 226.776104,245.772455 C225.466744,246.115899 224.328064,246.727342 223.361283,247.615792 C222.399379,248.504242 221.737384,249.559347 221.370422,250.769846 C221.357011,250.80025 221.342382,250.835157 221.327752,250.866686 C220.61821,252.595167 221.142442,254.88667 222.118976,256.430479 C223.043087,257.886456 224.899842,259.483189 226.790733,259.746684 C228.547519,259.993288 229.49967,260.147556 231.257675,259.786096 C231.667307,259.702768 232.072062,259.605928 232.476818,259.513593 C233.200989,259.351442 233.923941,259.21519 234.657865,259.113846 C238.538399,258.599243 241.62527,255.946279 242.453068,252.392478 C242.801743,250.910602 243.049229,249.406205 243.386932,247.923202 C243.80144,246.097882 244.339083,244.295083 244.863314,242.495661 C246.793218,235.830596 249.564331,229.411008 252.443948,223.053353 C255.963615,215.943499 259.597881,208.876435 263.345528,201.861169 C269.188882,190.929516 274.915198,179.812065 282.848164,170.017718 C284.934118,167.627122 287.171246,165.370526 289.739981,163.419089 C290.317855,163.013712 290.899387,162.611714 291.485794,162.216472 C293.042641,161.169249 294.219114,160.070228 294.748222,158.297832 C295.252947,156.608763 294.990832,154.765426 294.033804,153.252021 C293.104817,151.787035 291.567477,150.692518 289.789966,150.238722 C289.18649,150.085579 288.497674,150 287.796667,150 C286.550702,150 285.263287,150.269125 284.328204,150.898585" id="Fill-94"></path>
                <path d="M161.12842,272.264205 C161.021033,272.384107 160.91488,272.506168 160.807492,272.62715 C160.909942,272.502928 161.01733,272.380866 161.12842,272.264205 M185.590562,269.353085 C188.106146,269.129485 190.646417,269.214821 193.158298,269.443822 C194.40745,269.617733 195.65043,269.817568 196.890941,270.037928 C196.710727,270.696845 196.663822,271.407612 196.550263,272.06545 C196.367581,273.099194 196.183664,274.129698 196.000982,275.163443 C195.649195,277.146677 195.292471,279.128831 194.944387,281.116386 C194.124786,285.850871 193.319997,290.585356 192.53866,295.328483 C191.786947,299.876095 191.053749,304.437749 190.461266,309.008045 C190.161322,311.299134 189.809535,313.585902 189.573776,315.881312 C189.388625,317.692796 189.21952,319.505359 189.024495,321.316843 C186.595315,321.327645 184.163666,321.275795 181.738188,321.256352 C177.929016,321.225026 174.091455,321.242309 170.282283,321.026271 C169.63302,319.023593 169.112129,316.979868 168.51224,314.982592 C167.442067,311.396351 166.647153,307.762583 165.846066,304.125573 C164.29697,297.074074 162.725656,290.038778 161.424662,282.948393 C160.986471,279.881725 160.688995,276.861506 160.99758,273.766753 C161.11978,273.195331 161.264198,272.643353 161.448114,272.089214 C161.659186,272.050327 161.871493,272.014681 162.083799,271.981195 C165.760897,271.611769 169.430588,271.277989 173.097811,270.846992 C176.326844,270.463524 179.543533,270.015244 182.765159,269.599369 C183.708194,269.516195 184.648761,269.43626 185.590562,269.353085 M172.011592,258.630011 C169.536742,258.907621 167.060656,259.157145 164.568525,259.344018 C163.165081,259.449877 161.762871,259.554656 160.364364,259.702643 C159.076948,259.841987 157.817922,259.981332 156.555192,260.229777 C153.585371,260.824963 151.145082,262.846004 149.43799,264.9513 C146.743427,268.280454 146.159584,272.601225 146.015167,276.576335 C145.952215,278.243073 146.091696,279.9649 146.313877,281.618675 C146.791566,285.184392 147.370471,288.728505 148.006156,292.276938 C148.984988,297.728671 150.195875,303.142598 151.332701,308.568407 C151.921481,311.38771 152.533714,314.197292 153.271849,316.99067 C153.942095,319.526963 154.751822,322.041652 155.503535,324.560662 C155.773855,325.459382 156.087378,326.34514 156.434227,327.223337 C156.810701,328.177147 157.253828,329.130958 157.817922,330.016716 C159.134962,332.092846 161.666592,333.28646 164.192051,333.877325 C165.678196,334.227308 167.292712,334.341808 168.820825,334.455228 C169.544148,334.505997 170.267471,334.57837 170.990794,334.611856 C172.495454,334.683149 173.995176,334.74256 175.499836,334.793329 C180.802559,334.97048 186.149718,335.126028 191.448738,334.848418 C193.869278,334.725276 196.589762,334.709074 198.720232,333.615918 C200.856874,332.522763 202.461515,330.636746 203.141637,328.560616 C203.748932,326.696203 203.946426,324.759417 204.188357,322.834514 C204.487067,320.40408 204.612969,317.953122 204.930195,315.522688 C205.559708,310.668301 206.227485,305.827957 206.955746,300.985453 C207.77905,296.033849 208.607292,291.085485 209.482439,286.138202 C209.92063,283.669961 210.373632,281.204961 210.832806,278.741041 C211.048816,277.563631 211.270997,276.386221 211.473429,275.209891 C211.743749,273.640371 212.393012,271.138644 211.668454,269.54752 C211.498115,269.002023 211.245076,268.475969 210.909336,267.968278 C210.087265,266.743339 208.701102,265.635062 207.132256,265.129531 C207.479106,262.268101 205.420227,259.152824 202.061589,258.520912 C199.000427,257.943008 195.933093,257.495809 192.818855,257.174991 C191.601796,257.049689 190.389674,257 189.178787,257 C187.031036,257 184.889457,257.157708 182.741706,257.33594 C179.154716,257.636234 175.578834,258.17849 172.011592,258.630011 Z" id="Fill-98"></path>
                <path d="M239.019115,350.107504 C238.967941,350.174576 238.916766,350.241648 238.865591,350.30872 C238.913111,350.241648 238.963067,350.175818 239.013023,350.111231 C239.01546,350.109989 239.016678,350.108747 239.019115,350.107504 M194.20235,327.248414 C190.389842,328.320322 188.280717,332.347119 189.223792,336.185121 C191.524212,345.582637 193.063105,355.199999 194.421669,364.785067 C194.665358,366.704068 194.901736,368.626796 195.153953,370.545797 C195.520705,373.355363 195.905733,376.145056 196.757424,378.852773 C197.001113,379.619131 197.286228,380.380521 197.54332,381.14688 C198.085527,382.762815 198.761763,384.295532 199.970458,385.523941 C201.413094,386.99828 203.773218,388.128566 205.8531,387.988211 C206.66702,387.944739 207.471192,387.847857 208.271709,387.692598 C209.403643,387.377112 210.6891,386.687762 211.712592,386.066726 C213.273417,385.116541 214.716054,383.786282 216.047812,382.525579 C218.504193,380.201663 220.574327,377.318814 222.531146,374.562657 C225.619899,370.225342 228.646511,365.849523 231.574429,361.390485 C234.060053,357.605892 236.45673,353.726902 239.101969,350.044159 C240.345999,349.093974 241.29273,347.746326 241.735024,346.106791 C242.645201,342.744503 241.13555,339.494001 238.356282,337.645798 C236.509123,336.418631 234.373192,336.373916 232.296966,336.854598 C229.799158,337.43713 228.346774,339.474127 226.900482,341.395613 C226.043917,342.525898 225.28239,343.734434 224.506242,344.923097 C222.978315,347.271854 221.478412,349.644212 219.965106,352.001664 C216.49498,357.397224 212.985865,362.777879 209.192852,367.944898 C208.616529,364.206262 208.170579,360.44651 207.571105,356.707874 C206.262497,348.537526 204.939268,340.362209 202.969046,332.32352 C202.180713,329.111522 199.144354,327 196.021485,327 C195.413482,327 194.801823,327.080735 194.20235,327.248414" id="Fill-100"></path>
                <path d="M154.571975,331.238752 C154.342936,338.289373 153.826069,345.293268 153.184271,352.315607 C152.758039,357.023809 152.400395,361.741847 151.914148,366.44513 C150.521544,364.011719 149.327359,361.473791 148.151547,358.895285 C146.869176,356.085611 145.501068,353.314056 144.017829,350.605211 C142.615428,348.040231 141.227723,345.451888 139.505647,343.088566 C138.869974,342.214308 138.247773,341.292096 137.4492,340.551867 C136.893138,340.037887 136.290534,339.5485 135.625465,339.173467 C134.137327,338.333639 133.368149,338.294291 131.692616,338.102471 C130.614787,337.97828 129.524711,338.027464 128.439533,337.988117 C128.366045,337.972132 128.292557,337.954917 128.219068,337.936473 C125.954404,336.490444 122.9916,336.361334 120.60813,337.761867 C117.24359,339.74032 115.914676,344.371056 117.99562,347.766027 C119.311061,349.909248 121.128672,351.244611 123.472949,352.089358 C124.90842,352.603338 126.396558,352.781632 127.907968,352.925497 C128.210495,352.955008 128.510572,352.966074 128.811874,352.966074 C130.177532,355.245783 131.337422,357.681653 132.553654,360.019154 C134.300226,363.377237 135.750395,366.869347 137.424704,370.254482 C139.099012,373.640845 141.008483,376.792352 143.380931,379.745891 C144.763736,381.474732 146.266572,383.046181 147.926182,384.505736 C149.180383,385.606243 150.538692,386.614528 151.936194,387.513378 C153.184271,388.320006 155.184377,389.083598 156.705585,388.992606 C158.221894,388.905304 159.561831,388.75652 160.906667,387.969566 C162.658138,386.941606 163.830277,385.279165 164.47085,383.37203 C164.882384,382.157169 164.935051,380.811968 164.997516,379.529478 C165.056307,378.297403 165.142043,377.072705 165.28412,375.849236 C165.722601,372.690352 166.16843,369.532697 166.456259,366.355368 C166.791855,362.699718 167.058863,359.03915 167.374863,355.379811 C168.077901,347.334431 168.734396,339.312413 168.996505,331.238752 C169.126334,327.290454 165.619717,324 161.787302,324 C157.758918,324 154.700579,327.295372 154.571975,331.238752" id="Fill-102"></path>
                <path d="M237.020764,335.067075 C235.863913,335.592007 234.693379,336.091822 233.526577,336.597917 C231.933108,337.284849 230.694158,339.285366 230.252565,340.895324 C229.746287,342.74891 230.008755,344.774544 230.971554,346.438502 C231.904498,348.047204 233.449454,349.249021 235.228267,349.740046 C235.858938,349.827953 236.490852,349.910837 237.122766,350 C238.410229,349.994977 239.610617,349.665953 240.718955,349.017951 C242.327351,348.32474 243.922063,347.6039 245.514288,346.875526 C245.647388,346.83534 245.779244,346.801433 245.91732,346.771293 C248.906473,346.148408 251,342.979981 251,340.031322 C251,338.181503 250.266084,336.391963 248.973645,335.087169 C248.502197,334.724237 248.035725,334.361306 247.569253,333.993352 C246.49077,333.36042 245.325211,333.046465 244.07631,333.041442 C243.837476,333.013814 243.599887,333 243.364785,333 C241.125719,333 239.008557,334.166654 237.020764,335.067075" id="Fill-104"></path>
                <path d="M217.061508,251.05888 C216.335978,251.795078 215.584969,252.466936 214.802415,253.122709 C210.00154,256.718324 204.833047,259.935324 199.493484,262.600484 C197.910177,263.388649 196.706622,265.214915 196.251649,266.902602 C195.749359,268.758564 196.005357,270.782799 196.96262,272.44574 C197.885912,274.055477 199.412195,275.259377 201.175064,275.751826 C203.109002,276.293766 204.862165,275.90154 206.616541,275.026763 C210.217501,273.228956 213.640111,271.150279 217.051802,269.004788 C220.596952,266.771448 224.251295,264.427987 226.952015,261.14541 C228.189541,259.647031 229,258.120194 229,256.09967 C229,254.2202 228.256271,252.392697 226.952015,251.05888 C225.605295,249.685468 223.809668,249 222.012828,249 C220.213561,249 218.413081,249.687943 217.061508,251.05888" id="Fill-106"></path>
                <path d="M114.798463,224.221713 C113.029416,224.624643 111.140058,225.680564 110.300343,227.072597 C109.547792,228.334033 109.029723,229.382867 109.001487,230.806284 C108.981844,231.613157 109.159854,232.42408 109.356278,233.214755 C109.471678,233.677416 109.625134,234.131978 109.787185,234.58654 C110.29666,235.990722 110.804909,237.394904 111.365946,238.790987 C112.674624,242.056951 114.410525,245.149796 116.265508,248.226443 C117.186248,249.757173 118.141362,251.271706 119.133305,252.77004 C119.905499,253.937323 120.687514,255.083346 121.517407,256.226332 C123.392033,258.808934 125.703703,261.205256 128.154098,263.431497 C129.985756,265.092825 132.134148,266.501057 134.272719,267.884991 C136.685057,269.451155 139.169826,270.94544 141.744214,272.326337 C144.133226,273.607008 146.521011,274.89679 148.928438,276.158225 C152.317987,277.933954 157.032174,276.755534 159.008695,273.978554 C161.089566,271.040604 159.746514,267.438528 156.360648,265.666849 C152.176807,263.476042 147.954909,261.284222 143.983453,258.831206 C142.644083,257.947391 141.330495,257.045354 140.070923,256.084598 C138.743831,255.070185 137.557918,253.939348 136.42725,252.780164 C133.820943,249.815892 131.760942,246.567139 129.726721,243.322436 C128.686899,241.657058 127.681451,239.968395 126.749663,238.254422 C126.24387,237.147882 125.794549,236.024131 125.353822,234.899368 C124.906956,233.771568 124.480961,232.647818 124.203511,231.490658 C124.201056,231.465348 124.199828,231.441051 124.197373,231.415741 C124.867671,228.882747 123.28891,226.143225 120.596667,224.846356 C119.441446,224.287518 118.116809,224 116.787261,224 C116.11819,224 115.449119,224.073904 114.798463,224.221713" id="Fill-108"></path>
                <path d="M122.260941,233.358357 C122.322708,233.507665 122.385687,233.656973 122.447454,233.805057 C122.37842,233.659421 122.315441,233.511337 122.260941,233.358357 M100.498211,153.269244 C98.6294429,153.789375 97.0029002,155.05727 96.023099,156.748613 C95.7675513,157.351964 95.5168482,157.954092 95.266145,158.55622 C94.911285,159.899993 94.911285,161.242542 95.266145,162.586315 C95.7021505,165.539433 96.1030333,168.498671 96.502705,171.460356 C97.0719344,177.200152 97.60483,182.933828 98.0808027,188.683413 C98.5640421,194.434223 99.1223714,200.189928 99.9023368,205.907694 C100.289897,208.771473 100.696836,211.630356 101.132841,214.484344 C101.510713,216.96139 101.917651,219.484941 102.641905,221.884886 C103.351625,224.232205 104.165502,226.541585 104.831621,228.902367 C105.380261,230.858058 106.146904,232.774587 107.358031,234.401066 C107.450076,234.522226 107.542122,234.64461 107.632956,234.764546 L107.632956,234.868572 C107.637801,236.38001 107.831581,237.866972 108.380221,239.267042 C108.640614,240.151876 109.023329,240.974294 109.52958,241.724506 C110.035831,242.44657 110.579627,243.134366 111.162179,243.794014 C113.353106,246.337148 117.491525,246.610063 120.250471,244.979912 C123.607713,242.992401 125.174911,238.130097 122.992461,234.683772 C123.198352,233.326537 123.283131,231.969302 122.790203,230.614515 C122.139828,228.826489 121.675967,228.226809 120.566575,226.812053 C120.257738,226.384934 119.967067,225.954143 119.706675,225.498876 C119.177413,223.839353 118.775319,222.13822 118.192767,220.493383 C117.53997,218.63927 116.90534,216.816977 116.503246,214.890658 C115.697847,211.045362 115.133462,207.160904 114.587244,203.272774 C113.779423,196.283441 113.138737,189.289213 112.547707,182.277851 C111.876743,174.336373 110.887253,166.438953 109.719727,158.55622 C109.449646,156.72536 107.784347,154.922648 106.275284,154.034142 C105.122291,153.352465 103.800953,153 102.474769,153 C101.809861,153 101.144952,153.088116 100.498211,153.269244" id="Fill-110"></path>
                <path d="M75.4995658,141.77611 C64.6589518,142.688164 53.8141425,143.537189 42.9735285,144.430705 C40.297986,144.651921 37.6234925,144.859543 34.9563406,145.168504 C31.8958809,145.530607 28.9172292,146.226387 25.9469681,147.148327 C22.5582274,148.196324 20.5350516,152.52178 21.4569653,156.465361 C22.3946113,160.481856 25.9752863,162.804008 29.364027,161.756012 C31.1501691,161.204825 32.9310672,160.748798 34.7413323,160.387932 C39.5281514,159.893594 44.329654,159.606878 49.1269614,159.236125 C54.6007582,158.81223 60.0745551,158.420467 65.5525473,158.01511 C70.5753511,157.648064 75.598155,157.136424 80.6251541,156.855888 C85.5766381,156.582766 90.5753191,156.23055 95.5268031,156.70635 C95.5865859,157.058566 95.6411246,157.410782 95.691468,157.766705 C95.9442339,160.885977 108.488133,156.943633 108.230123,154.905725 C108.139925,154.18152 108.045531,153.462258 107.955332,152.742996 C107.841011,151.830943 107.607124,150.990569 107.344918,150.126713 C106.787994,148.29272 106.033892,147.022271 104.973534,145.540493 C103.723339,143.802896 101.691773,142.876012 99.9465349,142.128326 C98.8599563,141.664884 97.4922937,141.573432 96.3941781,141.414008 C94.9887579,141.206386 93.5833378,141.114934 92.1663806,141.051905 C91.4206688,141.016066 90.6739083,141 89.9271477,141 C87.8704097,141 85.811574,141.112462 83.7590313,141.201443 C81.0016809,141.322555 78.2485257,141.543772 75.4995658,141.77611 Z" id="Fill-112"></path>
                <path d="M42.6999614,269.953057 C42.4947921,283.121372 42.2224542,296.285992 42.1699407,309.44938 C42.146737,316.114215 42.0514798,322.787672 42.2517641,329.446348 C42.4715884,336.600176 42.74759,343.745382 43.0858752,350.895514 C43.3252394,355.78421 43.7160381,360.706161 43.6916132,365.608406 C43.6781795,368.129736 43.6586396,370.655993 43.377753,373.167469 C43.1151851,375.534834 42.8098736,377.897273 42.5851643,380.269565 C42.2139055,384.281276 42.3470213,388.342255 42.4044199,392.365052 C42.4325086,394.371523 42.4752522,396.363214 42.6327929,398.359831 C42.682864,399.005252 42.7463688,399.651905 42.8123161,400.296094 C42.0600285,400.402022 41.3114047,400.50056 40.5774359,400.621268 C39.704245,400.760453 38.8310541,400.919345 37.9627482,401.083163 C37.5096659,401.169384 37.0663536,401.285165 36.62182,401.419423 C35.9403648,401.66084 35.2772282,401.949062 34.6421803,402.286553 C33.4453592,402.902413 32.724824,403.912423 31.9896339,404.985251 C30.9259286,406.529828 30.7830429,408.829448 31.2605501,410.58588 C31.6037202,411.8176 32.2241132,412.885501 33.1156227,413.789583 C34.0132386,414.68997 35.0720589,415.315684 36.2933049,415.65687 C36.3128448,415.666724 36.3311635,415.671651 36.3507034,415.681505 C37.8968009,416.262876 39.7164574,416.002983 41.2601124,415.268879 C42.216348,415.016376 43.2116635,414.86857 44.1691204,414.680117 C45.7811651,414.36726 47.4042011,414.097513 49.0211308,413.79451 C50.575777,413.501361 52.0974495,412.948319 53.4762362,412.15386 C54.5875701,411.519524 55.8002674,410.195425 56.443864,409.089341 C57.0117434,408.112587 57.5930565,406.139372 57.4831444,404.990178 C57.3353736,403.412345 57.1302043,401.838207 56.9824335,400.260375 C56.5061476,395.252202 56.6294934,390.194762 56.7198656,385.171809 C56.821229,379.523143 57.8177658,373.965623 57.9801915,368.326811 C58.0705637,365.146511 57.8324207,361.956357 57.6553401,358.78591 C57.4794806,355.595757 57.28286,352.405603 57.1021156,349.21668 C56.7162019,342.402807 56.443864,335.595093 56.2008361,328.777525 C55.9663568,322.248179 56.0481803,315.690503 56.0432953,309.156231 C56.0335254,296.088917 56.2863233,283.020371 56.4914926,269.953057 C56.5488912,266.161824 53.3101468,263 49.5975589,263 C45.7909351,263 42.762245,266.161824 42.6999614,269.953057" id="Fill-116"></path>
                <path d="M83.463867,262.085122 C83.5634741,268.560349 83.3217447,275.010982 83.0277825,281.480061 C82.7143846,288.219657 82.3633305,294.958024 81.9600434,301.697621 C81.5324619,308.777825 81.1534692,315.848191 81.0149911,322.941921 C80.9542551,326.045505 81.0915185,329.138022 81.1862667,332.241605 C81.2384996,333.960627 81.5093822,335.704241 81.6697253,337.414655 C81.8215653,339.027928 82.0547916,340.627675 82.2588646,342.232341 C82.6524339,345.286739 83.0508621,348.341138 83.2792295,351.41521 C83.5586152,355.181564 83.7432526,358.928244 83.8914485,362.698286 C84.1428956,369.312461 84.1708341,375.941391 84.2230671,382.560484 C84.2753001,389.154984 84.484232,395.706447 85.6843755,402.205037 C86.1824108,404.890546 86.8286419,407.546545 87.2878061,410.240662 C87.852651,413.550823 90.0209266,416.476111 93.3237507,417.403251 C95.9864174,418.147177 99.1276838,418.175458 101.846228,417.599992 C102.145049,417.532362 102.434152,417.464733 102.728114,417.378659 C105.798927,416.451518 108,413.656572 108,410.366084 C108,408.449093 107.235941,406.586205 105.898534,405.226235 C104.502821,403.814621 102.757268,403.194888 100.816145,403.098977 C100.624219,403.08914 100.432293,403.084221 100.240367,403.085451 C100.195423,402.85551 100.151693,402.628029 100.104319,402.401777 C99.6876698,400.392563 99.2345792,398.393187 98.8847397,396.369217 C98.2227172,390.380924 98.2603736,384.355742 98.2117848,378.333019 C98.1546929,371.579897 97.9931351,364.831693 97.741688,358.082259 C97.4950998,351.497596 96.6642312,344.984251 95.8345774,338.451232 C94.9891321,331.803857 95.0413651,325.128202 95.1701254,318.441479 C95.2551558,314.218933 95.5163207,309.992698 95.7629089,305.775071 C96.0811656,300.443399 96.3751278,295.111728 96.6593724,289.780056 C97.1622665,280.562757 97.5995658,271.317177 97.4574435,262.085122 C97.4003517,258.222858 94.321036,255 90.4630847,255 C86.6901638,255 83.4067752,258.222858 83.463867,262.085122" id="Fill-118"></path>
                <path d="M115.835181,49.2378959 C115.888197,49.6356013 115.942447,50.0333067 115.99423,50.4322433 L115.835181,49.2378959 Z M30.3995819,38.3163891 C30.2602593,38.4949255 30.1209366,38.6746933 29.981614,38.8532298 C30.1209366,38.673462 30.2590263,38.4949255 30.3995819,38.3163891 Z M71.3049541,0.611949143 C68.7478289,1.03551153 66.2375556,2.21385223 64.0034617,3.47345781 C62.5633835,4.28610657 61.2724914,5.42627741 59.9963947,6.47040794 C58.6241284,7.58595305 57.386253,8.82708934 56.2494789,10.1728849 C55.3050441,11.2945865 54.4333529,12.4913965 53.599883,13.6992881 C52.72326,14.9785942 52.1511742,16.4216614 51.5581282,17.845028 C51.0772802,19.0036681 50.6284887,20.1684647 50.2142196,21.3517305 C49.6125431,23.0582929 50.0268122,25.2081183 50.9231623,26.7336817 C51.8380065,28.2961836 53.3545272,29.464674 55.1028413,29.9461068 C56.9091038,30.4410838 58.8793478,30.1862076 60.4920381,29.2393487 C62.1441826,28.2727892 63.0886175,26.829722 63.7100211,25.0640578 C63.9726381,24.3142047 64.2475845,23.5729705 64.5385592,22.8366615 C65.0058449,21.8848774 65.5483401,21.0045079 66.1537154,20.143839 C67.2781601,18.8312881 68.5123367,17.664029 69.8389841,16.5607967 C70.5762844,16.0572007 71.3271471,15.6040875 72.1223958,15.1977631 C73.0397058,14.8800913 73.9631807,14.6313716 74.9113143,14.4417535 C76.3291996,14.3531009 77.7187271,14.3875769 79.1279817,14.5143994 C82.2843175,15.0709407 85.3851708,15.9229906 88.445337,16.8686182 C91.5363268,17.8253274 94.6273166,18.7906557 97.6418639,19.9566835 C99.4493593,20.8136586 101.121231,21.8196192 102.743785,22.9794906 C104.972947,24.8128755 107.043059,26.7964772 108.896174,29.0115608 C109.94171,30.5285051 110.844225,32.0947009 111.632076,33.756937 C113.804522,39.3506693 114.970887,45.2571483 116.086701,51.1328451 C116.900444,57.3225198 117.5687,63.4912627 116.955927,69.7375765 C116.166843,74.4041505 114.586209,78.7776784 112.882281,83.184451 C111.315209,86.7588742 109.675394,90.2803522 107.898722,93.7611977 C105.948205,97.5917285 103.402177,101.111975 100.866012,104.575583 C98.5234186,107.440785 96.127809,110.165621 93.2772433,112.564166 C90.7275158,114.419714 88.0286021,116.029005 85.1669398,117.374801 C82.9686012,118.237932 80.6925872,118.965622 78.3647896,119.368253 C77.3513099,119.540633 76.3365972,119.717938 75.3218846,119.894012 C71.9399201,120.292948 68.5567227,120.598307 65.1451675,120.753449 C61.0148062,120.939374 56.8326613,121.073584 52.7084647,120.714048 C51.1364615,120.43824 49.6113102,120.059004 48.105886,119.527089 C44.711592,117.887016 41.6551247,115.763047 38.6245491,113.536882 C35.84796,111.334112 33.1441145,109.072239 30.5980858,106.603511 C28.121102,104.195115 25.8463209,101.622959 23.6504482,98.9670749 C21.2745658,95.6893916 19.1045849,92.3649194 17.3870944,88.6784491 C16.4734831,86.279904 15.7707052,83.8468828 15.3095843,81.3239778 C15.0691603,78.5917542 15.1912217,75.9235574 15.4168504,73.1802522 C15.8459148,70.2928865 16.3785464,67.4399969 17.1750281,64.6141955 C17.9764414,61.757612 18.9886882,58.9946062 20.1069681,56.2574574 C21.6111594,52.9834679 23.0919247,49.6750024 24.880926,46.5401483 C26.6723932,43.3942125 28.777028,40.4834524 30.9581054,37.6022432 C32.2909175,35.9116875 33.6668826,34.2617643 35.2166928,32.7645205 C36.8034913,31.2328007 38.4408405,29.7503324 40.1484675,28.3552853 C40.5134188,28.0930214 40.882069,27.8381452 41.2618156,27.5943506 C42.9521814,26.5021999 44.2184146,25.0209628 44.7621427,23.0484427 C45.3021721,21.0820789 45.0222938,18.9421038 43.9915529,17.1813649 C42.9953344,15.4784963 41.3431899,14.2090405 39.4407578,13.6845126 C38.7614059,13.5933975 38.0869857,13.5022823 37.4137984,13.414861 C36.0353674,13.414861 34.7543389,13.7620836 33.5645483,14.4540664 C30.35273,15.9254531 27.6945035,18.4840655 25.1509407,20.8936922 C22.4495611,23.4584609 20.2142342,26.4344792 17.9801403,29.3981846 C16.1159294,31.8607566 14.3392576,34.3762739 12.7253343,37.0063008 C11.068258,39.7052797 9.74900832,42.6098834 8.41003149,45.4763172 C6.80597177,48.9054487 5.33260409,52.3973758 4.02691674,55.9520985 C2.97768167,58.8136071 2.24531313,61.7773125 1.57089294,64.749637 C0.73742302,68.4336447 0.395897623,72.2617128 0.0876617051,76.0232916 C-0.248931917,80.1259365 0.425488271,84.3874174 1.39828083,88.359546 C1.98023024,90.7507034 2.904938,93.0445893 3.87773055,95.3003052 C4.81723363,97.4895317 5.85290632,99.6726018 7.15736072,101.668516 C11.0731898,107.647641 15.5426106,113.105932 20.6716563,118.088947 C22.9932892,120.349588 25.5269885,122.398448 28.0742501,124.399287 C31.4167604,127.020695 34.8221508,129.554682 38.5259136,131.638018 C42.6969621,133.989774 47.2095359,135.27893 51.9526702,135.745588 C54.0240156,135.952444 56.1138551,136.018933 58.195064,135.995539 C61.3637293,135.967219 64.5286957,135.879798 67.6874974,135.659398 C71.4245496,135.40329 75.2158514,135.091775 78.9097507,134.436731 C81.004522,134.067345 83.0807991,133.706578 85.141048,133.167275 C87.5884412,132.528237 89.9051423,131.512427 92.2267753,130.527398 C94.0946849,129.738143 95.9293051,128.746958 97.6209038,127.626488 C100.240909,125.890375 102.773375,124.07669 105.138161,121.984735 C106.631256,120.667259 108.139146,119.128152 109.390584,117.574269 C111.712217,114.683209 114.106594,111.803231 116.133553,108.695466 C117.968173,105.891827 119.765805,103.082033 121.277394,100.086314 C122.798847,97.0708945 124.200704,94.0111488 125.534749,90.9046142 C127.543214,86.219571 129.445646,81.501283 130.6453,76.533044 C131.656314,72.3195833 132.032362,67.914042 131.997839,63.5897655 C131.974413,61.271254 131.729058,58.9625927 131.545349,56.6588566 C131.434384,55.2453403 131.22725,53.840443 131.039842,52.4367769 C130.759964,50.3583662 130.534335,48.2664113 130.148424,46.2077011 C129.503594,42.8068891 128.805748,39.4454783 127.904466,36.1025368 C126.648097,31.4470445 125.009515,26.8629667 122.467185,22.7369273 C120.069109,18.8448323 116.784547,15.5215913 113.273124,12.6268379 C111.009439,10.7552832 108.639721,9.04256439 106.019716,7.71031294 C103.929877,6.65263827 101.709345,5.84491465 99.4937453,5.08521119 C97.3028044,4.33905187 95.0970681,3.65568814 92.8765366,3.00187527 C90.8877984,2.41085799 88.8928956,1.82845971 86.8659362,1.38150289 C85.2816036,1.03551153 83.7256287,0.703064307 82.1215689,0.472813825 C80.4262714,0.226556624 78.770428,0.0541765841 77.0652669,0.00615643001 C76.932109,0.002462572 76.7989511,0 76.6670261,0 C74.8693943,0 73.0582,0.32013436 71.3049541,0.611949143 Z" id="Fill-120"></path>
                <path d="M18.7333269,156.55203 C17.4609383,160.585283 16.378859,164.614843 15.6883777,168.792096 C15.0259549,172.797041 14.5831197,176.88814 14.4111094,180.946008 C14.2781368,184.219872 14.0487897,187.508505 14.025611,190.787292 C13.9816935,197.912253 13.9963326,205.033522 14.0536694,212.158484 C14.1061265,219.042213 14.3537726,225.922251 14.6160579,232.807211 C14.8832229,239.869403 15.7359551,246.893441 16.8229141,253.869478 C17.4255603,257.719345 18.2490141,261.532289 18.8443407,265.385848 C19.0212308,266.845548 19.1908013,268.306479 19.3725711,269.764949 C17.626849,273.377276 18.9358356,277.908993 22.4211801,279.965619 C25.9382428,282.043169 31.0656152,280.933009 33.029705,277.158219 C33.2053751,276.817295 33.3822652,276.480062 33.5628151,276.139137 C34.4301864,274.484974 34.7925061,273.19266 34.9779357,271.341573 C35.0645508,270.476337 34.8730216,269.543409 34.8022656,268.678174 C34.5546194,265.874466 34.3203926,263.086759 33.8202206,260.317513 C32.9626087,255.532257 31.9451858,250.783923 31.1168523,245.993744 C30.5312851,241.033717 30.0469723,236.069998 29.8225049,231.07674 C29.5407007,224.797321 29.3601508,218.524057 29.2076594,212.239715 C29.0649274,206.365222 29.0551679,200.484575 29.0649274,194.610082 C29.0783466,187.51712 29.2369377,180.379851 30.0713709,173.333659 C30.7557525,168.977943 31.8585707,164.778536 33.1821964,160.571744 C34.420427,156.643107 31.7719555,152.335392 27.9499099,151.273232 C27.2838273,151.088616 26.6226244,151 25.9760606,151 C22.6785856,151 19.765389,153.272012 18.7333269,156.55203" id="Fill-122"></path>
                <path d="M171.516627,184.09055 C171.359476,184.212849 171.202326,184.335149 171.043947,184.457449 C171.202326,184.335149 171.359476,184.212849 171.516627,184.09055 M191.874984,175.071251 C193.55453,175.381324 195.167779,175.840874 196.763839,176.447432 C198.642278,177.370239 200.394261,178.441289 202.086084,179.667992 C204.680296,181.829857 207.005632,184.240027 209.123481,186.87009 C210.982277,189.429737 212.583247,192.100567 213.91166,194.969052 C215.006803,197.804183 215.771684,200.701081 216.264007,203.700514 C216.741597,208.409673 216.505872,213.032357 216.085985,217.729162 C215.914102,218.855802 215.742218,219.979972 215.571563,221.107847 C214.984704,224.978202 213.76556,228.828792 212.330333,232.476784 C210.927028,235.617047 209.273265,238.583125 207.270824,241.375018 C205.311353,243.764188 203.162811,245.940876 200.789593,247.92238 C197.171448,250.601856 193.274606,252.81437 189.170277,254.663691 C186.254398,255.837275 183.284499,256.792201 180.216381,257.492645 C179.202269,257.724891 178.170969,257.890428 177.138441,258.052259 C174.96166,258.246209 172.826623,258.396922 170.644932,258.247445 C169.393867,257.995433 168.191911,257.652005 166.992411,257.215926 C165.795366,256.621723 164.664619,255.958339 163.570704,255.192421 C162.37857,254.149785 161.300616,253.02438 160.29387,251.803853 C157.627222,248.054562 155.597771,243.921077 153.736519,239.722119 C152.9434,237.555313 152.178519,235.390977 151.638315,233.142638 C151.120209,230.996833 150.732244,228.852264 150.401982,226.682987 C149.90352,221.536514 149.718132,216.36904 150.189583,211.215155 C150.5223,209.472075 150.998663,207.793232 151.616215,206.135391 C153.254018,202.748058 155.24541,199.636209 157.472527,196.626893 C158.674483,195.156825 159.904677,193.728759 161.253962,192.380991 C162.47065,191.159229 163.794152,190.065943 165.139753,188.993658 C166.895419,187.66195 168.642491,186.324064 170.383424,184.971355 C170.265561,185.064006 170.147698,185.156658 170.029835,185.248074 C170.326948,185.017063 170.628972,184.789758 170.927312,184.563689 C171.420863,184.181966 171.909503,183.796536 172.404281,183.414812 C172.815574,182.999734 173.167935,182.550067 173.46382,182.067044 C174.248344,181.761913 174.977621,181.296185 175.60254,180.668627 C176.469323,179.795234 177.332423,178.935429 178.250772,178.128745 C179.072129,177.595073 179.90208,177.12811 180.776229,176.70315 C182.680452,175.990352 184.610456,175.462857 186.605531,175.094722 C188.369791,174.930421 190.109497,174.923009 191.874984,175.071251 M183.922923,162.568262 C180.221292,163.08958 176.576136,164.527528 173.277203,166.245902 C171.083235,167.387366 169.250222,169.121799 167.500694,170.869821 C166.114578,170.810525 164.654797,171.113186 163.55106,171.86675 C160.38104,174.038497 157.316605,176.379488 154.338111,178.802011 C151.953843,180.73163 149.772152,182.908318 147.897396,185.345666 C145.613802,188.31298 143.38423,191.266704 141.562266,194.547797 C140.372587,196.684955 139.288494,198.894998 138.40575,201.182868 C136.928781,205.005045 136.209326,208.976699 136.06077,213.078065 C135.811539,220.084976 136.324734,227.028885 137.677702,233.914733 C138.291571,237.051289 139.260256,240.076664 140.38732,243.058802 C141.628564,246.35966 143.130088,249.641988 144.846466,252.725425 C146.126997,255.017001 147.422261,257.24681 148.994994,259.355555 C150.275525,261.072693 151.608849,262.689768 153.158255,264.175895 C154.831662,265.783087 156.788677,267.167915 158.788663,268.340264 C162.989984,270.797377 167.876382,271.930194 172.706305,271.998139 C175.084434,272.027787 177.612348,271.699184 179.952417,271.303871 C182.571183,270.859145 185.122423,270.337827 187.678575,269.580556 C192.330475,268.200669 196.843642,266.125279 201.092844,263.799113 C209.42796,259.229549 216.424841,252.579654 221.325972,244.405335 C223.657448,240.511508 225.373826,236.163072 226.74521,231.844284 C227.728628,228.750965 228.371963,225.585995 228.860603,222.381494 C229.441323,218.588966 229.814556,214.81991 229.968023,210.987851 C230.116579,207.311445 229.728614,203.686925 229.195775,200.053757 C228.530341,195.492841 226.890083,191.160464 224.898691,187.034391 C223.09146,183.275218 220.54022,179.906415 217.896899,176.711797 C214.718285,172.866149 210.832493,169.565291 206.645905,166.882108 C203.538499,164.894428 199.922809,163.504658 196.340269,162.707856 C194.479017,162.292778 192.517091,162.12477 190.614097,162.023472 C190.314529,162.007412 190.013733,162 189.715393,162 C187.77311,162 185.839422,162.30019 183.922923,162.568262" id="Fill-126"></path>
            </g>
        </g>
    </g>
</svg>