<?xml version="1.0" encoding="UTF-8"?>
<svg width="474px" height="396px" viewBox="0 0 474 396" version="1.1" xmlns="http://www.w3.org/2000/svg" xmlns:xlink="http://www.w3.org/1999/xlink">
    <!-- Generator: Sketch 51 (57462) - http://www.bohemiancoding.com/sketch -->
    <title>boxing</title>
    <desc>Created with Sketch.</desc>
    <defs></defs>
    <g id="ALL" stroke="none" stroke-width="1" fill="none" fill-rule="evenodd">
        <g id="boxing_DL" transform="translate(-163.000000, -242.000000)">
            <g id="boxing" transform="translate(165.000000, 244.000000)">
                <g id="Group-31" fill="#000000" stroke="#000000" stroke-width="3">
                    <path d="M111.49298,2.00846 C106.70558,3.60426 102.631437,6.48663143 98.6724086,9.52023143 C97.2368657,10.6217171 95.8261514,11.7683457 94.4154371,12.9059457 C93.3568371,13.7614029 92.2982371,14.6258886 91.2757514,15.53326 C89.62578,16.9981457 88.2782657,18.7158314 86.95558,20.46286 C85.6509514,22.1828029 85.3417229,24.64986 86.3213229,26.6158314 C86.6282943,27.30426 87.1045514,27.82566 87.7478371,28.1958314 C88.6484371,28.6269457 89.76798,28.3809171 90.38418,27.5683457 C91.2238371,26.4578314 92.0770371,25.3653743 93.0114943,24.3248314 C94.0046371,23.2368886 95.1444943,22.2843743 96.2843514,21.3544314 C97.9478657,20.0610886 99.6204086,18.7745171 101.326809,17.5263171 C103.001609,16.3097171 104.676409,15.1269743 106.466323,14.0706314 C109.26518,12.4116314 112.276209,11.1995457 115.409123,10.3711743 C120.456094,9.33740286 125.588837,9.56537429 130.613237,10.6330029 C136.120666,12.1746314 140.917094,15.2420886 145.514894,18.5713743 C147.239351,19.9820886 148.819351,21.5011457 150.130751,23.3046029 C150.92978,24.68146 151.568551,26.1079743 152.121551,27.5954314 C153.333637,31.4957743 154.004009,35.50446 154.525409,39.5537743 C154.67438,41.63486 154.701466,43.7024029 154.545723,45.7834886 C154.27938,47.6569171 153.879866,49.4784314 153.317837,51.2773743 C151.837151,55.1890029 149.636437,58.6808029 147.40638,62.1951743 C146.589294,63.3779171 145.769951,64.56066 144.952866,65.7366314 C142.490323,69.2984029 139.580866,72.5486886 136.233523,75.2843457 C134.915351,76.2616886 133.561066,77.1419743 132.107466,77.9139171 C130.534237,78.7580886 128.827837,79.3291457 127.10338,79.7828314 C124.035923,80.4261171 120.934609,80.6902029 117.79718,80.6563457 C116.174294,80.6382886 114.551409,80.4960886 112.939809,80.3832314 C110.238009,80.2049171 107.430123,79.9137457 104.773466,79.3381743 C101.52318,78.3811457 98.55278,76.7808314 95.8103514,74.8058314 C94.3951229,73.6230886 93.1988371,72.2891171 92.1402371,70.7723171 C91.1944943,69.2487457 90.3435514,67.6619743 89.4497229,66.1000314 C88.3685514,64.1882314 87.25578,62.3215743 86.4251514,60.2811171 C85.54938,57.3378029 85.1566371,54.3042029 84.7954943,51.2593171 C84.7029514,50.1758886 84.6532943,49.0992314 84.6532943,47.9977457 C84.6623229,46.2529743 83.8068657,43.34126 81.5858371,43.34126 C79.3106371,43.34126 78.5793229,46.2529743 78.51838,47.9977457 C78.3942371,50.9862029 78.7644086,53.9317743 79.1955229,56.8841171 C79.43478,58.4979743 79.7259514,60.0937743 80.0961229,61.6737743 C80.8184086,64.6802886 82.0711229,67.4565743 83.6578943,70.0838886 C85.6938371,73.4515457 87.4228086,77.05846 89.9982086,80.0649743 C91.97998,82.3920886 94.6885514,84.1639457 97.3406943,85.63786 C100.331409,87.2946029 103.504951,88.22906 106.872609,88.7233743 C109.341923,89.0845171 111.854123,89.28766 114.341494,89.44566 C116.519637,89.58786 118.688751,89.66686 120.873666,89.5698029 C124.392551,89.4208314 127.875323,88.7414314 131.206866,87.6399457 C134.073437,86.6874314 136.639809,85.0103743 139.003037,83.1685457 C141.95538,80.8594886 144.521751,78.2479743 146.866923,75.3136886 C148.929951,72.7202314 150.816923,69.9529743 152.624894,67.1654029 C153.444237,65.9059171 154.283894,64.6441743 155.067123,63.3576029 C155.895494,61.9807457 156.662923,60.5700314 157.358123,59.12546 C158.222609,57.3536029 158.841066,55.4824314 159.448237,53.6135171 C160.497809,50.40386 160.86798,46.9662314 161.007923,43.6076029 C161.132066,40.9532029 160.816066,38.3258886 160.533923,35.6895457 C160.25178,33.1322029 159.818409,30.6200029 159.290237,28.0987743 C158.725951,25.4172886 157.904351,22.8080314 156.908951,20.2506886 C155.640437,17.0071743 153.523237,14.1044886 151.002009,11.72546 C148.532694,9.39608857 145.632266,7.51814571 142.774723,5.69437429 C139.752409,3.75323143 136.391523,2.22966 132.926809,1.31100286 C129.744237,0.464574286 126.464609,0.0944028571 123.166923,0.0424885714 C122.981837,0.0379742857 122.796751,0.0357171429 122.613923,0.0357171429 C118.819666,0.0357171429 115.093123,0.805402857 111.49298,2.00846" id="Fill-3"></path>
                    <path d="M342.064411,1.50353714 C340.441526,1.54868 338.820897,1.58253714 337.198011,1.61865143 C334.816726,1.67056571 332.444469,1.91885143 330.074469,2.11296571 C324.271354,2.57116571 318.479526,3.83968 312.951783,5.64765143 C307.130611,7.54365143 301.629954,10.3109086 295.908097,12.4800229 C295.192583,12.8863086 294.67344,13.4596229 294.337126,14.2089943 C293.67804,15.53168 293.562926,17.1793943 293.887954,18.5991371 C294.321326,20.5222229 295.74784,22.4881943 297.925983,21.6598229 C300.465269,20.69828 302.961669,19.6487086 305.46484,18.5901086 C310.044583,16.6625086 314.599497,14.8409943 319.423011,13.5973086 C325.361554,12.2339943 331.512269,11.5613657 337.60204,11.4755943 C339.852411,11.43948 342.064411,11.4056229 344.294469,11.51848 C345.459154,11.58168 346.62384,11.6426229 347.786269,11.6967943 C350.375211,11.8322229 352.984469,12.30848 355.516983,12.89308 C360.166697,14.1322514 364.626811,16.0801657 368.761897,18.5381943 C371.65104,20.25588 374.533411,21.9735657 377.226183,23.9801657 C379.056726,25.5195371 380.638983,27.2011086 382.018097,29.1467657 C382.929983,30.6793657 383.692897,32.2593657 384.318126,33.9273943 C384.87564,35.8279086 385.27064,37.7419657 385.543754,39.7034229 C385.819126,42.91308 385.767211,46.1227371 385.478297,49.3256229 C384.911754,53.8895657 383.97504,58.3587086 382.566583,62.7398229 C381.072354,66.8726514 379.207954,70.86328 376.856011,74.5807943 C374.993869,77.2713086 372.865383,79.6932229 370.335126,81.7855943 C367.048726,84.19848 363.475669,86.0267657 359.742354,87.6631943 C355.634354,89.4643943 351.343526,90.89768 346.996269,91.9946514 C340.741726,93.4211657 334.241154,94.1953657 327.912126,92.8388229 C323.474583,91.6177086 319.429783,89.5975657 315.725811,86.8506229 C312.884069,84.51448 310.417011,81.8239657 308.299811,78.8174514 C305.697326,74.7433086 303.63204,70.3644514 301.982069,65.82308 C301.239469,63.76908 300.494611,61.7218514 299.752011,59.6746229 C298.490269,55.7833086 297.13824,51.8807086 296.44304,47.8359086 C296.440783,47.5379657 296.445297,47.24228 296.45884,46.9443371 C296.587497,46.2491371 296.74324,45.56748 296.935097,44.88808 C298.609897,40.7123657 301.144669,36.8707086 303.55304,33.0945086 C303.929983,32.2841943 304.117326,31.4287371 304.108297,30.5281371 C304.117326,29.6297943 303.929983,28.7743371 303.55304,27.9640229 C303.25284,27.2936514 302.785611,26.7722514 302.149097,26.4111086 C301.286869,25.9980514 300.131211,26.2169943 299.548869,27.0295657 C297.230783,30.2640514 294.955583,33.6159086 293.174697,37.17768 C292.380183,38.7644514 291.763983,40.3873371 291.217754,42.0711657 C290.653469,43.8249657 290.484183,45.7638514 290.414211,47.58988 C290.335211,49.4768514 290.863383,51.4428229 291.269669,53.2756229 C291.56084,54.6253943 291.94004,55.9751657 292.355354,57.2888229 C294.337126,63.4869371 296.402411,69.6399086 298.92364,75.6461657 C301.65704,82.14448 305.598011,88.2703657 310.807497,93.0600229 C316.204326,98.0054229 322.896754,101.276023 330.126383,102.422651 C333.618183,102.977909 337.20704,102.783794 340.689811,102.370737 C344.497611,101.91028 348.244469,101.048051 351.930383,100.016537 C358.534783,98.1634229 365.130154,95.5361086 370.888126,91.7892514 C373.612497,90.0083657 376.063754,87.84828 378.22384,85.4241086 C380.708954,82.6275086 382.702011,79.3140229 384.446783,76.0253657 C388.017583,69.2877943 390.265697,61.8301943 391.439411,54.3161657 C392.604097,46.83148 392.789183,39.07368 390.91124,31.6747657 C389.992583,28.0701086 388.475783,24.7092229 386.430811,21.61468 C385.496354,20.2129943 384.482897,18.9173943 383.318211,17.7007943 C381.95264,16.29008 380.374897,15.0825086 378.794897,13.9178229 C376.440697,12.1888514 373.91044,10.6991371 371.39824,9.21845143 C368.524897,7.51656571 365.482269,6.00879429 362.369669,4.81928 C357.045069,2.77205143 351.314183,1.90079429 345.64424,1.66153714 C344.567583,1.61413714 343.46384,1.50128 342.382669,1.50128 C342.276583,1.50128 342.170497,1.50128 342.064411,1.50353714" id="Fill-5"></path>
                    <path d="M105.80182,90.4216486 C105.80182,91.6743629 106.411249,93.76222 108.007049,93.76222 C109.602849,93.76222 110.21002,91.6743629 110.21002,90.4216486 C110.21002,89.1689343 109.602849,87.0810771 108.007049,87.0810771 C106.411249,87.0810771 105.80182,89.1689343 105.80182,90.4216486" id="Fill-7"></path>
                    <path d="M88.9050743,188.300843 C88.8915314,188.420471 88.8779886,188.5401 88.8644457,188.661986 C88.8779886,188.5401 88.8915314,188.420471 88.9050743,188.300843 M108.799531,84.2691286 C108.262331,84.9304714 107.995989,85.6798429 107.661931,86.4472714 C107.424931,87.0115571 107.158589,87.5577857 106.903531,88.1130429 C106.589789,88.7856714 106.434046,89.6185571 106.48596,90.4266143 C105.359646,93.8326429 104.294274,97.2612429 103.15216,100.662757 C100.477446,108.235471 97.7056743,115.792386 95.4237029,123.486986 C94.8075029,125.568071 94.1010171,127.6311 93.5728457,129.727986 C92.9724457,132.057357 92.3833314,134.384471 91.79196,136.720614 C90.8665314,140.336557 90.0810457,143.995386 89.3226457,147.654214 C88.4852457,151.6471 87.6478457,155.667071 87.0474457,159.714129 C86.4131886,164.027529 85.78796,168.338671 85.2056171,172.658843 C84.0680171,181.059929 82.97556,189.465529 82.8785029,197.954643 C82.8604457,199.180271 82.8943029,200.414929 82.99136,201.640557 C83.05456,202.389929 83.1064743,203.148329 83.1674171,203.906729 C83.2486743,204.920186 83.37056,205.933643 83.4947029,206.940329 C83.6527029,208.138871 84.0770457,209.258414 84.4743029,210.396014 C84.8693029,211.578757 86.2642171,212.389071 87.4356743,211.833814 C89.1014457,211.0393 89.5619029,208.360071 89.1014457,206.7733 C88.9208743,206.1413 88.7922171,205.522843 88.6929029,204.884071 C88.22116,199.132871 88.5123314,193.411014 88.9773029,187.666586 C89.8982171,179.631157 91.00196,171.613786 92.1801886,163.603186 C93.3335886,155.6761 95.0715886,147.857357 96.81636,140.045386 C100.37136,124.1393 106.490474,108.991614 111.056674,93.3857286 C111.657074,91.3475286 112.467389,89.2596714 112.528331,87.1334429 C112.555417,86.1651286 112.246189,84.9914143 111.569046,84.2691286 C111.167274,83.8402714 110.643617,83.6032714 110.128989,83.6032714 C109.643703,83.6032714 109.165189,83.8131857 108.799531,84.2691286" id="Fill-9"></path>
                    <path d="M71.8729,259.5927 C71.7871286,259.843243 71.6991,260.093786 71.6110714,260.346586 C71.6968429,260.096043 71.7848714,259.843243 71.8729,259.5927 M72.0512143,259.060014 C72.0105857,259.186414 71.9677,259.312814 71.9248143,259.439214 C71.9677,259.312814 72.0105857,259.184157 72.0512143,259.060014 M85.0997571,209.145557 C80.4003857,220.255214 75.7642143,231.382929 71.2228429,242.553529 C67.3518429,252.085443 64.0361,261.818243 61.8850429,271.878329 C60.8106429,276.923043 59.8129857,281.974529 58.8175857,287.026014 C58.5535,288.375786 58.2803857,289.734586 58.0050143,291.0821 C57.8086429,292.043643 57.6303286,293.023243 57.4204143,293.991557 C56.9103,294.264671 56.4272714,294.603243 55.9171571,294.971157 C54.5583571,295.957529 53.2988714,297.077071 52.0732429,298.2237 C49.5949,300.535014 47.3467857,303.099129 45.1867,305.701614 C43.1846143,308.107729 41.3766429,310.665071 39.5077286,313.159214 C38.2821,314.800157 37.1354714,316.474957 35.9820714,318.167814 C34.3591857,320.522014 32.6934143,322.858157 31.1314714,325.2575 C25.6556429,333.658586 20.2249571,342.079986 15.3043857,350.826414 C14.3270429,352.571186 13.3655,354.327243 12.4220143,356.090071 C11.5846143,357.640729 10.6953,359.220729 10.0249286,360.850386 C9.30038571,362.615471 8.69321429,364.405386 8.01381429,366.177243 C7.68652857,367.041729 7.3615,367.912986 7.04324286,368.7865 C6.39995714,370.585443 5.80181429,372.4363 6.23292857,374.377443 C6.3661,375.002671 6.6031,375.585014 6.93715714,376.122214 C7.4405,377.020557 7.94384286,377.6029 8.93924286,377.866986 C9.54867143,378.158157 10.1648714,378.158157 10.7743,377.866986 C11.8148429,377.3659 12.3701,376.131243 12.6071,375.081671 C12.7921857,374.275871 12.8215286,373.278214 12.6364429,372.336986 C13.7469571,369.393671 14.8981,366.459386 16.3449286,363.671814 C18.1799857,360.119071 20.1008143,356.609214 22.1299857,353.162557 C24.5722143,349.009414 27.0663571,344.910443 29.5898429,340.809214 C31.5896714,337.567957 33.7159,334.398929 35.7969857,331.207329 C38.0202714,327.9277 40.1735857,324.5939 42.5413286,321.422614 C44.2432143,319.138386 45.9451,316.863186 47.6469857,314.587986 C48.9516143,312.825157 50.4323,311.177443 51.8881571,309.554557 C53.8383286,307.383186 55.9058714,305.315643 58.1494714,303.448986 C58.7250429,303.031414 59.3028714,302.652214 59.9506714,302.358786 C60.1470429,302.3159 60.3389,302.257214 60.5194714,302.164671 C61.2936714,301.785471 61.8241,300.9571 62.1762143,300.216757 C62.6344143,299.273271 62.8556143,298.180814 63.1106714,297.1651 C63.4199,295.878529 63.6749571,294.5739 63.9480714,293.2783 C64.5213857,290.508786 65.0856714,287.741529 65.6319,284.962986 C66.2142429,282.019671 66.8236714,279.083129 67.4579286,276.146586 C68.6677571,270.5263 70.0875,264.973729 71.9022429,259.511443 C74.7688143,251.302214 78.1680714,243.284843 81.4409286,235.235871 C84.2375286,228.349329 87.1989,221.535014 90.0903,214.691357 C90.9457571,212.673471 91.0247571,209.843014 89.4199286,208.1321 C88.9436714,207.567814 88.3365,207.267614 87.5961571,207.233757 C86.4675857,207.233757 85.5060429,208.177243 85.0997571,209.145557" id="Fill-11"></path>
                    <path d="M173.426723,372.121429 L173.435751,372.1282 L173.426723,372.121429 Z M174.13998,371.963429 C173.986494,372.019857 173.830751,372.065 173.672751,372.092086 L173.670494,372.087571 C173.668237,372.083057 173.668237,372.078543 173.66598,372.076286 C173.826237,372.037914 173.984237,371.997286 174.13998,371.963429 Z M173.268723,370.135143 C173.280009,370.248 173.291294,370.3586 173.30258,370.473714 C173.291294,370.360857 173.280009,370.248 173.268723,370.135143 Z M128.63598,273.486543 C128.739809,273.642286 128.843637,273.800286 128.945209,273.958286 C128.843637,273.802543 128.742066,273.644543 128.63598,273.486543 Z M85.5832371,210.119514 C84.4998086,210.250429 83.5292371,210.771829 82.5676943,211.254857 C80.8229229,212.155457 80.47758,214.721829 80.8658086,216.423714 C81.1930943,217.877314 82.4977229,219.922286 84.2786086,219.014914 C84.85418,218.714714 85.4004086,218.446114 86.0008086,218.231686 C86.2039514,218.211371 86.4070943,218.213629 86.6124943,218.2362 C87.3731514,218.489 88.0209514,218.8208 88.6958371,219.267714 C92.0364086,222.095914 94.71338,225.632857 97.4061514,229.065971 C99.31118,231.499171 101.20718,233.932371 103.112209,236.365571 C104.495837,238.139686 105.75758,240.0086 107.078009,241.832371 C108.454866,243.7374 109.899437,245.606314 111.222123,247.554229 C117.183237,256.381914 123.117266,265.2254 129.024209,274.084686 C129.06258,274.143371 129.100951,274.195286 129.137066,274.251714 C132.355751,279.161 135.574437,284.063514 138.802151,288.968286 C140.151923,291.031314 141.420437,293.157543 142.709266,295.263457 C144.81518,298.712371 146.85338,302.201914 148.747123,305.772714 C152.631666,313.0678 155.945151,320.654057 158.665009,328.463771 C159.768751,331.779514 160.721266,335.099771 161.655723,338.476457 C162.256123,340.661371 162.960351,342.839514 163.42758,345.0628 C164.513266,350.141371 165.587666,355.192857 166.364123,360.332371 C166.752351,362.907771 167.131551,365.483171 167.492694,368.065343 C167.783866,370.110314 167.950894,372.173343 168.348151,374.211543 C168.682209,375.886343 169.318723,377.534057 170.350237,378.901886 C170.56918,379.202086 170.808437,379.4752 171.09058,379.721229 C171.779009,380.339686 172.067923,380.5338 172.977551,380.682771 C173.541837,380.7708 174.070009,380.682771 174.625266,380.585714 C177.17358,380.179429 179.74898,379.739286 182.243123,379.050857 C185.012637,378.287943 187.770866,377.511486 190.542637,376.732771 C192.395751,376.303914 194.242094,375.906657 196.122294,375.568086 C196.993551,375.401057 197.894151,375.304 198.783466,375.206943 C199.196523,375.164057 199.620866,375.103114 200.047466,375.0512 C200.74718,375.721571 201.923151,376.245229 202.830523,375.631286 C203.537009,375.155029 204.232209,374.651686 204.796494,374.017429 C205.767066,372.940771 206.146266,371.399143 206.146266,369.9794 C206.155294,368.947886 205.943123,367.968286 205.512009,367.033829 C205.168923,366.257371 204.620437,365.659229 203.889123,365.234886 C202.954666,364.925657 202.160151,364.7496 201.191837,364.8918 C200.654637,364.9708 200.124209,365.0498 199.587009,365.146857 C198.485523,365.340971 197.390809,365.562171 196.289323,365.781114 C193.908037,366.2664 191.562866,366.936771 189.217694,367.589086 C187.384894,368.101457 185.585951,368.753771 183.768951,369.318057 C181.575009,370.006486 179.396866,370.638486 177.180351,371.229857 C176.006637,371.505229 174.837437,371.785114 173.66598,372.074029 C173.433494,371.162143 173.295809,370.234457 173.178437,369.295486 C172.70218,364.830857 172.135637,360.366229 171.39078,355.942229 C170.975466,353.509029 170.587237,351.084857 170.077123,348.676486 C169.555723,346.261343 169.158466,343.773971 168.497123,341.394943 C167.650694,338.3162 166.795237,335.248743 165.948809,332.172257 C164.56518,327.172686 162.829437,322.243086 160.933437,317.403771 C158.297094,310.6504 155.105494,304.088886 151.586609,297.750829 C148.959294,293.0334 146.155923,288.370143 143.185523,283.862629 C136.924209,274.351029 130.647094,264.862 124.315809,255.402314 C121.582409,251.312371 118.806123,247.238229 116.036609,243.164086 C113.233237,239.019971 110.235751,235.018057 107.29018,230.971 C105.166209,228.043486 102.863923,225.249143 100.624837,222.400629 C98.7920371,220.055457 96.9389229,217.719314 94.9210371,215.523114 C93.30718,213.751257 91.4563229,212.031314 89.3662086,210.832771 C88.89898,210.602543 88.4046657,210.435514 87.8922943,210.329429 C87.2964086,210.169171 86.7885514,210.078886 86.2332943,210.078886 C86.0256371,210.078886 85.8112086,210.092429 85.5832371,210.119514 Z" id="Fill-13"></path>
                    <path d="M379.693014,197.84314 L379.693014,197.847654 C379.683986,197.870226 379.677214,197.892797 379.665929,197.917626 C379.674957,197.892797 379.683986,197.870226 379.693014,197.84314 M358.135043,92.59934 C358.159871,92.6715686 358.182443,92.74154 358.202757,92.8137686 C358.182443,92.74154 358.157614,92.6715686 358.135043,92.59934 M358.9905,88.2091971 C358.938586,88.2340257 358.875386,88.27014 358.814443,88.2972257 C357.527871,88.9924257 357.342786,90.7733114 357.579786,92.0531114 C357.685871,92.6602829 357.922871,93.2516543 358.083129,93.8520543 C358.250157,94.4411686 358.3901,95.0415686 358.523271,95.6419686 C358.667729,96.2581686 359.049186,96.9894829 359.6067,97.3167686 C360.035557,98.8313114 360.432814,100.354883 360.850386,101.867169 C361.4869,104.14914 362.112129,106.42434 362.746386,108.708569 C363.662786,112.024311 364.624329,115.31974 365.558786,118.626454 C367.287757,124.65754 369.032529,130.688626 370.673471,136.746797 C371.474757,139.735254 372.287329,142.714683 373.097643,145.70314 C373.828957,148.393654 374.456443,151.108997 375.133586,153.815311 C375.761071,156.293654 376.2283,158.814883 376.7655,161.318054 C376.968643,162.288626 377.083757,163.277254 377.232729,164.254597 C377.447157,165.660797 377.663843,167.06474 377.876014,168.477711 C378.331957,173.168054 378.760814,177.851626 379.022643,182.560026 C379.173871,185.230226 379.313814,187.911711 379.437957,190.581911 C379.4989,192.010683 379.568871,193.439454 379.623043,194.859197 C379.652386,195.574711 379.693014,196.299254 379.699786,197.023797 C379.291243,197.899569 379.288986,198.962683 379.437957,199.883597 C379.4989,200.262797 379.683986,200.802254 379.808129,201.057311 C380.0203,201.463597 380.4943,202.167826 380.961529,202.352911 C381.543871,202.574111 381.898243,202.644083 382.478329,202.379997 C382.814643,202.237797 383.096786,202.000797 383.315729,201.709626 C384.462357,200.192826 384.437529,198.305854 384.401414,196.488854 C384.3653,194.805026 384.259214,193.112169 384.180214,191.42834 C384.004157,188.069711 383.810043,184.711083 383.6069,181.350197 C383.406014,177.964483 383.105814,174.596826 382.751443,171.229169 C382.566357,169.430226 382.435443,167.613226 382.1533,165.83234 C381.835043,163.787369 381.510014,161.733369 381.182729,159.688397 C380.918643,157.99554 380.451414,156.311711 380.090271,154.643683 C379.808129,153.357111 379.516957,152.088597 379.189671,150.817826 C378.334214,147.493054 377.487786,144.17054 376.571386,140.854797 C374.659586,133.941169 372.684586,127.047854 370.700557,120.152283 C369.499757,115.99914 368.283157,111.864054 367.075586,107.710911 C365.470757,102.18994 364.057786,96.6012543 362.152757,91.1705686 C361.857071,90.2519114 361.561386,89.28134 360.8075,88.6312829 C360.441843,88.3152829 360.042329,88.0466829 359.593157,88.0466829 C359.4013,88.0466829 359.200414,88.09634 358.9905,88.2091971" id="Fill-15"></path>
                    <path d="M326.727351,348.00476 C326.677694,348.155989 326.623523,348.309474 326.573866,348.460703 C326.623523,348.309474 326.677694,348.155989 326.727351,348.00476 M379.099837,196.096789 C378.596494,197.137331 378.08638,198.168846 377.531123,199.182303 C377.02778,200.11676 376.41158,201.01736 375.872123,201.93376 C375.325894,202.877246 374.727751,203.793646 374.242466,204.773246 C373.526951,206.192989 372.822723,207.612731 372.107209,209.023446 C371.059894,211.11356 370.222494,213.316531 369.28578,215.45856 C368.378409,217.548674 367.577123,219.681674 366.721666,221.798874 C365.875237,223.907046 365.17778,226.09196 364.401323,228.233989 C363.475894,230.809389 362.701694,233.445731 361.862037,236.04596 C361.14878,238.251189 360.523551,240.472217 359.85318,242.686474 C359.209894,244.81496 358.49438,246.923131 357.805951,249.03356 C355.672951,254.81636 353.492551,260.576589 351.476923,266.404531 C350.427351,269.435874 349.529009,272.523646 348.655494,275.618189 C347.982866,278.001731 347.350866,280.416874 346.59698,282.775589 C345.804723,284.856674 344.676151,286.81136 343.67398,288.799903 C342.545409,291.038989 341.531951,293.339017 340.491409,295.623246 C338.692466,299.573246 337.060551,303.593217 335.482809,307.631246 C331.991009,316.598874 328.499209,325.573274 325.192494,334.610874 C322.619351,341.664446 320.071037,348.727046 317.680723,355.843817 C316.421237,359.599703 315.168523,363.355589 313.933866,367.111474 C312.997151,369.962246 312.130409,372.833331 311.18918,375.677331 C310.692609,376.952617 310.13058,378.209846 309.64078,379.489646 C309.286409,380.399274 308.96138,381.324703 308.776294,382.286246 C308.765009,382.340417 308.753723,382.396846 308.744694,382.453274 C307.543894,383.884303 307.038294,385.471074 306.950266,387.328703 C306.871266,388.897417 307.559694,391.120703 309.101323,391.861046 C309.762666,392.186074 310.433037,392.186074 311.09438,391.861046 C311.911466,391.472817 312.401266,390.716674 312.733066,389.904103 C312.733066,389.901846 312.735323,389.901846 312.735323,389.899589 C313.159666,389.330789 313.608837,388.775531 313.942894,388.148046 C314.473323,387.152646 314.583923,386.109846 314.669694,385.035446 C314.714837,384.798446 314.769009,384.563703 314.832209,384.331217 C315.342323,382.992731 315.868237,381.667789 316.333209,380.311246 C316.807209,378.916331 317.16158,377.489817 317.558837,376.070074 C318.475237,372.76336 319.585751,369.50856 320.626294,366.23796 C322.452323,360.51836 324.402494,354.839389 326.339123,349.146874 C329.709037,339.779731 333.169237,330.462246 336.647494,321.140246 C338.12818,317.172189 339.608866,313.195103 341.213694,309.281217 C342.209094,306.848017 343.13678,304.378703 344.202151,301.97936 C345.208837,299.731246 346.204237,297.49216 347.208666,295.253074 C348.125066,293.181017 349.210751,291.160874 350.197123,289.124931 C350.770437,287.953474 351.149637,286.664646 351.537866,285.42096 C351.847094,284.461674 352.138266,283.491103 352.438466,282.52956 C353.646037,278.65856 354.835551,274.780789 356.095037,270.93236 C357.225866,267.754303 358.395066,264.592046 359.604894,261.438817 C360.796666,258.344274 362.022294,255.240703 363.062837,252.085217 C365.171009,245.688474 367.157294,239.255617 369.260951,232.849846 C370.09158,230.561103 370.888351,228.247531 371.809266,225.994903 C373.043923,222.96356 374.29438,219.963817 375.599009,216.966331 C376.075266,215.882903 376.533466,214.788189 377.072923,213.731846 C377.78618,212.321131 378.429466,210.838189 379.233009,209.472617 C380.810751,206.775331 382.476523,204.148017 383.817266,201.326589 C384.69078,199.473474 384.654666,196.706217 383.183009,195.135246 C382.657094,194.575474 382.072494,194.329446 381.49918,194.329446 C380.530866,194.329446 379.605437,195.033674 379.099837,196.096789" id="Fill-17"></path>
                    <path d="M375.011249,205.9833 C375.011249,207.236014 375.620677,209.323871 377.216477,209.323871 C378.812277,209.323871 379.419449,207.236014 379.419449,205.9833 C379.419449,204.730586 378.812277,202.642729 377.216477,202.642729 C375.620677,202.642729 375.011249,204.730586 375.011249,205.9833" id="Fill-19"></path>
                    <path d="M463.886249,359.998089 C463.935906,360.124489 463.981049,360.248631 464.017163,360.375031 L464.017163,360.386317 C463.97202,360.255403 463.929134,360.129003 463.886249,359.998089 M394.063791,296.522717 C394.145049,296.58366 394.224049,296.64686 394.303049,296.71006 C394.224049,296.649117 394.145049,296.58366 394.063791,296.522717 M383.592906,264.457746 C383.626763,264.766974 383.662877,265.073946 383.696734,265.383174 C383.662877,265.073946 383.626763,264.766974 383.592906,264.457746 M380.441934,200.39326 C378.57302,201.284831 377.97262,204.370346 378.536906,206.16026 C379.26822,208.491889 379.683534,210.88446 379.972449,213.304117 C380.410334,217.987689 380.572849,222.693831 380.812106,227.390946 C381.033306,231.562146 381.166477,235.740117 381.342534,239.920346 C381.412506,241.762174 381.624677,243.613031 381.76462,245.448089 C381.940677,247.802289 382.125763,250.165517 382.30182,252.519717 C382.604277,256.377174 383.112134,260.22786 383.55002,264.076289 C384.249734,270.78226 384.872706,277.485974 385.423449,284.207746 C385.71462,287.787574 386.050934,291.358374 386.454963,294.920146 C386.606191,296.303774 386.764191,297.714489 387.143391,299.055231 C387.470677,300.228946 387.971763,301.470374 388.924277,302.273917 C389.425363,302.686974 389.946763,303.054889 390.465906,303.429574 C392.276134,304.858346 394.106677,306.181031 396.180991,307.228346 C397.318591,307.810689 398.46522,308.393031 399.593791,309.009231 C401.905106,310.261946 404.053906,311.717803 406.153049,313.28426 C408.164163,314.938746 410.179791,316.595489 412.193163,318.240946 C413.82282,319.581689 415.33962,321.053346 416.892534,322.482117 C420.691306,325.973917 424.413334,329.52666 428.133106,333.106489 C431.403706,336.252946 434.746534,339.340717 438.105163,342.399146 C439.895077,344.040089 441.69402,345.660717 443.52682,347.240717 C445.680134,349.091574 447.865049,350.854403 450.106391,352.601431 C452.679534,354.610289 455.403906,356.41826 458.137306,358.208174 C459.301991,358.966574 460.473449,359.734003 461.699077,360.36826 C462.398791,360.73166 463.15042,360.98446 463.859163,361.311746 C463.54542,363.092631 463.148163,364.857717 462.827649,366.636346 C462.42362,368.850603 462.053449,371.046803 461.726163,373.267831 C461.06482,377.800174 460.694649,382.375403 460.712706,386.950631 C460.721734,388.582546 461.495934,391.279831 463.567991,391.279831 C465.649077,391.279831 466.407477,388.582546 466.425534,386.950631 C466.45262,384.372974 466.606106,381.811117 466.813763,379.240231 C467.217791,375.863546 467.723391,372.522974 468.330563,369.166603 C468.691706,367.175803 469.131849,365.191774 469.492991,363.198717 C469.775134,361.575831 469.847363,360.050003 469.64422,358.429374 C469.468163,357.070574 468.973849,355.88106 468.170306,354.777317 C467.60602,354.012146 466.76862,353.411746 465.967334,352.917431 C465.454963,352.61046 464.85682,352.425374 464.317363,352.143231 C463.622163,351.78886 462.951791,351.384831 462.290449,350.969517 C460.861677,350.077946 459.459991,349.161546 458.067334,348.227089 C456.426391,347.134631 454.821563,346.00606 453.216734,344.86846 C451.79022,343.855003 450.43142,342.717403 449.047791,341.640746 C449.329934,341.852917 449.603049,342.074117 449.876163,342.284031 C446.190249,339.128546 442.576563,335.90986 438.978677,332.63926 C435.353706,329.359631 431.828049,325.964889 428.291106,322.588203 C424.580363,319.026431 420.788363,315.561717 416.989591,312.085717 C415.278677,310.517003 413.400734,309.106289 411.592763,307.64366 C408.480163,305.095346 405.324677,302.598946 401.753877,300.711974 C400.334134,299.953574 398.86022,299.28546 397.442734,298.536089 C396.065877,297.802517 394.779306,296.992203 393.508534,296.084831 C393.643963,296.190917 393.777134,296.297003 393.912563,296.400831 C393.422763,296.021631 392.926191,295.653717 392.42962,295.285803 C392.294191,294.49806 392.203906,293.701289 392.11362,292.906774 C391.454534,286.379117 390.996334,279.83566 390.459134,273.301231 C389.87002,266.173174 388.996506,259.060917 388.229077,251.94866 C387.89502,248.513289 387.723477,245.053089 387.461649,241.622231 C387.222391,238.464489 387.143391,235.309003 387.019249,232.142231 C386.888334,228.968689 386.737106,225.786117 386.570077,222.612574 C386.47302,220.610489 386.366934,218.608403 386.260849,216.608574 C386.154763,214.457517 385.890677,212.304203 385.653677,210.171203 C385.389591,207.83506 384.947191,205.523746 384.242963,203.275631 C384.075934,202.438231 383.712534,201.697889 383.166306,201.045574 C382.662963,200.512889 382.035477,200.176574 381.367363,200.176574 C381.067163,200.176574 380.755677,200.246546 380.441934,200.39326" id="Fill-21"></path>
                    <path d="M286.00398,111.030266 C286.00398,111.039294 286.001723,111.05058 286.001723,111.061866 C286.001723,111.05058 286.00398,111.039294 286.00398,111.030266 M282.810123,102.651751 C282.597951,103.638123 282.597951,104.626751 282.810123,105.622151 C282.950066,106.046494 283.101294,106.477609 283.250266,106.908723 C283.478237,107.423351 283.794237,107.849951 284.200523,108.195294 C284.719666,109.181666 285.311037,110.10258 285.976894,110.994151 C285.602209,113.621466 285.05598,116.221694 284.545866,118.821923 C284.017694,121.51018 283.453409,124.191666 282.880094,126.861866 C282.281951,129.71038 281.584494,132.52278 280.878009,135.344209 C280.516866,136.800066 280.049637,138.22658 279.645609,139.66438 C279.485351,140.210609 279.327351,140.765866 279.169351,141.314351 C278.921066,142.17658 278.647951,143.023009 278.401923,143.878466 C278.049809,145.095066 277.934694,146.356809 277.880523,147.609523 C277.828609,148.835151 278.243923,150.342923 279.097123,151.250294 C279.564351,151.796523 280.146694,152.078666 280.862209,152.123809 C281.566437,152.078666 282.157809,151.796523 282.616009,151.250294 C283.14418,150.774037 283.52338,150.033694 283.929666,149.451351 C284.507494,148.620723 285.085323,147.891666 285.821151,147.214523 C287.644923,145.950523 289.647009,144.946094 291.608466,143.923609 C293.346466,143.007209 295.145409,142.17658 296.944351,141.409151 C298.92838,140.562723 300.910151,139.716294 302.912237,138.915009 C304.887237,138.129523 306.880294,137.364351 308.837237,136.524694 C311.103409,135.55638 313.36958,134.57678 315.635751,133.606209 C316.464123,133.254094 317.258637,132.804923 318.050894,132.398637 C319.53158,131.658294 321.014523,130.92698 322.48618,130.186637 C324.127123,129.367294 325.704866,128.466694 327.309694,127.584151 C329.345637,126.45558 331.390609,125.354094 333.41978,124.198437 C336.893523,122.216666 340.376294,120.232637 343.859066,118.23958 C346.856551,116.528666 349.872094,114.835809 352.921494,113.23098 C356.453923,111.375609 360.119523,109.542809 363.916037,108.231409 C364.374237,108.608351 364.95658,108.761837 365.654037,108.488723 C366.53658,108.14338 367.407837,107.800294 368.299409,107.500094 C368.89078,107.296951 369.497951,107.093809 369.904237,106.556609 C371.129866,104.933723 371.342037,102.096494 369.843294,100.498437 C368.90658,99.5030371 367.61098,99.4940086 366.360523,99.62718 C364.965609,99.78518 363.563923,100.261437 362.232209,100.68578 C359.164751,101.645066 356.210151,102.985809 353.293923,104.344609 C349.325866,106.195466 345.488723,108.337494 341.662866,110.463723 C338.992666,111.93538 336.320209,113.416066 333.647751,114.896751 C326.224009,119.007009 318.748351,123.087923 310.909294,126.351751 C305.275466,128.696923 299.571666,130.881837 293.946866,133.245066 C291.545266,134.247237 289.193323,135.479637 286.929409,136.761694 C287.71038,133.635551 288.425894,130.507151 289.105294,127.35618 C289.74858,124.376751 290.339951,121.386037 290.947123,118.406609 C291.247323,116.916894 291.504637,115.42718 291.759694,113.928437 C291.838694,113.461209 291.899637,113.003009 291.971866,112.53578 C292.068923,111.79318 292.129866,111.061866 292.172751,110.321523 C292.235951,109.475094 292.041837,108.60158 291.917694,107.76418 C291.69198,106.224809 290.818466,104.902123 289.944951,103.638123 C289.098523,102.128094 288.46878,100.35398 286.733037,99.6700657 C286.389951,99.5346371 286.064923,99.4714371 285.762466,99.4714371 C284.193751,99.4714371 283.155466,101.107866 282.810123,102.651751" id="Fill-23"></path>
                    <path d="M205.130326,55.8733686 C204.699211,57.7874257 205.112269,60.4237686 206.972154,61.4710829 C207.784726,61.9225114 208.567954,62.3987686 209.398583,62.8208543 C211.267497,63.7733686 213.364383,63.9155686 215.42064,64.0284257 C217.420469,64.1345114 219.440611,64.1345114 221.442697,64.1525686 C225.383669,64.1977114 229.32464,64.2044829 233.256583,64.3376543 C237.470669,64.4798543 241.684754,64.5678829 245.892069,64.8500257 C250.115183,65.13894 254.356354,65.3511114 258.57044,65.7754543 C264.899469,66.41874 271.221726,67.0620257 277.543983,67.7594829 C280.18484,68.0506543 282.80764,68.3237686 285.44624,68.5607686 C285.744183,68.9399686 286.161754,69.2830543 286.617697,69.2040543 C287.301611,69.0799114 287.99004,68.9444829 288.680726,68.8429114 C289.156983,68.88354 289.63324,68.9241686 290.10724,68.9670543 C290.743754,69.0189686 291.378011,69.08894 292.012269,69.1611686 C292.61944,69.23114 293.15664,69.1882543 293.732211,69.04154 C293.817983,69.02574 293.901497,69.0009114 293.982754,68.9738257 C294.048211,68.9535114 294.109154,68.9354543 294.172354,68.9128829 C294.165583,68.9106257 294.156554,68.9061114 294.149783,68.9038543 C295.35284,68.3350543 295.932926,66.5067686 295.95324,65.1750543 C295.971297,63.2609971 294.984926,60.9000257 292.946726,60.3876543 C292.267326,60.2115971 291.54504,59.97234 290.856611,59.8685114 C290.143354,59.7714543 289.430097,59.6653686 288.723611,59.5592829 C286.581583,59.2500543 284.412469,59.0649686 282.261411,58.8279686 C278.39944,58.3945971 274.555526,57.8303114 270.702583,57.4082257 C266.003211,56.8868257 261.30384,56.3586543 256.613497,55.8372543 C254.638497,55.6183114 252.64544,55.5302829 250.661411,55.3790543 C248.210154,55.18494 245.758897,54.9998543 243.30764,54.80574 C240.750297,54.6116257 238.159097,54.5867971 235.583697,54.4716829 C233.177583,54.3655971 230.769211,54.2956257 228.354069,54.2414543 C225.61164,54.1714829 222.869211,54.1285971 220.12904,54.0834543 C218.910183,54.0653971 217.684554,54.04734 216.461183,54.0405686 C214.890211,54.01574 213.276354,54.0405686 211.730211,53.7584257 C210.463954,53.3905114 209.215754,52.95714 207.89984,52.8487971 C207.847926,52.8442829 207.798269,52.8420257 207.748611,52.8420257 C206.279211,52.8420257 205.394411,54.7041686 205.130326,55.8733686" id="Fill-25"></path>
                    <path d="M106.727474,90.3785371 C106.084189,90.43948 105.404789,90.6245657 104.788589,90.8006229 C103.571989,91.1369371 102.36216,91.5161371 101.154589,91.8863086 C98.9606457,92.5747371 96.7825029,93.3399086 94.6314457,94.1434514 C92.6993314,94.8567086 90.7785029,95.5722229 88.8463886,96.28548 C85.5577314,97.5111086 82.2690743,98.7457657 78.9894457,100.007509 C71.9539314,102.695766 64.9184171,105.40208 57.8896743,108.126451 C50.61716,110.938851 43.3514171,113.778337 36.0947029,116.63588 C29.3684171,119.29028 22.6759886,122.030451 15.9293886,124.660023 C12.6249314,125.955623 9.23921714,127.145137 6.02053143,128.670966 C4.50373143,129.393251 3.09301714,130.196794 1.83127429,131.325366 C1.32116,131.774537 0.969045714,132.390737 0.747845714,133.027251 C0.368645714,134.119709 0.04136,135.309223 0.395731429,136.473909 C0.659817143,137.338394 0.871988571,138.112594 1.44304571,138.837137 C1.89447429,139.401423 2.47456,139.805451 3.05690286,140.220766 C3.89430286,140.821166 4.97998857,141.112337 5.96636,141.39448 C7.18296,141.737566 8.42664571,141.965537 9.67936,142.143851 C11.3270743,142.38988 12.9951029,142.432766 14.6608743,142.486937 C18.27456,142.61108 21.90856,142.380851 25.5222457,142.16868 C27.1902743,142.062594 28.8560457,141.965537 30.5218171,141.877509 C32.4358743,141.780451 34.3567029,141.63148 36.27076,141.595366 C44.1369029,141.446394 51.99176,141.340309 59.8556457,141.261309 C64.37896,141.216166 68.9113029,141.067194 73.4075314,140.599966 C78.7592171,140.044709 83.9799886,138.959023 89.1104743,137.320337 C94.68336,135.530423 100.026017,133.106251 105.55376,131.183166 C108.226217,130.257737 110.94156,129.420337 113.683989,128.749966 C114.221189,128.440737 114.627474,128.000594 114.873503,127.42728 C115.200789,126.738851 115.34976,126.016566 115.34976,125.258166 C115.34976,124.499766 115.200789,123.77748 114.873503,123.089051 C114.57556,122.472851 113.781046,121.414251 112.91656,121.58128 C110.713589,122.02368 108.544474,122.587966 106.37536,123.204166 C104.725389,123.680423 103.12056,124.262766 101.499931,124.808994 C99.8319029,125.37328 98.2112743,126.095566 96.57936,126.729823 C94.3741314,127.594309 92.1892171,128.512966 89.9569029,129.287166 C87.6072171,130.108766 85.2327029,130.862651 82.8243314,131.485623 C74.7640743,133.372594 66.4532743,133.643451 58.2079314,133.722451 C54.4159314,133.767594 50.6261886,133.776623 46.82516,133.846594 C43.0083314,133.916566 39.1802171,133.907537 35.3724171,134.083594 C31.2373314,134.286737 27.1112743,134.507937 22.9761886,134.744937 C20.8589886,134.86908 18.7350171,134.86908 16.6178171,134.930023 C15.7533314,134.94808 14.8820743,134.896166 14.0175886,134.860051 C12.9273886,134.817166 11.8417029,134.747194 10.7605314,134.63208 C12.3540743,134.002337 13.9498743,133.374851 15.5434171,132.75188 C18.8839886,131.447251 22.2335886,130.133594 25.55836,128.78608 C32.7699314,125.849537 39.98376,122.912994 47.20436,120.003537 C54.1608743,117.200166 61.1535029,114.475794 68.1258171,111.715309 C74.55416,109.166994 80.9734743,106.600623 87.4266457,104.115509 C89.9659314,103.135909 92.5142457,102.149537 95.06256,101.169937 C96.20016,100.729794 97.33776,100.305451 98.47536,99.8743371 C99.0938171,99.6418514 99.7167886,99.4093657 100.33976,99.1813943 C100.621903,99.46128 100.97176,99.6599086 101.36676,99.6283086 C102.50436,99.5222229 103.623903,99.3709943 104.743446,99.17688 C105.69596,99.01888 106.648474,98.78188 107.521989,98.3755943 C108.235246,98.0573371 108.826617,97.5381943 109.42476,97.0619371 C110.149303,96.4795943 110.368246,95.6512229 110.616531,94.8047943 C110.880617,93.8974229 110.729389,92.6966229 110.307303,91.8592229 C110.158331,91.6222229 109.998074,91.3919943 109.849103,91.1549943 C109.512789,90.7577371 109.090703,90.5545943 108.578331,90.5275086 C108.093046,90.4191657 107.682246,90.3514514 107.235331,90.3514514 C107.072817,90.3514514 106.905789,90.36048 106.727474,90.3785371" id="Fill-27"></path>
                    <path d="M187.6474,128.821743 C187.636114,128.923314 187.624829,129.027143 187.613543,129.128714 C187.624829,129.027143 187.636114,128.923314 187.6474,128.821743 M188.069486,66.9963429 C186.600086,67.6983143 186.173486,70.0006 186.518829,71.4564571 C186.656514,73.7429429 187.083114,75.9933143 187.532286,78.2301429 C188.177829,81.3901429 188.8166,84.5524 189.216114,87.7598 C189.626914,92.4478857 189.383143,97.1066286 189.182257,101.796971 C189.058114,104.8396 188.821114,107.864171 188.627,110.897771 C188.241029,117.064286 188.155257,123.264657 187.579686,129.417629 C187.414914,130.762886 187.198229,132.099114 186.852886,133.403743 C186.006457,132.453486 185.243543,131.397143 184.473857,130.408514 C183.4288,129.074543 182.435657,127.713486 181.449286,126.336629 C179.2418,122.975743 177.0772,119.587771 174.720743,116.328457 C172.0054,112.554514 169.202029,108.850543 166.389629,105.148829 C165.136914,103.498857 163.798429,101.921114 162.500571,100.307257 C161.381029,98.9236286 160.315657,97.4948571 159.141943,96.1631429 C157.370086,94.1362286 155.598229,92.1070571 153.817343,90.0801429 C152.767771,88.8816 151.745286,87.6559714 150.650571,86.5003143 C146.921771,82.5864286 143.202,78.6522286 139.400971,74.8083143 C138.969857,74.2982 138.421371,74.0250857 137.753257,73.9889714 C136.694657,73.9889714 135.936257,74.8534571 135.502886,75.7269714 C134.649686,77.4266 134.692571,80.2051429 136.103286,81.6339143 C140.001371,85.5748857 143.809171,89.6038857 147.628257,93.6148286 C148.896771,94.9375143 150.061457,96.3753143 151.269029,97.7589429 L156.056429,103.207686 C157.4062,104.7606 158.647629,106.417343 159.936457,108.022171 C161.080829,109.441914 162.254543,110.8436 163.365057,112.299457 C166.265486,116.0892 169.150114,119.899257 171.971543,123.761229 C174.289629,126.9438 176.343629,130.329514 178.715886,133.4692 C179.9054,135.028886 181.158114,136.545686 182.462743,138.017343 C183.230171,138.890857 183.979543,139.798229 184.886914,140.538571 C185.381229,140.953886 186.042571,141.509143 186.764857,141.473029 C187.401371,141.439171 187.938571,141.306 188.520914,141.059971 C189.012971,140.8478 189.4644,140.292543 189.755571,139.861429 C190.247629,139.112057 190.592971,138.450714 190.908971,137.620086 C192.037543,134.737714 192.258743,131.555143 192.531857,128.503486 C192.628914,127.332029 192.680829,126.149286 192.744029,124.977829 C192.859143,123.002829 192.962971,121.0188 193.069057,119.0438 C193.326371,114.168371 193.599486,109.301971 193.915486,104.433314 C194.057686,102.291286 194.145714,100.158286 194.242771,98.0162571 C194.294686,96.7545143 194.373686,95.4927714 194.382714,94.2242571 C194.4098,90.6263714 194.154743,87.0736286 193.660429,83.5028286 C193.299286,80.8484286 192.735,78.2120857 192.206829,75.5757429 C191.9766,74.4562 191.773457,73.3456857 191.570314,72.2171143 C191.351371,70.9373143 191.385229,69.4476 190.750971,68.3032286 C190.331143,67.5312857 189.656257,66.8180286 188.814343,66.8180286 C188.5796,66.8180286 188.331314,66.8722 188.069486,66.9963429" id="Fill-29"></path>
                </g>
                <g id="Group-42" transform="translate(105.000000, 32.000000)" fill="#2C2C2C">
                    <path d="M76.6867024,18.5152667 C76.6867024,21.5072667 78.1365833,26.4939333 81.943369,26.4939333 C85.7524167,26.4939333 87.2000357,21.5072667 87.2000357,18.5152667 C87.2000357,15.5232667 85.7524167,10.5366 81.943369,10.5366 C78.1365833,10.5366 76.6867024,15.5232667 76.6867024,18.5152667" id="Fill-32"></path>
                    <path d="M79.4688452,0.637613333 C79.4688452,0.64668 79.4597976,0.64668 79.45075,0.64668 C77.1617024,1.59414667 75.9086071,4.59521333 75.4042024,6.79161333 C74.9676548,8.73188 74.9111071,11.05068 75.3996786,13.13828 C75.4471786,13.53268 75.4924167,13.9316133 75.5376548,14.3260133 C75.5580119,14.5141467 75.5896786,14.70228 75.628131,14.8949467 C75.5919405,15.3324133 75.5715833,15.7585467 75.5715833,16.1688133 C75.5625357,17.4472133 75.7118214,18.68708 76.0239643,19.8929467 C76.0669405,20.5457467 76.1144405,21.2008133 76.17325,21.8513467 C76.5080119,25.4553467 76.8178929,29.0593467 77.480631,32.6180133 C77.905869,34.88468 78.6568214,37.1264133 79.45075,39.27748 C80.3871786,41.80028 81.5972976,44.1553467 83.418131,46.1749467 C84.1509881,46.9977467 85.0172976,47.5916133 86.0328929,47.9452133 C87.43075,48.62748 88.8263452,48.62748 90.2309881,47.9452133 C92.2192024,47.1564133 93.7821786,45.1209467 94.7547976,43.29628 C96.8493214,39.39308 97.0167024,34.96628 96.6638452,30.6528133 C96.4851548,28.4405467 96.2114643,26.2441467 95.8495595,24.0568133 C95.3112262,20.78148 94.153131,17.6104133 92.9611071,14.5300133 C92.5811071,13.63468 92.1219405,12.78468 91.5745595,11.9800133 C90.6720595,10.5089467 89.9120595,9.33254667 88.6838452,8.20828 C88.3943214,7.93854667 88.09575,7.68694667 87.7903929,7.45574667 C87.5868214,6.20908 87.2565833,4.99868 86.6865833,4.13508 C86.0170595,2.63001333 84.9652738,1.46041333 83.5334881,0.637613333 C82.8571786,0.308946667 82.180869,0.145746667 81.5045595,0.145746667 C80.82825,0.145746667 80.1496786,0.308946667 79.4688452,0.637613333" id="Fill-34"></path>
                    <path d="M107.299774,8.21553333 C104.357036,8.24273333 101.495726,8.8978 98.8085833,10.1014 C93.6310833,12.4202 92.0138214,18.105 91.5908452,23.2412667 C91.2357262,27.5524667 92.4390595,32.555 95.5129881,35.717 C97.5622738,37.825 100.328583,38.2216667 103.049655,38.8608667 C105.259536,39.3731333 107.482988,39.8423333 109.695131,40.3319333 C111.328226,40.7535333 112.95906,41.1819333 114.589893,41.6216667 C116.08275,42.3583333 117.584655,42.3583333 119.077512,41.6216667 C121.622155,40.409 122.990607,37.3716667 123.574179,34.8035333 C124.05144,32.5300667 124.05144,30.2634 123.574179,27.9876667 C123.239417,27.0039333 122.902393,26.0134 122.567631,25.0296667 C122.212512,24.2408667 121.766917,23.5404667 121.230845,22.9216667 C121.522631,20.9247333 121.459298,18.9255333 121.038583,16.9286 C120.455012,14.3695333 119.01644,10.9876667 116.374536,9.85433333 C113.619536,8.68473333 110.613464,8.21553333 107.62775,8.21553333 C107.519179,8.21553333 107.408345,8.21553333 107.299774,8.21553333" id="Fill-36"></path>
                    <path d="M173.67469,43.2482267 C172.127548,44.1344933 170.996595,45.3902267 170.263738,47.0290267 C168.664571,49.86236 168.637429,53.46636 168.938262,56.6442267 C169.275286,60.2028933 169.752548,63.7456933 170.22981,67.2862267 C170.63469,70.3144933 171.130048,73.30876 171.704571,76.30076 C172.111714,78.40876 172.887548,80.57796 173.604571,82.57036 C174.416595,84.8460933 175.185643,86.82036 176.732786,88.7764933 C177.757429,89.98916 179.055762,90.6260933 180.627786,90.7144933 C183.057071,90.7144933 185.036238,88.6790267 185.956833,86.6072933 C187.775405,82.5068933 187.255167,78.61956 186.698738,74.3536933 C186.477071,72.6174267 186.248619,70.88116 186.026952,69.14716 C185.637905,66.06676 185.269214,62.98636 184.909571,59.90596 C184.706,57.4352933 184.554452,54.9510267 184.321476,52.47356 C184.321476,50.2862267 183.728857,47.7452933 182.183976,46.0906267 C181.546119,45.41516 180.79969,44.9232933 179.99219,44.7102267 C179.363381,44.0166267 178.650881,43.42956 178.056,43.2482267 C177.327667,42.8900933 176.597071,42.7110267 175.866476,42.7110267 C175.135881,42.7110267 174.403024,42.8900933 173.67469,43.2482267" id="Fill-38"></path>
                    <path d="M29.1082143,66.5479733 C25.2380952,66.7157067 21.7932143,69.3813067 18.6921429,71.4711733 C14.745119,74.13904 11.2934524,77.43704 7.90738095,80.76224 C5.97345238,80.8597067 4.6977381,81.8275733 3.21166667,83.12184 C1.11714286,84.9555733 0.445357143,88.8157067 0.445357143,91.4019733 C0.445357143,95.2099733 1.7527381,99.0429067 5.06642857,101.14184 C6.7425,102.211707 8.32130952,101.844507 9.95666667,101.35944 C10.8863095,101.239307 11.825,101.23024 12.7546429,101.05344 C17.7896429,100.11504 22.535119,97.5469067 26.6789286,94.6161067 C30.5309524,91.8893067 34.1613095,88.5867733 35.8577381,84.0783733 C36.7330952,82.18344 37.167381,80.1933067 37.1492857,78.0943733 C37.1492857,76.0317067 36.5928571,73.18024 35.6564286,71.30344 C34.5684524,69.1229067 32.0192857,66.5457067 29.2982143,66.5457067 C29.234881,66.5457067 29.1715476,66.5457067 29.1082143,66.5479733" id="Fill-40"></path>
                </g>
            </g>
        </g>
    </g>
</svg>