<?xml version="1.0" encoding="UTF-8" standalone="no"?>
<svg width="211px" height="310px" viewBox="0 0 211 310" version="1.1" xmlns="http://www.w3.org/2000/svg" xmlns:xlink="http://www.w3.org/1999/xlink">
    <!-- Generator: Sketch 49.1 (51147) - http://www.bohemiancoding.com/sketch -->
    <title>flower_0001</title>
    <desc>Created with Sketch.</desc>
    <defs></defs>
    <g id="Page-1-Copy" stroke="none" stroke-width="1" fill="none" fill-rule="evenodd">
        <g id="Artboard" transform="translate(-8037.000000, -7808.000000)">
            <g id="flower_0001" transform="translate(8027.524996, 7797.903079)">
                <g id="Group-97" transform="translate(0.475004, 0.096921)" fill="#FFFFFF">
                    <ellipse id="Oval-110" cx="106.5" cy="66.5" rx="31.5" ry="56.5"></ellipse>
                    <ellipse id="Oval-110" transform="translate(169.565297, 61.785059) rotate(48.000000) translate(-169.565297, -61.785059) " cx="169.565297" cy="61.7850587" rx="31.5" ry="56.5"></ellipse>
                    <ellipse id="Oval-110" transform="translate(63.760784, 91.840078) scale(-1, 1) rotate(48.000000) translate(-63.760784, -91.840078) " cx="63.760784" cy="91.8400781" rx="31.5" ry="56.5"></ellipse>
                    <ellipse id="Oval-110" transform="translate(106.500000, 136.500000) scale(1, -1) translate(-106.500000, -136.500000) " cx="106.5" cy="136.5" rx="31.5" ry="56.5"></ellipse>
                    <ellipse id="Oval-110" transform="translate(169.565297, 131.785059) scale(1, -1) rotate(48.000000) translate(-169.565297, -131.785059) " cx="169.565297" cy="131.785059" rx="31.5" ry="56.5"></ellipse>
                    <ellipse id="Oval-110" transform="translate(63.760784, 161.840078) scale(-1, -1) rotate(48.000000) translate(-63.760784, -161.840078) " cx="63.760784" cy="161.840078" rx="31.5" ry="56.5"></ellipse>
                </g>
                <path d="M193.3936,90.7915 C197.6416,90.3355 201.5016,91.8015 205.1596,93.2325 C208.8106,94.6615 211.8846,97.1715 214.3556,100.5555 C218.1246,105.7165 219.2326,111.6605 219.9976,117.6135 C220.6456,122.6585 219.9656,127.7265 218.3896,132.7605 C216.8876,137.5585 215.0356,142.2165 212.1706,146.1445 C207.6356,152.3655 202.2396,157.6505 193.9376,159.1485 C188.2056,160.1825 182.6336,160.3505 177.1226,158.8385 C172.4916,157.5685 167.9886,155.7375 163.7376,153.4625 C162.3846,152.7385 162.2046,153.4255 161.9126,154.2365 C160.6576,157.7185 159.0936,161.0495 157.1116,164.1755 C152.2496,171.8405 147.3086,179.4635 140.4576,185.5595 C136.7826,188.8315 132.8376,191.7785 128.2446,193.7125 C127.3156,194.1035 126.8876,194.5705 126.5246,195.7445 C123.5966,205.1875 124.8306,214.8175 124.8076,224.4055 C124.7956,229.1785 124.9506,233.9595 125.0556,238.7165 C125.1536,243.0825 125.5066,247.5085 125.9566,251.8955 C126.3516,255.7415 126.4446,259.6245 126.7266,263.4785 C127.0376,267.7245 127.9886,271.9255 128.7086,276.1375 C129.0576,278.1805 129.4966,280.2095 129.9316,282.2365 C131.8406,291.1125 134.4896,299.7145 139.9976,307.1055 C141.3946,308.9795 142.9646,310.8465 145.2836,311.8125 C147.0786,312.5605 147.7486,314.0135 147.6376,315.9335 C147.5296,317.8315 145.9536,318.1985 144.6916,318.6555 C140.3956,320.2115 138.6156,319.0375 136.4456,314.5675 C135.4106,312.4355 134.5366,310.2705 133.1406,308.3095 C130.3556,304.3935 128.4356,300.0455 127.3336,295.3555 C126.3086,290.9925 124.1316,286.8605 123.9976,282.3515 C123.8496,277.3365 121.4426,272.8625 121.0666,267.9995 C120.8206,264.8125 119.9306,261.6685 120.0336,258.5355 C120.1266,255.6925 119.4006,253.0545 119.1816,250.3215 C118.1536,237.5025 117.6906,224.6535 117.4156,211.7945 C117.3236,207.4385 117.5746,203.1075 117.6456,198.7665 C117.6686,197.3255 117.1546,197.0545 115.8536,197.1345 C107.3576,197.6555 99.5036,195.6195 92.5806,190.6515 C87.4106,186.9435 84.4486,181.9795 85.2766,175.3115 C85.3306,174.8695 85.6256,174.2955 85.0446,174.0325 C84.6206,173.8395 84.2916,174.2785 83.9916,174.5315 C75.6146,181.5715 65.7536,184.7735 55.0446,186.0265 C46.9416,186.9755 38.8386,187.1875 30.7176,186.6855 C25.4606,186.3585 20.2826,185.5305 15.6866,182.6505 C12.2366,180.4875 9.6586,177.7775 9.7356,173.3375 C9.8696,165.7025 10.1226,158.1075 12.9376,150.8345 C15.1706,145.0665 18.5836,140.1665 22.8016,135.6735 C26.2806,131.9675 30.0526,128.5935 34.0556,125.5505 C37.3866,123.0175 41.2276,121.1285 45.2626,119.7815 C45.8956,119.5705 46.5016,119.2805 47.5646,118.8455 C44.5716,118.1185 41.9896,117.5835 39.4606,116.8615 C31.0586,114.4615 24.1146,110.0845 19.6476,102.2745 C15.9016,95.7275 16.2946,89.0265 18.5666,82.1895 C20.7066,75.7495 22.9386,69.3195 26.3166,63.4255 C31.3056,54.7185 38.7576,50.3505 49.6306,53.8205 C52.6026,54.7685 55.2466,56.2255 57.8886,57.8105 C60.4556,59.3505 61.8346,61.6915 62.8736,64.3165 C63.7786,66.6005 63.3986,67.1675 60.3606,68.5305 C58.8326,69.2155 56.9966,68.6015 56.2826,67.0225 C55.3056,64.8585 54.7736,62.4575 52.5706,61.0425 C49.7886,59.2565 46.9066,57.6885 43.5296,57.5225 C40.9046,57.3935 39.2046,59.3175 37.3876,60.7785 C33.7546,63.7015 32.0666,67.9705 30.2336,72.0325 C28.0236,76.9325 26.4116,82.0695 25.2716,87.3475 C23.4426,95.8225 27.3176,104.5235 34.0456,109.0785 C39.7026,112.9075 45.7796,113.9805 52.2836,114.1885 C55.0716,114.2785 57.8376,114.2135 60.6256,114.0345 C62.7436,113.8985 64.1556,112.2075 66.2916,112.1465 C68.5736,112.0815 70.5996,112.3625 72.2346,114.0285 C72.9776,114.7845 73.7476,115.5035 73.3126,116.8605 C72.8606,118.2715 71.8826,119.3385 70.6606,119.3485 C65.8276,119.3855 61.4006,121.2205 56.7806,122.1655 C53.2776,122.8815 49.7906,123.5935 46.5376,125.2975 C40.4966,128.4615 35.1006,132.4015 30.4776,137.4195 C27.8366,140.2845 25.0956,143.0755 23.3476,146.6125 C19.4196,154.5575 17.0776,162.8815 17.6146,171.8425 C17.6866,173.0535 17.7426,174.2875 17.7966,175.4835 C17.9556,178.8705 20.0886,179.8405 22.8266,180.6375 C27.4446,181.9815 32.1876,181.7155 36.8506,181.6785 C40.9266,181.6465 45.0456,181.7365 49.1256,181.1285 C57.2626,179.9165 65.2056,178.2925 72.3196,173.7405 C76.8866,170.8175 81.0246,167.4805 84.6186,163.4465 C85.4926,162.4665 85.9486,161.2445 86.4166,160.0285 C87.2986,157.7435 88.3576,157.3865 90.7026,158.2045 C92.4546,158.8155 94.0586,159.6055 95.5036,160.7705 C96.3866,161.4825 96.4946,162.1925 96.0496,163.2265 C93.7816,168.5085 93.1656,174.1705 92.8406,179.7955 C92.5856,184.2125 95.7796,188.1025 100.0866,189.6485 C104.4036,191.1985 108.7656,192.4005 113.4576,191.8425 C118.3866,191.2555 122.8726,189.3895 126.9926,186.8465 C136.1736,181.1815 143.1366,173.2965 148.4646,163.9855 C150.7886,159.9265 152.9496,155.7635 154.4156,151.2775 C154.9556,149.6275 154.9456,147.9135 155.3676,146.2605 C155.7576,144.7305 156.5986,143.8935 158.2546,143.9685 C161.1676,144.1025 163.6836,144.9205 165.2416,147.6505 C166.3026,149.5125 168.3506,150.0325 170.0816,150.9055 C177.0176,154.4045 184.2456,156.1795 192.0126,154.1695 C196.8256,152.9255 200.2526,149.5715 203.3916,146.0895 C211.0326,137.6135 213.4986,127.3765 212.4556,116.2425 C211.9976,111.3395 210.4936,106.6205 207.7806,102.4545 C205.4166,98.8265 201.8406,97.0075 197.5786,96.3295 C192.0616,95.4515 186.9816,96.5265 181.9876,98.9505 C178.5656,100.6105 175.3736,102.8775 171.4396,103.4175 C170.0026,103.6155 167.3876,102.3225 166.9466,100.8745 C166.4656,99.2945 167.3726,97.9825 169.4006,97.2445 C174.0976,95.5345 178.9266,94.2145 183.2316,91.4705 C189.8066,87.2755 194.7726,81.5475 199.1836,75.2885 C201.8036,71.5715 204.1386,67.6415 206.1226,63.5405 C208.6646,58.2865 208.7956,52.5415 209.2786,46.8675 C209.7366,41.4825 209.2356,36.1415 208.8676,30.7855 C208.7886,29.6275 208.4296,28.7625 207.2556,28.4765 C198.8326,26.4285 190.3526,25.3775 181.7116,26.9965 C178.1526,27.6635 174.5236,28.2495 171.3586,30.0445 C165.1106,33.5885 159.5056,37.9925 154.5466,43.2315 C149.1766,48.9045 145.3636,55.5465 142.1646,62.5845 C141.6496,63.7185 141.1166,64.9445 141.3656,66.2905 C141.5406,67.2415 140.9636,68.0425 140.3136,68.3375 C138.6086,69.1085 136.7526,69.7245 134.8796,69.6415 C131.8196,69.5065 130.8606,67.9445 132.0416,65.1555 C132.5806,63.8835 132.6526,62.6865 132.4396,61.3765 C131.4236,55.1165 130.7166,48.7905 129.3596,42.6065 C128.0536,36.6555 127.1896,30.5805 124.4726,24.9455 C122.7876,21.4485 120.3146,19.1925 116.8506,18.0295 C110.8406,16.0125 104.9846,16.3545 99.6926,20.1855 C96.6916,22.3585 94.8046,25.5195 93.2396,28.7655 C90.2826,34.8965 87.2796,41.0105 84.7036,47.3235 C82.6886,52.2615 81.6826,57.3595 81.6016,62.6755 C81.5526,65.8355 79.1646,67.0855 76.0746,65.6495 C74.9096,65.1075 74.3306,64.3535 74.4156,62.9435 C74.7886,56.8385 75.7816,50.9165 78.3596,45.2815 C81.7386,37.8925 84.9986,30.4595 89.3136,23.5385 C93.6646,16.5585 100.2386,13.6895 108.0746,12.6995 C112.6176,12.1255 117.0326,12.7315 121.1846,14.1525 C125.2596,15.5475 128.5866,18.1155 130.8006,22.2975 C133.1706,26.7735 133.4766,31.6385 134.8326,36.2905 C136.4016,41.6695 136.7136,47.2505 137.7566,52.7105 C137.8056,52.9615 137.9836,53.1885 138.1326,53.4925 C139.3906,52.6565 139.7276,51.2475 140.5606,50.2285 C148.4496,40.5905 157.6036,32.3155 168.5846,26.4245 C176.0496,22.4195 184.4026,21.5325 192.8376,21.8145 C198.5736,22.0065 204.2396,22.7575 209.8466,23.9395 C211.4866,24.2865 213.0786,24.8635 214.6896,25.3405 C215.6226,25.6165 216.1606,26.2005 215.6696,27.1555 C214.6736,29.0925 214.8916,31.1725 215.0976,33.1505 C215.5366,37.3575 216.0136,41.5885 215.5726,45.7745 C215.1976,49.3355 215.5576,52.9225 214.9656,56.4405 C213.8136,63.2985 210.6496,69.2935 206.7286,74.9305 C202.7896,80.5935 198.3716,85.8545 193.3936,90.7915" id="Fill-37" fill="#000000"></path>
                <path d="M142.1211,108.3515 C142.4061,113.5755 141.9771,118.4845 140.7471,123.3665 C139.0471,130.1095 134.3611,133.6725 128.1021,135.3065 C122.1921,136.8485 116.4451,135.6315 111.7231,131.8415 C108.5961,129.3315 105.8741,126.1415 105.6561,121.6205 C105.5721,119.8905 106.5901,118.9315 107.7991,118.6765 C108.9921,118.4245 109.6911,119.8015 110.1391,120.8505 C111.3401,123.6705 112.4831,126.5135 114.6531,128.7755 C117.3831,131.6225 121.8741,132.2635 125.9351,130.4295 C131.0871,128.1035 133.3541,123.7565 134.4161,118.5125 C135.3411,113.9435 135.1941,109.2885 135.6431,104.6825 C135.8011,103.0735 135.2041,101.5505 134.8491,100.1125 C133.9341,96.4115 133.2301,92.6325 131.5851,89.1035 C129.6101,84.8695 124.6461,82.1535 120.0351,85.4335 C113.4511,90.1175 108.3211,95.9355 104.4031,102.9275 C103.6681,104.2395 102.8951,105.5235 102.4121,106.9565 C102.1241,107.8085 101.4831,109.1205 100.8831,108.8195 C99.8921,108.3235 98.5861,108.0855 98.4581,106.0875 C98.1091,100.6315 100.7431,96.5845 103.8791,92.7235 C107.7161,87.9985 111.8201,83.4595 117.5211,80.9265 C121.3471,79.2265 125.3491,79.4105 129.2691,80.8585 C130.4151,81.2815 131.5611,81.7205 132.6611,82.2465 C136.8031,84.2305 138.9801,87.6755 139.9591,92.0475 C141.1791,97.4965 142.7251,102.8945 142.1211,108.3515" id="Fill-39" fill="#000000"></path>
            </g>
        </g>
    </g>
</svg>