<?xml version="1.0" encoding="UTF-8" standalone="no"?>
<svg width="225px" height="303px" viewBox="0 0 225 303" version="1.1" xmlns="http://www.w3.org/2000/svg" xmlns:xlink="http://www.w3.org/1999/xlink">
    <!-- Generator: Sketch 49.1 (51147) - http://www.bohemiancoding.com/sketch -->
    <title>braids0001</title>
    <desc>Created with Sketch.</desc>
    <defs></defs>
    <g id="Page-1-Copy" stroke="none" stroke-width="1" fill="none" fill-rule="evenodd">
        <g id="Artboard" transform="translate(-13158.000000, -4910.000000)">
            <g id="braids0001" transform="translate(13158.702260, 4909.706859)">
                <circle id="Oval-98" fill="#FFFFFF" cx="114.019499" cy="108.080869" r="95"></circle>
                <path d="M185.446061,276.036174 C187.033195,267.158217 187.98024,260.279051 187.235453,253.266631 C187.014159,251.205975 186.573949,248.904987 183.716156,248.950198 C180.529991,248.997788 179.147495,251.294016 179.65909,253.887684 C181.003513,260.659772 180.53237,267.903004 185.446061,276.036174 M19.5917528,278.551317 C24.2056249,271.536518 25.5786029,264.478888 26.8135692,257.373667 C27.2347426,254.946566 26.3495645,253.395125 23.8391802,252.826422 C21.1503326,252.217267 18.9064536,252.581332 18.0807632,255.579516 C16.0462811,262.975037 14.8327304,270.35628 19.5917528,278.551317 M29.0669662,225.147948 C34.247162,213.267048 36.0198979,203.251686 30.2234087,192.432049 C23.4655969,198.923355 23.1895737,205.450354 29.0669662,225.147948 M182.38125,231.030099 C190.485865,220.940972 192.484655,209.376548 193.526881,197.502787 C193.686308,195.694358 193.181851,193.697949 191.125954,193.376715 C189.015327,193.045963 186.769069,193.705087 185.848198,195.915653 C183.01658,202.713916 180.037432,209.478867 177.748342,216.465111 C175.997022,221.814253 177.486596,226.732702 182.38125,231.030099 M83.7957231,82.8103487 C76.7785447,96.4568452 68.973748,106.767267 60.6026277,116.687449 C53.7805692,124.773028 46.5730299,131.747375 34.2400235,127.795007 C33.2287313,135.535557 33.5785194,142.455176 34.2685776,149.384312 C35.9794462,166.57866 45.2405036,178.628504 60.0934124,186.609385 C68.745315,191.25657 77.604235,195.537311 86.4917092,199.72525 C103.983496,207.972636 122.205792,206.566345 140.102096,202.138075 C149.86761,199.722871 159.99243,196.113152 166.959638,188.279802 C179.185567,174.538125 194.171728,162.995116 199.71123,143.899539 C203.006853,132.539753 203.385195,131.464214 191.649446,130.683734 C189.902885,130.567138 188.054005,130.376777 186.395486,130.795571 C178.73108,132.742011 171.887606,130.322048 164.967988,127.433322 C157.498702,124.313782 150.262609,120.989605 143.721332,116.035463 C140.240108,113.398965 136.33533,108.854098 131.083749,114.243691 C129.71315,115.649982 127.114724,114.522094 125.111176,113.629777 C109.746672,106.791062 93.8800914,100.694755 83.7957231,82.8103487 M123.007688,94.798326 C118.869718,89.5657809 117.675203,83.8906468 118.189178,77.6943997 C118.622249,72.5094448 123.207567,68.6022875 127.980866,69.9181572 C132.14977,71.0674611 133.805909,74.9032331 134.43648,78.6057525 C135.176508,82.9459808 136.873099,86.5675968 139.478664,89.9940929 C153.084709,107.895155 170.467038,117.967626 193.574471,116.470914 C195.639887,116.337661 197.750513,116.811184 199.834965,117.051514 C206.47856,117.817717 206.856902,117.506001 206.773619,110.579244 C206.687957,103.58824 204.370313,96.6947964 206.104977,89.6062326 C207.475575,83.9953453 206.785517,78.3915965 205.091305,72.9472749 C202.690378,65.2352792 200.168096,57.5613557 197.636296,49.8921912 C192.625046,34.7085304 181.331886,26.1446697 166.438525,23.101275 C137.777313,17.2429185 108.697307,15.0085575 79.4221816,15.755724 C75.579271,15.8532839 71.8743721,16.0127112 68.2456176,18.0257776 C55.2582457,25.2261784 46.270832,35.5532569 43.3249972,50.2324613 C39.9341937,67.1341291 38.3779934,84.2975432 37.9235068,101.534722 C37.7973927,106.255672 38.1947711,110.990899 41.3285873,114.943268 C42.537379,114.303179 43.3154791,114.124716 43.7366526,113.639295 C58.522935,96.618652 72.7809659,79.2672566 78.2657391,56.6214488 C78.9748335,53.6922705 80.2288359,51.1081214 83.4268989,50.7155021 C86.4655346,50.3442983 89.5517606,52.0147152 90.1252228,54.741635 C91.8479889,62.9223944 98.6034211,68.3286437 100.959137,76.2024462 C104.100092,86.7103675 111.631245,93.0303492 123.007688,94.798326 M199.154425,179.858712 C207.941959,185.548123 208.624879,193.371956 207.413708,202.271327 C206.026453,212.458015 204.522602,222.499552 198.9831,231.389406 C197.098527,234.411385 197.312683,237.340563 198.216897,240.472 C202.559505,255.51051 199.90873,270.387214 197.336478,285.309129 C195.920669,293.535099 188.784515,295.983616 183.135555,299.71231 C180.275383,301.599262 176.860784,299.398214 174.583592,297.190028 C172.613357,295.28166 170.626465,292.875974 169.87216,290.325138 C165.988798,277.192616 161.610497,263.948257 163.223806,250.05905 C164.168472,241.92826 166.745482,234.132982 162.324351,226.166379 C161.284504,224.291324 162.169682,221.345489 162.188719,218.892213 C162.236309,211.934522 161.881762,211.551421 155.045426,214.216473 C135.109881,221.983198 114.657983,223.077773 93.9705128,218.537666 C81.8944937,215.88927 70.984435,209.995221 60.0838943,204.289153 C57.042879,202.69726 54.1993632,200.462899 49.5307623,200.498592 C51.6865994,209.871486 45.0834559,217.740529 45.7330625,226.923063 C45.7806527,227.558393 45.4998704,228.54351 45.0334862,228.83857 C35.6225195,234.813522 39.8413928,242.263772 41.2952741,250.587302 C43.7295141,264.533617 40.6028364,277.932644 29.3858207,288.105054 C26.3923957,290.820076 24.5577926,293.328081 25.2978205,298.032375 C25.9498066,302.148929 22.4662023,304.073954 18.154528,302.938927 C13.1432775,301.620678 9.15521679,298.551108 7.08504207,293.889646 C1.57885323,281.482875 -1.44074644,268.609719 1.27189629,254.918012 C2.38788702,249.271432 3.89173808,243.905634 9.65253462,241.10257 C13.1670726,239.394081 13.4359574,236.4768 12.8648747,233.07172 C11.7607815,226.487613 11.0017175,219.839258 9.70012484,213.297982 C8.99816905,209.776306 9.00054856,206.287942 9.1147651,202.801958 C9.51690248,190.680728 14.1188771,185.126949 25.918873,182.245361 C27.4607962,178.59995 24.5982443,176.434595 22.8516831,174.064602 C18.2687446,167.849319 16.4841112,160.763135 16.4936292,153.284331 C16.5007678,149.410487 16.348479,145.593751 15.9986909,141.748461 C14.8874592,129.465424 15.6417642,117.532176 18.4519669,105.265796 C22.2020765,88.9066563 23.4941511,71.9740548 25.597639,55.2556094 C27.8534155,37.3426493 35.4654718,22.7705229 49.9257611,11.4392907 C60.2552191,3.34895275 71.6007284,0.422154019 84.2716253,0.831429939 C95.8741218,1.2073927 107.474239,1.69281298 119.081494,1.87365583 C136.789816,2.14967913 153.812839,6.7897259 171.069054,9.86643384 C183.078447,12.0079939 191.130713,20.7883901 199.975356,28.2457781 C208.022863,35.0273849 214.21911,42.5513992 215.513564,53.5161867 C216.039436,57.9872882 217.655124,62.4155585 219.316023,66.6487088 C222.856735,75.6670562 224.865043,84.6235362 222.100051,94.3604959 C221.298155,97.1849757 222.59261,100.594815 222.873392,103.740529 C224.19878,118.638648 222.604507,132.918095 216.543892,146.933416 C211.665894,158.217058 208.303645,170.138409 199.154425,179.858712" id="Fill-681" fill="#000000"></path>
                <path d="M121.742977,186.769526 C111.418278,186.850429 103.268453,183.185982 96.1703709,177.094434 C93.2269156,174.569772 91.0187292,171.31936 90.6665616,167.288468 C90.231111,162.248663 94.4618819,159.388491 98.847321,161.884598 C101.552825,163.426521 104.091764,165.411034 106.330884,167.581148 C111.449212,172.53529 117.167177,173.498992 123.670381,170.971951 C125.290829,170.341381 126.908896,169.610871 128.59597,169.258703 C132.724421,168.404459 136.367453,169.351504 138.382899,173.330047 C140.257954,177.034946 138.335309,181.115807 134.073604,183.742788 C130.021297,186.238895 125.416943,186.160371 121.742977,186.769526" id="Fill-803" fill="#000000" transform="translate(114.868258, 173.868989) rotate(-9.000000) translate(-114.868258, -173.868989) "></path>
                <path d="M95.2221357,139.66896 C95.3625269,133.275214 97.8491161,129.601248 101.92046,129.784471 C106.876981,130.008145 110.848386,134.350753 110.803175,139.497635 C110.746067,145.929454 107.543245,150.488597 103.326751,150.141189 C98.9460707,149.779503 95.1126782,144.822981 95.2221357,139.66896" id="Fill-805" fill="#000000"></path>
                <path d="M140.760507,138.641725 C140.529694,145.48044 137.53151,150.182354 133.698117,149.706452 C129.331714,149.163923 126.640487,144.254992 126.795156,137.104561 C126.92127,131.277138 128.610723,129.130819 132.843873,129.41874 C137.831328,129.75663 140.93897,133.378246 140.760507,138.641725" id="Fill-807" fill="#000000"></path>
            </g>
        </g>
    </g>
</svg>