<?xml version="1.0" encoding="UTF-8" standalone="no"?>
<svg width="128px" height="125px" viewBox="0 0 128 125" version="1.1" xmlns="http://www.w3.org/2000/svg" xmlns:xlink="http://www.w3.org/1999/xlink">
    <!-- Generator: Sketch 48.2 (47327) - http://www.bohemiancoding.com/sketch -->
    <title>happy0001</title>
    <desc>Created with Sketch.</desc>
    <defs></defs>
    <g id="Page-1" stroke="none" stroke-width="1" fill="none" fill-rule="evenodd">
        <g id="happy0001" fill="#000000">
            <path d="M73.1730425,77.596819 C96.3606315,78.17623 131.691377,103.001259 129.278377,113.931259 C127.730377,120.944259 116.454654,108.327603 111.117163,103.77398 C48.1577069,50.0607883 10.4948747,130.586104 3.65503232,124.118279 C-3.0437983,117.783797 19.0518548,96.2430539 22.607717,93.9720399 C41.4528703,81.9362517 45.9108977,76.915593 73.1730425,77.596819 Z" id="Fill-39" transform="translate(65.897065, 101.013623) scale(1, -1) rotate(6.000000) translate(-65.897065, -101.013623) "></path>
            <path d="M94.3575748,35.2966772 C94.2315748,36.9956772 94.4685748,39.0656772 92.6315748,39.9216772 C90.3805748,40.9716772 88.4905748,39.3996772 86.7355748,38.2006772 C86.2695748,37.8826772 85.9755748,37.3046772 85.4755748,37.0946772 C81.2215748,35.3116772 81.5245748,32.4986772 81.7575748,28.6986772 C82.0215748,24.4086772 82.0235748,20.3376772 81.9765748,15.9426772 C81.9145748,10.1326772 82.1445748,0.990677246 83.0295748,0.938677246 C84.5485748,0.847677246 87.5235748,1.34767725 88.5205748,2.29867725 C90.7815748,4.45367725 92.8615748,7.07967725 93.0185748,16.9456772 C93.0825748,20.8956772 94.5195748,33.1186772 94.3575748,35.2966772" id="Fill-13"></path>
            <path d="M31.6486442,7.53431844 C31.1256442,5.68431844 30.1126442,3.53431844 32.6366442,2.23631844 C36.6876442,0.153318443 38.8506442,0.701318443 41.2506442,2.86731844 C45.7176442,6.89931844 43.5226442,17.8063184 43.2446442,25.0923184 C43.0076442,31.3033184 45.2006442,36.0803184 39.6536442,40.0483184 C37.7126442,41.4363184 35.8076442,40.7463184 34.2576442,40.2933184 C29.6866442,38.9573184 32.9166442,12.0113184 31.6486442,7.53431844" id="Fill-15"></path>
        </g>
    </g>
</svg>