<?xml version="1.0" encoding="UTF-8" standalone="no"?>
<svg width="140px" height="164px" viewBox="0 0 140 164" version="1.1" xmlns="http://www.w3.org/2000/svg" xmlns:xlink="http://www.w3.org/1999/xlink">
    <!-- Generator: Sketch 48.2 (47327) - http://www.bohemiancoding.com/sketch -->
    <title>excited0001</title>
    <desc>Created with Sketch.</desc>
    <defs></defs>
    <g id="Page-1" stroke="none" stroke-width="1" fill="none" fill-rule="evenodd">
        <g id="excited0001" fill="#000000">
            <path d="M72.4815,163.2683 C63.4405,162.7833 49.4885,158.6013 42.7805,154.1073 C32.6935,147.3493 23.5875,139.6053 15.9105,130.0053 C10.8645,123.6953 6.4155,116.9813 1.4035,110.6713 C-0.4515,108.3363 -0.1925,106.6263 2.0055,104.7243 C4.6555,102.4303 6.0145,102.3573 8.3055,104.3613 C10.1865,106.0063 11.5525,113.2523 12.4185,114.3723 C16.2875,119.3663 35.5205,139.3933 41.4605,144.2113 C50.4945,151.5393 61.1235,153.8653 72.1155,155.3363 C78.4285,156.1813 84.2995,154.1693 90.1415,151.8943 C96.8575,149.2793 101.8195,144.8383 105.4055,138.7283 C106.9025,136.1783 108.5035,133.6453 109.6195,130.9243 C113.4535,121.5763 118.7215,112.9163 122.5575,103.5773 C123.1705,102.0843 123.7905,100.5883 124.2865,99.0553 C124.8485,97.3173 124.1435,96.5003 122.3175,96.8063 C121.1315,97.0053 90.4565,100.9653 83.2235,101.5303 C78.1315,101.9283 73.0325,102.2903 67.9285,102.4923 C56.2385,102.9553 44.5435,103.2913 32.8505,103.7193 C29.3545,103.8473 25.8605,104.3153 22.3705,104.2683 C11.8435,104.1283 9.4385,92.6693 15.5435,93.9013 C24.1705,95.6433 32.9465,95.2723 41.6905,95.1983 C48.4095,95.1423 55.1285,95.1783 61.8475,95.1363 C64.5385,95.1193 67.2265,95.0123 69.9165,94.9313 C80.9275,94.6013 91.8795,93.2943 102.8765,92.7963 C112.7745,92.3493 121.3965,88.6673 129.5635,83.4743 C130.3545,82.9703 131.1465,82.4383 132.0025,82.0713 C134.0835,81.1793 135.9735,81.8213 137.6975,83.0433 C139.4385,84.2793 139.1765,86.1183 138.8195,87.8273 C138.2945,90.3433 137.3935,92.8053 135.9735,94.9143 C133.2405,98.9743 131.5585,103.5373 129.4605,107.8873 C126.1315,114.7893 109.4475,165.2493 72.4815,163.2683" id="Fill-35"></path>
            <path d="M57.833,8.2766 C58.476,13.3836 58.38,18.4926 57.4,23.5176 C56.017,30.6246 54.935,37.8106 52.538,44.6886 C52.185,45.7026 51.882,46.7376 51.457,47.7206 C50.301,50.3986 49.27,50.9016 46.43,50.2366 C45.909,50.1156 45.411,49.8996 44.906,49.7166 C39.463,47.7596 39.023,46.8316 41.488,41.5006 C42.636,39.0186 42.951,36.3386 43.623,33.7576 C45.141,27.9336 47.049,22.1896 47.367,16.0796 C47.556,12.4486 47.836,8.8646 46.964,5.2796 C46.498,3.3666 46.449,1.4936 48.63,0.4446 C50.419,-0.4164 53.23,-0.0084 54.583,1.5166 C56.292,3.4436 57.608,5.6226 57.833,8.2766" id="Fill-55"></path>
            <path d="M96.9141,36.1799 C98.0001,27.3029 92.3331,12.8599 97.9871,8.9379 C106.5071,3.0279 106.4731,17.9229 106.6051,21.7409 C106.7661,26.3049 111.4271,46.3069 105.2171,47.3339 C95.1371,49.0009 96.1151,39.9109 96.9141,36.1799" id="Fill-63"></path>
        </g>
    </g>
</svg>