<?xml version="1.0" encoding="UTF-8" standalone="no"?>
<svg width="317px" height="230px" viewBox="0 0 317 230" version="1.1" xmlns="http://www.w3.org/2000/svg" xmlns:xlink="http://www.w3.org/1999/xlink">
    <!-- Generator: Sketch 49.1 (51147) - http://www.bohemiancoding.com/sketch -->
    <title>horse0001</title>
    <desc>Created with Sketch.</desc>
    <defs></defs>
    <g id="Page-1-Copy" stroke="none" stroke-width="1" fill="none" fill-rule="evenodd">
        <g id="Artboard" transform="translate(-3038.000000, -2491.000000)">
            <g id="horse0001" transform="translate(3037.578691, 2490.484595)">
                <polygon id="Path-32" fill="#FFFFFF" points="315.246265 48.5842576 236.246265 25.5842576 189.246265 75.5842576 43.2462649 81.5842576 48.2462649 151.584258 196.246265 151.584258 255.246265 68.5842576 310.246265 68.5842576"></polygon>
                <path d="M232.303741,13.8158908 C231.961543,16.3284315 232.189675,18.7746904 233.20394,21.1284632 C234.956553,18.4509889 233.330338,16.1681222 232.303741,13.8158908 M197.93126,147.544712 C204.903175,137.69956 211.703991,127.731094 218.887082,118.04471 C225.276335,109.428083 231.593139,100.765213 236.935757,91.4718949 C241.583186,83.3870631 247.069157,75.7322919 250.016382,66.7195157 C251.03373,63.6088978 253.165536,63.0293179 256.155922,64.7433947 C257.768264,65.6682563 259.294286,66.6856041 261.216456,66.8335819 C265.885466,67.194278 270.523647,67.880217 275.223485,67.9187529 C285.981167,68.0066147 296.583164,66.5283776 307.174371,64.8852068 C308.831414,64.627787 309.508105,63.5164117 309.558972,62.0705447 C309.623712,60.2300701 309.42795,58.3803469 309.369375,56.535248 C309.249143,52.7340669 307.212907,50.5498521 303.752383,49.1533111 C296.341158,46.1629252 289.040918,42.9151196 281.581909,40.0233857 C275.81848,37.7898449 270.002642,35.8476355 264.03266,34.2861609 C257.253424,32.511968 250.429487,30.8271785 244.42097,26.9473841 C243.608633,26.4232959 242.632904,26.1150087 241.697252,25.8236773 C240.189728,25.3519978 238.816308,25.5801304 237.569287,26.671467 C234.05173,29.7512562 230.32762,32.6152443 226.987329,35.8738399 C220.471679,42.2322634 214.13946,48.7741178 207.942887,55.4516185 C201.746314,62.1306607 194.984035,68.2254986 187.987457,74.0582925 C187.26144,74.6640768 186.441396,75.1018446 186.193225,76.2594631 C185.525783,79.3592908 185.442546,79.3608323 182.521524,79.4748985 C180.201663,79.5643018 177.855598,79.921915 175.734582,78.4359707 C174.926869,77.8718051 173.880234,77.9057167 172.867511,77.9565841 C168.317192,78.1831752 163.769956,78.3773961 159.236592,78.8737385 C155.564892,79.2760533 151.887025,79.5550532 148.172165,79.5196002 C137.573251,79.416324 116.980503,78.9908876 106.370799,79.3793295 C97.9992598,79.6860753 89.6200137,79.5874234 81.2500162,78.7581308 C76.2311006,78.260247 71.1613176,78.0814404 66.1100319,78.656396 C63.2198394,78.9862633 62.9901654,79.1003296 62.3967126,81.8055498 C61.9481547,83.846411 61.6691548,85.9103938 61.4764753,88.0052054 C60.7997849,95.3640208 60.4745419,102.747499 59.4386969,110.084735 C58.4228906,117.292489 56.7149795,124.372305 55.7731621,131.587767 C55.3384771,134.915727 55.4818307,138.231356 55.7253776,141.551609 C55.8070737,142.684564 55.9874217,143.698829 57.5751008,143.745072 C62.8668505,143.897675 68.1601418,144.404807 73.4457258,144.315404 C81.1945245,144.18284 88.8955388,142.974354 96.6720834,143.037553 C99.4959941,143.060675 102.324529,142.676857 105.149981,142.461056 C113.871426,141.793614 132.577457,140.76856 141.35131,141.098427 C145.291221,141.244863 149.22959,141.397465 153.167959,141.559316 C161.943354,141.920012 170.627804,140.520388 179.366205,140.156609 C182.199364,140.037919 184.503811,140.602084 185.886479,143.250271 C186.532341,144.484962 187.541982,144.833326 188.833705,145.118492 C191.666864,145.744315 194.731239,146.069558 196.377493,149.594822 C197.195995,148.517358 197.579813,148.042596 197.93126,147.544712 Z M187.1967,167.436944 C184.409784,182.447447 181.274503,197.396294 179.142697,212.527029 C178.748089,215.317029 177.866388,218.040746 177.194322,220.790668 C176.815128,222.347518 176.190847,223.936739 176.539211,225.510545 C177.010891,227.628478 175.837858,228.368367 174.256345,229.082052 C172.482152,229.88514 170.900638,229.80961 169.525678,228.365284 C168.232413,227.004196 167.564971,225.276247 168.523744,223.628452 C172.156909,217.382553 172.95229,210.356688 174.086787,203.477259 C176.651736,187.922628 180.044437,172.529848 182.811314,157.016836 C183.242917,154.59524 183.523458,152.145899 183.990513,149.733551 C184.246391,148.407916 183.693016,148.027182 182.519983,147.765138 C178.176216,146.795574 173.878693,146.220619 169.363827,146.792491 C162.509061,147.66032 155.608052,147.44606 148.70396,146.923513 C140.33088,146.289983 121.943927,146.673801 113.600134,147.557044 C103.422032,148.636049 93.1853552,148.759364 82.9980047,149.604071 C75.4773384,150.226811 67.9782523,150.057253 60.4668347,149.682684 C59.9735752,149.658021 59.4803157,149.670352 58.9870561,149.670352 C53.329986,149.682684 52.4066659,150.737026 53.3716048,156.198334 C55.2151623,166.621524 57.0802998,177.041631 58.9377302,187.461739 C59.1119125,188.442092 59.2783875,189.444025 60.1200116,190.096053 C62.0760939,191.614367 62.2009502,193.672184 61.6367846,195.776244 C61.0664533,197.903426 61.3053759,199.901127 61.8772486,201.957403 C63.1967178,206.691153 64.4036622,211.457273 65.7724574,216.175608 C66.1084904,217.330144 66.9917333,218.31358 67.4510812,219.444994 C68.3574456,221.675452 67.6083077,223.178352 65.325441,223.978357 C64.2803474,224.343678 63.2522095,224.758324 62.1115469,224.761407 C59.2753047,224.769114 57.41325,222.970258 57.6506311,220.118602 C58.1146034,214.530896 57.5828079,209.077296 55.7546649,203.77938 C54.6186265,200.479166 54.3242123,197.014018 54.0205494,193.621317 C53.0340303,182.660166 50.3827604,172.002677 48.5176229,161.204918 C48.4821698,161.001448 48.2355401,160.836515 47.8933413,160.411078 C46.8050875,161.519371 46.612408,162.939033 46.2763749,164.272376 C44.1784805,172.600754 42.2254811,180.967669 39.9734431,189.252887 C37.6504991,197.797067 35.0886325,206.278048 32.5128929,214.74978 C32.0720422,216.201813 31.8331196,217.296232 33.1865004,218.319746 C34.5768757,219.374088 34.0774504,220.482381 33.0123182,221.387204 C31.9857218,222.262739 30.8758879,223.050413 29.741391,223.784137 C28.2816511,224.727495 26.188381,224.55023 24.9213206,223.469684 C23.6049343,222.345977 23.5818127,221.028049 24.1136082,219.458867 C27.8654634,208.386732 31.4539264,197.259106 34.5306326,185.977336 C36.0844001,180.274023 37.4562781,174.516759 38.7680402,168.750247 C39.9719017,163.460039 41.517962,158.279272 43.1780886,153.118545 C44.3033368,149.622568 45.6582591,146.126591 45.2127841,142.317703 C45.0540162,140.950449 45.6798392,140.042543 47.0224299,140.130405 C49.4517331,140.289173 49.6027938,138.678372 49.5627165,137.038284 C49.4501916,132.566579 50.2748599,128.202773 50.911473,123.815846 C51.9488594,116.629672 53.7446323,109.560646 54.2671791,102.295858 C54.7881845,95.0418607 55.2983998,87.7878629 55.7654549,80.5307822 C55.8949355,78.5346226 55.4694992,78.1985895 53.4363451,78.4097663 C49.7785175,78.7920424 47.1503691,81.2321356 44.5468837,83.365483 C40.0674707,87.0341007 35.8639748,91.1651491 32.9768651,96.2010205 C29.571833,102.140173 25.8369336,107.966802 23.851564,114.636595 C22.9328682,117.725633 20.9922003,120.33066 19.5709963,123.183858 C19.3444052,123.635498 18.915886,123.914498 18.3578861,123.794266 C17.759809,123.666327 17.6318698,123.210062 17.6796543,122.687515 C17.8122178,121.223151 17.7397703,119.694047 18.1467094,118.306754 C20.2045265,111.27164 21.6966365,104.056178 25.527105,97.6114345 C28.3648886,92.8360658 31.5818656,88.3736086 35.6682124,83.7230962 C33.5286992,84.0082618 32.679368,85.2028747 31.7313849,86.1200291 C27.2519718,90.4545472 23.9132215,95.5921533 21.178714,101.169069 C19.1748472,105.258498 17.6704057,109.579144 15.3705832,113.529844 C12.9859817,117.628522 9.71505451,120.951858 6.23140916,124.096388 C4.61598424,125.198515 3.27339348,126.34226 1.63176415,125.113736 C0.318460677,124.133382 0.310753497,122.385394 2.09881925,120.578831 C7.9547346,114.661258 11.2225789,107.2562 14.7509259,99.9143399 C18.0680962,93.0148723 22.3579126,86.6364102 28.1013031,81.4756825 C35.0809253,75.2004965 43.4262598,71.8478732 52.7473232,70.8875586 C53.7477152,70.7842824 54.8328861,70.6856305 55.6390572,71.2235917 C57.834062,72.6941216 60.3558513,72.7187846 62.7389114,72.6864144 C73.7216428,72.5368951 84.6242196,74.4051156 95.585371,74.0999112 C111.109173,73.6667677 136.639141,74.1384471 152.155235,73.5465357 C157.688991,73.335359 163.231994,72.0420942 168.719507,72.3087626 C174.880626,72.6078012 180.035188,71.1264812 184.688783,67.2328139 C185.974341,66.158433 187.689959,65.6004331 188.759716,63.8971464 C185.579733,61.4878819 182.81748,58.7287115 178.678725,58.1121371 C176.739598,57.8223471 175.799322,56.4967121 176.061366,55.1895744 C176.328035,53.8531494 178.237874,52.6569951 179.885669,52.9930281 C181.333077,53.2874424 182.663337,53.9625914 183.925773,54.7625966 C186.31654,56.2762868 188.832163,57.6096289 191.113489,59.2682141 C192.656466,60.388838 193.656858,60.1822856 194.920836,58.9337225 C197.251487,56.6292756 199.65921,54.4065249 202.114717,51.504001 C196.533178,50.5082333 192.795195,46.5390356 187.80865,45.1162902 C186.299584,44.6862295 185.431756,43.3590531 185.348518,41.735921 C185.279153,40.3609601 186.444479,39.9355238 187.414042,39.4206842 C188.437556,38.8750158 189.310009,39.3097008 190.147008,39.9108608 C191.646826,40.989866 193.13277,42.0904513 194.660333,43.1293792 C198.042244,45.4307431 201.831093,46.2538699 205.872738,46.1243893 C206.608003,46.1012678 207.306274,46.1213065 207.984506,45.6665828 C210.330571,44.0896938 210.399936,42.8796666 208.01071,41.375225 C204.884678,39.4068113 201.74169,37.401403 197.860354,37.2780881 C196.129321,37.2241379 195.136637,36.2776962 194.718908,34.6823099 C194.276515,32.9898132 195.045692,31.7643716 196.790597,31.4591673 C198.137813,31.2233275 199.44495,31.3158137 200.745922,31.9493439 C204.728993,33.8900118 208.840003,35.6164201 212.366808,38.3478447 C213.643117,39.3359052 214.495531,39.268082 215.502089,38.1536238 C217.066647,36.4164254 218.666657,34.7115972 220.443933,32.7863436 C218.222724,30.6036703 215.667023,28.3917096 212.621145,26.8595222 C211.141367,26.1134672 209.579892,26.4602903 207.982964,27.0660747 C205.360982,28.0633838 203.75943,27.1755166 202.812988,24.5751141 C202.09622,22.6067003 202.863855,21.1747063 205.009534,20.8479219 C208.651947,20.289922 212.189543,20.8124688 215.340238,22.7515953 C217.849696,24.2961142 220.166474,26.1504617 222.574197,27.8599142 C223.384993,28.4348698 223.892125,30.033339 225.240882,28.9543338 C226.347633,28.0680081 227.764212,27.2186768 227.388102,25.3859094 C227.21392,24.5412025 226.991953,23.7072856 226.813146,22.8625787 C225.53992,16.8047352 225.10986,10.6636542 225.102152,4.49328593 C225.09907,1.30097198 226.879428,0.218883912 229.931471,1.35029793 C233.362708,2.62352407 234.947304,5.59078836 236.425541,8.56575983 C237.350403,10.429356 237.914568,12.4748415 238.634419,14.4401724 C238.888756,15.1322772 239.029027,15.8891223 239.392806,16.5180281 C241.365844,19.9338503 243.352755,20.0371265 245.533887,16.8494369 C248.256063,12.8709906 250.588255,8.69524046 252.012542,4.05243523 C252.522757,2.38922579 253.037597,0.693646198 255.354375,0.770717998 C257.5278,0.84316549 259.449971,2.13180598 260.185236,4.17112581 C260.441114,4.88481067 260.584468,5.58924692 260.088125,6.27981025 C257.512386,9.86673181 256.681552,14.1565482 255.425281,18.2490608 C254.848784,20.1249884 254.645315,22.1165237 253.506194,23.7843574 C252.513509,25.2379316 253.054553,26.0209811 254.552829,26.4972848 C258.423374,27.7304336 262.209141,29.2657038 266.204543,30.0626262 C270.946,31.0090679 275.476281,32.6291172 279.923324,34.4325973 C288.354979,37.8561266 296.720352,41.4522968 305.081101,45.0500084 C306.678028,45.7374889 308.22563,46.4974168 309.98595,46.56524 C312.487701,46.6592676 313.985976,48.2484881 315.339357,50.0612169 C315.866528,50.7656531 316.16865,51.5086253 315.934351,52.465857 C314.930877,56.5383309 315.467296,60.5075286 316.765185,64.4412733 C317.107384,65.472494 317.192163,66.6162395 317.230699,67.7137419 C317.397174,72.5245636 315.14976,73.5187899 311.578253,72.6941216 C304.837554,71.1372712 298.37123,72.239398 291.786215,73.0594419 C283.433173,74.0983698 275.070883,73.961182 266.719383,72.9392099 C265.863886,72.8343923 265.005306,72.7496133 264.145185,72.7172431 C256.364016,72.4151217 255.335878,72.9037569 251.456084,79.6752852 C245.883793,89.3971221 240.043292,98.9494009 233.760398,108.228846 C227.549953,117.406556 220.696728,126.120293 214.242736,135.122279 C210.009953,141.024438 205.926689,147.032955 201.837259,153.036849 C200.949392,154.340903 200.129348,155.705074 199.907381,157.380615 C199.768652,158.436499 199.580597,159.805294 198.524713,160.290846 C196.497725,161.221874 196.910829,162.689321 197.145128,164.334033 C198.820669,176.027366 200.374436,187.739197 202.102386,199.424823 C202.803739,204.172446 203.861164,208.86766 204.721286,213.592162 C204.995661,215.096603 205.94981,216.26347 206.569467,217.595271 C207.209163,218.977939 206.850009,219.949044 205.538247,220.659646 C204.097004,221.442695 202.678883,221.83422 200.955558,221.493563 C197.991376,220.907817 196.980194,218.644989 197.837233,216.24189 C199.03647,212.87077 197.949757,209.894257 197.556691,206.829882 C196.412946,197.915758 194.9902,189.035545 193.598284,180.155332 C192.58556,173.709047 191.449522,167.281259 190.364351,160.845763 C190.264157,160.243062 190.2025,159.606449 189.191318,159.322825 C188.51771,162.029586 187.703832,164.705519 187.1967,167.436944 Z" id="Fill-338" fill="#000000"></path>
                <path d="M261.100386,46.0109396 C258.609426,46.0803043 256.474537,44.1211391 256.540819,41.8259409 C256.591686,40.1134055 258.728116,37.2972019 260.044503,37.2077987 C262.422938,37.0459479 264.587114,39.0266931 264.590197,41.3696759 C264.594822,44.30457 263.35859,45.9492822 261.100386,46.0109396" id="Fill-378" fill="#000000"></path>
            </g>
        </g>
    </g>
</svg>