<?xml version="1.0" encoding="UTF-8"?>
<svg width="228px" height="485px" viewBox="0 0 228 485" version="1.1" xmlns="http://www.w3.org/2000/svg" xmlns:xlink="http://www.w3.org/1999/xlink">
    <!-- Generator: Sketch 51.1 (57501) - http://www.bohemiancoding.com/sketch -->
    <title>IceCreamScream</title>
    <desc>Created with Sketch.</desc>
    <defs></defs>
    <g id="food" stroke="none" stroke-width="1" fill="none" fill-rule="evenodd">
        <g id="IceCreamScream_DL" transform="translate(-286.000000, -195.000000)">
            <g id="IceCreamScream" transform="translate(286.000000, 195.000000)">
                <polygon id="Path-5" fill="#FFFFFF" points="131.47394 5 89.8942868 73.9464772 10 167.51995 120.281755 482 216 224.783028 203.053815 191.661086 216 143.249757 189.090158 128.651202 203.053815 73.9464772 131.47394 15.9318352"></polygon>
                <path d="M128.019264,10.0741349 C128.056196,10.3430904 128.092155,10.6130203 128.127142,10.8819757 C128.091183,10.6139947 128.055224,10.3440648 128.019264,10.0741349 M132.219701,0.22802743 C130.621941,0.669465148 129.232162,1.74236344 128.393436,3.17776688 C128.176708,3.68741793 127.963868,4.19804346 127.748112,4.71159241 C127.443915,5.84978061 127.443915,6.98407091 127.748112,8.12225911 C127.802537,8.50620273 127.856961,8.88917187 127.910415,9.27214102 C128.056196,10.6958507 128.075633,12.0766835 127.964839,13.489674 C127.795733,14.4115285 127.573174,15.31097 127.273837,16.1996923 C126.975472,16.7746333 126.647951,17.3222889 126.286414,17.8572763 C124.438883,19.958247 122.31048,21.8068283 120.303561,23.7479849 C118.344264,25.6404177 116.418983,27.5620848 114.502448,29.4925221 C110.876389,33.1507058 107.376672,36.8771027 104.134502,40.8773275 C100.565783,45.2741641 97.3459664,49.884411 94.3623149,54.6915021 C92.9006173,57.0477856 91.3932416,59.385554 90.1366092,61.859749 C89.1686232,63.762901 88.3755745,65.7956584 87.8138316,67.8586245 C87.6427819,68.4793658 87.5630883,69.1303159 87.4717322,69.7656744 C87.2783294,71.1211708 87.0995047,72.441586 87.019811,73.8009803 C86.9022143,75.7879373 87.3317824,77.8470055 87.6845725,79.7881621 C87.8060567,80.446908 87.9771064,81.101756 88.1209437,81.756604 C89.2522043,86.8531145 91.5798413,91.7557043 95.2010417,95.5395954 C96.5412552,96.9408921 98.2235682,98.0595908 99.814525,99.1597744 C100.85443,99.8789379 101.947787,100.541582 103.055723,101.154527 C104.252099,101.817171 105.432925,102.512947 106.651655,103.133688 C111.8677,105.783289 117.144972,108.295489 122.550532,110.537759 C125.238734,111.652559 127.911386,112.696223 130.65207,113.666802 C132.982622,114.492183 135.3676,115.143133 137.736055,115.843781 C140.157964,116.562945 142.637213,117.13009 145.086334,117.73524 C147.872695,118.428092 150.655169,119.120945 153.437643,119.813797 C160.377791,121.53862 167.264486,123.437874 174.123969,125.451142 C177.30977,126.383716 180.52084,127.240281 183.683316,128.252761 C186.52799,129.163897 189.316295,130.137398 192.081275,131.236607 C194.618836,132.509273 197.081564,133.822867 199.405313,135.45414 C200.527827,136.414974 201.563844,137.450842 202.529886,138.57149 C203.193676,139.535247 203.782631,140.527263 204.310358,141.577749 C205.019826,143.584195 205.488269,145.646187 205.837171,147.750081 C206.147199,150.739774 206.207455,153.720697 205.922696,156.71039 C205.604894,158.474192 205.173382,160.195117 204.715629,161.93748 C204.374502,163.235482 204.02074,164.575387 203.591172,165.870466 C203.011935,166.596451 202.595002,167.415985 202.339399,168.328095 C201.853462,170.102616 202.104206,172.032079 203.030401,173.619501 C204.598033,176.307106 207.778975,177.543716 210.763598,176.774855 C212.847295,176.238893 214.567511,175.214718 216.047674,173.63899 C217.312081,172.287392 218.314083,170.673659 219.114907,169.010228 C220.08678,166.999884 220.880801,164.914505 221.530012,162.778453 C222.251142,160.391961 222.501885,157.837859 222.794419,155.374383 C223.268694,151.37026 222.850788,147.28623 222.266692,143.319138 C221.643721,139.090886 220.440542,135.119895 218.401551,131.339902 C217.459806,129.592666 216.142917,128.028632 214.916413,126.490908 C213.880396,125.189008 212.669442,124.043024 211.397259,122.976947 C209.077398,121.035791 206.59912,119.422058 203.990612,117.922339 C201.905943,116.726657 199.712425,115.775568 197.51016,114.823505 C192.039484,112.452604 186.318065,110.792097 180.619971,109.076044 C175.475845,107.526627 170.331719,105.999623 165.141915,104.610994 C158.923868,102.947563 152.636819,101.569654 146.39156,100.008543 C144.827816,99.6207017 143.260184,99.259171 141.711018,98.8167588 C140.006351,98.3295207 138.25212,97.9192662 136.574666,97.3482232 C134.858338,96.7654864 133.142009,96.1788517 131.422765,95.5931915 C129.86874,95.064051 128.351645,94.3799687 126.826776,93.7689721 C124.248395,92.6746353 121.665156,91.5822475 119.145088,90.3631778 C115.202197,88.4561279 111.147541,86.608521 107.5312,84.1109385 C107.186185,83.7981317 106.855748,83.4746056 106.536002,83.1364623 C106.162802,82.5517766 105.827506,81.9495503 105.517478,81.3249111 C104.736092,79.2112722 104.140334,76.9729004 103.733119,74.7549925 C103.689384,73.9793095 103.693272,73.2123967 103.740894,72.4396371 C103.897365,71.7107289 104.100487,71.0013102 104.343455,70.2987129 C105.519422,68.0155152 107.023882,65.9281871 108.446705,63.7970077 C109.882162,61.6424408 111.274857,59.4615631 112.729751,57.3177155 C115.262453,53.5883951 117.935105,49.9419051 120.668985,46.3548582 C124.079289,42.1041931 127.563456,37.9149199 131.0622,33.7402639 C133.58324,30.7330303 136.399729,27.8212954 138.244345,24.3346196 C140.150189,20.7329556 140.792597,16.6791346 140.940322,12.648701 C141.035565,9.99910026 140.472851,7.32708653 140.097708,4.71159241 C139.873205,3.16217526 138.43872,1.62834973 137.154875,0.875079625 C136.170367,0.29721524 135.042022,0 133.910761,0 C133.342215,0 132.772697,0.0750346672 132.219701,0.22802743" id="Fill-1" fill="#2C2C2C"></path>
                <path d="M86.4554599,68.0165362 C84.4243562,68.1157534 82.4427208,68.6702024 80.5561417,69.3841771 C78.9644316,69.9901802 77.4008504,70.6895642 75.8362992,71.3694938 C71.3046296,73.2439206 66.7031226,74.8985132 62.092886,76.5774238 C59.3760182,77.5647321 56.6969789,78.6629303 54.1547045,80.0422439 C52.3437826,81.0227432 50.6802952,82.3067304 49.0817953,83.6023903 C47.9789467,84.495345 46.9032572,85.4301266 45.9294138,86.4641254 C43.079661,89.4844136 40.4316605,92.6613093 38.2036543,96.1796288 C33.2966088,103.927324 31.990068,113.110751 31.1258305,122.048081 C30.8910993,124.502247 31.0201045,126.98365 31.2247668,129.434898 C31.4818071,132.558294 31.9328401,135.707954 32.7020212,138.751587 C33.4333737,141.631804 34.6681373,144.488676 35.9378195,147.159758 C37.2521201,149.926167 39.090201,152.403679 41.2047215,154.614666 C42.2086337,155.667146 43.2998427,156.635973 44.3677725,157.620363 C46.2514417,159.356664 48.1157116,161.120201 50.0779478,162.768957 C52.3476625,164.676457 54.7686914,166.374822 57.2391885,167.997314 C61.588505,170.855159 65.9387914,173.662422 70.7469006,175.699292 C76.213615,178.013388 81.6667499,180.31581 87.330367,182.109501 C92.4420747,183.724213 97.7312858,184.712494 102.982668,185.741629 C108.700603,186.867063 114.516505,187.546993 120.309127,188.15105 C130.505383,189.215203 140.788937,189.492428 151.029812,189.655845 C155.553721,189.727826 160.073752,189.727826 164.594752,189.93696 C168.926609,190.13734 173.235187,190.551717 177.538915,191.054612 C181.101591,191.570153 184.661357,192.089584 188.214333,192.657651 C193.131078,193.445552 198.012905,194.26069 202.682309,196.014499 C204.006309,196.648711 205.265322,197.371441 206.477777,198.201169 C207.559286,199.145677 208.535069,200.178704 209.456535,201.282738 C210.203406,202.335218 210.885291,203.404235 211.467269,204.557878 C212.133634,206.491641 212.526469,208.469176 212.831038,210.482701 C212.960043,211.76377 213.007571,213.012739 212.920274,214.298672 C212.855287,214.679977 212.786419,215.06031 212.709792,215.440643 C212.571087,216.131272 212.342176,216.802447 212.084166,217.46195 C211.43235,218.874336 210.754346,220.240031 209.893988,221.532773 C209.155846,222.363474 208.367265,223.110521 207.518547,223.824496 C206.432188,224.60267 205.31576,225.339017 204.180903,226.04521 C202.904431,226.835057 201.650268,227.671594 200.327238,228.389459 C198.106991,229.597575 197.06913,232.409701 197.724826,234.80745 C197.993506,235.768495 198.482367,236.604059 199.183651,237.311225 C200.123545,238.257679 201.797703,239.161334 203.18863,238.975545 C204.52233,238.796565 205.810442,238.674975 207.064604,238.184725 C208.076276,237.789802 209.064669,237.364725 210.038513,236.878366 C211.823246,235.989302 213.524562,234.925149 215.142461,233.762751 C216.699252,232.64899 218.158077,231.436984 219.453949,230.027516 C220.579106,228.807728 221.572349,227.382697 222.443376,225.965447 C223.913841,223.571589 225.126295,220.946224 225.955614,218.26736 C227.437718,213.479644 227.12248,208.27755 226.361059,203.387699 C225.846008,200.074623 224.754799,196.951227 223.102951,194.025292 C222.091279,192.239382 220.773099,190.605217 219.484017,189.02066 C218.060111,187.276577 216.317087,185.974108 214.543993,184.601604 C211.70588,182.41688 208.182002,181.060912 204.817199,179.951041 C203.165351,179.408265 201.457245,179.058086 199.766599,178.659272 C197.277673,178.070778 194.67429,177.781881 192.151415,177.401548 C186.312235,176.512484 180.462385,175.669138 174.600895,174.955163 C164.984677,173.780121 155.285042,174.062209 145.623235,173.83362 C135.746096,173.600168 125.917456,173.026264 116.088816,172.001993 C113.169225,171.587615 110.262245,171.136274 107.351384,170.646025 C105.548222,170.341564 103.751849,169.950531 101.955477,169.605217 C100.27744,169.281302 98.5800039,168.943769 96.9242762,168.521609 C93.3742097,167.614064 89.8726414,166.655937 86.4292708,165.398213 C83.6580851,164.387559 80.9218179,163.287416 78.1962204,162.160036 C74.9963108,160.687342 71.8827279,159.133912 68.8942702,157.247812 C66.1279343,155.499839 63.3567485,153.772292 60.684499,151.890084 C59.1829954,150.633333 57.7290201,149.330864 56.2808645,148.003104 C54.5630591,146.424384 52.8025753,144.861226 51.2739128,143.094771 C50.7433428,142.282552 50.2816401,141.44796 49.8626159,140.570569 C49.3795741,139.348836 48.9275711,138.118348 48.5017571,136.870351 C47.9556676,135.260504 47.6326698,133.586457 47.3475005,131.91241 C47.0342023,129.338599 46.7975312,126.763816 46.6869553,124.168605 C46.5792894,121.677475 46.854759,119.163 47.1796968,116.678679 C47.7704046,113.267359 48.4610186,109.938719 49.6657133,106.693733 C50.711334,104.457456 51.9528873,102.357358 53.3797036,100.338969 C55.3351501,97.9188479 57.3633438,95.617398 59.7446043,93.6048453 C61.508968,92.3772757 63.370328,91.3821856 65.3189847,90.4902036 C68.422868,89.2781975 71.5451805,88.1177454 74.6645832,86.9465934 C76.5356429,86.2433185 78.3892432,85.487517 80.2457534,84.7424153 C82.5077083,83.827088 84.7376545,82.7979528 87.1130951,82.2503128 C87.5204798,82.2464219 87.9191348,82.26004 88.3236096,82.2882488 C88.4807437,82.3154849 88.6388478,82.3417483 88.7969518,82.3680116 C89.4264581,82.4516654 90.0549945,82.5353191 90.6835309,82.6228636 C91.9687325,82.6189728 93.1617877,82.2921397 94.2723959,81.6501461 C95.8592562,80.7153644 97.0494015,79.1726343 97.5382631,77.3906157 C98.0416742,75.5512067 97.780754,73.545463 96.82243,71.8996248 C95.9698321,70.4405485 94.3024648,68.9133818 92.5749597,68.6244847 C90.7737375,68.3209968 88.979305,68 87.1557735,68 C86.9220123,68 86.6892211,68.0048636 86.4554599,68.0165362" id="Fill-3" fill="#2C2C2C"></path>
                <path d="M31.9315292,126.66959 C30.7647223,127.312863 29.6357421,127.983428 28.5145212,128.706623 C27.1430623,129.593561 25.8850835,130.697848 24.6077064,131.714416 C22.6979451,133.240729 20.9588888,134.961974 19.2237121,136.67932 C14.5865519,141.259235 10.1618028,146.342073 7.38784796,152.296254 C5.12988747,157.147124 3.2589228,162.194874 2.17067896,167.445353 C1.04169872,172.893687 -0.00386889417,178.456056 1.07630141e-05,184.033045 C0.0038904202,186.607115 0.246368994,189.147072 0.530553883,191.701649 C0.871963715,194.803983 1.42093521,197.937506 2.21238527,200.956995 C2.97764765,203.891688 4.13766515,206.728915 5.39564399,209.481348 C5.90678883,210.592457 6.380107,211.730857 6.95235644,212.816625 C8.21809459,215.233775 9.52165941,217.606091 10.8775996,219.973534 C13.3101446,224.219141 15.9502514,228.379953 18.704808,232.419907 C20.413797,234.928675 22.2100782,237.399432 24.3274011,239.573892 C24.5601806,239.811708 24.8055689,240.036854 25.0587165,240.253228 C25.5688914,240.594358 26.0868257,240.922818 26.6086396,241.245429 C28.2836815,242.285389 29.8597923,243.397473 31.3263027,244.607997 C31.8393874,244.872129 32.3602313,245.118717 32.8820452,245.352635 C35.238937,246.41891 37.6181367,247.427681 39.9973365,248.432552 C45.1766788,250.655746 50.3405026,253.001746 55.8117891,254.39843 C60.7942388,255.678155 65.7766886,256.956905 70.7659277,258.186923 C76.7677574,259.660604 82.8103234,261.118692 88.9673394,261.769763 C91.4105535,262.028047 93.8430986,262.309723 96.294072,262.462744 C99.1815068,262.637208 102.065062,262.752217 104.959286,262.846759 C108.956303,262.976389 112.963989,262.988084 116.964885,262.991983 C121.208261,262.99978 125.463275,263.037792 129.70277,262.838962 C134.840406,262.603095 139.940215,262.187891 145.028386,261.400368 C148.877976,260.806801 152.715926,260.162553 156.568426,259.584581 C161.198797,259.043646 165.843716,258.742477 170.484756,258.331172 C173.625339,258.057293 176.747493,257.604077 179.869647,257.158659 C182.157675,256.831174 184.488379,256.389654 186.715302,255.761975 C192.28552,254.185954 197.60065,251.999798 202.908991,249.696683 C207.989402,247.492008 212.558669,244.351662 216.72639,240.720089 C217.75256,239.825354 218.590566,238.690852 219.423722,237.620679 C220.204503,236.615807 220.844646,235.72497 221.500308,234.670391 C221.844628,234.121659 222.106505,233.512498 222.38681,232.92283 C223.205418,232.066107 224.110348,231.303925 225.042435,230.566109 L226.054056,229.777611 C226.880423,228.944279 227.448793,227.961825 227.763045,226.831222 C228.236363,225.109978 227.993885,223.228889 227.095744,221.686981 C226.224761,220.194781 224.784438,219.079773 223.125885,218.61876 C221.321844,218.119735 219.640013,218.466713 218.002798,219.292248 C216.828231,219.886789 215.673063,220.522266 214.528564,221.181134 C212.664389,222.250333 211.020384,223.712319 209.394808,225.117775 C208.050507,226.28249 206.761491,227.520305 205.427859,228.700615 C204.257172,229.545643 203.071937,230.337065 201.810078,231.071956 C200.180622,232.024196 198.498791,232.861427 196.797561,233.657722 C193.251555,235.100215 189.644443,236.497873 185.981077,237.570971 C182.222659,238.675258 178.440963,239.455958 174.584584,240.037829 C169.897958,240.532955 165.203573,240.666483 160.501428,240.963753 C155.50055,241.283441 150.552048,241.900399 145.585117,242.539774 C143.020663,242.875056 140.45136,243.239578 137.871388,243.433535 C135.003352,243.646985 132.143074,243.80293 129.271158,243.924762 C124.232453,244.134313 119.17435,244.066087 114.134676,244.028076 C109.661431,243.990064 105.190126,243.913066 100.715911,243.784412 C96.9652527,243.677199 93.2369021,243.338993 89.5046719,242.977395 C88.1264237,242.77954 86.7472056,242.573887 85.3825362,242.300008 C82.9238034,241.804883 80.4767096,241.305858 78.0325256,240.738607 C73.6155359,239.718141 69.2130949,238.659663 64.7912557,237.662589 C62.897013,237.232765 60.9872518,236.839978 59.1191968,236.310739 C57.8767366,235.960837 56.6303968,235.607037 55.3879366,235.25616 C54.1445064,234.902359 52.9282339,234.380918 51.7129313,233.950119 C49.8070497,233.272732 47.9428744,232.473513 46.0593009,231.726926 C44.2639895,231.015426 42.4677082,230.295154 40.6723969,229.56806 C39.2475928,228.906268 37.8838933,228.178199 36.5880878,227.299058 C35.3795745,226.202568 34.2961803,224.999841 33.2535224,223.739609 C30.5338827,220.099264 27.9529408,216.364378 25.4107954,212.591479 C22.6950354,208.56322 20.1490103,204.352701 18.1325585,199.920934 C17.3488678,197.873179 16.7426713,195.805931 16.2160079,193.665584 C15.920184,192.474552 15.7194118,191.263053 15.4963315,190.056427 C15.3256266,188.575923 15.1781996,187.098343 15.0569603,185.606142 C14.9046837,183.706535 14.9997354,181.779638 15.0569603,179.880031 C15.162681,176.149042 15.6777054,172.394662 16.0947686,168.682193 C16.4322988,166.432684 16.836753,164.201693 17.3527474,161.9785 C17.9017189,159.610083 18.6146059,157.348878 19.485589,155.098394 C20.7619962,152.520425 22.3313175,150.183197 24.0247879,147.883981 C25.5136063,146.018486 27.021823,144.152018 28.6658278,142.42395 C30.3292308,140.67639 32.0450092,139.062357 33.8975455,137.546765 C34.9547521,136.849885 36.0158383,136.214409 37.1254203,135.59745 C39.5812433,134.242677 40.3610544,130.9074 38.9750468,128.523388 C38.0128919,126.875242 36.2961435,126 34.5347792,126 C33.6482775,126 32.7540165,126.216374 31.9315292,126.66959" id="Fill-5" fill="#2C2C2C"></path>
                <path d="M130.205603,5.96738002 C130.138006,8.81898797 130.073306,11.6666923 130.017297,14.5143966 C129.968047,17.0644484 129.997983,19.5305721 130.458609,22.047443 C130.771486,23.7552849 131.586513,25.3831021 132.329114,26.9338225 C132.801327,27.9214431 133.35176,28.8749068 133.91378,29.8088523 C135.829672,32.9844623 137.8402,36.010758 140.17133,38.9004264 C142.295807,41.5305029 144.852905,43.7994928 147.380066,46.0177354 C149.443706,47.82512 151.559492,49.6129865 153.777639,51.2212855 C154.822495,51.9795673 155.841278,52.814946 156.931521,53.5049141 C158.097086,54.2407499 159.262652,54.9804894 160.428217,55.7163253 C162.457092,56.9967187 164.566118,58.1365812 166.595959,59.4247819 C167.523969,60.0161831 168.462602,60.5841625 169.349088,61.2438774 L172.036551,63.2493717 C174.312639,65.2021669 176.549133,67.1783839 178.756658,69.2112037 C179.779304,70.1529565 180.798087,71.1093479 181.785969,72.0852575 C183.28469,73.5569293 184.793069,75.0012755 186.145974,76.6066469 C186.725377,77.458616 187.232355,78.333031 187.683323,79.2552656 C188.007789,80.2409343 188.260795,81.2324585 188.451032,82.2483804 C188.634509,84.8862642 188.440409,87.5114611 188.144914,90.1386098 C187.449631,94.9693625 186.658746,99.7610788 185.185132,104.431782 C184.524612,106.516325 183.698963,108.544265 182.959259,110.599531 C182.250457,112.581604 181.653672,114.583194 181.077166,116.603327 C180.356775,119.119222 181.518478,121.894709 183.732762,123.202428 C185.068285,123.991939 186.69351,124.208591 188.187404,123.792853 C188.648029,123.594744 189.107688,123.400538 189.568314,123.202428 C190.439349,122.68422 191.129804,121.986445 191.642575,121.105198 C193.17413,119.035294 194.721135,116.889269 195.818138,114.54123 C196.678551,112.699689 197.519651,110.873762 198.27384,108.983425 C199.367946,106.234287 200.197457,103.375848 200.798105,100.478372 C201.473109,97.2305451 202.068928,93.9827178 202.494789,90.6919506 C202.732344,88.8474814 202.933204,87.0176508 202.989213,85.157567 C203.05681,82.9920236 202.797044,80.8947938 202.480304,78.7526721 C202.185775,76.7510815 201.457658,74.8412263 200.635872,73.0074921 C200.273745,72.1916317 199.876854,71.4177354 199.439405,70.6409113 C198.742191,69.4093133 197.791005,68.3192223 196.931557,67.2018057 C195.629832,65.5173857 194.011367,64.1023168 192.457602,62.6657778 C191.434956,61.724025 190.3901,60.8047181 189.352969,59.8824835 C187.576134,58.3083413 185.777088,56.7605486 183.917205,55.2888769 C182.559471,54.2173281 181.223948,53.0325738 179.801514,52.0566642 C178.49303,51.1607791 177.180682,50.2609905 175.871232,49.3651054 C174.917149,48.7092941 173.882915,48.1754716 172.883445,47.5996849 C171.812516,46.9819341 170.744483,46.3837015 169.651343,45.8118184 C168.141999,45.0262112 166.648106,44.2298689 165.1658,43.3983939 C163.649696,42.544473 162.201189,41.637853 160.737232,40.6882929 C158.290221,39.110247 155.974541,37.3331156 153.668518,35.5520805 C152.038465,34.1945902 150.41324,32.8517385 148.877823,31.3829945 C147.21204,29.79031 145.776086,28.0102509 144.347859,26.2155531 C142.898386,24.2364083 141.448913,22.2611672 140.348048,20.0624428 C140.181953,19.5647289 140.043862,19.067015 139.933775,18.5527106 C139.772508,16.4408422 139.865212,14.3143351 139.896114,12.1966112 C139.929912,10.1228032 139.986887,8.04509163 140.036136,5.96738002 C140.099871,3.26118262 137.753289,1 135.120869,1 C132.393814,1 130.269337,3.26118262 130.205603,5.96738002" id="Fill-7" fill="#2C2C2C"></path>
                <path d="M20,237.069105 C21.6021312,237.675665 23.177005,238.383318 24.5479529,239.284654 C25.2778463,239.760831 26.0269209,240.206776 26.7840718,240.642327 C27.5422322,241.081657 28.2812114,241.53327 29,242 C29,241.198812 28.9979809,240.39668 28.9959619,239.598326 C28.9959619,237.09178 26.7638811,235 24.0865956,235 C22.400673,235 20.8883904,235.829532 20,237.069105" id="Fill-9" fill="#2C2C2C"></path>
                <path d="M190.32086,245.143343 C189.300971,245.438988 188.686398,246.095977 188.078424,246.963003 C187.216891,248.192368 186.741823,249.704438 186.484494,251.193613 C186.215854,252.737536 186.079178,254.343177 186.027335,255.913978 C186.016024,256.276317 186.006598,256.638656 186,257 C186.09426,256.971132 186.187577,256.942265 186.281836,256.913397 C187.460081,256.376856 188.652465,255.887101 189.878782,255.50983 C190.254878,255.393364 190.637572,255.311738 191.024036,255.238075 C192.621736,254.597014 194.313696,254.139112 196,253.868353 C195.902913,253.0292 195.787916,252.192036 195.678575,251.352883 C195.523989,250.182248 195.129984,249.066363 194.931096,247.907673 C194.702045,246.585732 193.487039,245.485774 192.312565,245.143343 C191.981714,245.047781 191.648977,245 191.317184,245 C190.984447,245 190.652653,245.047781 190.32086,245.143343" id="Fill-11" fill="#2C2C2C"></path>
                <path d="M189.004422,256.241 C189,256.241 189,256.245 189,256.245 C189.667772,256.162 190.333333,256.081 191,256 C190.334439,256.081 189.668878,256.161 189.004422,256.241" id="Fill-13" fill="#2C2C2C"></path>
                <path d="M30.7244276,239.745803 C29.4944073,240.462474 28.5801504,241.654011 28.2002626,243.023259 C27.8514654,244.294427 27.9117034,246.14534 28.7550349,247.249478 C29.2864891,247.943813 29.8062845,248.648831 30.3260798,249.354819 C31.0207596,250.289015 31.554157,251.292159 32.0321744,252.337061 C33.8033649,256.91676 34.830325,261.757683 35.9923347,266.519948 C36.7132472,269.463347 37.6168166,272.392179 38.6340609,275.244294 C40.2352249,279.735622 42.3299515,284.022049 44.5053193,288.256037 C46.5961596,292.333678 48.786101,296.369561 50.8011581,300.488959 C51.898072,302.735109 53.0785417,304.954068 54.0996724,307.23712 C55.0450198,309.339547 55.9874524,311.443917 56.9327998,313.549257 C57.7848756,315.612841 58.6748429,317.666713 59.4462775,319.75943 C60.3838522,322.296909 61.3175407,324.831475 62.2512291,327.368954 C64.148725,332.516745 65.7392015,337.788837 67.4054613,343.016258 C68.8929504,347.686268 70.210413,352.412603 71.6444652,357.101064 C73.2728333,362.415884 74.9468658,367.71905 76.6160403,373.022217 C79.7212102,382.896342 82.8059769,392.766583 86.1763882,402.549425 C87.8348753,407.363158 89.4933625,412.18466 91.3189614,416.941099 C93.2436615,421.963618 95.2664912,426.956033 97.1484418,431.997003 C98.6592488,436.032887 100.108846,440.076539 101.418536,444.181371 C102.633011,447.978365 103.684261,451.821 104.917196,455.614109 C106.117097,459.29457 107.411242,462.942986 108.621831,466.618592 C109.221296,468.439401 109.710972,470.301967 110.222995,472.149967 C110.66312,473.739654 111.202347,475.260394 111.931032,476.75103 C112.641257,478.203792 114.049077,479.406012 115.399573,480.221734 C117.13773,481.276347 119.426773,481.242358 121.168816,480.221734 C122.026721,479.71385 122.709742,479.031168 123.217878,478.173688 C123.737673,477.28222 123.996114,476.322775 124,475.290498 C123.825116,473.955238 123.77265,472.896741 123.058539,471.716857 C122.848678,471.370175 122.610641,471.043886 122.361916,470.724395 C122.275445,470.593297 122.196747,470.462198 122.121936,470.328187 C121.400052,468.12865 120.853052,465.86502 120.193349,463.64509 C119.49867,461.308628 118.65631,459.02849 117.987863,456.684259 C117.324273,454.351681 116.4858,452.067659 115.741569,449.757416 C114.94876,447.287914 114.192871,444.803845 113.407834,442.330458 C111.809585,437.281719 109.904316,432.33883 108.010707,427.392056 C107.099365,425.013837 106.120984,422.657953 105.175636,420.287503 C104.177824,417.786925 103.240249,415.261099 102.272555,412.74984 C100.317736,407.67391 98.6174709,402.488246 96.8598825,397.341426 C95.2470596,392.599554 93.7177926,387.831463 92.2108719,383.055602 C90.6058217,377.953453 89.0648957,372.835766 87.4783054,367.729733 C85.9947027,362.950959 84.4615493,358.189665 83.0002929,353.403123 C81.4700543,348.387401 79.9602189,343.369737 78.3318507,338.385091 C76.7073689,333.412098 75.1207786,328.411913 73.268947,323.51855 C72.3352586,321.049048 71.4627797,318.545557 70.441649,316.110043 C69.2689519,313.306483 68.172038,310.450483 66.8934386,307.692565 C64.6879519,302.943895 62.4640051,298.213677 60.0088223,293.585423 C56.7093364,287.361655 53.2116482,281.184501 50.3513165,274.744178 C48.2459025,269.553659 46.838083,264.174747 45.4691267,258.751164 C44.9376724,256.653592 44.3566675,254.58224 43.707652,252.518656 C43.0926418,250.557038 42.3260652,248.664368 41.5070232,246.779467 C40.6986686,244.913016 39.4492166,243.319444 38.2279405,241.714219 C37.9432675,241.34326 37.6547082,240.975213 37.3700353,240.603283 C36.6870145,239.924485 35.8786599,239.453503 34.9488578,239.196162 C34.4737551,239.065064 33.9850503,239 33.4973171,239 C32.5286518,239 31.5648444,239.254428 30.7244276,239.745803" id="Fill-15" fill="#2C2C2C"></path>
                <path d="M196.541013,240.541377 C195.926418,242.946712 195.190456,245.289798 194.265164,247.593006 C193.286472,250.020712 192.36118,252.466898 191.489289,254.936427 C189.794053,259.743207 187.78715,264.431324 186.088031,269.234213 C184.347162,274.15771 182.788826,279.138592 181.119806,284.089322 C179.474087,288.968077 177.433202,293.705799 175.829233,298.599143 C172.506727,308.739873 169.696869,319.040115 166.305426,329.157501 C164.549993,334.397104 162.827572,339.643517 161.143987,344.905491 C159.532251,349.95154 157.795265,354.936312 155.993228,359.913304 C154.184394,364.913638 152.367792,369.898411 150.626923,374.921116 C148.878287,379.973973 147.296649,385.091997 145.673262,390.186678 C144.080944,395.197712 142.582807,400.247651 141.05457,405.278137 C139.646728,409.91276 138.141794,414.518203 136.737836,419.152826 C135.194064,424.255288 133.733793,429.373312 132.357991,434.521487 C131.075399,439.320486 129.782126,444.114621 128.379139,448.879577 C127.006251,453.552133 125.504229,458.191619 123.922592,462.796089 C123.107014,465.175163 122.261338,467.541593 121.431197,469.912885 C121.043798,471.014885 120.645719,472.112021 120.247639,473.21013 C120.042774,473.772315 119.837909,474.331582 119.636927,474.893767 C119.432062,475.467624 119.310696,475.968533 119.227197,476.572541 C118.924268,477.704693 118.924268,478.837817 119.227197,479.969968 C119.435945,480.649842 119.728194,481.287893 120.100058,481.88412 C121.165164,483.707818 123.335182,485.114253 125.500345,484.992673 C125.59938,484.984892 125.69356,484.981002 125.78871,484.97322 C127.977176,484.851641 129.930678,483.886783 131.063748,481.945397 C131.618146,480.987348 131.89486,479.958296 131.898744,478.856297 C131.898744,478.698729 131.891947,478.542134 131.880296,478.386512 C132.370613,476.234063 132.896855,474.083559 133.408533,471.937919 C133.984291,469.514104 134.694038,467.12044 135.395046,464.730667 C136.912602,459.540668 138.528222,454.380821 140.048691,449.194712 C141.542945,444.114621 142.851753,438.974226 144.206194,433.856202 C145.47228,429.080547 146.880122,424.346716 148.332627,419.624556 C151.502698,409.328204 154.49509,398.982248 157.662249,388.685897 C159.255537,383.503678 160.919703,378.351612 162.646009,373.215108 C164.333477,368.188512 166.191828,363.215411 167.982214,358.222858 C169.757066,353.268237 171.342587,348.241641 172.965974,343.237416 C174.452461,338.663097 176.09818,334.142273 177.581754,329.567954 C179.333303,324.168838 180.983876,318.74735 182.53056,313.280149 C183.892769,308.45489 185.231675,303.610177 186.816225,298.846194 C188.439612,293.963548 190.1999,289.127589 191.670852,284.195339 C193.017525,279.704667 194.163217,275.152719 195.740971,270.734022 C197.416788,266.038123 199.268343,261.407391 200.970375,256.718301 C201.809255,254.408284 202.715128,252.129392 203.648187,249.857309 C204.555032,247.6572 205.257011,245.415269 205.84442,243.113033 C206.496882,240.56083 205.044378,237.874402 202.47628,237.167294 C202.067521,237.054468 201.650994,237 201.23738,237 C199.122704,237 197.086674,238.409353 196.541013,240.541377" id="Fill-17" fill="#2C2C2C"></path>
                <g id="Group-2" transform="translate(96.000000, 270.000000)" fill="#000000" stroke="#000000">
                    <path d="M47.6331331,66.8358058 C47.2858881,58.1750472 38.7146527,35.924841 25.4270401,37.0015949 C14.8031037,37.8609665 9.31531526,57.9393803 8.4779715,66.3725985 C7.70875806,74.1211637 8.69335126,96.8264508 16.1788968,100.905926 C35.681754,111.531253 46.8133713,75.7789585 47.6331331,66.8358058 M55,67.3193293 C52.6066473,83.7042739 47.4221488,108.721535 22.5435886,107.98406 C4.79014252,107.455841 0.179257416,84.7403956 0.00343720271,71.7726211 C-0.148207731,60.6759606 4.69124365,33.1801342 19.8271663,30.291183 C38.108073,26.800875 54.4395731,55.6111538 55,67.3193293" id="Fill-1" stroke-width="5"></path>
                    <path d="M46.4015933,18.2072074 C46.0382528,20.7278125 44.7052024,21.363289 41.4014509,20.8201164 C37.3421438,20.1526885 36.3652151,19.2545011 36.5986193,16.1232705 C36.7670552,13.8920024 37.712703,11.7264121 36.9427099,9.41526567 C36.459058,7.95437973 35.3088809,2.62560747 36.574557,1.67594286 C37.8979825,0.683676471 39.3922503,0.910885948 40.7734253,1.54458738 C44.4477359,3.23445786 47.6744881,5.12846186 46.8780265,8.89516897 C46.6446224,9.99748995 46.8419331,11.149513 46.8419331,12.1435545 C46.6975594,14.2576676 46.6903407,16.2422004 46.4015933,18.2072074 Z" id="Fill-4" stroke-width="6"></path>
                    <path d="M23.83517,15.6730339 C23.83517,17.2252057 24.2515001,18.9265564 21.1324368,18.997594 C17.8313713,19.0721835 13.9660989,17.4010237 14.0002244,15.5789091 C14.0662002,12.0376842 14.2618526,5.65628772 14.7123081,2.13282229 C14.9784864,0.0549722215 16.5073051,-0.472482028 18.9961856,0.410160268 C21.1893125,1.18624615 22.9638343,2.17899674 23.3255637,4.37938669 C23.6781931,6.49275557 24.2970006,11.3983458 23.83517,13.5205943 L23.83517,15.6730339 Z" id="Fill-6" stroke-width="6"></path>
                </g>
            </g>
        </g>
    </g>
</svg>