<?xml version="1.0" encoding="UTF-8" standalone="no"?>
<svg width="160px" height="148px" viewBox="0 0 160 148" version="1.1" xmlns="http://www.w3.org/2000/svg" xmlns:xlink="http://www.w3.org/1999/xlink">
    <!-- Generator: Sketch 48.2 (47327) - http://www.bohemiancoding.com/sketch -->
    <title>apprehensive0001</title>
    <desc>Created with Sketch.</desc>
    <defs>
        <polygon id="path-1" points="0 0.257618056 158.629223 0.257618056 158.629223 68.5091164 0 68.5091164"></polygon>
    </defs>
    <g id="Page-1" stroke="none" stroke-width="1" fill="none" fill-rule="evenodd">
        <g id="apprehensive0001" transform="translate(0.000000, 0.662740)">
            <g id="Group-49" transform="translate(0.823606, 78.321352)">
                <mask id="mask-2" fill="white">
                    <use xlink:href="#path-1"></use>
                </mask>
                <g id="Clip-48"></g>
                <path d="M127.400959,30.6736515 C126.797419,33.4122132 128.542655,33.4826262 130.39351,33.4901704 C135.3023,33.5102884 140.218635,33.3191675 145.099763,33.9629432 C145.859217,34.0610184 146.716746,34.7877809 147.315256,34.0383857 C148.057107,33.1129581 147.114077,32.3107531 146.583464,31.7072133 C142.343598,26.8914689 137.623414,22.7798542 131.271158,20.8761892 C129.759793,20.4235344 128.864543,20.9491169 128.821792,22.0329738 C128.706114,25.0255251 127.134395,27.7389393 127.400959,30.6736515 M65.1030807,46.7252946 C65.1030807,44.7713346 65.0829627,43.1618952 65.1081102,41.5549706 C65.1282281,40.2699338 64.7308978,39.3243882 63.2748581,39.3621094 C58.3710975,39.4853321 53.5226613,38.3134591 48.6063269,38.7459959 C47.8192105,38.8164089 46.8485173,38.6227732 46.8912681,39.8524855 C47.0496973,44.1602506 46.0035617,48.3498225 45.6665853,52.6123221 C45.4578611,55.2502939 46.5945277,55.9996891 48.9986278,55.8110829 C52.9115773,55.5042835 56.7138778,56.4498292 60.360264,57.59404 C62.0853818,58.1347111 64.0192238,58.6829263 65.1508609,57.8656329 C65.9857576,57.2595784 66.1441868,54.7875801 65.6638697,53.4975138 C64.7736485,51.0934137 65.3922768,48.7320644 65.1030807,46.7252946 M100.933225,13.6010202 C101.519162,15.4342723 103.800039,17.0059904 102.892215,18.8970817 C101.124346,22.5837038 101.13692,26.5469483 100.254243,30.3593078 C99.8166765,32.2453696 100.110902,32.8966896 102.117672,32.8639979 C107.237701,32.7784964 112.365274,32.7935849 117.485303,32.8665126 C118.868415,32.8841159 119.640443,32.5546838 119.404057,31.0508638 C118.808061,27.2435338 120.588504,23.7932981 121.632124,20.4185049 C122.557552,17.4234388 121.355502,17.491337 119.484529,17.0185642 C113.391292,15.4719935 107.197465,14.4887266 100.933225,13.6010202 M72.644813,40.5415267 C70.4368634,40.5541005 70.4192601,40.5541005 70.4142306,43.7201695 C70.4041716,47.743768 70.3765094,51.7673665 70.4544666,55.7884502 C70.4871584,57.3601683 71.2390683,58.1196226 73.0572319,58.2629633 C78.1621724,58.6628084 83.257054,59.2864661 88.3368471,59.9755074 C92.4987568,60.5362964 93.5750693,58.99727 93.1701947,54.7699768 C92.8508216,51.4203311 91.1407923,48.2894685 91.7091256,44.8668951 C92.0637052,42.7243289 90.7912422,41.9774484 89.1038455,41.8240487 C83.9762722,41.3537907 78.8386399,41.0142996 72.644813,40.5415267 M114.233733,60.900935 C120.852552,61.7961857 127.732906,60.6016799 133.695376,56.200869 C136.340892,54.246909 139.738318,54.0180669 142.205286,51.6164815 C144.141643,49.727905 145.285854,47.2936279 147.300168,45.4729496 C148.537424,44.3513715 147.800603,43.2499115 146.062911,42.8173746 C140.128104,41.3487612 134.092706,42.0679794 128.102574,41.8341077 C126.769757,41.781298 125.912227,42.5156047 125.98767,43.8232742 C126.196394,47.4922931 123.960782,50.5200509 123.472921,53.9878899 C123.367301,54.7096229 122.990089,55.1019237 122.326195,55.1295859 C121.994248,55.1421597 121.420886,54.958583 121.340414,54.7272261 C120.455222,52.212477 117.681454,50.2811498 119.507161,46.8988123 C120.301822,45.4301989 120.62874,42.503031 118.249787,42.0252287 C114.522929,41.2758335 110.592376,41.1073453 106.795105,41.3713939 C105.215843,41.4820429 103.717052,41.9573304 102.255983,41.190332 C100.18383,40.0964162 99.4294051,41.1148895 99.3489332,42.9732891 C99.13015,47.8468727 99.1653565,52.7305154 98.2474731,57.553804 C98.0136014,58.7810016 98.0814996,59.7064292 99.8569125,60.0811268 C104.406093,61.0367314 108.960304,61.2856916 114.233733,60.900935 M64.1248433,30.58815 C65.3620998,27.6559526 64.929563,24.7338142 65.1910969,21.8720298 C65.399821,19.5936672 65.6336927,17.3228488 65.7946366,15.0344272 C65.9731838,12.4593241 67.4367678,11.8004599 69.8157204,12.8893462 C72.6825343,14.20456 74.1536625,17.9037558 73.1100416,21.3112408 C72.3581317,23.7731801 71.6866937,26.2426637 71.6087364,28.8403994 C71.5785594,29.8639023 71.8576966,30.2209966 73.0245401,30.568032 C78.2853951,32.1246617 83.6996498,31.8153475 89.0510358,32.2654876 C90.3184693,32.3736218 90.9169796,32.0693372 91.1684545,30.5554583 C92.0134102,25.4630915 91.7367878,20.2600757 92.8633954,15.2054301 C93.4493319,12.5624289 91.9077907,11.7199879 89.6093101,11.5741325 C88.1281229,11.4810868 86.6796275,11.4911458 85.1682633,11.1617136 C82.0097385,10.4726724 78.6299158,9.61765772 75.5292302,10.0803715 C69.3555213,10.9982549 63.2421664,10.0552241 57.1288114,10.0979748 C51.6667765,10.135696 44.6984069,10.2136532 40.3805828,12.3235277 C40.0461212,12.4869864 39.90781,12.4643536 39.7720135,12.1474953 C39.0175888,10.3896857 37.933732,11.5464702 36.8347866,11.6998699 C32.7432899,12.2757475 29.5495587,14.5868018 26.5117418,17.0386822 C22.8251197,20.0136303 20.2852232,23.8209603 19.7621554,28.6920292 C19.6867129,29.4037032 19.5433722,30.7314907 20.757996,30.3643373 C25.4505177,28.9460189 30.3115276,30.658563 35.0417706,29.3835852 C36.7744327,28.9183566 38.9748381,28.63419 41.2280532,30.8345954 C40.3378321,28.583895 41.4820429,27.3743007 41.6480163,25.8805398 C42.0227139,22.5610711 42.7419321,19.2717793 43.4661799,16.0051203 C43.9490117,13.8223181 46.8887533,12.3361014 48.2542621,13.7368167 C49.8888489,15.4116395 51.3725509,17.4661895 50.7086571,20.2525314 C49.9391439,23.4814692 48.8301396,26.660112 48.7622414,30.2536884 C49.7782,30.007243 50.3314448,29.295569 51.2367544,29.1547431 C55.3508839,28.5285705 59.2537744,30.6610777 63.3553301,29.9720365 C63.596746,29.9292858 63.9286929,30.4221766 64.1248433,30.58815 M105.650894,68.166045 C97.6389038,68.166045 89.5615299,68.807306 81.6425851,67.9749241 C74.7471432,67.2481616 67.7812884,68.1811335 61.0417609,66.883523 C56.1430298,65.9404921 51.2342397,66.782933 46.4461575,65.8097251 C42.6740339,65.0402119 38.8239531,64.3310527 36.3117188,60.7198731 C34.8028694,58.5521594 35.6679431,57.4406403 37.4735329,56.5026389 C38.5221832,55.9594531 39.6915416,55.559608 40.8533556,55.3533986 C42.8701843,54.9937895 43.3152949,53.2586127 42.452736,52.2778605 C39.6588498,49.106762 40.7225887,45.4427726 40.5918217,41.9472714 C40.448481,38.0569547 40.55913,38.0368367 36.6889312,38.0594694 C31.5613579,38.0921612 26.4312698,38.2807673 21.308726,38.1525151 C18.4796334,38.0795874 18.1778635,39.4048602 18.5223841,41.6781933 C19.525769,48.3020423 23.4311742,52.8009283 28.9158419,56.1958395 C30.1480689,56.962838 31.6368004,57.4657878 31.8832458,59.2311416 C32.1070584,60.8682433 32.9469846,62.5883316 31.4029287,63.9915616 C29.7758861,65.4677193 28.2720661,64.087122 27.0071474,63.4005956 C18.3614402,58.7055591 12.2380262,51.9157367 10.0099586,42.0805531 C9.45168429,39.6035253 6.88412551,38.2933411 4.4070977,39.7317775 C3.01644148,40.5364972 2.1614268,40.6245134 0.987039,39.6588498 C-0.162201313,38.7133042 0.00377212357,37.6948308 0.0138311197,36.3016598 C0.0339491121,33.2965347 1.02978973,32.5949197 3.77086619,33.4449049 C5.74997369,34.0610184 7.11799717,33.0048238 7.69135995,31.1740865 C9.01411795,26.9643966 10.0325913,22.6566315 11.4810868,18.4922071 C12.9698182,14.2171337 15.8441764,10.7593538 19.4478117,8.12892629 C26.6022728,2.90327777 34.667073,0.655092126 43.5969468,0.773285331 C51.8000582,0.883934289 60.0056843,1.20330742 68.2515465,0.348292743 C71.0580064,0.0590966026 74.5183011,0.471515446 77.6164719,1.44472333 C80.5109481,2.35254773 83.5764271,2.74233383 86.5865817,3.25031314 C93.0268541,4.33668473 99.4545526,5.62675099 105.942605,6.30321848 C110.808645,6.81119779 115.297472,8.65702359 120.062921,9.48940552 C123.007692,10.0024143 125.751283,11.6596339 128.58792,12.7988153 C133.770818,14.8785127 138.895877,17.1518459 143.533074,20.2449872 C148.751178,23.7228851 153.755529,27.7062476 156.637431,33.3946099 C157.972763,36.0275522 159.647586,39.065369 157.834452,42.533208 C156.828552,44.4519615 157.95516,46.9239598 156.418648,49.0740702 C153.999459,52.4564077 151.753789,55.8211419 147.838324,57.724807 C144.926245,59.1406107 142.190198,61.0392462 139.700596,63.0007505 C136.501836,65.5180142 132.830302,66.0385673 129.24427,66.9866277 C121.498843,69.0336334 113.552236,68.5533163 105.650894,68.166045" id="Fill-47" fill="#000000" mask="url(#mask-2)"></path>
            </g>
            <path d="M63.5137851,34.8788109 C64.0142202,31.4637817 65.3118307,28.3228601 65.8122658,24.9581259 C66.5692052,19.8682738 68.7017124,15.0701326 69.0286298,9.83191037 C69.1543672,7.83017013 69.5164911,5.99440333 69.0990428,3.89458787 C68.5080767,0.922154503 70.6908789,-0.486104962 73.4394996,0.464470177 C76.0447796,1.36726508 77.6517043,3.24829737 79.1052292,5.42355529 C79.4874711,5.99188858 79.7640935,6.61051684 79.4723826,7.05814217 C77.9836511,9.3566228 79.0825965,12.009683 78.3885257,14.3483997 C77.063253,18.8095645 76.9048238,23.5020862 75.3406499,27.9456477 C74.4730615,30.4075871 74.4127075,33.2165617 73.726181,35.8218418 C73.2106575,37.773287 73.4168669,40.4867012 70.6405839,40.559629 C66.9464176,40.6577042 63.5816834,37.6500643 63.5137851,34.8788109" id="Fill-50" fill="#000000"></path>
            <path d="M123.059773,15.9663892 C121.938195,22.5147957 121.576071,30.2903998 119.581875,37.8145289 C119.141794,39.4717485 115.183579,39.9520656 113.551507,38.3753179 C109.892547,34.837066 108.941972,35.7272872 110.953771,29.1235562 C111.82136,26.269316 112.598417,23.1761747 112.4249,20.0101057 C112.203602,15.9965662 112.877554,12.0257774 113.362901,8.05247395 C113.672215,5.52012166 114.886839,4.80341818 117.268306,5.72884583 C121.304479,7.29301973 123.328851,10.4616035 123.059773,15.9663892" id="Fill-52" fill="#000000"></path>
        </g>
    </g>
</svg>