<?xml version="1.0" encoding="UTF-8" standalone="no"?>
<svg width="234px" height="202px" viewBox="0 0 234 202" version="1.1" xmlns="http://www.w3.org/2000/svg" xmlns:xlink="http://www.w3.org/1999/xlink">
    <!-- Generator: Sketch 48.2 (47327) - http://www.bohemiancoding.com/sketch -->
    <title>desertosland0001</title>
    <desc>Created with Sketch.</desc>
    <defs></defs>
    <g id="Page-1" stroke="none" stroke-width="1" fill="none" fill-rule="evenodd">
        <g id="desertosland0001" transform="translate(-1.000000, 0.000000)" fill="#000000">
            <path d="M105.6658,80.928197 C107.2338,80.407197 108.7638,79.905197 110.3468,79.524197 C112.7418,78.948197 115.1098,78.223197 117.4368,77.412197 C118.2588,77.126197 119.1088,77.010197 119.9268,76.800197 C122.1968,76.220197 124.4968,75.763197 126.8668,75.578197 C128.0228,75.488197 129.1558,75.609197 130.2978,75.546197 C131.3428,75.488197 133.0828,76.963197 133.3858,77.977197 C133.4888,78.326197 133.5148,78.706197 133.2708,79.009197 C130.2528,82.777197 128.0988,87.098197 125.5818,91.182197 C124.1278,93.541197 123.1658,96.201197 121.9518,98.711197 C120.5198,101.669197 119.2828,104.714197 117.8448,107.675197 C116.6628,110.105197 115.6608,112.664197 114.7188,115.224197 C113.8928,117.466197 112.8308,119.625197 112.0958,121.893197 C111.4598,123.852197 110.5068,125.674197 109.8928,127.637197 C109.4448,129.069197 108.6898,130.404197 108.2548,131.838197 C107.5308,134.223197 106.6078,136.546197 106.0698,138.991197 C105.8028,140.204197 105.3888,141.386197 105.0148,142.573197 C104.4388,144.395197 103.8478,146.212197 103.2518,148.027197 C102.3098,150.893197 101.4928,153.799197 100.5398,156.664197 C100.0348,158.182197 99.6688,159.830197 99.2848,161.424197 C98.7408,163.691197 98.2988,165.919197 98.3828,168.257197 C98.4098,169.022197 96.9758,169.581197 95.9708,169.188197 C94.9538,168.791197 93.9598,168.322197 92.9938,167.812197 C92.4378,167.519197 92.4518,166.861197 92.6938,166.448197 C94.5078,163.357197 94.6388,159.741197 95.8708,156.456197 C97.0168,153.404197 97.5348,150.122197 98.4758,146.985197 C98.9678,145.344197 99.5848,143.732197 99.9928,142.066197 C100.5028,139.982197 101.3538,138.007197 101.7858,135.893197 C102.2558,133.597197 102.9888,131.364197 103.8288,129.166197 C105.2588,125.426197 106.7368,121.705197 108.1438,117.955197 C109.5558,114.190197 110.9218,110.397197 112.6508,106.745197 C114.4428,102.960197 115.8778,99.006197 117.6938,95.234197 C119.2948,91.908197 121.0938,88.672197 123.0858,85.551197 C124.3328,83.598197 125.3358,81.496197 126.7098,79.620197 C126.8248,79.463197 127.0078,79.358197 126.8038,79.131197 C126.5818,78.884197 126.3508,78.892197 126.0508,78.971197 C124.5698,79.362197 123.0518,79.637197 121.6058,80.129197 C119.8538,80.724197 118.0228,80.945197 116.2578,81.458197 C113.3608,82.299197 110.4688,83.141197 107.6158,84.126197 C104.4168,85.230197 102.5148,87.646197 100.9518,90.453197 C100.3598,91.516197 98.7408,91.922197 97.7198,91.315197 C97.2208,91.018197 96.7368,90.761197 96.1178,90.654197 C94.8108,90.428197 94.4208,88.661197 95.6418,87.565197 C96.4188,86.867197 96.8638,86.030197 97.1618,85.229197 C98.1328,82.622197 99.8188,80.414197 100.9518,77.911197 C102.2168,75.120197 104.0258,72.651197 105.7248,70.131197 C107.1528,68.012197 108.8788,66.066197 110.8968,64.503197 C113.0648,62.824197 115.0068,60.823197 117.8728,59.534197 C116.3908,59.211197 115.2488,59.386197 114.1388,59.526197 C112.5028,59.733197 110.8808,60.058197 109.2598,60.372197 C106.6938,60.869197 104.3878,61.994197 102.1078,63.243197 C99.5248,64.659197 97.1748,66.412197 94.8448,68.168197 C92.5688,69.883197 90.4968,71.875197 88.3918,73.806197 C86.8568,75.213197 85.1118,76.403197 83.8728,78.122197 C83.7658,78.271197 83.5528,78.352197 83.3768,78.442197 C82.3688,78.963197 78.9368,78.213197 78.2768,76.902197 C77.9418,76.236197 77.8118,75.578197 78.3358,75.159197 C79.5588,74.182197 79.4698,72.657197 80.0648,71.428197 C80.7578,69.997197 81.1688,68.431197 81.7318,66.936197 C82.5088,64.875197 83.1498,62.786197 83.6038,60.620197 C83.9418,59.004197 84.7278,57.503197 85.4608,56.005197 C87.2978,52.258197 89.7058,48.867197 92.3588,45.701197 C94.4388,43.220197 96.6288,40.805197 98.8598,38.443197 C101.7288,35.404197 104.9438,32.790197 108.5828,30.750197 C110.2208,29.832197 111.9958,29.092197 113.9518,29.127197 C114.8328,29.143197 115.6148,28.679197 116.5198,28.740197 C117.1108,28.780197 117.1798,28.328197 116.8478,27.831197 C115.9778,26.529197 114.9788,25.356197 113.6828,24.452197 C112.1028,23.352197 110.5808,22.164197 108.9578,21.136197 C105.9438,19.228197 102.8638,17.389197 99.4318,16.355197 C97.9598,15.911197 96.3348,16.083197 94.7748,16.107197 C92.2968,16.144197 89.8188,16.213197 87.3408,16.217197 C86.1028,16.219197 85.3358,15.305197 84.7228,14.430197 C84.3998,13.969197 84.8278,13.232197 85.3028,12.846197 C87.3598,11.172197 89.7148,9.97119702 92.0808,8.81919702 C93.3008,8.22519702 94.6728,7.94319702 95.8828,7.33419702 C97.9218,6.30719702 99.8468,5.05119702 101.8938,4.04219702 C104.1168,2.94619702 106.3008,1.73919702 108.6878,1.00319702 C108.8398,0.956197015 108.9988,0.897197015 109.1528,0.902197015 C111.6748,0.984197015 114.1638,0.128197015 116.6648,0.469197015 C119.0908,0.799197015 121.4898,1.22619702 123.8668,2.03219702 C126.5908,2.95819702 129.0698,4.24919702 131.5478,5.62019702 C131.6488,5.67719702 131.7988,5.66019702 131.8858,5.72819702 C134.1938,7.52519702 136.7858,8.93919702 138.9288,10.960197 C141.0748,12.985197 142.9698,15.209197 144.6148,17.663197 C145.0338,18.288197 145.5998,18.861197 146.1398,19.410197 C146.5788,19.857197 147.2818,19.766197 147.7258,19.476197 C150.9478,17.369197 154.6248,16.319197 158.1638,14.965197 C160.2728,14.158197 162.5478,13.862197 164.7158,13.251197 C168.9448,12.059197 173.2308,12.459197 177.5108,12.416197 C178.2598,12.409197 178.9928,12.268197 179.7388,12.095197 C181.4248,11.705197 182.9908,12.443197 184.5278,13.004197 C185.0988,13.212197 184.9658,14.360197 184.2888,14.665197 C182.1368,15.634197 180.2558,17.049197 178.2608,18.266197 C176.5488,19.312197 175.0918,20.769197 173.4068,21.867197 C171.4378,23.151197 169.5108,24.533197 167.7118,25.990197 C166.0028,27.373197 164.5428,29.188197 163.2518,31.050197 C163.0978,31.273197 162.9168,31.565197 163.0618,31.818197 C163.1898,32.044197 163.4508,31.952197 163.6968,31.859197 C167.4098,30.454197 171.2818,30.397197 175.1648,30.609197 C178.7998,30.808197 182.2028,31.911197 185.5498,33.319197 C187.0878,33.966197 188.5788,34.698197 190.0288,35.484197 C191.3248,36.188197 192.4958,37.164197 193.6148,38.142197 C194.9838,39.339197 196.3258,40.473197 198.0258,41.269197 C199.2658,41.850197 200.1498,43.139197 201.2788,44.025197 C202.6338,45.089197 203.9148,46.253197 205.1738,47.430197 C206.5738,48.741197 208.0548,50.005197 209.2388,51.496197 C210.3318,52.870197 210.9808,54.572197 211.6068,56.226197 C212.8658,59.553197 214.0658,62.905197 215.6778,66.083197 C216.0138,66.745197 215.9848,67.547197 216.5618,68.110197 C216.9108,68.450197 216.5908,68.850197 216.3738,69.040197 C215.1888,70.081197 212.7248,71.240197 210.9948,69.790197 C208.9148,68.047197 206.2478,67.474197 203.9068,66.242197 C200.9848,64.704197 197.8868,63.506197 194.8948,62.096197 C192.2288,60.841197 189.7558,59.241197 187.2388,57.716197 C186.0888,57.020197 184.7308,56.674197 183.5258,56.056197 C181.7258,55.133197 179.8108,54.490197 177.9098,53.879197 C175.9618,53.254197 173.8798,53.084197 171.8068,53.181197 C171.6018,53.191197 171.3778,53.201197 171.3868,53.470197 C171.3948,53.760197 171.4968,53.980197 171.8418,54.079197 C172.8078,54.355197 173.7448,54.718197 174.6868,55.070197 C177.7688,56.220197 180.5198,57.881197 182.7668,60.265197 C184.9578,62.590197 187.0098,65.047197 188.4138,67.962197 C189.2698,69.738197 190.5878,71.291197 191.3348,73.063197 C192.2838,75.311197 193.0778,77.657197 193.5408,80.121197 C193.9988,82.560197 194.1408,85.108197 195.2508,87.406197 C195.3008,87.510197 195.3138,87.640197 195.3118,87.757197 C195.2818,90.416197 195.9548,93.019197 195.9068,95.683197 C195.8708,97.752197 196.4298,99.764197 196.6488,101.809197 C196.9098,104.238197 196.9598,106.695197 196.6018,109.104197 C196.3938,110.500197 196.3658,111.883197 196.3068,113.273197 C196.2168,115.398197 195.8638,115.962197 193.8538,116.392197 C192.9718,116.581197 192.0218,116.453197 191.1038,116.468197 C190.8258,116.472197 190.7068,116.310197 190.5918,116.066197 C188.9768,112.669197 186.7628,109.615197 184.9708,106.325197 C183.4668,103.566197 182.4088,100.560197 180.8638,97.827197 C179.7958,95.938197 179.0008,93.919197 177.8288,92.082197 C175.8898,89.040197 174.1408,85.875197 172.1918,82.838197 C171.0268,81.021197 169.6178,79.363197 168.3558,77.606197 C167.9468,77.037197 167.6588,76.382197 167.0288,75.794197 C167.0288,76.562197 166.9998,77.331197 167.0338,78.097197 C167.2188,82.216197 166.6568,86.308197 166.4438,90.405197 C166.3078,93.040197 166.1758,95.758197 165.5278,98.353197 C165.0058,100.450197 164.3728,102.538197 163.8628,104.627197 C163.2878,106.985197 162.5268,109.262197 161.7778,111.553197 C161.5728,112.180197 161.2778,112.778197 161.0158,113.386197 C160.6928,114.130197 160.3168,114.821197 160.2878,115.697197 C160.2508,116.808197 159.1238,117.570197 157.9168,117.443197 C156.7048,117.316197 155.5568,116.894197 154.4478,116.434197 C153.9328,116.220197 153.5538,115.381197 153.7698,114.961197 C154.6528,113.238197 153.8378,111.608197 153.4398,110.095197 C152.5798,106.822197 151.3118,103.661197 149.8938,100.567197 C148.1148,96.686197 145.8478,93.120197 143.2658,89.740197 C143.1248,89.555197 143.0158,89.344197 142.8578,89.177197 C142.4528,88.746197 142.4148,87.821197 141.7158,87.874197 C141.0198,87.928197 140.9818,88.851197 140.7428,89.354197 C139.5458,91.873197 138.3878,94.426197 137.4498,97.050197 C136.5978,99.434197 136.1418,101.959197 135.3288,104.360197 C134.7358,106.112197 134.3678,107.921197 133.7528,109.663197 C132.8098,112.337197 131.9298,115.034197 131.0408,117.727197 C130.4388,119.548197 129.8488,121.374197 129.2938,123.209197 C129.0008,124.175197 128.9898,125.191197 128.7098,126.183197 C127.9738,128.785197 127.3278,131.426197 126.8688,134.090197 C126.4158,136.720197 125.3948,139.229197 125.2568,141.918197 C125.2408,142.208197 125.0908,142.436197 124.9908,142.693197 C124.3628,144.318197 125.0468,145.338197 126.8118,145.407197 C127.7298,145.443197 128.6498,145.392197 129.5678,145.409197 C132.0898,145.457197 134.4768,146.167197 136.7808,147.089197 C138.9798,147.969197 141.0358,147.673197 143.2018,146.964197 C145.2318,146.301197 147.1718,145.235197 149.4228,145.351197 C151.2228,145.445197 152.8828,146.041197 154.6018,146.487197 C157.1348,147.145197 159.4748,148.401197 162.1108,148.734197 C163.4158,148.898197 164.6868,149.351197 165.9648,149.709197 C167.9988,150.278197 170.0948,150.419197 172.1698,150.726197 C175.8738,151.273197 179.5828,150.917197 183.2788,151.150197 C185.5368,151.293197 187.7378,151.813197 189.9208,152.381197 C190.9168,152.640197 191.9358,152.637197 192.9478,152.915197 C195.5128,153.618197 198.0448,154.394197 200.5098,155.376197 C203.2448,156.466197 205.9788,157.569197 208.6558,158.793197 C210.7658,159.759197 212.7248,161.066197 214.8628,161.950197 C217.1828,162.909197 219.2778,164.303197 221.5618,165.263197 C225.0278,166.721197 227.9268,168.996197 231.0178,171.019197 C232.3488,171.890197 233.8148,172.489197 234.5028,174.074197 C234.5988,174.295197 234.7148,174.496197 234.7028,174.728197 C234.5928,176.929197 235.0618,179.118197 234.7958,181.330197 C234.7098,182.052197 234.5168,182.733197 234.0168,183.128197 C231.1638,185.380197 228.5358,187.988197 225.2348,189.573197 C223.0638,190.614197 220.8418,191.570197 218.2398,191.502197 C216.3938,191.454197 214.5308,192.188197 212.6688,192.535197 C211.0878,192.829197 209.5248,193.279197 207.9028,193.278197 C205.5418,193.277197 203.2448,193.780197 200.9258,194.112197 C200.8468,194.123197 200.7688,194.164197 200.6908,194.159197 C198.1748,193.992197 195.7398,194.701197 193.2538,194.907197 C189.4258,195.222197 185.5838,194.976197 181.7778,195.394197 C179.4788,195.646197 177.1668,195.900197 174.9208,196.592197 C173.8018,196.936197 172.5578,196.886197 171.3808,197.020197 C169.6848,197.212197 168.0278,197.720197 166.2988,197.682197 C164.7788,197.648197 163.3228,198.122197 161.8528,198.427197 C161.2118,198.560197 160.5848,198.543197 159.9538,198.559197 C156.0758,198.660197 152.1788,198.826197 148.3238,198.457197 C144.7678,198.117197 141.2138,197.991197 137.6798,198.220197 C134.1428,198.449197 130.5928,198.746197 127.0918,199.458197 C125.5058,199.781197 123.8468,199.861197 122.2298,199.942197 C119.5978,200.074197 116.9818,200.392197 114.3698,200.649197 C110.7348,201.006197 107.1008,201.324197 103.4568,201.419197 C98.3018,201.554197 93.1408,201.470197 87.9848,201.592197 C86.6608,201.623197 85.3468,201.989197 83.9898,201.922197 C80.1728,201.734197 76.3348,201.777197 72.5418,201.377197 C69.5758,201.064197 66.6018,200.692197 63.6478,200.156197 C61.6028,199.785197 59.6018,199.151197 57.4838,199.035197 C55.4518,198.923197 53.4498,198.324197 51.4168,198.126197 C47.8268,197.778197 44.2418,197.370197 40.6488,197.035197 C38.1278,196.801197 35.5608,196.746197 33.0868,196.162197 C30.8308,195.630197 28.5508,195.227197 26.3358,194.439197 C23.6898,193.497197 21.0828,192.447197 18.4268,191.558197 C16.1648,190.802197 13.8218,190.062197 11.3438,190.354197 C10.5148,190.452197 9.8458,190.163197 9.1558,189.660197 C7.1888,188.224197 5.6808,186.312197 3.8508,184.749197 C2.8398,183.886197 1.8908,183.045197 1.2248,181.870197 C0.9958,181.465197 0.8328,181.105197 1.1538,180.850197 C1.9368,180.228197 2.3648,179.337197 3.2448,178.724197 C5.5088,177.148197 7.9118,175.796197 10.2358,174.335197 C12.3588,173.000197 14.5238,171.710197 16.6528,170.372197 C20.0898,168.214197 23.5608,166.103197 26.9268,163.840197 C29.0848,162.387197 31.0898,160.705197 33.1518,159.111197 C36.5078,156.515197 40.1358,154.329197 44.0158,152.678197 C47.2648,151.294197 50.5988,150.086197 53.8968,148.810197 C56.5288,147.792197 59.2068,146.867197 61.8318,145.825197 C63.8508,145.024197 65.7368,143.897197 67.7188,142.991197 C70.6778,141.640197 73.5528,140.125197 76.8218,139.494197 C79.8878,138.902197 82.9548,138.929197 85.9798,139.249197 C88.8778,139.555197 91.8348,139.724197 94.6088,140.938197 C96.1328,141.604197 96.7628,142.801197 97.3538,144.129197 C97.5678,144.610197 97.3118,144.813197 96.7878,144.868197 C95.4828,145.007197 94.3408,144.419197 93.1338,144.127197 C92.4868,143.970197 91.8678,143.537197 91.2308,143.526197 C88.0188,143.466197 84.8398,142.470197 81.6198,143.007197 C78.4478,143.537197 75.3648,144.416197 72.5198,145.997197 C68.3108,148.335197 63.9558,150.410197 59.3788,151.870197 C54.8068,153.327197 50.3808,155.144197 45.9818,156.997197 C42.4278,158.494197 39.1508,160.636197 36.1298,163.091197 C32.3498,166.162197 28.4518,169.080197 24.2988,171.620197 C20.4698,173.962197 16.6148,176.255197 12.8438,178.693197 C11.2608,179.716197 9.7058,180.783197 8.1338,181.822197 C6.8898,182.644197 6.9268,183.234197 7.7468,184.396197 C8.7428,185.806197 10.3138,185.651197 11.6458,186.084197 C13.5418,186.701197 15.5918,186.894197 17.4258,187.638197 C19.6118,188.524197 21.8518,189.268197 24.0278,190.181197 C25.4958,190.796197 27.0888,191.043197 28.6198,191.461197 C31.1518,192.152197 33.7518,192.252197 36.3068,192.696197 C36.5038,192.730197 36.7028,192.780197 36.8998,192.776197 C39.3728,192.734197 41.8128,193.160197 44.2578,193.396197 C48.2308,193.779197 52.2388,194.078197 56.1148,195.170197 C56.1918,195.191197 56.2738,195.212197 56.3518,195.205197 C58.7758,194.990197 61.0398,195.901197 63.3698,196.288197 C66.7788,196.856197 70.2118,196.960197 73.6258,197.324197 C77.6228,197.749197 81.6278,197.866197 85.5828,197.530197 C92.8418,196.912197 100.1078,197.457197 107.3498,197.005197 C109.2618,196.886197 111.2508,196.936197 113.1368,196.351197 C113.3988,196.270197 113.6928,196.240197 113.9688,196.255197 C116.2818,196.387197 118.5608,195.919197 120.8238,195.638197 C124.1178,195.230197 127.4258,194.832197 130.7188,194.467197 C133.7718,194.127197 136.9048,193.568197 139.9588,193.934197 C144.0568,194.425197 148.1438,194.157197 152.2308,194.317197 C154.4658,194.404197 156.7508,194.543197 158.9388,194.195197 C163.0188,193.547197 167.1678,193.474197 171.2088,192.506197 C173.4868,191.961197 175.8228,191.647197 178.1558,191.319197 C181.6168,190.832197 185.0808,191.162197 188.5218,190.850197 C191.9438,190.541197 195.3998,190.524197 198.7688,189.645197 C200.1408,189.287197 201.6148,189.351197 203.0338,189.205197 C204.8788,189.014197 206.7248,188.731197 208.5438,188.463197 C211.2388,188.067197 214.0648,187.761197 216.3788,186.089197 C217.1948,185.498197 218.0688,185.492197 218.7368,185.803197 C220.0108,186.394197 221.1108,186.086197 222.0818,185.434197 C224.3308,183.923197 226.5018,182.291197 228.6698,180.660197 C229.5108,180.028197 229.7868,177.727197 229.2618,176.538197 C229.2148,176.431197 229.0658,176.335197 229.0748,176.245197 C229.4008,173.059197 226.6758,172.255197 224.8018,170.834197 C222.0308,168.732197 218.8328,167.334197 215.7888,165.704197 C213.1618,164.298197 210.2218,163.470197 207.6188,162.028197 C205.3768,160.783197 202.9648,160.054197 200.6378,159.086197 C198.3048,158.115197 195.9198,157.241197 193.3908,156.814197 C191.6328,156.517197 189.9218,155.959197 188.1738,155.594197 C187.4008,155.432197 186.5868,155.380197 185.7968,155.413197 C181.6348,155.591197 177.5038,155.103197 173.3658,154.832197 C170.9218,154.672197 168.5478,153.946197 166.1648,153.372197 C163.4818,152.727197 160.8178,152.001197 158.2188,151.071197 C156.5288,150.466197 154.7988,150.025197 153.0468,149.679197 C150.4218,149.161197 148.0948,150.322197 145.7828,151.230197 C143.7228,152.040197 141.7338,152.220197 139.6788,151.485197 C135.9638,150.157197 132.1838,149.278197 128.2018,149.645197 C126.8758,149.767197 125.7148,149.417197 124.7158,148.531197 C124.1008,147.985197 123.9528,148.163197 123.8228,148.946197 C123.3918,151.531197 123.3158,154.181197 122.4478,156.689197 C122.4238,156.761197 122.4268,156.848197 122.4328,156.927197 C122.5878,159.082197 121.9938,161.174197 121.9058,163.316197 C121.8078,165.730197 121.2358,168.120197 121.4428,170.561197 C121.4788,170.971197 121.3118,171.177197 120.8768,171.297197 C119.1978,171.764197 116.7318,170.931197 115.6118,169.502197 C115.1088,168.861197 114.9398,168.446197 115.7418,167.782197 C116.4498,167.195197 116.4628,166.112197 116.6128,165.185197 C117.1078,162.130197 117.1538,159.018197 117.6828,155.981197 C118.0818,153.684197 118.0358,151.331197 118.5988,149.081197 C119.4888,145.518197 119.8058,141.852197 120.7738,138.290197 C121.3118,136.315197 121.7918,134.248197 121.9698,132.155197 C122.1048,130.549197 122.6918,129.014197 123.0778,127.459197 C123.3598,126.318197 123.3708,125.144197 123.7658,124.002197 C124.8338,120.902197 125.4728,117.671197 126.5488,114.556197 C127.3138,112.342197 127.8638,110.041197 128.6818,107.838197 C129.7058,105.078197 130.3508,102.220197 131.1178,99.391197 C131.6058,97.588197 132.3308,95.843197 133.0258,94.103197 C134.0658,91.503197 135.1448,88.917197 136.2728,86.354197 C136.6108,85.586197 136.7338,84.707197 137.3368,84.063197 C137.8158,83.550197 137.6728,83.024197 137.2798,82.592197 C136.7638,82.022197 136.2478,81.415197 135.5458,81.066197 C134.8088,80.699197 134.3068,80.109197 134.3808,79.338197 C134.4658,78.466197 135.1528,77.933197 135.9788,77.644197 C137.1038,77.250197 139.8718,78.431197 140.6708,79.827197 C141.1838,80.725197 142.0278,81.355197 142.8808,81.846197 C143.6088,82.266197 144.1578,82.842197 144.2248,83.528197 C144.3678,85.011197 145.3988,85.862197 146.2158,86.879197 C150.0198,91.617197 153.1668,96.749197 155.5638,102.340197 C156.0918,103.571197 156.7578,104.746197 157.0098,106.080197 C157.0688,106.396197 157.2778,106.440197 157.5238,106.461197 C157.7568,106.480197 157.8698,106.378197 157.9258,106.138197 C158.4868,103.742197 159.4748,101.474197 159.8828,99.018197 C160.2838,96.610197 160.5878,94.199197 160.8978,91.781197 C161.5308,86.845197 161.9568,81.895197 161.7188,76.933197 C161.5828,74.112197 161.6858,71.161197 159.8998,68.644197 C159.0178,67.400197 157.9088,66.431197 156.5778,65.785197 C155.6408,65.331197 155.2438,64.507197 154.7178,63.760197 C154.5238,63.486197 154.6038,63.114197 154.8098,62.757197 C155.8398,60.955197 157.9678,60.259197 159.7478,61.282197 C160.8888,61.937197 161.7068,62.879197 162.5268,64.034197 C163.8118,65.844197 165.3898,67.548197 166.9228,69.229197 C168.6938,71.172197 170.2378,73.319197 171.9318,75.335197 C174.4858,78.376197 176.8028,81.585197 178.8138,85.007197 C180.7408,88.284197 182.6988,91.548197 184.4938,94.897197 C186.5138,98.663197 188.3538,102.526197 190.4628,106.246197 C190.5378,106.379197 190.5318,106.556197 190.5718,106.710197 C190.6278,106.925197 190.5668,107.279197 190.8748,107.267197 C191.1948,107.254197 191.4508,107.016197 191.4958,106.654197 C191.5208,106.456197 191.5068,106.254197 191.5198,106.055197 C191.7638,102.492197 191.1728,98.964197 190.9398,95.429197 C190.7568,92.648197 190.5618,89.807197 189.9688,87.080197 C189.2288,83.677197 188.5188,80.267197 187.3908,76.928197 C185.9838,72.766197 183.9008,69.058197 181.3678,65.547197 C178.8648,62.078197 175.5228,59.691197 171.6098,58.021197 C169.2808,57.027197 166.9528,56.021197 164.5458,55.253197 C163.4738,54.910197 162.3518,54.965197 161.6048,53.829197 C160.7978,52.598197 161.4568,50.852197 162.7948,50.876197 C166.2938,50.938197 169.6448,49.827197 173.1138,49.831197 C176.5558,49.834197 179.7728,50.863197 183.0018,51.912197 C186.3538,53.001197 189.3128,54.869197 192.3398,56.562197 C194.7478,57.909197 197.1798,59.221197 199.6268,60.484197 C202.0088,61.712197 204.5608,62.613197 207.0368,63.658197 C207.7008,63.939197 208.3888,64.176197 209.0198,64.515197 C209.7128,64.886197 209.8328,64.674197 209.8028,63.981197 C209.7458,62.663197 209.1538,61.490197 208.6928,60.329197 C207.7378,57.917197 206.8568,55.423197 205.2498,53.340197 C203.1278,50.590197 200.5308,48.280197 197.8548,46.100197 C195.0168,43.789197 191.9618,41.745197 189.0878,39.476197 C186.5148,37.444197 183.5558,36.218197 180.5948,34.928197 C177.6118,33.629197 174.4948,33.314197 171.3428,33.549197 C169.2888,33.701197 167.2538,34.254197 165.2418,34.753197 C164.4028,34.961197 163.5198,35.105197 162.7028,35.237197 C161.5068,35.431197 160.7328,36.021197 159.8248,36.665197 C158.3638,37.703197 156.5708,37.813197 154.9768,37.204197 C154.1518,36.889197 153.5058,35.796197 153.4698,34.723197 C153.4288,33.528197 154.5138,33.112197 155.3118,32.648197 C155.8498,32.336197 156.1928,31.968197 156.5558,31.503197 C159.1048,28.232197 161.4868,24.855197 165.2818,22.734197 C167.6328,21.421197 169.6508,19.514197 171.8208,17.877197 C172.5928,17.295197 173.3818,16.737197 174.1348,16.133197 C174.3248,15.981197 174.5878,15.739197 174.4928,15.460197 C174.4078,15.210197 174.0918,15.256197 173.8598,15.256197 C171.3968,15.263197 168.9698,15.441197 166.5358,15.972197 C164.4468,16.428197 162.4158,17.039197 160.3868,17.664197 C157.1338,18.667197 154.0638,20.099197 151.1958,21.947197 C150.9908,22.079197 150.8548,22.212197 150.7188,22.424197 C149.4198,24.438197 147.0858,25.408197 144.8188,24.857197 C144.2858,24.727197 143.7598,24.377197 143.5768,23.849197 C142.8178,21.656197 141.1458,20.073197 139.8568,18.247197 C137.9408,15.532197 135.7658,13.019197 133.1128,10.957197 C131.0298,9.33719702 128.7308,8.05619702 126.5218,6.63419702 C124.4828,5.32219702 122.2028,4.47619702 119.9118,3.91219702 C117.9298,3.42519702 115.7998,2.86519702 113.6878,3.61219702 C113.5418,3.66319702 113.3698,3.67519702 113.2128,3.66219702 C110.4558,3.43619702 108.2498,4.80219702 105.9838,6.08019702 C102.1968,8.21919702 98.4068,10.362197 94.3258,11.916197 C93.9948,12.042197 93.7198,12.267197 93.7608,12.581197 C93.8058,12.922197 94.2118,12.868197 94.4648,12.847197 C96.7078,12.659197 98.8738,13.405197 101.1018,13.372197 C102.3288,13.354197 103.3818,14.005197 104.4138,14.474197 C108.3268,16.255197 112.0448,18.382197 115.4918,21.001197 C117.3008,22.375197 119.1768,23.630197 120.6988,25.346197 C121.9048,26.705197 122.8148,28.264197 123.7428,29.800197 C124.3078,30.734197 123.3308,31.862197 122.0438,32.055197 C120.4518,32.294197 118.9168,32.302197 117.3848,31.674197 C116.9138,31.481197 116.3118,31.632197 115.7498,31.795197 C109.9078,33.494197 105.8218,37.645197 101.8228,41.857197 C99.3408,44.472197 96.9458,47.199197 94.7708,50.071197 C92.9118,52.528197 91.1628,55.132197 89.9418,57.974197 C88.8978,60.406197 88.3608,63.053197 87.3498,65.503197 C86.8948,66.604197 87.2148,67.882197 86.3848,68.846197 C86.3028,68.941197 86.3638,69.305197 86.4768,69.392197 C86.7828,69.630197 86.7988,69.245197 86.9548,69.113197 C90.6518,65.992197 94.5678,63.159197 98.6638,60.599197 C101.1038,59.074197 103.7508,57.812197 106.5568,57.170197 C107.8238,56.880197 109.1778,56.674197 110.5128,56.533197 C113.8758,56.180197 117.2858,56.330197 120.6078,55.861197 C122.4708,55.598197 124.3718,55.847197 126.2248,55.245197 C127.8748,54.709197 130.6028,56.111197 131.3248,57.657197 C131.6878,58.434197 131.0308,58.847197 130.4058,58.967197 C129.5488,59.130197 128.6948,59.517197 127.8158,59.368197 C125.7728,59.024197 124.0478,59.779197 122.5738,61.010197 C120.6138,62.646197 118.3108,63.747197 116.3458,65.409197 C113.6128,67.720197 111.4568,70.441197 109.4728,73.347197 C108.3368,75.010197 107.2108,76.696197 106.3868,78.535197 C106.0558,79.273197 105.1768,79.927197 105.6658,80.928197" id="Fill-11"></path>
        </g>
    </g>
</svg>