<?xml version="1.0" encoding="UTF-8"?>
<svg width="375px" height="381px" viewBox="0 0 375 381" version="1.1" xmlns="http://www.w3.org/2000/svg" xmlns:xlink="http://www.w3.org/1999/xlink">
    <!-- Generator: Sketch 51.1 (57501) - http://www.bohemiancoding.com/sketch -->
    <title>pumpkin</title>
    <desc>Created with Sketch.</desc>
    <defs></defs>
    <g id="plants" stroke="none" stroke-width="1" fill="none" fill-rule="evenodd">
        <g id="pumpkin_DL" transform="translate(-213.000000, -277.000000)">
            <g id="pumpkin" transform="translate(213.000000, 277.000000)">
                <path d="M159.226562,87.609375 C179.716146,79.3802083 195.733073,75.265625 207.277344,75.265625 C218.821615,75.265625 226.335938,79.3802083 229.820313,87.609375 C245.830729,79.3802083 258.880208,75.265625 268.96875,75.265625 C279.057292,75.265625 287.311198,82.6197917 293.730469,97.328125 C294.800781,97.328125 302.052083,97.328125 315.484375,97.328125 C335.632812,97.328125 380.40625,159.019531 370.101563,214.367187 C359.796875,269.714844 326.664062,344.433594 278.242188,354.503906 C245.960938,361.217448 225.557292,367.217448 217.03125,372.503906 L159.226562,378.992187 L143.527344,359.835937 L131.949219,378.992187 L88.1289062,354.503906 L50.1914062,354.503906 C22.1888021,317.746094 8.1875,277.709635 8.1875,234.394531 C8.1875,169.421875 18.4375,87.609375 50.1914062,87.609375 C71.3606771,87.609375 80.9817708,90.8489583 79.0546875,97.328125 C101.276042,79.0208333 118.907552,71.6666667 131.949219,75.265625 C144.990885,78.8645833 154.083333,82.9791667 159.226562,87.609375 Z" id="Path-4" fill="#FFFFFF"></path>
                <path d="M204.838792,69.2365139 C203.227365,69.4301018 201.557004,69.6506236 199.978412,70.0613666 C197.69261,70.6564389 195.482581,71.3962813 193.255714,72.1891499 C189.082337,73.6814599 184.853394,74.9641901 180.647182,76.3546561 C178.351278,77.1138572 176.072212,77.9067258 173.796513,78.72232 C171.115853,79.6852093 168.501704,80.8357946 165.883346,81.9602877 C160.575909,84.2353661 155.819926,87.5137348 151.833454,91.6960747 C149.505557,94.1386487 147.483275,96.9397812 145.509825,99.6786288 C142.606057,103.702732 139.846257,107.796694 137.991516,112.422603 C135.620681,118.333767 133.98568,124.432627 132.446658,130.600505 C131.618213,133.9218 130.921107,137.275078 130.224,140.62499 C129.52942,143.955544 128.806214,147.276838 128.164674,150.617492 C127.869162,152.159461 127.921361,153.592853 128.737177,154.983319 C129.477221,156.252582 130.70726,157.19948 132.124204,157.587497 C133.588296,157.991507 135.182885,157.784452 136.492064,157.018517 C137.675798,156.324967 138.830064,155.019512 139.096952,153.629046 C140.385925,146.935114 141.82981,140.257173 143.43787,133.628893 C144.843869,127.829673 146.502443,122.102839 148.716682,116.5637 C149.121643,115.716964 149.511451,114.865177 149.978714,114.05295 C150.702761,112.79042 151.448699,111.574183 152.248519,110.357105 C153.582956,108.321907 155.034418,106.365828 156.474936,104.403856 C156.922836,103.829826 157.369893,103.255796 157.816108,102.683449 C159.546245,100.464764 161.560108,98.4573418 163.738144,96.6822251 C166.057623,95.0106359 168.567374,93.5696687 171.198361,92.4485424 C171.931669,92.1379601 172.664978,91.8265361 173.397445,91.5142704 C175.931612,90.5362308 178.462411,89.5438825 181.044567,88.6904124 C184.030842,87.7005892 187.033956,86.7536919 190.026125,85.7908027 C192.77919,84.9061902 195.489317,83.9037417 198.20197,82.9071849 C200.774022,81.9644961 203.389013,81.2162369 206.08567,80.7709848 C207.86127,80.6076976 209.630135,80.5967557 211.40321,80.7592012 C212.351207,80.9309052 213.269737,81.1632107 214.187426,81.4746346 C215.134581,81.9400872 216.027012,82.4728747 216.897553,83.0805723 C219.318061,85.1182952 221.357181,87.5204683 223.333999,89.9790344 C223.98901,90.8956309 224.679381,91.8012855 225.27209,92.7540745 C226.018027,93.9576861 226.843947,95.1352054 227.514954,96.3775346 C228.195222,97.6366975 228.876331,98.8958604 229.553232,100.155023 C230.149308,101.261841 230.638461,102.44441 231.151188,103.597521 C232.457841,106.90619 233.708928,110.22496 234.805945,113.612748 C235.446643,115.588186 235.720265,117.699135 236.101653,119.730966 C236.39043,121.258627 236.590806,122.803964 236.808021,124.345091 C237.171728,127.626827 237.466399,130.898462 237.666775,134.194506 C237.861257,137.466141 238.002699,140.736935 238.180343,144.00857 C238.357988,147.184253 238.561731,150.360777 238.722537,153.53646 C238.874082,156.521922 238.805045,159.517484 238.995318,162.499579 C239.094664,163.991889 239.528251,165.307445 240.606745,166.389012 C241.636408,167.415028 243.044091,168 244.497238,168 C247.496984,168 250,165.497666 250,162.499579 C250,158.494835 249.782786,154.486724 249.568939,150.488714 C249.335728,146.083327 249.125249,141.674573 248.934135,137.264978 C248.737126,132.764481 248.424775,128.295968 247.93478,123.818196 C247.65779,121.269569 247.269667,118.702426 246.799878,116.183258 C246.368817,113.852628 245.931863,111.580917 245.217918,109.318464 C243.708363,104.561252 241.820788,99.9319764 239.745465,95.3944449 C237.894092,91.3476165 235.473584,87.6189456 232.944469,83.9660265 C232.095818,82.7396893 231.093096,81.5857372 230.17204,80.4149514 C229.389058,79.4192364 228.517675,78.4689724 227.656395,77.5414339 C225.574338,75.3059148 223.1673,73.2968092 220.502636,71.7977657 C217.332823,70.0159155 213.82035,69.3610835 210.23884,69.0690183 C209.654551,69.0218838 209.067735,69 208.481762,69 C207.26351,69 206.043574,69.0925855 204.838792,69.2365139" id="Fill-73" fill="#2C2C2C"></path>
                <path d="M305.937817,137.407803 C305.937817,137.409481 305.938663,137.411159 305.938663,137.412837 C305.938663,137.411159 305.937817,137.409481 305.937817,137.407803 M248.858786,71.5873307 C247.884796,71.7610128 246.904042,71.9086845 245.942734,72.1511681 C244.681281,72.4658096 243.462103,72.8299546 242.224324,73.2293395 C239.868824,73.9869961 237.56067,74.9862973 235.282108,75.9402901 C233.244507,76.7952758 231.212825,77.6838232 229.419567,78.9851802 C228.085404,79.9551149 226.853543,80.9644846 225.730749,82.1609612 C224.65361,83.3045779 223.72274,84.5857979 222.764814,85.8217094 C221.90919,86.9258911 221.850007,88.7977979 222.203417,90.0723055 C222.586418,91.4525326 223.518134,92.6490092 224.759295,93.3697478 C226.044421,94.1173359 227.606863,94.3170283 229.04333,93.9268729 C229.485514,93.7406052 229.928545,93.5568546 230.370729,93.3697478 C231.17816,92.894849 231.825796,92.263888 232.315328,91.4735087 C233.202233,90.3903031 234.134795,89.3859677 235.184878,88.45379 C236.420121,87.6365613 237.707783,86.9644871 239.058011,86.3402385 C240.966253,85.5792258 242.888024,84.8601652 244.823322,84.1662759 C246.917569,83.4178488 249.0524,82.9463062 251.228659,82.5611851 C253.394773,82.349746 255.554968,82.2113038 257.7363,82.3212185 C260.370807,82.4563046 263.012925,82.5947468 265.636441,82.8917683 C267.759435,83.2282249 269.829164,83.7308122 271.87522,84.4087596 C272.77819,84.7091373 273.660868,85.0657309 274.547774,85.412256 C275.091416,85.6471883 275.632522,85.8846377 276.168555,86.1363509 C277.837527,86.9149836 279.388133,87.8874354 280.867719,88.9689629 C282.878264,90.6067765 284.783125,92.4233064 286.506208,94.3564634 C287.163144,95.0973391 287.866581,95.8113654 288.477862,96.5916762 C288.915819,97.1513184 289.354622,97.7109606 289.791734,98.2714419 C290.527299,99.3336714 291.330503,100.377442 291.99843,101.481624 C292.698485,102.638665 293.478015,103.773052 294.10536,104.972046 C294.749614,106.201245 295.393022,107.430444 296.033894,108.656288 C296.483688,109.516307 296.863307,110.423314 297.242927,111.324447 C298.914436,115.594341 300.519998,119.892763 302.150924,124.181955 C302.97611,126.355078 303.78185,128.524846 304.511497,130.730692 C305.10164,132.512821 305.48126,134.379694 305.768722,136.240693 C305.795777,136.511704 305.818605,136.779359 305.834669,137.048692 C305.318082,138.901301 305.949654,141.072746 307.289736,142.405148 C309.330719,144.4306 313.088866,144.630292 315.100257,142.405148 C315.853578,141.568621 316.312672,140.926753 316.64579,139.845225 C316.883369,139.078339 316.933252,138.275374 316.989054,137.478282 C317.038937,136.822989 316.907043,136.114836 316.820804,135.462899 C316.629726,133.997929 316.411593,132.552256 316.130894,131.104066 C315.720838,128.999744 315.057138,126.94157 314.334255,124.92283 C312.781958,120.590008 311.113831,116.292426 309.521797,111.973028 C308.643345,109.590143 307.662592,107.25005 306.631954,104.930094 C306.259099,104.084338 305.902307,103.238581 305.476187,102.422192 C304.924935,101.364158 304.426104,100.252424 303.80806,99.2271129 C303.151124,98.1321607 302.494188,97.0372084 301.83387,95.9430953 C301.209062,94.9068761 300.465887,93.9268729 299.782741,92.9275717 C299.201053,92.0784593 298.540735,91.2855629 297.906627,90.4725294 C296.978292,89.2794091 296.037276,88.1190115 295.033694,86.9854632 C293.015539,84.7074592 290.845199,82.5569899 288.464334,80.6531994 C286.2086,78.847577 283.814208,77.1854312 281.149263,76.0317459 C279.619794,75.3697403 278.093707,74.7211594 276.54141,74.1178869 C274.421798,73.2914287 272.258221,72.6562725 270.025315,72.2040279 C267.760281,71.7417148 265.441982,71.554608 263.143128,71.344847 C261.04888,71.1552231 258.925886,71.0109076 256.824875,71.000839 C256.685371,71 256.545022,71 256.405518,71 C253.886841,71 251.343644,71.1434765 248.858786,71.5873307" id="Fill-75" fill="#2C2C2C"></path>
                <path d="M362.481328,133.612922 L362.746209,134.238069 C362.658197,134.031095 362.570186,133.82412 362.483021,133.617146 C362.482174,133.615457 362.482174,133.614612 362.481328,133.612922 M303.296953,88.1503732 C301.155057,88.3742434 299.01993,88.6183887 296.930503,89.156522 C294.705673,89.7276022 292.761802,90.8630043 290.897481,92.1462453 C289.678013,92.9910385 288.75897,93.9845154 288.351916,95.4527661 C287.958403,96.8787771 288.164046,98.4357311 288.910451,99.7130585 C289.634854,100.950681 290.838242,101.874884 292.223578,102.254197 C293.562369,102.623371 295.310752,102.508479 296.490445,101.696633 C297.32994,101.119639 298.14997,100.570524 299.041933,100.108422 C300.052374,99.7848659 301.068738,99.5559269 302.11726,99.3802099 C304.183838,99.147047 306.243647,99.0549645 308.326305,99.2357503 C311.15029,99.714748 313.87357,100.551938 316.538458,101.612998 C321.35032,103.711465 325.998006,106.221346 330.219175,109.342857 C331.887163,110.688612 333.448521,112.123071 335.019189,113.586253 C336.162493,114.649003 337.211015,115.813973 338.28831,116.942617 C340.045156,118.782577 341.620901,120.809236 343.196646,122.811396 C343.976056,123.880904 344.755465,124.951257 345.534875,126.020765 C345.954623,126.597759 346.314285,127.227975 346.701874,127.828623 C347.094541,128.439408 347.537984,129.040056 347.891723,129.68041 C348.615279,130.977167 349.431925,132.254495 350.070008,133.594337 C350.634467,134.771134 351.195541,135.945396 351.75746,137.121349 C351.86409,137.407733 351.996107,137.688205 352.155205,137.959383 C352.457321,138.673234 352.759438,139.387084 353.061554,140.101779 C353.277352,140.614569 353.496535,141.130737 353.714871,141.646906 C355.121363,145.010873 356.374681,148.471146 357.484981,151.941557 C358.648595,155.588529 359.68273,159.28112 360.53915,163.013417 C361.015597,165.072178 361.464964,167.131784 361.884711,169.207441 C362.228295,170.918147 362.494022,172.639836 362.768212,174.362369 C362.937465,175.743606 363.11518,177.127378 363.220117,178.512839 C363.385139,180.71437 363.521387,182.905764 363.6204,185.109829 C363.785422,188.736527 363.804886,192.373362 363.835352,196.003438 C363.861586,199.557483 363.792192,203.10477 363.540852,206.648678 C363.301359,210.074315 362.95439,213.473763 362.549875,216.879124 C362.251144,218.790891 361.966799,220.706038 361.596981,222.607667 C361.10107,225.154719 360.565384,227.68572 359.996695,230.223479 C359.018412,234.596128 357.904728,238.945969 356.876516,243.308481 C354.86833,251.836669 352.282145,260.161262 349.125577,268.333792 C347.619226,271.800823 346.018093,275.203651 344.291712,278.57522 C342.40031,282.267812 340.546144,285.99335 338.466872,289.583721 C336.36475,293.210419 334.176309,296.783894 332.000562,300.364973 C330.897033,302.179589 329.749498,303.948586 328.546109,305.697308 C327.424809,307.323535 326.197725,308.886402 325.001106,310.455183 C321.262308,315.259523 317.430421,319.986986 313.392892,324.54718 C311.141828,327.094231 308.834063,329.579613 306.467907,332.017686 C304.243077,334.305387 301.883691,336.421594 299.403288,338.423754 C298.028954,339.44004 296.64785,340.434362 295.188043,341.327308 C293.659689,342.263339 292.101716,343.09884 290.494659,343.875205 C289.235417,344.360961 287.973636,344.8332 286.705931,345.296992 C284.355854,346.155302 282.001545,347.029663 279.866419,348.355988 C278.365992,349.28695 276.881643,350.227205 275.327901,351.075377 C274.606883,351.468206 273.856247,351.804434 273.11238,352.154178 C272.702788,352.342567 272.286425,352.520819 271.870063,352.69907 C270.550736,353.263392 269.499675,354.35233 268.765964,355.557006 C267.172447,358.17333 268.17104,361.711324 270.782613,363.236176 C272.081629,363.994801 273.661606,364.199241 275.11295,363.800498 C276.031993,363.54875 276.806326,363.084114 277.454565,362.464035 C278.205201,362.069517 279.009153,361.75103 279.770791,361.387769 C280.593361,360.99494 281.383772,360.539596 282.180107,360.09439 C284.013963,359.067966 285.665026,357.758537 287.562351,356.845315 C291.648118,355.257104 295.901445,353.990759 299.661399,351.689542 C303.875798,349.108699 307.869322,346.141785 311.459177,342.739802 C317.95849,336.578725 323.80618,329.711401 329.412685,322.738477 C332.397461,319.019697 335.286609,315.221507 338.106363,311.376853 C339.451924,309.538583 340.625693,307.582042 341.802001,305.634793 C342.899607,303.816798 344.007367,301.997958 345.101588,300.173205 C347.428816,296.292225 349.653646,292.365625 351.715993,288.335962 C353.752953,284.362899 355.907543,280.416025 357.656772,276.307795 C358.770457,273.690626 359.864677,271.074301 360.889504,268.420806 C361.66976,266.40175 362.344233,264.338765 363.0314,262.289296 C364.40658,258.181066 365.633664,254.016236 366.6678,249.809165 C367.749326,245.403569 368.797002,240.991213 369.861603,236.583082 C370.916049,232.226483 371.96711,227.84792 372.677973,223.419514 C373.458229,218.565332 374.158936,213.694254 374.51606,208.78685 C374.856258,204.127815 375.017895,199.494124 374.998431,194.821572 C374.962041,185.485762 374.707316,176.084058 372.872613,166.894397 C371.805474,161.561217 370.671479,156.189177 369.022109,151.001302 C368.158919,148.288671 367.23649,145.612365 366.274287,142.932681 C365.700519,141.336022 365.070898,139.757948 364.419274,138.189167 C364.299105,137.765926 364.128159,137.353667 363.905592,136.961683 C363.567086,136.163353 363.226887,135.365868 362.887535,134.568383 C362.751286,134.247362 362.615038,133.92634 362.478789,133.603629 C362.346772,133.181233 362.15467,132.773198 361.909253,132.260408 C361.884711,132.202962 361.857631,132.145516 361.828012,132.08807 C361.673145,131.761135 361.51574,131.433356 361.359181,131.108955 C360.840421,130.016637 360.374129,128.875322 359.785128,127.81933 L357.821794,124.304145 C357.280184,123.330943 356.628561,122.410119 356.023481,121.476622 C354.701616,119.437291 353.253657,117.463854 351.739689,115.563069 C348.833616,111.910183 345.868304,108.316433 342.4367,105.134942 C338.638663,101.613843 334.579131,98.4357311 330.073617,95.8557325 C326.820575,93.9912738 323.376278,92.4436125 319.921825,90.9914129 C315.602489,89.1751074 310.874408,88 306.161559,88 C305.204434,88 304.249001,88.0481532 303.296953,88.1503732" id="Fill-77" fill="#2C2C2C"></path>
                <path d="M121.341799,73.7235954 C119.225773,74.1018193 117.116529,74.506999 115.003046,74.9012279 C113.204932,75.2373333 111.416992,75.5666998 109.665505,76.0957078 C107.294301,76.8134066 105.072304,77.9910391 102.929149,79.2124748 C101.704126,79.9099567 100.485037,80.6141776 99.2472977,81.2914427 C98.3283183,81.7951796 97.3644073,82.224788 96.4004963,82.6459728 C94.5981438,83.3594597 92.7822271,84.0274587 90.9680059,84.7038814 C88.6663187,85.5630982 86.3052878,86.3818814 84.0993982,87.461799 C79.7783302,89.5736193 76.1481922,92.7889435 72.7147362,96.0927166 C70.8827118,97.8557959 69.3067131,99.8960147 67.8366853,101.95645 C66.5811425,103.71616 65.491762,105.602225 64.4854626,107.513562 C62.2066651,111.840814 60.4280501,116.36518 59.0046494,121.037804 C58.0212398,124.262394 57.2989424,127.572906 56.6698993,130.880048 C56.3519867,132.544571 56.0501817,134.213304 55.7458334,135.881196 C55.4838734,137.312382 55.1863072,138.74441 55.0404913,140.191601 C54.987082,140.458632 54.987082,140.721451 55.0371002,140.988482 C55.103226,141.491377 55.1727429,141.995114 55.2388688,142.49885 C55.5110019,143.459152 56.0010112,144.294782 56.7097444,145.002373 C57.8754239,146.440297 59.5743488,146.976887 61.3792446,146.999631 C64.4752894,147.035852 67.0584352,144.403448 67.0584352,141.356597 C67.0584352,140.665855 66.9287269,139.984378 66.68457,139.346704 C66.9380523,137.939105 67.2127288,136.534032 67.4653634,135.128118 C67.8197299,133.166239 68.1808787,131.192568 68.6607147,129.257645 C69.1744615,127.167726 69.711098,125.085389 70.340141,123.024953 C70.8962761,121.198696 71.5473611,119.4154 72.2416822,117.636316 C73.9050009,113.961058 75.7912824,110.440796 78.1150115,107.126914 C79.1128332,105.912217 80.1530432,104.756487 81.2915942,103.660564 C82.685323,102.3153 84.1316134,101.03911 85.6219876,99.8025117 C86.3281775,99.2802426 87.0453883,98.7731362 87.8083785,98.3367888 C88.7239668,97.8119926 89.6514238,97.3486894 90.6068572,96.9182386 C93.7198573,95.6807979 96.8837235,94.5789786 99.9950281,93.3415379 C102.138183,92.48906 104.210973,91.5085419 106.231202,90.4067227 C108.136134,89.3680811 109.961376,88.223301 111.925652,87.3051183 C114.688524,86.3254426 117.615016,85.9295289 120.48725,85.3718804 C122.248062,85.029036 124.00294,84.7021966 125.769686,84.4275842 C128.191756,84.2700611 130.596023,84.3206033 133.024875,84.3585099 C134.005742,84.3753573 134.989151,84.3517709 135.96917,84.329027 C137.476499,84.290278 138.981286,84.2540561 140.486072,84.3618794 C141.381314,84.5581515 142.237558,84.8344486 143.100585,85.1427559 C144.462099,85.7703211 145.77529,86.4635912 147.066439,87.2478372 C148.36437,88.0346102 149.599566,88.9241524 150.822046,89.8187488 C151.295948,90.2028693 151.76222,90.5903592 152.214927,90.9946966 C151.206933,93.4283019 152.229339,96.3968119 154.536961,97.7412336 C157.149779,99.2574987 160.481503,98.316572 162.034612,95.7860941 C162.445779,95.1180951 162.859489,94.463574 163.187575,93.7526142 C163.373236,93.3187939 163.554658,92.8841313 163.740319,92.4494686 C163.859854,91.7519867 163.942087,91.0477658 163.992106,90.3410178 C164.045515,89.6856544 163.820009,88.7775801 163.554658,88.123059 C163.203682,87.2512066 162.945961,86.6489125 162.409325,85.9278442 C161.839625,85.161288 161.266535,84.4739145 160.601038,83.7958071 C159.971995,83.157291 159.269196,82.5912187 158.577418,82.0251465 C156.703006,80.492034 154.726013,79.0052519 152.679504,77.708003 C150.460898,76.3004036 148.165993,75.1808945 145.704925,74.2332289 C142.476629,72.9865221 139.028761,73.0092661 135.621585,73.0749709 C133.498777,73.1145622 131.382751,73 129.259942,73 C126.597106,73.0033695 123.961399,73.2527108 121.341799,73.7235954" id="Fill-79" fill="#2C2C2C"></path>
                <path d="M32.3508299,320.516233 C32.4161782,320.669998 32.4806778,320.822073 32.5451774,320.975838 C32.4798291,320.822073 32.4153295,320.669998 32.3508299,320.516233 M17.0898784,264.389599 C17.1195821,264.606728 17.1492859,264.823857 17.1789897,265.040987 C17.1492859,264.823857 17.1195821,264.606728 17.0898784,264.389599 M12.8354489,163.343408 C12.8133833,163.513225 12.7896202,163.682197 12.7667059,163.851169 C12.7896202,163.682197 12.8125346,163.51238 12.8354489,163.343408 M73.3513764,95.9192955 C73.3827776,95.959004 73.41333,95.9978676 73.4438825,96.0384209 C73.41333,95.9987124 73.3827776,95.959004 73.3513764,95.9192955 M68.7795409,84.0025346 C66.5950404,83.9991551 64.4062964,84.1444712 62.2217958,84.1900937 C61.1312429,84.2137498 60.0440847,84.1841796 58.9569265,84.1537647 C57.6440196,84.1174356 56.3311127,84.0811066 55.0216005,84.1343329 C51.6761066,84.2796489 48.4740396,85.1735116 45.4442544,86.5464103 C42.692836,87.7976491 40.2325147,89.5304585 37.9614488,91.5133467 C34.573521,94.4737388 31.2780992,97.5397384 27.9003555,100.517028 C26.3421803,101.889926 24.7305383,103.23241 23.2759019,104.714296 C21.624372,106.397259 20.0661967,108.120775 18.6175011,109.978623 C16.9371161,112.130484 15.3789408,114.317828 13.9438241,116.638661 C11.7618696,120.156661 10.2970491,123.994863 8.9340701,127.878688 C8.20165985,129.968029 7.68481414,132.159598 7.11450164,134.30132 C6.58407707,136.297725 6.06638268,138.297511 5.56311585,140.304055 C4.42249084,144.841802 3.40152962,149.386308 2.66827069,154.006852 C1.89597251,158.881698 1.26964718,163.78865 0.798630154,168.699825 C0.370895777,173.161535 -0.00337180202,177.662953 2.29152517e-05,182.148319 C0.00341763253,184.682901 0.0195425396,187.200586 0.112897265,189.731789 C0.198613876,192.035724 0.321672377,194.338814 0.440487482,196.64275 C0.683209767,201.335951 0.765531661,206.035067 0.835123365,210.731648 C0.897925634,214.949192 0.954787149,219.196307 1.36894266,223.3978 C2.3109767,232.918536 3.43802283,242.41984 4.35629386,251.9448 C4.79336371,256.501979 5.2779596,261.053244 5.79141058,265.601129 C6.07317212,268.106141 6.46101857,270.604395 6.80218765,273.102648 C6.95834465,274.250814 7.20700769,275.396445 7.40559865,276.537852 C7.56854508,277.448612 7.72385339,278.353457 7.93602322,279.2507 C10.048386,288.211293 12.7370021,297.032484 15.2134484,305.896763 C16.4830726,310.454787 17.8485977,314.962964 19.4967329,319.401862 C20.3318333,321.661864 21.2865976,323.910039 22.2973747,326.097383 C23.2589283,328.170672 24.1975676,330.269306 25.2813311,332.285988 C26.4949426,334.55275 27.7111,336.806838 29.1368813,338.95194 C31.5666502,342.611877 34.5938893,345.813054 37.9487186,348.641648 C40.4311057,350.730988 42.9016111,352.971559 45.8219167,354.430634 C48.3611652,355.697925 51.2127277,356.377193 53.9573566,357.043788 C58.611514,358.175901 63.3590261,358.585659 68.1260579,358.878825 C70.168829,359.00133 72.203962,359.044418 74.2458844,358.944725 C76.4006812,358.839117 78.5520833,358.693801 80.7102748,358.624522 C82.8625255,358.555244 85.0071382,358.459775 87.1585403,358.364305 C88.7336891,358.295027 90.1586216,357.786421 91.2890625,356.661066 C92.3796154,355.57542 93,354.083396 93,352.549129 C93,349.298105 90.3410877,346.842939 87.1585403,346.733952 C86.137579,346.701003 85.1234072,346.77704 84.102446,346.80661 C82.9711565,346.83618 81.8407156,346.853078 80.7102748,346.889407 C78.5520833,346.958685 76.4006812,347.104001 74.2458844,347.212988 C70.0644414,347.426738 65.8278343,347.129347 61.6633648,346.704382 C60.1187685,346.468666 58.5869023,346.186482 57.0635229,345.826572 C55.1489024,345.374571 53.2079728,344.920036 51.3519111,344.246682 C50.426002,343.760887 49.5713819,343.200745 48.7286433,342.596669 C45.6258718,340.069691 42.60033,337.479347 40.0398645,334.394761 C36.7588702,329.892498 34.3825681,324.799677 32.0393645,319.770221 C30.5125905,316.093387 29.1156643,312.382759 27.9835261,308.557229 C26.6502509,304.075243 25.4171198,299.567066 24.1441008,295.069027 C21.7245161,286.541003 18.9663083,278.059446 17.7594863,269.250928 C17.5990859,268.100227 17.4403829,266.949527 17.2825286,265.797982 C16.2581726,256.755437 15.4646575,247.694306 14.4606698,238.651761 C13.9302452,233.852952 13.3769063,229.060902 12.9058893,224.255334 C12.4883391,220.011598 12.3686753,215.740827 12.3092678,211.476815 C12.2490115,207.266029 12.1794198,203.055243 12.0037432,198.843612 C11.834856,194.827144 11.6226862,190.817435 11.4767133,186.798432 C11.3281945,182.804775 11.5132066,178.765496 11.7720537,174.778598 C12.0410851,170.657367 12.4815497,166.564862 12.9568101,162.463908 C13.7435358,156.80841 14.6711423,151.196845 16.0748579,145.650334 C16.8743138,142.485486 17.6864999,139.327396 18.5283898,136.176066 C19.3346352,133.161602 20.2172616,130.162347 21.3706168,127.259405 C22.8583517,123.98388 24.7424198,121.010815 26.8013158,118.060561 C28.0157759,116.526294 29.2599398,115.029201 30.638195,113.625042 C32.3457378,111.886319 34.1695496,110.278549 36.002697,108.675003 C37.7229699,107.166927 39.4339075,105.648712 41.1278714,104.1136 C42.9847817,102.434017 44.8145343,100.713035 46.7503719,99.1238523 C48.0208448,98.2080233 49.3430872,97.4130093 50.759533,96.7337413 C51.9875719,96.2783613 53.2308871,95.9319684 54.5191823,95.6903382 C56.2453961,95.5484016 57.9877347,95.5847306 59.72583,95.6193699 C60.8825799,95.6455606 62.0427245,95.6683719 63.1969284,95.6388017 C66.1443916,95.5602297 69.0986444,95.3000126 72.0401669,95.5509362 C72.3898227,95.6176802 72.7352352,95.6954074 73.077253,95.7874972 C73.1103515,95.8466375 73.1426013,95.9057777 73.1756998,95.9657628 C74.6634346,98.6980425 78.3899855,99.5462827 81.0225888,98.0120156 C83.7841913,96.4042456 84.5726144,92.9360922 83.0806361,90.2004331 C82.4874093,89.1080281 81.7779134,88.0815223 80.8596423,87.2332821 C79.5407947,86.0124583 77.8824753,85.2791192 76.1791759,84.7679784 C74.7135067,84.3286508 73.1290224,84.2137498 71.6141299,84.0718132 C70.9623441,84.0092935 70.3071637,84 69.6519833,84 C69.3608863,84 69.0706379,84.0025346 68.7795409,84.0025346" id="Fill-81" fill="#2C2C2C"></path>
                <path d="M136.922492,363.845088 C136.898752,363.876191 136.875011,363.907294 136.85127,363.937556 C136.875011,363.907294 136.898752,363.876191 136.922492,363.845088 M71.624123,300.589604 C70.6940024,301.5126 69.8656269,303.078667 70.0182447,304.431217 C70.3294155,307.186755 70.5846263,309.970874 71.061133,312.702875 C71.4520041,314.932188 71.8928999,317.136282 72.4296058,319.336173 C73.4826686,323.670387 74.5620155,328.007963 75.75413,332.309393 C76.9403094,336.584764 78.3740687,340.804655 79.6628412,345.050604 C80.2851826,347.105909 80.9109155,349.157852 81.6036307,351.190461 C82.0869204,352.60942 82.7194363,353.982145 83.3154936,355.357392 C84.336337,357.722044 85.8591234,359.853004 87.7804118,361.593079 C91.1218935,364.620976 94.6261675,367.618611 98.4678964,370.012685 C102.008629,372.222663 105.688414,374.248547 109.381764,376.202137 C110.620512,376.856136 111.944895,377.347896 113.246386,377.870759 C115.495802,378.766856 117.975841,378.947588 120.367701,379.200613 C122.275424,379.40068 124.179755,379.626805 126.084085,379.863859 C128.872752,380.211874 131.747053,379.869743 134.439909,379.098899 C137.493961,378.224659 140.007915,376.504759 142.435386,374.541081 C143.22052,373.907257 143.95902,373.197777 144.641561,372.455514 C144.942557,372.124311 145.227443,371.785543 145.51233,371.440891 C146.09143,370.731411 146.830778,369.878186 147.218258,369.014033 C147.409878,368.560942 147.602346,368.111212 147.793966,367.65812 C148.068678,366.650222 148.068678,365.642324 147.793966,364.633585 C147.399703,363.212104 146.443299,361.980603 145.161309,361.235817 C142.392144,359.629401 138.977745,360.657474 137.311667,363.27431 C137.296406,363.300369 137.281144,363.324747 137.265034,363.349125 C136.336609,364.410822 135.342898,365.386777 134.258464,366.29212 C133.499614,366.823389 132.71872,367.294134 131.891192,367.709398 C131.130647,367.959901 130.364167,368.157446 129.579881,368.310438 C128.261433,368.396181 126.965877,368.337338 125.639798,368.170896 C124.908081,368.078428 124.176363,367.980076 123.444646,367.897696 C122.112631,367.748066 120.776378,367.624496 119.442668,367.475707 C118.237835,367.259669 117.099985,366.931828 115.958743,366.519927 C113.580449,365.381733 111.290334,364.078779 108.977327,362.817856 C107.735188,362.142001 106.493049,361.465305 105.287368,360.729767 C103.962985,359.922776 102.689474,359.061145 101.410876,358.181861 C100.483299,357.464816 99.563353,356.741886 98.6603644,355.991216 C97.1460568,354.735337 95.6207268,353.467688 94.3192362,351.994089 C93.7799867,351.138342 93.3458739,350.239724 92.9270228,349.326816 C91.689123,346.144245 90.7250873,342.882657 89.6881342,339.628634 C88.5723285,336.115701 87.3700395,332.624624 86.3525876,329.08227 C85.2630661,325.275963 84.3125965,321.430987 83.3095584,317.601983 C82.4955969,314.495908 81.8808864,311.373021 81.4077712,308.20306 C81.2627843,306.945499 81.1161017,305.687097 80.9745063,304.431217 C80.9109155,303.948704 80.8447811,303.469553 80.7786468,302.98704 C80.5208923,302.067406 80.0503208,301.269662 79.3711716,300.589604 C78.3477845,299.578344 76.9437009,299 75.4963755,299 C74.0490501,299 72.6441186,299.578344 71.624123,300.589604" id="Fill-83" fill="#2C2C2C"></path>
                <path d="M222.383601,344.816375 C222.365888,344.842421 222.344802,344.866787 222.323716,344.893674 C222.343959,344.868468 222.364202,344.841581 222.383601,344.816375 M225.792792,342.20249 C225.338177,342.392377 224.886935,342.583104 224.43232,342.772991 C223.785401,343.153605 223.237164,343.636724 222.787609,344.219828 C221.115065,346.195995 220.27331,348.683008 219.335403,351.078439 C218.74162,352.370678 218.07024,353.586458 217.240294,354.756867 C215.230373,357.248921 213.093935,359.592259 210.669884,361.70454 C208.723221,363.16398 206.686309,364.58225 204.511073,365.662757 C204.155985,365.770303 203.802582,365.862726 203.443276,365.940865 C201.672049,366.045051 199.88817,366.029087 198.114412,366.08286 C196.384514,366.138314 194.661363,366.269386 192.938211,366.400459 C189.39913,366.671845 185.876075,367.301161 182.358924,367.812007 C180.565767,368.023739 178.756584,368.206064 176.97861,368.504337 C175.615608,368.736235 174.265258,369.017704 172.9031,369.248761 C171.992183,369.32522 171.098135,369.334462 170.188905,369.268086 C168.499491,368.946286 166.85478,368.47409 165.246337,367.868301 C161.767984,366.255103 158.670023,364.087368 155.626886,361.786881 C153.546115,360.019085 151.477153,358.251288 149.659537,356.211265 C148.390157,354.341804 147.542498,352.246327 146.65098,350.171015 C146.10443,348.894741 144.512856,347.903296 143.235042,347.552089 C141.759019,347.14795 140.150576,347.358002 138.829747,348.125951 C137.551089,348.871215 136.596313,350.10884 136.204113,351.529631 C136.134951,352.035435 136.065788,352.5404 136,353.046205 C136.00253,354.073778 136.263154,355.031614 136.780183,355.918033 C137.303961,357.142215 137.815086,358.369758 138.394531,359.567893 C139.152785,361.139921 140.068762,362.557351 141.202348,363.903363 C141.9994,364.848596 142.849589,365.71821 143.738577,366.574381 C145.824408,368.586678 148.055311,370.382201 150.341037,372.157559 C154.848389,375.659542 159.796861,378.593546 165.355141,380.096677 C167.37434,380.645332 169.503187,380.973013 171.594922,380.999059 C173.140107,381.019224 174.685292,380.710868 176.207704,380.487373 C177.504917,380.298327 178.792852,379.98829 180.087535,379.766475 C183.629147,379.304361 187.168227,378.822923 190.705621,378.3272 C193.747072,378.00288 196.777557,377.808792 199.83419,377.710488 C202.615017,377.618906 205.42199,377.681081 208.080518,376.732487 C210.650485,375.816661 212.985975,374.254716 215.200009,372.682688 C216.907134,371.468589 218.544255,370.184752 220.11896,368.810173 C221.269414,367.808646 222.303474,366.617232 223.298735,365.465308 C224.76801,363.77229 226.171497,362.016257 227.489796,360.20393 C228.722064,358.507552 229.525864,356.482652 230.290022,354.549335 C230.570888,353.848603 230.848381,353.144509 231.124186,352.439575 C231.241424,352.185832 231.362036,351.93209 231.489396,351.677507 C231.650493,351.379233 231.835207,351.100285 232.042694,350.833939 C232.405374,350.338217 232.58334,349.750912 232.797574,349.17621 C233.067475,348.172162 233.067475,347.168115 232.797574,346.164067 C232.405374,344.745797 231.453128,343.514894 230.181218,342.772991 C229.305726,342.262985 228.304561,342 227.299178,342 C226.793113,342 226.285362,342.067217 225.792792,342.20249" id="Fill-85" fill="#2C2C2C"></path>
                <path d="M277.760439,332.193192 C276.35094,332.585533 275.131892,333.539577 274.394422,334.816175 C274.204811,335.271495 274.017717,335.726814 273.828106,336.182134 C273.65863,336.81788 273.595706,337.451924 273.639334,338.087669 C273.261789,339.237458 272.770982,340.351503 272.326319,341.474909 C272.025961,342.231506 271.723087,342.987251 271.416018,343.742146 C270.782582,345.178744 270.086223,346.56513 269.315194,347.934493 C268.659106,349.100453 267.887237,350.188965 267.102784,351.26386 C266.428239,352.080032 265.717616,352.838331 264.931485,353.550673 C264.312313,353.983014 263.675521,354.366844 263.000137,354.704717 C258.793455,356.291953 254.400518,357.35153 250.192158,358.948128 C247.842155,359.842597 245.51816,360.686854 243.073351,361.268983 C241.139486,361.726005 239.13934,361.989835 237.161847,362.264729 C231.705075,362.894517 226.246624,363.068986 220.764681,363.300475 C219.215072,363.363454 217.802217,363.881753 216.688042,365.012818 C215.6133,366.103033 215,367.601759 215,369.148144 C215,372.23666 217.621835,375.125175 220.764681,374.995813 C225.235644,374.806025 229.702412,374.72943 234.162468,374.334535 C236.682786,374.108152 239.199747,373.769428 241.697412,373.356661 C243.90311,372.994108 246.105451,372.645171 248.254936,372.020489 C250.352404,371.408573 252.371008,370.534529 254.42317,369.77623 C256.3369,369.068144 258.279995,368.459632 260.223928,367.848568 C262.225752,367.216226 264.225058,366.568566 266.198356,365.850267 C269.180117,364.76601 271.786011,363.030688 274.021073,360.754088 C275.341639,359.410256 276.475949,357.811956 277.537268,356.252804 C278.320882,355.09876 279.044928,353.925141 279.730381,352.708118 C280.614673,351.143009 281.300126,349.470666 281.988095,347.81194 C282.476386,346.631513 282.961321,345.444277 283.440382,344.257892 C283.69879,343.619593 283.954682,342.981294 284.207217,342.342995 C284.374175,341.914058 284.515125,341.474909 284.656075,341.03661 C285.17373,339.437459 285.042848,337.788094 284.685439,336.182134 C284.119962,333.640003 281.648306,332 279.185878,332 C278.705138,332 278.226077,332.062979 277.760439,332.193192" id="Fill-87" fill="#2C2C2C"></path>
                <path d="M105.613402,170.793668 L105.481318,170.812189 C105.525907,170.805454 105.569655,170.799561 105.613402,170.793668 M103.007062,159.526165 C101.419534,160.107893 100.118046,160.956491 98.9091015,162.153621 C98.5641695,162.495418 98.2385873,162.843949 97.90964,163.199216 C96.8748439,164.317211 95.9771794,165.593476 95.0702606,166.813336 C92.4218558,170.368527 90.2757056,174.235206 88.1102056,178.092625 C85.9707859,181.904584 83.8179053,185.715701 81.8332843,189.612687 C80.9751608,191.293047 80.1372284,192.97004 79.3354718,194.677339 C78.389012,196.692761 77.5544448,198.754485 76.6963212,200.810316 C75.4024055,203.910899 74.2960992,207.099037 73.0669634,210.23077 C72.5260091,211.424532 71.9758004,212.606509 71.3725901,213.773332 C70.5876594,215.289528 69.6899949,216.743427 68.799902,218.196483 C67.1299263,220.919912 68.1916439,224.625796 70.8997808,226.211025 C73.696254,227.851817 77.2456885,226.828953 78.9114578,224.109734 C80.0488921,222.251741 81.1299595,220.380278 82.1353101,218.443149 C83.2298383,216.33849 84.0845967,214.095766 84.9713243,211.895976 C86.3241309,208.546201 87.5675687,205.158541 88.9363599,201.814659 C91.3904249,196.643091 94.0716404,191.602853 96.8647484,186.607234 C99.563631,181.777463 102.183432,176.926644 105.444301,172.451297 C105.877569,171.91503 106.323457,171.393916 106.795425,170.893849 C107.190835,171.001608 107.580356,171.126204 107.969877,171.266795 C111.134838,172.771205 114.053299,174.789994 116.954094,176.741434 C119.573053,178.500929 122.182758,180.273052 124.791622,182.052752 C129.131876,185.011061 133.361079,188.109961 137.580187,191.2358 C138.455977,191.942966 139.333451,192.650131 140.2084,193.358139 C141.272642,194.21684 142.396615,195.035131 143.415427,195.949395 C145.45978,197.784658 147.579008,199.554255 149.528295,201.490541 C150.73724,202.687672 151.94366,203.888169 153.152605,205.088667 C154.164686,206.094694 155.095161,207.203428 156.060971,208.255758 C157.656912,209.997573 159.129183,211.86146 160.589676,213.719453 C161.989595,215.577446 163.347449,217.496053 165.118381,219.018984 C166.399677,220.123509 167.740705,221.327374 169.413205,221.787874 C170.419397,222.064005 171.651898,222.0438 172.657248,221.767669 C173.636519,221.491538 174.484547,220.994838 175.203856,220.28178 C175.546264,219.854113 175.877736,219.423079 176.203318,218.986152 C176.853641,218.10472 176.962168,216.828455 176.998344,215.789595 C177.024424,214.999927 176.735859,213.869304 176.597886,213.033334 C176.324465,212.066874 175.834829,211.225011 175.128139,210.51111 C174.174949,209.556437 172.902907,208.972184 171.567768,208.85769 C171.537481,208.82149 171.507195,208.78529 171.476908,208.74909 C168.828503,205.304184 166.201972,201.867696 163.268367,198.652619 C161.598392,196.824091 159.856906,195.091536 158.101959,193.345511 C156.445444,191.700509 154.664417,190.185155 152.929661,188.622656 C151.319418,187.175492 149.616631,185.841138 147.934036,184.479003 C146.028497,182.940076 144.105291,181.433982 142.137496,179.974191 C138.476169,177.257497 134.795492,174.583738 131.029002,172.019421 C126.987409,169.266527 122.944974,166.517 118.836918,163.863446 C117.200594,162.804382 115.521364,161.831187 113.756321,160.996059 C112.25797,160.288893 110.713348,159.674333 109.093009,159.319066 C108.181042,159.118703 107.208502,159 106.237645,159 C105.127132,159 104.019984,159.155745 103.007062,159.526165" id="Fill-89" fill="#2C2C2C"></path>
                <path d="M268.272652,159.295588 C267.643286,159.55805 267.01392,159.826458 266.387929,160.101661 C265.395791,160.536549 264.542013,161.730794 263.922771,162.547059 C263.193853,163.502625 262.772026,164.621273 262.340919,165.739073 C262.091197,166.385459 261.853287,167.034395 261.611158,167.681631 C260.90755,169.235168 260.111984,170.721603 259.13672,172.124798 C257.459535,174.122567 255.592528,175.974241 253.72299,177.783445 C251.537925,179.896731 249.343581,181.997276 247.134894,184.086779 C245.078908,186.037832 242.959648,187.915836 240.857262,189.817624 C239.120178,191.382203 237.257389,192.821073 235.444376,194.301562 C229.778393,198.564658 224.051668,202.730074 218.127527,206.626233 C214.740255,208.852489 211.365638,211.094882 208.00705,213.367854 C204.909995,215.468399 201.973234,217.800828 198.911613,219.957434 C197.616604,220.86968 196.641339,221.918679 196.209388,223.497698 C195.790936,225.027452 196.005224,226.693109 196.802477,228.063177 C197.570203,229.387379 198.849183,230.379468 200.318828,230.783778 C201.736168,231.178745 203.610767,231.062379 204.85347,230.186656 C208.71572,227.469452 212.472512,224.609551 216.387912,221.964546 C220.289813,219.330583 224.24149,216.772215 228.143391,214.137403 C231.817506,211.658878 235.422441,209.080975 238.969163,206.417283 C242.834788,203.514063 246.667509,200.54459 250.265695,197.309257 C254.329578,193.649229 258.297284,189.903413 262.228713,186.104084 C264.585039,183.828564 266.878936,181.482545 268.852243,178.857925 C270.279706,176.957836 271.311495,174.875128 272.194801,172.714276 C274.228008,174.602473 276.041021,176.711512 277.762076,178.896148 C281.787151,184.282139 285.292535,190.048659 288.665465,195.866141 C290.098833,198.337871 291.433494,200.826588 292.755501,203.361172 C293.869124,205.492296 294.857887,207.669286 295.847494,209.859018 C296.644747,211.912846 297.462248,213.970073 298.024966,216.102045 C298.452698,217.723534 298.839936,219.345872 299.158837,220.985197 C299.058442,221.221328 298.973233,221.465953 298.904897,221.715674 C298.499099,223.205507 298.706638,224.827845 299.484488,226.162239 C299.781454,226.550411 300.080951,226.938583 300.377917,227.330152 C301.092493,228.043641 301.936147,228.537987 302.90888,228.81319 C304.530384,229.499498 306.708699,229.208157 308.092293,228.12943 L309.259066,227.223978 C309.974485,226.500297 310.468867,225.64411 310.742211,224.662213 C310.88057,223.962315 311.008805,223.259019 310.999525,222.542132 C310.972528,220.969059 310.685686,219.373052 310.382814,217.830557 C309.957612,215.670554 309.433703,213.54028 308.757936,211.44653 C307.284915,206.875105 305.353791,202.395414 303.132449,198.138264 C302.091379,196.141344 301.089118,194.113846 299.959465,192.162794 C298.650957,189.903413 297.342449,187.644031 296.030567,185.388047 C294.709404,183.111678 293.186608,180.932139 291.770112,178.71183 C289.014737,174.391824 285.906715,170.241697 282.443514,166.472097 C280.643999,164.511702 278.626822,162.809521 276.472129,161.260231 C275.426841,160.506821 274.178233,159.899506 272.968432,159.481605 C272.639407,159.33551 272.299415,159.245474 271.940861,159.20895 C271.426232,159.1393 270.909072,159.06965 270.395287,159 C269.686617,159.090036 268.981322,159.186017 268.272652,159.295588" id="Fill-91" fill="#2C2C2C"></path>
                <path d="M217.076608,290.171873 C216.98694,290.188681 216.894734,290.200447 216.802528,290.208851 C216.893888,290.196245 216.986094,290.184479 217.076608,290.171873 M113.867918,280.436666 L114.177527,280.566928 C114.071786,280.52911 113.967737,280.485409 113.867918,280.436666 M202.74242,267.974357 C202.710275,267.999569 202.67813,268.02394 202.645139,268.049152 C202.677284,268.02394 202.710275,267.998728 202.74242,267.974357 M165.527671,265.479206 C165.547973,265.485929 165.566584,265.492652 165.58604,265.499375 C165.587732,265.501896 165.588578,265.502737 165.590269,265.505258 C165.569121,265.497694 165.548819,265.48845 165.527671,265.479206 M121.897432,257.955934 C121.822991,257.966019 121.750241,257.975263 121.6758,257.984508 C121.750241,257.973583 121.822991,257.963498 121.897432,257.955934 M303.218773,241.327756 L301.840763,241.908474 C301.368737,242.247155 300.9094,242.601805 300.466136,242.972422 C300.347706,243.07411 300.235198,243.182522 300.12269,243.290934 C299.874835,243.523725 299.633746,243.766601 299.396041,244.009477 C298.999303,244.420433 298.576341,244.787688 298.149995,245.165028 C296.728842,246.422268 295.404125,247.78792 294.062489,249.120797 C292.462846,250.709995 290.864049,252.295832 289.247487,253.868223 C286.032975,257.002919 282.722027,260.046012 279.258813,262.909259 C275.765991,265.794356 272.253714,268.656762 268.826874,271.614975 C267.003061,273.190727 265.205472,274.78917 263.417188,276.404421 C262.292109,277.423827 261.193253,278.469287 260.079171,279.497938 C260.066482,279.439109 260.053793,279.379441 260.040258,279.319773 C259.577538,277.258268 259.003155,275.226178 258.374633,273.206694 C257.112514,269.136631 255.754805,265.095142 254.562052,261.00491 C253.93353,258.850961 253.431897,256.625579 252.582589,254.543905 C252.268751,253.772417 252.093645,253.227837 251.627541,252.620227 C251.326392,252.236164 251.029472,251.8521 250.728323,251.468037 C250.296056,251.107505 249.849408,250.768823 249.386687,250.44695 C248.580521,249.885562 247.285411,249.649409 246.333746,249.675461 C245.068243,249.709077 244.407577,250.010781 243.280805,250.525947 C242.229321,251.008338 241.516207,252.098338 240.765872,252.935378 C240.161036,253.608539 239.519826,254.245563 238.921757,254.925448 C237.970092,256.014607 237.091177,257.167638 236.215645,258.323189 C234.963677,259.980461 233.869897,261.776398 232.812492,263.565612 C230.28064,267.849137 227.858759,272.202415 225.489325,276.578384 C224.310106,278.751661 223.190103,280.954353 222.05318,283.1478 C221.34345,284.518494 220.57958,285.842126 219.740423,287.119536 C219.186343,284.957184 218.739695,282.759535 218.134013,280.626596 C216.76277,275.800172 215.259562,271.017449 212.935808,266.546515 C212.215926,265.15397 211.287101,263.874039 210.289757,262.663021 C209.274647,261.42511 208.052287,260.515796 206.7834,259.544292 C205.528049,258.585395 203.984237,257.834076 202.441271,257.495394 C200.088755,256.980228 197.679563,257.57103 195.727169,258.940044 C194.33224,259.918271 193.278218,261.051132 192.389152,262.505026 C191.725101,263.588303 191.279299,264.848905 190.800506,266.021264 C190.317483,267.196145 189.878449,268.381111 189.445335,269.5728 C188.718686,271.582199 188.11385,273.647065 187.459105,275.679155 C186.722305,277.97345 185.909372,280.23581 185.073598,282.493968 C184.950094,282.829288 184.822359,283.160406 184.691241,283.491524 C183.915528,281.127475 183.193955,278.745778 182.456309,276.368284 C181.821865,274.326949 181.154431,272.300742 180.434549,270.288821 C179.773037,268.430694 179.065844,266.608705 178.289285,264.790077 C177.724208,263.463923 177.106683,262.170546 176.413025,260.903221 C176.075501,260.283005 175.676225,259.701447 175.276103,259.12073 C174.41326,257.856767 173.49797,256.871817 172.259537,255.97847 C170.977115,255.053188 169.281883,254.560713 167.699159,254.655679 C167.180607,254.724592 166.664593,254.793505 166.149425,254.862417 C165.445616,255.154877 164.741807,255.450698 164.044766,255.752402 C163.92549,255.840644 163.806215,255.926365 163.691169,256.012086 C163.159083,256.37598 162.65322,256.776851 162.180348,257.209658 C161.232067,258.053421 160.425901,259.051817 159.609584,260.019959 C158.083537,261.835226 156.645466,263.808488 155.374041,265.814526 C154.183826,267.695343 153.001224,269.576161 151.887141,271.503201 C150.930401,273.159632 150.01934,274.860604 149.026225,276.50779 C147.617761,274.34964 146.286276,272.135183 144.938719,269.95014 C141.742817,264.77663 138.914892,259.353521 135.174214,254.534661 C134.153184,253.221114 133.115235,251.970597 131.945321,250.785631 C130.788943,249.613272 129.398243,248.612354 127.989779,247.758506 C124.887775,245.877688 120.422986,245.476817 117.382734,247.679509 C116.408229,248.385446 115.459948,249.183827 114.855112,250.257019 C114.402543,251.064645 114.059097,251.91513 113.745259,252.784946 C113.450878,253.6119 113.381512,254.810313 113.289306,255.6213 C113.249548,255.965864 113.209789,256.307067 113.173414,256.651632 C113.047372,257.774408 112.932326,258.897183 112.819818,260.019959 C112.381629,264.382482 112.074559,268.760972 111.541626,273.11425 C111.319148,274.564783 111.041685,276.001028 110.658481,277.410381 C110.129779,276.862439 109.606998,276.310296 109.082524,275.764035 C107.704514,274.332832 106.362878,272.86213 105.008553,271.404874 C103.273562,269.540024 101.525037,267.698705 99.7443658,265.876715 C98.1616414,264.258103 96.4824816,262.741178 94.823624,261.198202 C93.8457355,260.288888 92.7688738,259.465295 91.7080847,258.654308 C90.3469925,257.607168 88.9782869,256.589442 87.5080704,255.693574 C86.8905457,255.315394 86.2324166,255.010328 85.5717497,254.715347 C84.2470322,254.130428 83.4535551,253.900998 82.0061786,253.746365 C81.1534869,253.651399 80.3346322,253.818639 79.498013,253.982517 C78.5336593,254.252286 77.6936564,254.738038 76.9839259,255.437252 C76.58042,255.850729 76.2166725,256.300344 75.8994509,256.789457 C75.4308088,257.853405 74.9748556,258.703891 75.0010793,259.911548 C75.0239192,260.841031 75.1626508,261.750345 75.351292,262.65966 C75.4502651,263.145411 75.5763078,263.627802 75.6947372,264.110192 C75.9299042,265.082536 76.1709926,266.050678 76.4053137,267.022182 C77.4559517,271.420842 78.3154108,275.856479 79.5183152,280.219002 C80.2948737,283.036027 81.454636,285.779936 82.4985066,288.508719 C83.5990541,291.377849 84.7156742,294.240255 85.8263729,297.106023 C88.1129063,303.005639 90.3165392,308.937191 92.4347337,314.898997 C92.9338291,316.310871 93.6875476,317.466422 95.0190325,318.237911 C96.3175264,318.992591 97.9002508,319.19933 99.351011,318.80182 C100.755245,318.417756 101.975068,317.48239 102.711868,316.235235 C103.428366,315.016653 103.762506,313.297192 103.280329,311.93154 C100.094578,302.952694 96.6212132,294.088983 93.2146759,285.192496 C92.3129206,282.841894 91.4568452,280.488771 90.6337608,278.108754 C89.9240303,276.059856 89.4739986,273.912631 89.0053565,271.802384 C88.9715195,271.651952 88.9376825,271.50152 88.9038456,271.350248 C91.0854844,273.430241 93.1656123,275.621167 95.1975226,277.832262 C98.210705,281.105625 101.141833,284.500005 104.37411,287.563268 C104.981483,288.137262 105.576168,288.708734 106.230914,289.230624 C106.911883,289.778565 107.489649,290.260955 108.262824,290.618966 C109.273703,291.085389 110.509599,291.561056 111.66344,291.488782 C112.516131,291.433315 113.355288,291.364402 114.161454,291.078666 C115.410038,290.635774 116.210283,290.172713 117.204244,289.302898 C118.635548,288.058264 119.672651,286.456459 120.459361,284.752966 C122.709519,279.887884 123.218766,274.546294 123.747469,269.277819 C124.049464,266.2633 124.314238,263.242898 124.612849,260.226698 C124.955448,260.602357 125.287897,260.988102 125.613578,261.380569 C128.979511,265.891002 131.710154,270.879623 134.612521,275.689239 C136.951501,279.562648 139.40722,283.436057 142.192848,287.011124 C142.466928,287.365773 142.741007,287.717061 143.021854,288.068349 C143.431282,288.577632 144.429472,289.375173 144.878658,289.597879 C145.020773,289.670153 145.166272,289.74579 145.311771,289.818064 C146.223678,290.343315 147.20495,290.60636 148.258972,290.609722 C149.981274,290.753431 151.695962,290.205489 153.166179,289.351641 C154.696456,288.465859 155.879058,286.968264 156.923775,285.593367 C158.727285,283.216713 160.099375,280.534152 161.589047,277.957482 C163.408631,274.816903 165.312806,271.741875 167.430155,268.79795 C167.582421,269.118143 167.730458,269.440857 167.875957,269.764411 C169.660011,274.184921 171.021104,278.747459 172.46425,283.282264 C173.174827,285.507646 173.884557,287.727146 174.678034,289.926476 C175.15006,291.2333 175.699065,292.513231 176.257375,293.787279 C176.987408,295.454635 177.820643,297.191744 179.254485,298.369986 C179.644456,298.668329 180.034427,298.967512 180.421015,299.262492 C181.052074,299.574281 181.703436,299.830604 182.374254,300.028098 C183.371599,300.34577 185.027073,300.286941 186.025263,300.014652 C187.647746,299.57176 189.005455,298.497727 190.106002,297.276624 C192.184438,294.975606 193.437252,292.142614 194.630006,289.328951 C195.561368,287.136344 196.410676,284.933652 197.240528,282.697345 C198.781802,278.555007 199.828211,274.22358 201.51583,270.131666 C201.573352,270.193856 201.630029,270.255205 201.687552,270.317395 C202.656136,271.737673 203.403933,273.263842 204.110279,274.825307 C205.532278,278.594506 206.714035,282.444384 207.72153,286.341324 C208.20117,288.199451 208.634283,290.067663 209.152834,291.915705 C209.529271,293.258666 210.05459,294.531874 210.609516,295.812646 C210.765166,296.174018 210.926738,296.508498 211.105228,296.866509 C211.4326,297.516139 212.195624,298.543949 212.654961,298.980118 C213.292788,299.581004 213.956839,300.11634 214.743548,300.517211 C215.635998,301.029016 216.597814,301.2887 217.62815,301.291221 C218.368334,301.426525 219.105134,301.383665 219.84278,301.16348 C221.127739,300.956741 222.373786,300.339887 223.447264,299.61378 C224.795667,298.704466 225.96558,297.598498 227.022986,296.374034 C228.056705,295.175622 228.96269,293.859553 229.841606,292.546006 C231.034359,290.7736 231.963184,288.800338 232.94784,286.906074 C234.946759,283.055356 237.028579,279.25086 239.162846,275.469054 C240.822549,272.521767 242.467026,269.544226 244.315371,266.705351 C244.675735,267.885274 245.042866,269.063517 245.415072,270.239238 C246.683959,274.254675 248.101728,278.223049 249.033091,282.336813 C249.495811,284.381509 249.700525,286.466544 250.100647,288.521325 C250.292672,288.97094 250.483851,289.420554 250.675876,289.874371 C250.910197,290.553415 251.296784,291.140855 251.835638,291.640054 C252.007361,291.794688 252.179083,291.945119 252.347422,292.099753 C253.061382,292.802329 253.900539,293.28808 254.869123,293.557009 C256.398554,294.078898 258.107321,293.95788 259.637598,293.514989 C261.057905,293.100671 262.359783,292.332544 263.539847,291.469452 C265.010064,290.392898 266.401609,289.220539 267.749167,287.996074 C271.298665,284.779019 274.833783,281.565324 278.475487,278.446596 C281.349938,275.98422 284.320824,273.617651 287.245184,271.217465 C289.970753,268.975274 292.577891,266.613747 295.171495,264.225327 C295.074214,264.537956 294.976933,264.851426 294.878806,265.164055 C293.474571,269.629107 292.086409,274.100041 290.694864,278.567613 C289.333772,282.950306 287.948993,287.329636 286.603974,291.71569 C285.355389,295.776508 284.264993,299.883549 282.992723,303.934283 C282.7381,304.738547 282.516467,305.532726 282.361663,306.363882 C282.070665,307.90938 282.110424,309.327977 282.936046,310.726405 C283.679613,311.990368 284.915509,312.939181 286.340045,313.326606 C287.813646,313.729999 289.416672,313.52326 290.731239,312.755133 C291.930759,312.059281 293.071065,310.762542 293.351912,309.374199 C293.752034,307.390853 294.455843,305.473898 295.017537,303.533411 C295.612222,301.47863 296.206907,299.427211 296.837966,297.381675 C298.146611,293.117479 299.50432,288.862528 300.833267,284.601694 C303.589288,275.780843 306.361382,266.963354 309.041271,258.11561 C309.920186,255.217067 310.620611,252.200026 310.92176,249.183827 C311.099404,247.400495 311.033422,245.562538 310.095292,243.964095 C309.094564,242.267325 306.983137,241 304.930924,241 C304.346391,241 303.766087,241.102529 303.218773,241.327756" id="Fill-93" fill="#2C2C2C"></path>
                <path d="M205.314912,81.0083413 C205.30135,81.1131376 205.287788,81.2179338 205.273379,81.3227301 C205.271683,81.3024469 205.269988,81.2821638 205.267445,81.2618806 C205.281007,81.1773675 205.296264,81.0928544 205.314912,81.0083413 M195.422382,71.3569454 C195.370677,71.7981037 195.304563,72.238417 195.24523,72.6736594 C195.304563,72.2358816 195.362201,71.7964135 195.422382,71.3569454 M166.339818,11.4481445 C166.148256,11.4743435 165.955848,11.4996975 165.765134,11.5258965 C165.955848,11.4861754 166.147409,11.4599763 166.339818,11.4481445 M158.513776,2.6883617 C155.623405,4.59328696 153.200069,7.22756027 151.253095,10.0502978 C150.580935,11.0238887 150.07406,12.1107272 149.607024,13.19334 C149.031492,14.5168151 148.561065,15.7878921 148.276266,17.2009512 C147.988077,18.6469703 147.859239,20.1758123 148.220324,21.6277473 C148.547503,22.9284039 149.047597,24.1901845 149.812995,25.2989964 C150.663154,26.5371133 151.670122,27.6890268 152.603348,28.8679846 C152.996642,29.3615411 153.38485,29.8576329 153.77221,30.3537248 C155.987032,33.2744976 158.137435,36.2273853 160.146285,39.2935205 C161.165968,40.845181 162.119536,42.4357176 163.083276,44.0203382 C164.455567,46.2759928 165.746486,48.6355985 166.83313,51.0467573 C167.172177,51.9476669 167.443414,52.8502668 167.649385,53.7908976 C167.830775,56.0245788 167.695156,58.303052 167.675661,60.5401137 C167.658709,62.4019373 167.648537,64.264606 167.609547,66.1264296 C167.521395,70.3681421 167.381538,74.6039386 166.884835,78.8202972 C166.730569,79.8471313 166.544093,80.870585 166.297437,81.8788263 C164.984479,82.2498388 163.807988,83.0975051 163.073104,84.3525247 C161.573671,86.9048203 162.447564,90.354645 165.039574,91.8336243 C166.350837,92.5824103 167.61548,93.1047013 169.16238,92.9821573 C170.314291,92.890038 171.387373,92.6288925 172.400275,92.038146 C173.416566,91.4473994 174.131955,90.6149454 174.810895,89.6810756 C176.902812,86.7957984 177.346963,82.9166471 177.786876,79.4794994 C178.121685,76.9018498 178.326808,74.3064525 178.446322,71.7119004 C178.658226,67.2284804 178.694673,62.7425251 178.770959,58.2557247 C178.804016,56.4167196 178.889625,54.5751792 178.665007,52.7429352 C178.449712,50.9926689 178.088628,49.3886103 177.459696,47.748211 C176.770584,45.9582235 175.93992,44.225705 175.052466,42.528682 C173.91666,40.3533148 172.671512,38.2404873 171.410259,36.1403368 C169.082704,32.2679465 166.470351,28.5840205 163.77154,24.9651696 C163.106161,24.0744015 162.430611,23.1929299 161.751671,22.3114583 C161.026959,21.374208 160.195447,20.4470993 159.557192,19.4295616 C159.661449,19.0298146 159.783505,18.6351385 159.920819,18.2429977 C160.405656,17.2533493 160.950673,16.3152539 161.578757,15.4084283 C162.449259,14.4179348 163.397741,13.5254765 164.3903,12.6575269 C164.888699,12.3118683 165.394726,11.9957894 165.938048,11.7075997 C166.168599,11.6306928 166.399999,11.5597018 166.634788,11.4929364 C166.946711,11.5757592 167.255243,11.6721042 167.560385,11.7785907 C168.853848,12.4496247 170.021015,13.251654 171.177164,14.1111522 C173.352995,15.9780466 175.38897,17.9057904 177.208802,20.1217239 C179.721137,23.561407 181.718968,27.3619611 183.657467,31.1456126 C185.139948,34.0368057 186.495286,36.9685651 187.849777,39.9180723 C188.238833,40.9119464 188.627889,41.9041302 189.017793,42.8946237 C189.418715,43.9180773 189.878971,44.9347699 190.219713,45.9785067 C191.041053,48.477559 191.885279,50.9563283 192.560829,53.4984823 C193.748339,57.9658447 204.576638,60.5401137 204.576638,54.2776931 C204.576638,53.3431775 204.15283,52.535033 203.920583,51.6628578 C203.62307,50.5472849 203.378108,49.4046677 203.017024,48.309378 C202.341474,46.2624707 201.742209,44.1758423 200.953926,42.1686562 C199.954586,39.6231216 199.037465,37.0184279 197.891488,34.5328976 C196.925205,32.4268312 196.02758,30.270902 194.968059,28.2070921 C192.564219,23.5259115 190.233274,18.7424701 187.147103,14.464417 C185.104348,11.6281574 182.770013,9.05304323 180.117821,6.78217624 C177.340182,4.39890683 174.409973,2.13057524 170.933051,0.866259271 C169.668407,0.403972616 168.396983,0.103951112 167.043339,0.0177477509 C166.863645,0.00591591697 166.683102,0 166.50256,0 C165.313354,0 164.11313,0.243397727 162.977324,0.578914732 C161.394824,1.04796243 159.887762,1.78407153 158.513776,2.6883617 Z" id="Fill-95" fill="#2C2C2C"></path>
                <path d="M135.72755,215.176442 C135.692168,215.18376 135.656786,215.191891 135.620561,215.198396 C133.891038,215.310604 132.141296,215.175629 130.415985,215.12847 C128.211327,215.065048 126.006669,215.039842 123.798641,215.039842 C119.339622,215.039842 114.883972,215.259378 110.431692,215.497616 C107.992836,215.627712 105.557351,215.713087 103.115968,215.802528 C102.240676,215.834239 101.365384,215.802528 100.490092,215.796023 L99.3317407,215.796023 C98.5322679,215.799276 97.7319527,215.804967 96.9392194,215.764312 C92.1743952,215.529327 87.4120983,215.198396 82.6439044,215.091067 C80.9522907,215.052851 79.2910048,215.061795 77.6027608,215.17319 C75.4469643,215.319548 73.314756,215.700891 71.2052935,216.132646 C68.1413498,216.757918 66.3975051,220.17537 67.1910808,222.95454 C67.5887111,224.342498 68.5465621,225.543445 69.8329635,226.271167 C71.225512,227.058246 72.7157832,227.144435 74.2624978,226.829766 C75.1394748,226.650884 76.0172942,226.484199 76.9001683,226.339468 C82.0011249,225.853235 87.1703189,226.391506 92.2729604,226.651697 C94.741301,226.779354 97.1961627,226.89644 99.6670307,226.921646 C102.158117,226.947665 104.626458,226.889935 107.117544,226.80456 C111.39881,226.658202 115.676705,226.350038 119.96134,226.276859 C124.390874,226.201241 128.80019,226.302878 133.222985,226.45818 C134.01993,226.483386 134.812664,226.474442 135.608767,226.426469 C136.392233,226.378496 137.17233,226.245148 137.949057,226.134567 C138.725784,226.01992 139.452807,225.600361 140.153715,225.308459 C141.018898,224.815722 141.703799,224.152233 142.216843,223.320434 C142.99357,222.039804 143.20418,220.477843 142.79644,219.048416 C142.401337,217.66371 141.440116,216.459511 140.153715,215.732601 C139.251465,215.222789 138.291929,215 137.306278,215 C136.785651,215 136.258286,215.061795 135.72755,215.176442" id="Fill-97" fill="#2C2C2C"></path>
                <path d="M242.956536,229.812708 C242.666083,229.851963 242.37563,229.891217 242.085177,229.929618 C242.37563,229.887804 242.666933,229.850256 242.956536,229.812708 M288.990805,214.177498 C286.724931,214.317449 284.45566,214.436919 282.193183,214.613564 C277.539139,214.980507 272.887643,215.333797 268.236997,215.737435 C263.522654,216.15046 258.815106,216.607006 254.110954,217.124141 C249.140979,217.667729 244.158265,218.157556 239.205275,218.843655 C238.545386,218.934111 237.878703,219.01774 237.228156,219.161104 C236.521556,219.317268 235.688415,219.654345 235.098166,219.977767 C234.020433,220.564023 233.489634,221.274016 232.783034,222.247697 C232.261578,223.150549 232,224.124229 232,225.167885 C232,226.560564 232.560524,228.34408 233.684968,229.258026 C234.620872,230.017514 235.118549,230.480887 236.302443,230.811136 C237.649398,231.181493 239.019283,230.951087 240.336514,230.60121 C240.859669,230.462113 241.346305,230.24792 241.788779,229.973139 C241.877104,229.959486 241.965429,229.946685 242.054603,229.933885 C250.651845,228.839881 259.281359,227.96263 267.91512,227.203995 C272.041762,226.843879 276.171802,226.52387 280.30269,226.201301 C282.273015,226.044283 284.236546,225.904332 286.207721,225.780596 C289.618421,225.57067 293.041012,225.278822 296.449165,225.584323 C297.424136,225.780596 298.332863,226.05367 299.274713,226.42744 L299.123541,226.362585 C299.3486,226.457308 299.573659,226.552884 299.799567,226.647606 C300.80766,226.920681 301.816602,226.920681 302.824695,226.647606 C304.244688,226.254209 305.478689,225.301009 306.225205,224.020973 C306.99465,222.70083 307.201025,221.093958 306.799317,219.61765 C306.447715,218.341028 305.459156,216.740983 304.181842,216.200808 C302.718535,215.577004 301.312131,214.943813 299.759651,214.59735 C297.998248,214.207366 296.133233,214.070829 294.328517,214.013654 C294.003244,214.004267 293.67797,214 293.351848,214 C291.897884,214 290.440522,214.087042 288.990805,214.177498" id="Fill-99" fill="#2C2C2C"></path>
                <path d="M224.665248,319.99094 C224.690522,319.994282 224.715796,319.997624 224.740228,320.000966 C224.739386,320.000966 224.739386,320.000966 224.739386,320.001801 C224.714954,319.998459 224.68968,319.994282 224.665248,319.99094 Z M226.077235,319.941646 C225.973611,319.96504 225.869987,319.983421 225.76552,319.998459 C225.75878,319.994282 225.751198,319.990105 225.743615,319.985927 L226.077235,319.941646 Z M166.465426,317.765202 C166.599379,317.811989 166.729963,317.866296 166.856334,317.929793 C166.72575,317.875486 166.595167,317.819508 166.465426,317.765202 Z M241.83572,317.600611 C241.882057,317.618156 241.926708,317.638208 241.972201,317.657424 C241.926708,317.638208 241.881214,317.618992 241.83572,317.600611 Z M256.307747,317.448552 C256.365035,317.471946 256.423166,317.49701 256.481297,317.521239 C256.422324,317.498681 256.365035,317.473617 256.307747,317.448552 Z M242.046339,317.429336 C242.096045,317.437691 242.146594,317.446881 242.1963,317.458578 L242.03286,317.43602 C242.037072,317.433513 242.042127,317.431842 242.046339,317.429336 Z M241.252728,317.407613 L241.283057,317.422652 C241.143206,317.441033 241.003356,317.459413 240.863505,317.477794 C240.993246,317.44521 241.122987,317.422652 241.252728,317.407613 Z M256.541113,317.311532 C256.656532,317.399258 256.771108,317.48782 256.885685,317.575546 C256.766896,317.493668 256.652319,317.405107 256.541113,317.311532 Z M204.531793,314.054803 C204.672486,314.063993 204.810652,314.082374 204.947133,314.109945 C204.808967,314.090729 204.669959,314.072348 204.531793,314.054803 Z M117.473849,307.481188 C117.569891,307.490379 117.665934,307.503747 117.760291,307.520456 C117.665091,307.507924 117.569049,307.494556 117.473849,307.481188 Z M116.690348,297.223911 C115.526048,297.589854 114.499072,298.059398 113.498212,298.747839 C112.883206,299.172267 112.297686,299.671888 111.711324,300.144774 C111.112325,300.627686 110.579881,301.205843 110.033115,301.743897 C107.798872,303.947077 105.814002,306.397561 103.698549,308.711861 C102.747395,309.749536 101.789502,310.810605 100.743149,311.753871 C99.3867646,312.974518 97.9949968,314.139187 96.5796397,315.291324 C95.5299165,316.146027 95,317.77857 95,319.073575 C95,320.487219 95.5728826,321.857419 96.5796397,322.856662 C97.5872391,323.855069 98.9688973,324.4232 100.394364,324.4232 C100.871205,324.358032 101.348045,324.295371 101.825728,324.230203 C102.740656,323.976215 103.533424,323.519203 104.204876,322.856662 C105.696056,321.642698 107.153537,320.408684 108.581531,319.126211 C109.901689,317.938148 111.112325,316.551239 112.287576,315.226156 C114.387023,312.857549 116.430866,310.37281 118.783055,308.234798 C120.18072,309.537323 121.425897,310.993577 122.709828,312.406386 C123.884238,313.705569 125.217875,314.824286 126.592793,315.904572 C129.508597,318.196313 132.622383,320.30759 135.771553,322.265972 C137.308226,323.221769 138.851639,324.129109 140.464136,324.94538 C142.218167,325.832667 144.087618,326.563719 145.999193,327.034098 C148.460903,327.633978 150.889757,327.640662 153.377584,327.275554 C155.875521,326.906269 158.143463,326.012297 160.449315,325.026422 C162.77623,324.034699 164.75773,322.540012 166.745127,321.012741 C167.32475,320.566591 167.887523,320.10206 168.446083,319.629174 C168.855526,320.112086 169.256544,320.602517 169.671041,321.084593 C170.085538,321.564163 170.489926,322.047074 170.928013,322.504086 C172.024072,323.646197 173.215331,324.608678 174.49505,325.551944 C176.255822,326.847784 178.381385,327.74844 180.382262,328.573901 C181.9956,329.239785 183.884428,329.465366 185.614871,329.357588 C186.780013,329.285736 187.948525,329.060155 189.053852,328.688363 C190.127164,328.326597 191.186997,327.797733 192.193754,327.282238 C194.764144,325.966345 196.991646,324.067283 199.166915,322.200804 C200.111329,321.391217 201.00014,320.506436 201.878841,319.625832 C202.760911,318.744393 203.632872,317.849586 204.488827,316.945589 C205.022113,316.38247 205.541077,315.7993 206.075206,315.23284 C206.4341,315.617999 206.7812,316.015691 207.124087,316.424245 C208.284174,317.955693 209.428254,319.497167 210.583287,321.035299 C211.55129,322.321114 212.571527,323.577687 213.719819,324.709772 C215.023128,325.998929 216.615404,327.024072 218.113324,328.085141 C219.146198,328.816193 220.183284,329.563118 221.345056,330.078614 C222.562432,330.617503 223.318974,330.894885 224.665248,330.979269 C225.543949,331.031905 226.738578,330.995979 227.551566,330.734471 C228.364553,330.473799 229.143842,330.134592 229.913864,329.768648 C230.871758,329.31832 231.704122,328.541317 232.497733,327.869585 C234.00829,326.587112 235.192809,324.846792 236.361321,323.257695 C236.833107,322.613535 237.31079,321.976058 237.793528,321.342758 C238.799442,320.17976 239.826419,319.09112 240.983136,318.085193 C241.213132,317.928957 241.444812,317.780241 241.681548,317.639879 C241.915756,317.77105 242.145751,317.908906 242.374904,318.055951 C244.48446,319.861439 246.208163,322.072974 248.007689,324.17506 C249.784467,326.247069 251.940359,328.156158 254.766861,328.551343 C255.738234,328.685021 256.534373,328.789457 257.488896,328.753531 C258.581586,328.711757 259.683542,328.492859 260.750115,328.263935 C262.671799,327.849534 264.515134,326.981462 266.308762,326.217827 C267.726646,325.611263 269.112517,324.92867 270.507655,324.269471 C273.235587,322.980314 275.730154,321.234145 277.813593,319.054359 C278.909653,317.905564 279.860806,316.583823 280.610609,315.193572 C281.48594,313.565207 282.095049,311.789796 282.671301,310.040286 C283.108546,308.721887 283.516303,307.403488 283.835601,306.055012 C284.53654,303.121616 282.951003,300.06958 279.939157,299.247461 C277.057051,298.460432 273.818579,300.187384 273.078044,303.11159 C272.597834,305.000627 271.995465,306.898018 271.286101,308.721887 C270.942371,309.439571 270.571683,310.127177 270.135281,310.790554 C269.513535,311.485679 268.84798,312.124827 268.132719,312.723871 C266.84963,313.590272 265.490719,314.287904 264.090526,314.955458 C262.941391,315.502702 261.793941,316.048275 260.633011,316.562936 C259.527685,316.993212 258.409721,317.362497 257.248791,317.612308 C257.199085,317.614814 257.150222,317.617321 257.101358,317.618992 C256.349871,316.842824 255.670836,316.006501 254.971583,315.180204 C254.191451,314.256991 253.395313,313.352993 252.591592,312.448996 C250.824923,310.451346 248.711997,308.659226 246.286513,307.51043 C244.588085,306.708363 242.759073,306.159447 240.863505,306.385029 C240.369815,306.450197 239.872755,306.515365 239.375695,306.580533 C238.704243,306.796089 238.04964,307.054254 237.411044,307.354194 C236.772449,307.63826 236.183559,307.95491 235.600567,308.336727 C233.580313,309.658468 231.833021,311.306049 230.279498,313.130754 C228.817805,314.849351 227.511127,316.692436 226.161483,318.494582 C225.829548,318.884755 225.489188,319.259053 225.131979,319.619148 C224.176613,319.020104 223.261686,318.330827 222.363608,317.665779 C221.328207,316.79353 220.441923,315.819352 219.57923,314.785019 C218.405663,313.225999 217.239678,311.661967 216.049261,310.11548 C214.061864,307.533824 211.860478,304.984752 208.684349,303.852667 C206.966544,303.238584 205.087826,303.134148 203.37002,303.806715 C202.931934,303.989687 202.49132,304.175165 202.053233,304.358137 C201.454233,304.729929 200.882193,305.14433 200.342167,305.601342 C199.884704,305.95726 199.466836,306.339077 199.058236,306.746795 C197.623502,308.18634 196.304187,309.737004 194.872823,311.179055 C193.208936,312.852536 191.521459,314.499282 189.691605,315.989791 C188.456537,316.875408 187.179346,317.671627 185.813695,318.332498 C185.561795,318.409363 185.312422,318.477037 185.060522,318.534686 C184.918987,318.537192 184.778294,318.536357 184.638443,318.532179 C184.237425,318.433592 183.846517,318.314117 183.458978,318.177097 C182.309001,317.621498 181.18177,316.997389 180.126149,316.281376 C179.071371,315.367353 178.13117,314.343046 177.236462,313.267774 C176.752882,312.68711 176.265931,312.108953 175.768871,311.538315 C174.712408,310.32101 173.462176,309.080311 171.960887,308.441163 C170.967609,308.02342 169.88166,307.530482 168.752744,307.609018 C167.449436,307.696744 166.379493,307.866348 165.217721,308.483773 C164.082908,309.083653 163.118274,309.990992 162.141004,310.819796 C161.169631,311.644422 160.210053,312.479909 159.217618,313.278635 C157.888193,314.230255 156.49811,315.039007 155.015355,315.725777 C153.795452,316.181953 152.563754,316.554581 151.287405,316.803556 C150.627748,316.846166 149.9782,316.84533 149.320227,316.80272 C148.289039,316.59552 147.296604,316.296415 146.315121,315.92713 C144.034542,314.863554 141.901397,313.530117 139.799423,312.161588 C137.712614,310.806428 135.664558,309.40448 133.644305,307.95491 C132.825419,307.307407 132.021699,306.64403 131.289588,305.898775 C130.167412,304.746638 129.0941,303.555233 128.01826,302.360487 C126.899454,301.120623 125.691345,300.024464 124.345071,299.031905 C123.417507,298.346806 122.40738,297.768648 121.291101,297.419415 C120.981913,297.302446 120.662615,297.223911 120.33405,297.191327 C119.711462,297.086891 119.02653,297 118.347495,297 C117.776298,297 117.210997,297.061826 116.690348,297.223911 Z" id="Fill-101" fill="#2C2C2C"></path>
            </g>
        </g>
    </g>
</svg>