<?xml version="1.0" encoding="UTF-8"?>
<svg width="370px" height="315px" viewBox="0 0 370 315" version="1.1" xmlns="http://www.w3.org/2000/svg" xmlns:xlink="http://www.w3.org/1999/xlink">
    <!-- Generator: Sketch 51 (57462) - http://www.bohemiancoding.com/sketch -->
    <title>car_front</title>
    <desc>Created with Sketch.</desc>
    <defs></defs>
    <g id="ALL" stroke="none" stroke-width="1" fill="none" fill-rule="evenodd">
        <g id="car_front_DL" transform="translate(-215.000000, -262.000000)">
            <g id="car_front" transform="translate(215.000000, 262.000000)">
                <path d="M84.328125,14.9609375 L274.1875,14.9609375 L311.859375,107.546875 C343.786458,135.041667 359.75,148.789062 359.75,148.789062 C359.75,148.789062 359.75,201.489583 359.75,306.890625 L311.859375,306.890625 L298.40625,266 L84.328125,266 L73.9375,306.890625 L15.0390625,306.890625 L15.0390625,119.921875 L42.65625,119.921875 L84.328125,14.9609375 Z" id="Path-140" fill="#FFFFFF"></path>
                <path d="M49.7563938,80.0985386 C49.6561749,80.3636259 49.5542996,80.627799 49.4532525,80.8919721 C49.4872109,80.803305 49.5219976,80.7137238 49.5559561,80.6241426 C49.6230447,80.4486366 49.6901334,80.2731306 49.7563938,80.0985386 M130.317436,0.461766926 C125.823325,0.504729338 119.707468,0.704915894 115.223296,1.00839506 C110.839342,1.30821785 106.462015,1.70402049 102.074749,1.92523121 C97.214549,2.17203655 92.3361276,2.34022982 87.5347338,3.30002838 C84.9108223,3.82563235 82.4484204,4.61083898 80.0381986,5.89971134 C77.54101,7.23885885 75.3535888,8.97746538 73.3765443,11.1347269 C72.3768406,12.2270691 71.4740428,13.4446421 70.7269568,14.7554527 C70.1670565,15.7335331 69.834098,16.8542122 69.4357074,17.9154752 C69.2874498,18.3149342 69.1317379,18.7153073 69.0058431,19.1257355 C68.4782447,20.8213796 68.0251893,22.5353056 67.592012,24.2602007 C66.6925272,27.8599024 60.1418821,52.8329468 59.6706051,54.2104863 C58.8920455,55.9957116 58.0232061,57.7297476 57.246303,59.5168012 C56.0618984,62.241715 54.894059,64.9876529 53.8753054,67.7902647 C52.2204521,72.3442804 50.7859146,76.9805645 49.1964934,81.562917 C48.8991499,82.3389827 48.6026347,83.1141343 48.3061194,83.8902 C46.849219,87.5566305 45.4204793,91.2376865 44.0041634,94.9242271 C42.3600774,99.2012723 40.6845177,103.443582 39.2151935,107.80381 C38.7530272,109.17495 39.0859857,110.963832 39.7328528,112.185062 C40.409537,113.455652 41.5251964,114.405396 42.8131328,114.798456 C44.1433102,115.201571 45.5927563,114.994986 46.7829586,114.223491 C48.025341,113.423659 48.6531582,112.263674 49.1517677,110.827632 C49.4698176,109.905311 49.7986348,108.987561 50.127452,108.070725 C51.1254991,105.652033 52.2030588,103.280873 53.2276101,100.87315 C54.3664606,98.1911985 55.5019981,95.5028485 56.6739788,92.839179 C57.9453501,89.9533846 59.1943585,87.064848 60.329896,84.1123248 C61.4447271,81.2146473 62.477561,78.2840623 63.5319295,75.3617042 C64.9333368,71.8881475 78.3808605,33.4102803 79.3134755,30.2621411 C80.1210241,27.5427118 80.8126169,24.7903752 81.7005062,22.1029392 C81.7833317,21.9237768 81.8702985,21.7464426 81.9622348,21.5709366 C82.3531711,21.1047487 82.7697833,20.6650696 83.2046171,20.2482428 C84.0320438,19.6495113 84.9075092,19.1522442 85.8020245,18.6906268 C87.2937116,18.1138336 88.7986508,17.757337 90.3474875,17.4776242 C94.5972635,17.1028458 98.8337874,17.0726807 103.096815,16.9867558 C107.652217,16.8935183 112.200993,16.5836404 116.753082,16.3907666 C121.094795,16.2052056 127.072334,16.1832673 131.414046,16.2116042 C135.93052,16.2371989 140.427944,16.1229371 144.941105,15.9117815 C149.677895,15.6905707 216.087374,16.9877365 224.480081,16.9877365 L226.476175,16.9877365 C228.530248,16.9913929 230.600885,17.0517231 232.649159,16.9237499 C235.101622,16.7701822 237.525096,16.5626829 239.96762,16.2847983 C242.177404,16.0306802 244.377249,17.4154659 246.593659,17.2436162 C248.786878,17.076337 250.980925,17.1330109 253.174144,17.2618981 C256.897978,17.4867652 260.609389,18.0004859 264.313345,18.4648456 C265.940866,18.6723449 267.5717,18.8725315 269.205846,19.043467 C270.392736,19.1705261 271.585423,19.2582791 272.772312,19.3908227 C274.223415,20.94204 275.035105,22.4055043 275.70185,24.0362477 C278.389537,31.0619732 281.237906,38.0118289 283.954582,45.024757 C286.831939,52.7004032 289.201577,60.5597823 291.745976,68.3761989 C293.211987,72.8817676 294.671372,77.4522369 296.645104,81.7228834 C298.268483,85.2394025 300.209084,88.544766 301.752123,92.1005911 C302.676456,94.8383022 303.455015,97.6253744 304.215353,100.426158 C304.600492,101.840261 304.930137,103.272646 305.299539,104.693148 C305.752595,106.4217 306.192398,108.206925 307.124185,109.703297 C307.645157,110.670408 308.344204,111.441903 309.220498,112.016868 C310.566412,112.884343 312.20967,113.123836 313.714609,112.663133 C315.173994,112.220711 316.438739,111.145737 317.202391,109.703297 C317.399515,109.192318 317.59664,108.678597 317.79128,108.167619 C318.069573,107.025002 318.069573,105.882384 317.79128,104.743423 C317.431817,102.386889 316.975449,100.034012 316.548897,97.6911892 C316.027925,94.8383022 315.50364,91.9250851 314.636457,89.1718344 C312.762116,83.2219974 310.01231,77.7191523 307.766911,71.9457355 C307.704791,71.7811986 307.641844,71.6166617 307.578897,71.4530389 C304.645218,63.488539 301.975752,55.4079492 299.077688,47.4306521 C296.299721,39.7860851 293.022317,32.3855811 290.053851,24.8315094 C289.412782,23.1047861 288.805671,21.3670936 288.167914,19.6394562 C287.556662,17.9831182 286.938784,16.325866 286.129579,14.7728205 C285.774258,14.0872501 285.321202,13.462924 284.897136,12.830371 C284.389416,12.0698449 283.868443,11.3166316 283.340845,10.580786 C283.055925,10.1703579 282.761895,9.77364114 282.454612,9.38515125 C281.946064,8.75991104 281.367113,8.22425204 280.71362,7.77817423 C278.257844,5.75711269 275.440121,5.30006576 272.541229,4.71047522 C270.555074,4.30735982 268.571403,3.90698671 266.578622,3.5504901 C261.641394,2.65376402 256.665239,1.95448221 251.673346,1.57604735 C247.344058,1.24697356 242.992407,0.226911372 238.682996,0.65196502 C234.08204,1.1016992 229.497649,1.07701867 224.884269,1.0267435 C220.468014,0.980124718 148.40818,-0.186325625 144.62057,0.0257441519 C139.848166,0.293573655 135.092326,0.418804514 130.317436,0.461766926 Z" id="Fill-30" fill="#2C2C2C"></path>
                <path d="M350.896288,163.959274 C350.913478,164.083519 350.930667,164.208581 350.947039,164.332827 C350.929849,164.208581 350.913478,164.083519 350.896288,163.959274 M185.534884,113.953874 C187.74826,113.759332 189.964091,113.631817 192.182377,113.501033 C196.786755,113.228838 201.39768,113.16835 206.008606,113.196959 C207.937124,113.210038 209.896747,113.344092 211.815442,113.523103 C214.002624,113.724184 216.186531,113.921995 218.370439,114.148416 C222.934707,114.617604 227.489971,115.126029 232.042779,115.705567 C236.31646,116.342323 240.586048,117.003602 244.867914,117.597036 C247.473378,117.961597 250.07966,118.270575 252.694946,118.568109 C255.013097,118.832948 257.347618,118.848478 259.678047,118.855018 C261.727711,118.861557 263.787198,118.682546 265.833588,118.548492 C267.979023,118.405446 270.124459,118.277114 272.273168,118.197826 C276.686003,118.031076 281.09802,117.955058 285.510855,117.928901 C289.154248,117.905196 292.751802,118.054781 296.37473,118.397272 C299.008025,118.799434 301.617581,119.265354 304.228775,119.826092 C306.874348,120.394186 309.42415,121.321938 311.944483,122.288924 C316.101929,124.142793 320.13168,126.198559 324.05993,128.51426 C328.250119,130.986084 332.446036,133.431752 336.387383,136.284486 C337.713444,137.387979 338.997758,138.519264 340.236234,139.724932 C341.367478,140.827607 342.388217,142.01611 343.39586,143.23077 C344.953572,145.362555 346.443344,147.515593 347.596689,149.893416 C349.156038,154.112846 350.108019,158.587306 350.764501,163.034792 C351.032987,165.384823 351.266275,167.739759 351.56423,170.086521 C351.898201,172.705478 352.31239,175.311356 352.689744,177.922139 C353.153866,181.96828 353.407618,186.026682 353.748137,190.087537 C354.081289,194.040494 354.381699,198.008982 354.35878,201.978287 C354.339953,206.288449 354.13204,210.561011 353.65564,214.842564 C353.435449,216.844382 353.227536,218.8462 353.102296,220.854557 C352.98115,222.795888 352.977876,224.743757 352.840359,226.681818 C352.790427,227.372523 352.722487,228.060775 352.643087,228.747393 C352.388516,230.478651 352.112662,232.238518 351.571597,233.901932 C351.519209,234.001655 351.464366,234.101378 351.408704,234.198649 C351.114843,234.486374 350.803791,234.753665 350.484554,235.016869 C349.475275,235.761522 348.44635,236.481653 347.430522,237.215681 C346.141296,238.148337 344.881539,239.118593 343.574305,240.02264 C341.056427,241.75308 338.319994,243.136942 335.531992,244.378576 C333.632943,245.136308 331.715885,245.76816 329.722701,246.261871 C327.538793,246.801357 325.364709,247.350651 323.231552,248.0716 C320.839731,248.880011 318.467556,249.652456 316.002065,250.188672 C313.841078,250.658678 311.676816,251.037135 309.49782,251.373905 C305.203675,251.772797 300.895615,251.986957 296.593285,252.337622 C292.455484,252.676027 288.321777,253.04631 284.170879,253.222051 C275.694732,253.583343 267.212037,253.793416 258.735071,254.148168 C254.655388,254.32064 250.594532,254.218465 246.517304,253.992044 C242.169135,253.749276 237.820147,253.528577 233.468704,253.320957 C229.39475,253.126415 225.321616,252.950674 221.244389,252.918795 C216.84465,252.883647 212.448186,252.947404 208.048448,252.979283 C207.092374,252.989092 206.136301,252.989092 205.183502,252.989092 C201.820055,252.989092 198.456609,252.989092 195.108715,253.327496 C190.811296,253.764806 186.545801,254.285492 182.225462,254.480033 C178.142505,254.665584 174.052999,254.668853 169.966768,254.674575 C168.851076,254.677845 167.731292,254.668853 166.612326,254.659045 C163.354473,254.633705 160.089253,254.607548 156.847771,254.818438 C153.788828,255.018702 150.762626,255.563091 147.733969,256.011028 C139.681016,256.89464 131.569944,256.483486 123.488341,256.843143 C119.222846,257.031146 114.976178,257.488074 110.713957,257.692424 C106.522132,257.890236 102.317209,257.858357 98.1221101,257.871435 C95.9226502,257.877157 93.7608438,257.778252 91.5703881,257.60578 C89.2817055,257.427586 86.9889303,257.089181 84.7059776,256.839874 C80.2358435,256.351067 75.7370598,256.172873 71.2472803,255.935827 C66.8442677,255.702867 62.4412551,255.482986 58.0357868,255.361193 C56.4461511,255.320323 54.857334,255.322775 53.2676983,255.326045 C50.5754677,255.332584 47.8799629,255.339123 45.1975549,255.118425 C43.742981,255.000719 42.2974111,254.796368 40.8493856,254.633705 C39.6068176,254.493112 38.3609754,254.387667 37.1167703,254.2577 C35.8275447,254.030462 34.5546901,253.749276 33.3080294,253.347114 C32.6801969,253.007892 32.0932923,252.622078 31.5153918,252.20602 C30.6878317,251.512046 29.8971066,250.792732 29.1710475,249.991678 C28.3230235,248.768844 27.5748633,247.472444 26.7996908,246.203836 C26.0466193,244.977732 25.3647622,243.714028 24.7393854,242.418446 C24.5781299,241.977049 24.4365197,241.534017 24.3243775,241.077906 C24.2850869,239.9409 24.3554827,238.808798 24.4078703,237.672608 C24.5486619,234.664568 24.1713076,231.650806 23.534471,228.713062 C23.0547972,226.493815 22.3164597,224.319525 21.6133202,222.160766 C20.3789377,218.36802 19.0299575,214.513151 18.3390962,210.56755 C18.1909376,208.438217 18.3235437,206.321145 18.4471456,204.190995 C18.5592878,202.284813 18.6550589,200.375361 18.7385516,198.469179 C18.8916215,194.943723 18.7352773,191.406006 18.5494651,187.890359 C18.3415519,183.985629 18.1565583,180.077629 17.948645,176.172081 C17.7104453,171.715604 17.1841138,167.250953 17.6007588,162.798563 C18.0566944,160.202493 18.7958505,157.688164 19.7871218,155.239227 C20.3502883,153.848825 20.9265517,152.463328 21.5052708,151.077832 C22.5661193,148.600285 23.672807,146.142357 24.7655792,143.67462 C25.5522115,141.905761 26.2782707,140.104206 26.9429381,138.284669 C27.4398016,136.923694 27.8400755,135.532476 28.3172936,134.165779 C28.6921922,133.430117 29.1153857,132.734508 29.588511,132.052794 C31.3230311,129.930818 33.076378,127.808842 34.9410485,125.79558 C35.3748832,125.79885 35.8078993,125.802937 36.241734,125.806206 C40.3631633,125.838085 44.4976896,125.755527 48.6158447,125.608395 C53.2971663,125.442462 57.9686653,125.247921 62.6401642,124.947117 C67.6472711,124.62506 72.6003533,123.967051 77.5624396,123.258364 C79.7749964,122.942029 81.9720007,122.504719 84.1714606,122.118087 C86.0254899,121.791944 87.8860676,121.498497 89.7441897,121.196875 C93.7682108,120.770191 97.7815908,120.36149 101.834261,120.256863 C106.250371,120.144878 110.675485,120.097469 115.08832,119.911919 C119.570732,119.727186 124.053963,119.503218 128.53965,119.407582 C133.071176,119.308676 137.601883,119.25718 142.132591,119.199961 C145.109679,119.158274 148.130969,119.174622 151.098234,118.906514 L156.076692,118.456125 C158.245046,118.261584 160.415857,117.865144 162.574389,117.571696 C165.634151,117.153186 168.678361,116.536865 171.718478,115.99084 C174.525306,115.486503 177.33459,115.005053 180.149604,114.544856 C181.941423,114.32007 183.730787,114.111632 185.534884,113.953874 M160.962652,104.547209 C160.595939,104.595435 160.229226,104.64448 159.862513,104.694341 C160.228408,104.64448 160.595939,104.595435 160.962652,104.547209 M196.147462,100.18555 C189.694786,100.492076 183.226556,100.831298 176.834453,101.839972 C170.956402,102.770994 165.101271,103.832799 159.225677,104.780168 C157.774377,104.975527 156.322259,105.165982 154.861955,105.291862 C152.434936,105.501935 150.033293,105.667867 147.600545,105.764321 C143.088664,105.942514 138.564505,105.930253 134.04935,105.980932 C125.419315,106.079838 116.795828,106.575184 108.169066,106.849831 C104.942318,106.955276 101.722938,107.057451 98.4961902,107.258532 C95.2637126,107.459613 92.0697072,107.833166 88.8527822,108.206719 C85.3550925,108.61215 81.8795039,109.343725 78.4194677,109.991925 C75.5242353,110.537132 72.6240914,111.007956 69.7157621,111.464884 C65.7735965,111.908733 61.8371608,112.314165 57.8786241,112.590447 C53.1882984,112.91659 48.5037025,113.216577 43.8101025,113.465885 C42.2638503,113.547625 40.7167795,113.606478 39.1705273,113.657974 C38.9135007,113.277882 38.618002,112.91986 38.2848497,112.583908 C36.8843004,111.185332 35.1571473,110.601707 33.2163511,110.489723 C30.1254837,110.306625 27.6567189,112.29046 25.5374775,114.266939 C25.0528924,114.308626 24.5674887,114.355218 24.0812664,114.407532 C21.5396501,114.67891 19.0389616,115.09088 16.5644669,115.726002 C15.4929771,116.003919 14.4345842,116.316984 13.3663687,116.603892 C10.4343012,117.392685 8.66949451,120.538049 9.47249792,123.452905 C10.1846416,126.035079 12.6460394,127.654353 15.2171238,127.512942 C14.8340396,128.368762 14.5017058,129.249922 14.1791948,130.097568 C13.7347189,131.269723 13.4015666,132.495826 13.0307607,133.69659 C12.4896952,135.444196 11.8127495,137.143576 11.1104284,138.832329 C9.27113315,143.098351 7.51041925,147.398704 5.74397545,151.69497 C3.96279765,156.02148 3.12868911,160.746883 3.00999849,165.408528 C2.94615113,167.823134 3.20154059,170.249184 3.39390124,172.650712 C3.74506176,177.03444 4.08148826,181.418168 4.40399932,185.805984 C4.71750626,190.067919 5.08831211,194.350289 4.98926684,198.631842 C4.93196792,201.214833 4.82964843,203.794555 4.69867947,206.375094 C4.50631882,210.135961 4.8263742,213.913177 5.83319805,217.553069 C6.54616031,220.113991 7.38763585,222.624233 8.28559176,225.127119 C9.45776391,228.37384 10.6553113,231.596858 11.271684,234.995616 C11.4509477,237.267994 11.2978777,239.551816 11.5540858,241.816838 C11.732531,243.429572 12.0042916,244.882096 12.6182085,246.373038 C13.0373092,247.385799 13.4367645,248.410004 13.9393579,249.381078 C15.1671918,251.74991 16.6152174,253.992044 18.0476903,256.236631 C19.2149511,258.059438 20.6376014,259.745739 22.3516576,261.074017 C23.2758073,261.789244 24.1966828,262.501202 25.1429335,263.18455 C26.4632643,264.144998 27.8957373,264.784206 29.4215256,265.374371 C31.9484079,266.356888 34.5947994,266.794198 37.2641104,267.157942 C37.1085848,267.137507 36.9530591,267.116255 36.7975335,267.09582 C38.8029956,267.373737 40.7879939,267.801238 42.793456,268.072615 C44.4714958,268.299036 46.1470799,268.536083 47.8357608,268.675858 C48.9195289,268.765773 50.0032971,268.787842 51.0870652,268.82626 C52.5743814,268.883478 54.0674275,268.880209 55.5571993,268.880209 C56.2447864,268.880209 56.9290992,268.880209 57.613412,268.883478 C59.8832677,268.899827 62.1506677,268.966853 64.4205235,269.030611 C68.858734,269.151586 73.2936702,269.333867 77.7318807,269.519417 C82.2724107,269.70742 86.7777428,270.183148 91.2928976,270.680946 C95.3627579,271.128065 99.4940099,271.00382 103.576967,270.908184 C107.862108,270.809278 112.130877,270.646615 116.402102,270.313932 C120.699521,269.978797 124.961742,269.71069 129.272258,269.691889 C133.30119,269.669002 137.330123,269.70415 141.359055,269.589714 C145.746515,269.463834 150.061942,268.805825 154.396196,268.172339 C156.368098,267.959814 158.328539,267.824125 160.313537,267.791429 C162.52282,267.75955 164.732103,267.76609 166.942204,267.756281 C171.05381,267.74075 175.168691,267.692523 179.281117,267.578087 C183.568713,267.459564 187.834208,267.139959 192.093155,266.635622 C194.149367,266.392854 196.20558,266.191773 198.270797,266.057719 C200.454704,265.911404 202.657438,265.958813 204.84462,265.958813 C213.529499,265.949004 222.197188,265.850099 230.875518,266.24 C234.955201,266.419011 239.035703,266.616822 243.112111,266.836703 C247.332586,267.063941 251.566158,267.377006 255.793181,267.245404 C260.199467,267.108081 264.60248,266.85959 269.012041,266.744337 C273.152297,266.632353 277.286823,266.44435 281.424624,266.25553 C285.437185,266.074067 289.434194,265.837838 293.431203,265.441398 C295.640486,265.221516 297.846494,264.985287 300.059869,264.812815 C302.262603,264.640343 304.484983,264.541438 306.681169,264.305208 C311.429612,263.791062 316.216527,263.178011 320.839731,261.942099 C322.860746,261.402613 324.808091,260.690656 326.780811,260.004038 C328.632384,259.359107 330.502785,258.809813 332.401834,258.321007 C336.817944,257.188087 341.028596,255.540204 345.077174,253.436211 C349.032436,251.382896 352.456456,248.624164 355.948416,245.885049 C356.770246,245.240118 357.588802,244.591918 358.390987,243.92737 C359.816911,242.742955 361.077487,241.433476 361.98854,239.798672 C363.107506,237.787045 363.795093,235.580876 364.21092,233.32975 C365.058125,228.731863 365.175997,224.076757 365.751442,219.45026 C366.269588,215.296222 366.720612,211.160984 366.874501,206.975067 C367.021022,202.904404 367.030845,198.826384 366.947352,194.752451 C366.799194,187.457136 365.946258,180.211683 364.977907,172.986664 C364.40901,168.597214 364.009555,164.186512 363.36044,159.808505 C362.781721,155.900505 361.847749,152.004766 360.642016,148.240628 C359.839831,145.743465 358.771615,143.361554 357.489757,141.07528 C356.955239,140.117285 356.300395,139.219777 355.683203,138.319817 C354.838454,137.087175 353.937224,135.867611 352.999977,134.711804 C351.596153,132.990355 350.157951,131.35882 348.584686,129.794312 C346.733112,127.951887 344.651525,126.355501 342.566663,124.790993 C339.203216,122.271759 335.51644,120.174305 331.893511,118.050694 C328.043842,115.793029 324.142605,113.692305 320.111216,111.782853 C315.893198,109.784305 311.451713,108.104543 306.885808,107.1114 C302.044868,106.054498 297.117979,105.282053 292.168171,104.975527 C288.541968,104.751559 284.910035,104.777716 281.277284,104.786708 C277.741122,104.793247 274.195138,104.825125 270.658976,104.975527 C267.010672,105.131651 263.329626,105.486404 259.678047,105.431638 C257.564536,105.399759 255.499319,105.294314 253.392356,105.131651 C251.768341,105.007406 250.156604,104.790795 248.539138,104.601975 C244.513479,104.042054 240.492732,103.454342 236.467893,102.893604 C231.725998,102.229056 226.97428,101.721449 222.213559,101.239999 C217.791719,100.79615 213.362513,100.37764 208.925121,100.141411 C207.076003,100.043322 205.22443,100 203.372856,100 C200.963846,100 198.554836,100.071931 196.147462,100.18555" id="Fill-32" fill="#2C2C2C"></path>
                <path d="M11.8960033,236.142961 C10.1660983,236.529091 8.95796288,237.606646 8.4205566,238.964112 C8.25349156,239.386316 8.11193891,239.81186 7.94158194,240.23206 C7.74324364,240.717728 7.69221884,241.214753 7.76299517,241.698417 C7.60827483,242.266923 7.45602343,242.836096 7.3309304,243.40527 C6.94495253,245.158886 6.61411437,246.923191 6.35405252,248.694844 C5.94750015,251.470568 5.54753162,254.246291 5.10970598,257.017339 C4.12953619,262.484612 3.21026695,267.944538 3.07118324,273.475276 C3.00369884,276.202232 2.90082628,278.931861 3.21931974,281.648128 C3.5501579,284.447902 4.21101126,287.20826 4.75253244,289.983984 C5.24055988,293.477187 5.33849457,297.003792 6.53346228,300.408146 C7.01243694,301.767616 7.62720338,303.044248 8.33414365,304.340922 C8.99664296,305.556762 10.1117816,306.684421 11.1372153,307.704525 C12.2210806,308.78208 13.5255047,309.651205 14.9887641,310.384718 C16.1779709,310.979277 17.5507024,311.392129 18.8139775,311.882473 C20.2352649,312.430269 21.6878255,312.981406 23.1634296,313.427659 C28.5448992,315.063699 34.3288062,315.099774 39.9933811,314.935435 C42.1273696,314.873307 44.2465444,314.658865 46.3681882,314.468472 C48.3935433,314.288768 50.4279511,314.176537 52.45989,314.042928 C55.6333029,313.839843 58.8058928,313.719595 61.9373336,313.205201 C64.0038377,312.866502 65.9559475,312.308017 67.877607,311.600558 C71.9925096,310.087438 74.7931123,307.195475 77.1237931,304.155874 C79.2232164,301.420901 80.8370812,298.39132 82.0229961,295.322325 C83.296147,292.021519 83.7265658,288.492909 83.9487705,285.053818 C84.1059598,282.569361 83.8524818,280.100938 83.8393141,277.616482 C83.8261464,275.145386 81.7596423,272.922135 78.817487,272.264112 C75.3428632,271.486508 71.2403054,273.193361 70.4049802,276.142108 C69.8264248,278.190332 69.7490647,280.254588 69.7202604,282.342226 C69.691456,284.610904 69.7194374,286.858205 69.437978,289.114858 C69.016612,291.189804 68.3615195,293.205293 67.4315515,295.167339 C66.4110557,296.981079 65.2547681,298.752732 63.8557012,300.392781 C63.5042885,300.72079 63.1388852,301.034103 62.7479694,301.333387 C62.4146623,301.507747 62.0747714,301.668077 61.7225357,301.818387 C60.2452857,302.23057 58.7375854,302.502464 57.1986118,302.714902 C52.6730419,303.070302 48.1375963,303.319482 43.6194333,303.73033 C41.2467805,303.946776 38.8551991,304.053663 36.4693786,304.101094 C35.1995196,304.127148 33.9428284,304.12982 32.6729694,304.111115 C31.8779703,304.100426 31.0829711,304.036962 30.2912638,303.959469 C28.3860639,303.677554 26.6026651,303.210591 24.7904621,302.657451 C25.2710827,302.822458 25.7484114,302.987464 26.2265631,303.150467 C24.5575586,302.583298 22.7511163,302.086273 21.1973291,301.31869 C21.0138045,301.17172 20.8376866,301.020742 20.6665067,300.865088 C20.2887586,300.412822 19.9414608,299.951204 19.6262593,299.466871 C18.9884494,298.019888 18.5514468,296.516788 18.1819285,295.013021 C17.9292735,293.065004 17.78196,291.110975 17.4996777,289.163626 C17.1507339,286.749314 16.6059208,284.35972 16.134353,281.961441 C15.7508441,278.622556 15.8133906,275.28768 15.921201,271.935434 C16.0331264,268.376094 16.3129398,264.834792 16.7211381,261.288813 C17.1104079,257.901161 17.4289013,254.508833 17.6469912,251.11116 C17.7630314,249.316125 17.8626121,247.520422 18.0263852,245.730732 C18.1037454,244.858934 18.1843974,243.987136 18.2642266,243.116007 C18.2996147,242.74257 18.3481706,242.366461 18.3670991,241.99102 C18.3835587,241.71445 18.3959034,241.43788 18.412363,241.158637 C18.4477512,240.550717 18.3481706,240.041667 18.2387142,239.407693 C18.0905777,238.556605 17.5251901,237.752948 16.7375977,237.18177 C15.7203938,236.444917 14.4941528,236 13.1823219,236 C12.7609558,236 12.330537,236.045427 11.8960033,236.142961" id="Fill-34" fill="#2C2C2C"></path>
                <path d="M358.263499,240.389199 C358.652784,241.815818 358.984702,243.247332 359.227288,244.701684 C359.669845,248.736023 359.468236,252.783413 359.204341,256.82754 C359.012566,259.774581 358.874882,262.715097 358.82325,265.665401 C358.778995,268.313905 358.647867,291.101477 358.238092,292.764642 C357.862739,294.296484 357.480829,295.855243 356.943205,297.344669 C356.812077,297.594267 356.676852,297.835707 356.531791,298.075516 C356.445739,298.164425 356.359686,298.251702 356.270355,298.337349 C355.992528,298.507825 355.711423,298.666066 355.420483,298.81452 C352.874144,299.711764 350.206512,300.322707 347.536421,300.739518 C346.129255,300.861869 319.869265,299.172602 317.410618,298.64649 C314.805271,298.087751 312.185173,297.59182 309.637195,296.805507 C309.472466,296.281842 309.338879,295.754915 309.22906,295.217384 C309.061872,292.820924 309.251188,289.630811 309.530654,287.249849 C310.408391,281.761158 311.569692,276.227605 311.344316,270.652451 C311.225481,267.647497 309.372481,264.986758 306.385225,264.171081 C304.643683,263.69391 302.742329,263.938613 301.180269,264.847277 C299.79687,265.653166 298.356103,267.22987 298.077456,268.864487 C297.261185,273.63783 296.848132,278.458481 296.441636,283.279133 C296.320343,284.697596 296.19823,286.11198 296.102343,287.532889 C295.875328,290.891032 296.009734,295.059142 296.669471,298.36916 C297.376742,301.937747 299.370704,305.270604 302.37681,307.357922 C304.115893,308.561861 306.237706,309.123047 308.251338,309.706256 C310.364955,310.318014 312.503158,310.747876 314.651196,311.219337 C316.639422,311.655725 318.589129,312.223436 320.557686,312.738944 C322.693431,313.303392 348.310075,312.875978 351.566144,312.185099 C354.629618,311.535004 357.805371,310.607579 360.635273,309.250293 C362.063747,308.565124 363.315199,307.647487 364.490432,306.589554 C365.101816,306.038972 365.805808,305.108284 366.222139,304.467978 C366.865485,303.483455 367.332628,302.44102 367.758794,301.345566 C368.702914,298.917295 369.16432,296.282658 369.730629,293.745902 C370.204328,291.624326 369.829794,267.322857 369.78226,262.871707 C369.752757,260.042123 369.903554,257.193779 369.977313,254.364195 C370.124832,248.746627 369.560982,243.123349 368.049734,237.706437 C367.434252,235.488611 365.34768,234.000816 363.121785,234 C362.686605,234 362.246507,234.057097 361.810507,234.176186 C359.137138,234.908664 357.539837,237.734986 358.263499,240.389199 Z" id="Fill-36" fill="#2C2C2C"></path>
                <path d="M300,243 C300.053,243.037 300.105,243.076 300.157,243.115 C300.157,243.118 300.158,243.12 300.159,243.123 C300.105,243.082 300.053,243.041 300,243" id="Path" fill="#2C2C2C"></path>
                <path d="M135.634742,178.872115 C131.228112,179.20555 126.837058,179.955373 122.552584,181.016672 C120.714506,181.470469 118.846915,181.893362 117.034252,182.448816 C115.010892,183.068517 113.025243,183.726441 111.033037,184.444546 C107.259321,185.80431 103.654492,187.63251 99.9898155,189.259835 C98.3952301,189.894175 96.7965456,190.521195 95.2093388,191.175867 C93.3007553,191.963912 91.4249654,192.821084 89.5352383,193.647352 C87.3520091,194.502897 85.1573021,195.342177 83.1486984,196.557182 C80.9072607,197.913693 78.8256914,199.533699 76.7859339,201.169971 C73.0966618,204.127783 69.451661,208.711294 66.6109215,212.447392 C65.3754253,214.077158 65.0294536,218.206872 63.9407084,219.938294 C63.3479653,220.881671 62.787196,221.834807 62.2305258,222.797703 C61.560718,223.959845 61.0614365,225.224459 60.5711732,226.469554 C60.2415983,227.308834 60.1391185,228.344109 60.0522156,229.21104 C59.9628533,230.117007 59.9628533,231.340144 60.2571752,232.175358 C60.6613554,233.322049 61.0294628,234.471993 61.9616189,235.333232 C62.8544227,236.155434 63.648846,236.705195 64.8179353,237.096371 C65.823057,237.433059 66.9347576,237.509505 67.9948085,237.468029 C68.9909119,237.429806 69.983736,237.436312 70.9798395,237.442818 C72.8884229,237.45827 74.7904476,237.506252 76.699031,237.45827 C78.6715618,237.410288 80.6449125,237.315137 82.6108846,237.134594 C84.6826158,236.946732 86.7322114,235.94968 88.8137807,235.955373 C93.1089132,235.971638 97.3843696,236.606791 101.668844,236.33679 C106.011527,236.060283 110.376346,236.181458 114.725588,236.118024 C119.045316,236.053777 123.362584,235.939921 127.676573,235.730101 C131.893821,235.523534 149.536739,235.621938 154.122914,235.885433 C158.551681,236.139982 232.009187,236.097692 236.103459,236.743418 C240.695373,237.461523 245.294665,237.995019 249.928391,238.338213 C254.383392,238.671648 258.837573,238.976619 263.295854,239.256379 C267.590166,239.523127 271.882019,239.632103 276.164035,240.060689 C278.595675,240.420962 280.975665,240.860933 283.288429,241.722171 C283.656536,241.884823 284.023004,242.048287 284.390291,242.214191 C284.85186,242.407746 285.312609,242.601301 285.777458,242.795669 C286.804715,243.06811 287.832792,243.06811 288.860869,242.795669 C290.311983,242.397987 291.570435,241.435905 292.329605,240.149334 C293.110911,238.821287 293.325708,237.201281 292.91251,235.714649 C292.543583,234.386602 291.548299,232.877198 290.248036,232.273762 C289.351133,231.860628 288.460788,231.441801 287.563885,231.035173 C285.821729,230.240622 284.076293,229.694114 282.21936,229.265528 C280.102537,228.772695 277.886515,228.515706 275.73116,228.277422 C271.974661,227.861035 268.205045,227.695944 264.435429,227.470672 C260.769112,227.251093 257.111814,226.911152 253.447957,226.625699 C249.980041,226.358138 246.521143,226.011691 243.067165,225.59693 C238.841719,224.917048 155.890486,224.773102 151.381375,224.427468 C147.087063,224.096473 142.79521,223.686591 138.481221,223.724814 C134.139357,223.766291 129.808972,224.084274 125.469568,224.227407 C121.082614,224.37298 116.69156,224.474637 112.304606,224.554336 C107.942246,224.634035 103.597104,224.709668 99.2413032,224.976416 C94.9117375,225.240724 90.5723337,225.174037 86.2427679,225.402562 C84.7596806,225.481448 83.2798726,225.672563 81.8008844,225.80919 C80.1029994,225.964522 78.4026549,226.059673 76.699031,226.142625 C75.9259236,226.181661 75.1528161,226.206059 74.3797087,226.219884 C74.5158018,226.033648 74.6527148,225.849039 74.7888079,225.663617 C76.2407415,223.859815 76.7859339,219.938294 83.1486984,213.824235 C85.8205513,211.916336 89.7410177,208.61045 92.7235892,207.220596 C95.0855432,206.253634 97.4261813,205.246823 99.7602608,204.214801 C102.007437,203.309647 104.271831,202.446783 106.498511,201.490393 C108.613694,200.584426 110.707561,199.635356 112.806347,198.699299 C114.354201,198.09017 115.904515,197.511131 117.476145,196.960557 C119.167472,196.36688 120.921925,195.925282 122.658343,195.473925 C124.384102,195.022568 122.314717,195.623564 127.865135,194.200366 C133.415553,192.777168 150.013885,191.620718 152.246305,191.410898 C154.465607,191.204331 156.690648,191.14415 158.916509,191.099421 C163.092765,191.017282 167.307553,191.340958 171.473971,191.610959 C175.966684,191.899665 180.4471,192.274576 184.920958,192.777168 C193.557954,193.742503 219.680459,196.007421 224.08709,196.375826 C226.169479,196.553929 228.24449,196.82393 230.326059,197.008539 C232.433043,197.198841 234.543307,197.293992 236.65685,197.363932 C238.106324,197.410288 239.549239,197.485921 240.992974,197.587578 C242.615434,197.856765 244.2051,198.199146 245.803785,198.657009 C247.304909,199.088848 248.759302,199.63129 250.205496,200.206262 C252.26739,201.167531 254.277633,202.184914 256.260002,203.301515 C258.34731,204.47667 260.346076,205.820982 262.344021,207.142523 C264.182919,208.355901 265.989022,209.620514 267.810703,210.859103 C269.264276,211.848023 270.738345,212.799532 272.166503,213.824235 C273.006837,214.552912 273.748791,215.34909 274.46287,216.189997 C275.677051,217.958829 276.721525,219.820372 277.902092,221.612788 C278.565341,222.613093 279.244167,223.588187 279.980381,224.538071 C280.627234,225.377351 281.245392,226.187354 281.988165,226.937176 C282.503844,227.45766 283.054775,227.924469 283.545038,228.467724 C285.379836,230.491918 288.710839,230.75216 291.000647,229.424113 C293.966002,227.70245 294.795678,224.001322 293.206832,221.076039 C292.210728,219.24296 290.962115,217.549761 289.882388,215.763851 C288.793643,213.960049 287.852468,212.034258 286.644847,210.300396 C285.213409,208.241232 283.692609,206.014537 281.738935,204.384772 C279.862325,202.821694 277.870118,201.414761 275.859055,200.029786 C272.576422,197.764054 269.347899,195.410491 265.943931,193.320423 C263.91975,192.077768 261.883272,190.892854 259.76645,189.812849 C257.466804,188.637694 255.071236,187.674799 252.676489,186.709464 C248.269858,184.93006 243.3951,184.151774 238.672012,183.881773 C236.55191,183.761411 234.431809,183.663007 232.318266,183.462133 C230.16865,183.262072 228.032971,182.957101 225.894013,182.6871 C221.749731,182.156857 217.570196,182.029989 213.416895,181.629867 C208.859414,181.188269 204.306033,180.730406 199.748552,180.279048 C191.226334,179.434075 182.723791,178.220697 174.176978,177.680695 C169.6031,177.391989 165.033322,177.127681 160.453705,177.017078 C159.992956,177.005693 159.531387,177 159.070638,177 C155.140334,177 151.211669,177.391176 147.310879,177.820575 C143.423206,178.245908 139.532253,178.576904 135.634742,178.872115 Z" id="Fill-42" fill="#2C2C2C" transform="translate(177.000000, 210.000000) scale(1, -1) translate(-177.000000, -210.000000) "></path>
                <path d="M317.914485,144.904114 C318.585833,145.052445 319.236155,145.243694 319.880469,145.473343 C320.677977,145.875418 321.434182,146.325681 322.170112,146.827898 C323.765127,148.202781 325.116084,149.771173 326.440758,151.402812 C327.398969,152.727248 328.263311,154.090838 328.980467,155.558335 C329.525656,157.074773 329.904886,158.623588 330.170721,160.213062 C330.399761,162.397365 330.474856,164.596727 330.306643,166.78856 C330.100132,167.874312 329.814772,168.926181 329.442301,169.966002 C328.979716,170.898906 328.457807,171.784373 327.870565,172.639722 C327.269806,173.32867 326.633001,173.971688 325.947385,174.574047 C325.154383,175.112405 324.332094,175.584503 323.469254,176.008413 C322.069485,176.520418 320.64118,176.906681 319.173826,177.174731 C317.677185,177.304238 316.20157,177.287673 314.706431,177.152895 C313.654352,176.963152 312.622548,176.716938 311.613273,176.372088 C311.337674,176.226768 311.068835,176.073167 310.80375,175.909024 C310.603246,175.720034 310.410253,175.524268 310.223266,175.320219 C309.723885,174.538658 309.295093,173.726227 308.903098,172.888948 C308.507348,171.834067 308.143889,170.779187 307.80446,169.695694 C307.479299,168.659637 307.292313,167.573885 307.122598,166.495663 C306.984424,165.06732 306.862019,163.641236 306.816211,162.20461 C306.75989,160.474335 306.663769,158.72373 306.723844,156.988936 C306.759139,156.848135 306.795936,156.707334 306.837238,156.568038 C307.397446,155.539511 308.074051,154.582513 308.5877,153.528386 C309.144904,152.390681 309.618752,151.222105 310.088846,150.049011 C310.649805,149.031025 310.932162,147.936238 310.934415,146.763144 C310.934415,146.71872 310.934415,146.673543 310.932913,146.629119 C311.202504,146.481541 311.475849,146.342246 311.755202,146.208221 C313.227813,145.649533 314.733465,145.213576 316.278918,144.910138 C316.825609,144.873996 317.367794,144.873244 317.914485,144.904114 M314.906184,133.316238 C313.612299,133.518781 312.371731,133.883961 311.140175,134.328201 C309.614247,134.877853 308.112349,135.533671 306.666021,136.26629 C305.176139,137.02225 303.841703,138.057555 302.577105,139.145565 C302.055195,139.595828 301.59186,140.106327 301.168325,140.652968 C300.475199,140.976736 299.848907,141.415704 299.385572,141.969122 C298.446886,143.086497 297.572781,144.230979 296.804561,145.466567 C296.293915,146.281257 295.898165,147.190066 295.475381,148.051439 C294.903158,149.21625 294.410536,150.410426 293.911906,151.610626 C293.307392,153.063063 293.193248,154.695456 293.040805,156.239753 C292.917649,157.501694 293.105387,158.850978 293.181232,160.112919 C293.442563,164.536491 293.908902,168.936722 294.927188,173.254128 C295.132198,174.125289 295.434079,174.992686 295.739715,175.833729 C296.607812,178.231117 297.511204,180.657117 298.922237,182.789467 C300.623887,185.363045 302.964594,187.481088 305.791917,188.727971 C307.358396,189.416166 308.855037,189.945489 310.520642,190.298621 C312.422045,190.701449 314.393285,190.89571 316.332235,190.983804 C317.578811,191.042534 318.825386,190.93411 320.062949,190.77825 C321.676739,190.577965 323.257486,190.343045 324.835981,189.954524 C326.528619,189.536638 328.147665,188.88082 329.73442,188.175307 C331.113162,187.560148 332.37776,186.842588 333.583033,185.936791 C334.900197,184.951935 336.111478,183.945996 337.226637,182.739772 C338.382347,181.486866 339.394627,180.066052 340.301022,178.627921 C341.215678,177.177742 341.83521,175.563421 342.483279,173.986747 C343.254504,172.124706 343.551129,170.169298 343.808704,168.180762 C344.222477,165.019131 343.897316,161.880842 343.474532,158.739542 C343.280787,157.290116 343.017204,155.869302 342.647737,154.457524 C342.15136,152.566118 341.347845,150.745488 340.503027,148.995636 C339.693504,147.319573 338.517518,145.830994 337.382084,144.37178 C336.815868,143.642926 336.232381,142.93666 335.612848,142.251477 C333.914953,140.369106 332.125441,138.680996 330.0746,137.172087 C327.422999,135.218939 324.260754,133.801137 320.996379,133.307203 C320.059946,133.166402 319.156554,133.048189 318.220872,133.007529 C318.105977,133.002259 317.988829,133 317.871681,133 C316.884934,133 315.858387,133.166402 314.906184,133.316238" id="Fill-44" fill="#2C2C2C"></path>
                <path d="M58.8237785,139.949337 C58.8739061,139.961278 58.9247602,139.973882 58.9748878,139.98715 C59.1245442,140.064768 59.2712946,140.145038 59.416592,140.22929 C59.7282551,140.494648 60.0217559,140.771947 60.303633,141.063177 C60.8237979,141.771683 61.271314,142.506062 61.6745144,143.27361 C62.1075008,144.371529 62.4344201,145.486033 62.6727079,146.631053 C62.7671513,147.683861 62.7736896,148.732689 62.6923231,149.786823 C62.4162579,151.087078 62.0021602,152.342885 61.4921661,153.584761 C59.9193212,156.662914 57.7921666,159.509543 55.6599265,162.277891 C54.3704116,163.9523 53.0968794,165.63666 51.7565105,167.276573 C50.2861003,168.926437 48.7110759,170.46684 46.9304557,171.836751 C44.8665054,173.183443 42.6550782,174.269421 40.3463017,175.2267 C39.7970773,175.418422 39.2500324,175.592894 38.6819194,175.729554 C38.6623042,175.730217 38.6426891,175.730217 38.6230739,175.730217 C38.4828619,175.697048 38.3441028,175.661224 38.2053438,175.623411 C38.0055598,175.521248 37.8101347,175.415768 37.6183421,175.304318 C37.4323613,175.143776 37.252919,174.979254 37.0778355,174.809425 C36.8693337,174.510897 36.6768146,174.205735 36.4959193,173.889959 C35.9554127,172.466977 35.6241346,170.998883 35.3705905,169.511551 C35.1039697,167.186351 34.8111953,164.834615 34.9724755,162.497474 C35.1039697,161.927618 35.2703353,161.369703 35.4614014,160.819085 C35.8900289,160.37859 36.2176746,159.847874 36.4022024,159.251482 C36.6862589,158.334006 36.9841187,157.424492 37.3299266,156.528908 C37.7171443,155.771311 38.1348745,155.028972 38.6383302,154.332407 C39.4272953,153.602009 39.9750667,152.740922 40.2794649,151.753127 C40.4414715,151.546147 40.6056576,151.339831 40.7727497,151.135506 C42.5497375,149.138023 44.5410391,147.368748 46.7081506,145.718884 C47.3656215,145.261805 48.0230925,144.805389 48.6820164,144.347647 C50.6675061,142.967785 52.8614976,141.802863 55.1303173,140.84492 C56.1866297,140.474082 57.2589249,140.16494 58.3660915,139.957298 C58.5193803,139.951327 58.6712161,139.949337 58.8237785,139.949337 M54.4910085,129.872365 C50.8752814,131.0751 47.7281387,132.912041 44.7175755,135.068075 C41.1185576,137.649346 37.8014168,140.577572 35.0087999,143.889241 C34.8918354,144.028554 34.774871,144.167867 34.6593595,144.308506 C33.3255289,144.191085 31.8405889,144.406025 30.7944473,145.086669 C29.6342472,145.842939 28.4675086,146.607834 27.4744006,147.545875 C26.7907761,148.188041 26.2313809,148.944975 25.6552765,149.665422 C25.4366038,149.937414 25.201222,150.256507 25.0196001,150.549064 C24.4972558,151.404181 24.0352099,152.256644 23.6203857,153.158861 C22.6476193,155.260497 21.6966475,157.310388 21.3559249,159.585833 C21.1401582,161.02142 20.9614424,162.38138 21.0072111,163.827582 C21.0297322,164.514196 21.1089193,165.198819 21.1859269,165.88278 C21.5004959,168.769212 21.9036963,171.702745 22.6192863,174.532789 C23.2208177,176.906417 24.1884987,179.326482 25.7235663,181.332589 C26.5837272,182.457044 27.5310666,183.493931 28.6861813,184.366959 C29.4301042,184.929518 30.1958218,185.450283 31.0051286,185.927264 C32.0011426,186.517686 33.1584368,186.870612 34.2510737,187.27462 C35.7469109,187.829218 37.4694122,187.955926 39.0669576,187.99772 C40.1254496,188.026246 41.1926593,187.780127 42.2395275,187.647448 C42.8388795,187.56983 43.4200693,187.391377 43.9932677,187.232826 C45.6678208,186.769112 47.2769901,186.095766 48.8774415,185.462887 C50.2258018,184.934825 51.5138637,184.276074 52.7626953,183.574201 C54.1328503,182.80201 55.3933056,181.848047 56.6559405,180.94384 C57.6577664,180.226046 58.5687814,179.422675 59.4514634,178.588124 C61.5459262,176.603245 63.4188103,174.353672 65.1187905,172.076237 C66.6422343,170.034307 68.1605926,167.989723 69.6048493,165.898038 C71.0011578,163.876673 72.2870402,161.754472 73.3201051,159.554654 C74.0008236,158.103145 74.6110729,156.664904 75.0789307,155.143739 C75.601275,153.451418 75.8395629,151.660915 75.9674246,149.911542 C76.0894745,148.20927 75.8511867,146.434024 75.5417031,144.759615 C75.2496552,143.158179 74.7672677,141.63237 74.0858226,140.131771 C73.2830542,138.364486 72.4257993,136.72391 71.1486347,135.202745 C70.4475745,134.36554 69.7668559,133.570129 68.9611816,132.821156 C68.1664045,132.080144 67.1987235,131.476454 66.2760847,130.882715 C65.3113096,130.261114 64.1591008,129.916149 63.0780878,129.509487 C62.7598864,129.408651 62.4336936,129.333688 62.1016889,129.279289 C61.3977228,129.191058 60.6944831,129.10548 59.9934229,129.019902 C59.7762032,129.006634 59.5582571,129 59.3395844,129 C57.6933643,129 56.0217171,129.364204 54.4910085,129.872365" id="Fill-46" fill="#2C2C2C" transform="translate(48.500000, 158.500000) rotate(-10.000000) translate(-48.500000, -158.500000) "></path>
                <path d="M234.30017,28.4503391 C235.406288,28.6745051 236.476724,28.9865076 237.54368,29.3890915 C240.071825,30.6645504 242.332796,32.3581476 244.577232,34.1167072 C246.19072,35.5166011 247.694552,36.9997568 249.046088,38.6723098 C249.893734,39.9550884 250.639559,41.2863601 251.291394,42.6917438 C251.866645,44.3322732 252.29569,45.9975065 252.602896,47.7231274 C252.919676,51.3344878 252.725605,54.9476781 252.350517,58.5562936 C251.732622,62.841982 251.09036,67.0929018 249.692701,71.1901077 C249.133985,72.38322 248.490853,73.5159446 247.769396,74.6111557 C246.931322,75.62951 246.03233,76.5710073 245.061104,77.4548619 C243.928008,78.2819888 242.747917,79.0057248 241.505166,79.6425393 C239.894289,80.2528198 238.247731,80.6901723 236.561141,81.0104095 C234.093045,81.2428102 231.639743,81.2007219 229.175998,80.9362975 C224.193681,80.0542728 219.274894,78.4164884 214.576287,76.4337628 C212.874031,75.6240202 211.232695,74.7282711 209.681867,73.6367198 C209.392066,73.3613158 209.110098,73.0785921 208.835961,72.7858038 C208.716734,72.5735323 208.602728,72.3585159 208.493073,72.1389247 C208.018774,70.6676636 207.6872,69.1744434 207.435691,67.6446247 C207.100636,63.8996796 207.217252,60.169374 207.602783,56.4354085 C207.956115,54.2138775 208.311186,51.9960063 208.742842,49.7909446 C209.298947,46.9399187 209.846349,43.9928217 210.764488,41.2268875 C210.841072,41.0814083 210.919397,40.9377591 211.000332,40.7959398 C211.059511,40.7337222 211.118689,40.6715047 211.179608,40.6111172 C211.721789,40.2670909 212.279634,39.9624081 212.851404,39.6705348 C213.853089,39.2533115 214.866958,38.8699419 215.905195,38.5863032 C219.412398,37.6201019 221.897899,34.1002379 221.916175,30.3269289 C224.421693,29.5684243 226.989001,29.0212762 229.568492,28.6095427 C231.147168,28.427465 232.715401,28.3423734 234.30017,28.4503391 M231.695655,19.1703289 C229.382874,19.475943 227.140127,19.9152123 224.897381,20.538665 C223.338697,20.9714145 221.811773,21.4139437 220.288106,21.964864 C217.685413,22.9053404 215.077833,24.0047361 212.724334,25.4839083 C211.702313,25.6159336 210.688435,25.8058218 209.691659,26.0649825 C206.46598,26.9060325 203.548944,28.6345857 201.118895,30.8879802 C199.833836,32.0786526 198.793084,33.6295422 197.995012,35.1828767 C197.18391,36.7590303 196.6049,38.4712842 196.114656,40.1713134 C195.720506,41.5404645 195.430594,42.9413994 195.112993,44.3292948 C194.632521,46.4205101 194.327136,48.5598086 194.005464,50.6771029 C193.210649,55.9328501 192.676429,61.1470338 193.222865,66.457384 C193.414239,68.3195925 193.70008,70.1818009 194.068984,72.0154854 C194.438704,73.84591 195.154526,75.5622386 195.892336,77.2687876 C197.511282,81.0119489 200.571646,83.667124 203.911334,85.8667304 C205.031079,86.605909 206.268905,87.1788335 207.48393,87.7419784 C209.014112,88.451818 210.607813,89.1494331 212.204773,89.7060582 C213.489832,90.1551071 214.771634,90.5976363 216.057508,91.0434254 C218.318984,91.8298723 220.660268,92.4027968 222.995037,92.9088937 C226.465838,93.6635567 230.082409,94.0775619 233.63546,93.9879151 C237.0745,93.9023432 240.577061,93.3326786 243.856487,92.2944057 C247.565895,91.1232925 250.833105,89.1999612 253.845422,86.7803127 C256.313746,84.8007485 258.308112,82.3908796 260.061428,79.7609686 C261.855463,77.0707497 262.95892,73.929037 263.814812,70.8313327 C264.858006,67.0433481 265.154433,63.0288015 265.650378,59.1356857 C265.974493,56.6141658 266.038828,54.0388578 265.981008,51.4985936 C265.910973,48.2574544 265.395484,44.9372631 264.375091,41.8583031 C263.792824,40.1110056 263.00371,38.4044565 262.151075,36.7745148 C261.330201,35.2114006 260.238959,33.8169855 259.164004,32.4290901 C257.099603,29.7649503 254.570202,27.6859596 251.854312,25.7121001 C248.548827,23.3120109 244.906196,21.3316317 241.025773,20.0423477 C239.441029,19.5166915 237.752047,19.2461212 236.094826,19.0904618 C235.469397,19.0301539 234.85537,19 234.244601,19 C233.398481,19 232.557247,19.057048 231.695655,19.1703289" id="Fill-48" fill="#2C2C2C"></path>
                <path d="M255.344735,101.976576 C255.331678,102.115984 255.312908,102.255393 255.288426,102.39399 C255.307195,102.254582 255.326781,102.115174 255.344735,101.976576 Z M255.281897,101.894715 C255.232116,102.036554 255.174175,102.175152 255.10644,102.311318 C255.164382,102.17191 255.223955,102.033312 255.281897,101.894715 Z M255.460618,101.130401 L255.448377,101.219558 L255.460618,101.130401 Z M251.679728,94.8805407 C251.723796,94.936466 251.766232,94.9923914 251.809484,95.0483168 C251.766232,94.9923914 251.72298,94.936466 251.679728,94.8805407 Z M233.681123,78.1920914 C231.427115,78.4109298 229.20575,78.8064598 227.018661,79.3989443 C224.831571,79.9906183 222.708952,80.8927186 220.665492,81.8556072 C217.075564,83.546336 213.795746,86.0791871 210.904381,88.7514463 C207.936304,91.4901675 205.462771,94.7476167 203.301796,98.1388003 C202.887228,98.7872102 202.53305,99.4810088 202.15031,100.145629 C201.857338,100.661925 201.621491,101.216316 201.38238,101.756927 C200.865803,102.919202 200.410431,104.011773 200.177033,105.252667 C199.862027,106.923944 199.909359,108.459865 200.798884,109.969849 C201.60517,111.337994 202.94109,112.360861 204.481029,112.781516 C206.071566,113.218383 207.805732,112.993871 209.230604,112.163906 C210.659557,111.333941 211.456049,110.115741 212.017511,108.625209 C212.641811,107.419977 213.375465,106.276344 214.095246,105.122985 C215.054954,103.587064 216.057098,102.09248 217.134322,100.639231 C218.866856,98.5189306 220.791168,96.5745115 222.917052,94.8432571 C224.766285,93.5002382 226.69631,92.3347214 228.775677,91.3742643 C230.910538,90.5661835 233.087834,89.9720779 235.341026,89.5935686 C237.552598,89.3633831 239.765802,89.3196155 241.979006,89.5319697 C243.423465,89.7945757 244.820591,90.1617378 246.193234,90.6642555 C247.146413,91.1351631 248.040019,91.6692908 248.909958,92.277175 C250.127547,93.2903155 251.222724,94.3934228 252.240373,95.6164859 C253.213139,96.9173582 254.101848,98.2619982 254.826525,99.7192994 C255.04605,100.302058 255.230484,100.885627 255.368401,101.49189 C255.368401,101.529984 255.367585,101.568078 255.366769,101.606172 C255.289242,101.759359 255.210898,101.913356 255.135003,102.067354 C254.548243,103.236113 254.296891,104.425945 254.653517,105.714659 C254.982396,106.895576 255.778889,107.921684 256.843871,108.539295 C258.98934,109.786673 262.173677,109.137453 263.359439,106.842082 C263.770742,106.046969 264.309354,105.182963 264.536224,104.315715 C264.816139,103.245028 264.972826,102.150026 264.998124,101.042056 C265.026687,99.921117 264.723922,98.7304744 264.443191,97.6508719 C264.163276,96.5745115 263.68179,95.488425 263.219073,94.4817686 C261.666893,91.0849114 259.390851,87.8485356 256.722275,85.2208545 C255.288426,83.808942 253.624442,82.5583215 251.895988,81.5200551 C250.879155,80.9089288 249.721956,80.4493683 248.622699,80.0157442 C247.701347,79.6485821 246.77673,79.3381559 245.823551,79.0625817 C243.761321,78.4676656 241.574231,78.2431537 239.441819,78.0786197 C238.747337,78.0243154 238.052038,78 237.355923,78 C236.128542,78 234.901976,78.0753776 233.681123,78.1920914 Z" id="Fill-50" fill="#2C2C2C"></path>
                <path d="M350.155692,91.4302054 C350.156508,91.4302054 350.15814,91.4302054 350.158955,91.4310282 C350.21361,91.462295 350.26908,91.4935618 350.322918,91.5256514 C350.3686,91.5717289 350.413465,91.6178063 350.45833,91.6647065 C350.577428,91.8630039 350.689999,92.062947 350.798492,92.2661813 C350.950219,92.7475257 351.073395,93.2305158 351.172915,93.7233795 C351.190046,94.026174 351.196571,94.3273228 351.19494,94.6301172 C351.13376,94.8761377 351.062791,95.1196898 350.986112,95.3632418 C350.820517,95.6742644 350.646765,95.976236 350.459962,96.2724479 C350.085539,96.6706884 349.693986,97.042599 349.281223,97.4005218 C347.891209,98.3944774 346.438384,99.3036836 344.939877,100.121558 C343.283933,101.024181 341.539889,101.775408 339.806451,102.52252 C336.319995,103.966553 332.729126,105.301153 329.031395,106.042505 C328.567241,106.069658 328.10635,106.074595 327.639749,106.05567 C327.36403,105.993137 327.090759,105.922375 326.818303,105.842562 C326.322335,105.568566 325.850024,105.263303 325.382608,104.936647 C324.641919,104.294032 323.936308,103.609453 323.229881,102.928989 C324.823013,101.860157 326.438986,100.824238 328.093298,99.8541441 C329.208409,99.1983638 330.304758,98.4948604 331.464735,97.9197155 C332.852302,97.2301999 334.240684,96.5415071 335.628251,95.8528143 C339.945941,94.0492127 344.329706,92.2735866 348.938614,91.4310282 C349.347298,91.4104579 349.749456,91.4112807 350.155692,91.4302054 M345.469289,79.6154626 C342.263447,80.3543469 339.24604,81.6947059 336.203345,82.9223399 C334.899799,83.4497617 333.644381,84.0734525 332.375912,84.6773957 C331.480234,85.1052574 330.562531,85.5002067 329.699482,85.9823739 C327.713981,87.0849406 325.726033,88.1611774 323.810685,89.3797604 C320.639919,91.3948245 317.545833,93.5094487 314.47785,95.6857837 C313.279534,96.5373931 312.37733,97.5017275 311.97925,98.9671539 C311.822629,99.5398303 311.762265,100.1339 311.794078,100.721387 C309.936648,102.760312 309.32403,106.012884 310.905742,108.419606 C311.750029,109.702369 312.702808,110.94975 313.712689,112.109914 C314.171949,112.636513 314.630392,113.163934 315.101888,113.678191 C316.465798,115.178998 318.023854,116.409924 319.67164,117.586543 C321.032288,118.554169 322.733913,119.135896 324.342544,119.527554 C325.977279,119.923327 327.755584,120.090357 329.435184,119.952125 C331.200436,119.804019 332.974662,119.457616 334.686076,119.000955 C336.302049,118.569802 337.869078,117.908262 339.427949,117.294445 C345.230279,115.015259 351.042397,112.392961 356.057542,108.6286 C357.357825,107.651924 358.616506,106.658791 359.706329,105.44679 C360.831229,104.19694 361.748932,102.801453 362.421098,101.261974 C362.838755,100.307513 363.208283,99.4040665 363.501132,98.4142249 C363.794797,97.4178008 363.8364,96.3539062 363.966918,95.3253925 C364.059096,94.5930907 363.938367,93.821294 363.851899,93.0922835 C363.696093,91.8128125 363.52071,90.5909382 363.173207,89.3542533 C362.921144,88.4540981 362.449649,87.3614051 362.054833,86.5673925 C361.732617,85.9247771 361.385929,85.3488095 360.974798,84.7637909 C359.789534,83.0737371 358.437859,81.8107223 356.69871,80.7015731 C355.047661,79.6533119 352.969981,79.1719675 351.048923,79.0337352 C350.734049,79.0106965 350.418359,79 350.105117,79 C348.543798,79 346.994716,79.2616539 345.469289,79.6154626" id="Fill-52" fill="#2C2C2C"></path>
                <path d="M18.0650047,104.33064 C18.1143871,104.337164 18.1629464,104.343688 18.2115057,104.349397 C18.1629464,104.344504 18.113564,104.33798 18.0650047,104.33064 M13.5078364,93.0690883 C13.4304707,93.129437 13.353105,93.1881546 13.2749163,93.2476878 C13.3506359,93.1857081 13.4280016,93.1269904 13.5078364,93.0690883 M16.1094635,82.0220191 C15.0642036,82.0627952 14.0288202,82.1843081 12.9901447,82.2984813 C12.5852094,82.3400729 12.1835663,82.3881888 11.7819231,82.4387512 C11.0650559,82.5317207 10.3481887,82.6271369 9.63049851,82.7290772 C8.70211024,82.8562987 7.82721952,83.2387788 6.98525038,83.6237055 C4.7375302,84.6463709 3.2107924,86.7463416 2.05277618,88.8389726 C0.725213874,91.2341625 0.349084939,93.8438348 0.104642283,96.5195645 C-0.00482193655,97.7265379 0.0116388484,98.9441132 0.00176237742,100.154349 C-0.0138753682,102.148301 0.0601981638,104.215651 0.815748191,106.082383 C1.33920115,107.382326 1.86018499,108.389496 2.69639287,109.491267 C3.45770417,110.495175 4.22313067,111.434657 5.10378266,112.339072 C6.74739203,114.024757 8.61157592,115.766713 10.5893392,117.066657 C11.6880966,117.793287 12.9646305,118.280154 14.2378722,118.624305 C15.1160551,118.74908 15.9901228,118.863253 16.8674826,118.968455 C17.9547174,119.102201 19.0666435,118.777623 20.1374175,118.612072 C21.3884372,118.417162 22.5843132,117.723152 23.7225765,117.223237 C24.2657824,116.987551 24.7925275,116.713535 25.3200956,116.43952 C28.8599874,114.578497 29.920885,109.78404 27.9595825,106.464863 C26.9949805,104.833817 25.4007535,103.617058 23.5612608,103.11388 C22.9085907,103.027435 22.2559205,102.941805 21.6065426,102.852913 C20.3234244,102.858622 19.1242562,103.16852 18.009038,103.785055 C17.7621263,103.875578 17.5143914,103.963655 17.2633645,104.044392 C16.4831233,103.591777 15.7333345,103.086968 15.0008296,102.560956 C14.3489825,102.016187 13.7325261,101.452661 13.1531065,100.836941 C13.1152467,100.775777 13.0782099,100.713797 13.0419962,100.651818 C12.9177173,100.184523 12.8181295,99.7139665 12.7317104,99.2360703 C12.5728638,97.8146144 12.4815065,96.3988671 12.556403,94.9627318 C12.6247153,94.6495711 12.7045501,94.3404881 12.7959074,94.031405 C13.4296477,93.9588235 14.0625648,93.887873 14.694659,93.814476 C16.6971135,93.5828676 18.7077983,93.5763434 20.7102528,93.7647291 C22.6707323,94.1235591 24.5620765,94.6887162 26.41803,95.4039295 C29.0994919,96.5962236 31.7208719,98.0054467 34.1052166,99.7098889 C35.0805181,100.522149 35.9891534,101.379264 36.8294765,102.323639 C37.6714456,103.592592 38.3578603,104.963486 39.0607359,106.31236 C40.3948825,108.869839 43.951235,109.606256 46.361917,108.207634 C47.5553239,107.516071 48.4458524,106.369447 48.815397,105.047484 C49.213748,103.610534 48.9372068,102.273076 48.2754832,100.973133 C47.3874239,99.2238374 46.5643847,97.4272411 45.3528709,95.8663309 C43.887038,93.9775805 42.2854036,92.3400111 40.3792447,90.8777791 C36.7940858,88.1286524 32.855843,85.8729169 28.641059,84.2068042 C25.0073407,82.7722999 21.1563401,82 17.2485498,82 C16.8691287,82 16.4897076,82.0073397 16.1094635,82.0220191" id="Fill-54" fill="#2C2C2C"></path>
            </g>
        </g>
    </g>
</svg>