<?xml version="1.0" encoding="UTF-8" standalone="no"?>
<svg width="146px" height="157px" viewBox="0 0 146 157" version="1.1" xmlns="http://www.w3.org/2000/svg" xmlns:xlink="http://www.w3.org/1999/xlink">
    <!-- Generator: Sketch 48.2 (47327) - http://www.bohemiancoding.com/sketch -->
    <title>lol0001</title>
    <desc>Created with Sketch.</desc>
    <defs></defs>
    <g id="Page-1" stroke="none" stroke-width="1" fill="none" fill-rule="evenodd">
        <g id="lol0001" fill="#000000">
            <path d="M91.748,27.3162 C100.957,28.4392 109.869,28.9452 118.798,31.6222 C122.112,32.6162 125.055,34.2032 128.226,35.3302 C132.307,36.7802 137.41,39.2072 140.826,41.9612 C142.483,43.2972 145.733,47.0852 142.501,47.9412 C139.514,48.7322 133.786,43.8532 131.42,42.4302 C128.105,40.4382 123.492,39.2332 119.719,38.3132 C115.659,37.3232 110.921,35.3872 106.8,35.4522 C102.462,35.5202 98.179,36.5272 93.8,36.6112 C89.657,36.6912 84.55,38.0002 80.603,36.4592 C78.321,35.5672 74.274,32.6432 73.944,29.9532 C73.498,26.3082 79.582,25.3112 82.369,23.9392 C91.313,19.5372 100.574,16.0622 109.26,11.0632 C113.499,8.6232 117.528,5.9442 121.539,3.1512 C124.537,1.0642 127.218,-1.5048 130.452,1.7172 C137.22,8.4612 121.669,14.5422 117.409,17.0842 C113.357,19.5022 109.395,21.4072 105.034,23.0822 C101.669,24.3732 94.259,24.7932 91.748,27.3162" id="Fill-17"></path>
            <path d="M40.5293,42.7132 C38.5843,42.2742 37.4633,43.7792 35.9223,44.0872 C34.3203,44.4052 32.6993,44.6992 31.1273,45.0982 C26.9153,46.1682 22.8783,47.7672 19.0823,49.9132 C17.8213,50.6262 16.5903,51.3992 15.3923,52.2152 C14.8123,52.6102 14.3523,52.3632 14.0603,52.0052 C12.2333,49.7612 9.4813,48.2282 8.9123,44.9932 C8.7603,44.1342 8.7243,43.6172 9.3523,43.0122 C10.2763,42.1232 11.2513,41.2772 12.5223,41.0632 C15.9573,40.4832 19.2093,39.2302 22.4703,38.1412 C26.2343,36.8842 30.0293,35.8182 33.8643,34.8462 C34.1653,34.7702 34.5483,34.6962 34.5893,34.3352 C34.6513,33.7892 34.1323,33.5752 33.7823,33.4092 C31.7883,32.4682 29.8323,31.3672 27.7383,30.7292 C21.4393,28.8092 15.8623,25.3062 9.8323,22.8382 C6.1753,21.3412 3.6333,18.9212 1.4253,15.8352 C0.7133,14.8412 0.1003,13.7882 0.5083,12.7752 C0.9083,11.7812 2.2013,11.9302 3.2163,11.9162 C4.6613,11.8972 5.9143,12.4792 7.1543,13.1052 C10.4653,14.7772 13.5683,16.8162 16.8473,18.5572 C18.9813,19.6902 21.2523,20.4062 23.4083,21.4352 C26.2483,22.7892 29.1643,24.0792 32.0783,25.1812 C39.0433,27.8152 46.3023,29.5152 53.8633,28.5992 C55.7433,28.3712 57.5993,28.0892 59.4903,28.2022 C61.9943,28.3522 63.4283,29.5832 64.0063,32.0232 C64.3873,33.6382 65.4593,35.1302 64.7933,36.9352 C64.5353,37.6342 64.3083,38.0892 63.4253,38.2112 C56.8193,39.1152 50.2493,40.2012 43.8523,42.1662 C42.7263,42.5112 41.5083,42.5592 40.5293,42.7132" id="Fill-19"></path>
            <path d="M73.8799,156.4505 C64.8859,155.4205 51.2109,150.4025 44.7879,145.5115 C35.1279,138.1555 26.5069,129.8755 19.4239,119.8275 C14.7699,113.2245 10.7339,106.2535 6.1129,99.6525 C4.4029,97.2095 4.7649,95.5185 7.0729,93.7525 C9.8579,91.6225 11.2179,91.6325 13.3839,93.7715 C15.1619,95.5275 16.0869,102.8425 16.8849,104.0125 C20.4429,109.2315 38.4309,130.3855 44.0679,135.5535 C52.6429,143.4135 63.1109,146.3785 73.9939,148.5115 C80.2459,149.7365 86.2279,148.0825 92.1959,146.1655 C99.0579,143.9615 104.2789,139.8285 108.2289,133.9465 C109.8769,131.4925 111.6279,129.0595 112.9059,126.4115 C117.2979,117.3125 123.0809,108.9875 127.4749,99.8965 C128.1769,98.4445 128.8849,96.9875 129.4729,95.4875 C130.1399,93.7865 129.4849,92.9295 127.6439,93.1235 C126.4479,93.2505 95.5899,95.3485 88.3359,95.4745 C83.2289,95.5645 78.1169,95.6175 73.0109,95.5115 C61.3139,95.2655 49.6189,94.8945 37.9229,94.6145 C34.4249,94.5305 30.9089,94.7865 27.4279,94.5295 C16.9299,93.7535 15.2219,82.1695 21.2399,83.7675 C29.7469,86.0285 38.5289,86.1895 47.2619,86.6435 C53.9719,86.9935 60.6769,87.4355 67.3859,87.8005 C70.0709,87.9465 72.7629,88.0015 75.4509,88.0835 C86.4639,88.4205 97.4749,87.7775 108.4809,87.9465 C118.3879,88.0975 127.2169,84.9445 135.6829,80.2535 C136.5029,79.7995 137.3249,79.3155 138.2019,79.0015 C140.3329,78.2365 142.1819,78.9925 143.8269,80.3165 C145.4909,81.6545 145.1179,83.4745 144.6579,85.1585 C143.9819,87.6375 142.9349,90.0415 141.3889,92.0615 C138.4159,95.9485 136.4609,100.4005 134.1049,104.6155 C130.3629,111.3045 110.6589,160.6635 73.8799,156.4505" id="Fill-21"></path>
        </g>
    </g>
</svg>