<?xml version="1.0" encoding="UTF-8" standalone="no"?>
<svg width="285px" height="301px" viewBox="0 0 285 301" version="1.1" xmlns="http://www.w3.org/2000/svg" xmlns:xlink="http://www.w3.org/1999/xlink">
    <!-- Generator: Sketch 49.1 (51147) - http://www.bohemiancoding.com/sketch -->
    <title>meditation0001</title>
    <desc>Created with Sketch.</desc>
    <defs></defs>
    <g id="Page-1-Copy" stroke="none" stroke-width="1" fill="none" fill-rule="evenodd">
        <g id="Artboard" transform="translate(-8172.000000, -2455.000000)">
            <g id="meditation0001" transform="translate(8174.000000, 2457.000000)">
                <ellipse id="Oval-67" fill="#FFFFFF" cx="143.304513" cy="57.3267258" rx="50" ry="51"></ellipse>
                <polygon id="Path-72" fill="#FFFFFF" points="102.304513 140.326726 198.304513 140.326726 178.304513 241.326726 276.304513 249.326726 276.304513 291.326726 39.3045128 283.326726 25.3045128 236.326726 120.304513 241.326726"></polygon>
                <path d="M115.161065,238.261696 C114.575145,232.880801 113.664877,226.257816 113.16565,219.601948 C111.841352,201.955601 108.983499,184.534954 105.743004,167.166621 C104.913449,162.716919 103.790935,158.319532 102.79248,153.90122 C102.638527,153.21665 102.359019,152.399053 101.542917,152.570943 C100.949524,152.695002 100.254491,153.249534 99.9809624,153.799581 C99.3472126,155.073059 98.9047834,156.448177 98.4503967,157.805358 C91.4103924,178.864088 83.6409779,199.638827 74.5412866,219.906865 C73.4755705,222.280438 72.9150606,224.881204 72.1482831,227.384814 C71.7701257,228.617936 72.6684362,229.181435 73.5592733,229.448986 C74.6907559,229.786786 75.9134149,229.807712 77.0837595,230.034905 C89.2386034,232.384563 101.52498,234.308233 112.206057,241.283965 C113.609574,242.200212 115.108751,241.23464 115.161065,238.261696 M194.403712,152.186807 C193.917937,153.212166 193.484476,153.833959 193.32006,154.520023 C190.586266,165.855775 188.045288,177.245336 185.50132,188.616961 C182.124809,203.708876 179.957504,219.071332 177.335812,234.329158 C176.891888,236.906009 176.725977,239.536669 176.528678,242.149392 C176.433017,243.410913 177.571974,244.445241 178.852925,244.182175 C183.056002,243.319737 187.274026,242.487193 191.415821,241.378131 C202.348006,238.451522 213.345957,237.034553 224.699646,238.393229 C229.884736,239.013526 235.184917,238.698146 240.434279,238.744482 C241.286254,238.751955 242.410264,238.858078 242.54927,237.24082 C239.074109,234.958424 235.595958,232.445845 231.896593,230.318897 C229.225576,228.782352 226.292988,227.67329 223.41421,226.528355 C220.3187,225.295234 217.13052,224.292294 214.018569,223.09654 C210.966406,221.924701 209.21911,219.585506 209.444808,216.587152 C210.373013,204.230524 207.095151,192.431417 204.389756,180.629321 C203.123751,175.107925 201.117873,169.686673 199.520046,164.195171 C198.410984,160.382209 197.611323,156.354011 194.403712,152.186807 M112.28976,133.625709 C107.935719,133.380579 106.828151,134.210133 106.772848,137.459596 C106.714555,140.800235 106.557612,144.20963 107.109154,147.477029 C108.778726,157.370402 110.869801,167.19203 112.60514,177.076436 C114.008657,185.070054 115.628904,193.074135 116.25518,201.142488 C117.051852,211.391599 118.159419,221.591384 119.237093,231.806116 C120.048711,239.511259 120.748228,238.315505 127.641752,239.787777 C128.540063,239.980593 129.55197,239.774325 130.490637,239.623361 C133.599599,239.124134 136.678666,239.403641 139.77866,239.757884 C145.951742,240.466368 152.138277,241.058266 158.317338,241.729384 C161.402384,242.064195 164.476968,242.497656 167.562014,242.830972 C169.599281,243.050692 170.706848,242.295872 171.30622,240.355761 C171.516972,239.674181 171.605159,238.955233 171.754628,238.254222 C174.087844,227.269723 176.050376,216.222447 177.580942,205.094457 C178.882819,195.627071 180.326693,186.192569 182.479051,176.856716 C185.321957,164.522509 187.837525,152.107588 190.303769,139.689678 C191.496534,133.681012 191.932984,133.308834 184.834687,133.678023 C182.939416,133.776673 181.075534,134.352129 179.181758,134.580817 C175.388227,135.036699 171.593201,135.631587 167.786218,135.76013 C160.387488,136.008249 152.978294,135.990313 145.575079,136.045617 C143.908497,136.057574 142.228462,136.032164 140.576826,135.834865 C130.855342,134.674983 120.93357,136.106899 112.28976,133.625709 M84.9862017,283.444772 C88.3896178,283.760152 93.8721519,283.254946 99.257531,282.096559 C104.672804,280.930698 110.144875,280.790197 115.630399,280.504711 C124.458056,280.044345 133.197526,278.796277 141.800979,276.793388 C143.528845,276.391316 144.881542,276.333023 146.564566,276.877091 C155.861557,279.882919 164.908934,283.580789 174.138664,286.777938 C184.286135,290.293456 194.580086,291.844947 205.089273,291.565439 C215.339878,291.293405 225.583009,290.130534 235.788773,288.996062 C242.69575,288.229285 249.359092,286.193513 255.722,283.349112 C262.472034,280.331326 267.688512,275.575213 271.380404,269.146538 C275.287532,262.341201 273.469985,255.785477 270.482094,249.323919 C269.867775,247.992148 268.392513,246.778457 267.002448,247.433132 C263.26721,249.193881 260.530427,247.693209 258.004396,245.235934 C256.496251,243.76964 254.677209,243.404935 252.755034,243.349631 C250.130353,243.273402 247.480262,243.144858 244.876507,243.397461 C238.893251,243.977402 232.965298,243.699389 226.992505,243.147847 C219.85684,242.488688 212.643451,241.999923 205.582521,243.741241 C196.316919,246.025131 187.075232,248.421124 177.908279,251.060752 C175.827667,251.661619 174.089339,251.770732 172.569236,250.494264 C169.469243,247.894993 165.760909,247.120742 161.974852,246.548274 C156.547621,245.729182 151.120391,244.851797 145.660277,244.342107 C140.425862,243.853342 135.12867,243.72181 129.94059,244.796494 C127.218754,245.361488 124.614999,245.905556 122.097936,247.776912 C117.506238,251.187801 113.318109,250.503232 109.472263,246.461582 C106.393196,243.225571 102.728208,241.18681 98.5370889,239.968635 C94.8706069,238.902919 91.1652628,237.967241 87.4808444,236.958323 C71.1692591,232.486202 55.285156,233.980895 39.8255458,240.536619 C35.4371269,242.399006 31.1010224,244.436273 27.207347,247.279179 C25.2747089,248.691664 24.3569673,250.495758 24.8696471,252.845416 C25.7335796,256.804858 26.681215,260.746363 27.6228717,264.689364 C28.492783,268.336415 30.6077737,270.908781 33.7361663,273.100001 C37.9467166,276.049031 42.1453094,278.501822 47.464922,278.51079 C48.8729228,278.51378 50.3138069,278.909873 51.6814511,279.317925 C61.8603108,282.346173 72.3261515,283.095014 84.9862017,283.444772 M174.826222,291.287427 C166.532171,288.360818 157.867435,286.612027 149.071166,285.713716 C147.663166,285.568731 146.086264,285.45065 144.935351,284.749639 C142.026678,282.975438 139.137436,283.254946 135.964203,283.7467 C129.125982,284.807932 122.265341,285.928952 115.301566,285.761546 C109.756255,285.628519 104.391802,286.996163 98.9436454,287.650838 C83.8532244,289.462406 68.915262,289.061829 54.1955248,284.903593 C53.0520846,284.580739 51.8503514,284.250412 50.6815014,284.271337 C41.782099,284.434259 35.7375603,278.560115 29.1399851,273.998312 C26.5691131,272.221122 25.1939954,269.255651 24.2971796,266.199004 C22.8861894,261.390576 21.4542734,256.586633 20.0268416,251.782689 C19.4797839,249.941227 18.9820511,248.092292 19.352735,246.149191 C19.6412108,244.638056 18.787741,243.892205 17.5292095,243.627644 C15.8984993,243.285359 14.219959,243.171762 12.5698179,242.913181 C8.26659661,242.236085 4.24886168,240.766801 0.610778787,238.36483 C-0.981069316,237.312566 3.39539195,235.511461 5.99765255,236.1482 C9.24562056,236.941882 12.5085355,237.565169 15.9029834,237.571148 C19.1300257,237.577126 22.089518,237.018111 24.6140545,234.940488 C27.4793811,232.581862 30.9306274,231.42198 34.4177463,230.782252 C40.0841277,229.74344 45.4739908,227.798844 50.9909029,226.290699 C56.5257513,224.77807 61.7900602,222.603291 66.592509,219.294041 C68.4683488,218.001131 69.7687317,216.531848 70.7925965,214.600705 C81.5902591,194.242985 88.9396648,172.563957 95.464,150.560581 C96.5476525,146.906056 97.689598,143.239574 99.218669,139.759929 C100.137905,137.667359 100.067655,135.61365 100.299332,133.497165 C100.752224,129.340424 103.199037,127.569212 107.239192,128.761977 C113.729149,130.675184 120.349145,131.069783 127.048359,131.47634 C139.476732,132.23116 151.890157,131.495771 164.309562,131.636272 C170.543927,131.708017 176.737935,131.041384 182.733149,129.258215 C186.707537,128.074419 190.767124,128.099828 194.808774,128.053493 C197.721931,128.019115 198.949074,129.844135 198.467782,132.793164 C198.274967,133.970983 198.077668,135.159264 197.745846,136.302704 C196.415569,140.877959 197.213735,145.249936 198.711417,149.641345 C205.500313,169.55514 211.535884,189.679687 214.478934,210.578486 C215.295037,216.380884 217.992958,220.332853 223.550227,222.281932 C228.319792,223.955989 232.554258,226.646436 236.878405,229.200866 C244.922843,233.955485 253.541243,237.354417 262.603567,239.695106 C267.690007,241.008942 272.020133,239.985077 275.800212,236.400803 C276.31887,235.909049 276.762794,235.245405 277.380102,234.974866 C277.954064,234.720768 278.858354,234.63856 279.350108,234.930025 C279.87325,235.240921 280.379951,236.073465 280.38593,236.684795 C280.418813,239.829629 278.486175,241.932662 276.339796,243.929572 C274.037969,246.071467 274.040958,246.12976 275.413086,249.113167 C277.12451,252.836448 278.084103,256.757028 278.776146,260.779247 C279.883713,267.228847 277.643168,272.470736 273.262223,277.047486 C263.043006,287.724078 250.151279,292.674502 235.826141,294.441229 C227.28397,295.496482 218.692474,296.024109 211.778024,296.042045 C198.023859,296.749035 186.308454,295.338045 174.826222,291.287427 Z" id="Fill-353" stroke="#000000" stroke-width="4" fill="#000000"></path>
                <path d="M146.708057,0.677095954 C151.831864,0.351252868 157.371197,1.63818359 162.704262,3.95346313 C165.112212,4.99825357 167.482795,6.12973622 169.901209,7.15210626 C180.241495,11.5181047 188.021373,19.0319267 193.184043,28.6263614 C200.230026,41.7228619 202.424235,55.6758216 196.236206,69.9770447 C194.817742,73.2534119 193.645903,76.6149766 192.058539,79.8479976 C186.900353,90.349711 179.123465,97.8739959 168.497692,102.830398 C162.598139,105.580633 156.776309,107.988584 150.208628,108.601408 C146.126621,108.982555 142.182126,109.066257 138.121045,108.317416 C131.976362,107.184439 126.049904,105.319062 120.272915,103.105422 C110.304807,99.2849861 104.070443,91.5708753 100.001888,82.0063344 C98.3263372,78.0678182 96.9512196,73.9858115 96.5102851,69.6526963 C96.1963996,66.5661552 95.824221,63.4751299 95.2412907,60.4319349 C93.7092304,52.4323376 96.3623105,45.3534713 99.8479347,38.4330425 C100.411434,37.3150121 101.329176,36.6498737 102.62358,36.4480901 C103.9135,36.2448119 105.294596,37.2806342 104.940354,38.386707 C104.212438,40.6541564 103.396336,42.8947013 102.584718,45.1337515 C100.170788,51.8015772 99.5146182,58.5919677 100.986891,65.5706896 C101.577295,68.3732391 102.001787,71.2101665 102.517457,74.0276629 C104.122757,82.8269209 108.484271,90.0343308 115.081846,95.9951667 C116.88893,97.6273715 118.829042,99.0249095 121.147311,99.6795851 C126.425072,101.166805 131.690876,102.803494 137.067286,103.810917 C143.277736,104.973788 149.510606,103.878178 155.492368,102.181701 C172.419767,97.3777578 184.653829,87.306516 190.258928,70.1384716 C192.193061,64.2164977 193.856654,58.2556618 193.530811,51.9166685 C192.53983,32.6724955 183.742066,18.4026609 166.578506,9.41507155 C159.674519,5.79940905 152.462625,3.69338654 144.554204,4.35703025 C139.956528,4.74266106 135.614445,5.77399927 131.625109,8.15205592 C125.035007,12.081604 118.909755,16.6329443 113.367433,21.9331259 C110.403457,24.7670639 108.067252,28.0479152 106.754911,32.0193146 C106.263157,33.5065342 104.475504,33.7755789 103.308149,32.7442407 C101.560853,31.1972334 101.103477,29.5769862 102.054102,27.6757366 C103.781967,24.2185116 106.207854,21.2590193 108.987983,18.6134126 C115.077362,12.8125089 121.954445,8.06536372 129.305345,4.03118717 C133.900032,1.51113468 138.524612,0.721936745 146.708057,0.677095954" id="Fill-367" stroke="#000000" stroke-width="4" fill="#000000"></path>
            </g>
        </g>
    </g>
</svg>