<?xml version="1.0" encoding="UTF-8"?>
<svg width="450px" height="366px" viewBox="0 0 450 366" version="1.1" xmlns="http://www.w3.org/2000/svg" xmlns:xlink="http://www.w3.org/1999/xlink">
    <!-- Generator: Sketch 51 (57462) - http://www.bohemiancoding.com/sketch -->
    <title>money_stack</title>
    <desc>Created with Sketch.</desc>
    <defs></defs>
    <g id="ALL" stroke="none" stroke-width="1" fill="none" fill-rule="evenodd">
        <g id="money_stack_DL" transform="translate(-176.000000, -233.000000)">
            <g id="money_stack" transform="translate(176.000000, 233.000000)">
                <polygon id="Path-89" fill="#FFFFFF" points="293.877394 4 432.979896 67.0212994 444 148.518858 159.135788 366 34.5639959 283.42501 11 168.947961"></polygon>
                <path d="M143.653869,239.095092 C143.746503,239.10799 143.834829,239.119813 143.927463,239.132711 C143.834829,239.124112 143.746503,239.112289 143.653869,239.095092 M145.017529,239.077895 C144.949669,239.095092 144.878578,239.10799 144.806409,239.116588 C144.878578,239.103691 144.949669,239.090793 145.017529,239.077895 M134.784699,233.930645 C132.584102,232.399045 130.395353,230.862072 128.161365,229.375614 C123.448877,226.243626 118.749316,223.111639 114.162854,219.790486 C109.509609,216.423116 104.872521,212.984808 100.058783,209.844223 C95.1405613,206.6327 90.1921802,203.500712 85.1134651,200.544994 C79.9345761,197.525861 74.7255271,194.561544 69.5078609,191.614423 C64.3246633,188.688799 59.0649887,185.921171 53.7589971,183.218032 C43.6780439,178.075081 33.0660607,174.027358 22.5811801,169.778646 C27.827929,168.510374 32.9098754,166.620864 37.9088821,164.631396 C43.6898925,162.330234 49.2867119,159.634619 54.8361371,156.843345 C59.7629754,154.361616 64.437763,151.405897 69.3559842,148.903747 C70.454667,148.344847 71.5565812,147.787022 72.6595726,147.223824 C82.7448343,142.572059 92.9571986,138.193296 103.046769,133.55013 C108.671594,130.964145 114.226405,128.288951 119.63257,125.275192 C124.858854,122.361391 130.072211,119.434691 135.377126,116.65954 C137.797459,115.391268 140.266264,114.207906 142.715681,112.990149 C145.48393,111.612247 148.227406,110.184903 150.970881,108.753261 C153.24257,107.565599 155.469018,106.225315 157.643764,104.874282 C160.345231,103.185761 163.029464,101.489716 165.693231,99.7474536 C170.502661,96.5982694 175.122514,93.1932812 179.775759,89.8226868 C180.836742,89.0499006 181.879413,88.2523939 182.973788,87.5301237 C184.311596,86.6520064 185.620321,85.6825306 187.004446,84.8850239 C189.710221,83.3190303 192.423537,81.7906549 195.167012,80.2955985 C200.064768,77.6343766 204.781564,74.6947798 209.443426,71.6509266 C214.400424,68.4146831 219.444671,65.3289125 224.468452,62.2001496 C234.108855,56.1930539 243.411036,49.7022951 252.861862,43.4082259 C259.883737,38.7317412 266.725731,33.7983775 273.605424,28.9069314 C277.194454,26.354265 280.664999,23.5963105 283.808094,20.5062407 C286.542952,17.8149242 289.235802,15.0859895 292.096686,12.5247247 C293.594988,13.4522831 295.009273,14.5184915 296.439714,15.5427825 C298.711403,17.1678905 301.046642,18.7005651 303.373265,20.2450626 C307.842318,23.2222777 312.276904,26.2532331 316.766423,29.2003536 C319.038111,30.6911108 321.33996,32.1399505 323.549174,33.717767 C325.913496,35.4105879 328.257353,37.1356529 330.604441,38.8488951 C335.263071,42.2409857 340.110201,45.2848388 345.049965,48.244857 C350.001578,51.2134736 355.055519,54.021944 360.095457,56.8390129 C365.372365,59.7904326 370.908865,62.2216458 376.442133,64.6313628 C381.907541,67.0120601 387.29755,69.5937462 392.859901,71.74336 C392.987003,71.793876 393.10872,71.8400927 393.230437,71.8863093 C392.603542,72.4237128 391.985263,72.9697147 391.374525,73.5028189 C388.623509,75.9211344 385.959742,78.411462 383.363835,80.9931481 C380.460942,83.8854535 377.561282,86.7949557 374.460196,89.4776737 C373.454147,90.2880781 372.426555,91.0705376 371.377421,91.8261268 C370.960568,93.0600051 370.440309,94.1154655 369.550591,95.1085871 C367.951039,96.8927665 365.79245,97.8955613 363.470136,98.3620275 C362.416693,98.5737645 361.360019,98.6565246 360.306576,98.649001 C358.943994,99.3755704 357.569563,100.076345 356.186516,100.755622 C350.990392,103.308289 345.819043,105.889975 340.695088,108.585591 C339.390672,109.269168 338.132572,110.067749 336.857238,110.806142 C335.84365,111.394061 334.817135,111.952961 333.835861,112.599994 C331.433839,114.186409 328.951031,115.681466 326.679343,117.448448 C324.041427,119.498105 321.390585,121.516592 318.874386,123.716722 C316.682406,125.632028 314.486118,127.54196 312.305987,129.473388 C310.480234,131.098496 308.650173,132.71823 306.815804,134.343338 C305.098843,135.724465 303.381882,137.109891 301.669229,138.491018 C299.839168,139.965653 297.815222,141.241448 295.896836,142.597855 C292.223789,145.188139 288.423639,147.577435 284.847534,150.30637 C276.937018,156.34356 269.401346,162.838618 261.845209,169.303582 C257.780083,172.654829 253.639557,175.903971 249.453791,179.103671 C245.010588,182.500061 240.59216,185.929769 236.106949,189.272419 C231.453704,192.744045 226.787534,196.19525 222.075047,199.587341 C217.223608,203.076164 212.363552,206.502648 207.192203,209.508883 C204.75679,210.927628 202.240591,212.191601 199.711466,213.438377 C191.030795,217.435584 182.157316,220.995344 173.363545,224.736747 C168.487332,226.81005 163.631585,228.97686 158.939563,231.441392 C154.908905,233.561986 151.05059,235.992125 146.990849,238.062203 C146.157143,238.440535 145.320205,238.797371 144.448799,239.073596 C143.014048,238.557689 141.625615,237.789202 140.263033,237.117448 C140.649726,237.306614 141.032111,237.49578 141.415573,237.680646 C139.151424,236.538127 136.86681,235.383784 134.784699,233.930645 M291.058323,0.235382709 C289.770064,0.600817053 288.579824,1.34780784 287.540384,2.17970838 C285.802957,3.56943369 284.165704,5.06341527 282.537069,6.58319221 C279.878687,9.05632287 277.362488,11.6638044 274.685795,14.1197381 C270.575429,17.4408914 266.207626,20.3923112 261.899066,23.4533612 C257.270596,26.7401207 252.617351,29.9688406 247.884398,33.1008278 C242.990951,36.3424454 238.168595,39.6840201 233.288074,42.9546574 C228.361236,46.2586138 223.353612,49.4454163 218.316905,52.5817028 C213.466544,55.6008353 208.615105,58.5984717 203.830449,61.7218606 C199.075953,64.8291273 194.220206,67.7257319 189.234125,70.4417689 C186.790095,71.7734546 184.286821,73.0750458 181.960199,74.6066456 C179.186563,76.4295181 176.485096,78.3061309 173.796555,80.2493818 C169.06791,83.6715669 164.317723,87.02174 159.419967,90.2042432 C157.227988,91.6315868 154.992922,92.9922923 152.767551,94.3691199 C150.739296,95.6201951 148.657185,96.8551483 146.540605,97.9503765 C141.709632,100.452527 136.842036,102.866543 131.977672,105.297756 C127.273802,107.649434 122.691648,110.222522 118.118112,112.809582 C113.855869,115.227897 109.547309,117.511862 105.15904,119.690495 C95.383995,124.17459 85.5550925,128.549054 75.710033,132.878376 C70.4331242,135.19566 65.2962436,137.777346 60.2509199,140.548198 C57.9921573,141.79175 55.7657089,143.076144 53.5026378,144.306798 C51.1296984,145.59979 48.7309076,146.833669 46.3202683,148.051425 C41.4386699,150.310669 36.5247572,152.497901 31.4546593,154.306801 C28.7327265,155.281651 26.0010995,156.267249 23.203767,156.998117 C20.3676574,157.741884 17.5272392,158.413638 14.6620468,159.034877 C12.1544649,159.576579 9.65119159,160.134404 7.14791824,160.676107 C6.32282901,160.852375 5.45573132,160.973828 4.67803624,161.310243 C2.62823884,162.195884 0.957594711,163.715661 0.339316355,165.953409 C-0.186327961,167.876238 -0.135702381,169.807666 0.734626732,171.613342 C1.96364346,174.144512 4.05114077,176.013601 6.55872267,177.24318 C8.31338372,178.1041 10.1014361,178.863989 11.893797,179.636775 C14.8257721,180.896449 17.7631329,182.147524 20.7004936,183.3943 C25.135079,185.279511 29.5868986,187.122805 34.0333324,188.982221 C38.3128096,190.779298 42.4953442,192.773065 46.6821874,194.772206 C51.549783,197.290478 56.4055301,199.831322 61.1686431,202.547359 C66.2850581,205.465459 71.401473,208.379261 76.4801881,211.352177 C81.7603284,214.445471 86.9521431,217.645171 92.0685581,220.995344 C96.8736796,224.13593 101.528001,227.499001 106.189863,230.840575 C110.375629,233.842511 114.621715,236.727293 118.980901,239.473424 C121.190115,240.866374 123.40256,242.256099 125.603157,243.667321 C127.652955,244.97751 129.675824,246.261905 131.834412,247.391527 C134.195503,248.629704 136.61476,249.726007 139.029707,250.85133 C139.455178,251.04802 139.875262,251.241485 140.305041,251.430651 C141.96276,252.151846 143.843446,252.118527 145.572256,251.715475 C147.183657,251.342517 148.706733,250.686885 150.200726,249.981811 C155.157725,247.638732 159.870212,244.817364 164.746425,242.319513 C174.866155,237.600036 185.309027,233.628624 195.579557,229.265983 C198.40705,228.065424 201.214076,226.798227 203.9694,225.44612 C206.38004,224.261682 208.829456,223.111639 211.156078,221.763831 C213.718594,220.281672 216.217559,218.748998 218.713293,217.162583 C221.229492,215.562195 223.640131,213.757595 226.068005,212.023931 C235.173069,205.520275 244.114408,198.807031 253.000813,192.004578 C257.528032,188.537251 262.050943,185.073148 266.430594,181.420955 C270.82748,177.755863 275.148965,173.998338 279.516768,170.303152 C283.337384,167.166866 287.19139,164.081095 291.120797,161.079159 C294.992038,158.12774 299.161647,155.562175 303.141679,152.758004 C307.403922,149.751769 311.498132,146.510152 315.411381,143.058947 C319.22338,139.700175 323.052612,136.354302 326.885076,133.017026 C327.866351,132.261437 328.850857,131.501548 329.831054,130.740585 C330.85326,129.951677 331.846383,129.074634 332.927832,128.365262 C335.279228,126.81969 337.585385,125.161263 340.021876,123.75434 C342.651174,122.234563 345.264316,120.698664 347.952857,119.278844 C350.700642,117.83108 353.460274,116.432756 356.24145,115.04733 C361.110122,112.616117 366.019727,110.235419 370.63204,107.338815 C375.395153,104.344403 379.964381,101.078065 384.045664,97.1775903 C386.343204,94.9817598 388.623509,92.7741065 390.874732,90.5277601 C393.567582,87.8364436 396.335832,85.2547575 399.180558,82.7311109 C399.604951,82.3785742 400.026113,82.0303368 400.446198,81.6778001 C402.192242,80.2289604 404.116014,79.0660194 406.127034,78.03313 C407.577942,77.381797 409.051469,76.786354 410.544385,76.2317536 C410.822287,76.2693719 411.100189,76.3069901 411.378092,76.3413839 C412.64804,76.513353 414.137724,75.5599993 415.022056,74.6947798 C416.174596,74.326121 417.335753,73.9692851 418.492601,73.6242721 C421.122977,72.8439623 422.814087,70.0311927 422.986429,67.4194119 C423.180314,64.569024 421.286702,60.9286531 417.945414,61.1973548 C414.629977,61.4617573 411.453491,62.4108118 408.323323,63.4813195 C406.131343,62.977235 403.968446,62.3312761 401.818474,61.6627462 C398.199284,60.5427974 394.720122,59.1863911 391.239882,57.6870355 C387.604535,56.1210419 384.02843,54.4077997 380.406008,52.808487 C377.309231,51.4402578 374.22861,50.0462333 371.161993,48.6016928 C366.125286,45.9275733 361.172597,43.1266265 356.232833,40.2719394 C351.436328,37.5010873 346.573041,34.7388336 342.003813,31.602547 C337.21054,28.3061143 332.57453,24.7839721 327.7274,21.5681499 C323.153863,18.5328952 318.499542,15.6061961 313.921697,12.5709414 C310.892779,10.5599777 307.871401,8.54041556 304.845715,6.52515264 C303.474516,5.6137164 302.136708,4.64424058 300.781666,3.70378455 C299.119639,2.54836714 297.411295,1.54987154 295.585542,0.664230659 C294.685053,0.231083482 293.725322,0 292.753741,0 C292.18932,0 291.621667,0.0763112893 291.058323,0.235382709" id="Fill-1" fill="#2C2C2C"></path>
                <path d="M423.684147,82.8246265 C420.897939,84.4900274 418.057944,86.0585401 415.51916,88.1061113 C412.619998,90.4443472 409.78323,92.870859 407.122886,95.4868411 C404.492663,98.0640679 401.924834,100.700504 399.336565,103.325099 C397.019387,105.676253 394.597861,107.908988 392.150517,110.121269 C391.26517,110.841472 390.379823,111.561674 389.495551,112.281877 C388.305765,113.249683 387.007328,114.094763 385.768057,114.990441 C383.717667,116.466372 381.536034,117.812041 379.355477,119.090966 C374.022955,122.227992 368.69904,125.369323 363.399867,128.555869 C358.491193,131.508807 353.444823,134.216295 348.440406,136.99591 C343.64146,139.66249 338.904907,142.450717 334.14899,145.188348 C329.068196,148.114373 324.108962,151.171734 319.243318,154.443327 C314.561629,157.588965 310.251075,161.319161 305.825416,164.804984 C301.304014,168.371548 296.736355,171.878901 292.202044,175.423934 C287.530037,179.07339 282.949468,182.845572 278.322643,186.558544 C273.713029,190.263981 268.880734,193.628155 263.938712,196.857763 C261.782897,198.270178 259.560385,199.578169 257.37445,200.941063 C254.815227,202.538642 252.303337,204.186819 249.790371,205.860832 C247.247284,207.555299 244.848349,209.511365 242.444035,211.395303 C240.343084,213.039173 238.259345,214.713186 236.158394,216.35275 C231.451962,220.023738 226.69497,223.619367 221.866978,227.131027 C214.664792,232.370527 206.927957,236.882289 199.095379,241.096927 C199.136257,241.077549 199.178212,241.057095 199.21909,241.037717 C197.453775,241.877415 195.68846,242.699889 193.880114,243.455617 C191.577997,244.41804 189.250061,245.318024 186.922126,246.218008 C181.773558,248.207446 176.786355,250.516615 171.831423,252.938821 C167.537006,255.041296 163.359846,257.382761 159.16655,259.674706 C158.132749,260.243117 157.120463,260.843824 156.124313,261.483286 C155.10342,262.143203 154.162134,262.921538 153.216545,263.682649 C151.198427,265.311448 149.259915,267.037134 147.297736,268.728372 C146.572677,269.318314 145.843314,269.879189 145.046179,270.371166 C144.974104,270.395926 144.900952,270.421763 144.826725,270.445447 C144.768634,270.446524 144.709468,270.4476 144.651377,270.4476 C143.536894,270.175236 142.472971,269.770459 141.424109,269.301089 C131.906898,264.318881 124.212016,256.606579 115.362849,250.612427 C110.391782,247.243946 105.370153,243.989579 100.201147,240.927911 C95.2214731,237.980355 90.1837086,235.132918 85.1749895,232.227348 C75.1059151,226.382835 65.1433406,220.364999 54.9688421,214.700268 C49.6363205,211.726876 44.312405,208.745948 38.9088836,205.911429 C36.1398881,204.460259 33.3655139,202.97141 30.5169125,201.697868 C27.8952956,200.520138 25.2177393,199.494199 22.5832134,198.350918 C21.4827152,197.870783 20.3983533,197.345433 19.3010824,196.84915 C18.0155542,196.273204 16.2459359,196.82439 15.1411347,197.530598 C13.7760005,198.404745 12.80029,199.834384 12.3301847,201.37383 C11.8590037,202.917583 11.8676097,204.645423 12.5152147,206.138578 C12.7583355,206.562733 13.0068351,206.983659 13.254259,207.40889 C13.8642125,208.186149 14.6409082,208.728723 15.5821945,209.026924 C17.5067217,209.893535 19.4065064,210.806438 21.360079,211.609533 C23.1006519,212.3222 24.8111037,213.083311 26.5215554,213.869182 C47.2944001,224.519351 67.0485041,237.019009 87.2458195,248.699423 C97.0663943,254.375996 106.782621,260.335699 115.753349,267.294427 C120.329614,270.843765 124.834879,274.45662 129.717735,277.57642 C132.226397,279.179382 134.928696,280.570267 137.676176,281.706012 C138.705675,282.131244 139.78143,282.446669 140.874398,282.656593 C141.630655,282.795466 142.391214,282.883742 143.156076,282.976324 C143.95859,283.073212 144.857922,282.85037 145.622784,282.711496 C147.072903,282.446669 148.379947,281.756609 149.652566,281.033177 C150.258216,280.688686 150.82514,280.234387 151.363017,279.788702 C152.379607,278.952233 153.392969,278.106076 154.396649,277.249154 C155.556314,276.26197 156.709524,275.266175 157.870264,274.277915 C158.579187,273.708427 159.290262,273.150782 160.011018,272.601748 C160.906047,271.924607 161.918333,271.382033 162.894044,270.831923 C164.78845,269.755388 166.71728,268.741291 168.63858,267.715352 C172.079923,265.882012 175.552463,264.143406 179.057275,262.445709 C181.767104,261.263673 184.464024,260.101014 187.215807,259.023402 C189.631955,258.07282 192.082526,257.201903 194.481462,256.210413 C197.599002,254.922877 200.763876,253.627804 203.742644,252.034531 C206.394382,250.612427 209.017074,249.162333 211.625782,247.660566 C221.505524,241.983992 230.640842,235.196434 239.604039,228.186032 C244.372865,224.455836 249.0836,220.658894 253.975061,217.080488 C258.49216,213.771217 263.400834,210.949617 268.157826,208.000985 C278.217219,201.764613 287.184719,193.94358 296.400719,186.567156 C300.644576,183.173915 304.956205,179.864644 309.204365,176.474633 C313.939842,172.698145 318.621531,168.872137 323.500084,165.276507 C327.887016,162.042593 332.639705,159.245753 337.35044,156.521041 C342.439841,153.573486 347.541075,150.642079 352.646612,147.714978 C357.630588,144.860005 362.698474,142.147134 367.673845,139.271707 C372.711609,136.360754 377.68698,133.342148 382.712911,130.406434 C383.687546,129.8391 384.65465,129.271766 385.60777,128.665676 C386.932025,127.833514 388.32728,127.055178 389.596672,126.142276 C390.932761,125.179853 392.273153,124.216353 393.609242,123.25393 C394.806558,122.395931 395.916738,121.394753 397.05919,120.461396 C401.706456,116.67199 405.870706,112.323862 410.047866,108.034943 C413.013725,104.98727 416.052735,102.051557 419.243427,99.2407216 C420.541864,98.1878695 421.857513,97.1748493 423.234481,96.2178089 C424.810463,95.125125 426.457445,94.1411713 428.020518,93.0344924 C430.529181,91.2646675 431.756618,87.812217 430.504439,84.9098764 C429.957955,83.6406406 428.953199,82.5931713 427.608504,82.1851642 C427.197565,82.0592095 426.788778,82 426.38537,82 C425.43978,82 424.526464,82.3208077 423.684147,82.8246265" id="Fill-3" fill="#2C2C2C"></path>
                <path d="M436.191708,99.3618291 C435.308633,100.879172 434.933864,102.737647 435.220325,104.477749 C435.268787,104.640244 435.315094,104.80274 435.361402,104.965235 C435.18371,105.068544 435.006018,105.172928 434.828326,105.276237 C432.532329,106.625703 430.213718,107.937505 427.891875,109.249307 C422.986499,112.01496 418.060661,114.72573 413.113284,117.408521 C408.187446,120.081627 403.475915,123.095865 398.978692,126.437248 C394.629006,129.669941 390.263167,132.885416 386.346404,136.651869 C383.859793,139.0398 381.555181,141.628968 379.216108,144.160024 C376.590574,147.005311 373.843348,149.683797 370.983045,152.294487 C371.356736,151.980257 371.727197,151.669256 372.098735,151.357178 C370.029969,153.09728 367.964434,154.906254 365.716899,156.418216 C363.120442,158.162621 360.508908,159.827394 357.837066,161.458806 C355.506608,162.887906 353.121227,164.224459 350.79077,165.662168 C348.351543,167.170902 345.999547,168.785096 343.635704,170.403595 C341.241708,172.043616 338.95325,173.867655 336.651869,175.629279 C334.220181,177.482375 331.814339,179.369906 329.404189,181.253132 C325.189119,184.553621 321.171125,188.097316 316.960363,191.401034 C307.486686,198.850002 297.710394,205.869595 287.808102,212.734225 C283.167648,215.954004 278.674733,219.384705 274.207663,222.840157 C269.328132,226.60661 264.439986,230.355846 259.57661,234.143821 C255.147232,237.599273 250.939701,241.33129 246.560938,244.845929 C242.059407,248.452039 237.3608,251.777279 232.556653,254.968003 C230.272503,256.485346 227.979738,258.002689 225.602972,259.369373 C223.024823,260.853356 220.416519,262.282456 217.842677,263.770743 C212.83607,266.657998 207.897309,269.634572 203.055471,272.787632 C198.200709,275.952529 193.316871,279.084066 188.508417,282.316759 C185.92596,284.052556 183.342426,285.78082 180.755661,287.504779 C178.42951,289.055482 175.977361,290.42109 173.574749,291.851266 C172.400905,292.548598 171.197984,293.203961 170.054293,293.948643 C168.842757,294.734217 167.550451,295.461681 166.398145,296.332269 C164.858148,297.496642 163.281535,298.623349 161.825537,299.89641 C160.777693,300.817577 159.650156,301.68709 158.670158,302.674977 C157.639544,303.709137 156.584161,304.709938 155.637547,305.815123 C154.400165,307.265745 153.243551,308.761565 152.116015,310.30043 C151.367554,311.317373 150.643863,312.351533 149.928787,313.394303 C149.814634,313.557874 149.706942,313.725751 149.603557,313.893627 C149.010173,313.507296 148.41679,313.120966 147.816945,312.750777 C145.554333,311.347504 143.21526,310.040007 141.048494,308.485 C136.458655,305.171597 132.230662,301.413753 127.814208,297.878668 C118.433146,290.358675 108.601931,283.472522 98.6490243,276.734875 C94.122724,273.670058 89.4359623,270.849523 84.8805851,267.835284 C79.747978,264.443324 74.7542938,260.89102 69.8036864,257.241865 C65.4076936,254.005944 60.9772392,250.831362 56.5650925,247.620191 C51.7307927,244.101248 46.9438773,240.541411 41.9501931,237.249531 C40.1754268,236.07655 38.3618912,234.958451 36.5623557,233.824211 C33.7849756,232.071196 30.5542116,233.458327 28.9937526,236.144346 C27.5129857,238.691545 27.4925242,242.936876 30.2731351,244.6985 C33.0322076,246.44721 35.7578955,248.233585 38.4717372,250.058701 C40.7935796,251.622317 43.0271144,253.3452 45.2660339,255.031495 C49.7578728,258.410542 54.32725,261.685204 58.844935,265.031967 C63.7244655,268.65099 68.6039961,272.261405 73.5686034,275.771739 C77.9979809,278.903276 82.6761271,281.707669 87.2239659,284.662721 C97.1262576,291.093671 106.881011,297.794729 116.254534,304.97897 C120.877758,308.526969 125.404058,312.192266 129.99282,315.786539 C134.322043,319.174194 139.155266,321.71386 143.83772,324.550537 C145.705102,325.681549 147.560637,326.837313 149.566942,327.712206 C150.652479,328.182474 151.935092,327.99738 153.024936,327.71651 C154.606934,327.308657 155.81847,325.930135 156.681084,324.63878 C157.265852,323.767115 157.59539,322.731878 157.952928,321.730002 C158.066005,321.518004 158.184466,321.308159 158.310466,321.100466 C159.375541,319.778979 160.477232,318.479015 161.593999,317.20703 C163.096305,315.491679 164.714917,313.932367 166.371222,312.368751 C168.072758,310.94826 169.804447,309.532074 171.685829,308.375235 C174.092748,306.895557 176.49859,305.462152 178.963663,304.095468 C181.428736,302.729859 183.915348,301.371784 186.27919,299.837223 C189.009186,298.063762 191.734873,296.285996 194.457331,294.502849 C199.219477,291.379921 204.035469,288.340932 208.831,285.263201 C213.606069,282.199461 218.447907,279.2358 223.398514,276.465843 C226.035895,274.986165 228.661429,273.493573 231.278348,271.984839 C233.860805,270.492248 236.330186,268.794115 238.808182,267.137952 C243.60802,263.93001 248.256013,260.529441 252.757544,256.914722 C257.047998,253.472183 261.170453,249.818724 265.5126,246.431068 C270.451361,242.579601 275.427815,238.766874 280.378422,234.9337 C284.850876,231.46964 289.368561,228.06907 294.009015,224.836377 C298.884238,221.435808 303.739,218.013716 308.508684,214.465717 C313.296676,210.91449 318.024361,207.298695 322.689584,203.595733 C326.930501,200.232828 330.981879,196.638556 335.243256,193.300402 C337.737406,191.341846 340.240171,189.399433 342.760167,187.474237 C344.854779,185.872956 346.941853,184.234011 349.117234,182.745724 C351.712614,180.967958 354.299379,179.235389 356.970144,177.583531 C359.187525,176.213618 361.467368,174.943785 363.689056,173.572796 C369.094125,170.244327 374.319347,166.666197 379.001801,162.349841 C381.129797,160.39021 383.287948,158.440263 385.247945,156.304146 C387.377018,153.984011 389.51363,151.671408 391.667473,149.372796 C393.280701,147.653141 394.961775,146.009891 396.740849,144.461341 C401.358688,140.680898 406.24791,137.234055 411.216826,133.936794 C413.470822,132.439898 415.90251,131.17437 418.27066,129.867948 C420.643118,128.551842 423.050037,127.294923 425.43111,125.99173 C429.919718,123.532774 434.38248,121.010326 438.766627,118.370581 C440.760008,117.168544 442.716774,115.911625 444.597079,114.540636 C447.276459,112.586385 449.74584,110.186616 449.981686,106.638617 C450.14107,104.28835 449.245072,102.085513 447.881689,100.223809 C447.398152,99.5630654 446.532307,98.8108508 445.963692,98.3190597 C445.391847,97.822964 444.802771,97.3656089 444.200772,96.9071777 C443.379081,96.2722613 442.471236,96.0000006 441.562315,96.0000006 C439.416011,95.9989244 437.262168,97.5194954 436.191708,99.3618291" id="Fill-5" fill="#2C2C2C"></path>
                <path d="M239.026723,88.5107855 C240.310497,88.5194078 241.599642,88.5280301 242.887713,88.5355746 C245.949434,88.5582082 249.07024,88.7090986 252.115847,89.0723135 C254.008742,89.4085836 255.812471,89.8989776 257.568932,90.652352 C258.749574,91.3259701 259.819565,92.0815001 260.856253,92.965287 C262.654611,94.8104616 264.161837,96.8474826 265.50792,99.046172 C267.0839,101.943269 268.332223,104.958922 269.300156,108.109299 C270.362627,112.218908 270.871839,116.394262 271.102811,120.627817 C271.189828,123.625148 271.138263,126.62679 270.710696,129.592865 C270.513027,130.514375 270.277758,131.414328 269.967289,132.303504 C269.646077,132.898444 269.30123,133.467516 268.927378,134.025811 C268.239834,134.861097 267.518987,135.636027 266.730459,136.374313 C265.486434,137.337856 264.188694,138.17422 262.794268,138.914661 C258.854855,140.641279 254.610343,141.553089 250.441032,142.564055 C247.061322,143.383174 243.680538,144.292828 240.257857,144.929801 C237.321828,145.37385 234.402987,145.573241 231.42721,145.616353 C229.79859,145.64222 228.166746,145.600186 226.533829,145.574319 C223.739606,145.536596 220.91208,145.474085 218.1286,145.174459 C216.865237,144.931957 215.641623,144.626942 214.452387,144.151638 C213.736911,143.706511 213.073001,143.221506 212.423057,142.681534 C211.550735,141.758946 210.803031,140.774925 210.113338,139.69498 C207.860556,135.610161 206.194336,131.218171 204.857921,126.749658 C204.125257,123.995907 203.540844,121.213056 203.013369,118.410805 C202.995106,118.31596 202.976843,118.221114 202.959655,118.126269 C203.263678,117.908556 203.54729,117.659586 203.801896,117.387984 C204.854699,116.276783 205.316642,114.907991 205.505717,113.417409 C205.581991,112.834325 205.657192,112.254475 205.738837,111.673547 C205.964438,110.766049 206.242679,109.889806 206.573559,109.016797 C207.221355,107.709439 207.951871,106.476449 208.772627,105.277947 C211.575444,101.7137 214.865988,98.5309889 218.299412,95.5756917 C220.31585,93.920208 222.41286,92.403759 224.715059,91.1761574 C226.964618,90.2018363 229.27004,89.5939633 231.673222,89.1305141 C234.100038,88.7619103 236.570901,88.4903075 239.026723,88.5107855 M232.895762,77.5809282 C229.789995,78.0195883 226.685303,78.6425503 223.768611,79.8044067 C219.047116,81.6862261 214.976639,84.8560033 211.288609,88.2963055 C208.48042,90.9110214 205.752803,93.5289706 203.315244,96.5015124 C201.409457,98.8295364 199.751831,101.322462 198.505657,104.058968 C198.064125,105.024667 197.665564,105.99791 197.329312,106.994865 C196.904968,106.994865 196.468807,107.06061 196.030498,107.199645 C193.096617,108.129777 191.707563,111.409489 192.051335,114.280718 C192.404776,117.236015 192.966629,120.162212 193.541373,123.079787 C193.965716,125.219198 194.410471,127.340286 194.951913,129.45383 C196.013309,133.609784 197.461449,137.651493 199.13519,141.5962 C199.828105,143.233361 200.691833,144.791844 201.582418,146.328771 C202.534237,147.970244 203.520433,149.489926 204.825693,150.874885 C206.09765,152.222121 207.511413,153.3926 209.105656,154.323809 C210.98566,155.422076 213.059035,155.965282 215.182902,156.336041 C218.967619,156.996726 222.916701,156.954692 226.747612,156.988103 C229.051959,157.009659 231.343416,157.009659 233.646689,156.921281 C237.901943,156.756379 242.136786,155.914626 246.265275,154.904737 C250.659112,153.830182 255.103441,152.862328 259.451084,151.599159 C263.022017,150.567715 266.462962,149.165512 269.576248,147.102624 C272.983889,144.846811 275.787781,141.726613 277.852562,138.206554 C278.905364,136.408802 279.534897,134.358848 279.983949,132.342305 C280.470602,130.153315 280.756362,127.955704 280.890648,125.719292 C281.15922,121.265868 280.906763,116.73161 280.42011,112.301898 C279.77876,106.433337 278.091054,100.627288 275.573997,95.3019334 C274.306338,92.6236279 272.719614,90.0595681 270.982491,87.6733435 C269.047698,85.0252162 266.542459,82.6465361 263.768648,80.9199182 C258.825849,77.8428309 252.904374,77.3707594 247.239654,77.1519682 C244.834323,77.0592784 242.442958,77.0086223 240.037628,77 L239.922679,77 C237.572137,77 235.220521,77.250047 232.895762,77.5809282" id="Fill-7" fill="#2C2C2C"></path>
                <path d="M240.993605,138.731647 C240.833601,138.865402 240.671421,138.999157 240.510328,139.132912 C240.663801,138.988456 240.825982,138.854701 240.993605,138.731647 Z M232.671238,133.929308 C232.588515,134.039522 232.505792,134.148666 232.423069,134.258881 C232.504704,134.149736 232.586338,134.040592 232.669061,133.932518 L232.671238,133.929308 Z M243.199914,110.327441 C243.377333,110.393783 243.552575,110.477247 243.720198,110.57569 C243.547132,110.492227 243.374067,110.409834 243.199914,110.327441 Z M242.291049,110.124133 C242.409692,110.133764 242.525068,110.149814 242.640445,110.171215 C242.52398,110.155165 242.408603,110.140184 242.291049,110.124133 Z M242.321526,109.601954 C242.539218,109.77316 242.737318,109.959347 242.918002,110.160515 C242.718814,109.974328 242.519626,109.789211 242.321526,109.601954 Z M243.018141,99.0310312 C241.262454,99.1519456 239.523095,99.7458177 237.831628,100.201655 C235.739607,100.765566 233.75861,101.509243 231.802647,102.438038 C229.289392,103.628992 227.150568,105.1966 225.178278,107.139793 C224.302067,108.009735 223.561915,109.012362 222.809789,109.977538 C221.832351,111.240185 221.125941,112.45682 221.016006,114.086491 C220.918045,115.470052 221.266352,116.932797 222.154535,118.037078 C222.997004,119.077156 224.246556,119.7042 225.615839,119.683869 C226.882807,119.662468 228.434951,119.006534 229.221908,117.995346 C230.28751,116.623555 231.365086,115.335227 232.639673,114.169954 C233.465814,113.589992 234.314813,113.083863 235.208439,112.619466 C237.546451,111.64787 239.984602,110.981235 242.437992,110.348842 C242.62303,110.331721 242.809156,110.318881 242.996372,110.31032 C243.019229,110.326371 243.044264,110.342422 243.06821,110.358472 C243.20971,110.665574 243.335971,110.971605 243.453525,111.286197 C243.526452,111.678901 243.581963,112.066256 243.624413,112.46003 C243.611352,113.500109 243.529717,114.517717 243.378421,115.548165 C243.281548,115.979391 243.174879,116.408477 243.060591,116.834353 C242.415134,117.197096 241.821923,117.644373 241.309258,118.186883 C240.412367,119.140289 239.417514,120.381535 239.102949,121.681633 C238.902673,122.438151 238.745934,123.20323 238.62185,123.975798 C238.617496,124.937764 238.639265,125.882609 238.809065,126.830664 C238.877638,127.209458 238.978865,127.567922 239.111657,127.909264 C238.36062,128.253817 237.63244,128.644382 236.934737,129.050997 C236.743168,129.209363 236.547245,129.364519 236.351322,129.522884 C235.768996,129.882418 235.284631,130.333975 234.901493,130.885045 C234.47264,131.428625 234.089502,131.959365 233.703098,132.524346 C233.693302,132.539327 233.682418,132.554307 233.671533,132.569288 C233.551802,132.596039 233.430983,132.62814 233.306899,132.666661 C231.955031,133.083977 230.850244,134.095164 230.152541,135.282909 C228.809381,137.556743 228.771285,141.402466 231.321547,142.965794 C231.823328,143.295366 232.354496,143.571437 232.916142,143.792935 C233.830448,144.064725 235.106124,144.073285 236.016076,143.792935 C237.831628,143.229024 239.030023,141.841182 240.102156,140.381648 C240.57999,139.731064 241.049116,139.074059 241.505181,138.408495 C243.352298,137.664817 245.302819,137.232521 247.248986,136.800225 C248.989434,136.412871 250.742943,136.077948 252.497541,135.764426 C255.036918,135.359951 257.787457,134.945846 259.82179,133.331156 C260.620719,132.807907 261.262911,132.134852 261.739656,131.311991 C262.16851,130.7438 262.487429,130.116757 262.692059,129.426581 C262.878186,128.803818 262.980501,128.176774 262.993563,127.533681 C263.036013,126.676579 262.870567,125.163542 262.436271,124.377063 C261.960614,123.508191 261.470807,122.709941 260.816642,121.966264 C259.84247,120.853422 258.617953,119.909647 257.432619,119.026864 C256.356132,118.228615 255.144676,117.605852 253.93322,117.03338 C253.654574,116.902835 253.377017,116.778711 253.098371,116.663147 C253.397697,114.983184 253.55117,113.282891 253.525047,111.582598 C253.482597,108.577926 252.899183,105.350686 251.084719,102.846793 C250.046328,101.41722 248.754326,100.35574 247.121636,99.6366737 C246.073449,99.1754865 244.989342,99 243.866051,99 C243.586317,99 243.303317,99.0107004 243.018141,99.0310312 Z" id="Fill-11" fill="#2C2C2C"></path>
                <path d="M293.215,48.504 C293.153,48.332 293.078,48.164 293,48 C293.07,48.168 293.141,48.336 293.215,48.504" id="Fill-17" fill="#2C2C2C"></path>
                <path d="M41.0348626,259.21246 C39.6989163,259.632016 38.6068504,260.646032 37.9108203,261.831732 C37.1565178,263.123663 36.8360202,264.703167 37.0809797,266.182878 C37.3173062,267.59177 37.9874375,268.626173 39.0665541,269.531812 C43.5308591,273.267037 47.6822203,277.315588 51.9695503,281.238594 C56.3399722,285.238859 60.830176,289.110359 65.2146264,293.096674 C73.5119533,300.972732 81.8189923,308.835912 90.1853827,316.641149 C94.4176776,320.588835 98.6575264,324.579442 103.252405,328.11723 C107.999438,331.780562 112.820931,335.331226 117.689904,338.838968 C120.442731,340.821932 123.169658,342.842452 125.884715,344.883359 C128.388266,346.765458 130.820594,348.74413 133.295008,350.663784 C135.975534,352.74654 138.657138,354.829296 141.494136,356.699591 C144.448757,358.648218 147.509131,360.450912 150.536053,362.291163 C151.661572,362.973611 152.841046,363.204313 154.123036,362.801926 C155.412581,362.399539 156.466877,361.423079 157.132692,360.279227 C158.448135,358.028005 158.410366,354.444077 156.020123,352.863501 C153.439956,351.15416 150.847918,349.472719 148.247247,347.800934 C145.936858,346.312638 143.753806,344.648365 141.569674,342.988384 C137.051413,339.551462 132.704732,335.896714 128.11417,332.552072 C123.288361,329.034672 118.448523,325.543025 113.647534,321.993434 C108.935032,318.514664 104.508496,314.687157 100.141312,310.793123 C98.6564473,309.470074 97.2330926,308.072986 95.7806018,306.707016 C91.6119747,302.746454 87.419607,298.806279 83.2196855,294.873616 C76.8399487,288.803472 70.5465411,282.660362 63.9196866,276.846673 C60.7244226,274.046059 57.5550574,271.229349 54.4439644,268.333235 C51.282153,265.386688 48.0782561,262.515254 44.7610519,259.740392 C44.1373226,259.221045 43.2858996,259 42.4485052,259 C41.9564281,259 41.4686674,259.076185 41.0348626,259.21246" id="Fill-19" fill="#2C2C2C"></path>
                <path d="M434.867372,132.658858 C434.180756,133.490439 433.515697,134.343535 432.775187,135.129933 C432.19097,135.751736 431.567949,136.324053 430.92876,136.88346 C427.007395,140.040885 422.794999,142.825013 418.589071,145.589776 C413.961687,148.627789 409.18771,151.425902 404.467628,154.313305 C399.798207,157.166283 395.250587,160.229039 390.918546,163.574725 C386.097142,167.298012 381.381371,171.222471 377.069809,175.525605 C374.446224,178.148365 371.912104,180.858264 369.279895,183.472418 C366.61535,186.124224 363.844094,188.67921 361.137511,191.289061 C355.906509,196.337713 351.216607,201.932863 345.708587,206.69213 C343.14213,208.789908 340.503454,210.793016 337.907894,212.862824 C334.842374,215.309156 331.756374,217.771624 329.128477,220.699907 C326.740949,223.364623 324.560377,226.192858 322.181473,228.865104 C319.934071,231.386741 317.463547,233.645886 314.903557,235.83403 C310.756912,239.242112 306.494934,242.508191 302.282538,245.83021 C297.996845,249.208171 293.760736,252.642072 289.491212,256.037245 C285.204442,259.441024 280.817428,262.681284 276.27412,265.740812 C271.474274,268.97139 267.116363,272.716193 262.720725,276.459919 C262.245376,276.867641 261.764637,277.266757 261.284975,277.670176 C261.638523,277.372184 261.992071,277.074192 262.349931,276.775124 C258.173106,280.149857 253.744054,283.099655 249.158708,285.885935 C244.405211,288.777641 239.596742,291.571451 234.905763,294.56428 C225.213372,300.74143 216.013577,307.641505 207.217991,315.016001 C202.915053,318.626331 198.835238,322.471181 194.746799,326.316032 C190.814655,330.010272 187.089466,333.91967 183.074324,337.525696 C178.868395,340.953142 174.431798,344.020201 169.795792,346.857042 C167.470782,348.277077 165.117747,349.659458 162.809984,351.113918 C160.515155,352.555468 158.228949,353.984108 155.871603,355.328838 C153.311613,356.790828 152.333967,360.573282 153.466829,363.187436 C153.997152,364.41383 154.970487,365.427218 156.275812,365.82203 C157.63072,366.238359 158.889696,365.880123 160.077531,365.204531 C164.590659,362.628029 169.016477,359.909524 173.475709,357.244808 C175.828744,355.837683 178.165611,354.387527 180.418402,352.820111 C182.620532,351.28174 184.742898,349.634715 186.830772,347.945735 C191.484025,344.192327 195.495933,339.776235 199.778392,335.632317 C203.840961,331.699252 207.971437,327.832886 212.237727,324.122509 C213.088183,323.383446 213.959118,322.672353 214.822508,321.946199 C214.46896,322.244191 214.111101,322.542183 213.757553,322.841251 C218.060491,319.302999 222.430259,315.856188 226.973567,312.621307 C231.592328,309.334788 236.274684,306.14509 241.052972,303.094168 C245.604903,300.186325 250.329297,297.547428 254.923266,294.701981 C257.234263,293.27334 259.508612,291.802744 261.72691,290.231024 C264.215759,288.466739 266.556937,286.516344 268.880869,284.545508 C270.383448,283.267478 271.856925,281.95287 273.358426,280.670536 C275.257669,279.121408 277.183859,277.595947 279.213527,276.221095 C281.583808,274.619254 283.954089,273.031397 286.270475,271.354251 C290.657489,268.190371 294.854795,264.773683 299.074736,261.394647 C303.339948,257.98764 307.634264,254.621514 311.941514,251.263993 C316.586144,247.64936 321.229696,244.018591 325.516466,239.975796 C327.975134,237.652104 330.109357,235.008904 332.261904,232.403356 C333.360275,231.075839 334.47158,229.760156 335.650792,228.499338 C336.849406,227.214852 338.110538,226.03149 339.42233,224.866417 C343.669219,221.39056 348.072401,218.12233 352.269706,214.586229 C356.413117,211.089933 360.004648,206.979364 363.777265,203.101164 C367.532635,199.243404 371.486337,195.595422 375.355964,191.855999 C379.296731,188.048801 382.98096,184.001703 387.044607,180.320372 C387.683796,179.742676 388.346699,179.18542 389.002056,178.622786 C392.99564,175.326585 397.080845,172.132584 401.389173,169.251635 C406.155605,166.06624 411.082642,163.149791 415.999978,160.199993 C420.488314,157.511609 424.905509,154.670465 429.183656,151.661499 C431.692985,149.89291 434.130095,148.059775 436.479896,146.072803 C437.363766,145.324058 438.269194,144.560251 439.031263,143.681336 C440.159814,142.378562 441.124526,140.949922 442.06768,139.512675 C443.364382,137.533233 443.326656,134.482311 441.840245,132.616903 C440.976855,131.531437 439.703866,131 438.421177,131 C437.101839,131 435.7728,131.561559 434.867372,132.658858" id="Fill-21" fill="#2C2C2C"></path>
                <path d="M236.881941,130.837324 C236.891711,131.017654 236.900396,131.197983 236.907996,131.378312 C236.90691,131.37513 236.904739,131.370887 236.904739,131.367705 C236.884112,131.192679 236.876512,131.015532 236.881941,130.837324 M235.024414,123.52338 C234.877853,123.654915 234.728035,123.777963 234.571703,123.895707 C234.722607,123.770537 234.872425,123.647489 235.024414,123.52338 M235.758305,118 C234.409943,118.021215 233.162545,118.69692 232.25061,119.632511 C230.763286,121.172735 230.000082,123.870249 230.755686,125.982223 C230.250865,126.3397 229.764499,126.739606 229.27379,127.194673 C228.781997,127.754754 228.361855,128.355145 228.014451,129.005391 C227.489002,129.904916 227.187195,130.870208 227.106857,131.902328 C226.83979,133.464828 227.089487,135.163106 227.675732,136.638624 C228.171868,137.893504 228.837364,139.012606 229.583197,140.14762 C229.87632,140.516764 230.203097,140.864694 230.554843,141.183983 C231.207312,141.818318 231.878236,142.410222 232.590414,142.973486 C233.680395,143.827398 234.918022,144.564627 236.114395,145.26579 C237.310768,145.965892 238.53971,146.214109 239.896757,145.79617 C241.258147,145.377169 242.36984,144.366265 243.073333,143.181395 C243.840879,141.888328 244.167656,140.314159 243.916874,138.834398 C243.705175,137.603916 243.039679,136.174011 241.898673,135.490881 C240.820635,134.851242 239.750196,134.17872 238.739467,133.431945 C238.887114,133.31314 239.032589,133.194334 239.180236,133.074468 C239.981437,132.552574 240.626306,131.87687 241.1105,131.056902 C241.291802,130.808684 241.478531,130.559405 241.660919,130.306944 C242.178768,129.424391 242.475147,128.475011 242.552227,127.459863 C242.759584,126.213469 242.666219,125.160134 242.238478,123.959353 C241.916043,123.055585 241.431849,122.301384 240.859718,121.527029 C240.354896,120.842838 239.698085,120.225476 239.124868,119.595384 C238.240074,118.629031 237.182662,118 235.823444,118 C235.801731,118 235.780018,118 235.758305,118" id="Fill-23" fill="#2C2C2C"></path>
                <path d="M145.428253,181.905939 C145.320479,182.067603 145.206302,182.224956 145.085723,182.375842 C145.200967,182.218489 145.315144,182.063292 145.428253,181.905939 M173.159361,157.76952 C171.550214,158.868835 169.953872,159.913183 168.440761,161.14614 C166.194572,162.969709 163.997467,164.779266 161.447161,166.168498 C161.678716,166.057489 161.911338,165.944324 162.14396,165.832237 C161.467436,166.164187 160.790911,166.495059 160.096246,166.783899 C158.616215,167.398221 157.05402,167.924168 155.65722,168.720632 C153.276579,170.072142 151.272615,171.958221 149.541822,174.079251 C148.600663,175.237842 147.758742,176.50421 147.057675,177.82662 C146.485723,178.905457 146.015144,180.056504 145.5499,181.196774 C145.332217,181.664521 145.105997,182.125802 144.856302,182.577383 C144.514838,182.78108 144.165905,182.967532 143.81057,183.160451 C143.265295,183.606643 142.72749,184.07008 142.205691,184.545372 C141.706301,185.105806 141.30188,185.72444 140.984959,186.402351 C139.659654,188.928619 139.934959,191.711393 141.142886,194.203172 C141.735112,195.419963 142.572765,196.413657 143.902338,196.822127 C145.182827,197.217665 146.532675,196.927748 147.641364,196.207805 C149.202493,195.197944 150.288773,193.261211 150.478712,191.306156 C150.918347,190.910618 151.328103,190.473048 151.710115,189.976201 C152.828408,188.515837 153.570025,186.95093 154.280696,185.29657 C154.835574,184.066846 155.433135,182.899633 156.165147,181.779841 C156.800056,181.018943 157.463776,180.300078 158.179782,179.621089 C158.689843,179.24064 159.213776,178.900068 159.767588,178.588596 C160.895484,178.133782 162.025515,177.681123 163.122467,177.161643 C164.381614,176.567797 165.635425,175.978263 166.852956,175.29173 C168.049145,174.618131 169.141829,173.780712 170.237713,172.946526 C171.421098,172.049831 172.568202,171.103558 173.74305,170.189618 C174.897623,169.288611 176.123691,168.475981 177.285734,167.574974 C178.49046,166.644868 179.357991,165.583275 179.812564,164.089501 C180.232991,162.695958 180.224454,161.125663 179.649302,159.774152 C178.904484,158.032493 177.294271,157 175.600825,157 C174.777044,157 173.932989,157.243574 173.159361,157.76952" id="Fill-25" fill="#2C2C2C"></path>
                <path d="M183.812458,160.342492 C182.075477,162.413567 180.238264,164.383587 178.418113,166.374252 C176.372975,168.606144 174.536829,171.021673 172.904344,173.581721 C171.855118,175.226845 170.927448,176.941512 169.854764,178.570337 C168.508043,180.207855 166.927806,181.570461 165.4478,183.092799 C163.507158,185.092157 162.141245,187.634819 160.870231,190.101418 C159.591753,192.571278 159.525643,196.128832 162.012224,197.898916 C164.365519,199.571205 167.52706,198.195559 168.779947,195.78003 C169.421851,194.545644 170.076551,193.346029 170.830416,192.188792 C171.934023,190.885949 173.17838,189.773263 174.436598,188.616026 C175.815307,187.350128 176.881594,185.806058 177.964941,184.281547 C179.326589,182.373464 180.413135,180.273051 181.724668,178.330197 C184.345601,174.922595 187.476219,171.94855 190.193118,168.619184 C191.20609,167.380451 191.875719,166.013498 191.98448,164.37924 C192.080446,162.948178 191.734969,161.437793 190.847818,160.300115 C189.970264,159.174389 188.706714,158.635432 187.429303,158.635432 C186.096444,158.635432 184.748658,159.2222 183.812458,160.342492" id="Fill-27" fill="#2C2C2C" transform="translate(176.000000, 178.635432) rotate(16.000000) translate(-176.000000, -178.635432) "></path>
                <path d="M291.932132,29.6009699 C291.885069,29.7282015 291.831589,29.8543549 291.770621,29.9772736 C291.824101,29.8521984 291.877582,29.726045 291.932132,29.6009699 M292.117174,28.8365019 C292.10113,28.9604988 292.079738,29.0823393 292.050859,29.2020232 C292.050859,29.2031015 292.049789,29.2041797 292.049789,29.2041797 C292.072251,29.0823393 292.094712,28.9594206 292.117174,28.8365019 M291.790944,14.5746988 C290.89675,15.1515541 290.261403,16.0950089 289.952286,17.1063926 C289.622846,18.1921744 289.719111,19.1863063 290.069943,20.2440539 C290.169416,20.529786 290.264612,20.8176745 290.358737,21.1087977 C290.557684,21.8549358 290.748075,22.602152 290.922421,23.3558377 C291.072166,24.0092476 291.222981,24.6658922 291.373796,25.3193021 C291.536377,26.0395625 291.703236,26.75551 291.836937,27.4800833 C291.921436,27.9480369 291.956733,28.4310858 291.983473,28.9087436 C291.983473,29.0359752 291.981334,29.1632068 291.974916,29.2893602 C291.90967,29.3626801 291.844424,29.4349218 291.777039,29.5060853 C291.466852,29.7238886 291.152387,29.9222837 290.825087,30.1055835 C290.396173,30.2727098 289.964051,30.4279755 289.543695,30.6177447 C288.520079,31.0813854 287.630165,31.7294041 286.911387,32.6060085 C285.910233,33.8265695 285.28986,35.2412127 284.869504,36.7291758 C284.641677,36.5049031 284.408502,36.2860216 284.16998,36.0757659 C283.698282,35.6552546 283.213749,35.2509168 282.716381,34.8584396 C282.164463,34.4249895 281.483122,34.1683697 280.836009,33.9149847 C280.702307,33.8988112 280.568606,33.8772465 280.434905,33.861073 C279.996366,33.7338414 279.549269,33.7004161 279.097894,33.7554061 C278.383395,33.8017701 277.598302,34.0670157 276.991834,34.4584147 C275.709373,35.288655 275.040867,36.7917134 274.723193,38.2322342 C274.380918,39.7654832 274.280375,41.3537221 274.284654,42.9203963 C274.288932,44.774959 274.32102,46.6252088 274.384127,48.4786933 C272.502685,46.5238548 270.522839,44.6660574 268.480955,42.8955969 C267.792127,42.297177 266.672247,42.2551258 265.848648,42.5160585 C264.908462,42.8147294 264.136204,43.5393027 263.643114,44.3900295 C263.112588,45.3173108 262.882622,46.446222 263.058038,47.5072044 C263.224897,48.5218227 263.700873,49.2420831 264.461365,49.9041189 C265.470006,50.7818015 266.454046,51.6842835 267.435947,52.5856872 C269.021108,54.251559 270.569902,55.9282131 272.057728,57.6825 C273.131615,58.9505034 274.122073,60.3317213 275.375655,61.4142684 C275.818473,61.7938068 276.803583,62.0083754 277.364058,61.9997496 C278.387674,61.983576 279.394176,61.4865101 280.088352,60.7489979 C280.601764,60.201255 281.074531,59.3300418 281.291662,58.6140943 C281.550507,57.7633676 281.57083,56.802661 281.62538,55.914196 C281.675652,54.98368 281.579387,54.0143475 281.546229,53.0752055 C281.521628,52.3969962 281.495957,51.718787 281.471356,51.0362647 C281.429642,49.8998059 281.383648,48.753643 281.362256,47.616106 C281.344073,46.5723754 281.314124,45.5243318 281.302358,44.47521 C282.128096,45.4326819 282.904632,46.4354396 283.614853,47.4759356 C284.131474,48.5390745 284.795701,49.4954681 286.021473,49.8113907 C288.465529,50.443236 290.462489,48.1854137 290.620791,45.8682885 C290.766258,43.8185654 290.828295,41.781781 291.135273,39.7493097 C291.255069,39.2134273 291.394119,38.687249 291.567395,38.1643055 C291.586648,38.1276455 291.605901,38.0920638 291.626224,38.0554038 C292.349279,37.77075 293.077683,37.5065827 293.763302,37.1205748 C294.866069,36.4930426 295.860806,35.730731 296.704727,34.7786503 C297.690907,33.658365 298.405405,32.332137 298.743402,30.8786773 C299.124183,29.2408397 299.002247,27.6148626 298.877103,25.9511473 C298.785117,24.7079433 298.438563,23.4830693 298.162604,22.2700559 C298.020346,21.6425236 297.879158,21.0149914 297.7369,20.3831462 C297.402112,18.9124348 296.984965,17.4600534 296.512198,16.0324714 C296.224473,15.1472411 295.371994,14.3935555 294.506681,14.1283099 C294.224304,14.0409729 293.93551,14 293.647785,14 C292.995323,14 292.351419,14.2124121 291.790944,14.5746988" id="Fill-29" fill="#2C2C2C"></path>
                <path d="M94.645737,159.759802 C94.5309814,159.815866 94.4162257,159.87193 94.30147,159.925838 C94.3003975,159.926916 94.2982526,159.926916 94.2971801,159.926916 C94.4097908,159.866539 94.5266914,159.810476 94.645737,159.759802 M85.1145805,160.711811 C84.5579618,159.384605 83.9916908,158.058477 83.4179124,156.739897 C83.3235339,156.52211 83.2280829,156.303245 83.1337044,156.085458 C83.4028976,156.288151 83.6645835,156.502703 83.9209069,156.729115 C84.7156168,157.572231 85.4352529,158.458472 86.1066273,159.392152 C85.9790018,159.691879 85.8556663,159.990527 85.7344757,160.290253 C85.5832556,160.66006 85.4963845,161.05682 85.4277456,161.456815 C85.3247872,161.20884 85.2196839,160.959786 85.1145805,160.711811 M80.3345237,154.811082 L80.3473935,154.811082 C80.2969868,154.85313 80.2476526,154.895178 80.1961734,154.937226 C80.2412177,154.893021 80.2873345,154.850973 80.3345237,154.811082 M117.875719,137.173583 C117.536814,137.312664 117.209707,137.467918 116.88689,137.640423 C116.187631,138.09109 115.79403,138.630167 115.319992,139.296465 C114.926391,139.856026 114.596066,140.463026 114.251799,141.051698 C113.805646,141.830124 113.2501,142.546017 112.717076,143.264067 C112.884383,143.037655 113.049546,142.810165 113.216853,142.580518 C112.768555,143.132532 112.320257,143.680234 111.868742,144.227935 C110.683648,145.675894 109.298,146.966443 107.88125,148.183677 C106.543864,149.26183 105.151781,150.26559 103.737176,151.24024 C102.913509,151.80627 102.102711,152.408958 101.257595,152.949112 C100.865066,152.748576 100.467175,152.562055 100.058559,152.393863 C99.0911791,151.989556 97.9843767,151.921633 96.9537205,151.795489 C94.963192,151.54967 92.8654152,152.021901 91.1730371,153.094663 C90.0994816,151.652094 88.839314,150.359389 87.4772606,149.188516 C86.8284084,148.633267 86.0572931,148.216022 85.3076275,147.824653 C84.8464598,147.575599 84.3692048,147.356734 83.88337,147.166979 C83.2591849,146.901754 82.5127367,146.834908 81.8510147,146.750813 C80.8160686,146.616043 79.8862258,146.711999 78.8770193,146.998788 C77.8420732,147.289889 76.8403741,148.169661 76.1625648,148.956713 C75.2445194,150.023006 74.6836108,151.386869 74.5870873,152.798171 C74.5034336,154.086563 74.855208,155.283313 75.2026925,156.500547 C75.36571,157.073046 75.67673,157.63692 75.9105313,158.188934 C76.1282454,158.703213 76.3470319,159.220726 76.560456,159.735005 C77.1846411,161.217465 77.854943,162.678362 78.487708,164.156509 C79.1022408,165.59153 79.6942514,167.030864 80.2508701,168.484214 C80.0492433,168.272896 79.846544,168.0605 79.6438447,167.85026 C78.3236181,166.469146 76.8746936,165.201239 75.4086093,163.979692 C74.5323907,163.250861 73.6154177,162.589953 72.6641253,161.966781 C72.1235938,161.613147 71.4661617,161.213152 70.8623538,161.001834 C70.2971552,160.804532 69.5978963,160.61909 68.9940884,160.627715 C65.9900635,160.674076 64.5282691,163.882658 65.1352945,166.511194 C65.3197616,167.319809 65.5460555,168.119798 65.7562622,168.9241 C65.9857735,169.81681 66.2796339,170.612487 67.0711263,171.164501 C67.7961249,171.67878 68.7013005,171.787673 69.5389098,171.522448 C70.1866895,171.316521 70.7486706,170.899276 71.1840987,170.379606 C72.0206354,171.078249 72.8239252,171.821096 73.6089828,172.566099 C75.3935945,174.335348 77.0548707,176.216724 78.6925523,178.12182 C79.338187,178.875449 79.9741695,179.646328 80.5983546,180.42152 C81.0552323,180.989706 81.5249799,181.554658 81.960408,182.140095 C82.3336321,182.637123 82.7733501,183.041431 83.254895,183.419862 C83.9209069,183.947079 84.9644329,184.018237 85.7645052,183.996674 C87.3517801,183.950313 88.9487073,182.564887 89.2704522,180.998331 C89.4763689,179.988102 89.7026628,178.989733 89.8024038,177.962253 C89.7948964,177.389754 89.7734467,176.816177 89.7401998,176.243678 C89.7101702,175.780073 89.6522561,175.317545 89.5728924,174.858252 C89.283322,172.857201 88.6966738,170.886338 88.1357652,168.948897 C88.0596189,168.685828 87.9802551,168.423837 87.8998189,168.161846 C87.99098,168.199581 88.0832135,168.233004 88.177592,168.263192 C89.2618723,168.595263 90.5402721,168.212519 91.395041,167.505251 C91.9602396,167.125741 92.4128274,166.641651 92.7474421,166.047589 C93.0702595,165.491262 93.3180031,164.90259 93.5185574,164.291278 C93.8542446,163.276736 93.9507681,162.13066 93.9754352,161.065445 C93.9818701,160.754937 93.9775801,160.447664 93.9636379,160.141468 C93.9754352,160.130687 93.9872325,160.118827 93.9990298,160.106968 C94.0226244,160.091873 94.046219,160.075701 94.0698137,160.060607 C94.2103089,160.008856 94.3529492,159.962495 94.4966619,159.922603 C95.156239,159.868696 95.8050912,159.884868 96.4614508,159.947401 C96.954793,160.051982 97.4245405,160.184595 97.8964331,160.363568 C98.4959511,160.681623 99.0943966,161.001834 99.7314515,161.250887 C100.757818,161.650882 101.913954,161.158166 102.81913,160.707499 C103.862656,160.19322 104.801079,159.523687 105.759878,158.875717 C108.043195,157.333959 110.284684,155.767403 112.379244,153.969045 C114.620733,152.048855 116.653088,149.930285 118.387293,147.537864 C118.793765,146.978303 119.216323,146.426289 119.585257,145.836539 C119.935959,145.282369 120.246979,144.705557 120.574086,144.139527 C121.676599,143.132532 122.177448,141.375143 121.943647,139.965998 C121.78921,139.026927 121.323752,138.108341 120.52797,137.552014 C120.047497,137.215631 119.402935,137 118.777677,137 C118.464512,137 118.15671,137.053908 117.875719,137.173583" id="Fill-31" fill="#2C2C2C"></path>
                <path d="M345.777562,65.4695855 C346.110401,65.5591765 346.426977,65.6638792 346.745722,65.7880112 C347.035194,65.9661137 347.304067,66.1528514 347.569688,66.3622568 C347.891685,66.7303352 348.182242,67.1092078 348.453283,67.5129067 C348.659275,67.9338762 348.839246,68.3548457 349.00404,68.7941652 C349.105951,69.2410405 349.182927,69.6846776 349.232799,70.1401881 C349.216536,70.4575344 349.189432,70.7694836 349.151486,71.0814328 C349.075595,71.3728732 348.99103,71.6567577 348.895623,71.9428011 C348.770944,72.174874 348.63976,72.4004705 348.497734,72.6249876 C348.161643,73.0157336 347.810373,73.3827327 347.431999,73.7367788 C346.977734,74.0670779 346.514795,74.362836 346.021499,74.6348471 C345.33739,74.914414 344.648945,75.133534 343.927975,75.299763 C343.306748,75.3623687 342.703951,75.3796392 342.082724,75.3461776 C341.664236,75.2457925 341.268516,75.1227399 340.859785,74.9705432 C340.389257,74.7039292 339.951254,74.41033 339.524093,74.072475 C339.174991,73.6741731 338.86492,73.2618389 338.572195,72.8225194 C338.549428,72.7761048 338.52666,72.7296902 338.503893,72.6832757 C338.964663,71.9935333 339.159813,71.2260736 339.304007,70.3765787 C339.3387,70.1822851 339.371225,69.9890709 339.402666,69.7958567 C339.505662,69.3705695 339.623836,68.9647118 339.76803,68.5566952 C339.813565,68.4757395 339.860184,68.3947838 339.907887,68.3149076 C340.085691,68.1108993 340.269999,67.9176851 340.467317,67.7255503 C341.331397,67.0800637 342.251854,66.555471 343.220014,66.0664987 C343.759929,65.8344258 344.290086,65.6498468 344.856021,65.5073649 C345.167176,65.476062 345.46749,65.4631091 345.777562,65.4695855 M330.533105,65.3551682 C330.533105,65.3551682 330.215444,67.759012 330.254474,68.9981735 C330.317356,71.2498205 330.690309,73.3449533 331.427542,75.4746272 C331.752791,76.4061572 332.256928,77.279399 332.765402,78.1180998 C333.396387,79.1597294 334.111936,80.0707506 335.044319,80.8716721 C336.72044,82.3094448 338.79987,83.2711982 341.014821,83.4730477 C343.331683,83.6846118 345.664809,83.2118307 347.778932,82.2543949 C351.793599,80.4377496 354.935511,76.9458617 355.90584,72.6163523 C356.930377,68.0407377 355.651061,62.8088425 352.009348,59.6634447 C351.280788,59.0352287 350.505609,58.5667652 349.616593,58.183575 C348.507492,57.7021586 347.435252,57.5003092 346.228575,57.4117976 C345.79274,57.4161153 345.360158,57.4625299 344.932997,57.5510414 C344.204437,57.668697 343.526833,57.8079407 342.827546,58.0270607 C342.447004,58.1706221 342.074051,58.3346923 341.714108,58.5203506 C341.040841,58.8409351 334.919042,60.6518262 330.533105,65.3551682 Z" id="Fill-33" fill="#2C2C2C" transform="translate(343.249032, 70.467331) rotate(-133.000000) translate(-343.249032, -70.467331) "></path>
            </g>
        </g>
    </g>
</svg>