<?xml version="1.0" encoding="UTF-8" standalone="no"?>
<svg width="372px" height="181px" viewBox="0 0 372 181" version="1.1" xmlns="http://www.w3.org/2000/svg" xmlns:xlink="http://www.w3.org/1999/xlink">
    <!-- Generator: Sketch 49.1 (51147) - http://www.bohemiancoding.com/sketch -->
    <title>mountains_0001</title>
    <desc>Created with Sketch.</desc>
    <defs></defs>
    <g id="Page-1-Copy" stroke="none" stroke-width="1" fill="none" fill-rule="evenodd">
        <g id="Artboard" transform="translate(-3016.000000, -7592.000000)">
            <g id="mountains_0001" transform="translate(3015.713158, 7591.487002)">
                <polygon id="Path-65" fill="#FFFFFF" points="0.286841732 135 95.2868417 50 114.286842 60 180.286842 4 205.286842 33 231.286842 12 339.286842 148 372.286842 167 0.286841732 167"></polygon>
                <path d="M155.873,151.4794 C154.826,151.3544 153.847,151.1684 152.973,150.5684 C152.668,150.3584 152.331,150.5164 152.337,150.9584 C152.342,151.3084 152.126,152.0224 152.655,151.8884 C153.721,151.6164 154.821,152.0114 155.873,151.4794 M207.282,150.3864 C207.254,149.9434 207.25,149.4744 206.6,149.5034 C205.789,149.5414 205.37,149.9844 205.317,150.7744 C205.287,151.2124 205.427,151.6664 205.937,151.5764 C206.575,151.4644 207.353,151.3664 207.282,150.3864 M206.623,154.4354 C206.124,154.4754 205.684,154.2664 205.463,154.6254 C205.174,155.0954 205.801,155.2424 205.93,155.5854 C206.024,155.8394 206.235,156.0484 206.359,156.2944 C206.509,156.5954 206.702,156.7714 206.993,156.5094 C207.273,156.2574 208.057,156.4834 207.749,155.6384 C207.511,154.9824 207.737,153.9554 206.623,154.4354 M215.816,154.2794 C214.737,153.6344 213.851,152.7264 212.528,153.3724 C212.096,153.5834 211.879,153.7194 212.303,154.1934 C212.978,154.9514 214.226,155.0304 215.816,154.2794 M148.984,146.6934 C145.666,148.4714 141.948,149.1154 138.932,151.3624 C139.909,151.5114 140.857,151.4624 141.799,151.5244 C142.856,151.5944 143.807,151.5194 144.712,150.8264 C145.754,150.0284 146.846,149.2154 148.046,148.7264 C149.106,148.2944 149.314,147.7554 148.984,146.6934 M223.404,138.6824 C224.272,138.8564 225.265,138.7804 225.305,140.1364 C225.362,142.0624 224.486,143.6204 222.912,144.0424 C221.806,144.3394 220.799,144.8904 219.649,145.1164 C218.458,145.3514 218.102,146.5204 218.919,147.2784 C220.248,148.5144 219.936,149.9244 219.458,151.3234 C219.012,152.6324 217.922,153.4504 216.635,154.3224 C217.075,154.3224 217.332,154.3924 217.527,154.3124 C220.243,153.1974 223.169,153.9664 225.928,153.3744 C228.03,152.9224 230.135,152.8424 232.208,153.2154 C234.708,153.6644 237.213,154.1354 239.664,154.8384 C240.185,154.9874 240.274,155.2914 240.269,155.7054 C240.255,156.6254 240.184,157.5444 240.196,158.4624 C240.209,159.2754 239.757,159.3254 239.191,159.1154 C237.151,158.3544 235.001,158.0034 232.926,157.3764 C230.05,156.5064 227.084,156.4204 224.152,156.7224 C222.095,156.9354 220.002,156.7394 217.975,157.2694 C216.007,157.7844 213.874,157.7454 212.197,159.2054 C211.554,159.7664 210.702,159.4784 210.08,159.0654 C209.298,158.5474 208.487,158.4174 207.59,158.3794 C202.479,158.1634 197.369,157.9234 192.261,157.6654 C191.59,157.6304 190.926,157.4464 190.26,157.3254 C188.384,156.9854 186.647,157.5414 184.909,158.1314 C183.782,158.5144 182.648,158.8884 181.497,159.1814 C180.39,159.4624 180.191,159.2254 180.423,158.0974 C180.693,156.7844 180.623,156.6744 179.255,156.5894 C175.155,156.3374 171.039,156.6644 166.941,156.2404 C164.645,156.0034 162.346,155.7824 160.043,155.6584 C158.611,155.5814 157.17,155.7014 155.732,155.7284 C155.415,155.7334 155.084,155.7724 154.784,155.6984 C154.457,155.6174 154.158,155.2434 153.812,155.5944 C153.446,155.9674 153.543,156.4464 153.748,156.8264 C154.174,157.6134 154.332,158.4104 153.52,158.9454 C152.791,159.4274 151.856,159.3824 151.133,158.9064 C150.186,158.2824 149.275,157.5744 149.182,156.2494 C149.135,155.5914 147.621,155.2454 146.598,155.2034 C144.356,155.1134 142.831,156.6314 140.992,157.4324 C139.998,157.8644 139.094,158.7254 137.962,157.7484 C137.914,157.7064 137.742,157.7684 137.652,157.8214 C137.298,158.0334 136.959,158.1284 136.797,157.6294 C136.665,157.2244 136.747,156.8504 137.111,156.5584 C137.542,156.2134 138.165,156.1284 138.457,155.5294 C137.627,155.0004 136.688,155.1024 135.769,155.0664 C129.938,154.8414 124.111,154.3914 118.273,154.5144 C115.488,154.5724 112.708,154.9234 109.931,155.1874 C109.519,155.2264 109.004,155.4114 108.754,155.7094 C107.76,156.8994 106.624,156.9674 105.326,156.3434 C103.953,155.6834 102.576,156.2784 101.203,156.3454 C100.646,156.3724 100.087,156.5604 99.541,156.5214 C97.22,156.3524 94.904,156.6674 92.629,156.8974 C90.19,157.1434 87.767,156.8114 85.367,157.1054 C82.77,157.4234 80.159,157.5544 77.563,157.9634 C75.281,158.3234 73.019,158.7844 70.761,159.2294 C67.673,159.8374 64.514,160.2414 61.6,161.5534 C61.057,161.7974 60.477,162.0294 60.035,162.4084 C59.386,162.9674 58.828,163.1254 58.178,162.4734 C57.965,162.2594 57.703,162.2174 57.408,162.3224 C53.87,163.5824 50.153,164.1894 46.568,165.2624 C43.113,166.2974 39.712,167.5134 36.296,168.6764 C31.382,170.3514 26.706,172.5604 22.078,174.9024 C18.221,176.8564 14.284,178.6604 10.32,180.3884 C9.546,180.7264 8.606,180.9934 7.669,180.9684 C6.688,180.9414 5.598,180.2154 5.438,179.4254 C5.28,178.6404 6.017,177.6434 7.055,177.3514 C10.304,176.4374 13.242,174.8804 16.211,173.3064 C17.697,172.5194 19.259,171.7424 20.849,171.0764 C22.77,170.2724 24.633,169.2234 26.546,168.3914 C29.152,167.2574 31.77,166.1214 34.469,165.1704 C38.21,163.8524 42.078,162.9744 45.805,161.6204 C48.18,160.7564 50.609,160.0834 53.112,159.6104 C54.994,159.2544 56.785,158.4254 58.628,157.8424 C60.434,157.2714 62.038,156.2434 63.812,155.6044 C64.126,155.4914 64.399,155.3244 64.419,154.9434 C64.436,154.5864 64.293,154.3464 63.928,154.2254 C62.607,153.7834 62.872,152.5224 62.784,151.5994 C62.727,151.0044 63.507,150.5604 64.178,150.2884 C65.141,149.8974 65.181,149.4414 64.41,148.7194 C63.141,147.5304 63.334,146.2664 64.935,145.6304 C69.06,143.9914 72.969,141.9394 76.713,139.5644 C77.01,139.3764 77.401,139.2934 77.384,138.8264 C77.37,138.4774 77.374,138.1294 76.852,138.4144 C74.928,139.4664 72.749,139.7694 70.709,140.4824 C70.186,140.6654 69.627,140.7254 69.059,140.6094 C68.229,140.4414 67.421,140.4234 66.597,140.7584 C66.141,140.9434 65.55,141.0514 65.269,140.3854 C65.029,139.8144 65.379,139.4314 65.807,139.2304 C67.239,138.5594 68.049,137.1704 69.295,136.2914 C70.653,135.3344 72.127,134.5914 73.63,133.8924 C74.815,133.3414 75.976,132.7334 77.154,132.1654 C77.384,132.0544 77.615,131.9754 77.483,131.6584 C77.364,131.3694 77.102,131.4004 76.871,131.4524 C76.288,131.5834 75.707,131.7264 75.131,131.8864 C73.584,132.3164 71.609,131.5494 71.053,130.2674 C70.667,129.3774 70.783,128.5884 71.768,128.2044 C74.3,127.2134 76.776,126.0644 79.472,125.5304 C81.839,125.0614 81.846,125.0264 83.035,127.1474 C83.206,127.4534 83.36,127.7234 83.704,127.7404 C85.981,127.8544 86.87,129.3704 87.072,131.3204 C87.202,132.5674 87.807,132.6184 88.734,132.4684 C90.733,132.1454 92.478,133.7244 92.419,135.7774 C92.403,136.2994 92.161,136.5274 91.665,136.6884 C90.353,137.1154 89.066,137.6204 87.769,138.0884 C87.54,138.1714 87.325,138.2604 87.18,138.6334 C89.743,138.6874 89.138,141.0104 89.9,142.3834 C90.031,142.6194 89.868,142.9214 89.64,142.9764 C88.519,143.2394 88.804,143.5994 89.396,144.2644 C90.056,145.0034 90.084,146.0824 90.411,147.0014 C90.589,147.4994 90.075,147.9944 89.615,147.9994 C88.669,148.0094 87.979,148.5734 87.179,148.8894 C84.529,149.9364 81.951,151.1334 79.547,152.6744 C79.224,152.8814 78.863,152.8784 78.533,153.0014 C78.238,153.1114 77.913,153.3234 77.968,153.6584 C78.023,153.9944 78.41,153.9514 78.674,153.9284 C79.746,153.8344 80.814,153.6804 81.888,153.6084 C84.697,153.4204 87.503,153.2374 90.327,153.3224 C91.413,153.3554 92.504,152.8984 93.634,153.0244 C93.858,153.0494 94.241,152.9814 94.125,152.6854 C93.653,151.4854 94.875,150.3634 94.041,149.0014 C93.511,148.1364 94.914,147.2194 95.655,147.0594 C97.898,146.5754 99.728,145.3534 101.627,144.2354 C103.114,143.3594 104.769,142.7834 106.164,141.7744 C106.006,141.2604 105.574,141.2924 105.354,141.4124 C104.286,141.9934 103.046,141.9364 101.939,142.5294 C100.351,143.3814 98.566,143.8704 96.866,144.5154 C96.718,144.5714 96.565,144.6224 96.424,144.6934 C94.576,145.6244 93.702,145.3804 92.555,143.6114 C91.591,142.1254 92.047,141.0424 94.254,140.3414 C97.556,139.2924 100.776,138.0714 103.902,136.5834 C104.401,136.3464 104.733,136.0614 104.988,135.2654 C103.081,136.1024 101.369,136.7974 99.708,137.5974 C97.816,138.5094 95.871,137.9114 94.904,136.0654 C94.383,135.0714 94.644,134.3864 95.565,133.8224 C96.838,133.0434 98.259,132.7274 99.684,132.4114 C102.555,131.7734 104.995,130.1834 107.546,128.8444 C109.039,128.0604 110.473,127.1634 111.951,126.3504 C112.197,126.2144 112.502,126.2114 112.46,125.8274 C112.407,125.3504 112.02,125.3774 111.732,125.4344 C110.407,125.6974 109.075,125.9494 107.774,126.3064 C105.944,126.8084 104.098,127.2454 102.274,127.7784 C101.06,128.1344 100.401,126.9084 99.672,126.2024 C98.551,125.1194 99.008,123.7904 100.517,123.3904 C101.015,123.2574 101.501,123.0734 101.981,122.8844 C104.698,121.8124 107.199,120.3364 109.659,118.7794 C110.287,118.3824 110.977,118.0824 111.49,117.3664 C110.479,116.9624 109.692,117.6064 108.896,117.8524 C107.178,118.3834 105.797,117.9754 104.596,116.7154 C103.677,115.7514 103.617,114.9844 104.57,114.0954 C107.16,111.6804 109.844,109.3784 112.918,107.5794 C113.429,107.2804 113.868,106.8574 114.384,106.5694 C115.442,105.9794 116.408,106.2454 117.034,107.2844 C117.339,107.7894 117.67,108.3114 117.816,108.8714 C118.027,109.6744 118.274,110.6074 116.936,110.7404 C116.79,110.7544 116.642,110.8504 116.514,110.9374 C116.16,111.1764 115.623,111.4554 115.751,111.8724 C115.904,112.3704 116.536,112.2634 116.905,112.1014 C117.911,111.6604 119.032,111.8374 120.038,111.4304 C120.241,111.3494 120.518,111.3864 120.745,111.4384 C122.035,111.7314 123.339,113.9144 123.047,115.1924 C122.959,115.5764 122.729,115.6534 122.432,115.8014 C119.773,117.1174 117.459,118.9894 114.919,120.4994 C114.742,120.6054 114.459,120.6884 114.467,121.1624 C115.656,121.3764 116.861,121.1994 118.06,121.0704 C119.405,120.9254 120.748,120.7624 122.065,120.4344 C122.992,120.2034 123.629,120.6374 123.967,121.4644 C124.173,121.9694 124.39,122.4754 124.579,122.9824 C124.946,123.9704 124.478,124.5734 123.477,124.7914 C123.249,124.8404 122.937,124.8224 122.899,125.1114 C122.86,125.4094 123.06,125.6334 123.352,125.7334 C124.827,126.2434 124.645,127.7834 125.22,128.8394 C125.439,129.2444 124.824,129.6184 124.395,129.8414 C122.128,131.0214 119.714,131.9074 117.52,133.2394 C117.32,133.3604 117.109,133.4634 116.909,133.5834 C116.629,133.7504 116.335,133.9234 116.498,134.3264 C116.66,134.7284 117.054,134.7014 117.312,134.5774 C117.912,134.2914 118.593,134.4084 119.169,134.1664 C120.442,133.6294 121.366,134.1254 121.775,135.2434 C122.413,136.9864 123.685,138.4274 124.017,140.3184 C124.161,141.1444 123.526,141.9054 123.706,142.4084 C123.88,142.8944 124.839,143.2094 125.01,143.9354 C125.182,144.6604 125.238,145.3874 125.606,146.0824 C125.928,146.6884 125.43,147.0054 124.861,147.1564 C123.685,147.4674 122.453,147.5554 121.364,148.2094 C120.216,148.8984 119.011,149.4944 117.824,150.1214 C117.633,150.2224 117.47,150.3224 117.532,150.5644 C117.64,150.9884 117.977,150.9434 118.303,150.9304 C119.42,150.8874 120.539,150.7984 121.655,150.8224 C123.454,150.8614 125.25,150.9744 127.047,151.0624 C127.408,151.0804 127.868,151.2004 128.09,150.9424 C128.867,150.0424 129.621,149.1544 130.687,148.5504 C130.995,148.3754 130.868,147.8934 130.6,147.5014 C129.483,145.8744 129.735,145.1714 131.486,144.1264 C132.894,143.2864 134.512,143.0224 135.96,142.2944 C139.745,140.3914 143.166,137.9214 146.709,135.6344 C149.292,133.9674 151.694,132.0624 154.24,130.3544 C154.531,130.1594 154.644,129.9834 154.556,129.6914 C154.463,129.3784 154.167,129.4404 153.95,129.4834 C153.603,129.5514 153.266,129.6754 152.928,129.7854 C148.029,131.3844 143.251,133.2874 138.625,135.5554 C136.891,136.4054 135.215,137.3854 133.665,138.5444 C132.876,139.1354 132.226,139.0954 131.561,138.4204 C131.506,138.3644 131.441,138.3164 131.386,138.2604 C129.217,136.0624 129.506,135.0034 132.508,133.4844 C136.554,131.4374 140.709,129.5764 144.345,126.7914 C144.934,126.3394 145.685,126.1074 146.341,125.7364 C146.661,125.5544 147.256,125.3804 147.081,124.9754 C146.891,124.5334 146.411,124.8314 146.06,125.0214 C145.677,125.2274 145.286,125.4234 144.885,125.5884 C141.93,126.8084 139.077,128.2754 136.006,129.2124 C135.788,129.2784 135.597,129.4424 135.401,129.5744 C134.454,130.2174 133.586,130.2094 132.698,129.4004 C131.406,128.2224 131.133,127.5084 131.617,126.2714 C131.745,125.9464 131.91,125.7804 132.278,125.6914 C136.404,124.7024 140.009,122.6104 143.611,120.4544 C146.117,118.9554 148.381,117.1034 150.933,115.6874 C151.14,115.5724 151.317,115.4034 151.511,115.2624 C151.716,115.1124 151.893,114.9114 151.793,114.6624 C151.664,114.3354 151.399,114.5614 151.179,114.5764 C147.683,114.8114 144.446,116.1574 141.08,116.9484 C140.436,117.0994 139.827,117.4314 139.227,117.7314 C137.944,118.3744 136.542,117.9044 135.945,116.6014 C135.18,114.9254 135.418,114.4804 137.252,113.7214 C139.999,112.5834 142.557,111.0934 144.972,109.3574 C145.45,109.0134 145.88,108.5894 146.479,108.4314 C146.791,108.3484 146.941,108.1044 146.864,107.7894 C146.792,107.4914 146.505,107.5094 146.275,107.4994 C145.997,107.4864 145.717,107.5074 145.438,107.5284 C143.68,107.6664 141.959,105.9744 142.093,104.2324 C142.116,103.9184 142.147,103.6534 142.461,103.4164 C145.21,101.3384 147.929,99.2194 150.677,97.1384 C151.37,96.6124 152.021,96.6694 152.671,97.3644 C153.879,98.6584 154.1,99.9604 153.282,101.1544 C152.897,101.7164 152.079,101.5984 151.747,102.2804 C152.351,102.7544 152.927,102.4394 153.533,102.3184 C154.95,102.0344 156.328,101.4964 157.816,101.6194 C159.026,101.7194 160.695,104.1094 160.332,105.2554 C160.179,105.7384 159.712,105.9174 159.339,106.0214 C157.438,106.5524 155.966,107.8834 154.219,108.6994 C153.472,109.0484 152.706,109.3594 151.96,109.7104 C151.67,109.8454 151.456,109.9924 151.51,110.3144 C151.559,110.6034 151.846,110.6414 152.078,110.6494 C152.477,110.6644 152.899,110.7164 153.27,110.6104 C155.881,109.8634 158.572,109.3474 160.93,107.8774 C162.322,107.0084 163.622,107.5234 164.018,109.0824 C164.091,109.3724 164.315,109.5624 164.374,109.8124 C164.578,110.6854 164.676,111.4644 163.658,112.0614 C162.037,113.0144 160.517,114.1374 158.948,115.1824 C158.712,115.3394 158.394,115.4764 158.585,115.8134 C158.767,116.1364 158.997,115.8074 159.191,115.7524 C161.052,115.2334 162.935,114.7804 164.681,113.9144 C166.222,113.1504 167.246,113.6234 167.624,115.3244 C167.779,116.0204 168.62,116.5034 168.351,117.2464 C168.081,117.9904 167.15,117.8924 166.555,118.2654 C163.86,119.9504 161.114,121.5534 158.394,123.1974 C158.156,123.3404 157.635,123.3394 157.83,123.7994 C158.031,124.2714 158.4,124.0334 158.734,123.8714 C160.54,122.9964 162.475,122.3744 164.114,121.1774 C164.727,120.7294 165.186,120.8904 165.827,121.1994 C166.899,121.7164 166.657,122.8134 167.123,123.5824 C167.757,124.6264 167.286,125.2254 166.329,125.8514 C164.917,126.7754 163.59,127.8564 162.342,128.9964 C161.536,129.7314 160.631,130.3384 159.752,130.9264 C159.176,131.3124 158.984,131.8544 158.542,132.2774 C159.246,132.1454 159.861,131.8824 160.498,131.5804 C162.591,130.5854 164.736,129.6844 167.09,129.4944 C167.881,129.4304 168.348,129.8394 168.535,130.6164 C168.647,131.0804 168.724,131.6194 169.01,131.9604 C169.864,132.9774 169.261,133.4484 168.465,134.0374 C167.396,134.8284 166.316,135.5974 165.068,136.2964 C165.714,136.8194 166.267,136.6054 166.846,136.3614 C168.267,135.7614 169.309,135.9224 169.946,136.8084 C170.785,137.9714 170.478,139.8174 169.234,140.4124 C168.248,140.8844 167.512,141.6664 166.602,142.2104 C165.981,142.5814 166.009,142.9924 166.407,143.4614 C166.959,144.1114 167.506,144.7734 168.118,145.3644 C169.206,146.4134 169.181,147.8374 167.945,148.6984 C166.7,149.5664 165.645,150.7004 164.203,151.3004 C163.852,151.4464 163.28,151.7174 163.446,152.2034 C163.584,152.6074 164.144,152.4414 164.535,152.4604 C171.8,152.8064 179.081,152.7944 186.33,153.4194 C188.019,153.5654 189.293,152.7314 190.594,152.0744 C192.25,151.2374 193.943,150.5184 195.661,149.8504 C196.145,149.6624 196.392,149.1154 197.014,149.1594 C196.483,148.6364 195.807,148.7504 195.233,148.5854 C194.243,148.3014 193.99,147.6984 194.142,146.7864 C194.194,146.4714 194.255,146.1574 194.295,145.8404 C194.439,144.6984 194.132,144.4004 192.981,144.6094 C189.603,145.2254 186.198,145.5004 182.767,145.4964 C181.83,145.4954 181.363,145.1834 181.421,144.1524 C181.559,141.7354 182.366,141.0134 184.815,140.6514 C186.114,140.4584 187.345,139.7914 188.6,139.3204 C188.802,139.2444 188.859,139.0224 188.818,138.8124 C188.769,138.5624 188.551,138.5384 188.354,138.5334 C187.876,138.5224 187.364,138.4214 186.924,138.5524 C185.697,138.9174 184.555,138.4164 183.392,138.2684 C182.649,138.1724 182.117,137.5554 182.28,136.6914 C182.419,135.9564 182.596,135.2124 182.881,134.5244 C183.201,133.7544 183.729,133.2204 184.723,133.4574 C186.151,133.7974 187.346,133.1364 188.686,132.3374 C187.672,132.1824 186.793,132.3244 186.029,132.5814 C184.686,133.0334 183.345,132.9724 182.013,132.8204 C181.426,132.7524 180.938,133.1814 180.318,132.8814 C179.05,132.2674 178.685,131.1374 179.359,129.4384 C180.019,127.7774 181.559,127.0934 182.979,126.3404 C183.532,126.0474 183.536,125.9474 183.292,125.4254 C182.849,124.4794 183.284,123.6134 183.684,122.7144 C184.144,121.6774 184.772,121.3724 185.902,121.3944 C186.919,121.4134 187.831,120.7204 188.748,120.2444 C188.874,120.1784 189.06,119.9614 189.036,119.9194 C188.943,119.7604 188.788,119.5474 188.636,119.5304 C188.245,119.4854 187.836,119.4844 187.449,119.5544 C185.751,119.8614 183.87,118.3884 183.144,117.0354 C182.679,116.1644 183.372,115.5104 183.394,114.7354 C183.435,113.2814 184.228,112.1394 185.185,111.1324 C185.481,110.8214 185.825,110.4194 186.394,110.5024 C186.923,110.5794 187.216,110.2634 187.573,109.8764 C188.322,109.0654 188.97,108.1414 189.984,107.6114 C189.642,107.0034 189.212,107.2974 188.861,107.3054 C187.574,107.3354 187.269,106.9614 187.712,105.8524 C187.806,105.6184 187.802,105.3834 187.642,105.1724 C187.474,104.9524 187.223,104.7324 187.485,104.4474 C187.714,104.1984 188.001,104.1264 188.356,104.2404 C190.181,104.8244 192.103,104.3644 193.537,103.5784 C195.39,102.5614 197.2,102.9004 199.033,102.6864 C199.309,102.6534 199.594,102.7134 199.871,102.6874 C200.658,102.6154 201.538,102.3274 201.656,103.5824 C201.799,105.0974 201.412,105.5814 200.005,105.7334 C198.192,105.9294 196.497,106.4374 195.103,107.6894 C196.508,107.7734 197.775,107.2444 199.069,106.8974 C200.434,106.5314 200.991,106.8214 201.144,108.1764 C201.176,108.4504 201.28,108.7154 201.346,108.9854 C201.634,110.1774 201.317,110.8044 200.128,111.0914 C197.823,111.6464 195.485,112.0704 193.193,112.6704 C191.513,113.1114 189.803,113.4854 188.191,114.1714 C187.826,114.3274 187.375,114.4294 187.523,114.9824 C187.649,115.4554 188.051,115.6044 188.466,115.5204 C191.058,114.9964 193.725,115.0044 196.269,114.0514 C199.265,112.9304 202.338,111.9904 205.457,111.2304 C206.151,111.0624 206.858,110.8974 207.512,110.6184 C208.359,110.2564 208.803,110.3494 209.258,111.2804 C210.145,113.0944 209.526,114.7314 207.615,115.1904 C204.688,115.8924 201.953,117.1014 199.005,118.4404 C200.353,119.1034 201.337,118.3474 202.329,118.1294 C205.765,117.3764 209.076,116.0904 212.628,115.8154 C213.647,115.7364 214.675,115.5084 215.652,115.2014 C216.282,115.0024 216.536,115.1924 216.741,115.7064 C217.139,116.7014 217.171,117.7474 216.996,118.7684 C216.896,119.3434 216.455,119.7574 215.76,119.8214 C210.993,120.2594 206.463,121.5704 202.058,123.4254 C199.297,124.5874 196.458,125.5644 193.64,126.5864 C193.247,126.7294 192.909,126.8734 193.041,127.2864 C193.165,127.6714 193.613,127.5484 193.879,127.4444 C196.771,126.3044 199.872,125.9704 202.861,125.2344 C205.146,124.6714 207.519,124.3064 209.848,123.8404 C212.117,123.3864 214.366,122.9684 216.69,123.1204 C216.872,123.1324 217.073,123.0514 217.246,122.9714 C218.769,122.2664 219.223,122.5664 219.237,124.2984 C219.263,127.2494 218.686,128.0324 215.868,128.3274 C212.366,128.6934 209.082,129.8704 205.768,130.9114 C204.714,131.2424 203.562,131.1704 202.578,131.7754 C202.292,131.9504 201.919,132.0934 202,132.4024 C202.102,132.7864 202.527,132.6684 202.83,132.5924 C205.859,131.8304 208.862,130.9414 211.921,130.3274 C214.764,129.7544 217.638,129.2674 220.555,129.1664 C220.753,129.1594 220.962,129.1654 221.148,129.1084 C222.487,128.7014 222.669,128.8214 222.743,130.2054 C222.757,130.4444 222.769,130.6854 222.763,130.9244 C222.714,132.9994 222.216,133.6464 220.12,133.8384 C217.499,134.0784 214.909,134.4684 212.318,134.9234 C209.297,135.4544 206.389,136.3644 203.493,137.3234 C201.278,138.0574 199.101,138.8984 196.893,139.6534 C196.479,139.7944 196.216,139.9534 196.354,140.3874 C196.488,140.8054 196.906,140.7044 197.179,140.6244 C200.119,139.7614 203.205,139.4994 206.1,138.4764 C206.974,138.1674 207.887,138.1024 208.764,137.9204 C212.797,137.0874 216.686,135.7294 220.679,134.7504 C222.584,134.2844 224.55,133.9564 226.408,133.2634 C227.077,133.0134 227.516,133.1014 227.533,134.0334 C227.55,134.9194 227.521,135.8004 227.368,136.6564 C227.177,137.7204 226.206,137.9204 225.338,138.1874 C224.709,138.3814 223.948,138.1004 223.44,138.7184 C221.437,138.8074 219.591,139.5914 217.686,140.0944 C215.644,140.6334 213.666,141.4234 211.663,142.1134 C211.407,142.2014 210.902,142.1144 211.029,142.5684 C211.147,142.9934 211.531,143.0934 211.998,142.9164 C213.208,142.4584 214.421,141.9974 215.659,141.6254 C217.76,140.9954 219.767,140.0714 221.949,139.6824 C222.498,139.5834 223.358,139.6414 223.404,138.6824" id="Fill-334" fill="#000000"></path>
                <path d="M178.0811,0.538148234 C179.8101,0.353980957 180.9661,1.58684598 182.0371,2.7375982 C184.5411,5.42855191 186.7631,8.50543578 189.5101,10.858554 C193.5761,14.3413097 196.5611,19.0991598 200.2561,23.0124212 C201.3791,24.2018838 202.4011,25.5262459 203.5011,26.7555918 C203.9631,27.2705563 204.1651,27.2412303 204.6661,26.8857992 C208.5751,24.1139058 212.3901,21.1918632 215.9671,17.8451801 C217.0651,16.816424 218.3871,16.1735981 219.7931,15.9225676 C221.4311,15.6304806 222.9671,15.0580371 224.4561,14.1899875 C226.0981,13.2327869 227.6471,14.1266434 229.0901,14.9465983 C230.9931,16.0269681 232.6361,17.608226 234.2031,19.2586933 C234.7741,19.8604628 235.2371,20.6463996 235.6281,21.4311633 C237.4961,25.1813721 240.3541,27.7702714 243.1511,30.4530138 C244.7211,31.9580241 246.5251,33.129891 247.9751,34.7580705 C249.6391,36.6267232 251.0841,38.7792516 252.5181,40.9083192 C254.6441,44.0696619 256.6531,47.3400974 258.7631,50.5190357 C259.7491,52.0052774 261.1321,53.0281682 262.2641,54.371299 C264.8301,57.4165108 267.1731,60.5977952 268.7901,64.4723463 C269.9561,67.2665275 271.5981,69.7193541 273.0321,72.3223298 C274.6871,75.3253122 276.2551,78.3975039 277.4831,81.6796698 C278.2811,83.8110834 279.5361,85.5765086 280.7031,87.4017588 C283.1251,91.1883318 285.5761,94.9514441 288.1051,98.6383088 C289.3581,100.465905 291.1251,101.665925 292.6801,103.115802 C295.3251,105.581532 298.2071,107.681274 300.7391,110.333517 C303.6401,113.369345 306.3831,116.592859 309.0811,119.864467 C311.0341,122.231662 312.9101,124.676277 315.1101,126.742001 C317.3621,128.855819 319.6511,130.896908 322.0971,132.706909 C324.8301,134.72923 327.2981,137.191441 329.8731,139.476523 C331.2021,140.654255 332.8151,141.408519 333.7701,143.128196 C334.2041,143.907095 334.8841,144.651975 334.1891,145.688942 C333.9351,146.066661 333.6461,146.337633 333.1861,146.213291 C332.1591,145.9388 331.0861,145.920031 330.1111,145.351107 C329.6391,145.075442 329.0911,144.786875 328.9461,144.237892 C328.3961,142.140496 326.8761,141.075376 325.5941,139.797936 C321.1601,135.38144 315.9601,132.137985 311.6871,127.483362 C309.2921,124.874521 307.0361,122.086205 304.7811,119.297889 C301.2171,114.888432 297.2531,110.998631 293.0341,107.445493 C288.0311,103.229587 283.6271,98.3098576 280.3911,92.0411319 C279.2701,89.872181 277.8041,87.9378381 276.4011,85.9882456 C274.8941,83.8908501 273.8931,81.4497539 272.8621,79.0485411 C271.3331,75.4848456 269.4931,72.1487199 267.7511,68.7386927 C266.4921,66.2753087 265.2671,63.789637 264.0311,61.3098305 C262.9151,59.0704972 261.3751,57.2311705 259.7571,55.5337816 C257.0201,52.6621798 254.7481,49.3459957 252.5651,45.921892 C250.2061,42.2209509 247.7121,38.6478711 244.7301,35.6120436 C243.1411,33.9944215 241.3531,32.6465986 239.7201,31.0864554 C237.4961,28.96208 235.3851,26.6687868 233.5891,24.0493886 C232.9271,23.0816306 232.5351,21.8464195 231.7441,20.9291022 C230.6011,19.602394 229.2441,18.7718817 227.7151,18.2545711 C227.1411,18.0598464 226.6821,18.3812594 226.2341,18.6217326 C224.8401,19.368959 223.3111,18.9806828 221.8901,19.4205728 C220.1671,19.9519599 218.8691,21.3162054 217.4901,22.5303018 C215.1211,24.6159669 212.7351,26.6769981 210.3521,28.7427215 C210.2271,28.8518142 210.0541,28.8870054 209.9341,29.0031364 C207.7581,31.0923206 207.7261,31.1216466 209.3661,33.7938317 C212.2021,38.4120901 214.9071,43.1746324 218.2721,47.2873106 C221.2721,50.9542336 223.8161,55.0950647 227.0411,58.5344179 C228.4941,60.0851768 229.5871,62.0981134 230.8561,63.8893454 C231.6961,65.0729428 232.8601,65.8964168 233.5111,67.3075839 C233.7951,67.925776 234.0671,68.5275455 233.7601,69.1386993 C233.3981,69.8554268 232.7751,69.511726 232.2701,69.3416352 C231.5141,69.0847395 230.7511,68.8759384 229.9861,68.6671373 C229.2171,68.4583361 228.3181,68.0958668 228.4441,66.635432 C228.5251,65.6923079 227.8211,65.0037334 227.3471,64.2741025 C225.2841,61.1045485 222.7201,58.4593433 220.5871,55.3660369 C217.6471,51.0985175 214.2851,47.2579846 211.5101,42.8215474 C209.5511,39.6895306 207.9301,36.2583887 205.5421,33.4935334 C205.0641,32.9398586 204.6201,32.7439609 203.9911,32.7240192 C201.9951,32.6641942 201.0521,31.5075768 201.1181,29.1403821 C201.1391,28.4213086 200.8101,28.0459358 200.4541,27.6506213 C197.0641,23.8898551 193.9041,19.8616358 190.6051,15.9964691 C189.3531,14.5289961 187.7881,13.4497993 186.4791,12.003441 C184.7871,10.1336153 182.9111,8.4913593 181.1901,6.65437869 C180.2521,5.65260255 179.8781,5.23382728 178.5771,6.48663397 C176.4021,8.58051034 174.9221,11.3946333 172.8951,13.617544 C171.9321,14.6756261 170.8141,15.5413296 169.5031,15.9225676 C168.8511,16.111427 168.3271,16.5829891 167.8911,17.0592433 C164.6191,20.6264579 160.7191,23.1273791 157.0081,25.9356368 C153.0691,28.9163314 148.8481,31.3937919 145.2331,34.9504491 C143.3961,36.7581037 141.6401,38.6807162 139.8461,40.550542 C136.6641,43.8643799 133.5671,47.3236748 130.0641,50.1565664 C126.2841,53.2135086 122.1651,55.6405283 118.0681,58.0698941 C113.1701,60.9755141 108.6671,64.5579782 104.4111,68.6073122 C101.2241,71.6407936 97.9011,74.4525704 94.2581,76.7118454 C91.3851,78.4925201 88.5851,80.4491508 85.6541,82.0867146 C80.8031,84.7999561 76.7591,88.8668857 72.4751,92.5373278 C70.1451,94.5326688 67.7851,96.4599735 65.3521,98.293435 C61.8341,100.946851 58.2261,103.414928 54.6191,105.880658 C51.5201,107.999168 48.5011,110.305364 45.2141,112.025041 C44.7841,112.250265 44.4001,113.202773 43.8051,112.498949 C43.1741,111.752896 42.4921,110.950536 42.3601,109.866647 C42.2561,109.000944 42.9811,108.634955 43.4921,108.268967 C47.1081,105.681241 50.6901,103.01844 54.3921,100.60667 C56.8051,99.0347963 59.1501,97.3327153 61.5441,95.7244774 C63.2321,94.5901478 64.7841,93.1684233 66.3701,91.8335038 C69.7041,89.0252461 73.0211,86.1923546 76.3431,83.3653282 C79.8681,80.3646919 83.5651,77.7230059 87.5121,75.524729 C90.7501,73.7205935 93.9131,71.6935804 96.8141,69.2043896 C100.3081,66.2072724 103.6291,62.9309718 107.1721,60.0206596 C109.9141,57.7672498 112.8511,55.8469833 115.8491,54.04754 C118.9621,52.1777143 122.0981,50.3372145 125.1341,48.3043362 C127.4681,46.74302 129.4271,44.5365318 131.4381,42.4356172 C134.0771,39.6789733 136.8891,37.1498991 139.5191,34.3826977 C141.2571,32.5539284 142.9971,30.7626964 144.8931,29.1532855 C146.5701,27.7268689 148.3091,26.4517744 150.0971,25.2341589 C151.9611,23.9649297 153.6571,22.3473075 155.5481,21.1449416 C159.9631,18.3366839 163.5791,14.173565 167.9131,11.2620797 C170.5281,9.50486584 171.8671,6.46434622 173.7521,3.96929018 C174.4471,3.04845379 175.1791,2.16163557 175.9341,1.3088355 C176.5391,0.624953193 177.2981,0.373922637 178.0811,0.538148234" id="Fill-336" fill="#000000"></path>
                <path d="M26.5596,88.5917 C26.5956,88.3337 26.5386,88.0957 26.8636,87.8937 C28.6946,86.7467 30.4576,85.5097 32.7816,85.5457 C36.2016,85.5987 39.4096,84.7277 42.0216,82.4967 C45.6566,79.3947 49.9806,77.6277 54.3526,76.0977 C57.5246,74.9877 60.8126,74.1247 63.9636,72.9397 C66.5346,71.9727 68.9766,70.6447 71.2986,69.1467 C72.0746,68.6467 72.9556,68.3767 73.8076,68.2987 C75.4126,68.1497 76.4726,67.2847 77.4906,66.1747 C79.5726,63.9047 81.5446,61.5477 83.4186,59.1017 C83.9916,58.3547 84.4136,57.5367 84.9016,56.7487 C86.4936,54.1787 89.0396,52.7897 91.6086,51.4517 C92.9246,50.7657 94.1066,49.8887 95.2976,49.0227 C96.4046,48.2177 99.0986,48.1877 99.9206,49.2657 C101.4676,51.2947 103.8076,52.0437 105.7676,53.4017 C108.0066,54.9517 110.5776,56.0157 112.5246,58.0087 C112.9686,58.4637 113.1676,58.9007 112.8756,59.3397 C112.5686,59.8037 112.1606,59.4367 111.7606,59.2137 C108.6546,57.4727 105.5286,55.7697 102.4076,54.0577 C101.9966,53.8327 101.4986,53.7027 101.1746,53.3907 C99.3436,51.6257 97.7326,52.3407 95.9836,53.6097 C94.7846,54.4807 93.3436,55.0127 92.0456,55.7567 C90.0916,56.8757 88.4616,58.2997 87.9356,60.6287 C87.8756,60.8897 87.7236,61.0477 87.5746,61.2197 C85.0286,64.1627 82.4396,67.0697 79.9446,70.0547 C78.8786,71.3297 77.6986,72.0727 75.9936,72.2497 C73.6766,72.4907 71.8236,73.9987 69.8436,75.0627 C66.9146,76.6367 63.8466,77.7677 60.6856,78.7187 C58.0996,79.4987 55.5726,80.4537 53.0266,81.3497 C50.5836,82.2097 48.4556,83.5177 46.3746,84.9487 C44.8736,85.9807 43.6446,87.4207 41.9246,88.1237 C40.3566,88.7657 38.7556,89.3247 37.0166,89.3977 C35.7886,89.4487 34.5636,89.6397 33.3446,89.8217 C32.7116,89.9167 32.2056,90.2917 31.7056,90.7047 C31.2386,91.0897 30.8436,91.5917 30.1666,91.7217 C28.3076,92.0807 26.4976,90.5337 26.5596,88.5917" id="Fill-338" fill="#000000"></path>
            </g>
        </g>
    </g>
</svg>