<?xml version="1.0" encoding="UTF-8" standalone="no"?>
<svg width="282px" height="291px" viewBox="0 0 282 291" version="1.1" xmlns="http://www.w3.org/2000/svg" xmlns:xlink="http://www.w3.org/1999/xlink">
    <!-- Generator: Sketch 49.1 (51147) - http://www.bohemiancoding.com/sketch -->
    <title>mouse_0001</title>
    <desc>Created with Sketch.</desc>
    <defs></defs>
    <g id="Page-1-Copy" stroke="none" stroke-width="1" fill="none" fill-rule="evenodd">
        <g id="Artboard" transform="translate(-3055.000000, -2832.000000)">
            <g id="mouse_0001" transform="translate(3055.578691, 2831.484595)">
                <polygon id="Path-34" fill="#FFFFFF" points="131 285 27 285 46 171 35 97 67 60 121 75 105 133 93 144"></polygon>
                <path d="M120.5307,271.6898 C120.5307,270.9598 120.5547,269.7368 120.5207,268.5158 C120.5047,267.9448 120.7427,267.2028 120.0317,266.9058 C119.2837,266.5938 119.3287,267.4668 118.9977,267.7778 C114.8927,271.6328 111.5467,276.2868 106.7347,279.3978 C106.4877,279.5578 106.3017,279.8428 106.4787,280.1128 C106.5747,280.2588 106.8777,280.2948 107.0947,280.3328 C107.7347,280.4408 108.1587,279.8388 108.8117,279.8418 C110.6127,279.8488 112.2897,279.2718 113.8757,278.4678 C114.6557,278.0718 115.3467,278.0128 116.1117,278.4638 C116.6667,278.7908 117.2977,278.9908 117.8497,279.3218 C118.6687,279.8128 118.9737,279.4768 119.4257,278.7318 C120.6827,276.6618 120.1837,274.3708 120.5307,271.6898 M32.8177,282.3418 C33.7477,282.8638 33.3997,283.8788 33.7617,284.6588 C34.0817,285.3458 33.4607,285.4338 32.9807,285.4308 C31.5267,285.4208 30.0827,285.4408 28.6827,285.9168 C27.8057,286.2138 27.0747,285.6068 26.2627,285.4848 C23.6927,285.0968 21.2477,285.8278 18.7617,286.2308 C16.3227,286.6258 13.9997,287.4198 11.6487,288.1378 C10.8287,288.3878 9.8257,288.4548 9.0037,287.6858 C8.3567,287.0818 7.4277,287.0418 6.5917,287.1278 C5.1987,287.2708 3.9327,286.9008 3.0217,285.9518 C1.7457,284.6238 0.1707,283.3998 0.1647,281.2668 C0.1597,279.8638 0.8487,279.0038 2.2087,278.7088 C2.6057,278.6228 2.9577,278.5458 2.9767,278.0628 C3.0347,276.6108 4.2277,276.3238 5.2317,275.8108 C7.0657,274.8738 8.9967,274.7148 11.0347,274.6538 C13.1447,274.5898 15.1407,273.7358 17.0927,272.8688 C19.4017,271.8428 22.3197,272.2198 23.3197,275.3488 C23.6207,276.2948 24.6997,277.1738 23.3837,278.2308 C23.0577,278.4928 22.7667,278.7448 22.4677,278.5988 C20.0507,277.4158 18.0097,278.6248 15.8767,279.5038 C13.9677,280.2918 12.1307,281.4838 9.8777,280.8438 C9.1037,280.6248 8.8567,281.4288 8.8207,281.8318 C8.7667,282.4348 9.2757,282.7438 9.9717,282.7068 C11.4257,282.6298 12.8157,282.1878 14.2187,281.9028 C18.1477,281.1048 22.0157,280.0078 26.0907,280.2418 C26.6347,280.2728 27.4637,280.5628 27.6797,279.7598 C27.8327,279.1918 27.1217,278.9308 26.8077,278.5218 C24.7287,275.8098 22.5787,273.1838 22.0217,269.5698 C21.7517,267.8188 20.7227,266.1668 21.0627,264.2928 C21.8737,259.8268 21.4347,255.2988 21.7887,250.8178 C22.0377,247.6618 22.4757,244.4898 23.3587,241.4238 C24.6557,236.9238 25.1137,232.2548 26.1747,227.7168 C26.8527,224.8148 27.3547,221.8688 28.1957,218.9898 C28.6107,217.5678 28.8077,215.9908 28.9727,214.4598 C29.2107,212.2708 30.2657,210.3128 30.8987,208.2328 C31.5377,206.1338 32.2307,204.0508 32.8397,201.9428 C33.0197,201.3218 32.9727,200.6528 32.9017,199.9848 C32.7037,198.1038 33.6247,196.4748 35.2907,195.7228 C35.6077,195.5808 36.0477,195.5988 36.4017,195.6738 C38.0877,196.0348 40.1297,198.3778 40.3107,200.0888 C40.3897,200.8358 40.2667,201.5218 39.6177,201.9648 C38.2787,202.8808 38.0497,204.4088 37.4587,205.7408 C36.0657,208.8808 35.4897,212.2938 34.1977,215.4738 C33.7857,216.4888 33.5657,217.6368 33.5207,218.7348 C33.4317,220.8958 32.5147,222.8468 32.1577,224.9358 C31.7937,227.0678 30.9887,229.0998 30.6257,231.2468 C30.1917,233.8168 29.4907,236.3448 29.1227,238.9228 C28.8507,240.8268 28.3617,242.6578 27.8627,244.4978 C27.0447,247.5158 26.8727,250.6148 26.5537,253.7108 C26.0287,258.8088 25.9807,263.9048 26.1357,269.0068 C26.2447,272.5918 28.3157,275.0828 31.9427,276.3608 C34.5817,277.2918 37.1557,278.4108 39.8667,279.1308 C40.9917,279.4308 42.1937,279.5568 43.3117,279.6378 C47.2837,279.9278 51.1407,280.9008 54.9907,281.6828 C63.4507,283.3988 71.9527,283.2428 80.4627,283.0188 C84.3597,282.9158 88.1647,281.9248 91.8697,280.5198 C94.8667,279.3828 97.8307,278.2338 100.5867,276.5948 C103.8647,274.6448 106.3627,271.7748 109.1987,269.3008 C111.3377,267.4348 112.8817,265.0748 114.8087,263.0378 C116.4217,261.3318 117.1707,259.2158 117.7177,256.8788 C119.2137,250.4788 119.6127,244.0158 119.2737,237.5078 C119.1047,234.2618 119.0277,230.9458 118.0877,227.8068 C117.6227,226.2568 117.6537,224.6388 117.0837,223.1208 C116.8737,222.5608 116.5797,222.1328 116.2017,221.7368 C114.9107,220.3818 114.8517,219.4838 116.1727,218.2178 C116.6347,217.7748 116.5007,217.3298 116.3937,216.9518 C115.6607,214.3688 114.8637,211.8048 114.0927,209.2328 C113.6357,207.7108 113.2747,206.1538 112.7217,204.6688 C111.8007,202.1908 110.4467,199.9058 109.5877,197.3788 C108.7167,194.8198 108.0197,192.2068 107.0257,189.6788 C105.8587,186.7128 104.4407,183.8618 103.2667,180.9048 C101.6607,176.8558 99.3627,173.1008 98.0757,168.9248 C97.2067,166.1078 95.8597,163.4858 94.9407,160.6888 C94.4997,159.3458 93.1507,158.5078 92.5077,157.2048 C92.1527,156.4828 92.1587,155.9298 92.5287,155.2578 C92.8917,154.5968 93.3787,154.3398 94.1267,154.3808 C95.9677,154.4818 98.2137,156.3878 98.9777,158.1108 C99.7977,159.9608 100.6247,161.7988 101.3317,163.7008 C102.3427,166.4138 103.5737,169.0448 104.5647,171.7658 C105.4377,174.1628 106.9507,176.2718 107.6847,178.6998 C108.3587,180.9278 109.7017,182.8558 110.3027,185.1078 C110.4937,185.8228 111.1367,186.4038 111.4447,187.1018 C112.7447,190.0508 113.8687,193.0608 114.8267,196.1488 C115.6637,198.8448 116.8327,201.4418 117.9297,204.0508 C119.1617,206.9808 120.0297,210.0308 121.0777,213.0198 C122.2667,216.4098 122.1907,219.9428 122.7857,223.3938 C123.0037,224.6608 123.3387,225.9438 123.8607,227.1128 C124.7547,229.1158 124.5207,231.2658 124.8537,233.3318 C125.9227,239.9778 125.6727,246.6928 125.5417,253.3948 C125.5327,253.8648 125.5227,254.3368 125.5467,254.8058 C125.5907,255.6708 126.0347,255.7278 126.6357,255.2788 C128.1917,254.1198 129.6567,252.8158 131.3057,251.8138 C132.3767,251.1638 133.7267,250.9908 134.9177,250.5168 C137.3847,249.5348 140.0697,249.4968 142.5657,248.7368 C147.2097,247.3248 151.3217,248.6108 155.0837,251.1358 C158.8797,253.6828 161.0607,257.4378 162.2797,261.8558 C163.1127,264.8748 164.0047,267.8888 164.8697,270.8988 C165.3517,272.5778 165.9067,274.2608 166.2997,275.9838 C166.7907,278.1378 167.8987,280.2138 169.8857,281.2138 C170.8557,281.7028 172.2507,282.3338 173.6247,281.7358 C174.1167,281.5218 174.7337,281.5158 175.2887,281.5358 C178.2487,281.6458 180.8797,280.4658 183.5817,279.5208 C186.7647,278.4068 189.3667,276.1638 192.5247,275.0108 C195.3277,273.9868 198.1287,272.9768 201.0757,272.3968 C202.2607,272.1638 203.4187,271.9098 204.6357,271.8008 C207.6657,271.5318 210.1737,272.8268 212.3937,274.5178 C215.9147,277.1998 219.4827,279.7828 223.6647,281.2668 C225.9167,282.0648 228.1887,282.8658 230.6097,283.2328 C233.0567,283.6048 235.4797,284.3078 237.8257,285.1168 C239.2387,285.6048 240.6997,285.5388 242.0867,285.6978 C244.7357,286.0028 247.3897,287.0488 250.1347,286.1808 C250.7447,285.9878 251.4407,286.0358 252.0977,286.0278 C255.1927,285.9908 258.0617,284.9668 260.9727,284.0808 C263.3927,283.3438 265.8457,282.7018 268.3097,282.1278 C270.2017,281.6858 272.0207,281.0598 273.7667,280.2408 C274.2807,279.9998 274.6237,279.4298 274.6367,278.7508 C274.6697,276.9408 276.9377,276.5888 278.0427,277.2088 C279.2997,277.9118 280.1627,278.9908 280.8427,280.2058 C281.5517,281.4728 280.4417,283.3948 278.8077,284.2888 C275.9327,285.8598 272.7177,286.2508 269.6547,287.1738 C267.1827,287.9188 264.6717,288.5218 262.1887,289.2128 C259.8527,289.8628 257.4907,290.6578 254.9797,290.5558 C253.2597,290.4868 251.6097,291.1698 249.8477,291.0178 C247.7517,290.8358 245.6777,290.6068 243.6307,290.1148 C242.1057,289.7488 240.5297,289.9568 238.9667,289.4898 C237.3847,289.0178 235.7457,288.6478 234.1257,288.2528 C231.4237,287.5948 228.7447,286.8698 226.0747,286.0828 C221.5417,284.7478 217.3277,282.7398 213.8257,279.6388 C210.4937,276.6888 206.9957,276.2468 202.9457,277.4398 C200.3917,278.1928 197.7717,278.7608 195.3477,279.8648 C193.0997,280.8898 191.0227,282.2978 188.7527,283.2608 C185.8017,284.5128 182.9097,285.9108 179.5657,286.1368 C178.0227,286.2418 176.4597,286.6038 174.8697,286.6608 C171.3437,286.7868 168.9207,284.8578 166.8487,282.3698 C165.9537,281.2948 165.0247,280.2538 164.2957,278.9908 C163.3107,277.2848 162.9817,275.4108 162.2807,273.6458 C160.9137,270.2028 160.2437,266.5348 159.0827,263.0108 C158.2637,260.5288 157.2797,258.2158 155.8867,256.0388 C154.6677,254.1338 152.6267,253.7218 150.6777,253.2288 C147.5957,252.4478 144.6097,253.0018 141.5107,253.6368 C135.3267,254.9038 130.4167,258.0458 126.2857,262.6268 C124.9127,264.1478 125.4597,266.0438 125.7627,267.6928 C126.1247,269.6688 126.0837,271.5738 125.8537,273.5188 C125.7937,274.0288 125.6947,274.5348 125.6347,275.0448 C125.4967,276.2088 125.5467,276.9008 127.1707,277.1008 C129.3337,277.3668 131.8497,279.7078 131.2767,281.7948 C131.1467,282.2698 131.0887,282.5298 130.5337,282.7588 C128.2447,283.7038 125.9117,284.2348 123.4327,284.4778 C121.5727,284.6598 119.6997,285.0678 117.8787,284.7248 C114.8767,284.1598 112.0157,284.9248 109.1947,285.5238 C107.0087,285.9878 104.8217,286.6378 102.6547,287.2768 C100.8077,287.8218 98.5687,287.0978 97.3777,285.4848 C97.0357,285.0218 96.7417,284.7888 96.2447,285.0148 C89.2137,288.2098 81.7267,288.3058 74.2197,288.2698 C71.5367,288.2568 68.8467,288.3618 66.1737,288.1958 C62.4937,287.9668 58.7817,287.6098 55.1917,286.9208 C50.4817,286.0168 45.7677,285.3388 41.0177,284.7438 C38.5547,284.4348 36.0447,283.8068 33.9417,282.2438 C33.6447,282.0228 33.2617,281.9458 32.8177,282.3418" id="Fill-432" fill="#000000"></path>
                <path d="M70.2402,16.599 C70.6172,14.203 69.5262,11.9 68.8602,9.542 C68.5232,8.35 68.1982,7.075 67.3222,6.063 C66.4632,5.072 65.7692,5.007 65.2022,6.123 C64.7852,6.945 64.2262,7.684 63.7442,8.435 C61.3022,12.238 60.1492,16.341 60.6522,20.808 C61.0562,24.399 61.6682,27.977 62.1232,31.557 C62.5972,35.285 63.1822,38.974 63.8932,42.659 C64.5572,46.093 65.2812,49.496 66.6712,52.725 C66.8642,53.172 66.7572,53.925 67.5002,53.766 C68.2092,53.614 67.8492,52.911 67.8722,52.451 C67.9432,51.043 67.7042,49.563 68.0572,48.236 C68.6622,45.962 68.5312,43.627 68.9782,41.35 C69.2612,39.912 69.1922,38.439 69.4672,36.962 C70.1312,33.395 70.3912,29.752 70.7842,26.137 C71.1262,22.99 70.3452,19.895 70.2402,16.599 M110.2582,90.687 C110.1212,87.129 110.7012,83.564 109.2732,80.037 C107.4942,75.647 104.6082,72.303 100.7852,69.741 C97.1282,67.289 93.2122,65.296 88.8462,64.353 C86.7882,63.908 84.7592,63.259 82.6792,63 C80.1112,62.681 77.7122,63.291 75.3102,64.466 C72.2032,65.986 69.0932,67.538 66.6172,69.887 C63.5802,72.769 60.6722,75.801 57.6572,78.721 C55.2602,81.044 53.3492,83.796 51.5992,86.619 C49.8512,89.438 48.3782,92.421 46.9732,95.438 C45.6612,98.259 44.5482,101.144 43.5582,104.085 C43.4252,104.479 43.1572,104.852 43.1232,105.25 C42.9072,107.721 41.8262,109.972 41.1792,112.314 C40.1872,115.907 39.3682,119.513 39.2142,123.187 C38.9942,128.434 38.9382,133.687 39.5032,138.952 C39.8962,142.608 40.2282,146.271 40.6682,149.927 C41.1872,154.242 42.3622,158.381 43.6932,162.485 C44.2362,164.161 44.8492,165.929 47.2312,165.662 C47.5322,165.629 47.8332,165.84 48.1332,165.961 C50.3722,166.87 51.6852,168.903 53.4872,170.336 C54.2102,170.912 54.6662,171.492 55.4232,170.417 C55.8042,169.876 56.3782,169.462 56.8952,169.027 C60.7132,165.816 64.5582,162.638 68.3562,159.403 C72.3042,156.042 76.4552,152.917 80.1802,149.297 C82.7562,146.794 85.6942,144.716 88.2712,142.198 C90.5282,139.993 92.7502,137.756 94.8542,135.416 C96.0112,134.13 97.1852,132.876 98.4192,131.665 C99.8762,130.235 100.7052,128.382 101.6412,126.611 C103.4252,123.235 104.9212,119.714 106.2022,116.137 C107.2862,113.11 108.1532,109.99 108.7232,106.78 C109.3232,103.401 109.9392,100.028 110.2282,96.613 C110.3942,94.651 110.2582,92.663 110.2582,90.687 M140.0732,88.349 C135.6802,88.724 131.3652,87.681 126.9902,87.66 C125.2502,87.652 123.7902,88.092 122.3822,88.939 C120.7982,89.891 118.8832,89.476 117.7642,88.008 C116.7152,86.632 117.2882,85.489 118.0932,84.341 C119.2482,82.691 120.3032,82.304 122.1192,82.812 C122.4762,82.912 122.8302,83.086 123.1912,83.101 C128.8112,83.335 134.3802,84.299 140.0202,84.263 C142.0922,84.249 144.0822,83.791 146.1012,83.433 C147.5602,83.174 149.0362,82.958 150.5062,82.777 C153.3222,82.431 156.0842,81.898 158.7732,81.007 C160.7192,80.362 161.7072,78.993 162.3082,76.988 C162.8522,75.172 162.6882,73.304 163.2442,71.503 C163.7322,69.925 163.1392,68.498 161.7712,67.395 C159.2152,65.333 156.7272,63.186 154.1992,61.088 C153.9262,60.861 153.6912,60.585 153.2492,60.561 C150.9112,60.433 148.5772,60.251 146.2402,60.103 C143.0082,59.899 139.9702,60.726 136.9762,61.833 C133.2972,63.193 129.8902,65.051 126.7342,67.365 C123.1312,70.006 120.0842,73.261 116.9472,76.408 C115.1702,78.192 114.6482,80.277 115.7062,82.701 C115.9912,83.354 115.9492,84.177 115.9502,84.921 C115.9512,89.436 116.2192,93.979 115.8052,98.457 C115.4952,101.808 115.6292,105.319 113.8912,108.483 C113.3182,109.528 113.2972,110.918 113.1862,112.164 C112.9702,114.577 111.8782,116.694 111.1572,118.942 C110.2012,121.929 108.5942,124.6 107.4802,127.495 C106.9862,128.78 106.2552,129.946 105.4922,131.035 C103.4602,133.937 101.3152,136.772 98.6512,139.155 C97.2972,140.366 96.6032,142.072 95.3372,143.4 C93.6252,145.196 91.7652,146.805 89.9552,148.476 C88.1852,150.111 86.3462,151.671 84.5272,153.251 C81.8972,155.536 79.2422,157.791 76.6262,160.091 C72.2102,163.972 67.7142,167.758 63.3342,171.683 C60.4312,174.284 57.6412,177.041 54.4622,179.34 C53.4732,180.055 52.3862,180.61 51.3882,181.312 C50.6732,181.815 49.4432,181.891 48.4882,181.162 C48.0892,180.858 47.6082,180.568 47.1272,180.483 C46.0802,180.299 45.4562,179.698 44.9112,178.837 C43.9362,177.296 42.6622,175.975 41.8042,174.324 C41.3042,173.36 41.3232,172.404 41.3552,171.484 C41.3902,170.485 41.1612,169.41 41.6842,168.454 C41.8412,168.168 41.6292,168.057 41.5032,167.867 C39.5492,164.917 38.4342,161.614 37.3342,158.28 C36.4422,155.576 35.9842,152.779 35.2272,150.051 C35.1782,149.874 35.1982,149.677 35.1982,149.489 C35.2072,143.995 34.1442,138.587 33.8482,133.108 C33.6922,130.218 33.3962,127.307 33.5992,124.444 C33.8912,120.32 34.0752,116.169 35.0462,112.102 C35.9962,108.12 37.3132,104.254 38.4172,100.324 C40.0502,94.509 42.9212,89.292 45.9912,84.181 C49.6272,78.127 54.7742,73.365 59.7832,68.487 C62.5642,65.78 65.7172,63.71 69.2432,62.152 C69.5562,62.014 69.9782,61.711 70.0102,61.444 C70.0532,61.077 69.5312,60.78 69.2322,60.79 C66.1992,60.897 65.0052,58.535 63.5082,56.591 C61.3132,53.74 60.4342,50.35 59.3802,46.982 C58.1812,43.152 57.8032,39.17 56.7582,35.326 C56.6742,35.016 56.6922,34.671 56.6972,34.343 C56.7392,31.663 56.3162,29.069 55.6322,26.469 C55.1362,24.584 55.1982,22.561 54.8502,20.628 C54.0202,16.008 55.6162,11.829 57.4252,7.818 C58.3142,5.847 59.3012,3.796 60.6762,2.043 C61.4662,1.035 62.4172,0.6 63.8622,0.604 C67.1572,0.612 69.5482,2.311 71.6942,4.382 C72.9242,5.568 73.4952,7.334 74.0892,8.972 C74.7692,10.847 75.0832,12.794 75.3862,14.771 C75.9032,18.141 75.8552,21.508 75.7942,24.881 C75.7192,28.943 75.3352,32.993 74.5752,36.977 C74.1602,39.152 73.9682,41.4 73.4282,43.485 C72.7932,45.946 72.7512,48.476 72.8192,50.801 C72.8992,53.533 72.4362,56.506 73.7712,59.155 C74.0782,59.764 74.3442,59.943 75.2422,59.775 C77.3552,59.381 79.4842,58.889 81.7272,59.298 C83.3642,59.597 85.0502,59.743 86.7122,59.942 C90.0642,60.345 93.1572,61.429 96.2572,62.663 C98.7572,63.659 101.1492,64.821 103.4182,66.247 C106.2342,68.017 108.8802,69.994 110.8792,72.71 C111.3692,73.376 111.9902,73.295 112.3642,72.734 C113.2552,71.394 114.4972,70.466 115.7222,69.49 C117.2742,68.252 118.6642,66.828 120.1812,65.542 C123.7032,62.559 127.7822,60.696 131.9482,58.811 C138.8562,55.686 146.0492,56.8 153.1682,56.771 C154.8402,56.765 156.4312,57.937 157.6152,59.057 C160.0252,61.34 162.8052,63.183 165.0972,65.596 C165.8392,66.377 166.8792,66.786 167.6412,67.652 C168.8132,68.983 169.1282,70.295 168.6562,71.963 C168.4302,72.757 168.5422,73.641 168.4482,74.479 C168.1192,77.385 167.3132,80.18 165.6322,82.564 C164.4722,84.209 162.5652,84.976 160.6182,85.502 C156.6212,86.584 152.4862,86.967 148.4692,87.888 C145.6482,88.535 142.8572,88.069 140.0732,88.349" id="Fill-434" fill="#000000"></path>
                <path d="M70.6923,220.414 C70.6343,224.026 70.3793,224.078 67.2063,225.701 C66.0203,226.307 65.0723,226.959 63.7113,226.699 C62.7033,226.506 60.7283,224.661 60.5873,223.66 C60.4303,222.556 60.9983,221.514 61.8503,221.23 C63.0853,220.819 64.1223,220.175 65.0623,219.393 C65.9473,218.656 67.3663,218.033 66.3623,216.357 C65.9343,215.641 66.6343,214.936 66.7683,214.215 C67.3253,211.209 67.9333,208.212 68.5113,205.21 C69.0873,202.221 69.5523,199.206 70.2413,196.243 C71.3383,191.527 72.6963,186.914 75.5593,182.86 C76.2823,181.837 77.0213,182.019 77.8123,182.153 C79.2933,182.405 80.1173,183.773 81.3273,184.519 C81.6593,184.724 81.7773,185.631 80.9743,186.143 C78.6673,187.614 77.9653,190.144 76.9683,192.482 C76.0743,194.579 75.6183,196.806 74.9433,198.965 C74.3243,200.946 74.0213,203.026 73.5783,205.062 C72.9293,208.053 72.2943,211.046 71.6303,214.033 C71.1593,216.155 70.6133,218.317 70.6923,220.414" id="Fill-436" fill="#000000"></path>
                <path d="M53.2558,193.0341 C54.3098,199.8641 53.5378,207.3311 53.8458,214.7691 C53.9558,217.4031 52.8708,219.7671 52.6608,222.3181 C52.5218,224.0151 52.9998,225.5691 53.3388,227.1341 C53.5858,228.2681 53.1468,228.9391 52.3828,229.2071 C49.1258,230.3521 45.3318,229.0751 45.3898,224.7631 C45.3998,224.0481 45.6878,223.2981 46.0658,223.0071 C47.9048,221.5881 47.8778,219.6201 48.1648,217.6001 C49.1618,210.5891 48.7338,203.5551 48.6398,196.5331 C48.6188,194.9461 48.2078,193.3121 48.1168,191.6871 C48.0908,191.2221 47.7148,191.0921 47.5218,190.8001 C46.6128,189.4301 46.7958,188.2131 48.0138,187.1171 C48.5568,186.6301 49.0318,186.5881 49.6588,186.8371 C52.9008,188.1211 53.1658,188.5251 53.2558,193.0341" id="Fill-438" fill="#000000"></path>
                <path d="M55.9643,122.7304 C56.4243,121.4294 56.8993,119.6964 57.6513,118.0944 C58.2203,116.8834 59.7393,116.8484 61.1513,117.8664 C62.1423,118.5804 62.7303,119.6404 63.2903,120.6954 C63.3903,120.8824 63.4093,121.1934 63.3243,121.3834 C62.7203,122.7244 62.2833,124.1024 62.0183,125.5574 C61.8323,126.5844 61.0083,126.8664 60.0143,126.8254 C58.2083,126.7514 55.9033,124.6934 55.9643,122.7304" id="Fill-440" fill="#000000"></path>
                <path d="M72.8984,125.4037 C72.7674,124.5527 73.3454,123.8557 73.7024,123.1267 C74.1274,122.2587 74.6434,121.4727 74.7644,120.4607 C74.8804,119.4987 75.8634,119.0517 76.7854,119.5007 C77.7704,119.9797 78.6814,120.5737 79.4124,121.4377 C80.2014,122.3717 80.5874,123.2777 79.8274,124.4247 C79.2994,125.2207 79.0544,126.0107 79.6284,127.0037 C80.0804,127.7827 78.7304,129.1497 77.3774,129.2427 C75.7864,129.3537 72.6854,126.9717 72.8984,125.4037" id="Fill-442" fill="#000000"></path>
            </g>
        </g>
    </g>
</svg>