<?xml version="1.0" encoding="UTF-8" standalone="no"?>
<svg width="220px" height="214px" viewBox="0 0 220 214" version="1.1" xmlns="http://www.w3.org/2000/svg" xmlns:xlink="http://www.w3.org/1999/xlink">
    <!-- Generator: Sketch 49.1 (51147) - http://www.bohemiancoding.com/sketch -->
    <title>pigface</title>
    <desc>Created with Sketch.</desc>
    <defs></defs>
    <g id="Page-1-Copy" stroke="none" stroke-width="1" fill="none" fill-rule="evenodd">
        <g id="Artboard" transform="translate(-1542.000000, -4097.000000)">
            <g id="pigface" transform="translate(1542.000000, 4097.309337)">
                <path d="M114.930771,213.216178 C172.502423,213.216178 219.173468,167.747995 219.173468,111.660149 C219.173468,55.5723025 172.502423,7.95478534 114.930771,7.95478534 C57.3591191,7.95478534 0.148396992,55.5723025 0.148396992,111.660149 C0.148396992,167.747995 57.3591191,213.216178 114.930771,213.216178 Z" id="Oval-118" fill="#FFFFFF"></path>
                <ellipse id="Oval-119" fill="#FFFFFF" cx="177" cy="20.5" rx="19" ry="20.5"></ellipse>
                <ellipse id="Oval-120" fill="#FFFFFF" cx="30.5" cy="30.5" rx="22.5" ry="24.5"></ellipse>
                <path d="M118.03365,96.7484325 C111.382138,97.6501623 104.501678,98.7366563 98.2558439,102.877785 C91.6424893,107.263927 86.3244927,112.774721 81.673254,119.052689 C77.3232613,124.92297 78.4459048,131.60059 84.7720715,135.731677 C87.4230366,137.46083 90.4857046,138.983126 93.5564058,139.561518 C101.957153,141.140048 110.44225,140.575713 118.571876,138.051272 C128.733909,134.89823 137.538326,129.505926 142.597251,119.651164 C144.033191,116.853593 144.685891,113.580052 145.282358,110.447094 C145.842675,107.510949 143.531114,103.799598 140.992614,102.313451 C134.027806,98.2406045 126.195409,97.897184 118.03365,96.7484325 M121.508021,85.4356398 C121.399572,85.4356398 125.40012,84.9074551 129.197828,85.5661798 C134.288886,86.4498348 139.490401,87.6588355 144.173772,89.7695661 C157.836284,95.927035 162.282675,104.853959 159.155742,119.625056 C157.804151,126.003439 155.08892,131.684939 149.921547,136.398435 C130.603643,154.01932 108.53235,156.979564 84.3523354,149.603053 C76.5842044,147.233251 70.7721642,142.136168 66.2956482,135.364157 C60.7728043,127.013617 61.1604075,117.78143 67.6331806,110.310529 C69.3402414,108.342388 71.2300582,106.528887 72.9009695,104.530622 C84.5350913,90.6271131 99.0651915,83.3972083 121.508021,85.4356398" id="Fill-187" fill="#000000"></path>
                <path d="M22.8117877,2.90226036 C31.6724376,2.89824374 38.5709718,6.23404147 44.4874438,11.6544617 C45.8330094,12.8875622 46.5158338,14.9360352 47.2629239,16.7113784 C48.1064128,18.717677 47.3432562,20.5572861 45.9133417,22.0113003 C44.4251863,23.5235554 42.4590539,23.7504941 40.6515777,22.8266729 C38.9344753,21.9490428 37.4684113,20.595444 35.8296329,19.5450995 C34.2089292,18.5047965 32.5681425,17.4564603 30.8329654,16.6290379 C27.0633733,14.8376281 22.5888656,15.9140806 20.3496035,19.0410144 C16.5077124,24.4132353 13.4410278,30.0304697 14.2543921,37.0133527 C14.4753058,38.9051778 14.3246828,40.8472105 14.2644336,42.761127 C14.2162342,44.2432574 11.1877075,45.3759425 9.39830605,44.4119552 C7.73542795,43.514242 5.7913869,42.610504 4.76514208,41.1524732 C0.806769224,35.5392554 -0.854100564,29.5866338 2.78896811,22.9652461 C4.65066859,19.581249 5.80142843,15.8136653 7.53459727,12.3493359 C10.7860461,5.85246316 16.563945,3.41638692 22.8117877,2.90226036" id="Fill-233" fill="#000000"></path>
                <path d="M84.3631802,173.448885 C85.3251592,172.713845 86.2610302,171.404429 87.2471089,171.36828 C89.1047928,171.297989 91.3561048,171.428529 92.8000774,172.416616 C97.6320638,175.722289 102.652831,175.513425 107.844304,173.983095 C114.750872,171.950689 121.639364,169.858033 127.824949,165.973967 C129.447661,164.953747 131.29932,164.27494 133.092738,163.547933 C135.020713,162.766701 138.930886,163.979719 140.149929,165.734979 C141.800757,168.110806 142.116061,170.783862 140.58774,173.043207 C139.517312,174.627762 138.394668,176.393063 136.858314,177.415292 C128.005697,183.305656 117.982237,186.498864 107.75393,188.720051 C99.0720198,190.607859 88.8899039,185.111123 84.8632486,177.226511 C84.3189975,176.162108 84.5117949,174.718135 84.3631802,173.448885" id="Fill-237" fill="#000000"></path>
                <path d="M182.964421,36.093749 C183.197384,34.3766466 183.323907,32.4627301 183.737619,30.6130795 C184.721689,26.2108708 188.437057,22.6180098 187.605618,17.6755666 C187.503194,17.0670496 187.290314,16.2095026 186.854511,15.9745307 C185.850358,15.4262629 184.392327,14.5847823 183.619129,14.9422609 C181.289493,16.0207217 179.158679,17.5570765 177.031882,19.0311737 C175.44532,20.1317259 174.113812,21.6821388 172.412776,22.5095612 C171.490963,22.959422 169.619221,22.7465414 168.910289,22.0677337 C167.608906,20.8225835 165.775322,18.7982101 166.036402,17.4667027 C167.725388,8.85909939 173.328564,4.13957822 182.09884,2.72171357 C186.015039,2.0890969 189.97542,2.63535637 193.475899,4.72198722 C195.136769,5.7100742 196.948261,6.82669283 198.016681,8.35501436 C205.979617,19.7421144 200.167577,34.4770619 190.180267,38.0317651 C189.011433,38.4474846 187.571476,38.6704067 186.408667,38.3771939 C185.263932,38.0859894 184.309986,37.02962 182.964421,36.093749" id="Fill-247" fill="#000000"></path>
                <path d="M135.647505,49.3055966 C139.866958,49.4060119 142.937659,52.187517 143.142507,55.2421517 C143.510027,60.6525305 142.220694,65.5487826 138.927071,69.9188584 C137.748194,71.4853378 133.096956,71.6560438 131.847789,70.0413651 C128.409567,65.5909571 128.013931,56.8487972 131.472235,51.5970747 C132.363924,50.2434759 134.663435,49.8157065 135.647505,49.3055966" id="Fill-359" fill="#000000"></path>
                <path d="M97.938933,61.6990592 C97.7180193,62.9261347 97.4709975,64.7918518 97.0331866,66.6133861 C96.3845035,69.302509 93.9624854,71.4594306 91.8356884,71.1863009 C89.1465655,70.8388638 87.0579264,69.3507084 86.2807116,66.7740506 C85.5717793,64.4142901 85.0938023,61.8777985 85.1319601,59.4296724 C85.1781511,56.344913 88.29906,53.5814828 91.3476699,53.3023281 C94.0247429,53.0573147 97.1958595,55.9894427 97.6678116,59.1605593 C97.762202,59.7851427 97.8043765,60.4177594 97.938933,61.6990592" id="Fill-413" fill="#000000"></path>
                <path d="M118.914293,113.010898 C119.514776,111.773781 119.769831,110.357925 120.619345,109.663051 C123.103621,107.620603 126.463518,107.829466 129.369538,109.861873 C131.831722,111.582992 132.400073,115.370659 130.656863,118.42931 C129.273139,120.853337 126.051815,122.960051 124.571693,122.030204 C123.095587,121.102367 121.743997,119.704585 120.836242,118.210405 C119.876272,116.627859 119.504735,114.687834 118.914293,113.010898" id="Fill-505" fill="#000000"></path>
                <path d="M102.281093,113.032588 C107.699505,112.420054 111.507255,116.354328 110.063283,121.077865 C109.233852,123.795105 106.343898,125.257152 104.034345,124.122459 C101.658518,122.955632 99.7687014,121.35702 98.7765978,118.774337 C97.8507684,116.366377 99.6261117,113.333834 102.281093,113.032588" id="Fill-507" fill="#000000"></path>
            </g>
        </g>
    </g>
</svg>