<?xml version="1.0" encoding="UTF-8"?>
<svg width="515px" height="197px" viewBox="0 0 515 197" version="1.1" xmlns="http://www.w3.org/2000/svg" xmlns:xlink="http://www.w3.org/1999/xlink">
    <!-- Generator: Sketch 51 (57462) - http://www.bohemiancoding.com/sketch -->
    <title>airplane_0005</title>
    <desc>Created with Sketch.</desc>
    <defs></defs>
    <g id="ALL" stroke="none" stroke-width="1" fill="none" fill-rule="evenodd">
        <g id="airplane_0005_DL" transform="translate(-142.000000, -331.000000)">
            <g id="airplane_0005" transform="translate(142.000000, 331.000000)">
                <path d="M10.265625,51.515625 C40.7916667,33.1510417 74.2526042,28.5598958 110.648437,37.7421875 C147.044271,46.9244792 183.546875,56.9765625 220.15625,67.8984375 C340.395833,13.1848958 406.802083,-8.09635417 419.375,4.0546875 C431.947917,16.2057292 397.403646,44.7317708 315.742188,89.6328125 L419.375,119.53125 L462.398437,89.6328125 L442.492187,119.53125 L507.578125,119.53125 L442.492188,155.203125 C402.075521,164.401042 374.955729,169 361.132812,169 C347.309896,169 308.34375,157.666667 244.234375,135 L110.648438,186.765625 L148.5,119.53125 L10.265625,79.4296875 L10.265625,51.515625 Z" id="Path-135" fill="#FFFFFF"></path>
                <path d="M145.318415,105.372008 C145.509638,105.397059 145.70086,105.42211 145.892083,105.448479 C145.70086,105.42211 145.509638,105.397059 145.318415,105.372008 M1.64966603,45.5874344 C1.62856562,45.6085299 1.6021901,45.6283069 1.58240847,45.6494024 C0.082960438,46.9995127 -0.2467335,49.1459772 0.160768207,51.0208375 C0.5418944,52.7678064 1.4175615,54.4567628 2.15871347,56.0679297 C2.72578704,57.2941041 3.36407451,58.4833614 3.97203013,59.6897589 C4.99803767,61.7241537 6.03855173,63.7018543 7.34677728,65.58067 C8.98997187,67.9341338 10.9008779,70.0410443 12.8487097,72.1374071 C14.8941309,74.3418841 17.2481456,76.2787123 19.5665534,78.1838973 C22.4718164,80.5690044 25.6447908,82.5559343 28.8797478,84.4518901 C34.1245189,87.5212815 39.6673334,90.0606492 45.1732222,92.6092462 C48.197175,94.0107768 51.2264029,95.4017596 54.3228883,96.6318894 C57.2743085,97.8013698 60.2732045,98.8258187 63.2655067,99.876637 C66.1813199,100.90636 69.091858,101.967726 72.0393218,102.905156 C75.1344885,103.894006 78.2520744,104.702227 81.4144986,105.423428 C87.5085614,106.819685 93.6342747,108.101235 99.7533942,109.399925 C102.484579,109.976095 105.244776,110.429648 107.985192,110.970219 C111.024971,111.562211 114.059474,112.19112 117.099252,112.79366 C123.347611,114.029063 129.617071,115.168219 135.875981,116.332425 C140.113207,117.118232 144.403185,117.628478 148.68525,118.142681 C151.321482,118.519762 153.955078,118.912665 156.574166,119.432142 C159.62977,120.039955 162.684054,120.653042 165.743614,121.234486 C171.848227,122.398693 177.95284,123.573447 184.016571,124.943334 C190.130415,126.318495 196.199421,127.838688 202.293484,129.306142 C208.646027,130.83029 214.97615,132.405858 221.266711,134.172604 C227.257909,135.852331 233.279439,137.376479 239.302288,138.916449 C245.288211,140.445871 251.217427,142.191521 257.171699,143.844879 C263.430609,145.5813 269.678969,147.352002 275.958979,149.005359 C278.70467,149.731835 281.471461,150.385794 284.222428,151.066123 C287.276712,151.822924 290.330997,152.620596 293.416932,153.223136 C299.383074,154.392616 305.394054,155.314225 311.314038,156.721029 C317.567673,158.214852 323.66701,160.238699 329.782174,162.2164 C332.490939,163.091862 335.231355,163.977872 338.028478,164.507896 C341.016824,165.069563 344.030227,165.507294 347.034398,165.985897 C353.2366,166.9642 359.463859,167.788242 365.749145,167.933273 C371.688911,168.076986 377.639227,167.943821 383.582949,167.943821 C389.914391,167.943821 396.251109,167.95305 402.582551,167.928 C408.655514,167.90163 414.729795,167.103958 420.761875,166.501418 C423.682963,166.212674 426.598777,165.847458 429.523821,165.55344 C432.774603,165.229097 436.025386,164.920576 439.265618,164.497348 C441.92427,164.153228 444.499839,163.621886 447.080683,162.895411 C449.408322,162.241451 451.73728,161.587491 454.101845,161.082518 C459.41783,159.955229 465.219124,159.357963 469.902097,156.386138 C472.281169,154.876493 473.543237,152.10112 472.77571,149.320473 C472.343151,147.759408 471.297362,146.400068 469.902097,145.5813 C468.592553,144.817908 466.543175,144.349852 465.079334,144.952391 C462.668612,145.941242 460.206458,146.786379 457.671771,147.388919 C455.112027,147.996732 452.540414,148.578176 449.975396,149.180715 C447.554123,149.75293 445.184283,150.534781 442.784111,151.194015 C440.560655,151.811057 438.34775,152.231648 436.083412,152.570494 C430.242554,153.212588 424.412246,153.917968 418.572707,154.521826 C415.42479,154.846169 412.276872,155.25753 409.119723,155.494855 C406.049613,155.726905 402.988734,155.845567 399.908074,155.875892 C393.618833,155.937859 387.328272,156.030152 381.044306,156.118489 C375.175754,156.200234 369.30852,156.473157 363.446562,156.288572 C359.90433,156.179139 356.38188,155.885121 352.871299,155.453982 C349.956805,155.034709 347.048904,154.596978 344.138366,154.16584 C342.856516,153.970707 341.541697,153.79535 340.275672,153.492103 C338.719517,153.111066 337.189737,152.668061 335.654682,152.198687 C329.621283,150.364699 323.702617,148.243285 317.608555,146.616297 C311.782203,145.060506 305.831887,144.020235 299.913222,142.896901 C293.922023,141.759064 288.03369,140.126802 282.130849,138.602654 C269.787108,135.423829 257.579201,131.726848 245.298761,128.306744 C239.21393,126.617787 233.07371,125.139786 226.995473,123.419186 C221.204728,121.780331 215.404753,120.194216 209.557301,118.757086 C198.996545,116.157069 188.467439,113.493766 177.8236,111.232594 C172.75027,110.151451 167.645289,109.18897 162.560089,108.152655 C160.000346,107.638453 157.430052,107.08206 154.849208,106.695749 C152.133848,106.29098 149.419808,105.915217 146.697855,105.553957 C134.698314,103.760841 122.858345,101.002608 110.962988,98.6201379 C104.730454,97.3689126 98.5322079,95.9726559 92.3300055,94.5922208 C89.3060527,93.9171656 86.2820999,93.257932 83.2686973,92.5433229 C80.2500196,91.8221213 77.3038746,90.8952389 74.3564108,89.9208917 C71.6476454,89.0256525 68.9731682,88.0104329 66.2841844,87.0479518 C63.5213492,86.06042 60.7769769,85.0452003 58.0576613,83.9416433 C53.0423571,81.6620136 48.0705725,79.278225 43.1132944,76.8601563 C37.7867592,74.2640945 32.6567215,71.358193 27.8247272,67.9407262 C24.1822685,65.0519647 20.6532246,61.9878471 17.6727914,58.4095273 C16.1021295,56.235375 14.7767599,53.8964143 13.3221502,51.6391986 C12.7761771,50.7848319 12.2249288,49.9291467 11.6789556,49.0695061 C11.2147466,48.3351199 10.7821881,47.5374473 10.2836909,46.7977873 C9.58605851,45.5373327 8.254095,44.5577116 6.93400047,44.1924962 C6.4592412,44.061968 5.98843826,44 5.52686674,44 C4.09731383,44 2.75480011,44.5946287 1.64966603,45.5874344" id="Fill-1" fill="#2C2C2C"></path>
                <path d="M44.4640935,23.4852946 C40.7574896,23.7364905 37.0363707,24.2717612 33.3825487,24.9188207 C29.681223,25.5816621 26.0168446,26.5114813 22.5108116,27.8937161 C21.1859877,28.4118897 19.8822766,28.991876 18.6141932,29.6402506 C17.0267797,30.4517053 15.6293808,31.622199 14.249136,32.7321954 C12.2487047,34.3353773 10.5939944,36.3291622 9.33118917,38.5531004 C8.50119492,40.0221358 7.94962482,41.6871303 7.43896063,43.2903122 C7.12490875,44.2766834 6.88739053,45.3143458 6.71848868,46.3362263 C6.32130542,48.8021542 6.02176855,51.2680821 6.00197536,53.7695194 C5.98086263,56.1223434 6.13524948,58.4751673 6.16691857,60.833252 C6.20254631,64.1474591 8.90893454,66.9119286 12.2645393,66.9119286 C15.5634035,66.9119286 18.3977877,64.1474591 18.3621599,60.833252 C18.3463254,59.0972388 18.2684722,57.3559649 18.2790286,55.6238971 C18.2829872,54.2364017 18.3740359,52.8699489 18.5178663,51.4982354 C18.870185,49.4689411 19.3821688,47.5211869 20.0986821,45.5971056 C20.3757867,45.0513135 20.6819213,44.5318247 21.0170859,44.0241724 C21.6821369,43.296888 22.4092066,42.6471982 23.1705845,42.0211813 C24.252612,41.2781151 25.3729063,40.6573588 26.5552192,40.104991 C31.2396064,38.34662 36.1311624,37.4207463 41.0662633,36.7092439 C48.8476243,35.9280379 56.6144703,35.7136666 64.4327786,35.8254553 C68.0456947,35.8820073 71.663889,35.9175166 75.2781247,36.0976938 C79.2644722,36.2975983 83.2178312,36.6474313 87.1883442,37.1051075 C99.5999911,38.8463814 111.941702,40.8769908 124.162015,43.6493513 C130.775578,45.1499506 137.378584,46.6807987 143.992148,48.1445735 C150.270546,49.5320689 156.579294,50.7696359 162.882764,52.0229848 C169.542511,53.343407 176.191702,54.7098599 182.881798,55.8816688 C189.541546,57.0521626 196.211849,58.1108676 202.850484,59.4260291 C208.866292,60.6175655 214.834598,62.185238 220.761997,63.7463348 C227.251523,65.4520993 233.675071,67.3485622 240.076187,69.3620746 C252.720074,73.3325472 265.332292,77.3911358 278.032919,81.1880071 C290.630622,84.9533146 303.228325,88.709416 315.753453,92.7219738 C322.042408,94.7302255 328.340599,96.7187497 334.645389,98.6862314 C340.686269,100.570858 346.700758,102.559382 352.768029,104.37299 C359.278668,106.314168 365.844727,108.014672 372.412106,109.762522 C378.369855,111.349922 384.369829,112.854467 390.297229,114.560231 C402.183696,117.977021 413.513316,122.933865 425.048784,127.326504 C427.662804,128.322082 430.332245,129.170361 432.971337,130.10018 C436.012889,131.168091 439.043886,132.262305 442.059048,133.409126 C444.765436,134.441528 447.45599,135.602816 450.219118,136.465562 C453.074615,137.355926 455.90768,138.226563 458.701158,139.297105 C461.656941,140.616212 464.583693,142.002392 467.257093,143.829151 C468.116117,144.576163 468.903886,145.36526 469.64679,146.234582 C471.005922,148.098166 472.314911,150.094581 473.324364,152.169906 C473.383743,152.351398 473.443123,152.53289 473.501183,152.714383 C474.490842,155.735309 477.51656,157.66202 480.701944,156.788753 C483.759331,155.950995 485.655518,152.673613 484.789896,149.617177 C484.103733,147.19728 482.913502,144.947039 481.501588,142.871714 C479.557898,140.030965 477.568023,137.287538 474.841841,135.139879 C471.537699,132.530598 467.749283,130.757761 463.909405,129.087506 C460.594706,127.644773 457.182361,126.64262 453.748903,125.537885 C450.831388,124.602805 447.997004,123.375759 445.136228,122.281545 C438.960755,119.928721 432.662563,117.920469 426.487089,115.567645 C420.435652,113.266112 414.440956,110.819912 408.38952,108.518379 C402.353918,106.227368 396.251019,104.286189 390.014846,102.610673 C383.921184,100.982503 377.834119,99.3332909 371.741777,97.6998602 C365.514841,96.0296051 359.298461,94.3501438 353.138822,92.4339534 C346.55165,90.3888772 339.975034,88.3135523 333.387862,86.2579548 C321.04747,82.4111073 308.73347,78.476144 296.357451,74.7358246 C289.846812,72.7683429 283.332215,70.8008613 276.816298,68.8425858 C270.533941,66.9579593 264.285892,64.9339257 258.028607,62.9506621 C251.83334,60.988441 245.648629,58.9946562 239.45732,57.0113926 C233.189478,55.0084015 226.850381,53.2513457 220.488851,51.5758299 C214.21705,49.9226719 207.922817,48.4378545 201.562607,47.1634629 C195.319836,45.9048534 188.995254,45.0513135 182.753803,43.8032252 C169.537233,41.1531747 156.316704,38.5070697 143.17271,35.5374349 C137.002514,34.1446789 130.867946,32.6085702 124.69907,31.2223899 C118.317747,29.7836032 111.904755,28.4947449 105.457454,27.3952699 C98.3332272,26.1774303 91.1997631,25.0424459 84.0293518,24.1428754 C77.7364383,23.3511481 71.3498371,23.1828075 65.0146982,23.0539216 C63.2201161,23.0184123 61.428173,23 59.6375495,23 C54.5757722,23 49.5245512,23.1472981 44.4640935,23.4852946" id="Fill-3" fill="#2C2C2C"></path>
                <path d="M339.897005,73.5693188 C339.766224,73.6699663 339.636764,73.7706138 339.505982,73.8712612 C339.636764,73.7706138 339.766224,73.6699663 339.897005,73.5693188 M278.642494,42.3474179 C278.395463,42.4533626 278.149752,42.557983 277.902721,42.6626034 C278.149752,42.5566587 278.395463,42.4520383 278.642494,42.3474179 M418.425212,13.0934397 C418.426533,13.0934397 418.427854,13.0934397 418.430496,13.094764 C418.456916,13.1159529 418.483337,13.1384662 418.509757,13.1596551 C418.480695,13.1384662 418.452953,13.1159529 418.425212,13.0934397 M410.985211,0.133755174 C403.998321,0.258240188 397.058987,0.776044873 390.210804,2.23940594 C386.876543,2.95320831 383.630789,4.10138391 380.395604,5.14626344 C377.114183,6.20703468 373.827478,7.25191421 370.560589,8.34446885 C364.33725,10.4183362 358.175999,12.8034161 352.117788,15.3169539 C348.964506,16.6253709 345.801977,17.9139232 342.613028,19.1349358 C339.418795,20.3559484 336.173042,21.4259898 332.957672,22.5953543 C329.587742,23.8216641 326.223097,25.0731358 322.822784,26.2266086 C319.541363,27.3390279 316.233522,28.3892047 312.952101,29.5122184 C309.447427,30.7067448 305.954643,31.9383519 302.449969,33.1381755 C299.431431,34.1777578 296.361374,35.0888822 293.37322,36.2211661 C288.536956,38.0500363 283.811657,40.1397954 279.055974,42.1712849 C274.53015,44.0398844 270.024141,45.9588076 265.539268,47.9187845 C260.473145,50.0125164 255.310587,51.808279 250.150672,53.6755542 C247.188939,54.7522171 244.227205,55.8010696 241.239051,56.7943011 C238.29317,57.7782624 235.294448,58.6152255 232.332715,59.552836 C229.443638,60.4679333 226.574376,61.4452731 223.674731,62.3352085 C220.805469,63.2198467 217.930923,64.0938904 215.082798,65.0460683 C209.307286,66.975586 203.773521,69.4493946 198.204088,71.8781767 C194.826233,73.2660522 191.448377,74.634063 188.19734,76.3026919 C184.306927,78.3050466 180.756018,81.0874191 177.794284,84.2843002 C175.482494,86.7779734 175.322651,90.6476033 177.794284,93.1200875 C180.127211,95.4641139 184.296359,95.619058 186.608149,93.1200875 C187.483987,92.1785041 188.366431,91.2647311 189.336062,90.4304167 C192.077184,88.5035476 195.008534,86.9858898 198.061418,85.6311221 C201.980893,84.0525462 205.842243,82.3772957 209.700951,80.6636403 C214.981079,78.5262061 220.34179,76.6536337 225.800257,75.0141396 C231.507076,73.3071057 237.158412,71.4093714 242.849378,69.640095 C248.639422,67.833738 254.305289,65.6406829 260.017392,63.6078691 C265.958032,61.4955968 271.71505,58.9621943 277.502451,56.4738184 C281.676884,54.7442713 285.848674,53.0186971 289.991402,51.2110158 C292.76555,50.0588672 295.556871,48.9477723 298.410281,47.9955944 C301.929486,46.8209326 305.459259,45.6886487 308.978464,44.5086897 C312.043237,43.4849991 315.088195,42.4083361 318.163536,41.4151046 C321.542713,40.3238743 324.933779,39.2525086 328.282572,38.0791711 C335.063382,35.7099829 341.864008,33.3765511 348.577447,30.8312298 C351.632973,29.6724598 354.625089,28.3534484 357.654195,27.1271385 C360.777093,25.8650724 363.929054,24.6957078 367.077051,23.5170731 C371.938416,21.6908515 376.8513,20.071222 381.783999,18.4674842 C384.612309,17.5523869 387.434014,16.6412626 390.272893,15.7725161 C392.913617,14.9646878 395.633603,14.4654235 398.35359,14.0125099 C401.520082,13.6152173 404.690537,13.2761943 407.879486,13.1080071 C409.705139,13.0113326 411.534756,13.0364944 413.36041,13.0444403 C412.647057,13.4986781 411.919174,13.9290785 411.192611,14.364776 C410.14504,14.991174 409.133137,15.66922 408.074997,16.2744291 C405.961361,17.4861715 403.732795,18.5032406 401.497624,19.483229 C398.563632,20.6923228 395.600578,21.8219581 392.687722,23.0866728 C389.910932,24.2878208 387.311159,25.8703696 384.683645,27.3602169 C381.768147,29.0103054 378.77603,30.5160444 375.855249,32.1555385 C372.758771,33.8943558 369.699282,35.6834968 366.67546,37.550772 C360.843144,41.14627 355.03857,44.7828216 349.424222,48.7040995 C343.200883,53.0491562 337.121536,57.5610758 331.146549,62.2372097 C329.569248,63.4714653 327.994589,64.7123425 326.417287,65.9465982 C322.70125,68.7355922 318.940298,71.4570465 315.216334,74.2235273 C311.705055,76.8324154 308.294174,79.5684371 304.856873,82.2673781 C301.850224,84.5160542 298.805267,86.6799745 295.571403,88.5988978 C292.305834,90.5443072 289.028376,92.5095813 285.653163,94.2629659 C282.103574,96.1050793 281.077139,101.003697 283.021685,104.33036 C284.972836,107.671591 289.70474,109.152168 293.064101,106.97368 C297.904329,103.828447 303.090665,101.226181 307.796148,97.8690584 C312.664118,94.3980454 317.296945,90.62509 321.998466,86.9355661 C325.020966,84.6789442 328.063282,82.4501327 331.120129,80.2451588 C334.256237,77.9819153 337.298553,75.6021326 340.347474,73.22235 C345.550983,69.2096947 350.839038,65.3241731 356.215601,61.5485692 C361.829948,57.6074266 367.598855,53.898038 373.40343,50.2402975 C376.484055,48.3001853 379.591101,46.4130455 382.748346,44.5921211 C385.674412,42.9049519 388.673134,41.3382947 391.588631,39.6153692 C394.179157,38.0791711 396.723447,36.4648389 399.442113,35.1617192 C402.135678,33.8678696 404.928321,32.7912067 407.621886,31.5039786 C410.454159,30.1478866 413.302285,28.7096874 415.887527,26.9205464 C418.74622,24.9499751 421.940454,23.289292 424.206008,20.5982969 C424.949744,19.7189559 425.645923,18.7879669 426.276051,17.8212216 C427.142642,16.4810212 427.715966,15.0070657 428.303821,13.5278129 C428.396293,13.202033 428.484801,12.8749288 428.577273,12.5544461 C428.752969,11.6181598 428.891676,10.6765764 429,9.7296957 C428.94848,8.54576377 428.891676,7.41215555 428.437244,6.31033075 C428.220596,5.79385038 428.003949,5.27074846 427.782017,4.75426808 C427.332869,4.13846455 426.863906,3.53855273 426.368522,2.95320831 C425.558735,1.98116575 423.664388,1.04487953 422.483394,0.703207897 C420.517712,0.140376718 418.425212,0 416.324785,0 C414.524231,0 412.719714,0.103296075 410.985211,0.133755174" id="Fill-5" fill="#2C2C2C"></path>
                <path d="M122.247919,183.902959 C122.289994,183.958627 122.332068,184.014294 122.375457,184.069962 C122.330753,184.01562 122.288679,183.959952 122.247919,183.902959 M129.588531,178.532379 C129.41366,178.607928 129.237475,178.683476 129.062605,178.757699 C129.237475,178.683476 129.41366,178.607928 129.588531,178.532379 M134.480957,118.032498 C133.095142,119.094155 131.872364,120.336069 130.51679,121.428211 C129.534623,122.220809 129.046827,123.7901 129.046827,125.001529 C129.046827,125.140697 129.053401,125.281191 129.065234,125.419034 C128.368383,126.313689 127.707031,127.237503 127.10616,128.195778 C125.349568,130.991078 123.73629,133.880482 122.016512,136.707592 C120.336179,139.461803 118.519105,142.169626 117.039938,145.043125 C115.21629,148.584633 113.721345,152.249405 112.236919,155.945986 C111.040438,158.933471 109.60203,161.869265 108.739512,164.976037 C107.702123,168.734913 107.230104,172.643561 107.034197,176.531003 C106.957938,178.027396 107.023678,179.534392 107.090734,181.030786 C107.198549,183.515938 107.481234,186.161466 108.349012,188.496847 C109.299623,191.049596 110.660456,193.119893 112.931141,194.678581 C114.995401,196.096775 117.45016,196.791292 119.931216,196.962271 C123.166975,197.18494 126.489512,196.397644 129.504383,195.243208 C135.611698,192.907827 141.574383,190.226513 147.680383,187.901736 C154.065124,185.468274 160.520865,183.230974 166.87931,180.720639 C170.468754,179.306421 173.997717,177.727852 177.500384,176.112172 C180.715106,174.631683 183.802292,172.866231 186.884218,171.116683 C189.605884,169.568599 192.271014,167.901227 194.946662,166.26434 C198.36781,164.167534 201.727162,161.942163 204.726255,159.24892 C207.325644,156.920166 207.643829,152.63245 205.949033,149.712561 C204.926107,147.95241 203.231311,146.632297 201.280125,146.094179 C199.420977,145.575942 196.883385,145.711134 195.260903,146.885451 C192.698329,148.745008 189.980607,150.385872 187.29444,152.063847 C184.742384,153.658321 182.153514,155.206405 179.564643,156.754489 C174.698514,159.663775 169.653569,162.182063 164.482402,164.486959 C159.069309,166.707029 153.572068,168.696476 148.102439,170.780028 C142.020105,173.087575 136.094235,175.737079 130.121031,178.304408 C128.733901,178.894217 127.348086,179.485352 125.963586,180.080463 C124.558049,180.66232 123.151197,181.20574 121.690438,181.612643 C121.480068,178.564189 121.569475,175.536942 121.881086,172.488488 C122.389919,169.405573 123.206419,166.469779 124.30166,163.520732 C125.494197,160.309252 126.607846,157.069938 127.841142,153.871712 C129.83966,149.642314 132.15242,145.611728 134.445457,141.537403 C136.470272,137.932275 138.126938,134.149541 140.535679,130.785639 C141.312735,129.803506 142.101624,128.821374 142.739309,127.739836 C144.08042,125.466749 144.26055,122.179721 142.730105,119.942421 C141.795272,118.575918 140.763142,117.768741 139.170901,117.223995 C138.726494,117.071572 138.233438,117 137.72855,117 C136.558364,117 135.323753,117.38437 134.480957,118.032498" id="Fill-7" fill="#2C2C2C"></path>
                <path d="M13.1512824,49.1776601 C12.5270859,51.4377708 13.8929281,53.9203178 16.171971,54.5201011 C21.4149574,55.9010592 26.6513455,57.2926095 31.9299626,58.5438132 C36.775733,59.6917429 41.6624128,60.6185604 46.5649284,61.5083052 C48.8954378,61.9266972 51.2299062,62.3199326 53.5604156,62.7277323 C54.4577805,62.8839673 55.3498668,63.0746269 56.2406334,63.2560183 C57.4679119,63.503611 58.730821,63.6850024 59.9422637,64.0001204 C62.1790776,64.5800433 64.4317275,65.1070053 66.6329108,65.7954983 C69.1956794,66.5965335 71.7412924,67.418753 74.2935038,68.2568609 C83.5310837,71.2928503 93.0827412,73.0365912 102.614604,74.8716899 C106.976061,75.7097978 111.341478,76.5532017 115.672583,77.5607848 C120.625245,78.7153346 125.56999,79.9201974 130.53321,81.0363505 C134.9976,82.0452576 139.5029,82.753611 144.013478,83.4990371 C148.978017,84.3159605 153.937278,85.1646606 158.880703,86.0795619 C168.643505,87.8895041 178.391791,89.7828599 188.186265,91.427299 C197.650826,93.014805 207.129902,94.4897689 216.542996,96.3725325 C221.41384,97.3443669 226.270168,98.3996148 231.137053,99.4177901 C235.869333,100.405513 240.642522,101.181391 245.415712,101.942706 C248.761035,102.469668 252.138031,102.868199 255.49919,103.286591 C258.74158,103.685123 261.980012,104.102191 265.221083,104.523231 C274.490334,105.902865 283.718677,107.526119 292.923265,109.291045 C295.418731,109.77299 297.933992,110.191382 300.418901,110.734232 C303.099119,111.319451 305.784616,111.908642 308.470112,112.492537 C310.728041,112.989047 312.964855,113.620607 315.202988,114.189937 C317.166634,114.690419 319.125001,115.19752 321.07413,115.740371 C340.15765,121.052359 359.266244,126.271666 378.40651,131.381078 C383.411958,132.715696 388.36594,134.205224 393.335758,135.674892 C395.088259,136.196558 396.805129,136.828117 398.536516,137.417309 C401.402805,138.394439 404.269094,139.372894 407.135383,140.344728 C411.202557,141.730982 415.228823,143.261555 419.248489,144.777564 C424.156284,146.628551 429.069357,148.47027 433.986388,150.300072 C437.182591,151.485075 440.424981,152.519138 443.672651,153.543934 C447.544516,154.754092 451.595855,155.462446 455.606284,156 C456.400716,155.994704 457.137083,155.798748 457.823303,155.394921 C458.807765,154.821618 459.540173,153.864348 459.843694,152.762759 C460.157772,151.624097 459.992815,150.383486 459.40029,149.363987 C458.885625,148.479538 457.833861,147.491815 456.771539,147.336904 C451.704066,146.592802 446.84378,145.103274 441.987452,143.510472 C437.693297,142.103033 433.477002,140.432114 429.250149,138.8552 C424.36215,137.029369 419.470191,135.224723 414.568995,133.445234 C409.785249,131.712085 404.975109,130.08883 400.155732,128.458955 C391.505398,125.536832 382.68087,123.2039 373.860301,120.851107 C364.292807,118.295739 354.750387,115.652985 345.19873,113.040684 C335.719653,110.444271 326.274887,107.692947 316.749623,105.272629 C312.109719,104.094247 307.455298,102.935725 302.748091,102.024795 C297.7532,101.063553 292.758308,100.116875 287.758138,99.1900578 C282.438612,98.2023351 277.123045,97.2040202 271.773166,96.4029851 C265.758182,95.5039721 259.731321,94.7307415 253.696542,93.968103 C249.35356,93.3683197 245.007939,92.7831006 240.699267,91.9754454 C235.84294,91.0711363 231.013005,90.0873857 226.18307,89.0639143 C216.455899,86.9997593 206.68122,85.2877949 196.866951,83.6896967 C192.191416,82.9297063 187.515881,82.1856042 182.850903,81.3527925 C178.246629,80.5252768 173.648954,79.6408281 169.051278,78.786832 C163.921782,77.8401541 158.787007,76.8987723 153.653552,76.0050554 C151.241224,75.5800433 148.823618,75.1881319 146.40997,74.7896004 C144.338113,74.4480019 142.25042,74.1633365 140.18912,73.764805 C137.766235,73.2947761 135.343349,72.8340154 132.940259,72.285869 C130.384089,71.7072701 127.837156,71.1021907 125.291543,70.486519 C120.816595,69.4047906 116.33241,68.3402744 111.821832,67.4346413 C107.032806,66.4733991 102.243781,65.5412855 97.4494772,64.6051998 C94.9131017,64.1086904 92.3872834,63.5764324 89.8561865,63.0388782 C87.6708391,62.5728214 85.5105651,61.9889263 83.3410534,61.4460761 C81.1081984,60.8873375 78.8964579,60.1577997 76.7111104,59.4388541 C74.1641777,58.6060424 71.613286,57.7891189 69.0505174,56.9973519 C64.7880341,55.6733269 60.3592744,54.7319451 55.9582274,54.0129995 C51.2351848,53.2371208 46.493667,52.5393597 41.8022961,51.6085701 C36.6728,50.5890708 31.5855328,49.4676216 26.5075032,48.2150939 C23.8220068,47.5530814 21.1510265,46.8394319 18.4760873,46.1416707 C18.1079038,46.0463409 17.7357613,46 17.3688974,46 C15.4606773,46 13.6778244,47.2432595 13.1512824,49.1776601" id="Fill-9" fill="#2C2C2C"></path>
                <path d="M501.472461,115.409874 C501.48432,115.48221 501.493544,115.553232 501.500133,115.624253 C501.492227,115.553232 501.481685,115.48221 501.472461,115.409874 M493.957421,105.06313 C492.073061,105.160455 490.188701,105.3459 488.310929,105.519507 C484.604142,105.864092 480.888131,106.290219 477.228783,106.979389 C473.8567,107.615949 470.521514,108.47478 467.175787,109.234971 C463.947337,109.963596 460.695169,110.590951 457.436411,111.165697 C453.62157,111.844344 449.82386,112.558502 446.024831,113.308171 C439.003942,114.690455 432.477204,117.547088 425.939923,120.341905 C422.25422,121.913579 418.625179,123.624665 414.969784,125.26473 C412.998453,126.14855 411.037664,127.09813 409.133538,128.116102 C405.750914,129.929774 402.776787,132.318192 399.831651,134.753958 C398.6167,135.760093 398,137.651362 398,139.171743 C398,140.826275 398.66282,142.424253 399.831651,143.594789 C401.000481,144.761378 402.6068,145.424243 404.259239,145.424243 C406.05004,145.424243 407.351961,144.689042 408.690779,143.594789 C409.289031,143.102901 409.891235,142.620219 410.496076,142.137538 C414.218675,139.504491 418.328689,137.614536 422.511178,135.832429 C425.532743,134.547471 428.550355,133.254621 431.566649,131.964401 C433.317918,131.250243 435.069187,130.53477 436.820456,129.821927 C440.975273,128.125308 445.452935,126.882436 449.864709,126.086735 C453.899612,125.356795 457.941104,124.704451 461.976007,123.994239 C465.945023,123.301124 469.898226,122.551455 473.821121,121.626864 C475.797723,121.15865 477.774325,120.644403 479.770692,120.264308 C481.346703,119.965756 482.917442,119.713236 484.498723,119.484389 C486.6295,119.258174 488.760277,119.028012 490.900277,118.851774 C493.697827,118.616352 496.533592,118.333582 499.343002,118.579526 C499.631586,118.622928 499.920169,118.66896 500.210071,118.716308 C500.041401,118.983295 499.864825,119.248967 499.684295,119.513324 C498.470662,120.942955 497.146338,122.23186 495.703419,123.443167 C491.14274,126.771959 486.128761,129.378702 481.185939,132.086716 C477.464657,134.131865 473.645863,136.115199 470.23293,138.652236 L468.888841,139.685989 C468.065257,140.51194 467.494678,141.48914 467.181058,142.613643 C466.706673,144.324729 466.954407,146.189695 467.849149,147.725858 C468.720171,149.205467 470.160455,150.315503 471.818165,150.771881 C473.63005,151.265084 475.303573,150.920499 476.940199,150.103755 C480.126481,148.511037 483.209979,146.723669 486.334327,145.017844 C489.741989,143.158139 493.169416,141.33 496.515144,139.357187 C500.689726,136.895117 504.756255,134.091093 508.128337,130.587378 C509.672722,128.9894 511.010222,127.138902 512.194866,125.26473 C512.868228,124.200727 513.342612,123.002572 513.815679,121.847819 C514.458733,120.285351 514.948931,118.662384 514.995051,116.951298 C515.051714,114.731226 514.628721,112.54272 513.367649,110.683015 C512.667932,109.645316 511.535998,108.356412 510.388252,107.769829 C509.533042,107.33844 508.652795,106.968867 507.747512,106.666369 C506.743398,106.332306 505.647043,106.162644 504.607351,105.94695 C503.530762,105.725995 502.45022,105.524768 501.359135,105.360367 C499.65794,105.105217 497.993642,105 496.31353,105 C495.533431,105 494.750697,105.022359 493.957421,105.06313" id="Fill-11" fill="#2C2C2C"></path>
                <path d="M457.761507,86.0346981 C457.819306,86.2795947 457.858714,86.5244913 457.878418,86.7693878 C457.874477,86.7773304 457.869223,86.785273 457.865282,86.7945394 C457.831128,86.5403764 457.795661,86.2875373 457.761507,86.0346981 M456.437392,78.1543233 C454.390793,79.1008155 452.445342,80.2842617 450.474932,81.3962245 C449.028651,82.2076926 447.581057,83.035046 446.138717,83.8571042 C441.341425,86.5827369 436.646596,89.4831067 432.238132,92.8137001 C428.364306,95.7405452 424.711167,98.9308195 421.114512,102.188606 C418.941807,104.155721 416.795374,106.140045 414.529402,107.995964 C413.037145,109.072185 411.484462,110.018678 409.871354,110.917514 C407.090449,112.463672 406.197196,116.253612 407.777465,118.97395 C409.419473,121.802836 412.975406,122.619599 415.772074,121.084032 C419.107321,119.253264 422.202178,117.096851 425.08029,114.59361 C426.434618,113.419431 427.79026,112.246575 429.144589,111.0671 C431.531412,108.999378 433.936625,106.931657 436.412774,104.967189 C439.742766,102.42556 443.205433,100.016307 446.862514,97.9790323 C447.972511,97.3608339 449.081195,96.7426355 450.188565,96.1257609 C449.765584,96.5626034 449.337348,96.9967985 448.905172,97.4256984 C447.026715,99.2882362 445.139062,101.133565 443.276368,103.010664 L434.178329,112.179063 C429.508458,116.879753 424.85435,121.595005 420.124053,126.229507 C417.450863,128.855858 417.511289,133.364602 420.124053,136.002866 C422.740757,138.634512 427.214901,138.696729 429.821096,136.002866 C434.423973,131.234664 439.047868,126.492937 443.675704,121.755181 C446.687804,118.673455 449.694649,115.591729 452.701495,112.510004 C454.549739,110.61702 456.421629,108.75051 458.294831,106.889296 C461.799534,103.398527 464.894391,99.6191775 467.880218,95.6783282 C469.199079,93.930958 470.127799,91.8936833 470.722863,89.7888965 C471.148471,88.2890704 471.010543,86.7998344 470.795111,85.2947133 C470.620402,84.0900869 470.267041,82.8444237 469.645706,81.7787927 C468.450324,79.7203377 466.391902,78.4177526 464.252037,77.5692191 C463.249755,77.174737 462.227769,77 461.211038,77 C459.580852,77 457.958548,77.4474327 456.437392,78.1543233" id="Fill-13" fill="#2C2C2C"></path>
                <path d="M163.542672,144.550088 C163.617756,144.705687 163.684937,144.866605 163.745531,145.030183 C163.67835,144.869265 163.609853,144.709676 163.542672,144.550088 M135.873543,132.463934 C141.49826,133.323051 147.057114,134.410911 152.368322,136.536095 C155.105597,137.778224 157.700607,139.226488 160.150717,140.983289 C160.931855,141.633612 161.67084,142.306543 162.366355,143.03001 C162.056798,143.335887 161.736703,143.633785 161.403436,143.926364 C160.67894,144.467634 159.946542,144.994276 159.211508,145.519587 C158.373728,146.110064 157.691386,146.761716 157.23693,147.619503 C155.478382,145.512938 152.492145,144.502212 149.795706,145.253607 C148.138587,145.709763 146.689597,146.776345 145.73985,148.21397 C144.891532,147.904102 144.045848,147.592905 143.198848,147.280378 C140.075615,146.131342 136.939209,145.003585 133.847591,143.762786 C132.676543,143.218856 131.548965,142.633699 130.474078,141.923531 C130.161886,141.637602 129.864185,141.343693 129.573069,141.032496 C129.300396,140.606927 129.05275,140.176039 128.824863,139.727861 C128.697089,139.318251 128.587756,138.913961 128.492913,138.499031 C128.474471,138.081442 128.474471,137.667842 128.490278,137.246263 C128.549555,136.985602 128.616736,136.726271 128.69182,136.46827 C129.017184,135.837896 129.382066,135.235451 129.77988,134.644974 C130.277805,134.065136 130.798125,133.522536 131.359279,133.006534 C131.601656,132.853595 131.846667,132.709966 132.09563,132.571656 C132.3986,132.481222 132.700254,132.401428 133.005859,132.330943 C133.975365,132.301686 134.914575,132.358871 135.873543,132.463934 M123.990505,121.742259 C122.313628,122.863367 120.831706,124.277053 119.544739,125.82506 C118.464582,127.128365 117.476634,128.506144 116.735015,130.032872 C114.631344,134.355055 114.502252,139.383417 116.014471,143.918384 C116.791657,146.236405 117.981146,148.261846 119.509173,150.142328 C120.94499,151.908439 122.699586,153.26494 124.572735,154.542976 C127.17038,156.309087 130.273854,157.383648 133.15471,158.609818 C136.483436,160.034144 139.802941,161.493047 143.142205,162.896094 C144.089318,163.291075 145.031162,163.691376 145.987495,164.065078 C146.718577,164.351008 147.43912,164.569112 148.205768,164.735349 L150.165857,165 C151.199909,164.964093 152.22474,164.855041 153.242985,164.667524 C153.387884,164.605019 153.536735,164.547833 153.685586,164.490647 C154.925131,164.138223 156.001336,163.50386 156.916834,162.588887 C157.98777,161.705831 158.774177,160.407846 159.129838,159.056665 C159.423588,157.939547 159.572439,156.818439 159.551362,155.664084 C159.544776,155.328949 159.519748,154.992483 159.481547,154.652028 C161.031967,155.465928 162.959124,155.57631 164.43446,154.537656 C166.070502,153.379311 167.686785,152.210327 169.255646,150.957559 C169.848415,150.490763 170.393762,149.970771 170.928571,149.44147 C171.566127,148.812426 172.091715,148.188702 172.626524,147.451936 C172.878122,147.166007 173.074394,146.84417 173.207438,146.485096 C173.696143,145.637948 173.938519,144.718986 173.943788,143.737518 C174.468059,139.420654 171.226273,135.668999 168.334878,132.92142 C166.744941,131.41464 164.913944,130.120645 163.111927,128.885166 C161.089927,127.492758 158.903269,126.37032 156.690265,125.310388 C151.833513,122.988378 146.656666,121.347278 141.403417,120.219521 C139.401176,119.788632 137.41079,119.393651 135.378252,119.13964 C134.637949,119.046547 133.897647,119 133.161296,119 C129.918192,119 126.746221,119.899014 123.990505,121.742259" id="Fill-15" fill="#2C2C2C"></path>
                <path d="M221.584456,58.0461551 C221.64621,58.128605 221.709278,58.2110549 221.772346,58.292175 C221.707964,58.2123847 221.644896,58.1299348 221.584456,58.0461551 M212.957304,33.293894 C212.212315,33.5585317 211.498861,33.8856716 210.811684,34.2699946 C210.159984,34.7221393 209.55427,35.2208282 208.989287,35.7660615 C207.551866,37.0958988 206.776658,39.2981093 206.412704,41.1838185 C206.063203,43.0017061 205.874,44.9140121 206.094737,46.7638157 C206.366717,49.0232092 206.695195,51.2613253 207.110392,53.5007713 C207.659607,56.4769471 208.52679,59.4025891 209.21528,62.3468488 C209.379519,63.0596416 209.508283,63.7764239 209.686975,64.4878868 C210.216482,66.570412 211.544848,68.3257972 213.116288,69.7181368 C216.90824,73.074646 221.661977,75.0428052 226.260672,76.9697394 C231.274564,79.0748718 236.411963,80.8927593 241.492865,82.8303322 C242.852764,83.3489688 244.219234,83.8689351 245.584389,84.3889015 C246.87728,84.8822711 248.175426,85.3543634 249.49985,85.7652831 C251.506195,86.3876469 253.533562,86.6682426 255.606917,86.93421 C256.899807,87.0951203 258.25051,86.9288907 259.532889,86.7772892 C261.597046,86.533929 263.520614,86.174873 265.491484,85.5099543 C268.399173,84.5338538 271.142623,83.1521528 273.929432,81.8794986 C274.347257,81.7465149 274.757198,81.6348085 275.175022,81.5403901 C276.280023,81.4858668 277.369256,81.5270917 278.482141,81.6401279 C279.842041,81.6401279 281.109966,81.2917105 282.285919,80.601525 C283.969041,79.604147 285.231711,77.9524891 285.749393,76.0455025 C286.791326,72.2062623 284.497234,67.5478424 280.484544,66.6635006 C279.052379,66.3523187 277.604447,66.1754503 276.152573,65.9892731 C274.56668,65.785808 272.774503,66.0557649 271.235911,66.3310413 C269.650018,66.6222756 268.288804,67.2246919 266.805397,67.8749823 C265.501995,68.4468124 264.210419,69.0346004 262.917528,69.6277078 C261.363169,70.2434225 259.799613,70.7846663 258.163792,71.1344135 C257.354421,71.195586 256.554248,71.2128739 255.74225,71.1756384 C252.730762,70.5054004 249.837525,69.4348814 246.918011,68.4308543 C245.137659,67.81248 243.350737,67.2047443 241.56513,66.5916894 C236.951982,65.017162 232.295474,63.5410427 227.776928,61.7071971 C226.034679,60.9332318 224.326592,60.0967642 222.722305,59.0687999 C222.535729,58.3240911 222.358351,57.5753927 222.138927,56.8413225 C221.759207,55.5527102 221.368975,54.2640979 220.994509,52.9714961 C220.412446,50.9661015 219.928926,48.9500682 219.541322,46.9074381 L219.747606,46.9553123 C221.342696,47.3343159 222.944356,47.70933 224.524993,48.1561553 C227.62977,49.0298584 230.63863,50.0618121 233.658002,51.1868545 C235.041552,51.7985796 236.423789,52.4129644 237.808653,53.0286791 C239.825509,53.9209999 241.759589,55.0846075 243.716005,56.1032628 C245.27562,56.9131337 246.764283,57.8692867 248.272655,58.7788954 C248.792965,59.092737 249.319844,59.4012593 249.848037,59.7111113 C249.798108,59.9797385 249.77183,60.2576745 249.77183,60.5449193 C249.77183,62.8974014 251.78343,65.131528 254.195775,65.0224814 C255.417714,64.9666282 256.637025,64.8801888 257.861592,64.9227436 C259.409381,65.1421667 260.870452,64.8496025 262.033265,63.6713667 C263.084395,62.6074969 263.829384,60.612741 263.218414,59.1313023 C262.782195,58.0727518 262.47474,57.0540965 261.662742,56.2016708 C260.959798,55.4596216 260.241088,54.8572053 259.430404,54.2281923 C258.439713,53.454227 257.418803,52.7002093 256.371614,51.9940657 C254.60046,50.7945525 252.825363,49.5897199 251.055523,48.3888769 C248.524926,46.6747166 245.870822,45.1626916 243.258764,43.5894942 C240.441734,41.8952815 237.418421,40.5135806 234.451605,39.1172514 C231.300842,37.6304934 228.005549,36.4522575 224.720766,35.3192362 C223.293857,34.8258666 221.840669,34.348455 220.388796,33.9322159 C218.951375,33.522626 217.545488,33.1117063 216.035802,33.0132984 C215.893899,33.0039895 215.753311,33 215.612722,33 C214.719261,33 213.848137,33.1675595 212.957304,33.293894" id="Fill-17" fill="#2C2C2C"></path>
            </g>
        </g>
    </g>
</svg>