<?xml version="1.0" encoding="UTF-8" standalone="no"?>
<svg width="295px" height="271px" viewBox="0 0 295 271" version="1.1" xmlns="http://www.w3.org/2000/svg" xmlns:xlink="http://www.w3.org/1999/xlink">
    <!-- Generator: Sketch 49.1 (51147) - http://www.bohemiancoding.com/sketch -->
    <title>golden</title>
    <desc>Created with Sketch.</desc>
    <defs>
        <polygon id="path-1" points="0 0.0426828487 292.060323 0.0426828487 292.060323 269.816579 0 269.816579"></polygon>
    </defs>
    <g id="Page-1-Copy" stroke="none" stroke-width="1" fill="none" fill-rule="evenodd">
        <g id="Artboard" transform="translate(-3501.000000, -1708.000000)">
            <g id="golden" transform="translate(3501.070634, 1708.139693)">
                <polygon id="Path-33" fill="#FFFFFF" points="207.050328 100.255948 207.050328 28.3332027 257.178302 19.6152942 283.332027 4.35895426 294.229413 13.0768628 264.806472 65.384314 283.332027 148.204445 264.806472 254.998824 6.5384314 263.716733 126.409674 225.575883"></polygon>
                <g id="Group-3" transform="translate(0.000000, 0.391966)">
                    <mask id="mask-2" fill="white">
                        <use xlink:href="#path-1"></use>
                    </mask>
                    <g id="Clip-2"></g>
                    <path d="M244.295132,248.606252 C257.471937,248.531557 245.659459,228.362387 244.279888,221.027034 C243.635072,217.597163 244.209766,209.252666 240.932333,206.908158 C239.107642,205.603282 228.3226,207.028584 226.962847,208.153582 C221.635113,212.557538 221.635113,229.621531 222.075661,236.757189 C222.763159,247.873022 233.644237,246.729731 244.295132,248.606252 M115.339575,249.612348 C121.78621,248.76174 127.086505,246.2465 133.045336,244.737357 C135.266368,244.174858 136.086489,242.15352 138.426423,242.068154 C139.889835,242.016325 145.630679,246.359305 147.565126,246.926377 C147.807504,252.530026 143.522451,250.363871 149.089514,254.502583 C153.264811,257.606236 164.644363,255.586422 169.173318,255.214472 C188.943099,253.589475 205.647337,257.296785 225.17474,259.412635 C230.074122,259.943122 261.000894,260.287633 245.513118,268.908044 C241.586296,271.094016 229.706744,268.700728 225.531447,268.299814 C215.81805,267.365364 206.37447,264.889759 196.715951,263.639761 C180.898907,261.595558 160.975163,269.731214 146.136775,263.786103 C139.360873,261.069644 137.062097,256.33947 129.716074,255.796788 C122.374624,255.254106 112.34263,258.918733 104.642949,259.735805 C85.3274353,261.786106 66.1552143,265.842501 46.6400061,264.487321 C42.1095266,264.173297 0.359603,262.740373 0.00289633616,259.090989 C-0.152591184,257.485809 4.81233875,252.101673 6.07453156,251.363869 C10.9449495,248.51174 20.6934072,249.217532 26.4037626,248.841008 C47.135432,247.469059 65.7908857,244.455345 85.7817027,238.475173 C98.0850339,234.792253 117.770973,231.243479 122.886818,218.64899 C125.348703,212.595647 125.345655,204.897491 127.461504,198.557563 C130.580401,189.211544 134.731308,179.574366 138.955386,170.670419 C146.228238,155.345752 156.991938,141.600351 168.414173,129.146105 C178.944642,117.662894 191.933947,107.821449 198.523874,93.3047073 C204.516241,80.1019875 202.635147,66.2727445 204.186974,52.2666726 C206.12447,34.7788998 209.395806,26.2120407 225.366813,18.9803466 C231.654911,16.1327909 237.686912,13.5609508 244.258547,12.4969283 C251.764631,11.2819915 254.170114,12.6920499 261.107601,8.01522923 C271.14112,1.24999771 290.433767,-7.6661445 291.988642,12.1859533 C293.243213,28.2042167 277.699034,39.7834638 271.253924,52.4755137 C263.901804,66.9495726 267.01003,83.6858224 270.787462,98.84738 C275.038978,115.915946 280.063359,130.640005 278.79202,148.609484 C277.563364,165.967684 274.240199,176.307604 263.924669,189.371605 C254.525296,201.274022 264.131986,210.472176 267.186858,224.295321 C268.12893,228.56513 270.368255,241.028522 272.750873,244.737357 C276.424646,250.455334 279.885006,245.051381 284.685302,248.243448 C301.846856,259.656537 278.000863,266.999511 268.269174,266.202257 C264.845399,265.921769 258.85913,265.691587 256.238708,263.851651 C253.299689,261.789155 257.415535,259.308977 252.07713,256.906542 C247.534455,254.862338 240.871358,257.528492 235.555819,255.473618 C231.133571,253.764779 226.741811,252.016307 222.35005,250.411127 C220.656456,249.790701 221.235723,254.525449 218.004022,250.836431 C215.429331,247.897412 217.31195,236.398958 217.467437,233.051403 C217.941522,222.935568 216.685427,210.139859 224.391205,202.5103 C228.29821,198.644453 237.520754,194.042328 243.16861,197.124639 C247.886589,199.69933 247.958235,205.449319 249.289025,210.162725 C250.665547,215.034667 258.636358,248.474641 262.626994,246.926377 C268.269174,244.737357 253.978041,207.594132 253.063409,199.743537 C251.139632,183.251189 263.749365,178.979855 266.921615,163.984456 C271.063376,144.402175 270.796608,129.463178 266.276799,110.077542 C264.482595,102.385483 263.107026,90.9403823 261.232403,86.332159 C259.357779,81.7239358 258.45477,80.2447516 258.45477,69.7635918 C258.45477,54.2210833 268.49021,43.1203479 276.659402,30.4176272 C281.676161,22.6203854 288.628892,6.02285483 272.750873,11.1844307 C266.388079,13.2530245 262.188392,17.6493579 255.206697,18.9969164 C247.388114,20.5075844 238.875893,18.825377 231.526863,21.9237404 C214.678498,29.027039 211.257083,37.1767612 209.667147,53.1813051 C208.67477,63.1721405 217.090914,79.5943665 227.322602,67.8703026 C233.683871,60.5837306 225.281447,35.4084718 232.955214,32.9770738 C243.008549,29.7926284 239.711299,55.7544711 239.194532,60.2529385 C238.429289,66.923658 238.098497,73.9282092 230.049731,76.7239358 C223.814987,78.8916147 213.193055,78.0652745 213.193055,76.7193718 C213.193055,75.373469 205.034533,102.995238 200.555883,108.723886 C188.598588,124.010444 171.923313,133.914389 161.083394,150.345761 C149.670305,167.64451 140.304469,187.597218 133.754176,207.258767 C131.507229,214.00723 133.639847,225.982818 130.751133,231.648966 C127.923394,237.193163 120.946273,236.310543 115.742014,237.920296 C106.673433,240.726693 98.1795459,245.0026 88.9356604,247.458388 C79.4814094,249.969055 34.4845405,250.837955 26.4037626,256.906542 C42.4662332,259.726659 99.1521051,251.74649 115.339575,249.612348 Z" id="Fill-1" fill="#000000" mask="url(#mask-2)"></path>
                </g>
                <path d="M254.352583,31.0576111 C248.477594,31.261879 247.361742,23.4692104 253.469963,23.318296 C258.939465,23.1841499 260.011109,31.4082202 254.352583,31.0576111" id="Fill-4" fill="#000000"></path>
            </g>
        </g>
    </g>
</svg>