<?xml version="1.0" encoding="UTF-8"?>
<svg width="255px" height="400px" viewBox="0 0 255 400" version="1.1" xmlns="http://www.w3.org/2000/svg" xmlns:xlink="http://www.w3.org/1999/xlink">
    <!-- Generator: Sketch 51.1 (57501) - http://www.bohemiancoding.com/sketch -->
    <title>robot_0003</title>
    <desc>Created with Sketch.</desc>
    <defs></defs>
    <g id="mythical" stroke="none" stroke-width="1" fill="none" fill-rule="evenodd">
        <g id="robot_0003_DL" transform="translate(-273.000000, -245.000000)">
            <g id="robot_0003" transform="translate(273.000000, 245.000000)">
                <rect id="Rectangle-2" fill="#FFFFFF" x="42" y="3" width="177" height="129"></rect>
                <rect id="Rectangle" fill="#FFFFFF" x="74" y="157" width="106" height="120"></rect>
                <path d="M208.028151,0.178113788 C204.203099,0.369324178 200.38712,0.64304316 196.563364,0.873543356 C191.178996,1.03725088 185.793333,0.919381463 180.40767,1.04248952 C174.145783,1.18524248 167.90982,1.553257 161.662191,1.96318065 C158.13267,2.0731921 154.601852,2.0600955 151.067146,2.10724327 C146.972486,2.16748764 142.879123,2.41370376 138.78576,2.65075225 C135.65028,2.76862167 132.529058,2.78695691 129.390985,2.71099662 C126.41364,2.63896531 123.436295,2.48049643 120.45895,2.43465832 C113.988377,2.3364338 107.522988,2.30107298 101.052415,2.1884422 C94.3990795,2.07581142 87.761298,2.14784273 81.1027775,2.32202754 C74.8149669,2.49097371 68.5206754,2.66384885 62.2276801,2.63372667 C59.3164406,2.61801075 56.403905,2.40846512 53.4926655,2.30631162 C51.8827994,2.24999623 50.278118,2.27095079 48.6734366,2.29583434 C47.5431602,2.31155026 46.41418,2.32726618 45.2903845,2.31155026 C43.7310697,2.2905957 42.3337785,2.61801075 41.1036955,3.65133265 C39.903425,4.65453237 39.1386737,6.13837738 39.016832,7.70865996 C38.7744447,10.7470716 41.1788745,14.0068159 44.3584249,14.052654 C47.2450368,14.0932535 50.1316487,14.175762 53.0014101,14.4154299 C56.1304092,14.6760522 59.2555198,14.9419133 62.3897037,15.0453764 C68.834353,15.2444448 75.2958529,15.1580072 81.7353175,15.1213367 C87.9894272,15.0912145 94.2266864,15.1724135 100.4795,15.3465983 C107.06673,15.5312604 113.65396,15.5928144 120.246375,15.6844906 C124.479727,15.740806 128.707894,16.0367892 132.939949,15.9961897 C137.172005,15.9582096 141.394987,15.6517491 145.612785,15.4068426 C147.656874,15.332192 149.695779,15.2680187 151.739868,15.2549221 L153.492315,15.2549221 C155.126809,15.2601607 156.772968,15.2601607 158.408758,15.1828907 C163.151512,14.9628678 167.881304,14.600092 172.620169,14.3198247 C178.869094,14.1076597 185.11413,14.0696796 191.365648,13.9557391 C197.76493,13.8378697 204.140882,13.3153153 210.525907,12.9289655 C212.280946,14.6590267 215.288103,14.9667968 217.435888,13.9557391 C220.625808,12.4509396 221.779415,8.7210273 220.468969,5.53986266 C220.084001,4.6139329 219.552563,3.7024094 218.843548,3.00697983 C217.566803,1.74839637 217.460515,1.69731962 215.866203,0.878781997 C215.035346,0.454452091 214.099498,0.357537236 213.192166,0.167636506 C212.582958,0.0419091265 211.942641,0 211.294546,0 C210.194082,0 209.070287,0.123108059 208.028151,0.178113788" id="Fill-1" fill="#2C2C2C"></path>
                <path d="M212.564986,5.08925173 C209.546913,5.64545814 207.579491,8.62051571 208.076766,11.6576614 C208.394256,13.5953294 208.641618,15.5174753 208.823952,17.4629042 C208.88643,23.0870565 208.715572,28.7112088 208.760199,34.3392416 C208.804826,40.4225876 208.88388,46.5072271 208.794626,52.590573 C208.710472,58.5018831 208.46056,64.4080191 208.426133,70.3206226 C208.391706,76.2875533 208.455459,82.259658 208.491161,88.2265887 C208.525588,94.2801841 208.655644,100.323431 209.262574,106.345983 C209.521412,108.882543 209.910306,111.389352 210.2992,113.905216 C210.51341,115.289265 210.722521,116.679781 210.941831,118.063829 C211.119065,119.18659 211.376628,120.313231 211.524535,121.44634 C211.434005,123.75007 212.748595,125.901166 214.921301,126.704431 C217.440825,127.633166 220.753437,126.315087 221.550352,123.566392 C221.798989,122.697158 221.983873,121.843446 221.997898,120.943167 C222.013199,120.211045 221.943071,119.362506 221.848716,118.614861 C221.72886,117.618864 221.584778,116.62804 221.440696,115.63851 C221.181858,113.773279 220.931946,111.90934 220.69861,110.045402 C220.265088,106.621499 220.053428,103.167845 219.849418,99.7245394 C219.705336,93.9374057 219.743588,88.1515655 219.771639,82.3605513 C219.802241,76.4893398 219.886395,70.6181284 220.066179,64.746917 C220.249788,58.4617845 220.409171,52.1753585 220.414271,45.885052 C220.414271,40.2764217 220.259988,34.6729655 220.259988,29.0643352 C220.259988,26.1539528 220.325016,23.2241679 220.20006,20.3137854 C220.115906,18.4291512 220.061078,16.5483974 219.836667,14.6741111 C219.632657,12.9822088 219.334293,11.3135896 219.039753,9.63720929 C218.569255,6.94025493 216.155562,5.0012935 213.532758,5 C213.211443,5 212.888852,5.02975058 212.564986,5.08925173" id="Fill-3" fill="#2C2C2C"></path>
                <path d="M41.0587311,5.07646509 C39.7869355,5.31493247 38.638298,6.06921517 37.8918092,7.15268655 C37.0824848,8.33206329 36.8914641,9.64233788 37.0523236,11.0446298 C37.2496279,12.7294537 37.3665024,14.4116856 37.4594993,16.1029896 C37.6329259,24.8174172 37.6882214,33.5668374 37.3325711,42.276081 C37.1365235,47.0143242 36.8713566,51.7538635 37.1264698,56.4921067 C37.3589621,60.8234002 37.8025825,65.1417335 38.0991672,69.473027 C38.3555371,76.1838102 38.4246564,82.8907054 38.3731311,89.6066727 C38.3442266,92.9672484 38.3140655,96.3096798 38.4472773,99.6702555 C38.5955697,103.462405 38.9750976,107.249371 39.21136,111.036337 C39.3332614,113.988667 39.4224881,116.944885 39.5670104,119.901103 C39.7379236,123.484593 39.8811891,127.06938 40.631448,130.58807 C41.2409548,133.443199 43.8172206,135.453323 46.6888144,134.911588 C48.0146488,134.662752 49.2223519,133.873477 50.0027719,132.739461 C50.7542875,131.650805 51.2356094,129.99579 50.8812157,128.663483 C50.5381325,127.36228 50.2528582,126.07663 50.1410106,124.724883 C50.0316764,123.409424 49.9487332,122.084894 49.8695601,120.762955 C49.7262946,117.464588 49.6307843,114.167517 49.4824919,110.86915 C49.3153488,107.166426 49.0074536,103.467589 48.7422868,99.775233 C48.5487526,93.1797954 48.7825016,86.5765817 48.7171525,79.977256 C48.6731674,76.0075517 48.6379794,72.0339593 48.4080006,68.065551 C48.2056694,64.614254 47.9442727,61.1694371 47.6803626,57.7246202 C47.6200402,56.2640075 47.5760552,54.8098749 47.5823388,53.342782 C47.5974194,51.3235854 47.6715656,49.3082768 47.744455,47.2877841 C47.8914907,43.0705403 47.9756906,38.8584805 47.9417593,34.6373486 C47.9065713,30.4097366 47.8085475,26.1769405 47.6954431,21.9506246 C47.5823388,17.6919081 47.3674405,13.4344877 46.8459038,9.20817172 C46.5392653,6.73407261 44.2042888,5 41.8869063,5 C41.6091723,5 41.332695,5.02462435 41.0587311,5.07646509" id="Fill-5" fill="#2C2C2C"></path>
                <path d="M63.1199932,121.853284 C60.0134578,122.196193 56.8810992,122.544418 53.7642345,122.766379 C54.3091048,122.741126 54.8539751,122.710556 55.4027189,122.683974 C52.7158111,122.819543 50.0469796,123.054794 47.3716922,123.247514 C46.0405044,123.252831 44.7441779,123.115933 43.4194458,122.932517 C40.2070351,122.491254 37.2670596,125.352814 37.0191565,128.545321 C36.8939138,130.124296 37.3871377,131.723208 38.371003,132.943325 C39.4297557,134.256479 40.8526161,134.910398 42.4665684,135.133687 C44.625391,135.435394 46.7183643,135.596216 48.8913897,135.57495 C51.055377,135.555013 53.2090349,135.658683 55.3730222,135.67862 C57.5563769,135.705202 59.7565166,135.512482 61.9398713,135.446027 C64.3556351,135.36761 66.763652,135.206788 69.1742511,135.063245 C72.3375977,134.968879 75.467374,135.153624 78.6242647,135.315775 C82.032932,135.492545 85.4377257,135.648051 88.8425195,135.881973 C92.0949562,136.099946 95.3693427,136.224882 98.6062854,136.61298 C102.2125,137.050255 105.789019,137.647022 109.369411,138.270372 C122.751012,140.580354 136.408922,139.946372 149.920931,139.842701 C153.678212,139.817449 157.450987,139.537008 161.182444,139.069163 C163.079161,138.829925 164.981042,138.611952 166.881633,138.404611 C167.962335,138.284992 169.044329,138.218537 170.128905,138.161385 C173.744158,138.22917 177.328423,138.447143 180.933347,138.711634 C184.272292,138.960177 187.600907,138.97081 190.950181,138.897709 C194.752652,138.820621 198.565453,138.524231 202.358887,138.274359 C203.866964,138.176006 205.369876,138.041766 206.872788,137.906198 C207.533863,137.84373 208.193647,137.791895 208.849557,137.698857 C209.868284,137.553985 211.471907,136.816333 212.249186,136.114566 C213.358294,135.103118 213.998711,134.131543 214.584898,132.725352 C215.678512,130.097714 214.503555,126.82679 212.3202,125.227878 C211.371196,124.547377 210.322773,124.152634 209.172348,124.048964 C208.573249,123.999787 208.024505,124.042318 207.502875,124.156621 C203.754633,123.812383 199.904388,124.09814 196.165183,124.225734 C191.675814,124.386556 187.23809,124.334721 182.753885,124.013078 C180.338121,123.836307 177.927522,123.618334 175.511758,123.44688 C172.773204,123.250172 170.024321,123.41631 167.285766,123.571815 C162.818346,123.827003 158.379332,124.490226 153.928697,124.924843 C147.592966,125.137499 141.244323,125.09231 134.900845,125.088323 C128.141613,125.083006 121.409495,124.802565 114.690289,124.048964 C111.245469,123.659536 107.821308,123.000301 104.386817,122.501887 C101.127924,122.030055 97.8457911,121.774867 94.5623665,121.629995 C87.7979696,121.338921 81.0348639,121.069113 74.2665935,121.001329 C74.1323126,121 74.0006141,121 73.8663333,121 C70.2769034,121 66.6848911,121.462528 63.1199932,121.853284" id="Fill-7" fill="#2C2C2C"></path>
                <path d="M172.446442,149.728253 C166.279802,150.051634 160.119631,150.799289 153.968517,151.380081 C147.976551,151.950524 141.96647,152.304949 135.951214,152.637385 C122.670812,153.242753 109.369708,153.277678 96.0867177,152.896089 C92.3422239,152.79002 88.5964363,152.704648 84.846767,152.62833 C80.7775089,152.553306 76.6991937,152.850816 72.6402867,153.118575 C69.168802,153.351409 65.7011989,153.796381 62.2387714,154.179263 C59.0299447,154.538862 55.8055914,154.780751 52.5851197,155.053684 C48.1432237,155.427512 43.7103849,155.943628 39.2723705,156.362729 C37.209923,156.559344 35.1435939,156.766308 33.096673,157.089688 C31.346051,157.369089 29.6187189,157.642022 27.8642152,157.798539 C24.7783073,157.792071 21.7040443,157.489387 18.6207241,157.489387 C15.0069124,157.484213 11.3982762,157.797245 7.79999111,158.050775 C6.36507626,158.15167 4.87323061,159.29385 4.08008111,160.415334 C3.17048224,161.68816 2.812077,163.310237 3.09414322,164.846941 C3.36197674,166.337079 4.22111422,167.691397 5.4554774,168.565818 C6.85545744,169.560537 8.25026195,169.661431 9.89219788,169.555362 C10.2570725,169.530786 10.6219472,169.507502 10.9868218,169.485512 C13.2071229,169.401433 15.4313056,169.396259 17.6503128,169.530786 C20.2639539,169.692476 22.8568929,170.075358 25.4640646,170.303018 C28.2743757,170.551375 31.1105645,170.313366 33.9001735,169.979638 C36.4724104,169.676954 39.0446473,169.46999 41.6324108,169.332877 C52.3134046,168.776662 62.9840473,167.987613 73.6443389,167.120954 C74.9498656,167.064039 76.25798,167.00583 77.5635067,166.948915 C79.464219,166.862249 81.3843395,166.948915 83.2902273,166.952796 C86.5948012,166.963144 89.9213712,167.206326 93.2259452,167.362842 C100.034351,167.691397 106.858283,167.877664 113.675746,167.913883 C128.009368,167.978559 142.363692,167.402941 156.646852,166.084842 C162.559892,165.542856 168.46905,165.000871 174.387265,164.544257 C182.957938,164.1562 191.526023,164.032022 200.10834,163.951824 C204.581289,163.906551 209.059414,163.850929 213.537539,163.821178 C215.563757,163.805656 217.596446,163.800482 219.62784,163.795308 C220.937248,163.792721 222.259595,163.752622 223.570298,163.831526 C223.596175,163.89879 223.623347,163.966053 223.647931,164.034609 C223.981752,165.356589 224.160308,166.694091 224.263818,168.053583 C224.358272,170.665205 224.443668,173.289761 224.434611,175.901383 C224.419084,179.489613 224.297459,183.076551 224.222414,186.664782 C224.080087,193.419555 224.125373,200.170448 224.318161,206.925221 C224.509656,213.903774 224.818894,220.871978 224.9444,227.849237 C225.010388,231.340454 224.965102,234.82779 224.934049,238.319006 C224.919816,240.19332 224.686918,242.08833 224.560117,243.95747 C224.454019,245.558851 224.272875,247.151177 224.090438,248.747383 C223.483608,254.128436 222.716336,259.490086 222.311351,264.897009 C222.099154,267.720768 222.245363,270.570397 222.432976,273.39545 C222.518372,274.633351 222.634821,275.876426 222.841842,277.098804 C222.947941,277.731337 223.059214,278.362575 223.231301,278.978292 C223.393036,279.584954 223.580649,280.176094 223.78767,280.767233 C224.065854,281.545934 224.520007,282.206924 225.010388,282.874381 C225.930338,284.107108 227.568392,284.859938 229.069295,284.981529 C231.161502,285.148393 233.086798,284.173078 234.340569,282.526424 C234.855534,281.83827 235.194531,281.106136 235.401552,280.282163 C235.785835,278.736403 235.90746,277.371737 235.210058,275.876426 C235.101372,275.646179 234.978453,275.423693 234.842595,275.211555 C234.841301,275.199914 234.840008,275.189565 234.840008,275.177924 C234.764962,273.148387 234.739085,271.103328 234.902114,269.085434 C235.138894,266.235804 235.46754,263.400403 235.836297,260.566296 C236.509115,255.397381 237.332024,250.212944 237.646437,245.009104 C237.827581,242.017187 237.989316,239.061488 237.999667,236.070865 C238.004842,233.058251 237.949205,230.062454 237.868985,227.051134 C237.717601,221.609286 237.4006,216.177786 237.121121,210.739818 C236.832585,204.091114 236.595805,197.451464 236.629446,190.792411 C236.644973,187.219703 236.70061,183.653462 236.736838,180.080753 C236.766598,177.003464 236.676026,173.926174 236.644973,170.848885 C236.589336,166.018873 236.422425,161.128065 234.431141,156.630488 C234.02745,155.715968 233.43097,154.867417 232.808613,154.083543 C231.641532,152.617982 230.180739,151.915599 228.563387,151.082571 C226.779124,150.162877 224.62093,149.91064 222.650348,149.622184 C219.278492,149.121591 215.796656,149.177213 212.395041,149.111243 C208.5548,149.037512 204.711971,149 200.874318,149 C191.394047,149 181.917657,149.23154 172.446442,149.728253" id="Fill-9" fill="#2C2C2C"></path>
                <path d="M10.2103471,160.525714 C8.87124909,161.156053 7.82248082,162.312107 7.31728147,163.709704 C6.7775495,165.213219 6.9834662,166.570775 7.50785034,168.023914 C7.69074529,168.539294 7.87236126,169.053383 8.04886129,169.567471 C8.95949911,173.140257 9.22041219,176.745335 9.46214049,180.413706 C10.0248942,192.44441 10.4981189,204.497073 10.7155465,216.538111 C10.8293762,222.981009 10.9150682,229.423908 10.8101914,235.873264 C10.760311,238.743377 10.5697421,241.614781 10.4955609,244.484893 C10.4149848,247.593966 10.3446406,250.706914 10.3254558,253.814695 C10.2947602,260.056091 10.4495174,266.281987 10.6605501,272.524675 C10.7743798,275.924376 10.8894885,279.320202 11.2693473,282.705694 C11.4138727,284.012874 11.6287423,285.314887 11.834659,286.611734 C11.924188,287.202031 12.0341807,287.792329 12.1390576,288.382627 C12.2183547,288.821798 12.3334634,289.250635 12.4434562,289.679473 C12.7938982,291.006028 13.1827099,291.808161 13.9680071,292.933214 C14.8070217,294.14481 16.4607502,294.870734 17.8740294,294.981818 C19.8423884,295.143278 21.7966786,294.219727 22.9400918,292.596086 C23.9543274,291.162321 24.1448963,289.629098 23.9095629,287.927955 C23.818755,287.271782 23.5923745,286.654359 23.2675121,286.097645 C22.6945265,283.379951 22.4272185,280.589923 22.2417656,277.821854 C22.0320119,271.647625 21.9117873,265.468229 21.941204,259.288834 C21.9655047,253.245064 22.2302547,247.210337 22.5551171,241.175609 C23.2598382,228.182604 22.8607947,215.201223 22.1854902,202.21855 C21.8810916,196.27424 21.5869249,190.335097 21.2262509,184.395954 C21.042077,181.439299 20.8118596,178.492978 20.5368777,175.546657 C20.416653,174.24981 20.2925914,172.928422 20.0329573,171.650951 C19.882037,170.899193 19.7272797,170.147436 19.5725224,169.390511 C19.1478992,167.296699 18.363881,165.258428 17.6348591,163.255033 C17.1398916,161.912978 15.7713769,160.813758 14.4821594,160.33842 C13.8644093,160.112376 13.2159635,160 12.5675178,160 C11.7579198,160 10.9521588,160.175668 10.2103471,160.525714" id="Fill-11" fill="#2C2C2C"></path>
                <path d="M90.8116261,382.374657 C90.8454636,382.484439 90.8819039,382.594222 90.9183443,382.704004 C90.8819039,382.594222 90.8454636,382.484439 90.8116261,382.374657 M85.5342807,274.122698 C84.4618929,274.369386 83.5977357,274.662569 82.7335786,275.36776 C81.8941488,276.060035 81.2538395,277.063576 80.8529956,278.05291 C80.5731856,278.74906 80.3493377,279.454251 80.1254897,280.160733 C79.5320324,282.046408 79.8730101,284.043157 81.0026613,285.501327 C80.8438855,288.842588 80.5835972,292.185141 80.3844766,295.518653 C80.1866575,298.837958 80.0955566,302.16372 79.9628096,305.488191 C79.6829996,312.379946 79.6023103,319.271701 79.4799748,326.167331 C79.3680508,332.529547 79.4903863,338.89693 79.4136012,345.259146 C79.3680508,348.604282 79.3524335,351.94296 79.1897533,355.28293 C79.0127572,358.99616 78.8032252,362.690017 78.5195109,366.392914 C78.2553183,369.798754 77.9755084,373.208468 77.8687901,376.619473 C77.8024166,378.617514 77.827144,380.629762 78.071815,382.61747 C78.1564087,383.322661 78.3906682,383.982647 78.6470522,384.634884 C75.3361849,385.386571 71.9628485,385.684921 68.5504689,385.887695 C67.4963012,385.952273 66.4447365,386.012977 65.3957746,386.087887 C64.8791023,385.912235 64.3403055,385.798578 63.7910972,385.755956 C62.6328143,385.665547 61.5291918,385.861864 60.4763257,386.346199 C60.1041134,386.520559 59.7566285,386.722042 59.4325696,386.953231 C58.688145,387.221875 57.986668,387.602885 57.3502631,388.16213 C54.6198388,390.569594 54.1070708,394.852402 56.6696092,397.612462 C58.1792814,399.242408 60.5583165,400.4371 62.8605665,399.846857 C63.6700631,399.640208 64.4834641,399.463265 65.1940512,399.02026 C65.4673539,398.849774 65.7107235,398.698662 65.9345714,398.552716 C66.4772725,398.52301 67.0199736,398.499762 67.5587704,398.470056 C69.1751608,398.388688 70.7863454,398.293113 72.3936257,398.182039 C75.2554956,397.990888 78.2800457,397.657666 81.0299916,396.820736 C84.4566871,395.775866 88.6863721,394.817529 90.0645986,391.048762 C90.2884466,390.437855 90.4250979,389.797242 90.5929839,389.172128 C90.8975212,388.042015 91.2332931,386.891236 91.2996667,385.721084 C91.3790546,384.331368 91.1109576,383.26454 90.7192237,382.056933 C90.7738843,381.378865 90.8884111,380.704672 90.9899236,380.034353 C91.2437047,378.374701 91.4779641,376.720215 91.680989,375.055396 C92.1078618,371.579813 92.3980833,368.097771 92.6570702,364.606689 C93.1802497,357.640024 92.9824305,350.656568 92.8548893,343.684736 C92.7429653,337.76165 92.4228107,331.84373 92.3473271,325.920644 C92.2861593,321.51643 92.2301973,317.112216 92.1690296,312.708002 C92.1286849,309.599221 92.21458,306.486566 92.2549247,303.379077 C92.2861593,300.402035 92.326504,297.430159 92.4123992,294.454409 C92.4787727,292.345294 92.5451462,290.241346 92.6063139,288.132231 C92.6414529,286.967245 92.6674817,285.797093 92.6922091,284.630816 C92.7377595,282.184605 92.7989273,279.530453 91.6966063,277.285724 C90.7738843,275.402632 88.7462384,274 86.6118743,274 C86.2552793,274 85.89478,274.038747 85.5342807,274.122698" id="Fill-13" fill="#2C2C2C"></path>
                <path d="M153.024238,274.438916 C152.709372,288.279787 152.399626,302.120658 152.103959,315.961529 C151.804452,329.91353 151.513905,343.860363 150.009971,357.741292 C149.459596,362.814512 148.998816,367.841213 148.984737,372.949322 C148.969377,377.805451 148.589234,382.640904 148.203971,387.47765 C148.119495,388.521756 148.049098,389.572324 148.014539,390.621599 C147.983821,391.489965 147.988941,392.408727 148.159173,393.246079 C148.504758,394.911739 149.423757,396.078606 150.694741,397.158894 C151.894048,398.178448 153.593813,398.329637 155.088787,398.329637 C155.589245,398.329637 156.093542,398.334806 156.59912,398.345143 C157.163575,398.350312 157.72931,398.355481 158.293765,398.350312 C160.6783,398.324468 163.058995,398.228845 165.43841,398.355481 C166.683795,398.414923 167.92406,398.501501 169.163045,398.632014 C169.813256,398.703086 170.468587,398.774158 171.118799,398.854275 C172.298907,398.996418 173.3587,399.061028 174.568246,398.925346 C177.487797,398.602293 179.753297,395.715494 179.978567,392.888137 C180.272954,389.213089 177.498037,386.058802 173.912915,385.695691 C173.537892,385.659509 173.178228,385.579392 172.813444,385.503151 C172.361624,385.469554 171.918763,385.481184 171.483583,385.538041 C168.228686,385.415281 164.960991,385.628496 161.718894,385.907613 C161.049484,385.963179 160.378793,386.027789 159.709383,386.100153 C159.800259,385.212404 159.888575,384.322071 159.98841,383.434322 C160.143284,382.055533 160.44919,380.693542 160.643741,379.319922 C160.869012,377.730503 161.008525,376.124285 161.12372,374.524528 C161.238915,372.893757 161.404028,371.288831 161.648497,369.678737 C161.868647,368.240506 162.293589,366.831996 162.548297,365.404103 C163.129392,362.127056 163.604251,358.851301 163.898638,355.535488 C165.094105,342.194703 164.738281,328.782846 164.648685,315.405878 C164.559088,302.065093 164.504051,288.724307 164.698602,275.38223 C164.724201,273.808317 164.388856,272.379132 163.368741,271.132148 C162.369105,269.916178 160.89333,269.143435 159.32924,269.018091 C159.185886,269.006461 159.043812,269 158.901738,269 C155.996267,269 153.090795,271.364746 153.024238,274.438916" id="Fill-15" fill="#2C2C2C"></path>
                <path d="M108.9047,49.599558 C107.27416,51.6428105 107.813046,54.0928939 108.065451,56.4519928 C108.025067,58.4939456 107.731014,60.4813076 107.376384,62.4907659 C107.238823,63.1133601 107.094952,63.7359542 106.903124,64.3338525 C106.395788,65.8922875 105.897287,67.4559216 105.345781,68.99486 C104.250341,72.046741 105.853116,75.5392471 108.806262,76.6466588 C111.803578,77.7683681 115.116402,76.1228479 116.23582,73.076166 C117.408244,69.8735106 118.414081,66.6747545 119.163725,63.3330227 C119.557478,61.5718222 119.893177,59.8002234 119.981519,57.9870317 C120.048407,56.6456598 119.920942,55.3055877 119.803573,53.9694149 C119.803573,53.962916 119.803573,53.9577169 119.804835,53.951218 C119.823766,52.5539556 119.67106,51.8793703 119.233137,50.5691931 C118.55669,48.5480368 116.23582,47.1832688 114.273367,47.0207965 C114.108041,47.0064989 113.946502,47 113.786224,47 C111.808626,47 110.154108,48.0268254 108.9047,49.599558" id="Fill-19" fill="#2C2C2C" transform="translate(112.500000, 62.000000) rotate(-5.000000) translate(-112.500000, -62.000000) "></path>
                <path d="M146.543407,47.0878555 C144.438478,47.4404187 142.692743,48.7947633 141.946725,50.6134871 C141.401654,51.9507169 141.617672,53.2434485 141.563668,54.6160488 C141.509663,56.0913373 141.401654,57.5666259 141.303691,59.0373505 C141.114047,61.8898032 140.782483,64.6852069 140.209782,67.4863155 C139.918407,68.5519918 139.627033,69.6176681 139.326867,70.6787806 C138.914924,72.1358134 138.801891,73.4422368 139.527815,74.8502074 C140.194711,76.1566308 141.426772,77.1812318 142.91253,77.6718537 C144.404568,78.1658985 146.067411,78.0997216 147.505444,77.4892967 C148.834212,76.926793 150.223264,75.7458776 150.610089,74.4132117 C151.847174,70.16648 153.039046,65.9402861 153.548951,61.5646236 C153.759946,59.7230801 153.965918,57.8872416 153.99606,56.0377112 C154.019922,54.8830383 153.932008,53.7158147 153.823998,52.5611418 C153.705941,51.3129085 153.283951,49.8912461 152.277956,48.9864481 C151.582174,48.2242727 150.718098,47.6766018 149.693264,47.3331665 C149.013809,47.1118161 148.324307,47 147.624757,47 C147.266819,47 146.906369,47.0296655 146.543407,47.0878555" id="Fill-21" fill="#2C2C2C"></path>
                <path d="M14.5937694,59.1328108 C14.6804604,59.1433979 14.7645637,59.1632487 14.8499609,59.1910399 C14.7645637,59.1711891 14.6791665,59.1526616 14.5937694,59.1328108 M12.3889698,47.6683104 C9.93703596,48.5986513 8.63796389,51.7006702 9.08823987,54.1979012 C9.54627922,56.7758588 11.7549605,58.955477 14.3569863,59.1209004 C15.7893297,59.4782148 17.2346121,59.7495091 18.7122419,59.8170019 C20.3438453,59.8937583 21.997445,59.7495091 23.6290485,59.6820164 C27.2985389,59.5377672 30.9628537,59.7548027 34.6219929,59.9877188 C37.8321501,60.1941671 40.7188331,57.7750159 40.9814941,54.4506681 C41.2389795,51.2044001 38.7779884,48.169874 35.5678313,47.947545 C31.8530545,47.6934547 28.1175753,47.3586378 24.3924474,47.4195136 C22.6534505,47.4459814 20.9157476,47.5544991 19.1819263,47.5187677 C18.448287,47.502887 17.7159416,47.4248072 16.997829,47.2646774 C16.5993089,47.1773338 16.2098461,47.0939605 15.8061504,47.0370548 C15.6172415,47.0119105 15.4283326,47 15.2407176,47 C14.2560624,47 13.298579,47.3255532 12.3889698,47.6683104" id="Fill-23" fill="#2C2C2C"></path>
                <path d="M6.7012868,39.3361789 C6.49671975,44.3640567 6.23851621,49.3970728 6.12126436,54.4300889 C6.06762788,56.7076635 5.95536547,59.0070762 6.01898084,61.2846509 C6.06263844,62.8300103 6.12126436,64.3753698 6.25847397,65.9155909 C6.29215269,66.3125286 6.36948902,66.7094664 6.43809382,67.1051195 C6.64765032,68.3653004 7.21270444,70.0314111 8.1482245,70.9396149 C8.49873269,71.2748924 8.85048823,71.6063161 9.20099642,71.9428782 C10.034233,72.54535 10.9597741,72.8909042 11.9738779,72.9808254 C13.5081308,73.1118534 14.7305437,72.5594805 15.9591934,71.6872452 C15.9691722,71.6769685 15.9779038,71.6666918 15.9928721,71.6615534 C17.4847147,70.5979145 18.3216934,68.1083828 17.88387,66.3125286 C17.790318,65.7010647 17.7129816,65.0960237 17.6580978,64.4832752 C17.4098731,56.4083545 17.6244191,48.3295801 17.9275276,40.2649361 C18.0447794,37.1087032 15.9205252,34.277471 12.7622095,34.0166996 C12.6225051,34.0064229 12.4828008,34 12.3430965,34 C9.52156796,34 6.82727017,36.3238198 6.7012868,39.3361789" id="Fill-25" fill="#2C2C2C"></path>
                <path d="M238.590664,43.2064328 C236.216159,43.4220696 233.84685,43.7297465 231.497025,44.151816 C225.946555,45.1524233 220.431156,46.2884611 214.854707,47.1510082 C211.667051,47.6440802 209.526359,50.971987 210.090109,54.1105542 C210.683736,57.4082192 213.777866,59.3962853 216.969419,58.9334551 C222.414673,58.1419103 227.839144,57.2123053 233.288295,56.462836 C235.490038,56.1604185 237.707369,55.9447817 239.919503,55.7238855 C242.183596,55.5029893 244.47107,55.4043749 246.613061,54.5628655 C248.525135,53.8081367 249.820201,51.6609728 249.982572,49.6571285 C250.139746,47.6598585 249.226575,45.4666745 247.536624,44.3516745 C245.928507,43.287954 243.993052,43 242.0537,43 C240.878138,43 239.699978,43.1051887 238.590664,43.2064328" id="Fill-27" fill="#2C2C2C"></path>
                <path d="M245.659587,32.0879357 C242.519069,32.6614868 240.617267,35.6670519 241.06498,38.7631777 C241.45265,41.4603115 241.824657,44.1666325 242.263233,46.8532665 C242.457721,48.0738672 242.650903,49.2931554 242.855833,50.5085061 C243.110364,52.0165386 243.414495,53.527196 243.545024,55.0549155 C243.615509,56.4999492 243.868735,57.7349871 244.838562,58.9109637 C245.822748,60.1066274 247.27031,60.8599874 248.805326,60.9833599 C251.782684,61.2235426 254.933644,58.8348402 254.994993,55.682278 C255.066783,52.2567213 254.352792,48.9558496 253.740613,45.6077288 C253.195003,42.6546627 252.74729,39.6805969 252.303493,36.7078437 C251.888412,33.9503361 249.309167,32 246.633331,32 C246.308314,32 245.983298,32.0288744 245.659587,32.0879357" id="Fill-29" fill="#2C2C2C"></path>
                <path d="M132.190085,195.305968 C132.96088,195.31639 133.708278,195.381527 134.467374,195.498773 C135.170578,195.731964 135.838687,195.995117 136.506795,196.297352 C137.79232,197.073785 138.972558,197.96095 140.108603,198.949729 C141.061373,199.900728 141.930954,200.901232 142.722546,201.995533 C143.342561,203.098953 143.85989,204.228427 144.295331,205.416525 C144.767166,207.181736 145.075224,208.958672 145.242901,210.779902 C145.261099,212.348399 145.162312,213.877815 144.906247,215.417652 C144.711274,216.097682 144.490304,216.750354 144.22514,217.406935 C143.844292,218.032249 143.433548,218.624996 142.977311,219.204714 C142.291005,219.83524 141.573503,220.401932 140.813107,220.936055 C137.164505,222.991777 133.101261,224.185086 129.147201,225.524301 C126.736031,226.335908 124.363855,227.256944 121.964383,228.094605 C120.984317,228.357758 120.01205,228.55838 119.009887,228.696471 C118.241692,228.689957 117.483895,228.641756 116.7157,228.540142 C116.048892,228.346034 115.406779,228.118054 114.768567,227.843177 C114.353923,227.581326 113.960077,227.307751 113.568831,227.012029 C113.234776,226.645959 112.924119,226.268165 112.62126,225.866922 C111.916756,224.575907 111.357833,223.234086 110.8652,221.846669 C110.372567,220.157017 109.964423,218.44652 109.774649,216.696942 C109.792847,215.761575 109.863037,214.843144 109.998219,213.914291 C110.304977,212.806963 110.698823,211.746534 111.175858,210.699132 C111.747779,209.792425 112.365195,208.952159 113.058,208.13013 C114.413715,206.737502 115.831821,205.407406 117.220031,204.049952 C117.251227,204.018686 117.282423,203.988723 117.314919,203.95876 C118.522453,203.793312 119.654599,203.179722 120.312309,202.101054 C120.673659,201.508308 121.025911,200.91947 121.40026,200.346265 C121.528943,200.24856 121.656325,200.150854 121.787607,200.055754 C122.514208,199.628456 123.243408,199.210277 123.95831,198.762134 C124.965673,198.285332 125.813157,197.610513 126.489065,196.731164 C126.9622,196.544873 127.441834,196.370306 127.925368,196.203555 C129.336975,195.804917 130.735584,195.497471 132.190085,195.305968 M127.807084,185.948394 C126.836117,186.229786 125.882048,186.550259 124.946175,186.909815 C123.543667,185.944486 121.526343,185.376492 119.845673,185.810304 C118.682332,186.111236 117.52549,186.452554 116.407643,186.904604 C115.443174,187.296729 114.560595,187.927254 113.692314,188.482221 C112.47308,189.26647 111.437122,190.233102 110.401164,191.234909 C107.953598,193.596774 105.725703,196.25827 103.460112,198.7934 C101.181524,201.348071 99.474857,204.354793 98.347911,207.586888 C97.7278957,209.357311 97.3834428,211.271034 97.1390762,213.123529 C96.8648137,215.219636 97.0324908,217.448622 97.3275505,219.530399 C97.5511199,221.108016 98.0424527,222.654367 98.5207874,224.165544 C99.1291042,226.084479 99.7842147,227.952607 100.647297,229.773836 C101.531176,231.647174 102.724413,233.422808 104.090526,234.979581 C105.841387,236.984496 108.075781,238.262483 110.432359,239.40759 C112.153324,240.246554 114.169348,240.593083 116.037193,240.887502 C117.048455,241.045133 118.083114,241.004748 119.099575,240.959153 C120.338305,240.908346 121.486048,240.806732 122.698783,240.587872 C125.486902,240.088923 128.198331,238.919063 130.859067,237.951128 C134.154117,236.750003 137.484262,235.641372 140.774112,234.419403 C144.353823,233.086701 147.816549,231.172977 150.650162,228.593554 C152.442617,226.95992 153.768436,225.005811 154.849888,222.853686 C155.996331,220.553049 156.544856,218.054396 156.869812,215.510147 C157.133676,213.489599 156.936103,211.388281 156.804821,209.362522 C156.677438,207.438376 156.251097,205.545496 155.732467,203.693002 C154.54443,199.44477 152.49331,195.561305 149.34514,192.446456 C146.588217,189.718521 143.410152,187.571607 139.804445,186.126869 C138.053584,185.424693 136.093452,185.134182 134.220408,185.022147 C133.969542,185.007816 133.721276,185 133.47171,185 C131.547973,185 129.645033,185.416876 127.807084,185.948394" id="Fill-32" fill="#2C2C2C"></path>
                <path d="M13.6300118,290.880624 C13.6012826,290.910083 13.5725533,290.942103 13.543824,290.971562 C13.5725533,290.940823 13.6012826,290.910083 13.6300118,290.880624 M13.5581886,290.600123 C13.5412122,290.634705 13.5229299,290.666726 13.5046477,290.700027 C13.5229299,290.666726 13.5412122,290.634705 13.5581886,290.600123 M11.1357868,280.119117 C9.71760436,280.224145 8.38038632,280.694208 7.04447415,281.119443 C5.37686922,281.649705 4.09058038,283.085512 3.01976124,284.345845 C2.36159923,285.122026 1.97897727,286.167181 1.54542611,287.072726 C1.04527522,288.124284 0.815440866,289.524228 0.611724055,290.641109 C-0.137849342,294.707734 -0.122178818,298.906284 0.249996126,303.013896 C0.44848943,304.053927 0.892487609,304.985088 1.57676716,305.804818 C2.63191577,307.056185 4.19243878,307.851579 5.84567906,307.982223 C9.11037156,308.237108 12.3698405,305.720283 12.513487,302.413188 C12.6571335,299.047175 12.5095694,295.617121 12.9875204,292.278006 C13.0293084,292.272882 13.0710965,292.267759 13.1128846,292.263917 C13.479836,292.279287 13.8363404,292.308746 14.1928448,292.353575 C19.637046,294.008403 24.7325781,296.69942 29.9182156,298.970326 C32.9217327,300.287016 36.5742707,298.305577 37.6411722,295.44421 C38.1818053,293.977663 38.1099821,292.336924 37.4361495,290.925453 C36.7231407,289.4192 35.5387102,288.549519 34.0395634,287.868119 C31.44348,286.697443 28.9022433,285.416617 26.3466421,284.156283 C23.1028436,282.555249 19.7506573,280.89914 16.1594956,280.219021 C15.3041462,280.057637 14.4683849,280 13.6300118,280 C12.8099211,280 11.9859127,280.055076 11.1357868,280.119117" id="Fill-34" fill="#2C2C2C"></path>
                <path d="M34.4825296,292.394971 C32.2522947,293.441582 31.4615188,296.030697 32.3684399,298.244777 C32.8120157,299.330013 33.2667118,300.415248 33.7387061,301.486779 C34.7049353,303.662234 37.3886307,304.596707 39.5014848,303.603673 C40.5393781,303.112763 41.3548656,302.221898 41.7465468,301.136662 C42.1567617,300.001588 42.0406165,298.887695 41.6019831,297.792492 C41.1670564,296.702272 40.7284229,295.612053 40.2836115,294.521833 C39.6238079,292.908309 37.9582364,292 36.2963716,292 C35.6736356,292 35.0508997,292.128334 34.4825296,292.394971" id="Fill-36" fill="#2C2C2C"></path>
                <path d="M220.192531,273.159984 C219.510502,273.204425 218.832325,273.253944 218.155434,273.308541 C216.725869,273.432974 215.104925,273.45202 213.810225,274.112273 C211.978635,275.044246 210.594026,276.255557 209.580615,278.040781 C208.572341,279.815846 207.890312,281.670905 207.322596,283.619922 C206.887176,285.118189 206.837084,286.546622 207.519113,287.990291 C208.161325,289.359047 209.345565,290.430689 210.780267,290.946195 C212.21497,291.466779 213.8205,291.396945 215.20511,290.757007 C216.439442,290.186903 217.879282,288.917185 218.195251,287.528114 C218.405896,286.596141 218.635808,285.680674 218.924804,284.776635 C221.670904,284.823614 224.422141,284.817266 227.166957,284.930271 C228.96772,284.998836 230.763346,285.102952 232.560256,285.222306 C233.768899,285.302298 234.985249,285.360705 236.200315,285.438158 C236.41353,287.077364 236.565092,288.726728 236.729498,290.371013 C236.8695,291.768972 237.913738,293.168201 239.037609,293.956696 C240.282217,294.834071 241.862059,295.181974 243.362267,294.908985 C244.81752,294.646153 246.131486,293.822106 246.989482,292.627302 C247.938672,291.313143 248.099225,289.913914 247.952801,288.352161 C247.792247,286.650739 247.636832,284.949317 247.466004,283.247894 C247.401782,282.573674 247.315726,281.899454 247.230954,281.225233 C246.873884,278.436933 245.283766,275.759097 242.474729,274.806809 C240.14093,274.018314 237.677403,273.982762 235.244703,273.745324 C233.623759,273.581531 232.002815,273.417737 230.383156,273.259022 C228.574686,273.078723 226.748234,273 224.920498,273 C223.339371,273 221.759529,273.058407 220.192531,273.159984" id="Fill-38" fill="#2C2C2C"></path>
                <path d="M187.873083,168.117846 C187.865292,167.926779 187.854905,167.735713 187.845816,167.544647 L187.873083,168.117846 Z M180.381216,148.103982 C179.276263,148.311945 178.286869,148.773363 177.419527,149.484338 C177.374082,149.514232 177.328637,149.550626 177.277999,149.580521 C176.389882,150.32269 175.745867,151.241627 175.345954,152.328235 C174.920074,153.495429 174.848661,154.758806 175.12003,155.954595 C175.009664,160.982106 175.03823,166.016117 174.736997,171.031931 C174.372142,177.099259 174.14362,183.161388 173.574913,189.213119 C173.002312,195.275248 172.084331,201.307482 171.328652,207.348814 C170.943022,210.461764 170.67425,213.594211 170.328871,216.716259 C170.035428,219.400285 169.493989,222.045318 168.933072,224.683852 C168.487715,226.6738 168.039761,228.665048 167.661922,230.673193 C167.250324,232.84121 166.925719,235.004028 166.62189,237.192842 C166.084345,241.071356 165.997351,245.031757 165.835049,248.941466 C165.672747,252.800484 165.561083,256.649104 165.622109,260.512022 C165.644182,261.82349 165.685731,263.132359 165.741563,264.441227 C165.706506,264.437328 165.668852,264.432129 165.632496,264.42693 C162.553949,264.040898 159.454627,263.797841 156.370887,263.467699 C149.564584,262.741128 142.773863,261.970364 135.946786,261.477751 C133.988773,261.334776 132.015179,261.350374 130.042883,261.360772 C128.795104,261.37117 127.542132,261.380268 126.30474,261.345174 C122.901589,261.254191 119.48805,261.1983 116.105674,260.80187 C113.488065,260.492525 110.865262,260.106493 108.233371,260.029807 C105.748201,259.95442 103.207198,260.192278 100.737609,260.447033 C97.3889913,260.791472 94.1234722,261.238593 90.8618485,262.080844 C87.7248727,262.889302 84.7748691,264.285255 81.7274841,265.360165 C81.2288919,265.50184 80.7302998,265.642215 80.2317076,265.78259 C80.3810256,260.995536 80.796519,256.216281 81.291216,251.460421 C81.6664585,247.814565 81.9456182,244.179107 82.1027267,240.518954 C82.2442541,237.09146 82.1845269,233.648368 82.1637523,230.216974 C82.128695,223.742818 81.8742052,217.28036 81.5911503,210.811403 C81.2808286,203.764048 81.1185265,196.727091 80.9964753,189.675837 C80.8497541,181.150643 80.6173375,172.637147 80.0330498,164.127551 C79.9421606,162.777089 78.8566839,161.365539 77.8023692,160.614271 C76.5948413,159.755123 75.0679028,159.415883 73.6123772,159.679736 C72.2074899,159.938391 70.9298474,160.745548 70.1027557,161.914042 C69.1640002,163.238508 69.073111,164.553875 69.1691938,166.107101 C69.1899685,166.412547 69.2081464,166.716693 69.2263242,167.020839 C69.8028214,180.226506 69.1458223,193.443871 69.6262367,206.648238 C69.879428,213.725488 70.1326193,220.798838 70.2494769,227.876088 C70.3559471,234.390537 70.4520299,240.93488 69.9092916,247.433732 C69.5755984,251.444824 69.2406068,255.450716 69.0977809,259.472205 C68.9562534,263.385814 68.9354788,267.407303 69.260083,271.317013 C69.3925216,272.926128 69.7976277,274.699015 70.8831044,275.942895 C72.3645983,277.637796 74.2408111,278.409859 76.4779837,278.495644 C77.9646713,278.556734 79.5006988,278.268185 80.976999,278.064121 C82.6857159,277.831462 84.3801503,277.515617 86.0590036,277.110089 C87.9040543,276.661668 89.717943,275.997486 91.5279364,275.380095 C93.4937399,274.861486 95.4647371,274.409166 97.4915662,274.196004 C99.5378716,273.981542 101.588072,273.82297 103.643466,273.668297 C105.126259,273.611107 106.598664,273.585112 108.091843,273.672197 C110.247216,273.799574 112.423363,274.2207 114.563154,274.520947 C117.185957,274.891381 119.838623,275.078548 122.480902,275.195527 C125.240038,275.317706 127.993981,275.378795 130.747924,275.469779 C133.887496,275.571161 136.986818,275.775225 140.110809,276.023481 C145.329148,276.439408 150.517622,277.262162 155.732066,277.714482 C158.573002,277.957539 161.41264,278.1811 164.258771,278.34877 C166.492048,278.477448 168.783754,278.442354 170.983273,278.876477 L171.409154,278.968761 C172.789371,279.094838 173.504799,278.825786 174.777248,278.40466 C176.339243,277.892551 177.642854,276.252241 178.190786,274.739308 C178.808833,273.040508 178.523181,271.172738 178.372565,269.389453 C178.158326,263.090766 178.27778,256.823273 178.656918,250.531085 C178.86077,247.180277 179.068516,243.833368 179.428178,240.492959 C179.77875,237.304622 180.350054,234.173475 180.981085,231.03323 C181.60822,228.308911 182.211984,225.578094 182.811853,222.844677 C183.368874,220.271131 183.637646,217.6196 183.942774,215.005762 C184.576402,209.551925 185.255474,204.120185 186.037121,198.687145 C187.574447,187.995234 188.349602,177.237034 187.787387,166.437243 C187.806863,166.807677 187.827638,167.176812 187.845816,167.544647 C187.740644,165.310342 187.683514,163.082535 187.766612,160.841731 C187.80167,159.755123 187.847114,158.668515 187.893857,157.587106 C187.969166,155.617954 188.263906,153.551319 187.360208,151.718643 C186.600634,150.179715 185.358049,148.981327 183.729834,148.387332 C183.010511,148.129977 182.278203,148 181.536807,148 C181.155073,148 180.769443,148.033794 180.381216,148.103982 Z" id="Fill-40" fill="#2C2C2C"></path>
                <path d="M4.89972325,220.204254 C4.75849772,220.427807 4.60172441,220.646037 4.43976852,220.848299 C2.45483713,223.452421 2.47556749,228.079162 4.79348019,230.49566 C5.84165871,231.593463 6.95461959,232.684613 8.4783006,233.042563 C9.53036606,233.292729 10.5837272,233.598783 11.6409752,233.775763 C12.9366223,233.983347 14.2167217,234.004638 15.522734,233.999315 C18.2759841,233.983347 21.0292343,233.797053 23.7824844,233.698584 C24.4406731,233.666648 25.0936793,233.63072 25.751868,233.598783 C27.0578803,233.344625 28.2213714,232.788405 29.2488196,231.920808 C30.8178483,230.590138 31.810314,228.619415 31.9761568,226.535585 C32.1342257,224.518288 31.5006543,222.481032 30.2451722,220.921486 C29.0570638,219.451095 26.9360895,218.07252 24.9978014,218.125747 C21.6252319,218.209579 18.085524,218.439785 14.6961111,217.971389 C13.5611243,217.3167 12.3004596,217 11.0462732,217 C8.68560414,217 6.34566544,218.120425 4.89972325,220.204254" id="Fill-42" fill="#2C2C2C"></path>
                <path d="M238.174147,202.085384 C234.57455,202.601511 230.971014,203.085778 227.342525,203.336832 L227.103515,203.344479 C226.4574,203.375064 225.811285,203.409472 225.159917,203.438783 C223.871626,203.673271 222.722539,204.195769 221.712656,205.002456 C220.16303,206.247533 219.183351,208.078827 219.024449,210.024817 C218.865546,211.901989 219.48671,213.803375 220.727724,215.257451 C222.076424,216.835142 223.85718,217.576836 225.903212,217.866122 C228.355035,218.208932 230.900098,217.821518 233.341416,217.508019 C235.849709,217.184324 238.354062,216.766325 240.851848,216.387832 C244.883502,215.774852 247.603227,211.757983 246.884883,207.934822 C246.209877,204.341049 242.954349,202 239.361318,202 C238.968659,202 238.57206,202.026762 238.174147,202.085384" id="Fill-44" fill="#2C2C2C"></path>
                <path d="M161.540119,319.092293 C157.691599,319.699148 153.827822,320.223824 149.958959,320.692873 C146.030341,321.172035 143.42779,325.39347 144.107988,329.102872 C144.44618,330.944929 145.514154,332.613781 147.04873,333.701062 C148.711718,334.87558 150.579401,335.162572 152.56151,334.921094 C156.429101,334.455838 160.268721,333.794619 164.108342,333.14225 C167.961947,332.486088 170.583569,328.633823 169.888115,324.840979 C169.24733,321.350299 166.141306,319 162.717433,319 C162.327114,319 161.935523,319.029078 161.540119,319.092293" id="Fill-46" fill="#2C2C2C"></path>
                <path d="M87.3144401,324.007946 C84.310899,324.038404 81.4963093,324.437014 78.5544399,324.938918 C75.0391551,325.53882 72.3111682,328.658836 72.0251167,332.222488 C71.6760813,336.593954 75.0076632,340.550919 79.3496106,340.897882 C81.5632296,341.079309 83.7519176,340.979988 85.9720974,340.897882 C88.6528464,340.794588 91.3335955,340.762805 94.018281,340.757508 C96.2528946,340.753535 98.2263878,340.328439 99.9951835,338.849213 C101.707556,337.416336 102.794027,335.300128 102.973794,333.060761 C103.146999,330.892906 102.455489,328.705186 101.081654,327.028641 C99.7537455,325.410364 97.4942008,324.029134 95.34619,324.023837 C93.3267711,324.019864 91.3034157,324 89.2826847,324 C88.6266032,324 87.9705216,324.002649 87.3144401,324.007946" id="Fill-48" fill="#2C2C2C"></path>
            </g>
        </g>
    </g>
</svg>