<?xml version="1.0" encoding="UTF-8"?>
<svg width="559px" height="337px" viewBox="0 0 559 337" version="1.1" xmlns="http://www.w3.org/2000/svg" xmlns:xlink="http://www.w3.org/1999/xlink">
    <!-- Generator: Sketch 51.1 (57501) - http://www.bohemiancoding.com/sketch -->
    <title>rowboat</title>
    <desc>Created with Sketch.</desc>
    <defs></defs>
    <g id="transport" stroke="none" stroke-width="1" fill="none" fill-rule="evenodd">
        <g id="rowboat_DL" transform="translate(-120.000000, -310.000000)">
            <g id="rowboat" transform="translate(122.000000, 312.000000)">
                <path d="M57.8125,173.8125 C157.166667,158.125 230.75,150.28125 278.5625,150.28125 C326.375,150.28125 390.351562,154.203125 470.492187,162.046875 L451.296875,248.03125 L108.242188,267.414062 L57.8125,173.8125 Z" id="Path-2" fill="#FFFFFF"></path>
                <ellipse id="Oval" fill="#FFFFFF" cx="221" cy="55.5" rx="48" ry="47.5"></ellipse>
                <path d="M262.6611,31.6958 C262.7571,31.9218 262.8511,32.1468 262.9471,32.3728 C262.8511,32.1478 262.7551,31.9218 262.6611,31.6958 M224.9661,7.7438 C227.1361,7.6898 229.2831,7.7888 231.4451,7.9478 C233.5711,8.2508 235.6781,8.6258 237.7511,9.2318 C240.1791,9.9418 242.5441,10.7458 244.8931,11.6718 C246.1671,12.2218 247.4291,12.7848 248.6731,13.3918 C249.9151,13.9968 251.0671,14.7378 252.1801,15.5438 C253.6601,16.7598 254.9941,18.1138 256.2021,19.6058 C257.6621,21.5978 258.9161,23.7218 260.0401,25.9198 C260.9821,27.7538 261.7951,29.6458 262.5971,31.5438 C264.0421,35.1948 265.4151,38.8288 266.0631,42.7188 C266.3491,45.3608 266.2991,47.9818 265.9951,50.6168 C265.4331,54.1868 264.4571,57.6548 263.4741,61.1268 C262.7091,63.8178 261.7281,66.4288 260.7371,69.0408 C259.7841,71.1858 258.7091,73.2578 257.4971,75.2748 C256.9231,76.2318 256.2751,77.1458 255.6541,78.0718 C254.7501,79.4158 253.7741,80.7008 252.7961,81.9888 C251.6911,83.2888 250.6091,84.5938 249.4191,85.8218 C248.8881,86.3728 248.3761,86.9628 247.8021,87.4698 C247.0771,88.1128 246.3541,88.7558 245.6331,89.3978 C244.5881,90.1958 243.5431,90.9718 242.4391,91.6928 C241.0091,92.6338 239.5681,93.5128 238.0871,94.3768 C236.6421,95.2198 235.1811,95.9978 233.6971,96.7748 C232.5291,97.3818 231.3171,97.8958 230.1101,98.4178 C228.7961,98.9088 227.4861,99.4068 226.1461,99.8298 C224.4541,100.3648 222.7551,100.8688 221.0481,101.3648 C219.6611,101.7708 218.2671,102.1538 216.8651,102.4938 C215.3981,102.8428 213.9381,103.1088 212.4541,103.3628 C210.6821,103.5558 208.9491,103.7208 207.1611,103.5898 C205.6991,103.3138 204.3051,102.8628 202.9201,102.3158 C201.1581,101.5468 199.4241,100.7168 197.7081,99.8488 C195.4641,98.7168 193.2451,97.5518 191.2081,96.0768 C188.7051,94.0708 186.3531,91.7758 184.3301,89.2928 C182.9921,87.4648 181.8671,85.5438 180.9351,83.4798 C179.7021,80.3568 178.8461,77.1128 177.9941,73.8648 C177.4281,71.6938 177.0991,69.4648 176.7801,67.2458 C176.3181,62.4558 175.9231,57.6518 176.4601,52.8538 C176.7221,51.1508 177.0621,49.4598 177.4941,47.7908 C177.7511,46.7868 177.9741,45.7628 178.2791,44.7708 C178.5831,43.7748 178.8881,42.7828 179.1971,41.7868 C179.4711,40.8958 179.8451,40.0238 180.1841,39.1508 C180.9371,37.4788 181.7901,35.8758 182.7471,34.3058 C183.2441,33.4938 183.8061,32.7198 184.3331,31.9308 C185.1831,30.6558 186.0991,29.4318 187.0041,28.1918 C187.5741,27.4538 188.1431,26.7148 188.7401,25.9978 C190.2721,24.1488 191.7821,22.2568 193.6091,20.6948 C193.9051,20.4898 194.2021,20.3018 194.5141,20.1278 C194.6271,20.0948 194.7411,20.0668 194.8551,20.0408 C196.1871,19.9388 197.5411,20.0308 198.8651,20.1968 C199.6151,20.1928 200.3181,20.0058 200.9661,19.6268 C201.9001,19.0838 202.5951,18.1768 202.8801,17.1378 C203.1771,16.0598 203.0251,14.8878 202.4621,13.9268 C202.4541,13.9128 202.4451,13.8988 202.4371,13.8838 C202.6641,13.6698 202.8971,13.4608 203.1391,13.2578 C204.3691,12.4018 205.6791,11.7178 207.0441,11.1058 C207.8991,10.7788 208.7531,10.4298 209.6301,10.1658 C210.8141,9.8058 211.9861,9.4668 213.1891,9.1738 C215.0381,8.7208 216.9031,8.4158 218.7831,8.1448 C220.8411,7.9528 222.8961,7.7928 224.9661,7.7438 M210.2631,2.4508 C208.4391,2.9118 206.6891,3.5878 204.9391,4.2708 C202.2361,5.3218 199.7711,6.7628 197.5951,8.6808 C196.6721,9.4928 195.8641,10.4898 195.1991,11.5268 C194.8471,11.5328 194.4951,11.5518 194.1461,11.5878 C193.2941,11.6768 192.4941,11.8138 191.6771,12.0518 C190.9001,12.2828 190.1301,12.7198 189.4431,13.1418 C188.0871,13.9778 186.9081,15.1188 185.7981,16.2518 C184.0091,18.0838 182.4541,20.1698 180.8921,22.1928 C179.5251,23.9628 178.1811,25.7518 176.9471,27.6148 C176.1771,28.7788 175.4001,29.9268 174.6971,31.1308 C173.4781,33.2128 172.5251,35.4348 171.6891,37.6968 C170.9541,39.6848 170.3141,41.6928 169.7981,43.7518 C169.4041,45.3138 169.0211,46.8728 168.7011,48.4548 C168.0791,51.5328 167.7941,54.6698 167.7981,57.8058 C167.8021,62.3258 168.3651,66.8448 169.0361,71.3058 C169.3221,73.1848 169.7361,75.0518 170.2281,76.8878 C170.8451,79.2048 171.5011,81.5058 172.2901,83.7708 C174.0401,88.7988 176.7791,93.5088 180.5991,97.2518 C182.4861,99.1028 184.3961,100.8878 186.5211,102.4698 C188.8651,104.2198 191.4621,105.5088 194.0831,106.7868 C196.7671,108.0988 199.5171,109.3808 202.3451,110.3448 C204.8961,111.2128 207.7471,111.5638 210.4231,111.2318 C211.7041,111.0758 213.0091,110.9628 214.2831,110.7358 C216.3451,110.3688 218.3761,109.9698 220.3961,109.3878 C224.7011,108.1458 229.0951,106.9698 233.2011,105.1418 C234.2831,104.6578 235.3691,104.1768 236.4511,103.6928 C237.4431,103.2518 238.3881,102.6848 239.3451,102.1768 C240.0761,101.7908 240.7861,101.3768 241.5011,100.9548 C242.4311,100.4118 243.3881,99.8998 244.2861,99.3058 C245.3261,98.6188 246.3651,97.9308 247.4081,97.2438 C248.5091,96.5128 249.5331,95.6148 250.5791,94.8058 C252.2161,93.5368 253.6501,92.0088 255.0831,90.5208 C256.5721,88.9738 257.9231,87.2708 259.2161,85.5598 C259.8531,84.7168 260.5481,83.8918 261.1381,83.0128 C261.8411,81.9628 262.5481,80.9118 263.2511,79.8568 C265.5131,76.4818 267.1231,72.7358 268.5601,68.9548 C269.2671,67.0878 269.9281,65.1928 270.4741,63.2708 C271.1271,60.9858 271.7481,58.7088 272.3101,56.3998 C273.4431,51.7588 273.9351,46.9388 273.3531,42.1888 C272.9161,38.6538 271.9281,35.2398 270.6271,31.9308 C269.7791,29.7668 268.9241,27.5948 267.9671,25.4738 C267.0841,23.5088 266.1661,21.5758 265.0831,19.7048 C263.5051,16.9818 261.6811,14.2948 259.4081,12.0988 C257.9111,10.6578 256.3141,9.3488 254.5681,8.2198 C252.8061,7.0798 250.8651,6.2278 248.9391,5.3998 C244.9741,3.6928 240.8961,2.1848 236.6541,1.3418 C233.2551,0.6668 229.7971,0.3548 226.3361,0.3548 C220.9201,0.3548 215.4951,1.1178 210.2631,2.4508" id="Fill-20" stroke="#000000" stroke-width="3" fill="#000000"></path>
                <path d="M212.4629,107.5136 C211.9199,107.8336 211.4859,108.2676 211.1619,108.8106 C208.9039,112.2126 206.6109,115.5956 204.5609,119.1306 C202.4899,122.6976 200.7049,126.4906 199.1309,130.2986 C196.0609,137.7406 193.3689,145.3616 191.1429,153.0996 C189.8609,157.5486 189.0529,162.1226 188.0449,166.6386 C187.5289,168.9516 186.9899,171.2596 186.4859,173.5726 C186.0139,175.7336 185.6699,177.9076 185.3699,180.0956 L185.3889,179.9476 C185.1899,181.4046 184.9749,182.8576 184.7719,184.3146 C184.6469,185.2206 184.5259,186.1306 184.4199,187.0446 C184.3069,188.0296 184.2719,189.1156 184.6469,190.0486 C185.0409,191.0256 185.4789,191.8026 186.4239,192.3536 C187.3149,192.8766 188.4009,193.0176 189.3969,192.7436 C190.3609,192.4786 191.1969,191.8336 191.7049,190.9706 C192.2009,190.1236 192.2989,189.2186 192.1459,188.2816 C192.0999,187.1196 192.2769,185.9266 192.4389,184.7716 C192.4159,184.9386 192.3939,185.1076 192.3729,185.2756 C192.5679,183.8436 192.7629,182.4136 192.9539,180.9826 C193.4709,177.3466 194.4019,173.7876 195.2359,170.2126 C196.0759,166.6116 196.7989,162.9826 197.6619,159.3806 C198.5879,155.5096 199.7639,151.7206 200.9899,147.9316 C202.1899,144.2166 203.4589,140.5216 204.8379,136.8686 C205.3569,135.4896 205.9069,134.1256 206.4609,132.7576 C207.9569,129.3426 209.5069,125.9456 211.3379,122.6936 C212.3179,120.9516 213.3379,119.2406 214.4199,117.5566 C215.4789,115.9046 216.5999,114.2556 217.4159,112.4666 C217.8379,111.5446 218.0609,110.6896 217.7789,109.6776 C217.4469,108.4586 216.4709,107.4826 215.2519,107.1506 C214.9389,107.0636 214.6169,107.0216 214.2949,107.0216 C213.6559,107.0216 213.0189,107.1886 212.4629,107.5136" id="Fill-22" stroke="#000000" stroke-width="3" fill="#000000"></path>
                <path d="M288.2988,164.6362 C288.3288,164.6492 288.3598,164.6622 288.3908,164.6752 C288.3598,164.6632 288.3288,164.6502 288.2988,164.6362 M287.4958,164.1162 C287.6128,164.2072 287.7298,164.2982 287.8458,164.3872 C287.7238,164.3062 287.6068,164.2162 287.4958,164.1162 M203.6988,120.5232 C202.8898,121.3352 202.4248,122.4482 202.4248,123.5972 C202.4248,124.8392 202.9408,125.7452 203.6988,126.6712 C205.0658,128.3352 206.4178,130.0072 207.8358,131.6242 C209.4288,133.4412 211.3468,134.9092 213.2378,136.3982 C216.9718,139.3432 220.5388,142.4952 224.2418,145.4802 C228.0538,148.5502 231.9878,151.6202 236.2338,154.0732 C238.4798,155.3702 240.7808,156.5662 243.1828,157.5502 C245.2688,158.4092 247.3468,159.2962 249.4568,160.1092 C255.5148,162.4412 261.5738,164.7882 267.6488,167.0852 C270.5468,168.1752 273.4648,169.1982 276.4178,170.1242 C277.7658,170.5462 279.1288,170.9292 280.5118,171.2222 C281.3078,171.3902 282.0368,171.4632 282.7748,171.4542 C283.0308,171.6562 283.2898,171.8562 283.5508,172.0542 C284.0158,172.3122 284.4998,172.5312 285.0038,172.7062 C286.3708,173.2732 287.7538,173.4292 289.2108,173.6242 C290.0038,173.6202 290.7378,173.4212 291.4218,173.0272 C292.4028,172.4522 293.1328,171.5032 293.4338,170.4092 C293.7458,169.2812 293.5818,168.0502 292.9918,167.0382 C292.4648,166.1362 291.4418,165.2142 290.3748,165.0272 C289.6208,164.8932 288.8828,164.7332 288.1568,164.5112 C288.0158,164.3252 287.8688,164.1422 287.7188,163.9602 C287.2378,163.3782 286.2618,162.9212 285.5698,162.7222 C284.8568,162.5162 284.2238,162.5502 283.5598,162.6382 C283.3988,162.6482 283.2368,162.6512 283.0758,162.6472 C281.7188,162.3642 280.3868,161.9142 279.0668,161.5112 C277.5468,161.0462 276.0238,160.5702 274.5308,160.0342 C271.2108,158.8432 267.9098,157.6092 264.6168,156.3512 C258.5358,154.0252 252.4548,151.7132 246.4278,149.2572 C245.2098,148.6802 243.9288,148.1582 242.7648,147.4842 C241.3158,146.6482 239.8858,145.7962 238.4608,144.9172 C236.0968,143.4552 233.8788,141.7262 231.6598,140.0422 C227.8578,137.0012 224.1838,133.7982 220.3358,130.8162 C218.2768,129.2222 216.1748,127.6752 214.3628,125.7922 C212.7608,124.1242 211.3158,122.3122 209.8508,120.5232 C209.1558,119.6752 207.8278,119.2492 206.7728,119.2492 C205.6248,119.2492 204.5108,119.7102 203.6988,120.5232" id="Fill-24" stroke="#000000" stroke-width="3" fill="#000000"></path>
                <path d="M267.6426,126.833 C267.6696,126.836 267.6986,126.84 267.7256,126.844 C267.6986,126.84 267.6696,126.836 267.6426,126.833 M266.6916,126.706 C266.9786,126.743 267.2646,126.782 267.5486,126.82 C267.2636,126.783 266.9776,126.745 266.6916,126.706 M206.7886,117.007 C205.8986,117.526 205.2346,118.39 204.9606,119.382 C204.4106,121.382 205.6216,123.804 207.7346,124.269 C210.7226,124.921 213.5626,125.94 216.4216,127.011 C219.2886,128.081 222.1606,129.034 225.1486,129.694 C228.1176,130.347 231.1016,130.897 234.0546,131.62 C235.3716,131.937 236.6836,132.284 238.0116,132.554 C239.1006,132.777 240.1946,132.936 241.2936,133.076 C242.3426,133.256 243.3896,133.419 244.4536,133.503 C245.8986,133.616 247.3596,133.616 248.8086,133.636 C250.1956,133.655 251.5816,133.69 252.9686,133.753 C254.4446,133.818 255.9166,134.009 257.3856,134.18 C264.1186,135.163 270.8476,136.394 277.6486,136.761 C281.2036,136.956 284.7576,137.03 288.3166,137.151 C289.9496,137.206 291.5786,137.265 293.2066,137.347 C294.0076,137.39 294.8086,137.437 295.6096,137.472 C296.5426,137.515 297.4026,137.487 298.3396,137.347 C299.5856,137.167 300.7106,136.679 301.8316,136.108 C303.5426,135.233 304.3086,133.019 303.8166,131.233 C303.2226,129.077 300.7306,127.448 298.5076,128.218 C298.0936,128.361 297.6876,128.482 297.2716,128.587 C296.0396,128.614 294.7916,128.461 293.5666,128.397 C292.4726,128.343 291.3746,128.292 290.2776,128.257 C287.4766,128.175 284.6756,128.124 281.8746,128.05 C279.4376,127.983 277.0036,127.839 274.5786,127.628 C272.3276,127.432 270.0986,127.156 267.8646,126.862 C265.4816,126.503 263.0966,126.14 260.7066,125.808 C258.1056,125.448 255.4846,125.05 252.8556,124.952 C250.6326,124.87 248.4106,124.882 246.1876,124.905 C245.1916,124.913 244.1996,124.94 243.2066,124.991 C242.7846,125.013 242.3886,125.037 241.9766,125.013 C239.7796,124.653 237.6176,124.094 235.4496,123.589 C232.4846,122.897 229.4886,122.386 226.5116,121.757 C223.7886,121.179 221.1566,120.261 218.5466,119.308 C215.6796,118.261 212.8316,117.261 209.8476,116.608 C209.4806,116.527 209.1156,116.483 208.7566,116.483 C208.0766,116.483 207.4146,116.642 206.7886,117.007" id="Fill-26" stroke="#000000" stroke-width="3" fill="#000000"></path>
                <path d="M171.6738,180.9883 C171.7108,180.9933 171.7478,180.9983 171.7848,181.0043 C171.7478,180.9993 171.7118,180.9943 171.6738,180.9883 M460.8928,170.5833 C460.8728,170.7323 460.8528,170.8813 460.8318,171.0293 C460.8518,170.8803 460.8718,170.7313 460.8928,170.5833 M57.9708,154.8833 C56.9038,155.1763 55.9748,155.8903 55.4158,156.8473 C54.2908,158.7653 54.8728,161.6443 56.9508,162.6993 C58.8608,163.6683 60.7678,164.5743 62.8578,165.1013 C64.8068,165.5933 66.7828,165.9143 68.7678,166.2073 C72.8458,166.8163 76.8578,167.8163 80.8848,168.6683 C85.0688,169.5543 89.2518,170.5503 93.3808,171.6523 C97.6658,172.7933 101.8808,174.1093 106.0878,175.4923 C110.1538,176.8243 114.2398,178.0393 118.3888,179.0903 C122.5838,180.1523 126.8338,181.0083 131.0528,181.9533 C135.0918,182.8593 139.1538,183.6213 143.2088,184.4533 C147.6308,185.3593 152.0288,186.3513 156.4398,187.3163 C160.5758,188.2263 164.7828,188.8363 168.9788,189.4063 C173.5408,190.0233 178.1188,190.6253 182.7088,191.0083 C187.0288,191.3713 191.3538,191.4763 195.6858,191.5473 C200.2088,191.6213 204.7248,191.7893 209.2438,192.0273 C213.4038,192.2423 217.5688,192.3243 221.7288,192.5513 C226.0218,192.7813 230.3108,193.1333 234.6078,193.3673 C243.3618,193.8473 252.1468,193.8043 260.9118,193.8513 C264.9868,193.8753 269.0568,193.8013 273.1268,193.7583 C277.5098,193.7073 281.8888,193.6643 286.2478,193.1833 C290.6078,192.7073 294.9548,192.2073 299.3298,191.9103 C303.5568,191.6213 307.7758,191.3323 311.9938,190.9293 C316.4898,190.4963 320.9788,190.1873 325.4898,189.9803 C329.8928,189.7773 334.2828,189.4223 338.6698,188.9963 C343.0328,188.5703 347.3848,188.1363 351.7598,187.8553 C356.0998,187.5823 360.4468,187.4143 364.7908,187.1483 C368.8688,186.9023 372.9358,186.4883 376.9858,185.9493 C381.7088,185.3243 386.4078,184.6443 391.0798,183.7343 C399.4118,182.1053 407.6188,179.9023 416.0218,178.6363 C424.3728,177.3833 432.7168,176.0783 441.0488,174.6953 C443.1148,174.3513 445.1778,173.9763 447.2478,173.6403 C449.2328,173.3203 451.2328,173.0663 453.2048,172.6603 C454.9238,172.3043 456.6308,171.8713 458.3218,171.4023 C459.1758,171.1653 460.0178,170.8633 460.8648,170.5923 C460.8378,170.8583 460.8098,171.1243 460.7818,171.3893 C460.3298,174.6363 459.8308,177.8663 459.6348,181.1483 C459.4318,184.5973 459.1858,188.0313 458.8218,191.4723 C458.4668,194.8633 458.0758,198.2503 457.7718,201.6483 C457.4958,204.7173 457.1648,207.7703 456.7838,210.8243 C455.8558,216.4503 454.7928,222.0453 453.5528,227.6133 C452.2438,233.4883 450.8578,239.3323 449.7758,245.2503 C449.5958,246.2343 449.6188,247.1333 450.1388,248.0233 C450.6108,248.8283 451.3888,249.4293 452.2908,249.6763 C454.1468,250.1873 456.2358,249.0623 456.7128,247.1643 C457.2478,245.0393 457.6508,242.8793 458.1108,240.7383 C458.5448,238.7223 459.0288,236.7183 459.4978,234.7113 C460.4898,230.4293 461.4788,226.1403 462.3068,221.8243 C462.7168,219.6793 463.1308,217.5353 463.4898,215.3793 C463.9198,212.7813 464.2678,210.1793 464.6078,207.5703 C465.1348,203.4683 465.3458,199.3243 465.8148,195.2153 C466.1898,191.9493 466.5448,188.6913 466.8108,185.4183 C466.9358,183.8713 466.9978,182.3163 467.0958,180.7653 C467.1798,179.4103 467.3148,178.0673 467.4758,176.7203 C467.8138,174.5253 468.1558,172.3363 468.4008,170.1293 C468.5408,168.8473 468.5058,167.6333 468.2758,166.3593 C468.1188,165.4683 467.5218,164.6683 466.9468,164.0153 C466.3688,163.3553 465.4358,162.9263 464.6188,162.6723 C462.5918,162.0393 460.4008,162.6293 458.4398,163.2223 C456.6778,163.7543 454.8888,164.1913 453.0918,164.5973 C451.2988,165.0043 449.4938,165.2853 447.6778,165.5473 C445.4508,165.8673 443.2358,166.2423 441.0178,166.6173 C436.8028,167.3283 432.5718,167.9413 428.3538,168.6213 C420.1348,169.9453 411.8418,170.8513 403.7008,172.6053 C399.3338,173.5433 394.9708,174.5083 390.5958,175.4293 C386.6858,176.2523 382.7508,176.8653 378.7978,177.4253 C374.7338,177.9503 370.6748,178.4143 366.5878,178.7153 C362.2438,179.0313 357.8928,179.2073 353.5408,179.4183 C349.1308,179.6293 344.7328,180.0473 340.3378,180.4803 C335.9438,180.9143 331.5488,181.2733 327.1388,181.5353 C323.0448,181.7773 318.9508,181.8943 314.8688,182.2813 C310.3648,182.7033 305.8688,183.0933 301.3538,183.3713 C297.0608,183.6333 292.7868,184.0083 288.5098,184.4763 C286.5178,184.6913 284.5178,184.9143 282.5178,185.0193 C280.1818,185.1363 277.8458,185.1913 275.5058,185.2153 C271.3148,185.2613 267.1188,185.3203 262.9238,185.3003 C258.6898,185.2853 254.4588,185.2223 250.2248,185.1833 C245.8728,185.1443 241.5258,185.0703 237.1738,184.9103 C232.9508,184.7583 228.7368,184.3123 224.5138,184.0743 C220.0568,183.8243 215.5958,183.6913 211.1348,183.4653 C206.7558,183.2383 202.3848,183.0083 198.0018,182.8863 C193.6308,182.7693 189.2718,182.6953 184.9078,182.4373 C180.6018,182.1863 176.3038,181.5793 172.0278,181.0333 C167.8838,180.4613 163.7568,179.8263 159.6468,179.0193 C155.6188,178.2303 151.6348,177.2153 147.6148,176.3863 C143.1858,175.4723 138.7478,174.6093 134.3258,173.6563 C130.1038,172.7463 125.8888,171.7933 121.6818,170.8203 C113.4668,168.9253 105.6268,165.8003 97.4898,163.6483 C93.2128,162.5153 88.9038,161.4843 84.5878,160.5313 C82.6268,160.0973 80.6538,159.7423 78.6938,159.3163 C76.6428,158.8713 74.5918,158.4103 72.5178,158.0823 C69.3638,157.5843 66.0588,157.3053 63.0398,156.1973 C62.4438,155.9113 61.8568,155.6123 61.2678,155.3123 C60.5508,154.9503 59.8188,154.7343 59.0578,154.7333 C58.7018,154.7333 58.3398,154.7803 57.9708,154.8833" id="Fill-29" stroke="#000000" stroke-width="3" fill="#000000"></path>
                <path d="M53.02,159.0967 C52.11,159.6277 51.43,160.5107 51.153,161.5267 C50.887,162.4877 50.946,163.8267 51.563,164.6627 C52.178,165.4987 52.727,166.3357 53.178,167.2557 C54.543,171.1047 55.308,175.1127 56.309,179.0657 C56.848,181.1947 57.532,183.2837 58.204,185.3737 C58.864,187.4287 59.571,189.4597 60.368,191.4677 C61,193.0617 61.637,194.6437 62.348,196.2057 C63.711,199.2097 65.317,202.0927 67.043,204.8977 C68.481,207.2417 70.133,209.4517 71.704,211.7057 C72.282,212.5347 72.942,213.3157 73.575,214.1047 C74.528,215.3037 75.485,216.5027 76.438,217.7017 C77.797,219.4057 79.29,221.0147 80.715,222.6627 C82.122,224.2877 83.52,225.9207 84.922,227.5497 C86.068,228.8827 87.128,230.3037 88.207,231.6977 C90.203,234.4847 92.16,237.2837 94.079,240.1237 C95.903,242.8267 97.665,245.5737 99.454,248.3037 C101.215,250.9947 103.028,253.6357 104.989,256.1867 C106.141,257.6867 107.336,259.2337 108.766,260.4757 C109.5,261.1167 110.286,261.7057 111.098,262.2417 C111.985,262.8237 113.032,263.1867 114.024,263.5457 C115.723,264.1557 117.75,263.1597 118.618,261.6747 C119.676,259.8667 119.149,257.0887 117.157,256.1087 C116.49,255.7797 115.867,255.4117 115.26,254.9977 C113.994,253.8847 112.927,252.6107 111.861,251.3017 C106.826,244.5887 102.607,237.3067 97.715,230.4877 C96.973,229.4557 96.231,228.4247 95.493,227.3937 C94.708,226.2997 93.825,225.2647 92.989,224.2097 C91.508,222.3427 89.997,220.5307 88.438,218.7257 C86.93,216.9757 85.418,215.2337 83.903,213.4877 C82.395,211.7447 80.973,209.9447 79.536,208.1437 C79.348,207.9087 79.161,207.6747 78.974,207.4407 C77.822,205.7917 76.671,204.1437 75.52,202.4947 C73.034,198.9317 70.997,195.0267 69.208,191.0687 C68.747,189.9177 68.286,188.7647 67.825,187.6127 C67.368,186.4597 67,185.2687 66.598,184.1007 C65.778,181.7097 64.985,179.2917 64.329,176.8547 C63.672,174.4017 63.09,171.9287 62.438,169.4717 C62.122,168.2957 61.754,167.1357 61.379,165.9797 C61.079,165.0537 60.672,164.1557 60.286,163.2687 C59.86,162.2807 59.223,161.4167 58.586,160.5537 C57.93,159.6667 57.262,158.9917 56.157,158.6867 C55.805,158.5897 55.442,158.5417 55.081,158.5417 C54.362,158.5417 53.646,158.7307 53.02,159.0967" id="Fill-31" stroke="#000000" stroke-width="3" fill="#000000"></path>
                <path d="M316.5928,258.4844 C316.7258,258.5314 316.8568,258.5864 316.9858,258.6504 C316.8548,258.5944 316.7238,258.5404 316.5928,258.4844 Z M142.6668,255.9204 C142.7128,255.9544 142.7578,255.9894 142.8018,256.0254 L142.6668,255.9204 Z M151.0168,254.1114 C151.0868,254.1404 151.1558,254.1694 151.2258,254.1984 C151.1558,254.1704 151.0858,254.1404 151.0168,254.1114 Z M449.2428,248.3884 C447.9388,248.5804 446.6728,249.2164 445.4888,249.7554 C444.7858,250.0764 444.1028,250.4474 443.4148,250.7984 C441.3738,251.8434 439.3648,252.9334 437.2718,253.8644 C435.1368,254.6924 432.9428,255.2864 430.6868,255.6494 C426.5308,256.1234 422.3338,256.1594 418.1568,256.2524 C414.8788,256.3264 411.6188,256.0774 408.3568,255.8324 C405.4708,255.4334 402.5908,255.0244 399.8498,254.0094 C398.7328,253.4694 397.7038,252.8164 396.6728,252.1234 C396.2788,251.8574 395.8878,251.5914 395.4858,251.3414 C395.1648,251.1424 394.8248,250.9784 394.4738,250.8414 C393.7078,250.4984 392.8368,250.1584 391.9778,250.1774 C391.4348,250.1704 390.8998,250.2164 390.3678,250.3264 C389.6808,250.5604 389.0318,250.8224 388.4038,251.1894 C388.0948,251.3694 387.7898,251.5764 387.4858,251.7634 C387.0038,252.0634 386.5118,252.3264 386.0058,252.5674 C384.3278,253.1494 382.6408,253.5654 380.8858,253.8514 C379.4368,254.0354 377.9858,254.2084 376.5398,254.4394 C373.7628,254.8804 371.0828,255.6034 368.4578,256.6114 C366.8018,257.2484 365.1648,257.9164 363.5248,258.5914 C362.4858,259.0214 361.4428,259.4274 360.3878,259.8224 C358.1898,260.6424 355.9198,261.2134 353.6098,261.5994 C350.2618,261.9724 346.9188,261.8114 343.5718,261.4544 C342.4818,261.2954 341.3938,261.1334 340.3058,260.9744 C339.1808,260.8064 338.0678,260.5644 336.9538,260.3454 C334.0698,259.7824 331.1308,259.1844 328.3808,258.1304 C327.3508,257.6454 326.3968,257.0974 325.4708,256.4394 C324.7678,255.8624 324.0968,255.2514 323.4188,254.6384 C322.5868,253.8884 321.7118,253.2014 320.8138,252.5254 C319.2628,251.3614 317.3058,251.0374 315.4148,251.0174 C313.7898,251.0024 312.1608,251.1074 310.5398,251.2204 C306.5828,251.4984 302.6338,252.4044 298.9818,253.9474 C299.2708,253.8264 299.5598,253.7014 299.8448,253.5804 C298.1608,254.2914 296.4538,254.9664 294.8018,255.7554 C292.3768,256.9114 289.9688,258.1264 287.5048,259.2004 C286.3228,259.6834 285.1368,260.1454 283.9228,260.5524 C282.4288,261.0524 280.8758,261.3954 279.3198,261.6544 C277.3618,261.8684 275.4048,261.8774 273.4408,261.6794 C271.7608,261.4154 270.1198,261.0384 268.4858,260.5524 C267.5208,260.2674 266.5748,259.9084 265.6258,259.5684 C264.5788,259.1994 263.5548,258.7784 262.5298,258.3544 C261.0388,257.6784 259.6278,256.9414 258.2958,256.0004 C256.9138,254.8144 255.5558,253.4884 253.9428,252.6424 C251.9738,251.6114 249.9428,251.1234 247.7468,250.8884 C246.3098,250.7364 244.9148,250.7134 243.4738,250.8694 C241.4498,251.0844 239.5128,251.5644 237.5748,252.1624 C235.7858,252.7134 234.0168,253.3304 232.2198,253.8574 C231.2198,254.1504 230.2198,254.4434 229.2158,254.7404 C228.1028,255.0644 226.9268,255.2594 225.7938,255.5134 C224.0598,255.9084 222.2938,256.1814 220.5438,256.5024 C218.4068,256.8884 216.2788,257.2874 214.1498,257.7284 C211.9118,258.1934 209.6858,258.7244 207.4258,259.0914 C206.5368,259.1754 205.6638,259.2114 204.7748,259.1634 C204.4218,259.0904 204.0768,259.0054 203.7268,258.9004 C203.4568,258.7614 203.1988,258.6124 202.9428,258.4444 C201.5218,257.1944 200.1458,255.6734 198.1028,255.6734 C196.9058,255.6734 195.9718,256.3194 194.9818,256.8614 C193.9418,257.1844 192.8268,257.2944 191.7548,257.4704 C190.5868,257.6664 189.4188,257.8614 188.2468,258.0564 C186.1028,258.4224 183.9558,258.7614 181.8038,259.0934 C179.7608,259.3404 177.7238,259.5174 175.6608,259.5564 C173.3988,259.5934 171.1428,259.4094 168.8998,259.1304 C167.0528,258.8554 165.2388,258.4974 163.4268,258.0604 C162.2078,257.7674 160.9658,257.5294 159.7708,257.1544 C157.0508,256.2964 154.3248,255.4474 151.6748,254.3814 C150.8008,253.9764 149.9748,253.5354 149.1778,253.0004 C148.4758,252.3944 147.8188,251.7444 147.1218,251.1304 C146.0478,250.1854 144.8758,249.4634 143.4658,249.1544 C141.3058,248.6894 139.1298,249.0334 137.0208,249.5524 C136.4388,249.6974 135.8408,249.8694 135.2818,250.0844 C134.4068,250.4204 133.5008,250.7244 132.6498,251.1274 C131.4038,251.7134 130.1768,252.3064 128.9578,252.9554 C126.4228,254.3064 123.9228,255.7244 121.4038,257.1074 C119.2448,258.2914 117.0418,259.3474 114.8038,260.3614 C112.5128,261.2444 110.1788,261.9444 107.7548,262.3644 C107.0918,262.4174 106.4478,262.4214 105.7908,262.3704 C105.1828,262.2424 104.6038,262.0714 104.0218,261.8624 C103.6038,261.6574 103.1988,261.4384 102.7938,261.1974 C102.1848,260.8384 101.6338,260.3494 101.0718,259.9204 C100.3758,259.3844 99.1968,259.3454 98.3918,259.5684 C97.5208,259.8064 96.7668,260.3884 96.3138,261.1664 C95.8408,261.9704 95.7118,262.9514 95.9618,263.8494 L96.3138,264.6814 C96.6218,265.2054 97.0358,265.6194 97.5598,265.9274 C97.9928,266.2634 98.4268,266.5954 98.8608,266.9234 C99.4858,267.3924 100.1968,267.7364 100.9038,268.0604 C101.5908,268.3734 102.2978,268.6384 103.0168,268.8774 C103.8958,269.1704 104.8528,269.2324 105.7628,269.3494 C107.3098,269.5484 108.9228,269.2244 110.4388,268.9434 C111.9738,268.6584 113.4658,268.2094 114.9498,267.7204 C117.9928,266.7164 120.8638,265.2364 123.7038,263.7714 C125.7858,262.6974 127.8138,261.5094 129.8528,260.3614 C131.8348,259.2474 133.8318,258.1854 135.8738,257.1854 C137.4118,256.5834 138.9538,256.0284 140.5798,255.7114 C141.1148,255.6674 141.6488,255.6604 142.1868,255.6874 C142.2598,255.7054 142.3308,255.7234 142.4028,255.7444 C142.4188,255.7544 142.4348,255.7624 142.4498,255.7724 C143.2778,256.4864 144.0358,257.2764 144.8798,257.9704 C146.7278,259.4944 148.8838,260.3804 151.0908,261.2444 C152.5748,261.8264 154.0908,262.3384 155.6068,262.8224 C156.5128,263.1154 157.4188,263.4044 158.3218,263.6934 C159.0358,263.9234 159.7938,264.0564 160.5208,264.2364 L163.3918,264.9394 C165.4928,265.4514 167.6808,265.7014 169.8248,265.9634 C174.3218,266.5134 178.8608,266.3344 183.3328,265.6544 C185.1608,265.3774 186.9888,265.1034 188.8138,264.8024 C190.4348,264.5374 192.0558,264.2714 193.6768,264.0094 C194.5718,263.8654 195.4658,263.7364 196.3568,263.5604 C196.8758,263.4614 197.3448,263.2634 197.7958,263.0324 C197.8728,263.1074 197.9498,263.1814 198.0288,263.2554 C198.8408,264.0294 199.7788,264.6544 200.7898,265.1234 C202.7388,266.0334 204.8718,266.2054 206.9928,266.0804 C209.5398,265.9354 212.0788,265.2754 214.5718,264.7524 C217.4498,264.1464 220.3368,263.6194 223.2318,263.1114 C226.4108,262.5524 229.5748,261.9634 232.6808,261.0604 C234.2858,260.5954 235.8758,260.1074 237.4658,259.5914 C239.4528,258.9524 241.4518,258.3084 243.5168,257.9574 C244.3848,257.8584 245.2578,257.7974 246.1338,257.8614 C246.5548,257.8924 246.9718,257.9294 247.3898,257.9724 C248.2378,258.1224 249.0618,258.3114 249.8768,258.5904 C250.4228,258.8634 250.9358,259.1714 251.4338,259.5204 C252.3568,260.3014 253.2568,261.1044 254.2198,261.8384 C256.1848,263.3344 258.3638,264.3304 260.6338,265.2754 C263.5008,266.4664 266.4068,267.5524 269.4428,268.2444 C272.6538,268.9704 275.9538,269.1974 279.2278,268.8844 C282.4658,268.5724 285.5828,267.6934 288.5948,266.5024 C292.2198,265.0744 295.7048,263.3104 299.2168,261.6364 C300.5998,261.0554 301.9768,260.4894 303.4038,260.0134 C305.0678,259.4534 306.7528,259.0584 308.4778,258.7344 C309.6548,258.5994 310.8308,258.4964 312.0208,258.4474 C313.4438,258.3904 314.8958,258.2904 316.3218,258.4024 C316.3308,258.4054 316.3408,258.4084 316.3518,258.4104 C316.6568,258.5824 316.9448,258.7634 317.2298,258.9634 C318.6798,260.1634 320.0148,261.4874 321.5358,262.6114 C323.2468,263.8774 325.1298,264.7404 327.1218,265.4824 C329.2358,266.2674 331.5008,266.6734 333.6928,267.1814 C337.2788,268.0054 340.9738,268.5374 344.6258,268.9274 C346.8328,269.1624 349.0398,269.2244 351.2548,269.1584 C353.5868,269.0884 355.9228,268.6974 358.1928,268.1814 C361.1968,267.5024 364.0358,266.3024 366.8678,265.1304 C368.4268,264.4864 369.9968,263.8844 371.5718,263.2834 C373.9598,262.3654 376.4638,261.8894 378.9778,261.4894 C381.2788,261.2174 383.5838,260.9704 385.8328,260.3924 C387.1378,260.0564 388.3878,259.5804 389.6218,259.0334 C390.3888,258.6954 391.0938,258.2294 391.8008,257.7734 C392.2558,258.0494 392.6938,258.3504 393.1458,258.6584 C393.6808,259.0254 394.2118,259.3844 394.7628,259.7284 C395.7588,260.3574 396.8678,260.7874 397.9498,261.2284 C400.6968,262.3534 403.7318,262.6734 406.6458,263.0884 C408.6218,263.3694 410.6068,263.4984 412.5988,263.6544 C414.2468,263.7834 415.9268,263.7404 417.5828,263.7794 C419.3608,263.8224 421.1568,263.7094 422.9388,263.6734 C424.6848,263.6384 426.4348,263.5134 428.1808,263.4314 C430.3018,263.3304 432.4428,263.0294 434.5208,262.5994 C437.0088,262.0884 439.3638,261.1664 441.6848,260.1464 C444.3498,258.9694 446.8538,257.4674 449.4878,256.2314 C450.0808,256.0134 450.6708,255.8424 451.2858,255.7184 C451.7698,255.6904 452.2438,255.6804 452.7248,255.7064 C453.7098,255.9444 454.6508,256.3064 455.6218,256.6074 C457.7938,257.2834 460.0288,257.5954 462.2858,257.8614 C464.3018,258.1034 466.3448,258.1624 468.3718,258.2324 C470.3878,258.3024 472.4038,258.3614 474.4188,258.4234 C476.2228,258.4804 478.0238,258.6854 479.8238,258.8344 C481.4058,259.0664 482.9888,259.2964 484.5748,259.5294 C486.2938,259.7794 487.9968,260.1424 489.7198,260.3804 C493.8718,260.9554 498.0318,261.4354 502.2158,261.7244 C504.2748,261.8694 506.0008,259.8964 506.0008,257.9434 C506.0008,256.9434 505.5988,255.9744 504.8918,255.2674 C504.1378,254.5134 503.2508,254.2444 502.2158,254.1584 C499.6268,253.9524 497.0458,253.6644 494.4608,253.3854 C491.9048,253.0064 489.3598,252.5954 486.8098,252.1584 C485.4538,251.9274 484.0868,251.7554 482.7278,251.5564 C481.3098,251.3494 479.9038,251.1664 478.4738,251.0524 C477.1998,250.9514 475.9228,250.8024 474.6458,250.7674 C473.1378,250.7244 471.6258,250.6814 470.1138,250.6384 C467.2688,250.5594 464.4228,250.4774 461.5958,250.1504 C459.8738,249.8814 458.1918,249.4904 456.5398,248.9164 C456.3178,248.8384 456.0948,248.7594 455.8678,248.6814 C455.0598,248.4004 454.2388,248.2674 453.3878,248.1664 C453.0058,248.1194 452.6268,248.0994 452.2508,248.0994 C451.2458,248.0994 450.2548,248.2414 449.2428,248.3884 Z" id="Fill-33" stroke="#000000" stroke-width="3" fill="#000000"></path>
                <path d="M105.458,155.8657 C105.359,155.8797 105.259,155.8937 105.159,155.9067 C105.259,155.8927 105.358,155.8787 105.458,155.8657 M221.67,148.0047 C217.354,148.0747 213.038,148.1017 208.717,148.1217 C204.377,148.1447 200.041,148.2227 195.702,148.2897 C191.506,148.3517 187.315,148.6367 183.127,148.8677 C178.799,149.1097 174.471,149.3557 170.139,149.5827 C165.944,149.7977 161.737,149.7427 157.545,150.0197 C155.545,150.1527 153.565,150.4267 151.581,150.6837 C149.311,150.9767 147.038,151.2427 144.764,151.4807 C140.663,151.9187 136.561,152.3907 132.459,152.7937 C128.131,153.2197 123.811,153.6367 119.491,154.1367 C114.971,154.6607 110.459,155.1917 105.948,155.7977 C105.942,155.7977 105.936,155.7987 105.93,155.7997 C102.132,156.2297 98.339,156.5447 94.526,156.7777 C90.487,157.0197 86.467,157.3247 82.448,157.7777 C80.581,157.9887 78.721,158.2897 76.854,158.5197 C74.838,158.7657 72.823,158.9887 70.803,159.1997 C69.006,159.3867 67.209,159.5787 65.409,159.7467 C63.491,159.9227 61.557,160.0007 59.69,160.5087 C58.026,160.9577 57.022,162.7427 57.479,164.4027 C57.936,166.0587 59.713,167.0827 61.374,166.6137 C61.883,166.4717 62.393,166.3577 62.909,166.2637 C65.464,165.9727 68.031,165.7537 70.588,165.4767 C73.858,165.1297 77.12,164.7227 80.377,164.2777 C80.1,164.3167 79.827,164.3517 79.549,164.3907 C83.721,163.8367 87.893,163.4027 92.096,163.1447 C96.483,162.8757 100.866,162.5947 105.233,162.0947 C107.401,161.8477 109.561,161.5317 111.725,161.2547 C113.889,160.9727 116.061,160.7467 118.229,160.5047 C122.331,160.0477 126.432,159.5867 130.541,159.2037 C134.799,158.8047 139.041,158.3047 143.295,157.8557 C145.338,157.6367 147.389,157.4417 149.428,157.1797 C151.62,156.8947 153.811,156.5947 156.01,156.3637 C160.221,155.9227 164.487,156.0317 168.713,155.8597 C173.049,155.6837 177.381,155.3987 181.713,155.1647 C185.979,154.9337 190.241,154.6837 194.51,154.5547 C198.784,154.4297 203.065,154.4187 207.338,154.3867 C211.502,154.3597 215.666,154.3637 219.831,154.3247 C224.174,154.2857 228.518,154.2157 232.866,154.2587 C237.221,154.3017 241.577,154.3867 245.932,154.4807 C249.975,154.5667 254.01,154.8447 258.049,154.9847 C262.405,155.1337 266.757,155.2347 271.108,155.4967 C273.319,155.6297 275.53,155.8797 277.737,156.0827 C279.937,156.2857 282.136,156.4377 284.335,156.5907 C292.71,157.1607 301.108,157.0747 309.483,157.5787 C313.772,157.8367 318.069,158.0827 322.343,158.5157 C326.64,158.9537 330.937,159.3207 335.245,159.6407 C339.589,159.9617 343.937,160.2737 348.276,160.6797 C352.729,161.0977 357.167,161.6257 361.636,161.9027 C370.202,162.4417 378.792,162.8087 387.37,163.0747 C391.292,163.1957 395.198,163.3597 399.112,163.6297 C402.925,163.8907 406.722,164.3987 410.526,164.7657 C414.308,165.1337 418.097,165.3717 421.882,165.6997 C425.451,166.0117 429.015,166.3587 432.571,166.8017 C435.127,167.1887 437.677,167.6117 440.226,168.0237 C442.839,168.4457 445.46,168.8017 448.073,169.2197 C450.562,169.6177 453.034,170.1297 455.507,170.6137 C457.94,171.0947 460.366,171.6487 462.733,172.3947 C464.425,172.9267 466.276,171.7817 466.733,170.1217 C467.218,168.3637 466.151,166.6527 464.46,166.1217 C460.714,164.9417 456.843,164.2697 452.991,163.5437 C448.882,162.7657 444.737,162.2227 440.608,161.5627 C436.366,160.8867 432.136,160.2307 427.862,159.8017 C423.675,159.3797 419.483,159.0237 415.288,158.6797 C410.929,158.3207 406.585,157.8087 402.233,157.3797 C397.866,156.9497 393.495,156.6957 389.108,156.5517 C380.366,156.2617 371.636,155.8367 362.901,155.3637 C360.847,155.2507 358.792,155.0907 356.741,154.9187 C354.729,154.7507 352.726,154.4767 350.718,154.2897 C346.323,153.8757 341.925,153.5197 337.522,153.1997 C333.249,152.8867 328.979,152.5947 324.718,152.1687 C320.452,151.7427 316.183,151.4107 311.905,151.1647 C307.608,150.9187 303.312,150.7347 299.007,150.6447 C294.601,150.5587 290.194,150.4107 285.792,150.1797 C281.546,149.9577 277.323,149.5547 273.089,149.2117 C268.886,148.8717 264.682,148.7817 260.471,148.6487 C255.999,148.5117 251.53,148.2777 247.057,148.1447 C242.749,148.0157 238.432,148.0157 234.12,147.9497 C232.824,147.9297 231.528,147.9217 230.233,147.9217 C227.379,147.9217 224.527,147.9617 221.67,148.0047" id="Fill-36" stroke="#000000" stroke-width="3" fill="#000000"></path>
                <path d="M207.0991,324.1006 C207.0321,324.1106 206.9641,324.1206 206.8961,324.1296 C206.9631,324.1196 207.0311,324.1106 207.0991,324.1006 M216.2551,321.0796 C215.7911,321.2866 215.3271,321.4876 214.8611,321.6876 C214.1511,321.9676 213.4371,322.2516 212.7241,322.5326 C211.0161,323.2106 209.2721,323.7426 207.4651,324.0426 C204.9571,324.3076 202.4591,324.2886 199.9391,324.1806 C198.6381,324.1256 197.3291,324.0986 196.0331,323.9966 C194.7591,323.8956 193.4661,323.8566 192.1971,323.6966 C191.0881,323.5556 189.9791,323.4186 188.8701,323.2806 C186.7281,322.9416 184.5771,322.6336 182.4621,322.1616 C181.6261,321.9736 180.7941,321.7786 179.9621,321.6026 C179.2201,321.4426 178.4581,321.3836 177.7041,321.3606 C177.0601,321.3366 176.4081,321.4896 175.7671,321.5796 C174.7551,321.7156 173.7591,322.0206 172.7751,322.2976 C167.4071,323.8166 162.0781,325.5156 156.5441,326.3496 C153.1161,326.7826 149.6621,326.9186 146.2251,326.5576 C144.7151,326.3186 143.2531,325.9506 141.8241,325.4066 C141.0031,325.0176 140.2261,324.5786 139.4751,324.0686 C138.6481,323.3466 137.9441,322.5006 137.2081,321.6846 C136.0011,320.3486 133.7631,320.4616 132.5401,321.6846 C131.9271,322.3016 131.5761,323.1456 131.5761,324.0166 C131.5761,324.9266 131.9431,325.6886 132.5401,326.3526 C133.0171,326.8796 133.4941,327.4036 133.9661,327.9346 C134.5211,328.5636 135.1971,329.0986 135.8801,329.5826 C137.1931,330.5166 138.5871,331.1686 140.0721,331.7826 C141.4701,332.3566 142.9661,332.6886 144.4581,332.9266 C146.1071,333.1926 147.7711,333.3296 149.4391,333.3756 C154.6651,333.5206 159.9151,332.6146 164.9661,331.3366 C167.2361,330.7586 169.4861,330.1216 171.7361,329.4696 C173.5871,328.9356 175.4411,328.3196 177.3421,327.9826 C177.6681,327.9646 177.9871,327.9626 178.3091,327.9816 C179.6771,328.2356 181.0281,328.6086 182.3921,328.8646 C183.7711,329.1216 185.1461,329.3486 186.5291,329.5716 C189.3291,330.0286 192.1501,330.3296 194.9781,330.5556 C196.2281,330.6576 197.4741,330.7196 198.7281,330.7786 C201.1811,330.8916 203.6261,330.9936 206.0791,330.8326 C207.9041,330.7116 209.7361,330.4656 211.4971,329.9816 C212.6541,329.6616 213.7861,329.2316 214.9001,328.7866 C216.4821,328.1536 218.0521,327.5126 219.5991,326.8016 C220.3411,326.4576 220.9121,325.5826 221.1221,324.8216 C221.3571,323.9656 221.2361,323.0326 220.7871,322.2666 C220.3531,321.5246 219.6341,320.9696 218.8061,320.7436 C218.5231,320.6656 218.2551,320.6306 217.9941,320.6306 C217.3971,320.6306 216.8431,320.8126 216.2551,321.0796" id="Fill-42" stroke="#000000" stroke-width="3" fill="#000000"></path>
                <path d="M3.2612,264.4941 C3.4462,264.5191 3.6302,264.5451 3.8152,264.5701 L3.8132,264.5701 C3.6292,264.5461 3.4452,264.5201 3.2612,264.4941 M44.6092,258.2091 C43.5382,258.3851 42.7052,259.0231 41.8892,259.6851 C40.5292,260.6931 39.1212,261.6401 37.6672,262.5021 C35.2142,263.9621 32.7332,265.3371 30.1152,266.4801 C28.1462,267.2591 26.1312,267.8541 24.0392,268.2031 C22.2652,268.3971 20.5152,268.4121 18.7332,268.2381 C16.6832,267.9201 14.7122,267.3931 12.7732,266.6491 C11.4932,266.0781 10.2742,265.4181 9.1192,264.6271 C9.3702,264.4811 9.5982,264.3061 9.7842,264.1191 C10.3592,263.5451 10.6872,262.7561 10.6872,261.9431 C10.6872,261.1271 10.3592,260.3381 9.7842,259.7641 C9.1672,259.1461 8.4522,258.9391 7.6092,258.8611 C6.9592,258.8021 6.3142,258.7381 5.6682,258.6621 C4.4562,258.4691 3.2022,258.2041 2.0742,258.8571 C1.2572,259.3301 0.5192,259.9511 0.2922,260.9161 C0.0732,261.8571 0.1012,262.6661 0.3742,263.5961 C0.7922,265.0211 1.8352,266.2871 2.7732,267.3961 C3.8392,268.6501 5.2302,269.6621 6.5932,270.5681 C7.9132,271.4511 9.3782,272.1231 10.8472,272.7211 C12.4562,273.3691 14.0932,273.8811 15.7882,274.2401 C17.6592,274.6351 19.5972,274.8341 21.5072,274.8531 C23.3862,274.8691 25.2922,274.5921 27.1322,274.2281 C30.5662,273.5491 33.8392,272.0681 36.9492,270.4981 C38.0152,269.9591 39.0622,269.3691 40.0972,268.7711 C42.1152,267.6011 44.0932,266.3691 45.9432,264.9461 C46.0992,264.9991 46.2562,265.0561 46.4142,265.1151 C48.0902,265.8551 49.7572,266.6051 51.4522,267.3071 C53.1162,267.9901 54.7962,268.6231 56.4802,269.2561 C60.4372,270.7521 64.3942,272.2671 68.4292,273.5491 C72.9522,274.9821 77.6952,275.8221 82.4372,276.0411 C85.0462,276.1661 87.6322,275.9351 90.2062,275.5171 C92.7142,275.1111 95.0932,274.3031 97.4172,273.2951 C100.8432,271.8101 103.9802,269.7131 107.1442,267.7561 C108.6282,266.8421 110.1202,265.9241 111.5192,264.8771 C112.2612,264.3221 112.8272,263.7711 113.0812,262.8461 C113.3242,261.9671 113.1992,261.0101 112.7382,260.2241 C112.2922,259.4671 111.5582,258.8961 110.7062,258.6621 C109.9092,258.4431 108.7842,258.4901 108.0892,259.0061 C106.6832,260.0451 105.1912,260.9551 103.7022,261.8651 C100.4972,263.8351 97.3232,265.8751 93.8842,267.4201 C91.8772,268.1921 89.7962,268.7121 87.6742,269.0431 C84.6702,269.3691 81.6462,269.2841 78.6452,268.9291 C74.3722,268.2841 70.1712,267.1511 66.1162,265.6621 C64.2532,264.9741 62.3902,264.2911 60.5272,263.6071 C57.7482,262.5861 54.9842,261.5371 52.2392,260.4211 C51.2352,259.9711 50.2352,259.5191 49.2262,259.0841 C48.5972,258.8071 47.9642,258.5601 47.3122,258.3421 C46.8172,258.1731 46.3082,258.1061 45.7972,258.1061 C45.4012,258.1061 45.0032,258.1461 44.6092,258.2091" id="Fill-44" stroke="#000000" stroke-width="3" fill="#000000"></path>
                <path d="M551.0254,252.0176 C549.3064,252.5176 547.5844,252.9976 545.8494,253.4356 C544.4434,253.7876 543.0074,254.0186 541.5794,254.2546 C540.8484,254.3236 540.1204,254.3896 539.3884,254.4586 C538.5914,254.5336 537.7874,254.5176 536.9864,254.5296 C535.8654,254.5526 534.7444,254.5446 533.6234,254.5336 C532.8304,254.5296 532.0374,254.5216 531.2444,254.5256 C528.9084,254.5406 526.6114,254.7876 524.3024,255.1306 C522.6854,255.3726 521.0684,255.7056 519.4944,256.1506 C518.4434,256.4436 517.3924,256.7406 516.3454,257.0376 C514.7984,257.4756 513.2854,257.9436 511.7074,258.2176 C511.4474,258.2326 511.1974,258.2366 510.9454,258.2256 C510.9124,258.2166 510.8794,258.2076 510.8444,258.1986 C510.5514,258.0246 510.2734,257.8386 509.9944,257.6386 C509.3104,257.1466 508.2484,257.0916 507.4664,257.3066 C506.6504,257.5336 505.9394,258.0796 505.5094,258.8146 C505.0684,259.5726 504.9474,260.4946 505.1774,261.3376 C505.4234,262.2206 505.9664,262.7796 506.6854,263.2986 C507.5484,263.9196 508.4664,264.3576 509.5024,264.6156 C510.7484,264.9276 512.0644,264.7906 513.3104,264.5766 C515.0024,264.2876 516.6154,263.7876 518.2634,263.3266 C519.3264,263.0256 520.3884,262.7286 521.4554,262.4316 C523.0484,261.9856 524.6904,261.6926 526.3284,261.4456 C528.4184,261.1966 530.5064,261.1056 532.6114,261.1306 C533.6854,261.1466 534.7594,261.1626 535.8344,261.1736 C537.7054,261.2016 539.5454,261.0806 541.4044,260.9126 C545.2874,260.5606 549.0604,259.5056 552.7834,258.3966 C554.5094,257.8806 555.5804,256.0916 555.0954,254.3266 C554.7014,252.8956 553.3374,251.8946 551.8904,251.8946 C551.6034,251.8946 551.3124,251.9346 551.0254,252.0176" id="Fill-46" stroke="#000000" stroke-width="3" fill="#000000"></path>
                <path d="M185.813,299.4189 C185.793,299.4449 185.772,299.4719 185.752,299.4969 C185.772,299.4709 185.792,299.4449 185.813,299.4189 M246.879,223.8329 C246.719,224.0449 246.559,224.2539 246.398,224.4619 C246.559,224.2529 246.719,224.0429 246.879,223.8329 M287.462,166.0949 C286.845,166.3689 286.231,166.6459 285.622,166.9429 C284.821,167.3339 284.099,167.8649 283.376,168.3799 C282.247,169.1809 281.149,170.0169 280.079,170.8959 C278.396,172.2829 276.892,173.8879 275.399,175.4739 C273.868,177.0949 272.368,178.7519 270.88,180.4119 C269.462,181.9899 268.157,183.6659 266.767,185.2669 C265.399,186.8489 263.954,188.3689 262.622,189.9819 C261.122,191.7939 259.665,193.6339 258.215,195.4859 C256.836,197.2439 255.368,198.9389 253.954,200.6689 C252.411,202.5479 250.965,204.5089 249.497,206.4429 L250.176,205.5639 C245.481,211.6369 240.82,217.7319 236.178,223.8519 C234.057,226.5549 231.869,229.1949 229.696,231.8529 C227.268,234.8129 224.938,237.8509 222.604,240.8859 C219.901,244.3299 217.125,247.7099 214.368,251.1059 C211.469,254.6769 208.657,258.3099 205.848,261.9459 C203.043,265.5749 200.137,269.1179 197.227,272.6609 C194.29,276.2349 191.434,279.8759 188.575,283.5129 C186.95,285.5749 185.336,287.6489 183.633,289.6489 C182.797,290.6299 181.938,291.5909 181.043,292.5169 C180.661,292.9149 180.278,293.3139 179.93,293.7429 C179.122,294.7319 178.567,295.4889 178.133,296.7079 C177.528,298.4069 178.512,300.4229 179.997,301.2899 C181.84,302.3719 184.52,301.7899 185.547,299.8369 C185.571,299.7869 185.596,299.7379 185.624,299.6909 C186.634,298.4789 187.74,297.3539 188.778,296.1689 C190.083,294.6809 191.333,293.1419 192.571,291.5989 C195.504,287.9499 198.395,284.2669 201.356,280.6379 C204.282,277.0519 207.258,273.5089 210.157,269.8989 C212.973,266.3839 215.696,262.7939 218.501,259.2669 C220.696,256.5089 222.981,253.8249 225.208,251.0949 C227.536,248.2349 229.762,245.3019 232.051,242.4149 C234.376,239.4779 236.786,236.6139 239.161,233.7119 C241.606,230.7269 243.948,227.6629 246.294,224.5979 C247.948,222.4679 249.593,220.3309 251.239,218.1939 C253.881,214.8029 256.511,211.3859 259.223,208.0479 C260.614,206.3369 262.063,204.6809 263.469,202.9859 C264.903,201.2669 266.259,199.4939 267.692,197.7749 C269.087,196.1069 270.56,194.5089 271.981,192.8649 C273.458,191.1499 274.888,189.3919 276.349,187.6619 C277.821,185.9159 279.341,184.2089 280.864,182.5049 C282.278,180.9189 283.712,179.3369 285.255,177.8799 C285.903,177.2669 286.578,176.6999 287.271,176.1469 C287.821,175.7489 288.371,175.3509 288.931,174.9739 C289.825,174.3729 290.825,173.9509 291.802,173.5169 C292.767,173.0909 293.509,171.9229 293.778,170.9469 C294.083,169.8369 293.927,168.6299 293.345,167.6339 C292.782,166.6729 291.849,165.9549 290.774,165.6619 C290.396,165.6109 290.013,165.5599 289.634,165.5049 C288.856,165.5089 288.134,165.7049 287.462,166.0949" id="Fill-49" stroke="#000000" stroke-width="3" fill="#000000"></path>
                <path d="M173.4219,293.2344 C171.2309,293.8364 169.1129,294.5894 167.0939,295.6404 C165.3629,296.5434 163.7849,297.6914 162.2189,298.8394 C160.5779,300.0434 158.9419,301.2544 157.3319,302.4964 C155.5429,303.8754 153.8479,305.3044 152.2069,306.8594 C151.1719,307.8474 150.1449,308.8434 149.1129,309.8394 C147.6599,311.2384 147.7029,313.6684 149.1129,315.0744 C150.5589,316.5194 152.8949,316.4724 154.3479,315.0744 C156.2139,313.2764 158.0619,311.4564 160.0539,309.7974 C161.7919,308.4884 163.5669,307.2294 165.3479,305.9844 C166.3949,305.2464 167.4449,304.5154 168.5239,303.8204 C169.4719,303.2094 170.4679,302.6884 171.4839,302.1974 C173.6539,301.3644 175.9229,300.8124 178.2069,300.3714 C179.0599,300.2854 179.9039,300.2494 180.7669,300.2984 C181.1369,300.3744 181.4969,300.4644 181.8589,300.5824 C182.2349,300.7684 182.5939,300.9684 182.9489,301.1984 C183.8069,301.9334 184.5989,302.7334 185.3249,303.5964 C185.7759,304.2644 186.1719,304.9494 186.5189,305.6724 C186.9579,306.8824 187.2489,308.1174 187.4559,309.3864 C187.6509,311.2994 187.6789,313.2224 187.6249,315.1484 C187.5779,316.8794 187.4379,318.6054 187.4139,320.3364 C187.3829,322.5074 189.2459,324.3204 191.3949,324.3204 C192.4449,324.3204 193.4689,323.8944 194.2109,323.1524 C195.0119,322.3514 195.2739,321.4294 195.3789,320.3364 C195.5629,318.3754 195.7619,316.4254 195.8129,314.4534 C195.9019,310.7964 195.7269,307.0504 194.5199,303.5704 C193.5549,300.7934 191.9299,298.4294 189.8559,296.3674 C188.8399,295.3514 187.6839,294.3984 186.4299,293.6954 C185.8319,293.3634 185.0899,293.0584 184.4609,292.8324 C183.5739,292.5114 182.7309,292.3794 181.7889,292.2544 C181.1989,292.1734 180.6079,292.1384 180.0169,292.1384 C177.7869,292.1384 175.5659,292.6474 173.4219,293.2344" id="Fill-51" stroke="#000000" stroke-width="3" fill="#000000"></path>
                <path d="M299.0078,134.6201 C299.0078,136.4721 300.5508,138.0151 302.4028,138.0151 C304.2538,138.0151 305.7968,136.4721 305.7968,134.6201 C305.7968,132.7681 304.2538,131.2251 302.4028,131.2251 C300.5508,131.2251 299.0078,132.7681 299.0078,134.6201" id="Fill-53" stroke="#000000" stroke-width="3" fill="#000000"></path>
                <path d="M307.5186,127.6845 C307.3066,127.7425 307.0906,127.8255 306.8776,127.9295 C305.8156,128.3645 304.7886,128.9235 303.7486,129.3995 C301.7256,130.3175 299.9916,131.6495 298.2336,132.9855 C296.0116,134.6755 293.9136,136.5355 291.7286,138.2815 C291.3776,138.5435 291.0256,138.8035 290.6556,139.0435 C290.1666,139.3565 289.6596,139.6145 289.1556,139.8995 C286.8816,141.1725 286.1396,144.2275 287.4366,146.4465 C288.7456,148.6845 291.7456,149.5005 293.9876,148.1645 C295.1316,147.4815 296.1746,146.5795 297.1826,145.7075 C298.1596,144.8645 299.1086,143.9935 300.0576,143.1225 C301.8566,141.4685 303.6226,139.7825 305.5206,138.2455 C306.6546,137.4235 307.8346,136.6885 309.0106,135.9385 C309.4916,135.6335 310.1636,135.1185 310.5416,134.7625 C311.0266,134.3055 311.4206,133.8135 311.8156,133.2745 C312.3856,132.4855 312.4446,131.2435 312.1986,130.3405 C311.9366,129.3915 311.2996,128.5675 310.4486,128.0675 C309.8646,127.7245 309.1966,127.5495 308.5256,127.5495 C308.1866,127.5495 307.8476,127.5945 307.5186,127.6845" id="Fill-55" stroke="#000000" stroke-width="3" fill="#000000"></path>
            </g>
        </g>
    </g>
</svg>