<?xml version="1.0" encoding="UTF-8" standalone="no"?>
<svg width="138px" height="127px" viewBox="0 0 138 127" version="1.1" xmlns="http://www.w3.org/2000/svg" xmlns:xlink="http://www.w3.org/1999/xlink">
    <!-- Generator: Sketch 48.2 (47327) - http://www.bohemiancoding.com/sketch -->
    <title>sad0001</title>
    <desc>Created with Sketch.</desc>
    <defs></defs>
    <g id="Page-1" stroke="none" stroke-width="1" fill="none" fill-rule="evenodd">
        <g id="sad0001" transform="translate(0.414370, 0.000000)" fill="#000000">
            <g id="happy" transform="translate(69.000000, 26.000000) scale(1, -1) translate(-69.000000, -26.000000) translate(40.000000, 0.500000)">
                <path d="M1.8565,31.2332 C1.8565,26.5462 -1.2265,5.5712 2.5195,2.3262 C12.4105,-6.2418 10.9945,18.2752 11.0795,21.9142 C11.1835,26.3352 14.9115,47.8332 10.1965,48.6662 C-0.3055,50.5222 3.5595,31.2312 1.8565,31.2332" id="Fill-59"></path>
                <path d="M43.5596,45.0828 C45.0966,34.3418 45.5976,23.2458 47.1116,12.6168 C47.9266,6.8898 52.2946,0.2908 56.6776,8.7938 C59.4166,14.1068 54.9866,28.2778 54.5146,34.8008 C54.2556,38.3748 55.3726,48.4388 51.0696,50.4978 C47.4006,52.2518 43.6266,48.5838 43.5596,45.0828" id="Fill-61"></path>
            </g>
            <path d="M109.65233,87.8272341 C117.73433,89.9512341 139.82033,101.612234 137.40733,112.542234 C135.85933,119.555234 125.00133,102.099234 123.91833,101.310234 C102.51033,85.6952341 50.4443302,102.773234 30.0583302,113.983234 C23.4923302,117.594234 10.4373302,131.197234 2.76533017,124.851234 C-7.14766983,116.652234 17.1733302,108.031234 21.2693302,105.885234 C42.0713302,94.9842341 86.2933302,79.6022341 109.65233,87.8272341" id="Fill-39"></path>
        </g>
    </g>
</svg>