<?xml version="1.0" encoding="UTF-8" standalone="no"?>
<svg width="257px" height="312px" viewBox="0 0 257 312" version="1.1" xmlns="http://www.w3.org/2000/svg" xmlns:xlink="http://www.w3.org/1999/xlink">
    <!-- Generator: Sketch 49.1 (51147) - http://www.bohemiancoding.com/sketch -->
    <title>boat</title>
    <desc>Created with Sketch.</desc>
    <defs></defs>
    <g id="Page-1-Copy" stroke="none" stroke-width="1" fill="none" fill-rule="evenodd">
        <g id="Artboard" transform="translate(-3503.000000, -9801.000000)">
            <g id="boat" transform="translate(3503.294298, 9800.348372)">
                <g id="Group-75" transform="translate(6.546148, 35.349514)" fill="#FFFFFF">
                    <polygon id="Path-79" points="119 0 119 200 248 200"></polygon>
                    <polygon id="Path-80" points="99 83 99 199 1 199"></polygon>
                    <polygon id="Path-81" points="236 230 236 277 32 277 0 221"></polygon>
                </g>
                <path d="M124.840389,97.2310013 C120.106232,100.277928 117.903998,105.311605 114.602802,109.38423 C114.318364,109.733312 114.277423,110.375451 114.305435,110.871061 C114.650208,116.542568 113.633129,122.170978 113.958508,127.868343 C114.273113,133.356689 114.150288,138.905371 113.760264,144.393717 C112.784127,158.111351 111.387799,171.738482 112.635444,185.589715 C113.773193,198.240709 115.010064,210.98867 113.501685,223.760334 C113.148293,226.744771 113.751645,227.083078 116.716688,226.169431 C119.330494,225.363526 121.827939,224.038307 124.601203,225.781562 C125.532088,226.367676 126.159143,227.759694 127.57271,227.281323 C128.160978,226.671506 128.102798,225.988426 128.059701,225.303191 C127.286118,212.906466 127.753716,200.511897 128.053237,188.110863 C128.257945,179.674712 128.027379,171.245026 126.329375,162.910152 C123.592743,149.440324 124.275824,135.856289 125.364012,122.291648 C125.872551,115.941371 126.863772,109.621261 126.430651,103.225732 C126.297052,101.234671 126.536238,99.1057015 124.840389,97.2310013 M132.586994,51.8460185 C132.449085,55.6859216 132.410299,59.5559923 132.168958,63.3851212 C131.742302,70.2029964 131.313491,77.2234253 132.438311,83.8969269 C135.39258,101.398438 135.670553,118.755576 132.664568,136.252778 C131.770315,141.456687 131.20144,146.804969 132.207745,152.157562 C133.000721,156.385334 133.427377,160.68206 134.226818,164.909832 C136.032564,174.468648 136.064886,184.064097 135.187872,193.709106 C134.315166,203.319638 134.252676,212.947408 134.636236,222.588108 C134.743977,225.260094 135.269755,226.983956 138.420113,227.645489 C140.977894,228.182041 143.436552,228.610851 146.037429,228.460013 C155.48204,227.910532 164.924495,226.966718 174.386344,228.18635 C180.721538,229.00303 187.082589,229.089223 193.460879,229.145249 C201.375562,229.212048 209.296709,229.265919 217.187688,230.216198 C220.939243,230.668712 224.748979,230.69457 228.535011,230.720428 C231.245785,230.739821 231.780182,230.020109 230.674755,227.675656 C228.623359,223.325059 227.04818,218.761134 224.514103,214.6174 C220.027751,207.280211 215.261272,200.065848 211.410595,192.396816 C202.840845,175.334889 194.980033,157.9325 184.811401,141.687253 C177.512999,130.03179 171.68419,117.540253 165.254184,105.391334 C155.932399,87.7863911 146.069752,70.4486467 135.129691,53.7638152 C134.588829,52.940671 134.244057,51.8481733 132.586994,51.8460185 M17.3015531,261.769341 C17.1119282,263.03638 17.96524,263.710841 18.6052239,264.508127 C27.3258119,275.377079 36.0679482,286.228792 44.7131173,297.158078 C45.6633964,298.356162 46.6115206,298.916418 48.0768035,299.14052 C53.513434,299.970128 58.969458,300.739402 64.1388898,302.808037 C66.4424007,303.730303 68.8558078,303.501891 71.2799891,303.122641 C78.4534108,302.004286 85.5535683,301.784493 92.8605894,302.816656 C99.7926704,303.797102 106.938079,303.154964 113.980056,303.465259 C121.379735,303.788483 128.70615,302.590399 136.097209,302.736927 C145.080686,302.913623 153.917635,301.547462 162.771822,300.099418 C175.028482,298.095428 187.367026,296.938286 199.824086,298.179466 C203.748027,298.571645 207.747388,298.892714 211.511872,297.07404 C212.110914,296.785293 212.953452,296.414662 213.464146,296.621526 C218.519372,298.668612 222.85273,295.763904 227.412346,294.63262 C230.978586,293.749141 235.413222,296.849938 235.227906,300.409713 C235.165416,301.584094 234.415536,302.200375 233.415696,302.685211 C231.816814,303.463104 229.970127,303.20668 228.410031,303.751851 C220.682819,306.45616 213.046109,306.350573 204.877157,305.434772 C187.145079,303.445866 169.464717,306.180342 151.846845,308.341634 C139.318676,309.880181 126.661218,308.494627 114.165372,309.90173 C98.8941072,311.623437 83.5129464,309.513861 68.2696947,311.685927 C65.087014,312.138441 61.7944372,311.877707 58.5492665,310.940357 C55.4183018,310.039639 52.1343442,309.856478 48.8245287,310.528784 C46.5748885,310.985608 44.254139,310.899415 42.9720165,308.447221 C42.2048978,306.981938 41.0218973,306.71043 39.5307565,306.783694 C37.5504698,306.878506 35.9774455,305.870047 35.7145565,303.993192 C34.6586909,296.496546 29.0324355,291.714983 25.1408165,285.950819 C19.1482405,277.072928 11.2378677,269.787456 4.14632943,261.823212 C3.57530007,261.178919 3.0430576,260.495838 2.43539617,259.888177 C-1.72773111,255.697037 0.623186001,251.796798 3.40937833,248.523615 C4.35103807,247.416033 5.82063062,246.935507 7.1609335,247.793128 C10.1863117,249.728164 13.6426555,249.913479 17.002032,250.620262 C20.0187909,251.251627 22.970905,252.277325 25.886387,253.309487 C30.3167129,254.880357 34.8396964,255.457851 39.537221,255.763836 C47.958288,256.315472 56.3987484,256.442607 64.8111961,257.041649 C69.116542,257.347635 73.4218879,257.741968 77.7099952,257.293764 C82.3730425,256.804618 86.9391226,258.026405 91.5526089,257.802303 C101.350611,257.323932 111.127065,257.397196 120.912137,258.103979 C126.124666,258.481074 127.900244,257.298074 128.596253,252.21268 C129.298727,247.092809 128.766485,241.886745 128.501441,236.723778 C128.445415,235.614042 127.848528,234.592653 126.534083,235.064561 C123.965528,235.988982 121.392664,235.055941 118.839193,235.305901 C116.132729,235.570945 113.258189,235.241256 111.11629,237.523219 C110.019483,238.693291 108.681335,238.611407 107.289316,238.145964 C104.559149,237.228008 101.803125,237.69345 99.1117448,238.217074 C79.076156,242.123776 58.6914852,242.281079 38.4425685,243.890735 C35.3934872,244.132076 32.4844696,243.968309 29.5345104,245.707255 C26.0092121,247.786664 21.4840738,245.26336 20.354944,241.229523 C19.7623664,239.124256 19.9476816,237.146124 21.8245366,235.609732 C23.9017906,233.907418 26.4121649,233.241576 28.5454444,234.676692 C32.6094497,237.417633 36.8070542,237.079325 41.3537408,236.747481 C51.6602821,235.991137 61.9301913,234.836149 72.2625906,234.258655 C81.6770332,233.730722 91.0225213,231.802151 100.370164,230.306701 C104.035526,229.718433 104.419086,229.033198 104.841432,225.197604 C105.763698,216.791621 106.108471,208.361935 105.563299,199.91501 C104.576388,184.592029 104.42555,169.273359 105.289636,153.935294 C105.849891,143.962751 105.276707,133.992363 104.645343,124.09093 C103.455878,123.547913 102.934409,124.355973 102.449573,124.987338 C95.9506124,133.453656 89.6520508,142.04711 83.8534092,151.030587 C77.6819824,160.591557 70.155169,169.165617 62.8610769,177.879741 C58.644079,182.919883 54.9679428,188.311262 51.7464752,193.978459 C47.2234917,201.934083 42.4203806,209.665605 36.6497517,216.783002 C34.0596488,219.978611 30.3727384,222.152832 28.3816775,225.928091 C27.7546227,227.119711 26.8603691,228.160492 26.3087332,229.453389 C24.9770496,232.580044 21.9861487,233.543252 19.2753753,231.884035 C16.4460864,230.149398 15.5949295,226.490501 17.1054637,223.893933 C18.1311618,222.12482 20.2795251,221.816679 21.2707458,220.138069 C25.2571772,213.389148 31.7475185,208.8597 36.6928483,202.929614 C39.5156727,199.54007 41.4033018,195.736799 43.4568527,192.054198 C48.7749677,182.510466 55.2416059,173.843748 62.2318672,165.536887 C69.1359354,157.335613 74.7040104,148.216382 80.6858124,139.377278 C88.7922745,127.392126 97.6141395,115.932752 106.311024,104.378565 C110.538797,98.7630838 114.574789,92.9536681 117.145499,86.3103341 C118.093623,83.85814 119.24861,81.4964488 121.56505,80.1152042 C123.334164,79.0593386 123.63153,77.652236 123.616446,75.7904648 C123.528098,65.9730694 123.433286,56.1621385 122.295537,46.3856848 C121.519799,39.7186477 120.754835,33.0343719 121.185801,26.2940706 C121.409903,22.7795465 122.487317,21.1698901 125.652759,21.2388446 C128.600563,21.3034894 130.88468,20.0687731 133.429532,19.0732427 C138.885556,16.942118 144.492418,15.2247202 150.256582,14.0869712 C151.09481,13.9232043 151.993373,13.8822625 152.497603,12.449302 C149.067117,9.27093107 144.656185,8.88090724 140.253872,8.90461034 C136.793218,8.92184896 133.369197,8.85935896 129.953795,8.29694891 C128.936716,8.13102717 127.919637,8.0405244 127.021074,7.42208883 C125.534243,6.39854563 125.239032,4.97635929 125.523469,3.33222569 C125.810061,1.6816276 126.999526,1.12352721 128.477738,0.970534435 C128.992742,0.91666374 129.51852,0.903734773 130.029214,0.957605468 C138.430887,1.84970417 146.774381,3.05640773 154.641657,6.34898459 C157.177889,7.41131469 159.584832,8.78178516 162.125374,9.84196043 C163.258813,10.3138677 164.275892,10.8202522 165.17661,11.6714092 C168.777327,15.0738823 168.342052,17.442038 163.700553,19.1615906 C158.468631,21.0987808 152.827292,20.8121887 147.457461,22.0749178 C144.589385,22.7493789 141.839825,23.6307034 139.118277,24.749059 C136.551878,25.8027698 135.817081,27.5007741 136.476459,30.0736385 C138.747647,38.9192066 141.46704,47.4695632 146.300318,55.4445809 C151.362009,63.7945385 156.371984,72.2479279 160.229125,81.3046691 C161.4229,84.1059452 163.420425,86.6077003 165.280042,89.0749781 C169.990495,95.3261335 173.272298,102.327169 176.235186,109.496281 C180.387539,119.544243 185.673332,128.993163 191.370696,138.220135 C199.158244,150.832342 206.891921,163.537207 212.3501,177.315176 C216.72009,188.34143 222.882898,198.128658 229.668451,207.665925 C232.092632,211.072708 233.876829,214.830728 234.86374,218.853791 C235.654562,222.083878 237.30516,224.915322 238.341632,228.00319 C239.110906,230.295927 240.584808,230.826014 242.713778,230.5071 C245.271559,230.125695 247.82503,229.774458 250.425907,230.160173 C254.173152,230.718273 257.034764,235.993291 255.280734,239.234152 C254.272274,241.095924 252.397574,241.067911 250.725428,240.848118 C244.37946,240.01851 237.990396,240.298637 231.629344,239.899994 C215.638367,238.897999 199.675403,237.432716 183.617626,237.56847 C174.677246,237.643889 165.777807,235.855382 156.783556,236.633275 C150.952592,237.137505 145.21644,238.471343 139.331605,238.503666 C137.187552,238.51444 135.845094,239.337584 136.086435,241.996642 C136.469994,246.282594 136.737193,250.609488 136.577735,254.90406 C136.46353,258.112599 138.387791,259.605894 141.053313,259.136142 C148.103909,257.892806 155.16097,258.72457 162.198638,258.476764 C170.576608,258.181553 178.997675,257.588975 187.38211,258.864633 C189.733027,259.222335 192.178757,259.168464 194.561996,259.024091 C198.561357,258.77844 202.45944,259.263277 206.357524,260.056253 C207.863748,260.364394 209.553133,260.821217 210.951617,260.439813 C217.513067,258.65346 224.309394,259.41196 230.929025,258.336701 C233.047221,257.991928 234.796941,257.097675 236.645783,256.145241 C241.321759,253.731834 244.668207,255.660405 244.401008,260.872933 C244.1295,266.191048 243.37531,271.500544 242.537082,276.764788 C241.916492,280.652097 240.397338,284.377794 240.283132,288.372845 C240.224952,290.402693 239.132454,291.751615 237.201729,291.87875 C234.917611,292.027433 233.945784,290.432861 233.568689,288.321129 C233.260549,286.586493 233.318729,284.957443 233.812184,283.237891 C235.003804,279.079073 235.587763,274.79312 235.574834,270.474846 C235.55975,266.147951 234.152647,264.783945 229.896862,265.245079 C216.295589,266.716826 202.715865,265.684663 189.129676,265.16966 C173.270143,264.566308 157.430004,265.581232 141.579091,265.667425 C132.270235,265.716986 122.952759,265.960481 113.669761,265.191208 C103.328743,264.335741 93.0135821,265.027441 82.6811829,265.221375 C61.3096009,265.622173 39.9552576,265.238614 18.7905391,261.685303 C18.3078576,261.605574 17.7885441,261.739174 17.3015531,261.769341" id="Fill-232" fill="#000000"></path>
            </g>
        </g>
    </g>
</svg>