<?xml version="1.0" encoding="UTF-8" standalone="no"?>
<svg width="104px" height="109px" viewBox="0 0 104 109" version="1.1" xmlns="http://www.w3.org/2000/svg" xmlns:xlink="http://www.w3.org/1999/xlink">
    <!-- Generator: Sketch 48.2 (47327) - http://www.bohemiancoding.com/sketch -->
    <title>scooter</title>
    <desc>Created with Sketch.</desc>
    <defs></defs>
    <g id="Page-1" stroke="none" stroke-width="1" fill="none" fill-rule="evenodd">
        <g id="scooter" fill="#000000">
            <path d="M9.7566,85.2796 C8.0496,86.2386 7.5686,87.6426 6.7886,88.7986 C6.5326,89.1786 6.1926,89.6266 6.4686,90.1076 C6.8056,90.6956 7.4376,90.5126 7.9676,90.5036 C8.7106,90.4906 9.1306,90.0716 9.2286,89.3436 C9.3966,88.1066 9.5516,86.8666 9.7566,85.2796 M89.4766,99.8756 C90.4036,99.6496 91.6376,99.3786 92.8526,99.0426 C93.6476,98.8226 93.8796,98.2796 93.3086,97.6356 C92.3936,96.6056 92.4506,94.3796 90.9366,94.4376 C89.4176,94.4966 89.1746,96.6486 88.2336,97.7766 C88.0556,97.9896 88.0836,98.3736 88.0126,98.6776 C87.7826,99.6666 88.2786,99.9676 89.4766,99.8756 M99.8246,88.9016 C99.7076,88.2646 99.6356,87.6266 99.4686,87.0136 C99.0106,85.3276 98.2286,85.0836 96.9926,86.3066 C95.8036,87.4846 94.7116,88.7596 93.5696,89.9846 C93.1316,90.4546 93.0286,90.9336 93.4216,91.4836 C94.3026,92.7186 95.2146,93.9246 96.3326,94.9626 C96.8016,95.3976 97.1846,95.2986 97.5136,94.8316 C98.7716,93.0456 99.6566,91.1116 99.8246,88.9016 M90.0496,80.0416 C89.2766,80.0766 87.9006,79.7716 86.6046,80.3746 C86.1776,80.5726 85.5556,80.8046 85.8616,81.3656 C86.9566,83.3726 88.0156,85.4196 89.8316,86.9246 C90.3466,87.3506 90.8196,87.4846 91.2646,86.9206 C92.5946,85.2306 93.9116,83.5296 95.2076,81.8126 C95.7626,81.0786 95.3666,80.7086 94.6396,80.4056 C93.3276,79.8606 91.9686,80.0556 90.0496,80.0416 M12.5666,100.0366 C12.5456,100.0366 12.5256,100.0366 12.5036,100.0376 C12.4736,99.4036 12.4486,98.7696 12.4106,98.1366 C12.2676,95.7706 11.1316,94.9786 8.8006,95.4976 C7.9166,95.6946 7.2476,96.2606 6.4416,96.5766 C4.6396,97.2836 4.5286,97.6086 5.5276,99.2786 C6.8526,101.4906 9.0306,102.6486 11.2266,103.7466 C11.9866,104.1276 12.4776,103.6066 12.5446,102.8836 C12.6326,101.9416 12.5666,100.9866 12.5666,100.0366 M80.4236,91.4136 C80.2056,92.6726 80.9406,93.6186 81.5216,94.6716 C82.0996,95.7176 82.5506,95.9846 83.7296,95.3796 C85.5796,94.4286 86.8346,92.9846 87.9996,91.3556 C88.4576,90.7136 88.4526,90.2666 87.9516,89.6876 C86.8106,88.3696 85.7216,87.0066 84.5956,85.6756 C83.6966,84.6146 82.8086,84.5676 82.2056,85.7436 C81.3056,87.5016 80.4386,89.3156 80.4236,91.4136 M21.2086,89.2446 C21.2096,89.2696 21.2096,89.2946 21.2106,89.3196 C22.3206,89.2456 23.4306,89.1466 24.5416,89.1036 C27.5076,88.9906 27.9636,88.2716 26.7936,85.5646 C26.2226,84.2416 25.2266,83.3386 23.9396,82.8326 C21.1926,81.7546 18.2776,81.3596 15.3776,80.9426 C14.5926,80.8296 14.1766,81.2506 14.1176,82.0106 C14.0276,83.2006 13.9856,84.3946 13.8856,85.5846 C13.6976,87.8296 14.6236,88.9106 16.9206,89.0466 C18.3486,89.1316 19.7786,89.1796 21.2086,89.2446 M15.4536,97.5916 C15.4726,97.5926 15.4916,97.5936 15.5116,97.5936 C15.6346,99.1886 15.7356,100.7836 15.8856,102.3756 C16.0616,104.2376 16.6546,104.6306 18.3296,103.8736 C20.3846,102.9436 22.2586,101.6806 23.8016,100.0426 C25.3726,98.3756 26.0826,96.2196 26.6776,94.0466 C26.8486,93.4236 26.7676,92.8516 25.9666,92.8836 C22.8516,93.0106 19.7376,93.1496 16.6176,93.0286 C15.8726,92.9996 15.4486,93.4486 15.4516,94.2356 C15.4566,95.3546 15.4536,96.4726 15.4536,97.5916 M16.4106,56.4626 C16.2086,60.2096 16.2546,63.9926 15.7176,67.6916 C15.3646,70.1246 15.1676,72.5916 14.6546,75.0096 C14.2556,76.8986 14.4996,77.1276 16.4106,77.5296 C18.5936,77.9896 20.8156,78.2226 22.9536,78.9426 C25.5916,79.8316 27.8766,81.1346 29.6296,83.3586 C30.7636,84.7956 31.6076,86.2986 31.3476,88.1716 C31.1826,89.3656 31.6986,89.6886 32.7726,89.8006 C37.1636,90.2616 41.5466,90.3406 45.9266,89.7036 C47.9926,89.4036 50.0756,89.3276 52.1496,89.4446 C56.6436,89.6986 61.1006,89.3686 65.5426,88.7616 C66.9036,88.5756 68.2586,88.5656 69.6076,88.6706 C70.7286,88.7576 71.8066,88.8986 72.9196,88.5246 C73.7706,88.2376 74.6836,88.3156 75.4306,88.9026 C76.1706,89.4846 76.5656,89.2156 76.8336,88.4496 C76.8606,88.3746 76.8826,88.2966 76.8946,88.2176 C77.4416,84.5736 79.6576,81.6886 81.3286,78.5646 C82.1656,77.0016 83.9126,76.6536 85.4366,76.4466 C88.2066,76.0706 91.0626,75.9396 93.8036,76.5086 C98.2606,77.4346 101.4426,79.9836 102.6816,84.5626 C102.8906,85.3336 103.0226,86.1336 103.3136,86.8716 C104.3916,89.6056 103.9216,92.2146 102.6796,94.7286 C101.5246,97.0686 100.6456,99.6436 98.2376,101.1006 C91.3216,105.2856 85.8686,104.8716 80.5386,99.4106 C79.3726,98.2166 78.2496,96.9666 77.6066,95.3566 C77.2356,94.4316 76.5986,93.7696 75.4166,93.8406 C74.8866,93.8726 74.3086,93.6646 73.8016,93.4486 C70.4006,91.9986 66.9386,92.2586 63.4556,93.0336 C62.3536,93.2786 61.2396,93.3766 60.1186,93.3216 C55.0796,93.0716 50.0526,93.1256 45.0296,93.6956 C41.3566,94.1126 37.6876,93.7656 34.0176,93.4686 C30.4726,93.1826 31.2696,92.8156 30.2346,96.1816 C29.5976,98.2516 29.0956,100.3806 27.7406,102.1016 C25.0256,105.5536 21.6226,107.8736 17.0736,108.1556 C10.9206,108.5386 6.3626,105.6886 2.6766,101.0796 C1.6506,99.7966 1.1326,98.3106 1.1126,96.6456 C1.0946,95.1316 0.9656,93.6166 0.9686,92.1026 C0.9696,91.3946 0.9266,90.4886 1.3186,90.0156 C2.5866,88.4856 1.7836,87.3936 0.8196,86.2446 C-0.0714,85.1816 -0.0264,84.1726 0.7186,82.9696 C1.6526,81.4626 2.9226,80.4506 4.4956,79.7906 C6.1146,79.1116 7.7496,78.4426 9.4296,77.9446 C10.5106,77.6236 11.0106,77.1146 11.1166,75.9786 C11.9196,67.3916 13.1956,58.8506 12.8266,50.1696 C12.6216,45.3726 13.7376,40.6366 14.2246,35.8706 C14.7596,30.6216 15.1936,25.3676 15.0306,20.0836 C14.9886,18.7176 14.7286,17.3866 14.3096,16.0856 C12.5886,10.7286 15.3716,6.0716 19.6026,3.7776 C22.6586,2.1196 26.0096,1.2866 29.4226,0.8436 C31.3366,0.5956 33.2356,1.1336 35.0436,1.8336 C35.3376,1.9466 35.6156,2.1276 35.8646,2.3236 C36.7956,3.0606 37.5886,4.8646 37.1456,5.4546 C36.3196,6.5516 35.1446,5.9866 34.3046,5.6286 C31.7096,4.5236 29.4206,5.2536 26.9146,6.0696 C24.7686,6.7686 22.6956,7.4646 20.8076,8.7006 C20.4106,8.9596 19.6626,9.1476 19.8286,9.5916 C20.4556,11.2736 19.3766,12.6896 19.2846,14.2466 C19.0486,18.2426 20.0656,18.8866 23.6886,20.7546 C25.5216,21.6996 27.6196,22.0726 29.6586,22.4936 C30.7296,22.7146 31.7186,22.3876 32.7126,22.0876 C34.5466,21.5336 36.3416,20.8416 38.2476,20.5506 C40.2026,20.2526 42.0176,22.2516 41.5006,24.1476 C41.2436,25.0906 40.3366,25.4396 39.6306,25.3846 C37.3186,25.2036 35.2726,26.2286 33.0866,26.5816 C32.2876,26.7106 31.5036,26.6826 30.7056,26.5276 C27.2706,25.8606 23.8196,25.3056 20.6916,23.5476 C19.3236,22.7796 19.0596,22.9666 18.8886,24.4796 C18.6646,26.4636 18.5196,28.4576 18.4076,30.4516 C18.0696,36.5236 17.0736,42.5206 16.3966,48.5546 C16.1006,51.1926 16.5096,53.8256 16.4106,56.4626" id="Fill-167"></path>
        </g>
    </g>
</svg>