<?xml version="1.0" encoding="UTF-8" standalone="no"?>
<svg width="388px" height="216px" viewBox="0 0 388 216" version="1.1" xmlns="http://www.w3.org/2000/svg" xmlns:xlink="http://www.w3.org/1999/xlink">
    <!-- Generator: Sketch 49.1 (51147) - http://www.bohemiancoding.com/sketch -->
    <title>sleeping</title>
    <desc>Created with Sketch.</desc>
    <defs></defs>
    <g id="Page-1-Copy" stroke="none" stroke-width="1" fill="none" fill-rule="evenodd">
        <g id="Artboard" transform="translate(-7236.000000, -1869.000000)">
            <g id="sleeping" transform="translate(7236.000000, 1868.741171)">
                <ellipse id="Oval-77" fill="#FFFFFF" cx="254.304513" cy="100.069298" rx="49" ry="52.5"></ellipse>
                <ellipse id="Oval-78" fill="#FFFFFF" cx="120.804513" cy="152.569298" rx="103" ry="35"></ellipse>
                <path d="M221.078845,153.607196 C221.568947,157.690366 222.401968,161.030037 221.652401,164.278668 C220.913455,167.486331 221.679713,168.939945 225.165049,168.678962 C227.164907,168.528745 229.19056,168.77759 231.204074,168.798832 C232.322356,168.812488 233.73045,168.882286 234.176548,167.724554 C235.259931,164.923539 238.148952,163.177077 239.025976,159.810093 C232.559061,159.169775 227.026829,156.984801 221.078845,153.607196 M280.982023,170.232721 C282.730001,170.317693 284.534122,169.871594 286.268445,169.47405 C294.178353,167.66386 301.44946,164.999406 307.907271,159.442897 C311.265151,156.555393 312.868982,154.265723 312.45323,150.16738 C312.271149,148.386019 312.381915,146.575829 312.227146,144.789917 C311.881192,140.768958 310.714355,139.187887 306.920998,139.454939 C300.924459,139.879795 294.512168,139.753856 289.283405,142.934207 C282.990984,146.76398 265.465675,158.219918 261.9682,157.043978 C260.532793,156.561462 253.851933,165.315013 251.222378,168.666824 C261.34002,169.026434 271.15571,169.756276 280.982023,170.232721 Z M301.152061,90.2975841 C300.989705,86.9442564 301.126266,83.5454085 300.605817,80.2482225 C299.261452,71.7116518 295.598586,64.3844033 287.90414,59.8490656 C276.546829,53.1545491 264.769214,51.7950099 252.748825,58.1481243 C245.811533,61.8140246 239.35524,66.2583217 232.859495,70.6555812 C226.202912,75.1636067 221.403557,81.2420821 216.813595,87.6437515 C212.932232,93.0606653 210.337575,98.875123 210.12363,105.60909 C209.909685,112.434099 208.110116,119.523124 213.416264,125.457452 C213.81836,125.906585 213.777392,126.736572 213.986785,127.372339 C215.718073,132.588963 218.780071,137.012018 222.614396,140.826617 C229.515271,147.689559 237.616365,151.20069 247.573168,149.047581 C251.739792,148.146279 255.888207,147.270772 259.711911,145.275467 C269.058743,140.395692 277.926094,134.707174 286.769168,129.000447 C289.917654,126.968725 292.519897,124.445384 294.307327,120.726377 C298.962535,111.03966 301.20972,100.988782 301.152061,90.2975841 M29.0940098,168.654685 C40.0552944,167.710898 51.0454084,167.592545 62.0188317,167.885392 C86.203759,168.530263 110.391721,167.776143 134.594856,168.968775 C154.90449,169.970221 175.30213,168.197965 195.667905,168.704757 C197.682936,168.754829 199.70252,168.924772 201.709964,168.830697 C209.067559,168.481708 211.085625,165.39088 210.757879,158.137982 C210.14639,144.636665 201.515744,135.73745 193.696877,126.270748 C192.619563,124.965833 191.01118,124.821685 189.495354,124.398347 C181.574825,122.190613 173.511665,122.319587 165.534994,123.480354 C159.949655,124.292133 154.39618,124.601671 148.79415,124.571324 C131.950128,124.477248 115.27453,126.285921 98.6778343,128.973135 C80.0979715,131.980509 61.7775742,135.73745 44.7499531,144.398442 C34.4881636,149.618102 28.0925636,157.91038 22.8000718,167.474192 C25.0973288,169.598472 27.1882272,168.818558 29.0940098,168.654685 Z M313.345428,131.088311 C314.522886,122.278619 315.929462,113.685906 316.519709,104.96422 C317.062918,96.9405109 318.678888,88.9926692 316.971877,80.8855065 C316.317902,77.7704017 318.809379,76.6506027 321.493559,76.2394028 C325.138216,75.682538 327.537135,76.811441 328.002959,80.3407805 C328.876949,86.9670166 329.828323,93.5355936 329.398915,100.383362 C328.628105,112.68446 324.909097,124.622913 325.31271,137.024156 C325.350644,138.137886 324.733085,139.404867 325.086626,140.353206 C328.210835,148.76232 326.001584,157.030321 324.933375,165.424262 C323.59963,175.907583 325.22167,196.488015 324.693635,207.024444 C324.626871,208.364257 324.868129,209.737453 324.664805,211.048437 C324.362854,212.99367 324.274848,215.303066 321.604325,215.632329 C319.021807,215.949454 316.767036,215.398659 315.211759,212.955737 C312.987335,209.461296 313.61248,195.540482 313.559373,191.815406 C313.434951,182.964745 313.58972,183.010265 304.676848,181.901088 C301.314416,181.483818 297.986884,181.359396 294.612313,181.712937 C287.898071,182.418502 281.189898,182.539889 274.463518,181.650726 C270.903831,181.18035 267.354767,181.599136 263.757147,182.045235 C255.781993,183.033025 247.759801,184.175585 239.78313,181.400365 C237.314413,180.541548 234.45574,180.559757 231.780664,180.587069 C220.608469,180.6948 209.452964,179.72977 198.262561,181.468645 C188.990079,182.910121 179.543103,183.29856 170.159855,183.943431 C166.358911,184.204414 162.576175,184.295455 158.791922,184.952464 C145.68208,187.229996 132.544926,186.583608 119.286385,186.008535 C106.747063,185.463809 94.2714708,184.175585 81.7367017,183.626306 C69.4780891,183.090684 57.1785081,182.969297 44.9441729,181.186419 C36.3651166,179.936129 27.5478375,180.034756 18.839807,180.054481 C13.0268667,180.068138 12.7309848,180.937575 12.869063,186.99936 C13.0132106,193.279641 13.0496268,199.565993 12.9464475,205.844757 C12.8720977,210.272364 8.52642785,213.396573 4.27179858,212.254013 C2.08530757,211.666802 0.569482087,210.161598 0.824395681,207.890136 C2.47678202,193.161289 -1.73080963,178.468858 0.973095278,163.674766 C3.35684085,150.642308 2.46767796,137.430804 1.88350097,124.228404 C1.44954092,114.406644 2.42064033,104.527225 2.65431113,94.6720834 C2.81211478,87.942668 2.95019298,81.2041485 2.75597309,74.4792851 C2.66644987,71.3399028 4.21565689,69.880219 6.76327549,69.2080362 C9.43228152,68.5039891 12.0056949,70.1715489 12.7749878,73.0302227 C13.5867662,76.0467003 14.4106833,79.0555911 14.4349608,82.2587018 C14.5715217,99.9797486 14.5442095,117.702313 15.3575052,135.41729 C15.6412483,141.623222 13.6504946,147.832189 14.8901637,154.541879 C17.9066412,153.560158 18.950573,150.907843 20.4390864,148.927711 C25.8226187,141.762818 32.7978437,137.224446 40.9444573,133.361291 C57.2164417,125.644085 74.4504215,122.40911 91.908968,119.283384 C111.655668,115.749493 131.563205,115.133451 151.502607,114.570517 C159.122703,114.355055 166.578926,112.280847 174.294614,112.968203 C180.773668,113.544793 187.275482,113.702597 193.464723,116.048409 C194.69984,116.515751 196.036619,116.875361 197.760321,116.348843 C198.306564,111.666323 199.051579,106.824482 199.402086,101.953812 C199.984745,93.860305 203.115024,86.991294 207.789957,80.378714 C218.965187,64.5710365 234.373803,54.8084528 251.926425,47.7179098 C263.220007,43.1552599 274.46807,43.7955786 285.260929,48.5312055 C295.205594,52.8966008 304.089636,58.9371426 308.734223,69.5767505 C310.020929,72.5264649 310.64304,75.5399078 311.175627,78.6231484 C313.812769,93.9225161 313.354532,108.929037 306.972588,123.398418 C306.172948,125.210125 304.954522,126.921688 304.960591,129.628627 C307.866303,130.133903 310.476132,130.587588 313.345428,131.088311 Z" id="Fill-659" fill="#000000"></path>
                <path d="M373.669195,20.8842615 C378.524692,23.7429354 382.940159,23.0146109 387.027881,23.7171406 C386.710756,30.8046489 385.067474,32.6148389 378.981412,32.5329024 C374.461248,32.4722087 370.09737,31.3857912 365.941368,29.7182315 C361.647288,27.99453 361.072215,26.1706839 363.146422,21.864465 C364.504444,19.045242 366.085515,16.3337504 367.507266,13.543357 C367.906327,12.7619254 368.171862,11.8803492 367.698451,10.8424867 C365.405746,9.7075143 362.971928,11.0458107 360.569974,10.7893797 C358.7962,10.5997119 357.022427,10.7165473 355.407974,9.68171947 C353.70855,8.59378467 352.846699,6.96415848 353.128925,5.1615552 C353.370183,3.61386552 354.802554,2.09045333 356.321414,2.08134927 C361.700395,2.04796773 366.926123,0.251433829 372.321794,0.785538503 C375.40807,1.09052441 376.97852,2.63366206 377.013418,6.01430187 C377.068043,11.2142357 376.737262,16.26547 373.669195,20.8842615" id="Fill-737" fill="#000000"></path>
                <path d="M332.495035,43.6844617 C331.812231,43.6161813 330.416276,43.7072219 329.178124,43.3066434 C325.663958,42.1686363 324.853697,38.2311316 327.812515,36.0142938 C332.384269,32.5881337 337.732903,32.1101707 343.161955,33.1267904 C345.172434,33.5046087 346.717089,34.9536711 346.90524,37.3283126 C347.011454,38.6590223 347.41355,39.9806279 347.395342,41.3022335 C347.345269,45.1957352 349.509,45.7905336 352.595276,44.8482637 C355.930395,43.8286093 359.18813,43.9727569 362.470143,44.9908939 C363.919205,45.4400274 364.78409,46.3504331 364.724914,47.8875014 C364.665738,49.4002921 365.031417,51.6398902 363.162051,51.8856997 C356.332491,52.7839666 350.413337,57.5529751 343.16499,56.4953872 C342.504946,56.3982773 341.829728,56.357309 341.186375,56.1949533 C336.948436,55.1282613 336.098724,53.7641701 337.027338,49.4367084 C337.213971,48.5687883 337.622137,47.7524578 337.887672,46.8981938 C338.652412,44.4264424 338.115273,42.9273077 335.139764,43.3096781 C334.475168,43.3961666 333.812089,43.4978286 332.495035,43.6844617" id="Fill-741" fill="#000000"></path>
                <path d="M358.60547,67.8215927 C357.805831,70.328243 358.669199,72.9577982 356.258141,74.7907483 C353.607343,76.8088142 355.324975,77.8421247 357.414356,79.0013746 C359.242754,80.016477 360.948248,78.7843946 362.597599,79.2942218 C364.023902,79.7342512 366.230118,79.4702335 366.615523,81.1332413 C367.060105,83.0496453 366.18915,85.0904714 364.668772,86.5046349 C361.550633,89.4027597 355.249108,89.1690889 350.426993,86.1010217 C346.252783,83.4426371 345.142088,80.4064341 346.721642,75.1594626 C347.231469,73.47066 348.193464,72.2325083 346.541078,70.3904541 C342.655163,66.0538883 345.657984,64.6017912 349.97179,62.2225977 C353.123311,60.4837228 356.795281,62.1012103 358.044054,65.4909541 C358.344488,66.3103192 358.458288,67.1964475 358.60547,67.8215927" id="Fill-747" fill="#000000"></path>
                <path d="M245.151793,80.3706721 C245.217038,77.6971141 245.399119,75.1798423 247.414151,72.9417616 C249.35635,70.7856175 251.439661,70.0375675 253.882583,71.2833059 C255.970447,72.3469633 257.163078,73.9887282 256.141907,76.7700176 C254.931067,80.0656862 255.847542,83.2187246 257.355781,86.4203179 C259.361708,90.6794992 258.688008,94.1253848 256.29971,95.2998081 C252.187711,97.3209088 250.762926,93.6110056 248.775207,91.5550061 C245.816389,88.4990776 245.139654,84.5008793 245.151793,80.3706721" id="Fill-773" fill="#000000"></path>
            </g>
        </g>
    </g>
</svg>