<?xml version="1.0" encoding="UTF-8"?>
<svg width="293px" height="283px" viewBox="0 0 293 283" version="1.1" xmlns="http://www.w3.org/2000/svg" xmlns:xlink="http://www.w3.org/1999/xlink">
    <!-- Generator: Sketch 51 (57462) - http://www.bohemiancoding.com/sketch -->
    <title>blushing_0001</title>
    <desc>Created with Sketch.</desc>
    <defs></defs>
    <g id="ALL" stroke="none" stroke-width="1" fill="none" fill-rule="evenodd">
        <g id="blushing_0001_DL" transform="translate(-265.000000, -288.000000)" fill="#2C2C2C">
            <g id="blushing_0001" transform="translate(265.000000, 288.000000)">
                <g id="Group-19" transform="translate(0.000000, 102.000000)">
                    <path d="M288.021902,78.0008979 C284.930378,81.5417489 281.838855,85.0938766 278.754117,88.6347277 C275.732702,92.1056638 272.729378,95.5946426 269.646902,99.0114511 C268.710625,100.042132 268.622425,101.602813 269.646902,102.624472 C270.592225,103.567196 272.333609,103.655153 273.269886,102.624472 C276.343317,99.1963872 279.337594,95.7006426 282.340917,92.2206851 C285.416609,88.6617915 288.508132,85.1096638 291.590609,81.5597915 C292.049702,81.0410681 292.332394,80.4862596 292.332394,79.7803447 C292.332394,79.1105149 292.067794,78.4677489 291.590609,78.0008979 C291.117948,77.5250255 290.423655,77.2634085 289.742932,77.2634085 C289.096132,77.2634085 288.458378,77.4957064 288.021902,78.0008979" id="Fill-1"></path>
                    <path d="M284.678217,60.2357489 C282.461909,63.0097915 280.261432,65.8041319 278.060955,68.6052383 C276.620355,70.4365574 275.172971,72.2611106 273.768555,74.1194936 C270.615971,78.2986 267.467909,82.4664298 264.315325,86.6365149 C261.524586,90.2111957 258.72254,93.7723447 255.631017,97.1057064 C254.667602,98.1454085 254.597494,99.7489404 255.631017,100.779621 C256.612525,101.765196 258.351648,101.817068 259.324109,100.779621 C262.947094,96.9365574 266.224063,92.7800043 269.385694,88.5603021 C272.531494,84.3654085 275.668248,80.1637489 278.80274,75.9711106 C278.723586,76.0748553 278.642171,76.1763447 278.560755,76.2800894 C281.792494,72.1303021 285.033278,67.9805149 288.317032,63.8555362 C288.760294,63.3007277 289.067863,62.7910255 289.067863,62.0512809 C289.067863,61.3724298 288.794217,60.7116213 288.317032,60.2357489 C287.833063,59.7508553 287.177217,59.4779617 286.498755,59.4779617 C285.879094,59.4779617 285.076248,59.7328128 284.678217,60.2357489" id="Fill-3"></path>
                    <path d="M271.177511,54.1481915 C266.654434,59.3985745 262.113265,64.6309149 257.732665,69.9963191 C253.951372,74.6219787 250.285418,79.3265745 246.601372,84.0221489 C244.303649,86.9653404 242.008188,89.9062766 239.683326,92.8224043 C239.224234,93.3952553 238.905357,93.9252553 238.905357,94.6920638 C238.905357,95.3867021 239.188049,96.0655532 239.683326,96.5684894 C240.178603,97.0601489 240.859326,97.3420638 241.55588,97.3420638 C242.193634,97.3420638 243.023618,97.0781915 243.43748,96.5684894 C247.254957,91.809766 250.981972,86.9743617 254.736126,82.163766 C258.191757,77.7320638 261.645126,73.2823191 265.292988,69.0017234 C268.484018,65.2669149 271.663742,61.5388723 274.861557,57.8221064 C275.320649,57.2763191 275.621434,56.7124894 275.621434,55.9795106 C275.621434,55.2938936 275.347788,54.6330851 274.861557,54.1481915 C274.373065,53.6587872 273.653895,53.3858936 272.941511,53.3858936 C272.276618,53.3858936 271.620772,53.6249574 271.177511,54.1481915" id="Fill-5"></path>
                    <path d="M263.781149,42.8452085 C262.270442,44.0878894 260.76878,45.3463574 259.276165,46.6161021 C257.09378,48.4474213 255.044826,50.4298468 253.084072,52.5002298 C249.585472,56.1921872 246.430626,60.1998894 243.241857,64.1557191 C239.788488,68.4543574 236.359995,72.7800596 232.834257,77.0178043 C231.262488,78.9122723 229.681672,80.7977191 228.073718,82.6561021 C227.596534,83.2109106 227.295749,83.792783 227.295749,84.5415489 C227.295749,85.2474638 227.578442,85.9263149 228.073718,86.4269957 C229.04618,87.396783 230.900642,87.5275915 231.855011,86.4269957 C235.943872,81.6885702 239.885734,76.8170809 243.780103,71.9095064 C245.62778,69.5910383 247.473195,67.2658043 249.327657,64.9495915 C250.680057,63.2490809 252.06638,61.575634 253.470795,59.9089532 C254.762134,58.3866128 256.087395,56.8958468 257.455626,55.4524426 C258.154442,54.7217191 258.860042,54.0158043 259.576949,53.321166 C260.291595,52.6152511 261.015288,51.8935489 261.775165,51.2417617 C263.656765,49.6472511 265.529318,48.0527404 267.429011,46.4830383 C268.516811,45.5854213 268.356242,43.7608681 267.429011,42.8452085 C266.951826,42.3603149 266.289195,42.0874213 265.610734,42.0874213 C264.866688,42.0874213 264.328442,42.3873787 263.781149,42.8452085" id="Fill-7"></path>
                    <path d="M236.461538,46.5960298 C233.360969,50.5699021 230.251354,54.5257319 227.017354,58.384583 C226.515292,58.9912638 226.178323,59.6002 226.178323,60.4098596 C226.178323,61.1676468 226.488154,61.8983702 227.017354,62.4283702 C227.5556,62.9651362 228.2906,63.2650936 229.050477,63.2650936 C229.747031,63.2650936 230.6132,62.9831787 231.072292,62.4283702 C234.297246,58.5514766 237.388769,54.5866255 240.489338,50.6127532 C240.975569,49.9880298 241.319323,49.4332213 241.319323,48.6055191 C241.319323,47.8567532 241.0208,47.1237745 240.489338,46.5960298 C239.951092,46.0682851 239.2274,45.7683277 238.476569,45.7683277 C237.795846,45.7683277 236.893492,46.0412213 236.461538,46.5960298" id="Fill-9"></path>
                    <path d="M55.5848231,27.8200468 C49.4899769,34.7280894 43.3227615,41.572983 37.2188692,48.4607277 C36.2916385,49.5094511 36.1853462,51.0520894 37.2188692,52.0827702 C38.1551462,53.0164723 39.9214077,53.1314936 40.8395923,52.0827702 C46.9367,45.1657064 53.0586846,38.2960043 59.1444846,31.3699191 C60.0468385,30.3482596 60.1599154,28.8326851 59.1444846,27.8200468 C58.6673,27.3464298 57.9797923,27.0848128 57.3013308,27.0848128 C56.6590538,27.0848128 56.0235615,27.3171106 55.5848231,27.8200468" id="Fill-11"></path>
                    <path d="M56.0253708,1.34868936 C53.4110323,4.46779574 50.8396631,7.60268936 48.2863862,10.7578809 C47.0312323,12.3163064 45.77834,13.867966 44.5231862,15.4173702 C43.9216169,16.1571149 43.3042169,16.8900936 42.7297862,17.6546468 C39.3374785,22.2622638 35.9180323,26.8540936 32.5800015,31.4955404 C30.2121708,34.7725191 27.8624323,38.0585191 25.4493708,41.3016681 C23.1018938,44.4478383 20.7363246,47.5782213 18.3458785,50.699583 C16.2403862,53.3676255 14.1326323,56.0198809 11.9072785,58.5954553 C11.43914,59.1412426 11.1293092,59.7231149 11.1293092,60.4628596 C11.1293092,61.1597532 11.4120015,61.8273277 11.9072785,62.3212426 C12.87974,63.2910298 14.6912323,63.4060511 15.6456015,62.3212426 C19.7073246,57.7226468 23.4976631,52.8601787 27.1455246,47.9255404 C28.8348938,45.6363915 30.5649708,43.3630298 32.2272015,41.046817 C34.3032938,38.1216681 36.3861708,35.1965191 38.4713092,32.2803915 C41.2937092,28.3155404 44.1997862,24.3980511 47.0809862,20.4737957 C48.8155862,18.3267319 50.5434015,16.1729021 52.2712169,14.016817 C54.7182015,10.9856681 57.1832785,7.98158298 59.6822785,4.99554043 C60.1413708,4.44975319 60.4421554,3.90396596 60.4421554,3.17324255 C60.4421554,2.49439149 60.1685092,1.83358298 59.6822785,1.34868936 C59.2005708,0.870561702 58.47914,0.597668085 57.7712785,0.597668085 C57.1109092,0.597668085 56.4641092,0.832221277 56.0253708,1.34868936" id="Fill-13"></path>
                    <path d="M32.8622415,5.80858298 C30.4152569,8.78560426 28.0044569,11.7896894 25.5823492,14.7847532 C23.74598,17.0581149 21.9955492,19.4104128 20.2202415,21.7356468 C16.7578262,26.2485404 13.4808569,30.8899872 10.2016262,35.5246681 C8.06447231,38.555817 5.94541077,41.6027532 3.81504154,44.6429234 C2.99410308,45.8224553 3.59567231,47.5590511 4.76036462,48.2288809 C5.37098,48.5897319 6.10371846,48.6867106 6.78444154,48.4927532 C7.49004154,48.307817 7.94913385,47.8657745 8.35621077,47.2951787 C11.7304262,42.484583 15.04358,37.6379021 18.4720723,32.8724128 C20.0800262,30.6261149 21.6427492,28.3527532 23.3117646,26.1515617 C25.1481338,23.7406255 26.9845031,21.3364553 28.8118262,18.9187532 C31.3628415,15.7500298 33.8980262,12.5722851 36.4852262,9.42160426 C36.9352723,8.8735617 37.2360569,8.34581702 37.2360569,7.61509362 C37.2360569,6.94526383 36.9601492,6.28445532 36.4852262,5.80858298 C36.0080415,5.33271064 35.3544569,5.05981702 34.6737338,5.05981702 C34.0540723,5.05981702 33.2693185,5.31466809 32.8622415,5.80858298" id="Fill-15"></path>
                    <path d="M6.60849385,18.8680085 C6.61075538,18.8657532 6.61301692,18.8612426 6.61754,18.8567319 C6.64015538,18.8251574 6.66277077,18.7958383 6.68764769,18.7642638 C6.66050923,18.7980936 6.63563231,18.8341787 6.60849385,18.8680085 M15.7473708,7.60268936 C15.0576015,7.78762553 14.64374,8.20937021 14.2276169,8.76643404 C11.7354015,12.108817 9.22283231,15.4534553 6.68764769,18.7642638 C6.77810923,18.6469872 6.87083231,18.531966 6.96581692,18.412434 C6.84821692,18.5612851 6.73287846,18.7078809 6.61754,18.8567319 C6.59718615,18.8815404 6.57909385,18.9086043 6.56100154,18.9311574 C6.57457077,18.9108596 6.59266308,18.8905617 6.60849385,18.8680085 C4.93043231,21.0037957 3.23880154,23.1260511 1.51550923,25.2212426 C1.06546308,25.7692851 0.764678462,26.3060511 0.764678462,27.0367745 C0.764678462,27.7156255 1.03832462,28.3674128 1.51550923,28.8523064 C2.00174,29.3281787 2.65532462,29.6010723 3.33604769,29.6010723 C3.96249385,29.6010723 4.74046308,29.3462213 5.15432462,28.8523064 C9.83797077,23.1598809 14.2276169,17.2396681 18.6263092,11.3374979 C19.0152938,10.8187745 19.0514785,9.97302979 18.8841246,9.37311489 C18.7077246,8.73937021 18.2825554,8.1845617 17.7171708,7.85754043 C17.3236631,7.62975319 16.8758785,7.51022128 16.4235708,7.51022128 C16.1974169,7.51022128 15.9690015,7.54179574 15.7473708,7.60268936" id="Fill-17"></path>
                </g>
                <g id="Group-39" transform="translate(28.000000, 0.000000)">
                    <path d="M166.14149,249.19969 C165.976237,249.267548 165.810985,249.337667 165.645732,249.407786 C165.810985,249.335405 165.973974,249.265286 166.14149,249.19969 M27.607622,220.65219 C28.1033802,221.029929 28.594611,221.409929 29.0881055,221.79219 C28.5583912,221.448381 28.0648967,221.068381 27.607622,220.65219 M4.02854505,180.731833 C2.71105055,187.16469 1.39355604,193.597548 0.906852747,200.161595 C0.703116484,202.988976 0.49938022,205.861595 0.632940659,208.698024 C0.764237363,211.401 1.08342418,214.042905 1.46373187,216.721 C1.96854505,220.308381 3.62107253,223.805286 5.12419341,227.048857 C6.06138022,229.064214 7.37887473,230.900881 8.69636923,232.676476 C11.0234901,235.813738 13.7988308,238.686357 17.4502374,240.231238 C19.7139736,241.185762 21.6064571,241.8485 24.0128088,242.237548 C26.3105011,242.6085 28.4610505,242.766833 30.7768527,242.723857 C32.2097978,242.705762 33.6517978,242.511238 35.0756879,242.352905 C40.2619077,241.801 45.4073802,241.554452 50.5800176,242.043024 C53.1289846,242.490881 55.5964571,243.060881 58.0503473,243.893262 C60.6038418,245.126 63.0373582,246.512548 65.3780615,248.116238 C67.7368747,250.14969 69.8149846,252.463619 71.8772484,254.802429 C74.0617538,257.27469 76.2824791,259.713024 78.5552703,262.108381 C80.7918418,264.476595 83.2140396,266.659333 85.6543473,268.805881 C88.377622,271.217071 91.2887868,273.408857 94.4625451,275.166357 C96.7443912,276.430762 99.3341055,277.491595 101.749512,278.418976 C106.815754,280.371 111.90916,281.961119 117.382875,282.368262 C121.953358,282.705286 126.376699,282.218976 130.904171,281.511 C135.413534,280.805286 139.959116,278.905286 143.689754,276.306357 C146.854457,274.08969 149.702237,271.438738 152.108589,268.407786 C154.141424,265.854095 155.63549,263.221238 157.086545,260.323738 C158.424413,257.6185 159.839248,255.019571 161.518941,252.531476 C162.175424,251.81219 162.840963,251.149452 163.556303,250.509333 C163.816633,250.348738 164.076963,250.194929 164.344084,250.047905 C165.987556,249.568381 167.646875,249.24719 169.333358,248.968976 C170.175468,248.869452 171.015314,248.774452 171.852897,248.679452 C174.277358,248.4035 176.64749,248.05969 179.008567,247.467071 C181.756743,246.779452 184.400787,245.444929 186.9656,244.268738 C190.820743,242.493143 194.368018,239.744929 197.4716,236.874571 C199.108281,235.363619 200.602347,233.816476 202.051138,232.111 C204.059073,229.742786 205.367512,227.304452 205.367512,224.106119 C205.367512,221.111357 204.165468,218.213857 202.051138,216.101238 C197.870018,211.9235 190.132567,211.489214 186.019358,216.101238 C184.029534,218.326952 181.940105,220.405643 179.680897,222.353143 C178.094018,223.452429 176.455073,224.40469 174.718787,225.284571 C172.932699,225.920167 171.142084,226.395167 169.229226,226.696 C167.010765,226.990048 164.794567,227.299929 162.587424,227.6935 C160.880567,227.994333 159.243886,228.435405 157.625314,229.018976 C153.346853,230.557071 149.738457,233.153738 146.564699,236.361119 C141.466765,241.513738 139.359226,248.315286 135.569732,254.246 C134.446919,255.499095 133.247138,256.659452 131.972655,257.751952 C131.365974,258.141 130.759292,258.498381 130.132237,258.828619 C128.429908,259.378262 126.720787,259.796714 124.968655,260.120167 C122.809051,260.28981 120.678875,260.332786 118.514743,260.215167 C115.110084,259.536595 111.895578,258.459929 108.656171,257.236238 C106.469402,256.220643 104.361864,255.132667 102.342611,253.784571 C97.5683912,249.83981 93.3012484,245.372548 89.192567,240.735643 C87.175578,238.46469 85.1517978,236.211833 83.055578,234.020048 C80.8257978,231.688024 78.0595121,229.769929 75.3611385,228.003381 C73.9123473,227.057905 72.4182813,226.20969 70.8698857,225.422548 C67.5806769,223.753262 64.0967868,222.190286 60.4793363,221.376 C56.5359077,220.500643 52.5132484,219.944214 48.4973802,219.548381 C44.6784571,219.177429 40.8844352,219.521238 37.0904132,219.865048 C34.0683253,220.143262 31.0507648,220.412429 28.0286769,220.324214 C27.693644,220.251833 27.358611,220.170405 27.0258418,220.079929 C25.9301934,218.494333 24.9499956,216.870286 24.1010945,215.137667 C23.6257099,213.755643 23.2431385,212.366833 22.955644,210.935048 C22.5685451,206.053857 22.7994462,201.165881 23.2227648,196.289214 C23.7298418,193.013976 24.3410505,189.765881 24.9930066,186.511 C25.5770505,183.568262 25.4548088,180.795167 23.8973582,178.135167 C22.4734681,175.705881 20.1123912,173.894095 17.3981714,173.143143 C16.517578,172.903381 15.6030286,172.785762 14.6816879,172.785762 C9.92784176,172.785762 5.02006154,175.868738 4.02854505,180.731833" id="Fill-33"></path>
                    <path d="M59.6650703,6.66129762 C58.9746308,8.02296429 58.3385209,9.36427381 58.037444,10.8503452 C57.736367,12.3612976 57.6141253,13.942369 57.4534,15.4782024 C57.3221033,16.8036786 57.2338176,18.1201071 57.1093121,19.4455833 C56.8965209,21.9020119 56.6769385,24.3674881 56.4550923,26.8329643 C55.9548066,32.3542738 55.3413341,37.8620119 54.6531582,43.3607024 C54.1732462,46.8553452 53.6910703,50.3454643 53.1930484,53.842369 C53.041378,54.9733214 52.8919714,56.1042738 52.7403011,57.2442738 C52.7403011,59.5514167 53.3243451,61.7070119 54.483378,63.7042738 C56.1630703,66.5565357 58.9406747,68.6962976 62.1415978,69.5784405 C65.4489165,70.4899881 69.0482571,70.0217738 72.0092242,68.2891548 C74.5830923,66.78725 77.4399275,63.7291548 77.890411,60.6461786 C79.2350703,51.5284405 80.7381912,42.41975 81.9040154,33.2839167 C82.3205429,29.9883214 82.7189604,26.6995119 83.0268286,23.4039167 C83.3460154,20.04725 83.9391143,16.5933214 83.8757297,13.2162976 C83.7625429,7.42129762 79.993422,2.25284524 74.3340813,0.696654762 C73.2610703,0.400345238 72.1314659,0.255583333 70.9905429,0.255583333 C66.4517516,0.255583333 61.7431802,2.54463095 59.6650703,6.66129762" id="Fill-35"></path>
                    <path d="M168.978857,23.3030357 C168.942637,23.5722024 168.906418,23.8391071 168.872462,24.1060119 C168.890571,23.8345833 168.926791,23.5676786 168.978857,23.3030357 M146.189824,12.9118452 C143.810637,16.6417262 143.670286,21.1383929 143.378264,25.4156548 C143.201692,28.0394643 143.059077,30.6632738 142.882505,33.2870833 C142.531626,38.4985119 141.992857,43.6941071 141.424659,48.8874405 C140.523692,55.2660119 139.502747,61.6151786 138.321077,67.9575595 C137.691758,71.3164881 137.780044,74.4085119 139.557077,77.4394643 C141.175648,80.1944643 143.846857,82.2460119 146.923275,83.0942262 C150.099297,83.9673214 153.565077,83.5172024 156.412857,81.8569643 C158.984462,80.3550595 161.497209,77.518631 162.072198,74.4967262 C163.831121,65.3518452 165.379516,56.1979167 166.697011,46.973869 C167.342176,42.4319643 167.951121,37.8629167 168.376703,33.2870833 C168.716264,29.7064881 168.908681,26.1191071 169.178066,22.5430357 C170.658549,17.1325595 168.227297,11.2335119 163.389692,8.40613095 C161.408923,7.25029762 159.283275,6.71422619 157.191582,6.71422619 C152.858791,6.71422619 148.666352,9.02136905 146.189824,12.9118452" id="Fill-37"></path>
                </g>
            </g>
        </g>
    </g>
</svg>