<?xml version="1.0" encoding="UTF-8" standalone="no"?>
<svg width="243px" height="178px" viewBox="0 0 243 178" version="1.1" xmlns="http://www.w3.org/2000/svg" xmlns:xlink="http://www.w3.org/1999/xlink">
    <!-- Generator: Sketch 49.1 (51147) - http://www.bohemiancoding.com/sketch -->
    <title>speechbubble_0003</title>
    <desc>Created with Sketch.</desc>
    <defs></defs>
    <g id="Page-1-Copy" stroke="none" stroke-width="1" fill="none" fill-rule="evenodd">
        <g id="Artboard" transform="translate(-10484.000000, -7599.000000)">
            <g id="speechbubble_0003" transform="translate(10484.000000, 7599.000000)">
                <g id="Group-98" transform="translate(0.000000, 2.000000)" fill="#FFFFFF">
                    <ellipse id="Oval-144" cx="119.5" cy="77" rx="119.5" ry="77"></ellipse>
                    <polygon id="Path-113" points="40 125 30 169 64 136"></polygon>
                </g>
                <path d="M46.4222661,155.647144 C49.986874,151.97994 53.3606058,148.121861 57.1757383,144.70041 C58.0943287,143.877257 58.5428871,142.774949 59.0439364,141.682184 C60.1104556,139.351112 62.5990004,138.940729 64.1236218,141.009347 C65.2211583,142.500565 66.5978509,143.275998 68.22984,143.851012 C73.7938731,145.814648 79.4461863,147.451409 85.2440424,148.570419 C86.1650187,148.749365 87.1003107,148.904452 87.9950416,149.181222 C93.9098091,151.023175 99.9915931,151.872573 106.156885,152.061062 C120.658683,152.507235 135.162867,153.898243 149.664665,151.922677 C153.064643,151.457417 156.350095,150.538827 159.647476,149.682271 C166.423571,147.926213 173.027878,145.604684 179.541519,143.066035 C182.714831,141.827727 185.747372,140.214826 188.808545,138.70452 C195.083591,135.607558 201.578144,132.937681 207.397473,128.967462 C211.766146,125.987412 216.404431,123.389113 220.283984,119.724296 C226.82387,113.544688 232.006151,106.417858 235.375111,98.0336333 C236.236439,95.895823 237.162187,93.7842581 237.942393,91.6154305 C239.741398,86.6144814 239.495645,81.5514976 238.118953,76.5099873 C235.954897,68.5934085 232.392675,61.3401236 227.229482,54.95771 C219.780549,45.7503328 211.315202,37.6524219 201.322847,31.143553 C188.216829,22.6042415 174.080082,16.2886345 159.466144,10.9154774 C157.943908,10.3571653 156.462234,9.68909958 154.949542,9.10931398 C147.770222,6.36308668 140.266412,5.40870707 132.648077,4.90288589 C122.500636,4.22289042 112.346037,3.90317325 102.179508,3.89601541 C93.1152881,3.89124351 84.3564693,5.3466724 75.8791925,8.67984316 C69.9238638,11.0204591 63.7824311,12.9697795 58.218398,16.1526354 C49.0324944,21.4088811 39.5769785,26.2428138 30.9851761,32.4725266 C26.2061203,35.9393105 21.8541493,39.9166875 18.8359238,45.134758 C17.2874429,47.8070208 16.204222,50.6677737 15.1377028,53.5452282 C13.8302028,57.0692749 12.6324564,60.6458124 11.0815895,64.0577195 C8.20413503,70.397186 7.18056291,77.0993167 6.63656654,83.9374466 C6.44330467,86.3639567 6.99684484,88.7236603 7.64582297,90.9950837 C8.72188597,94.7553394 9.44482851,98.6802255 11.4060786,102.120764 C14.8370733,108.130969 18.5758553,113.933597 23.3382096,119.025213 C27.4301121,123.401043 32.2401853,126.991896 36.4418415,131.243657 C37.1337667,131.945126 38.0308835,132.219511 38.8277905,132.699086 C39.5936801,133.16196 40.2283425,133.658238 39.9849757,134.731915 C39.7201354,135.891486 39.1475076,136.798147 38.0261116,137.237161 C37.6228862,137.39702 37.1528543,137.20853 36.8784701,136.845866 C31.3979453,129.688019 23.5362433,124.818297 18.1774019,117.598415 C14.2262703,112.272977 10.0985785,106.971398 7.77705016,100.629546 C6.51726909,97.1842354 5.26703181,93.7126796 4.55363306,90.1146685 C3.27237845,83.6511327 3.57062207,77.2138423 5.38155736,70.8552882 C6.48147985,66.9852789 8.19220529,63.3490926 9.5999152,59.5959949 C10.9217309,56.0838779 12.3437566,52.6099362 13.6059236,49.0739598 C15.970399,42.4529513 20.1267222,37.1394429 25.4545463,32.6824901 C31.1116314,27.9511532 37.3914492,24.1622662 43.8120379,20.5785708 C46.7920882,18.9155644 49.6957882,17.1117869 52.6376633,15.377202 C59.063024,11.588315 65.9631885,8.85878933 72.9253877,6.25571897 C75.8052281,5.17965597 78.7256297,4.24436396 81.6436453,3.28759841 C87.1360999,1.48382097 92.8337461,0.717931337 98.5337783,0.617721479 C111.34871,0.395828221 124.156485,0.85393043 136.933242,1.9920281 C143.866809,2.6099889 150.549852,4.12029461 157.073037,6.62554107 C165.846172,9.99450106 174.581131,13.4302676 183.048864,17.5078545 C195.255379,23.3868328 206.948915,30.1438404 216.783797,39.565953 C224.30908,46.771519 231.509874,54.351679 236.155317,63.9074047 C238.586599,68.9155117 240.829391,74.0405301 241.728894,79.5329847 C242.721448,85.602839 242.079628,91.6130445 239.352488,97.2725155 C237.393624,101.342945 235.826056,105.609021 233.349441,109.41461 C229.27424,115.677726 224.652657,121.551933 218.51361,125.849027 C210.969239,131.129132 203.112309,135.946363 194.613559,139.651742 C190.397587,141.491308 186.312842,143.638663 182.09687,145.499703 C179.906569,146.468398 177.728198,147.41562 175.440072,148.148106 C170.403334,149.756236 165.459648,151.633978 160.348945,153.044073 C154.961472,154.53052 149.464246,155.181884 143.940774,155.71395 C131.560084,156.904539 119.188939,155.909598 106.817793,155.434794 C98.3071131,155.110305 90.0827469,153.201546 81.8726964,151.14963 C76.4064873,149.784867 70.9378921,148.439192 65.6506292,146.451696 C65.330912,146.332399 64.9730196,146.27275 64.6962496,146.089032 C63.1549265,145.07739 61.9858115,145.399493 60.6472941,146.685519 C55.7274673,151.41447 50.7265181,156.050369 46.1192506,161.091879 C42.4806784,165.0788 38.0165678,168.147131 34.0916817,171.823878 C32.7794098,173.050256 31.4027172,174.159722 30.7370374,175.934868 C30.2789352,177.156474 29.2148019,177.466647 27.9884242,177.208965 C26.7405728,176.948897 26.0534195,176.183007 26.0104724,174.899366 C25.9937708,174.391159 25.8792452,173.773198 26.1082963,173.389061 C28.0265993,170.199047 27.9454771,166.51037 28.7662435,163.055515 C30.0641998,157.582148 31.2118413,152.072992 32.4453769,146.582924 C32.8032692,144.981952 33.0609517,143.414383 32.4310612,141.801482 C32.0731688,140.899593 32.1805366,139.959529 32.7126032,139.09343 C33.5118961,137.78593 34.8862027,137.380318 36.2438077,138.077015 C37.5107466,138.725994 38.3076536,140.343667 37.7421837,141.512782 C33.9342091,149.391186 33.5262118,158.133303 31.3693139,166.429247 C31.2428586,166.913595 31.2786478,167.445662 31.2571743,167.953869 C31.2404726,168.280744 31.1044736,168.629092 31.6198385,169.089581 C36.7973479,164.785329 41.7815953,160.419042 46.4222661,155.647144 Z" fill="#000000"></path>
            </g>
        </g>
    </g>
</svg>