<?xml version="1.0" encoding="UTF-8" standalone="no"?>
<svg width="347px" height="231px" viewBox="0 0 347 231" version="1.1" xmlns="http://www.w3.org/2000/svg" xmlns:xlink="http://www.w3.org/1999/xlink">
    <!-- Generator: Sketch 49.1 (51147) - http://www.bohemiancoding.com/sketch -->
    <title>speechbubble_0001</title>
    <desc>Created with Sketch.</desc>
    <defs></defs>
    <g id="Page-1-Copy" stroke="none" stroke-width="1" fill="none" fill-rule="evenodd">
        <g id="Artboard" transform="translate(-10434.000000, -6905.000000)">
            <g id="speechbubble_0001" transform="translate(10433.469354, 6905.120163)">
                <rect id="Rectangle-49" fill="#FFFFFF" x="17.0504517" y="7.32202747" width="327" height="191"></rect>
                <path d="M74.4033958,224.333844 C75.2480217,222.196034 75.9614205,220.301591 76.7416258,218.431007 C78.557333,214.095737 81.0148605,210.113588 83.5224929,206.152913 C84.9922375,203.833771 86.1494227,201.349998 86.1088616,198.494017 C86.0921599,197.38455 86.5932092,196.54231 87.4187476,195.83607 C88.3707412,195.024847 89.3418225,194.68127 90.3749384,195.64758 C91.3221602,196.527995 92.4387843,196.64252 93.6818637,196.683081 C101.708196,196.95508 109.734529,196.680695 117.741773,196.341891 C128.426053,195.88856 139.105561,196.446872 149.782683,196.062735 C154.731141,195.883789 159.677213,195.616562 164.623285,195.377967 C171.358819,195.055864 178.094353,194.776708 184.825116,194.390184 C197.618574,193.657698 210.438278,193.648154 223.224579,192.660371 C232.923462,191.908797 242.655748,191.422064 252.397577,191.214486 C264.780653,190.949646 277.158956,190.462912 289.506242,189.405937 C291.808683,189.210289 294.11351,189.18643 296.420722,189.226991 C303.941234,189.372534 311.447429,188.761731 318.963168,188.682994 C323.577594,188.632889 328.180089,188.640047 332.74441,189.456042 C334.519556,189.770987 336.320947,189.825864 338.110409,189.687479 C339.176928,189.601585 340.260149,189.238921 339.988151,187.819281 C339.009912,182.775385 340.30071,177.798295 340.350815,172.787802 C340.431938,164.327227 340.491586,155.864266 340.465341,147.401305 C340.448639,142.283444 340.944917,137.177513 340.575095,132.052495 C340.362745,129.077216 340.016782,126.128183 339.604013,123.174379 C339.267594,120.733553 339.172157,118.230692 339.248507,115.766007 C339.441769,109.531522 339.806819,103.301809 340.074045,97.0697106 C340.145624,95.3637571 340.207658,93.6458738 340.093133,91.9470781 C339.728083,86.4570094 340.090747,81.0576068 341.407791,75.6916075 C342.820273,69.9319267 343.03978,64.0434045 342.63894,58.1381807 C342.555432,56.9285046 342.677116,55.7474598 342.822659,54.5616432 C343.023078,52.9439698 343.149534,51.3668575 342.6628,49.7420262 C342.271504,48.4297542 342.448065,47.0196584 342.641326,45.6668253 C343.311778,40.9688917 343.485952,36.3210631 341.660701,31.7996897 C341.345756,31.0170984 341.045126,30.1867882 341.183512,29.3087589 C342.02098,24.0143381 341.09046,18.734233 341.037969,13.4493559 C341.023653,12.0607336 341.214529,10.7460757 341.372002,9.40040047 C341.670245,6.81403175 341.083302,6.13403629 338.516021,6.14358009 C337.153644,6.14835198 335.760249,6.15073793 334.433662,6.41557827 C328.122827,7.6729734 321.70701,7.95212943 315.32221,8.28616229 C305.513574,8.80152727 295.688236,9.06398166 285.86767,9.26917328 C275.35995,9.48868059 264.883248,10.2593421 254.392231,10.7460757 C244.407034,11.2113358 234.41468,11.7672619 224.424711,11.8054371 C211.449921,11.8579279 198.47513,12.182417 185.497953,11.7648759 C178.583473,11.5429827 171.661835,11.6598942 164.740197,11.7982792 C159.025849,11.9128048 153.304343,11.7672619 147.58761,11.5907017 C137.354274,11.2757564 127.120939,10.9512673 116.870902,11.1850903 C105.007964,11.4523166 93.1426392,11.6288768 81.270157,11.3783522 C67.7752295,11.0944243 54.27553,11.1970201 40.7806024,11.7672619 C30.8884579,12.184803 20.9796117,12.3637491 11.0898531,11.3449489 C8.76593874,11.106354 6.40146328,10.6363221 4.02505807,11.6026314 C2.73664561,12.1299261 1.02353423,10.5050949 0.868447545,8.96615775 C0.727676554,7.56560569 1.77749411,6.4561394 3.37130805,6.3583155 C3.78884912,6.33207006 4.3328455,6.26764943 4.61677343,6.48238484 C7.08861659,8.35535481 10.0042463,7.75409566 12.7504736,7.97360297 C15.9786626,8.23128546 19.2163954,8.35774076 22.4565141,8.45556467 C32.9690054,8.76096614 43.4647951,8.05711118 53.9725145,7.96405917 C65.0027567,7.86623526 76.0258411,7.9115683 87.0513114,8.03563764 C94.650559,8.12391776 102.25935,8.04756739 109.858598,7.85430552 C122.339497,7.5369743 134.808467,7.64672796 147.277436,8.17402269 C154.626159,8.48419606 161.977268,8.36251266 169.323605,8.20026812 C179.66908,7.97121702 190.002625,8.55816048 200.343328,8.5104415 C206.921389,8.48181011 213.497065,8.13823345 220.07274,8.17163674 C234.185629,8.2479871 248.265114,7.48686937 262.339827,6.64701532 C274.45329,5.92407278 286.592998,5.8715819 298.692146,5.06035924 C306.198341,4.55453805 313.735554,4.9028866 321.213118,4.01054168 C325.963543,3.44268581 330.733055,2.99174145 335.390427,1.86795947 C337.272941,1.41224321 339.322471,1.69617115 341.061828,0.517512339 C341.522316,0.204953019 342.226171,0.522284237 342.782097,0.763265086 C345.055907,1.75104797 346.912175,5.12477986 345.881445,7.33655459 C344.884118,9.48152274 344.931837,11.621719 344.891276,13.7953185 C344.841171,16.5988086 344.991486,19.4571755 344.805382,22.2010169 C344.499981,26.7295481 345.07738,31.0027827 346.337161,35.2712455 C346.556669,36.0180475 346.556669,36.7791653 346.501792,37.5569846 C346.427827,38.5781708 346.256039,39.647076 346.470775,40.6229291 C347.611258,45.8314558 346.494634,50.968404 346.148671,56.1315976 C346.055619,57.4939745 346.01983,58.873053 346.122426,60.233044 C346.539967,65.8424101 345.66671,71.3253209 344.304333,76.7104078 C343.390514,80.3131908 342.877535,83.904044 343.042166,87.602265 C343.330866,94.1898702 342.844132,100.746458 342.352627,107.307818 C341.83249,114.236614 342.221399,121.132006 343.297462,127.993996 C343.710232,130.625697 343.569461,133.281259 343.59332,135.92489 C343.621951,139.258061 343.574232,142.593618 343.433461,145.924402 C343.11613,153.361405 343.753179,160.793637 343.500268,168.225868 C343.373813,171.888299 343.082727,175.548345 342.753466,179.198847 C342.393188,183.149979 342.946728,186.826726 345.222923,190.198072 C346.50895,192.104445 346.172531,193.922538 344.562015,195.492493 C343.495496,196.527995 342.720063,196.680695 341.45551,195.733474 C339.439383,194.220782 337.194205,193.796083 334.741449,193.700645 C332.536832,193.614751 330.346531,193.166193 328.146686,192.918054 C321.334802,192.159322 314.496672,192.397917 307.6657,192.3669 C297.499171,192.319181 287.35173,192.992018 277.209061,193.516927 C263.48031,194.230326 249.734858,194.430746 236.008494,195.115513 C227.994091,195.516352 219.994004,196.17726 211.979601,196.630591 C207.291211,196.893045 202.595664,196.893045 197.892958,196.876343 C192.605695,196.85487 187.311274,197.124482 182.026397,197.391708 C169.500165,198.033529 156.988249,199.033241 144.440543,199.195486 C137.778973,199.28138 131.115018,199.131065 124.453448,199.171626 C114.117517,199.231275 103.803059,200.195198 93.4647424,200.085445 C91.2410379,200.061585 89.7355041,201.013579 89.0340351,202.836444 C87.1706089,207.684692 83.8660695,211.662069 81.365595,216.121408 C79.4735374,219.490368 77.8320045,222.938064 77.7986012,226.929757 C77.7890574,227.876979 77.4979716,228.795569 76.8919406,229.556687 C75.6083,231.169588 74.0884505,231.193448 72.850143,229.683142 C68.8918536,224.863525 65.1602294,219.898365 62.2374418,214.351034 C60.3310686,210.726777 58.6632902,206.990381 56.9501788,203.275459 C56.6304617,202.578761 56.2033768,201.929783 55.9027472,201.225928 C55.3659087,199.961375 54.3471085,199.536676 53.0777836,199.367274 C43.8226874,198.117037 34.5294161,198.410509 25.2385307,198.632402 C24.3461857,198.653875 23.585068,198.878155 22.8716692,199.436467 C21.8433252,200.242917 20.6503507,200.448109 19.5313406,199.710851 C18.4648214,199.006996 18.6747849,197.754373 18.579347,196.675924 C18.5483296,196.351435 18.7153461,196.01263 18.7845386,195.676211 C20.495264,187.349249 21.1346984,178.957866 20.1946345,170.485361 C19.4979374,164.196 19.235483,157.894709 19.2879738,151.564786 C19.3690961,142.507723 19.7341463,133.441117 18.9634848,124.39837 C18.6461536,120.657202 18.1355605,116.932736 17.6512128,113.210656 C17.0451818,108.53181 17.1406197,103.833876 17.1072165,99.1359424 C17.0260942,87.5187567 17.2336717,75.8991851 16.8972529,64.2796135 C16.6228688,54.80501 16.0144518,45.3327924 16.7183068,35.8414873 C16.9306562,32.9855064 17.2265139,30.0698767 15.8856106,27.2735444 C15.210387,25.8682205 16.3938177,23.9833208 17.7943698,23.6492879 C19.8033388,23.1697122 20.9509803,24.0763728 20.9271208,26.1378327 C20.9223489,26.4766375 20.9605241,26.8583893 20.824525,27.1494751 C19.5981472,29.8312818 20.0156883,32.6824908 19.8963908,35.483595 C19.562358,43.5123134 19.5766737,51.5505755 19.9584255,59.5649782 C20.7052275,75.2859962 20.1158981,91.0117861 20.3711947,106.730418 C20.4117558,109.312015 20.7267011,111.857823 21.1633298,114.360683 C22.1224813,119.855524 22.4923033,125.371838 22.4756017,130.935871 C22.4565141,138.885853 22.5352504,146.838221 22.4517422,154.785817 C22.3897075,160.535954 23.1221939,166.202583 23.8069612,171.885913 C24.2268883,175.369399 24.241204,178.893446 23.8212769,182.374545 C23.4490689,185.445262 23.4299813,188.50882 23.5182614,191.579537 C23.585068,193.991731 24.4440096,194.771936 26.85859,194.760007 C33.6871761,194.731375 40.5157621,194.638323 47.3419622,194.640709 C49.7446129,194.643095 52.0876148,194.635937 54.4019853,193.755522 C56.1556578,193.087456 57.1649142,193.748364 57.9331898,195.659509 C59.0116388,198.353246 60.1067894,201.04221 61.1112739,203.764578 C63.2872594,209.669802 66.5703252,214.954679 70.1993536,220.041522 C71.3302935,221.625792 72.6473373,223.054976 74.4033958,224.333844" id="Fill-221" fill="#000000"></path>
            </g>
        </g>
    </g>
</svg>