<?xml version="1.0" encoding="UTF-8" standalone="no"?>
<svg width="195px" height="177px" viewBox="0 0 195 177" version="1.1" xmlns="http://www.w3.org/2000/svg" xmlns:xlink="http://www.w3.org/1999/xlink">
    <!-- Generator: Sketch 49 (51002) - http://www.bohemiancoding.com/sketch -->
    <title>starteyes0001</title>
    <desc>Created with Sketch.</desc>
    <defs>
        <polygon id="path-1" points="0.0568849836 0.690387809 112.368927 0.690387809 112.368927 58.8376829 0.0568849836 58.8376829"></polygon>
    </defs>
    <g id="Page-1" stroke="none" stroke-width="1" fill="none" fill-rule="evenodd">
        <g id="starteyes0001" transform="translate(-1.000000, -1.337260)">
            <path d="M157.488129,39.688213 C156.62054,36.4089802 156.738734,32.5438109 155.151927,29.0131033 C154.742023,28.1052789 155.363166,26.4882952 153.710976,26.4832657 C152.375644,26.4782362 151.922989,27.733096 151.31442,28.7867759 C149.337827,32.1892313 148.133262,35.9261484 146.621898,39.5197248 C145.842326,41.3655506 143.312489,42.4619812 144.152415,44.9742155 C144.964679,47.3959188 143.463373,48.18555 141.610003,48.18555 C138.650144,48.1830352 135.725491,48.2961989 132.735454,47.3506533 C129.554296,46.3447537 126.071369,46.2843997 122.714179,45.8518629 C122.271583,45.7940236 121.663014,45.6607419 121.421598,46.2642817 C121.217903,46.7672315 121.341126,47.3431091 121.758574,47.6373347 C124.265779,49.397659 126.596952,51.7414051 129.393353,52.6668328 C132.476435,53.6853062 134.367526,55.5361614 136.175631,57.9025403 C137.33493,59.4164192 137.309783,60.7165445 136.223411,62.2379677 C134.508352,64.6370382 132.939149,67.1417283 131.261811,69.5659464 C130.683419,70.4008431 130.447032,71.4193164 131.045543,72.0530332 C131.797453,72.8476939 132.531759,72.0656069 133.291214,71.4972736 C135.592209,69.7771853 137.644244,67.795563 139.397024,65.5574364 C140.664458,63.937938 142.082776,63.5431224 144.009074,63.7744793 C146.131522,64.0309837 147.70324,65.1651355 149.101441,66.583454 C153.959936,71.5173916 157.719486,77.2510195 160.958483,83.3316826 C161.363357,84.0936516 161.743084,84.9536958 162.605643,84.7600601 C163.626631,84.5312179 163.39276,83.3694039 163.272052,82.6904216 C162.288785,77.0775018 161.217502,71.4520082 158.250098,66.4778345 C155.823365,62.4140001 157.281919,59.2102098 161.944264,58.7801877 C162.43464,58.7349222 162.945134,58.6720535 163.39276,58.4859621 C168.075222,56.5370316 172.667154,54.3617736 177.525649,52.8504095 C178.134219,52.6618033 178.72267,52.4203874 178.634654,51.6760217 C178.546637,50.9417149 177.905376,50.8059185 177.281719,50.750594 C175.398172,50.5846206 173.602641,50.059038 171.774418,49.6239864 C169.320023,49.0405647 166.790186,47.7731311 164.19245,48.5376149 C161.453888,49.3398198 159.902288,46.9256607 157.704397,46.2944587 C156.701012,46.0077773 156.703527,43.2943631 157.314611,41.5868485 C157.475555,41.1316789 157.415201,40.5935226 157.488129,39.688213 M120.95134,38.5666349 C124.534857,39.0620405 128.171185,39.4317086 131.651597,40.5910079 C133.82434,41.3127408 135.511737,41.2071214 136.38184,38.6320184 C139.462408,29.5437153 144.439096,21.3883842 149.078808,13.0695943 C151.223889,9.22705778 152.715135,8.75679971 156.353977,11.1458113 C159.98276,13.5297934 162.09012,16.3790041 162.356683,21.290309 C162.698689,27.6677125 164.607383,33.9721884 165.965348,40.279179 C166.385311,42.2255948 168.628467,42.7612363 169.921048,42.9523572 C172.493636,43.3320843 174.824809,44.6724456 177.492958,44.5592819 C181.818326,44.3757052 185.975206,45.9524528 190.315663,45.9071874 C191.786791,45.8920989 196.001511,49.9131826 195.983907,51.2711471 C195.946186,53.5922604 193.901695,54.5931306 192.249505,55.2872013 C185.276106,58.2168839 178.197087,60.8950917 171.145731,63.6361681 C168.439861,64.6848185 167.366063,66.3495823 168.439861,68.8844494 C171.422353,75.9182025 172.176778,83.2411517 171.927818,90.7778546 C171.875008,92.3847792 171.651196,94.0369693 172.757685,95.6614972 C173.728378,97.0823304 171.563179,99.8661576 169.845606,99.4964895 C166.133836,98.6942846 162.427096,97.3740413 160.425356,93.9967333 C157.900548,89.741778 154.457856,86.1959818 151.907901,81.9938362 C150.587658,79.8185782 149.088867,77.7514545 147.786227,75.5661376 C146.828108,73.9642425 145.983152,73.9717867 144.514539,75.0757615 C137.624126,80.2611741 130.213161,84.6594701 122.817284,89.07034 C120.101355,90.6923531 113.595699,88.1625156 112.117027,85.5396323 C111.201658,83.9176192 112.461547,82.9947063 112.997189,82.0642491 C115.34345,77.9903557 118.132306,74.1629076 120.393066,70.0462634 C121.788751,67.5063669 123.453515,65.0922078 124.109865,62.074509 C124.549946,60.0451065 124.094776,59.0165741 122.792136,57.6862719 C119.336871,54.158079 115.144784,52.012998 110.500043,50.6097681 C108.372565,49.9659923 107.223325,48.1126223 105.82261,46.6616121 C104.56272,45.3564573 105.779859,42.1350638 107.844468,41.0989872 C109.325655,40.3571362 110.824446,39.4820035 112.657698,39.7359932 C115.506908,40.128294 118.029202,37.9731541 120.95134,38.5666349" id="Fill-56" fill="#000000"></path>
            <path d="M51.9286133,21.3880579 C51.5187092,20.4802335 52.1398522,18.8632499 50.487662,18.8582204 C49.1523303,18.8531909 48.6996755,20.1080507 48.0911062,21.1617305 C46.1145135,24.564186 44.9099487,28.301103 43.3985845,31.8946794 C42.6190123,33.7405052 40.2400597,40.5605046 38.3866896,40.5605046 C35.42683,40.5579899 32.5021769,40.6711536 29.5121403,39.725608 C26.3309827,38.7197083 22.8480553,38.6593544 19.4908653,38.2268175 C19.0482695,38.1689783 18.4397002,38.0356966 18.1982843,38.6392364 C17.9945896,39.1421862 18.1178123,39.7180637 18.5352607,40.0122894 C21.0424655,41.7726137 23.3736378,44.1163598 26.1700388,45.0417874 C29.2531211,46.0602608 31.1442124,47.9111161 32.952317,50.277495 C34.1116163,51.7913739 34.0864688,53.0914991 33.0000972,54.6129223 C31.2850383,57.0119929 29.7158349,59.5166829 28.0384973,61.940901 C27.460105,62.7757977 27.2237186,63.7942711 27.8222289,64.4279878 C28.5741389,65.2226485 29.3084456,64.4405616 30.0678998,63.8722283 C32.3688952,62.1521399 34.4209304,60.1705177 36.1737105,57.932391 C37.441144,56.3128927 38.8594625,55.9180771 40.7857602,56.149434 C42.9082084,56.4059384 44.4799266,57.5400902 45.878127,58.9584087 C50.7366222,63.8923463 54.496172,69.6259741 57.7351688,75.7066373 C58.1400434,76.4686063 58.5197705,77.3286504 59.3823294,77.1350148 C60.4033175,76.9061726 60.1694459,75.7443585 60.0487379,75.0653763 C59.065471,69.4524564 57.9941879,63.8269628 55.0267841,58.8527892 C52.6000512,54.7889547 54.0586057,51.5851645 58.7209504,51.1551424 C59.2113265,51.1098769 59.7218205,51.0470082 60.1694459,50.8609167 C64.8519086,48.9119862 69.4438404,46.7367283 74.3023355,45.2253641 C74.9109048,45.0367579 75.4993561,44.795342 75.4113398,44.0509763 C75.3233236,43.3166696 74.6820626,43.1808731 74.0584048,43.1255487 C72.1748578,42.9595752 70.379327,42.4339927 68.5511044,41.9989411 C66.0967094,41.4155193 56.6789742,39.3006154 54.4810835,38.6694134 C53.4776987,38.382732 53.4802134,35.6693178 54.0912974,33.9618032 C54.2522414,33.5066336 54.1918874,32.9684773 54.2648151,32.0631676 C53.3972267,28.7839349 53.5154199,24.9187656 51.9286133,21.3880579 Z M28.4282834,32.9659625 C30.6010266,33.6876955 32.2884232,33.582076 33.1585264,31.006973 C36.239094,21.91867 41.2157823,13.7633388 45.8554943,5.44454898 C48.0005752,1.60201244 49.4918214,1.13175437 53.1306633,3.52076596 C56.7594462,5.90474805 58.8668059,8.75395872 59.1333693,13.6652636 C59.4753751,20.0426672 61.3840697,26.347143 62.7420341,32.6541336 C63.1619972,34.6005494 65.4051534,35.136191 66.6977344,35.3273119 C69.2703227,35.707039 71.601495,37.0474002 74.2696438,36.9342365 C78.5950121,36.7506598 82.7518923,38.3274075 87.0923491,38.282142 C88.5634773,38.2670535 92.7781967,42.2881372 92.7605935,43.6461017 C92.7228723,45.9672151 90.6783813,46.9680852 89.0261912,47.6621559 C82.0527921,50.5918386 74.9737735,53.2700463 67.9224172,56.0111228 C65.2165472,57.0597731 64.1427494,58.724537 65.2165472,61.259404 C68.1990396,68.2931571 68.9534643,75.6161063 68.7045041,83.1528092 C68.6516944,84.7597339 68.4278817,86.411924 69.5343713,88.0364519 C70.5050644,89.4572851 68.3398655,92.2411123 66.6222919,91.8714442 C62.9105223,91.0692392 59.2037822,89.748996 57.202042,86.371688 C54.677234,82.1167326 51.2345425,78.5709365 48.684587,74.3687908 C47.3643437,72.1935329 45.8655533,70.1264092 44.5629133,67.9410922 C43.6047939,66.3391971 42.7598382,66.3467414 41.2912248,67.4507162 C34.4008124,72.6361287 26.989847,77.0344248 19.59397,81.4452946 C16.8780411,83.0673078 10.3723853,80.5374702 8.89371284,77.914587 C7.97834419,76.2925738 9.23823346,75.3696609 9.77387501,74.4392038 C12.1201359,70.3653103 14.9089926,66.5378623 17.169752,62.4212181 C18.5654377,59.8813216 20.2302015,57.4671625 20.886551,54.4494636 C21.3266321,52.4200611 20.8714625,51.3915288 19.5688225,50.0612265 C16.1135574,46.5330336 11.9214707,44.3879527 7.27672921,42.9847227 C5.14925151,42.340947 4.0000112,40.4875769 2.59929598,39.0365667 C1.33940671,37.731412 2.55654525,34.5100184 4.62115421,33.4739418 C6.1023414,32.7320909 14.8058878,30.3481088 17.7280262,30.9415895" id="Fill-56" fill="#000000" transform="translate(47.424231, 46.982029) rotate(-2.000000) translate(-47.424231, -46.982029) "></path>
            <g id="Group-60" transform="translate(28.454806, 119.529384)">
                <mask id="mask-2" fill="white">
                    <use xlink:href="#path-1"></use>
                </mask>
                <g id="Clip-59"></g>
                <path d="M2.60982664,16.9012248 C2.04652286,15.2842412 6.25872751,13.6270216 8.81622729,14.4116233 C13.6571192,15.89784 15.2791323,20.4419915 13.4534245,25.157146 C11.0644129,31.3157664 12.0987493,37.8541139 16.2430557,43.6682137 C18.3831072,46.670824 21.7226939,48.3028962 25.5576862,49.3691498 C30.0314247,50.6114358 47.3655899,52.8078764 61.8027642,48.063995 C67.9818961,46.0336068 73.5617307,42.6220781 78.639009,38.5280666 C80.5099823,37.0217319 82.126966,35.2010536 83.8093331,33.473421 C84.0377276,33.2389963 89.1756651,29.1120958 90.6695685,26.4321237 C93.3678942,21.5836876 95.8499515,16.6422057 97.0846933,11.2002888 C97.8567212,7.80537754 97.057031,7.2647065 93.6897821,7.07107082 C86.9251071,6.68379947 80.5527331,9.15076828 73.8484121,9.34691871 C59.3181921,9.7719113 42.8256934,11.2732165 28.2502079,10.566572 C25.2752598,10.4207165 23.0069561,8.81127716 20.4318531,7.89087901 C19.1166394,7.42313569 18.5307028,5.58988363 19.1719639,3.99301799 C19.7905921,2.45399157 20.9423472,2.68534849 22.3656951,2.97957412 C24.2115209,3.36181598 26.1654809,3.32912424 28.0716607,3.28385876 C33.870672,3.14303281 39.6294473,4.40040734 45.3655899,4.19419791 C52.4446085,3.94523776 61.5286565,3.27882926 68.6202488,3.23607853 C73.1920626,3.20590154 95.3721492,1.55622617 101.905467,0.774139212 C106.595474,0.210835426 109.530186,2.54703729 112.002185,6.03750896 C112.600695,6.88497939 112.437236,7.45079793 111.725562,8.09960318 C110.324847,9.3720662 109.658439,11.258128 107.530961,11.98992 C106.009538,12.5129878 106.296219,14.7159079 105.680106,16.1216526 C103.761352,20.5325225 102.441109,25.2325884 100.268366,29.5026323 C97.7762493,34.3988487 87.3903357,43.0772476 86.1455349,44.0630293 C80.2107272,48.7530362 73.4737145,52.052387 66.5933611,54.8613617 C62.5647331,56.5085223 58.0356701,57.1422391 53.6147413,57.863972 C49.037898,58.6133673 44.4610548,59.166612 39.9470802,58.6133673 C33.2301855,57.7885296 16.7746144,51.7060783 15.7451354,50.7044815 C4.54519364,39.8078764 3.85462742,20.487257 2.60982664,16.9012248 Z" id="Fill-58" fill="#000000" mask="url(#mask-2)"></path>
            </g>
        </g>
    </g>
</svg>