<?xml version="1.0" encoding="UTF-8"?>
<svg width="320px" height="437px" viewBox="0 0 320 437" version="1.1" xmlns="http://www.w3.org/2000/svg" xmlns:xlink="http://www.w3.org/1999/xlink">
    <!-- Generator: Sketch 51 (57462) - http://www.bohemiancoding.com/sketch -->
    <title>weightlifter</title>
    <desc>Created with Sketch.</desc>
    <defs></defs>
    <g id="ALL" stroke="none" stroke-width="1" fill="none" fill-rule="evenodd">
        <g id="weightlifter_DL" transform="translate(-240.000000, -221.000000)">
            <g id="weightlifter" transform="translate(240.000000, 221.000000)">
                <path d="M206.167527,206.39146 C201.727355,206.77493 197.377917,207.617403 193.019769,208.507811 C190.802224,208.961729 188.557095,209.285646 186.34826,209.784593 C184.037077,210.306782 181.762913,210.916848 179.503267,211.634403 C174.798877,213.126888 170.072711,214.533673 165.464862,216.312309 L163.687196,217.061819 C162.567172,217.72563 161.676525,218.616037 161.015979,219.736672 C160.751761,220.188412 160.538354,220.664845 160.375758,221.158709 C160.345272,221.52257 160.292283,221.889337 160.221873,222.266997 C160.165255,222.56622 160.086861,222.861086 160.008466,223.153047 C159.971447,223.931608 160.055648,224.717432 160.2647,225.475658 C160.593521,226.673278 161.225757,227.764862 162.076482,228.65309 C162.150521,229.657521 162.442322,230.602399 162.955515,231.486996 C163.037539,231.62644 163.122466,231.762252 163.216104,231.895886 C163.556539,232.962776 163.89407,234.028941 164.203293,235.107452 C164.701968,236.849048 164.991592,238.648019 165.271779,240.432464 C165.898935,244.437844 166.607388,248.41853 167.4269,252.390501 C168.189793,256.087216 169.125445,259.74689 169.896323,263.442879 C170.682445,267.216578 171.390898,270.998266 172.040555,274.796659 C172.777318,279.12305 173.517709,283.449441 174.257375,287.775831 C174.541192,289.43318 174.886708,291.078181 175.213351,292.72972 C175.550883,294.442991 175.848491,296.170787 176.253529,297.870259 C177.266123,302.137096 178.315011,306.383597 179.429228,310.625014 C179.931533,312.523484 180.470132,314.427038 181.071155,316.293552 C181.536441,317.737377 182.100445,319.124553 182.695662,320.520444 C183.263295,321.845887 184.116197,322.937471 185.026443,324.050116 C186.047022,325.289859 187.680239,326.013224 189.1632,326.475859 C190.101755,326.767819 191.179678,326.784523 192.169045,326.875307 C195.169082,327.144753 198.106695,326.966091 201.07552,326.449713 C203.836745,325.97328 206.539175,325.22159 209.295319,324.713927 C211.053386,324.4837 212.81363,324.251293 214.560809,323.950617 C215.703335,323.752346 216.817552,323.39139 217.90346,322.991941 C219.321092,322.469753 220.70243,321.868401 221.952386,321.020118 C223.262588,320.134794 224.456651,318.997456 225.324071,317.666929 C226.302549,316.162823 226.679278,314.398713 226.841148,312.639687 C227.013906,310.775352 226.994307,308.889229 227.09593,307.019083 C227.204085,305.130055 227.320225,303.2403 227.427654,301.351272 C227.870437,293.628842 228.000369,285.897697 228.493963,278.175994 C228.987557,270.504403 229.690204,262.841527 229.826668,255.150327 C229.971117,247.167167 230.016847,239.178196 230.385591,231.200845 C230.561253,227.407537 231.057025,223.603334 230.994599,219.804942 C230.969194,218.301562 230.824745,216.854833 230.612064,215.359442 C230.167103,212.210335 228.241359,209.614646 225.434404,208.150486 C222.84013,206.803255 220.140604,206.527998 217.274127,206.206987 C215.941422,206.059554 214.611621,206 213.284723,206 C210.911114,206 208.544039,206.187378 206.167527,206.39146" id="Path" fill="#FFFFFF"></path>
                <ellipse id="Oval" fill="#FFFFFF" cx="183" cy="149.5" rx="42" ry="51.5"></ellipse>
                <path d="M189.2099,103.871015 C192.070084,104.021733 194.919413,104.230699 197.760056,104.568539 C200.096983,104.998849 202.370222,105.523812 204.589904,106.366229 C205.733399,106.912308 206.803073,107.527556 207.836561,108.254932 C210.768394,110.749418 213.276122,113.796535 215.707857,116.775939 C216.508304,117.860815 217.281248,118.958068 218.037547,120.082989 C218.938592,121.421245 219.642782,122.900026 220.365065,124.343857 C220.708837,125.196467 221.038859,126.050534 221.331246,126.928628 C221.774893,128.259603 222.128074,129.602227 222.487044,130.958686 C223.133336,133.401476 223.497372,135.933824 223.856343,138.439959 C224.212418,141.59702 224.466448,144.734423 224.520004,147.912599 C224.574284,150.938601 224.274659,153.978437 223.896872,156.98114 C223.456843,159.340198 222.916217,161.64028 222.26124,163.951284 C221.69673,165.93464 220.965762,167.861205 220.208739,169.772479 C219.319998,171.806803 218.419677,173.838943 217.412967,175.817202 C216.290461,178.017534 215.068803,180.10865 213.672002,182.134237 C212.977221,182.951898 212.269412,183.736795 211.518179,184.51441 C210.774908,185.284017 209.928143,185.972075 209.099471,186.660134 C205.401206,189.375236 201.346866,191.571927 197.189032,193.497035 C195.709003,194.073694 194.204366,194.607395 192.650516,194.949604 C191.007647,195.311472 189.369844,195.610722 187.713225,195.867743 C184.375378,196.221602 181.047663,196.35703 177.692447,196.440033 C174.253278,196.524494 170.772857,196.632253 167.340201,196.296597 C165.250067,195.923807 163.2352,195.320937 161.257243,194.546962 C158.541805,193.304816 155.980522,191.82822 153.527074,190.122271 C152.792488,189.489548 152.078889,188.84372 151.372528,188.165854 C150.584385,187.413722 149.879471,186.556015 149.184689,185.704861 C148.331411,184.519507 147.52228,183.313766 146.795654,182.036671 C146.105938,180.822921 145.509584,179.57495 144.945798,178.305864 C143.977446,175.670853 143.140813,173.022737 142.577027,170.262493 C142.059559,167.738155 141.675982,165.194158 141.311221,162.645064 C140.872641,158.854553 140.594004,155.068409 140.646113,151.245861 C140.674338,149.249398 140.813295,147.258761 140.926197,145.265211 C140.982648,144.283726 141.053573,143.302241 141.062258,142.318572 C141.069495,141.59338 141.04706,140.863091 141.04706,140.13353 C142.006727,140.124065 142.933826,139.733073 143.609067,139.050111 C144.341482,138.31691 144.607092,137.446097 144.685978,136.436944 C144.746772,135.689909 144.817697,134.945786 144.898755,134.202391 C145.129625,132.982088 145.459647,131.827315 145.887372,130.6689 C147.041722,128.323676 148.404507,126.16339 149.917105,124.035869 C153.422133,119.665786 157.457657,115.764602 161.787014,112.226014 C163.220725,111.148419 164.679767,110.086843 166.24013,109.206565 C168.044391,108.193772 169.865298,107.259614 171.73759,106.391713 C173.124982,105.848547 174.515269,105.347611 175.956941,104.94861 C177.392823,104.549609 178.835942,104.270017 180.297878,104.033383 C183.273136,103.784371 186.220892,103.715929 189.2099,103.871015 M183.445384,92.0509673 C181.042597,92.139068 178.656457,92.5169542 176.289857,92.9436234 C174.509479,93.2654456 172.733443,93.8654037 171.051493,94.5308911 C168.877406,95.3922387 166.799574,96.3737236 164.733323,97.4600554 C162.991303,98.3730984 161.337578,99.4936512 159.757673,100.662987 C158.030128,101.940082 156.333703,103.296541 154.795775,104.809542 C152.751959,106.820567 150.801504,108.908042 148.971912,111.120752 C146.894081,113.629071 144.884281,116.191999 143.16542,118.962437 C141.54571,121.570507 140.202466,124.337304 139.091539,127.201667 C138.511107,128.70229 138.134043,130.233494 137.870605,131.788725 C137.091871,131.213523 136.21109,130.778116 135.272411,130.518183 C133.858965,130.136656 132.444795,130.136656 131.031349,130.518183 C128.959307,131.092657 127.412694,132.423632 126.261962,134.20676 C123.21216,138.930702 122.994317,144.664525 123.000107,150.120211 C123.003002,151.869118 123.107219,153.658071 123.271506,155.398969 C123.516851,158.026698 123.774499,160.660252 124.189921,163.265409 C124.82608,167.230666 125.549811,171.183546 126.474015,175.091282 C126.923452,176.991635 127.528491,178.83738 128.164651,180.683125 C128.450524,181.513892 128.81239,182.324272 129.14024,183.137565 C129.708369,184.539894 130.304723,186.033236 131.011808,187.380958 C131.944697,189.164814 132.925352,190.876587 134.076084,192.526472 C134.952522,193.786093 135.916532,194.978 136.869685,196.175003 C137.415378,196.86379 138.000153,197.548937 138.624733,198.163457 C141.762829,201.257901 145.285951,203.908929 149.249101,205.842775 C152.075994,207.221804 154.991182,208.507637 157.984533,209.468735 C160.828795,210.381778 163.851095,210.802622 166.824905,210.959165 C167.845365,211.015957 168.89767,211.013044 169.918131,210.95334 C173.827725,210.726171 177.729358,210.39634 181.630267,210.029375 C185.840209,209.636927 190.182594,209.036241 194.244895,207.791182 C198.332527,206.533746 202.23416,204.844543 205.870184,202.572129 C209.517064,200.296803 213.048146,197.887505 216.310001,195.069013 C219.382963,192.420897 222.071623,189.238352 224.144388,185.742723 C226.317751,182.070892 227.969305,178.118013 229.611451,174.181152 C231.056017,170.714646 232.271885,167.136741 233.148323,163.478744 C234.165889,159.223702 234.601575,154.872549 234.895409,150.51266 C235.138583,146.891796 234.929425,143.22579 234.558875,139.619489 C234.115228,135.287267 233.513084,130.949949 232.455713,126.72403 C231.395447,122.491559 229.699022,118.521205 227.573424,114.727053 C226.719422,113.205315 225.682316,111.709788 224.624945,110.321293 C223.197024,108.450064 221.771998,106.578836 220.273875,104.761487 C219.65219,104.004987 219.026887,103.259408 218.387833,102.520382 C216.711672,100.569062 214.86254,98.9250016 212.776747,97.4178254 C211.767143,96.6868085 210.619306,96.1574765 209.483048,95.6601812 C208.151384,95.0798819 206.825509,94.5476375 205.437393,94.1209683 C204.467594,93.8224455 203.450028,93.5697932 202.449108,93.3928639 C198.061128,92.6254417 193.654331,92.2897856 189.2099,92.0735386 C188.198848,92.0225712 187.18852,92 186.178915,92 C185.268462,92 184.358008,92.0182026 183.445384,92.0509673" id="Fill-1" fill="#2C2C2C"></path>
                <path d="M192.412938,315.567282 L192.415842,315.567282 C192.418745,315.570187 192.421649,315.570187 192.424552,315.573092 L192.421649,315.573092 C192.418745,315.570187 192.415842,315.567282 192.412938,315.567282 M216.567851,311.096363 C216.545349,311.162454 216.517766,311.227092 216.488005,311.291004 C216.514863,311.226366 216.540268,311.161728 216.567851,311.096363 M192.798929,317.197849 C191.901958,314.740931 191.35726,312.15823 190.723926,309.624486 C190.226956,307.64434 189.812561,305.640845 189.365591,303.652413 C188.608014,300.295429 187.907255,296.90907 187.353466,293.513673 C186.658011,289.250597 185.98604,284.992793 185.397403,280.715406 C184.855735,276.766412 184.320128,272.815158 183.781491,268.863903 C183.27543,265.192084 182.716338,261.532316 182.095125,257.87782 C181.435275,253.974017 180.517849,250.104862 179.73906,246.221395 C178.987544,242.469737 178.253452,238.700756 177.715572,234.914451 C177.445875,233.040505 177.158753,231.177857 176.765571,229.327261 C176.58451,228.48293 176.401176,227.641613 176.200418,226.800296 C177.265572,226.552495 178.333755,226.317499 179.401939,226.087775 C182.976944,225.323283 186.522404,224.519625 190.129228,223.937407 C192.550444,223.63161 194.967872,223.319035 197.38227,222.986876 C199.297424,222.721752 201.200458,222.37227 203.108794,222.060448 C206.411072,221.686111 209.723198,221.454127 213.0429,221.268841 C214.80957,221.168667 216.561845,221.009743 218.319424,220.79207 C218.497454,220.771734 218.677758,220.747631 218.855031,220.724282 C218.926243,223.383809 218.802,226.041077 218.745939,228.717927 C218.662606,232.937318 218.63306,237.153696 218.63003,241.372334 C218.627,249.204795 218.822455,257.030477 218.517909,264.859926 C218.195181,273.194767 217.686089,281.512285 217.588362,289.853152 C217.541392,293.790095 217.493665,297.721013 217.405028,301.657203 C217.363362,303.52889 217.295937,305.399823 217.260331,307.270756 C217.227755,309.133404 217.295937,311.022414 217.144422,312.879036 L217.117907,313.00256 C216.895937,313.132109 216.670936,313.258646 216.440633,313.376144 C215.220934,313.805464 213.972447,314.111261 212.693657,314.334959 C209.746683,314.658833 206.781527,314.864455 203.875462,315.488852 C201.306518,316.041696 198.752726,316.618643 196.157268,317.035912 C195.090599,317.137593 194.018628,317.198602 192.945899,317.198602 C192.897414,317.198602 192.847414,317.198602 192.798929,317.197849 M217.55504,219.171634 C217.597141,219.217389 217.637064,219.262418 217.674084,219.311078 C217.676987,219.319793 217.676987,219.324877 217.67989,219.330687 C217.637064,219.279848 217.597141,219.226104 217.55504,219.171634 M206.167527,206.39146 C201.727355,206.77493 197.377917,207.617403 193.019769,208.507811 C190.802224,208.961729 188.557095,209.285646 186.34826,209.784593 C184.037077,210.306782 181.762913,210.916848 179.503267,211.634403 C174.798877,213.126888 170.072711,214.533673 165.464862,216.312309 L163.687196,217.061819 C162.567172,217.72563 161.676525,218.616037 161.015979,219.736672 C160.751761,220.188412 160.538354,220.664845 160.375758,221.158709 C160.345272,221.52257 160.292283,221.889337 160.221873,222.266997 C160.165255,222.56622 160.086861,222.861086 160.008466,223.153047 C159.971447,223.931608 160.055648,224.717432 160.2647,225.475658 C160.593521,226.673278 161.225757,227.764862 162.076482,228.65309 C162.150521,229.657521 162.442322,230.602399 162.955515,231.486996 C163.037539,231.62644 163.122466,231.762252 163.216104,231.895886 C163.556539,232.962776 163.89407,234.028941 164.203293,235.107452 C164.701968,236.849048 164.991592,238.648019 165.271779,240.432464 C165.898935,244.437844 166.607388,248.41853 167.4269,252.390501 C168.189793,256.087216 169.125445,259.74689 169.896323,263.442879 C170.682445,267.216578 171.390898,270.998266 172.040555,274.796659 C172.777318,279.12305 173.517709,283.449441 174.257375,287.775831 C174.541192,289.43318 174.886708,291.078181 175.213351,292.72972 C175.550883,294.442991 175.848491,296.170787 176.253529,297.870259 C177.266123,302.137096 178.315011,306.383597 179.429228,310.625014 C179.931533,312.523484 180.470132,314.427038 181.071155,316.293552 C181.536441,317.737377 182.100445,319.124553 182.695662,320.520444 C183.263295,321.845887 184.116197,322.937471 185.026443,324.050116 C186.047022,325.289859 187.680239,326.013224 189.1632,326.475859 C190.101755,326.767819 191.179678,326.784523 192.169045,326.875307 C195.169082,327.144753 198.106695,326.966091 201.07552,326.449713 C203.836745,325.97328 206.539175,325.22159 209.295319,324.713927 C211.053386,324.4837 212.81363,324.251293 214.560809,323.950617 C215.703335,323.752346 216.817552,323.39139 217.90346,322.991941 C219.321092,322.469753 220.70243,321.868401 221.952386,321.020118 C223.262588,320.134794 224.456651,318.997456 225.324071,317.666929 C226.302549,316.162823 226.679278,314.398713 226.841148,312.639687 C227.013906,310.775352 226.994307,308.889229 227.09593,307.019083 C227.204085,305.130055 227.320225,303.2403 227.427654,301.351272 C227.870437,293.628842 228.000369,285.897697 228.493963,278.175994 C228.987557,270.504403 229.690204,262.841527 229.826668,255.150327 C229.971117,247.167167 230.016847,239.178196 230.385591,231.200845 C230.561253,227.407537 231.057025,223.603334 230.994599,219.804942 C230.969194,218.301562 230.824745,216.854833 230.612064,215.359442 C230.167103,212.210335 228.241359,209.614646 225.434404,208.150486 C222.84013,206.803255 220.140604,206.527998 217.274127,206.206987 C215.941422,206.059554 214.611621,206 213.284723,206 C210.911114,206 208.544039,206.187378 206.167527,206.39146" id="Fill-3" fill="#2C2C2C"></path>
                <path d="M185.035,269.262 C185.024,269.175 185.014,269.088 185,269 C185.013,269.088 185.023,269.175 185.035,269.262" id="Fill-5" fill="#2C2C2C"></path>
                <path d="M185.004,269.031 C185.004,269.032 185.005,269.033 185.005,269.034 C185.003,269.023 185.002,269.011 185,269 C185.001,269.01 185.003,269.021 185.004,269.031" id="Fill-7" fill="#2C2C2C"></path>
                <path d="M185.003,269.021 C185.003,269.014 185.003,269.007 185,269 L185.003,269.021 Z" id="Fill-9" fill="#2C2C2C"></path>
                <path d="M185.285,271 C185.191,270.332067 185.098,269.664133 185,269 C185.094,269.667933 185.191,270.332067 185.285,271" id="Fill-11" fill="#2C2C2C"></path>
                <path d="M184.476062,331.308664 C184.459407,331.330361 184.442752,331.352058 184.426097,331.373031 C184.442752,331.352058 184.459407,331.329638 184.476062,331.308664 M186.255237,325.08534 C185.918519,325.149707 185.531112,325.19527 185.21467,325.327619 C184.473165,325.638605 183.737454,325.955376 182.999571,326.274317 C182.637508,326.426917 182.303687,326.667026 181.966968,326.864466 C181.596216,327.082156 181.211706,327.283211 180.858333,327.531276 C179.775042,328.294276 178.677268,329.037024 177.639597,329.859328 C176.756888,330.557237 175.882869,331.260932 175.003057,331.958117 C173.673564,333.017637 172.375207,334.173346 171.150712,335.351474 C169.767633,336.682203 168.361382,337.992681 167.028992,339.376927 C164.35335,342.162778 161.739982,345.004316 159.078098,347.804631 C157.652296,349.304594 156.263424,350.847226 154.798519,352.307411 C153.21703,353.881141 151.63554,355.454872 150.054775,357.02571 C147.259652,359.810837 144.295808,362.444088 141.390619,365.1135 C138.599116,367.675875 135.812683,370.241143 133.043629,372.828831 C127.247731,378.247209 121.598831,383.82108 116.017999,389.457148 C110.717403,394.811159 105.681838,400.416128 100.6021,405.975535 C99.3377775,407.362674 98.0814205,408.758492 96.7294789,410.063908 C95.3464,411.396806 93.957528,412.727534 92.5773456,414.066941 C90.1985947,416.374742 87.7966717,418.671694 85.3107502,420.869566 C84.5055231,421.582662 83.7444676,422.344215 82.9493783,423.07033 C82.8342424,423.131804 82.7205548,423.196894 82.6090395,423.264876 C81.51199,423.91216 80.6401433,424.782196 79.9927755,425.875707 C79.3338217,427.011166 79.0028965,428.237027 79,429.551121 C79.0028965,430.864492 79.3338217,432.088183 79.9927755,433.223641 C80.4026303,433.757379 80.8132092,434.288947 81.2259606,434.816899 C81.726331,435.203823 82.2245291,435.587854 82.7248995,435.9755 C83.8820514,436.644481 85.1268225,436.980779 86.4642815,436.983672 C87.0725466,437.026342 87.6214334,436.977886 88.2239055,436.924368 C89.7177756,436.792018 91.2362659,436.534551 92.7156535,436.269129 C94.269626,435.992858 95.8185295,435.705739 97.3753985,435.441763 C98.0763516,435.362932 98.7780288,435.289886 99.4818784,435.22118 C101.761424,434.991919 104.019246,434.777122 106.174243,433.980855 C107.647837,433.568618 108.929539,432.822253 110.015726,431.743206 C111.639215,430.121743 112.563922,427.892773 112.563922,425.59582 C112.563922,422.528637 110.833988,419.661785 108.29086,418.107581 C110.456718,415.942255 112.490062,413.628668 114.538612,411.3686 C117.220047,408.40773 119.898586,405.450476 122.611158,402.520704 C127.869755,396.839073 133.235522,391.26014 138.652702,385.731109 C143.95909,380.315623 149.44651,375.075158 154.736244,369.645208 C156.101944,368.240711 157.508195,366.865143 158.831896,365.421593 C160.302594,363.819656 161.776188,362.21772 163.247611,360.615783 C164.706723,359.025419 166.067354,357.335972 167.475777,355.697875 C168.77703,354.186341 170.03049,352.632137 171.306399,351.095291 C176.123279,345.304454 181.132776,339.70744 186.481888,334.398991 C187.81283,333.077665 189.291494,331.785991 190.362475,330.231787 C190.432715,330.137768 190.497162,330.040133 190.557264,329.938159 C190.996084,329.186731 191.114841,328.271856 190.886017,327.432918 C190.605781,326.424024 189.697728,325.34787 188.61154,325.164171 C188.083653,325.073045 187.619489,325 187.135773,325 C186.854089,325 186.566611,325.025313 186.255237,325.08534" id="Fill-13" fill="#2C2C2C"></path>
                <path d="M290.455507,423.321023 C290.472263,423.359541 290.48902,423.398059 290.505048,423.438031 C290.488291,423.398786 290.471535,423.360268 290.455507,423.321023 M275.697972,311.630861 C271.741939,311.920837 267.797562,312.087991 263.8306,312.139591 C259.911723,312.190464 255.981918,311.957902 252.060126,311.892494 C248.24616,311.829992 244.441665,311.977524 240.630614,312.175929 C236.814462,312.37506 232.992482,312.488434 229.179245,312.710095 C225.106643,312.945564 221.045698,313.226819 217.080922,314.25736 C212.706701,315.392554 209.539329,323.023431 211.286754,324.434862 C212.451705,325.375816 215.38321,325.846293 220.081271,325.846293 C247.09956,324.331247 266.464072,323.573725 278.174805,323.573725 C280.658816,323.573725 298.721401,325.516859 301.150391,325.048828 C300.070678,328.18333 293.232443,354.135231 291.064275,361.83958 C288.94419,369.376774 285.673296,376.863096 283.370345,384.346511 C280.97414,392.14243 278.313471,399.864221 276.119075,407.719008 C274.958492,411.87533 273.899179,416.039647 273.025646,420.264284 C272.809266,421.303546 272.652628,422.325366 272.516389,423.384251 C272.257024,425.405361 273.35568,427.622696 274.736284,429.013709 C277.508422,431.804455 281.441142,431.083512 284.836191,430.263004 C286.583985,429.842938 288.320123,429.499909 290.082488,429.223015 C291.880553,429.066762 293.685174,428.978825 295.474496,428.772426 C296.501754,428.653237 297.421185,428.544951 298.393801,428.315296 C299.81739,427.977354 301.447888,427.031843 302.486802,425.999122 C305.107401,423.381344 305.753626,419.406711 303.963576,416.136305 C302.637612,413.708938 300.175838,412.096991 297.867787,410.660193 C295.164133,408.974117 291.447065,409.564244 289.232998,411.769951 C288.653071,412.349176 288.182427,413.022153 287.835636,413.75327 C289.060331,409.870935 290.29304,405.994415 291.581118,402.132429 C294.008651,394.836518 296.356772,387.51735 298.681579,380.187281 C301.086527,372.618836 303.334836,365.008239 305.50009,357.368572 C307.63766,349.81975 309.450295,342.121215 312.151035,334.74536 C313.031125,332.339795 313.953471,329.956033 314.894759,327.573725 C315.446272,326.293906 316.013085,325.020628 316.707395,323.812758 C317.006101,323.293127 317.313549,322.788031 317.638483,322.282935 C318.471946,320.971139 319.086843,319.511812 318.989946,317.899138 C318.901791,316.488503 318.685411,315.06624 317.84612,313.873633 C317.433032,313.3431 317.023586,312.811841 316.613411,312.284215 C316.03057,311.807463 315.43243,311.350333 314.820447,310.909918 C314.018312,310.3336 312.743347,309.907721 311.710261,309.646815 C309.841527,309.17515 307.943651,309.000002 306.040675,309.000002 C303.751567,308.999275 301.456631,309.252913 299.193751,309.547249 C291.396066,310.561075 283.538641,311.054543 275.697972,311.630861 Z" id="Fill-15" fill="#2C2C2C"></path>
                <path d="M239.400799,55.0021807 C236.511262,55.0901367 234.294322,57.2933979 234.211889,60.1755921 C234.197299,60.6444484 234.194381,61.1096702 234.183439,61.5814341 C234.162283,62.3846686 234.378944,63.1610074 234.766306,63.842848 C234.941386,66.9569262 234.667824,70.0768197 234.431467,73.189444 C234.126538,77.1896243 233.81869,81.1934391 233.513761,85.1943463 C232.875451,93.5596151 232.251002,101.924884 231.681265,110.295241 C231.145814,118.164031 230.854745,126.048813 230.518447,133.928507 C230.347745,137.997743 230.074184,142.061165 229.811565,146.123859 C229.549676,150.153116 229.053618,154.162746 228.631969,158.175283 C228.596953,158.506027 228.561937,158.836771 228.527651,159.167514 C227.491036,166.086234 226.432536,172.999866 225.335373,179.911317 C224.796275,183.292897 224.380462,186.714458 224.001854,190.1193 C223.650966,193.263908 223.284029,196.403428 222.885724,199.542948 C222.504926,201.819627 222.095679,204.074499 221.622235,206.335186 C221.097727,208.825576 220.19461,211.241822 219.222921,213.584649 C218.732699,214.768784 219.117144,216.435586 219.735757,217.488878 C220.402517,218.625036 221.505516,219.471158 222.776299,219.820075 C224.090123,220.180622 225.520666,219.993806 226.694426,219.309058 C227.039478,219.04519 227.380882,218.781322 227.725934,218.516727 C228.35549,217.883589 228.791729,217.137054 229.033922,216.279301 C230.492915,212.772692 231.700961,209.189031 232.487359,205.469437 C233.336493,201.448903 234.003982,197.413832 234.608006,193.35041 C235.126678,189.869243 235.63076,186.376445 236.257398,182.909816 C236.96428,178.996865 237.696695,175.086821 238.354701,171.162967 C239.092951,166.75281 239.901963,162.35501 240.441061,157.916504 C240.928365,153.890155 241.483512,149.872529 241.797195,145.825826 C242.113797,141.745686 242.429669,137.673542 242.626633,133.584679 C242.817761,129.59831 243.00816,125.609033 243.193452,121.619757 C243.564036,113.708806 244.03675,105.806578 244.550316,97.9014426 C245.085766,89.5645232 245.644561,81.2305115 245.915204,72.8797808 C245.994719,70.4773465 246.077152,68.0465628 245.866328,65.6477631 C245.726994,64.0718244 245.519087,62.4958857 245.217076,60.9395735 C245.120053,60.448183 245.006251,59.9567925 244.857434,59.4799402 C244.658281,58.8351719 244.441621,58.131524 244.03675,57.6001535 C243.566954,56.8107303 242.937399,56.1834079 242.148083,55.7174592 C241.366792,55.263868 240.446897,55 239.538674,55 C239.493445,55 239.446757,55.0007269 239.400799,55.0021807" id="Fill-17" fill="#2C2C2C"></path>
                <path d="M98.9578715,70.2382488 C96.6881206,70.8621991 94.8659364,72.686836 94.2399233,74.9596421 C93.9200256,76.156697 93.9200256,77.3573836 94.2399233,78.5544384 C94.5627227,79.7006475 95.1408599,80.6943192 95.9772366,81.5369063 C96.2855282,81.8942795 96.6968253,82.1724785 97.0312309,82.5124188 C97.1102986,82.5952248 97.1842886,82.6743989 97.2575531,82.759384 C99.179116,85.6677623 100.998399,88.6640312 102.726282,91.6886284 C103.689602,93.374529 104.681938,95.0451759 105.591579,96.7623104 C106.650651,98.7569175 107.710449,100.751525 108.770246,102.749037 C109.756779,104.607087 110.614917,106.542132 111.533263,108.435048 C112.204976,109.813694 112.910057,111.181446 113.533894,112.583336 C115.307477,116.578362 117.08106,120.576292 118.85827,124.571317 C121.5074,130.538432 123.978085,136.587627 126.568459,142.580164 C129.277072,148.84509 131.954493,155.118006 134.623935,161.397459 C136.066013,165.012594 137.545087,168.61538 138.953798,172.245042 C140.342198,175.839838 141.718992,179.43754 143.124801,183.02362 C144.572683,186.712844 146.020565,190.401342 147.462644,194.092745 C148.29902,196.228994 149.134672,198.368148 149.970323,200.505124 C150.681932,202.329761 151.296339,204.19798 151.945565,206.047313 C152.597692,206.1599 153.236762,206.41994 153.843915,206.670537 C154.552623,206.962537 155.254802,207.269065 155.954805,207.575592 C156.983411,208.024487 157.986628,208.523502 159,209 C158.873782,208.421811 158.744662,207.844348 158.615542,207.266159 C158.207872,205.433532 157.689217,203.64594 157.176365,201.838736 C156.717192,200.218208 156.252216,198.612208 155.728483,197.012019 C153.096036,188.976934 150.372916,180.975262 147.658499,172.968505 C146.35497,169.120932 144.983255,165.295877 143.626047,161.468643 C142.285523,157.686444 140.818055,153.955091 139.381779,150.212842 C136.69783,143.215737 133.873154,136.272383 131.099256,129.309417 C129.718835,125.853357 128.364529,122.386402 126.936232,118.947775 C125.873534,116.393864 124.814462,113.839953 123.754664,111.286769 C123.111242,109.737426 122.490306,108.174281 121.799008,106.64455 C120.093612,102.862351 118.430288,99.0605394 116.616809,95.3262804 C114.825817,91.6319717 112.995653,87.9659913 111.111085,84.3203493 C109.914914,82.0104984 108.699883,79.7122694 107.586407,77.3631946 C107.552313,77.2549657 107.51822,77.1474632 107.487028,77.0392343 C107.492831,76.9484383 107.497909,76.8547368 107.503712,76.7588562 C107.625578,75.0359108 106.713035,73.1633336 105.526294,71.9779006 C104.251055,70.7009453 102.502861,70 100.728553,70 C100.136633,70 99.5389103,70.0791741 98.9578715,70.2382488" id="Fill-19" fill="#2C2C2C"></path>
                <path d="M160,216.469474 C160.228,216.629474 160.433,216.806316 160.613,217 C160.57,216.665263 160.522,216.332632 160.467,216 C160.333,216.167018 160.176,216.324912 160,216.469474" id="Fill-21" fill="#2C2C2C"></path>
                <path d="M254.291814,31.2898061 C238.50522,31.9340616 222.699039,32.6800036 206.935659,33.7607841 C203.874386,33.9714201 200.817465,34.2401625 197.767073,34.5750011 C197.69163,34.5735485 197.61546,34.5728221 197.539291,34.5728221 C196.646299,34.5728221 195.777246,34.6883088 194.944463,34.9040291 C190.334418,35.4734725 185.743959,36.1968982 181.186144,37.0975486 C173.195641,38.6780449 165.223999,40.3435218 157.22479,41.8753539 C149.80084,43.2967836 142.370361,44.7806778 135.050872,46.690202 C127.576142,48.636769 120.140585,50.7670978 112.744201,52.986039 C109.100415,54.0813461 105.529897,55.4032685 101.936891,56.6431155 C98.0377577,57.9853751 94.1045295,59.2056112 90.1713013,60.4396476 C86.5899019,61.5661869 83.1013562,62.9251522 79.604831,64.2870228 C75.8645645,65.7396848 72.0814983,66.9453942 68.2077545,67.9978478 C61.1153214,69.9189933 54.1048608,72.1916829 46.8760487,73.5731645 C44.5837209,74.0096894 42.4212434,75.9250242 41.2765303,77.8824862 C40.0099467,80.0505842 39.6668229,82.69225 40.3327587,85.1123848 C40.9762064,87.4584339 42.543114,89.492887 44.637402,90.7211127 C45.3853102,91.0363404 46.1303167,91.3508417 46.8760487,91.6660693 C48.5365355,92.1113102 50.1970223,92.1113102 51.8575091,91.6660693 C55.7624459,90.9201274 59.6361897,89.9635495 63.4758387,88.9336122 C67.1957934,87.9349071 70.9280802,87.024088 74.6799534,86.1503118 C78.3578337,85.2939676 81.9428602,84.1957551 85.4930666,82.9159599 C89.3298139,81.5373837 93.1781679,80.2721151 97.1055928,79.168092 C100.817568,78.1265334 104.518662,77.0711745 108.199444,75.9192135 C111.817839,74.7846845 115.410846,73.5789751 119.063336,72.5599327 C126.581591,70.4608362 134.136117,68.4830369 141.713131,66.6163663 C149.166097,64.7772962 156.74021,63.39872 164.280227,61.9860062 C172.257673,60.4904907 180.2032,58.845351 188.165412,57.2873711 C190.212547,56.88571 192.279995,56.571935 194.338737,56.2189382 C195.392773,56.0765773 196.446809,55.9342164 197.500844,55.7918556 L197.564681,55.7838659 C201.661854,55.233307 205.83302,55.0342923 209.953407,54.739402 C217.726284,54.1859378 225.512944,53.7944454 233.294527,53.3891527 C241.274149,52.9693334 249.253771,52.549514 257.236294,52.1834432 C265.039639,51.8231831 272.809615,51.9161534 280.582492,52.7223808 C281.75332,52.8444044 282.922697,52.9831336 284.090624,53.1276735 C286.333623,53.4639648 288.574446,53.8118773 290.812367,54.1663268 C292.761571,54.4757438 294.728185,54.7931505 296.688996,55.0059654 C297.272959,55.0684299 297.831533,55.1170941 298.417672,55.1229047 C299.511606,55.127989 300.593933,54.9151741 301.65087,54.6573266 C302.526452,54.4532276 303.354157,54.1125783 304.139061,53.6331999 C305.415801,52.8858053 306.116557,52.1718219 306.851407,51.210886 C307.033488,50.9857234 307.205412,50.7525712 307.366456,50.5121556 C307.481072,50.3530891 307.599316,50.1867593 307.723362,50.0124399 C307.713207,50.0066293 307.702325,50.0000923 307.690719,49.9935553 C308.929736,47.8661318 309.361361,45.2680459 308.672937,42.7520354 C307.913423,39.9803563 306.173865,37.9604298 303.745158,36.5077679 C302.704906,35.8831232 301.554389,35.5199577 300.409676,35.1626029 C299.582697,34.9018501 298.67302,34.7936267 297.822828,34.6323813 C295.830824,34.2546892 293.83882,33.8886183 291.846816,33.5283582 C287.408696,32.7257624 282.906013,32.0924018 278.417838,31.6754878 C274.317038,31.298522 270.245254,31.096602 266.130671,31.0174319 C265.510437,31.0050843 264.888752,31 264.267792,31 C260.943191,31 257.610611,31.1561612 254.291814,31.2898061" id="Fill-23" fill="#2C2C2C"></path>
                <path d="M19.5913632,13.7403851 C18.5092608,13.9648984 17.4718854,14.3419935 16.4575948,14.7677694 C15.034991,15.3664714 13.6592782,15.9484621 12.3405562,16.7491533 C11.0896459,17.5091561 9.92602519,18.4718748 8.83815165,19.4476719 C7.6485605,20.5121117 6.69919606,21.866457 5.76065264,23.1408785 C4.1151357,25.3772921 2.97099284,28.1782584 2.01008598,30.7692431 C1.32547591,32.6227489 0.790195957,34.4675358 0.490814313,36.4234894 C0.130113538,38.7790622 -0.0134453706,41.0779616 0.000982660362,43.4538786 C0.0146892898,46.0049013 0.20081089,48.5682759 0.350141011,51.1142126 C0.496585526,53.6201874 0.685592732,56.1232559 0.896963386,58.623418 C1.12781188,61.3684376 1.47769163,64.1214497 1.98483692,66.8286871 C2.21857103,68.083491 2.50352464,69.3150443 2.79929928,70.5582228 C3.20472695,72.2780379 3.86985918,73.984048 4.59703194,75.5905166 C4.904349,76.2742285 5.23402951,76.936143 5.6026657,77.5857056 C6.16319471,78.5673153 6.91850213,79.4326722 7.61898303,80.3140139 C7.80149763,80.550879 7.98401222,80.7877441 8.16436261,81.0253358 C8.76168309,81.6247644 9.46649241,82.0389151 10.2780691,82.2663346 C11.5152728,82.6092805 12.8650151,82.4334481 13.9694809,81.7809791 C15.0400408,81.1474013 15.8436821,80.1033057 16.1733626,78.8971827 C16.4777941,77.7818822 16.423689,76.147077 15.6885808,75.1792723 C15.2788247,74.6386967 14.866183,74.1010274 14.4528199,73.5640847 C14.0214218,72.9348663 13.6592782,72.2816708 13.3267121,71.6008653 C12.634888,69.7270152 12.2272961,67.8102969 11.8651526,65.8405382 C11.6660457,64.1439736 11.5037304,62.4481357 11.433033,60.7384927 C11.3399722,58.5071652 11.3262656,56.2794706 11.337808,54.0459633 C11.3580073,50.2815518 11.5333078,46.5069682 11.9322429,42.7621743 C12.2561522,40.9166608 12.6933215,39.1510712 13.3050701,37.3767625 C14.1974438,35.4019178 15.1929779,33.489559 16.427296,31.7087111 C16.9618545,31.0867586 17.5288761,30.5054945 18.1399032,29.9591062 C18.8223491,29.4962747 19.5293226,29.0843038 20.2673164,28.7137479 C21.3306623,28.3308402 22.4048292,28.0394816 23.512902,27.8265936 C24.4038329,27.7641077 25.2832214,27.7575685 26.1683811,27.8171481 C27.3529225,28.0663651 28.5021151,28.4165767 29.6368798,28.8452589 C31.5925994,29.7404056 33.5165773,30.7895873 35.2450554,32.0523835 C35.9044164,32.5319264 36.5623346,33.013649 37.2209743,33.4939185 C39.7429941,35.5835628 42.029837,37.8897281 44.0872742,40.4436572 C47.4569409,45.0915901 50.1405546,50.2110735 52.7311076,55.3283772 C55.0929763,59.997381 57.3271569,64.7056201 59.4213856,69.498869 C61.2119042,73.9891341 62.9007053,78.4873915 64.3038313,83.1229726 C65.5886474,87.3625675 66.331691,91.720595 66.9917734,96.0946072 C67.4051365,99.8183303 67.804793,103.552225 67.9815364,107.296293 C68.0890252,109.532706 68.1395233,111.746596 68.1452945,113.985916 C68.1474587,115.577126 67.9526803,117.181415 67.7420311,118.770446 C67.2045869,121.75669 66.6390081,124.753833 65.5857618,127.606386 C65.0050336,128.847385 64.3298017,130.026625 63.5485238,131.157183 C62.8437145,132.010915 62.0912927,132.805794 61.2580739,133.534553 C60.5734639,133.999565 59.8693759,134.407903 59.1292179,134.771919 C58.4381153,135.017503 57.744127,135.215133 57.0277752,135.368442 C56.4275691,135.407677 55.8352985,135.40695 55.234371,135.366262 C54.2474937,135.154827 53.3039004,134.85257 52.3675212,134.488553 C49.6521658,133.206866 47.1431312,131.564068 44.7466352,129.75561 C41.0436811,126.792617 37.6278447,123.491763 34.6614416,119.776033 C32.3486282,116.653191 30.3820876,113.33054 28.6904009,109.818979 C28.1702704,108.737101 27.7056878,107.625433 27.2403838,106.516672 C26.0947981,103.509357 24.9888896,100.502042 24.0351967,97.4278817 C23.5872064,95.9885265 23.1615794,94.5353663 22.8542624,93.0596821 C22.5390099,91.552755 22.2937334,90.0458278 22.0650491,88.5229159 C22.0347502,88.2947698 22.0051728,88.0673502 21.9748739,87.8399306 C22.0044514,88.0593578 22.0340288,88.278785 22.0628849,88.4989388 C22.028979,88.2090333 22.0008443,87.9198544 21.9784809,87.629949 C21.9755953,86.6875746 21.7411398,85.8105924 21.2736716,84.9990024 C20.5948327,83.8328414 19.4730533,82.9616718 18.1795803,82.6034678 C16.8435447,82.2350917 15.3870349,82.4247291 14.192394,83.1287852 C13.1268839,83.7587302 12.0361247,84.9735721 11.8139331,86.2450873 C11.5571141,87.7265841 11.3825349,89.1376027 11.4561179,90.6299982 C11.5181584,91.8906147 11.689852,93.2580385 11.9408997,94.4845057 C12.3239639,96.3692545 12.7806111,98.2169477 13.4031807,100.036304 C14.7976499,104.100067 16.3594842,108.113695 18.1175398,112.032868 C19.7262653,115.620721 21.4850422,119.097407 23.6463613,122.392448 C26.8140355,127.222752 30.7081611,131.514661 35.0675906,135.272533 C39.3931143,139.004249 44.0656322,142.328353 49.3578339,144.505187 C51.8827394,145.546376 54.5988162,146.113835 57.3379779,145.980871 C60.649211,145.815937 63.8421343,144.720981 66.7082626,143.07455 C68.0183279,142.32254 69.2071976,141.311867 70.3405194,140.318632 C71.3209042,139.455455 72.1750436,138.454227 72.9779635,137.426117 C73.9244424,136.217087 74.8038308,134.994253 75.5677951,133.657346 C76.3483516,132.292102 76.9261942,130.816417 77.5235147,129.363257 C78.2218314,127.660153 78.7628826,125.846609 79.1942807,124.061402 C79.7692377,121.688391 80.2424771,119.310295 80.5101171,116.880611 C80.6176059,115.906994 80.7921851,114.916665 80.8318622,113.934329 C80.8794747,112.824841 80.924923,111.715353 80.9696499,110.602232 C81.0540539,108.624481 80.9415152,106.617667 80.8852459,104.639189 C80.8347478,102.905569 80.7777571,101.159597 80.6341982,99.4317896 C80.4653902,97.3712085 80.2936966,95.3244323 80.0368777,93.2725701 C79.7129684,90.6641475 79.3270186,88.0789755 78.8761426,85.4872643 C78.2362594,81.7976905 77.2385611,78.1618836 76.1146175,74.5972816 C74.953161,70.9157002 73.6517526,67.2748073 72.2060639,63.6956737 C69.035504,55.8653199 65.5583486,48.1395937 61.6072323,40.6718033 C58.220252,34.2662731 53.9762467,28.2552759 48.4813311,23.5092546 C45.5142065,20.9466066 42.2368792,18.5990263 38.7734304,16.768771 C36.1951413,15.4093396 33.4220737,14.2657025 30.5783088,13.6096007 C28.9609265,13.2383183 27.2677971,13.0675719 25.6107377,13.0079924 C25.4556364,13.0029063 25.300535,13 25.1447123,13 C23.2885461,13 21.3934242,13.3603837 19.5913632,13.7403851" id="Fill-25" fill="#2C2C2C"></path>
                <path d="M296.925459,24.6748432 C297.069144,24.8605156 297.212829,25.046188 297.355788,25.2318604 C297.212829,25.0469133 297.069144,24.8605156 296.925459,24.6748432 M279.869062,12.4066861 C281.258014,12.7004256 282.599798,13.05799 283.930696,13.5533581 C285.932849,14.4744671 287.829778,15.5703693 289.617855,16.8606473 C290.610586,17.6787662 291.556874,18.5418526 292.474134,19.4520824 C293.446546,20.418159 294.418958,21.4328295 295.257845,22.5207536 C295.659146,23.0378801 296.060448,23.555732 296.460298,24.0728586 C298.406573,26.8311087 300.053868,29.7351407 301.427582,32.8103394 C303.501577,37.9417146 304.907946,43.3160596 306.321572,48.6563162 C306.984844,51.1607174 307.515316,53.7108114 308.065382,56.2434987 C308.544331,58.4512592 308.972483,60.6597451 309.32081,62.8892642 C309.793953,67.1104096 309.770006,71.388127 309.661154,75.6274045 C309.553753,79.9276057 309.192364,84.2220047 308.673503,88.4895682 C308.305582,90.8655943 307.804863,93.2227631 307.024756,95.5023267 C306.20764,97.8848804 305.296911,100.226818 304.344092,102.556426 C304.002296,103.344809 303.651793,104.128839 303.294032,104.910694 C303.06762,105.409689 302.817986,105.897079 302.579962,106.390271 C301.915965,107.763956 301.130778,109.028849 300.238191,110.251676 C299.405835,111.24894 298.510345,112.168598 297.525597,113.01863 C296.939247,113.41681 296.333304,113.769297 295.699059,114.092773 C295.122868,114.292951 294.54305,114.451063 293.942186,114.575086 C293.367447,114.614977 292.798513,114.62223 292.223774,114.591768 C291.432782,114.424227 290.666464,114.202291 289.907402,113.926684 C288.971274,113.466854 288.094652,112.937398 287.246331,112.333963 C285.399474,110.783308 283.7217,109.031025 282.201399,107.158345 C277.736286,101.20595 274.215284,94.5978992 270.627519,88.0993661 C269.845235,86.6799878 269.070934,85.2606095 268.311147,83.8296267 C266.982425,81.3259508 265.634836,78.8360552 264.465765,76.2511476 C263.737182,74.3958744 263.151557,72.501436 262.797425,70.5417221 C262.682042,69.1926963 262.665351,67.8589013 262.773478,66.5098755 C263.086972,64.7670211 263.570275,63.0930686 264.195812,61.4372482 C264.573166,60.6321844 264.96213,59.8394504 265.369237,59.0481669 C265.873585,58.073387 266.284321,57.0565406 266.692879,56.0396942 C266.987505,55.3057081 267.07241,54.3084444 267.12103,53.6230522 C267.217546,52.2058498 266.871396,50.798076 266.1029,49.599909 C265.173304,48.1522447 263.894654,47.0722987 262.211075,46.6081178 C261.63561,46.5312378 261.057243,46.4550831 260.481778,46.3753021 C260.220533,46.3767526 259.962191,46.3927088 259.708203,46.4224454 C259.751744,43.8767031 259.889623,41.3353125 260.189329,38.8026252 C260.552895,36.5404684 261.034747,34.297169 261.613114,32.0792545 C261.938945,30.8245154 262.256793,29.5668751 262.636324,28.3259164 C262.972314,27.2271131 263.281454,26.0898698 263.701623,25.0142755 C264.324983,23.5847433 265.002769,22.1820465 265.853992,20.8663837 C266.760367,19.4658628 267.687061,18.0929026 268.664553,16.7475032 C269.369915,15.8989224 270.12172,15.1141665 270.962783,14.3903343 C271.732731,13.8470976 272.533882,13.358257 273.377849,12.9346919 C274.099901,12.6815683 274.832113,12.4842914 275.583192,12.337059 C277.022942,12.2275413 278.438745,12.2688824 279.869062,12.4066861 M273.652156,0.382223991 C271.361182,0.739788369 269.161644,1.57821519 267.155137,2.74519507 C266.004208,3.41680687 264.951971,4.3009265 263.917876,5.13064992 C262.692927,6.11703441 261.726321,7.3006958 260.77713,8.54455566 C259.373664,10.3860485 258.270629,12.460357 257.233632,14.5223358 C256.212599,16.5538527 255.294613,18.6644254 254.670528,20.851878 C253.587812,24.6596123 253.165466,28.6290846 252.627011,32.5412596 C252.420192,34.048397 252.139354,35.62081 252.159673,37.1482554 C252.176364,38.5139627 252.227161,39.8651644 252.369395,41.2221684 C252.680712,44.2451467 253.108863,47.2594217 253.582007,50.2628174 L253.671991,50.8212851 C253.551528,51.0098586 253.444853,51.1998827 253.358497,51.3899067 C252.760537,52.699042 252.182169,54.0306611 251.79393,55.4217533 C250.478271,60.1302887 249.574073,65.0092656 250.206141,69.9020227 C250.421668,71.5788764 250.682187,73.2027844 251.13864,74.8317694 C251.569695,76.3613906 252.232967,77.8489454 252.865035,79.302412 C253.817853,81.4840624 254.948464,83.5721513 256.173412,85.6145475 C257.324342,87.5350961 258.478174,89.4534689 259.628378,91.3711164 C260.697305,93.1538613 261.772038,94.9329798 262.843143,96.7149994 C264.713948,99.8228359 266.53976,102.961859 268.523771,106.001519 C271.540425,110.62012 274.74358,115.153137 278.833515,118.889793 C279.93655,119.89576 281.146985,120.802364 282.368306,121.654571 C283.604866,122.516207 285.004703,123.133422 286.399462,123.686088 C287.621508,124.170577 288.837023,124.519438 290.135991,124.723242 C291.025676,124.864672 291.890687,124.964036 292.786177,124.995223 C293.86599,125.032212 295.056831,124.847991 296.10544,124.663769 C302.26792,123.575845 306.899939,118.997135 310.182918,113.937563 C310.97899,112.710384 311.605252,111.347578 312.209744,110.013783 C312.654586,109.033201 313.082738,108.050443 313.502181,107.058256 C314.366467,105.012959 315.197371,102.958958 315.965141,100.879573 C316.589227,99.1853123 317.195896,97.4881508 317.63203,95.7315161 C318.652337,91.6177125 319.1458,87.3740833 319.47163,83.1500368 C319.769159,79.3277969 320.015891,75.4859744 319.9992,71.6528552 C319.990492,69.6612289 319.965093,67.6696026 319.891074,65.6808773 C319.823585,63.8676706 319.610961,62.0769475 319.386726,60.2775211 C318.83666,55.8946377 317.921576,51.5632493 316.991254,47.2485424 C316.161075,43.3893131 315.129157,39.5815789 314.100142,35.7709435 C313.862119,34.8926261 313.547174,34.0288144 313.272141,33.1621016 C312.833104,31.7818886 312.388262,30.4248846 311.8694,29.0736829 C310.225008,24.7901632 308.16988,20.7104479 305.519695,16.9621868 C304.465281,15.474632 303.37676,14.0240666 302.214219,12.6162928 C301.338323,11.5595559 300.39131,10.5702703 299.416721,9.60709484 C298.138071,8.34945461 296.703401,7.27240978 295.286146,6.18158458 C292.961791,4.38868571 290.328296,3.07664928 287.62949,1.95753805 C286.042427,1.29753078 284.449558,0.855833603 282.773961,0.504071487 C281.886454,0.317673829 280.888643,0.249497254 279.97356,0.127649758 C279.522912,0.0681765752 279.069362,0.0536709209 278.612909,0.025384895 C278.317557,0.00797810986 278.022205,0 277.726853,0 C276.362573,0 274.993939,0.172617286 273.652156,0.382223991" id="Fill-27" fill="#2C2C2C"></path>
            </g>
        </g>
    </g>
</svg>