<?xml version="1.0" encoding="UTF-8"?>
<svg width="483px" height="363px" viewBox="0 0 483 363" version="1.1" xmlns="http://www.w3.org/2000/svg" xmlns:xlink="http://www.w3.org/1999/xlink">
    <!-- Generator: Sketch 51.1 (57501) - http://www.bohemiancoding.com/sketch -->
    <title>theroad</title>
    <desc>Created with Sketch.</desc>
    <defs>
        <polygon id="path-1" points="0 0 253 0 253 97.7246094 144.328125 139 73.6210938 139 7.47851562 110.005859"></polygon>
    </defs>
    <g id="posts" stroke="none" stroke-width="1" fill="none" fill-rule="evenodd">
        <g id="theroad_DL" transform="translate(-159.000000, -265.000000)">
            <g id="theroad" transform="translate(159.000000, 265.000000)">
                <path d="M241,176.046875 C272.135417,187.678472 287.703125,202.487873 287.703125,220.47508 C287.703125,238.462287 272.135417,247.948071 241,248.932434 C198.041667,253.705248 176.5625,259.158322 176.5625,265.291656 C176.5625,271.424991 198.041667,303.994439 241,363 L358.828125,363 C276.541667,316.835116 237.265625,289.009171 241,279.522165 C246.601562,265.291656 322.007812,266.566687 322.007812,243.520883 C322.007812,220.47508 298.078125,188.591999 287.703125,188.591999 C280.786458,188.591999 270.098958,184.410291 255.640625,176.046875 L241,176.046875 Z" id="Path-15" fill="#FFFFFF"></path>
                <g id="Oval" transform="translate(117.000000, 38.000000)">
                    <mask id="mask-2" fill="white">
                        <use xlink:href="#path-1"></use>
                    </mask>
                    <g id="Mask" fill-rule="nonzero"></g>
                    <ellipse fill="#FFFFFF" fill-rule="nonzero" mask="url(#mask-2)" cx="124" cy="133.5" rx="110" ry="114.5"></ellipse>
                </g>
                <path d="M227.512305,172.872773 C227.798927,172.904617 228.085548,172.937201 228.37217,172.970526 C228.085548,172.937942 227.798927,172.905357 227.512305,172.872773 M271.151131,164.43117 C271.018982,164.477825 270.885939,164.52374 270.752897,164.569654 C270.885046,164.522999 271.018982,164.477085 271.151131,164.43117 M467.094131,123.006665 C464.757405,123.046655 462.420679,123.154036 460.087525,123.269563 C454.935477,123.527276 449.794144,123.897554 444.642989,124.181188 C439.557909,124.458896 434.458543,124.49 429.365427,124.635149 C424.311598,124.779557 419.264913,124.95581 414.211085,125.092072 C409.013499,125.233518 403.816806,125.312017 398.620113,125.48827 C393.235018,125.676371 387.856173,126.289552 382.537153,126.998264 C377.73423,127.635143 372.956308,128.409765 368.142671,128.994804 C362.79597,129.639829 357.445698,130.25301 352.129356,131.062438 C347.333577,131.794848 342.603872,132.957522 338.03489,134.360876 C332.673903,136.00343 327.316487,137.73337 322.297482,140.012803 C320.163445,140.982191 318.024943,141.99157 316.057879,143.180903 C313.805086,144.540565 311.558543,145.90541 309.319144,147.273959 C305.39573,149.67188 301.122298,151.607695 296.76672,153.392436 C292.113804,155.298628 287.561787,157.323309 283.048165,159.450188 C281.049849,160.392916 279.037247,161.341569 276.962141,162.16877 C274.577198,163.121126 272.182434,164.030529 269.759989,164.914013 C264.83206,166.62692 259.880915,168.358341 254.754762,169.603216 C251.671569,170.349697 248.570519,171.000646 245.434645,171.596794 C242.635395,172.129254 239.821859,172.666898 236.981536,173.043101 C234.587665,173.246013 232.222366,173.226018 229.815993,173.063096 C228.829336,172.999408 227.842679,172.888325 226.8587,172.797236 C220.270865,172.032982 213.658922,171.133946 207.266632,169.583221 C200.221631,167.871795 193.296279,165.887845 186.479861,163.634331 C182.019813,162.019918 177.651734,160.286276 173.325621,158.434144 C169.091477,156.617559 164.951981,154.66249 160.643726,152.967357 C155.443461,150.92194 150.155692,149.061662 144.80542,147.305803 C140.309656,145.830614 135.684421,144.624248 131.084187,143.406032 C126.354482,142.153752 121.642635,140.802977 116.839713,139.761754 C115.015513,139.364816 113.21185,138.989354 111.356398,138.696834 C107.279405,138.051809 103.159553,137.805945 99.0200564,137.997008 C96.4734983,138.112535 93.9340835,138.430974 91.4196699,138.786441 C90.1847857,138.960472 88.9436511,139.110805 87.7221604,139.347783 C86.3899498,139.605497 85.0577392,139.86247 83.7255286,140.123146 C82.3263503,140.391968 80.9521733,140.817047 79.5779963,141.161406 C77.0841194,141.783473 74.632209,142.602529 72.2365515,143.443801 C67.485417,145.113015 62.7530335,146.839993 58.1277983,148.741001 C55.7660711,149.709649 53.41238,150.676075 51.0926191,151.705448 C48.6898184,152.773331 46.3557711,153.918972 44.0119019,155.072758 C43.1297142,155.506725 42.2993148,156.01919 41.4555219,156.49907 C40.5099381,157.037455 39.5545324,157.561028 38.6410931,158.13644 C36.3766922,159.568677 34.1096126,160.994248 31.8389615,162.420559 C27.3646268,165.22949 22.5893839,167.685916 18.282022,170.674061 C15.5783131,172.551371 13.2942684,174.842653 11.0057592,177.052473 C9.31103013,178.692806 7.75559389,180.433854 6.00461199,182.034196 C5.53494525,182.46446 5.0295624,182.851771 4.50007119,183.221308 C3.94915032,183.533823 3.39465783,183.840414 2.83391503,184.139598 C1.560636,184.819429 0.61237349,185.748087 0.204317025,186.977411 C-0.20373944,188.20155 0.00519975662,189.537514 0.779346267,190.634278 C2.29995931,192.79226 5.98675394,193.740913 8.61010163,192.338299 C10.3816203,191.388905 12.1084938,190.382489 13.6326785,189.170198 C14.4621849,188.511103 15.1773999,187.752773 15.9131516,187.027028 C16.8060541,186.150209 17.6543116,185.242287 18.5606076,184.377317 C19.5865527,183.39608 20.60089,182.409659 21.6616582,181.455081 C23.4233549,179.868069 25.218982,178.36548 27.2199766,176.991007 C28.7780915,176.046057 30.3379923,175.110734 31.9300375,174.202812 C33.7685239,173.152703 35.6373689,172.120368 37.4267456,171.012495 C39.3768448,169.803166 41.3296227,168.5968 43.2725786,167.387471 C45.2432145,166.16111 47.2701033,165.027318 49.306814,163.881677 C50.0318509,163.473631 50.8104619,163.12631 51.5667504,162.758994 C52.6132322,162.250231 53.6454275,161.700739 54.7195893,161.229004 C56.7429065,160.338115 58.7555088,159.432414 60.8136492,158.596326 C65.0817234,156.863424 69.391764,155.212724 73.7187697,153.579056 C77.0528679,152.423788 80.3941092,151.309991 83.8612498,150.450205 C84.87648,150.201378 85.8917102,149.949589 86.9060475,149.69854 C87.9632441,149.434902 89.0758007,149.284569 90.1499625,149.079435 C92.0080927,148.723228 93.8867596,148.478103 95.7698911,148.22113 C99.3459658,147.888621 102.886324,147.805678 106.474007,148.11449 C113.721697,149.049072 120.691694,151.187799 127.65187,153.042153 C130.658272,153.840473 133.651282,154.66249 136.637148,155.506725 C139.471221,156.304304 142.247255,157.240367 145.027753,158.157176 C149.365474,159.698274 153.65587,161.311206 157.86412,163.089282 C162.143802,164.89698 166.291334,166.916478 170.595125,168.680483 C172.928279,169.63506 175.258755,170.624444 177.650841,171.48423 C180.532237,172.519527 183.419884,173.525944 186.332532,174.501256 C191.06938,176.086047 195.976773,177.362026 200.838627,178.655037 C205.546902,179.905097 210.367683,180.787099 215.216144,181.565424 C217.618945,181.949773 220.056569,182.26525 222.480799,182.539997 C226.450644,182.991736 230.426739,183.497536 234.4448,183.433848 C238.340534,183.373123 242.226446,182.658486 246.021282,181.964584 C248.504444,181.510623 250.984034,181.038889 253.450231,180.524202 C258.106718,179.548889 262.668557,178.278835 267.125926,176.791798 C272.441375,175.018905 277.729144,173.208245 282.898157,171.159866 C287.177839,169.46177 291.164649,167.323784 295.356826,165.498312 C300.08296,163.441787 304.924277,161.564476 309.560227,159.371689 C313.979202,157.277395 317.986549,154.638792 322.088543,152.154226 C323.87792,151.06931 325.788731,150.100663 327.728115,149.214957 C328.739774,148.752109 329.737146,148.257418 330.780056,147.849371 C331.96851,147.386523 333.159642,146.923676 334.348988,146.460828 C336.090148,145.86542 337.829522,145.273716 339.593897,144.725704 C342.049379,143.964412 344.512005,143.276435 347.005881,142.602529 C349.182778,142.015267 351.428428,141.607221 353.647291,141.135486 C354.787527,140.892584 355.987588,140.76817 357.149254,140.585994 C358.121625,140.435661 359.094889,140.264592 360.075296,140.143141 C365.010368,139.535885 369.952584,138.954548 374.874263,138.271755 C379.360205,137.649687 383.839005,136.997257 388.327626,136.396666 C390.406303,136.181164 392.481408,135.965662 394.567229,135.833102 C397.399516,135.653888 400.213944,135.535399 403.049803,135.436905 C408.131311,135.259912 413.219963,135.219922 418.302364,135.083659 C423.021354,134.959246 427.736773,134.76522 432.459334,134.661542 C437.604239,134.548978 442.749143,134.447521 447.883333,134.112049 C451.548698,133.869147 455.214956,133.63439 458.883892,133.452213 C460.589336,133.365568 462.29478,133.284107 464.001117,133.218198 C466.311056,133.12785 468.620102,133.018988 470.924683,133.178208 C472.45869,133.40704 473.970374,133.720295 475.455271,134.117233 C478.548285,134.948137 481.956494,133.177467 482.789572,130.66624 C483.211915,129.391002 482.992261,127.999496 482.186863,126.856818 C481.352892,125.670446 480.132294,125.051341 478.625075,124.585531 C475.142755,123.507281 471.521142,123 467.813811,123 C467.57362,123 467.335215,123.002222 467.094131,123.006665" id="Fill-29" fill="#000000"></path>
                <path d="M246.684933,175.344001 C246.273282,176.504222 246.485804,177.770424 247.263566,178.811415 C248.055615,179.867746 249.255744,180.491783 250.710364,180.878058 C257.151232,182.593288 263.587636,184.274353 269.89724,186.263602 C273.336894,187.481694 276.497947,188.985658 279.563453,190.713438 C280.689467,191.34654 281.768154,192.034723 282.862914,192.700595 C282.55931,192.517219 282.254813,192.335237 281.952995,192.151164 C285.175661,194.226871 288.339393,196.326982 291.332571,198.606285 C293.850697,200.525112 296.115226,202.637076 298.321712,204.775536 C300.771081,207.392307 303.157944,210.043244 305.337642,212.807135 C306.467227,214.242769 307.583418,215.686072 308.56388,217.187247 C309.580953,218.740018 310.529269,220.298367 311.452582,221.882515 C312.169623,223.263763 312.892022,224.646406 313.457261,226.068791 C313.841231,227.035874 314.207341,228.000168 314.538627,228.980499 C314.785975,229.709123 314.95385,230.448206 315.130655,231.186592 C315.386932,232.951326 315.558379,234.70351 315.379788,236.481493 C315.094044,237.648686 314.674356,238.778925 314.136798,239.888944 C313.752828,240.523439 313.334927,241.134926 312.840231,241.719219 C312.206234,242.280504 311.523125,242.792284 310.790904,243.274082 C309.361287,244.049422 307.854876,244.699257 306.274349,245.261936 C300.588026,246.996689 294.537378,248.043259 288.618887,249.170709 C284.19252,250.017865 279.717041,250.733939 275.221024,251.319627 C270.424975,251.940178 265.625354,252.5426 260.84002,253.223114 C258.488875,253.55849 256.186843,254.013096 253.905349,254.557646 C251.296141,255.181683 248.802124,256.123665 246.392044,257.107482 C243.929281,258.112217 241.669217,259.563887 239.795802,261.159888 C238.725152,262.072585 237.810768,263.121246 237.061581,264.210347 C236.600817,264.880403 236.273104,265.604843 235.906993,266.307669 C235.435514,267.214789 235.306929,268.197909 235.146197,269.156625 C234.344326,273.977397 236.935675,278.740995 240.602139,282.527052 C243.702471,285.729512 246.901027,288.892228 250.504092,291.762798 C257.204809,297.103718 264.564526,301.900087 271.61796,306.949556 C286.232917,317.413854 300.87645,327.858629 315.275313,338.502816 C318.289028,340.733313 321.239344,343.016102 324.197697,345.292617 C325.579095,346.358012 326.966743,347.414343 328.382966,348.454637 C329.676855,349.408472 331.09665,350.337206 332.586095,351.083262 C334.697035,352.1375 337.608954,352.355042 339.806511,351.353096 C341.777258,350.451555 343.228306,348.648472 342.970243,346.834232 C342.966671,345.989865 342.695213,345.205461 342.154084,344.475442 C341.510265,343.616433 340.515516,342.933827 339.348426,342.541277 C338.776044,342.104102 338.217055,341.65368 337.643779,341.223478 C336.779401,340.570157 335.899843,339.927294 335.034571,339.273275 C333.319209,337.982669 331.609205,336.685788 329.897414,335.392393 C326.646173,332.935988 323.367251,330.495621 320.039216,328.101271 C312.571452,322.722003 305.117975,317.332276 297.65289,311.953008 C290.540522,306.824052 283.345108,301.763426 276.152374,296.703497 C272.754689,294.311937 269.266815,291.997074 265.890561,289.589476 C262.262494,287.001989 258.802302,284.307823 255.548382,281.431675 C254.51345,280.514794 253.5187,279.575601 252.518593,278.636408 C250.882704,276.95116 249.330752,275.253361 248.13866,273.34081 C247.88774,272.791378 247.682361,272.240552 247.52163,271.668809 C247.475196,271.117286 247.469838,270.569946 247.510914,270.017726 C247.608246,269.699083 247.720758,269.388808 247.852022,269.079927 C248.111871,268.69156 248.392259,268.317138 248.700327,267.95178 C249.27271,267.456037 249.884383,266.994459 250.534452,266.56077 C252.073903,265.736623 253.709792,265.078421 255.39658,264.466237 C257.421797,263.888916 259.454157,263.42176 261.554382,263.011778 C263.93678,262.548805 266.395972,262.262934 268.813195,261.922677 C273.386006,261.274236 277.973104,260.691337 282.538772,260.008034 C287.091045,259.326823 291.594206,258.433648 296.069685,257.504914 C298.577096,256.984767 301.078257,256.443005 303.575846,255.894968 C309.76758,254.538821 315.868234,252.520985 320.527661,248.974782 C322.935062,247.141717 324.333426,244.856138 325.561236,242.459697 C326.900665,239.839439 327.403397,236.949346 327.298029,234.144317 C327.218556,231.949381 326.774759,229.732132 326.245238,227.583214 C325.798761,225.780131 325.037965,224.012607 324.239666,222.285524 C323.283313,220.223762 322.195697,218.203137 321.030393,216.209008 C316.896915,209.11939 311.151657,202.681003 304.935813,196.62122 C302.40072,194.150871 299.460227,191.882026 296.456334,189.76797 C292.961317,187.311566 289.250205,185.067124 285.521234,182.833839 C281.552059,180.456223 277.098011,178.767489 272.472516,177.329764 C270.494625,176.714094 268.496197,176.144442 266.494197,175.575488 C262.287496,174.382496 258.011146,173.328257 253.772299,172.198018 C253.263316,172.062752 252.743617,172 252.228384,172 C249.73526,172 247.343932,173.472588 246.684933,175.344001" id="Fill-81" fill="#000000"></path>
                <path d="M275.55279,233.374349 C275.291151,233.46111 275.028616,233.547871 274.76608,233.634632 C275.027719,233.547871 275.290255,233.46111 275.55279,233.374349 M226.538448,173.677994 C225.170219,174.303512 224.14427,175.342543 223.724035,176.536904 C223.286775,177.771846 223.510781,179.119438 224.3405,180.22354 C225.190827,181.357728 226.454222,181.991641 228.001657,182.421248 C229.242651,182.766892 230.471997,183.130028 231.703135,183.492464 C233.097349,183.961252 234.472747,184.448233 235.799759,185.036667 C237.476222,185.777633 239.044265,186.668331 240.632916,187.510051 C242.659724,188.584066 244.640835,189.707759 246.649722,190.800665 C250.795628,193.058546 254.945119,195.306632 259.002318,197.655471 C261.652759,199.282937 264.241375,200.968476 266.743971,202.736578 C269.60677,204.758665 272.215098,206.912993 274.684542,209.22335 C278.256992,212.94567 281.523898,216.82332 284.003199,221.060607 C284.868758,222.795124 285.651884,224.547133 286.097208,226.374009 C286.109753,226.669275 286.104376,226.957545 286.083768,227.247914 C286.001334,227.538283 285.904563,227.822355 285.789872,228.105727 C285.607083,228.374406 285.409957,228.633989 285.195807,228.889373 C284.63848,229.377053 284.044416,229.825551 283.409134,230.250259 C281.116207,231.481004 278.612714,232.358408 276.068004,233.203626 C271.754541,234.512036 267.433014,235.803653 263.029949,236.914751 C258.323132,238.103514 253.580473,239.180328 248.819894,240.232653 C239.908929,242.202964 230.822342,243.596735 221.837903,245.338249 C217.119437,246.253436 212.398283,247.185415 207.788236,248.399367 C202.82874,249.705678 197.865659,251.09665 193.161529,252.906033 C191.005694,253.737258 188.986054,254.658042 187.050641,255.77054 C185.892081,256.43454 184.810579,257.139822 183.781047,257.921369 C182.531989,258.867342 181.478264,260.00153 180.48726,261.11123 C179.539266,262.171251 178.937138,263.434181 178.369954,264.634139 C177.596685,266.268602 177.382535,268.063991 177.106559,269.777518 C176.924666,270.895613 176.99814,272.013709 177.158529,273.128305 C177.354758,274.481495 177.635214,275.801799 178.131612,277.10531 C179.153976,279.805392 181.012331,282.306763 182.945056,284.662599 C184.291781,286.304758 185.780078,287.876948 187.256727,289.451238 C192.730542,295.2943 198.751827,300.825304 204.532082,306.485749 C210.12238,312.282633 215.503009,318.198462 221.081658,324.000244 C223.7769,326.807377 226.384332,329.65789 228.79195,332.618254 C229.909293,333.993133 230.95585,335.408594 231.918181,336.852043 C232.379633,337.551727 232.810621,338.267504 233.289994,338.958792 C233.752343,339.623492 234.35716,340.257406 234.984377,340.82275 C235.631307,341.410485 236.349023,341.989824 237.255799,342.339666 C238.802338,342.935797 240.364109,343.198178 242.075516,342.831544 C243.636391,342.495695 244.994765,341.678464 245.813731,340.585558 C246.9929,339.011268 246.88,337.138214 245.781474,335.664679 L245.813731,335.654883 C245.630942,335.326731 245.354966,335.023068 245.116624,334.717306 C244.844232,334.361867 244.616642,333.984737 244.381884,333.616003 C243.891758,332.853348 243.419553,332.085094 242.915091,331.328036 C241.910648,329.813919 240.748504,328.354378 239.572919,326.919326 C237.031793,323.823223 234.171683,320.892946 231.312468,317.973864 C225.264301,311.808247 219.622034,305.393542 213.38839,299.341973 C208.486239,294.584821 203.488214,289.88994 198.646992,285.095704 C195.655166,281.970215 192.507431,278.814639 190.397293,275.264441 C189.968994,274.342258 189.641945,273.416575 189.408978,272.457308 C189.313103,271.532326 189.320272,270.622736 189.422418,269.694955 C189.624024,268.781168 189.893727,267.88977 190.265578,267.005369 C190.592627,266.502296 190.959997,266.022313 191.370376,265.552825 C192.15619,264.825153 193.002037,264.155555 193.926734,263.529338 C195.305716,262.754788 196.727708,262.044608 198.253638,261.444279 C199.841393,260.82296 201.447966,260.249219 203.072458,259.698567 C207.548998,258.324387 212.090051,257.117432 216.709954,256.070705 C221.095995,255.079252 225.551029,254.250826 229.999792,253.455285 C234.847285,252.586277 239.692091,251.71727 244.521664,250.790888 C249.190848,249.896691 253.804479,248.831072 258.41363,247.77315 C262.803255,246.764905 267.129262,245.627918 271.444517,244.438455 C273.838695,243.780052 276.201512,243.041885 278.563433,242.314914 C282.22459,241.19192 285.969973,240.005956 289.249423,238.294528 C292.007387,236.857377 294.450846,234.982223 296.068171,232.70825 C296.837856,231.625838 297.362926,230.40419 297.64607,229.188139 C297.8423,228.348518 297.954303,227.485107 298,226.632192 C297.985664,226.246666 297.94355,225.859041 297.866492,225.476314 C297.775994,224.86409 297.663991,224.254665 297.530483,223.648039 C297.135336,221.745598 296.211535,219.887237 295.336119,218.093946 C293.579014,214.508065 291.153475,211.168472 288.437625,207.975813 C285.542569,204.573249 282.340177,201.367296 278.739054,198.402034 C277.205955,197.141903 275.504405,195.99652 273.835111,194.848338 C272.162233,193.703655 270.475018,192.552675 268.71433,191.487056 C264.668778,189.046557 260.538105,186.720107 256.338437,184.440536 C252.372632,182.289707 248.441771,180.095497 244.451774,177.971256 C240.430415,175.834421 235.823952,174.46234 231.259602,173.193813 C230.776645,173.060873 230.251575,173 229.71844,173 C228.599305,173 227.438953,173.26518 226.538448,173.677994" id="Fill-83" fill="#000000"></path>
                <g id="Group-2" transform="translate(83.000000, 0.000000)" fill="#000000">
                    <path d="M79.8990242,120.798462 C79.8765862,120.851116 79.8541482,120.90377 79.832484,120.957198 C79.8541482,120.90377 79.8765862,120.851116 79.8990242,120.798462 M139.349627,67.3538115 C135.091052,68.1529144 130.887412,69.0604227 126.707757,70.2064229 C122.94746,71.2347258 119.208827,72.5448829 115.5731,73.9479588 C112.971067,74.9522577 110.413911,76.0231484 107.866039,77.1544365 C103.686384,79.005072 99.9384663,81.8305821 96.5325348,84.8458016 C93.491801,87.5412251 90.4998117,90.2962717 87.5349027,93.0760966 C83.0558166,97.2744839 78.5070954,101.482163 75.2187699,106.72976 C72.7010732,110.749279 70.7365889,115.041359 69.2734775,119.554897 C68.1036074,123.163249 67.8196508,126.998478 67.4149934,130.751629 C67.2726282,132.061786 68.0587314,133.570944 68.9500611,134.462966 C69.9295952,135.443261 71.271232,136 72.6585184,136 C74.04271,136 75.3874417,135.443261 76.3638809,134.462966 C76.6393265,134.1091 76.9109035,133.755233 77.1863491,133.401367 C77.6606417,132.582132 77.8997223,131.698627 77.9020435,130.751629 C78.0335765,129.535165 78.1712993,128.32025 78.3097958,127.103786 C78.5457816,125.578367 78.8444389,124.059916 79.3380746,122.59412 C79.5856661,121.853866 79.7922503,121.077219 80.0862653,120.353999 C80.2936232,119.861529 80.5025286,119.368284 80.7098866,118.87504 C80.6928646,118.916079 80.6758427,118.957118 80.6588208,118.998157 C81.3536246,117.567206 82.0584868,116.167227 82.8322105,114.778863 C83.6461677,113.327005 84.5792784,111.931672 85.574287,110.592091 C88.642875,106.817259 92.3296681,103.550384 95.9460523,100.311385 C99.1825383,97.4138623 102.381112,94.4466509 105.779306,91.7334179 C108.142258,89.9873162 110.646801,88.514551 113.312279,87.2624683 C113.275141,87.2787291 113.237228,87.29499 113.200089,87.3104764 C114.157959,86.9039561 115.117377,86.4989844 116.096137,86.1435694 C117.72792,85.5535342 119.359703,84.9727908 121.006961,84.4199231 C123.933184,83.4396283 126.879523,82.4593336 129.871512,81.6881064 C135.710805,80.1866912 141.617411,79.1072829 147.582046,78.2539773 C149.702823,78.041038 151.814315,77.8304218 153.942055,77.7018839 C154.933195,77.6414866 155.942904,77.5168204 156.940234,77.5292096 C158.414951,77.5446961 159.892763,77.5563109 161.36748,77.5717974 C165.478274,77.6128366 169.562761,78.0882718 173.63719,78.5869368 C178.007955,79.3256424 182.329975,80.1402317 186.592418,81.3915401 C190.597986,82.5708363 194.506837,83.9468109 198.368492,85.5155923 C201.231269,86.8892439 204.051492,88.3341334 206.857014,89.8278053 C209.431966,91.196811 211.820451,92.8321843 214.146264,94.5767374 C217.71932,97.501361 221.212682,100.513483 224.619387,103.626268 C228.003655,106.71892 231.312097,109.878938 234.216655,113.430764 C235.429854,115.094013 236.589666,116.78901 237.624908,118.571505 C238.21758,119.588193 238.752223,120.634305 239.329421,121.659511 C239.444706,121.862384 239.556122,122.065257 239.671407,122.267355 C239.825378,122.560824 240.009524,122.833386 240.226941,123.087365 C240.768547,124.004165 241.496621,124.732804 242.41271,125.274057 C243.36439,125.987984 244.836012,126.41154 246.021357,126.41154 C247.314249,126.41154 248.351039,126.003471 249.481449,125.416533 C251.8297,124.200844 252.89357,121.16704 252.213467,118.695396 C251.85678,117.395306 251.049787,116.243111 249.961158,115.452525 C249.729814,114.978639 249.504661,114.500881 249.264033,114.037835 C248.804441,113.145039 248.296878,112.267729 247.767651,111.415198 C246.45,109.29742 245.020932,107.256301 243.467295,105.298809 C240.946503,102.126401 238.10539,99.310183 235.152861,96.53965 C232.269193,93.8326116 229.298094,91.2223637 226.285214,88.6570267 C222.845239,85.7231113 219.303132,82.9494809 215.486354,80.5235223 C213.872366,79.4983167 212.128393,78.6241044 210.432391,77.749892 C208.450111,76.730881 206.461641,75.7443916 204.448412,74.7857779 C202.172891,73.700175 199.766611,72.8383518 197.409075,71.9455557 C195.505715,71.2285312 193.546646,70.6446906 191.609242,70.0314256 C183.077392,67.3267102 174.109935,66.1443167 165.215208,65.5147909 C163.304884,65.3800584 161.391466,65.3157895 159.4765,65.3157895 C152.728082,65.3157895 145.975796,66.1102464 139.349627,67.3538115" id="Fill-85"></path>
                    <path d="M284.969349,83.4554893 C284.016207,84.3320908 283.055969,85.2023916 282.05237,86.0199229 C279.628125,87.781002 277.035955,89.2971367 274.418558,90.7502632 C272.07788,92.048232 271.323407,95.1954914 272.65418,97.4661493 C273.297492,98.5648547 274.363372,99.386324 275.591657,99.7242055 C276.906662,100.08414 278.194075,99.8533723 279.379787,99.2288036 C280.953379,98.3986706 282.549045,97.56775 284.051683,96.6139634 C284.846363,96.1091103 285.649715,95.6113455 286.423108,95.0726254 C288.409019,93.6943212 290.232525,92.1191163 292.006363,90.4856288 C294.001735,88.6489399 293.862981,85.3102931 292.006363,83.4554893 C291.076084,82.5261184 289.801285,82 288.48628,82 C287.127913,82 285.954815,82.5481713 284.969349,83.4554893" id="Fill-89"></path>
                    <path d="M165.318827,4.86000391 C165.303839,5.36544431 165.283455,5.86490318 165.248084,6.36660512 C164.999283,8.32780362 164.657556,10.2710575 164.323623,12.2113206 C163.89017,14.7116057 163.450122,17.2118908 163.007676,19.7114282 C162.110194,24.7934969 161.122184,29.8493963 160.122184,34.8993142 C159.604798,37.5192302 160.768467,40.258777 162.894966,40.9885253 C164.936933,41.6898612 167.257676,40.1503615 167.775662,37.5304456 C168.782256,32.4461338 169.779858,27.3580835 170.681537,22.2408733 C171.147964,19.5888065 171.611393,16.9367398 172.063432,14.2794392 C172.588012,11.1922152 173.100602,8.02050183 173.11499,4.86000391 C173.126381,2.21092793 171.332616,0 169.218108,0 C167.030458,0 165.40336,2.2139187 165.318827,4.86000391" id="Fill-91"></path>
                    <path d="M74.0109812,14.4564011 C71.8770307,15.0260755 70.489997,17.2771761 71.1307943,19.3613825 C72.1219214,22.5928224 73.354538,25.7572417 74.8504121,28.8040466 C75.1878171,29.4893642 75.5259023,30.17731 75.8633073,30.8652558 C76.2245211,31.5965678 76.7000172,32.2943696 77.1142907,33.0007132 C77.8319565,34.2248231 78.5707101,35.408195 79.3570814,36.591567 C81.1325391,39.2658167 82.9501723,41.9091844 84.7752884,44.550581 C86.8003985,47.4791144 88.7452389,50.4641553 90.7118473,53.4307985 C91.3199926,54.3474025 92.1628248,55.0353483 93.2655133,55.3277417 C94.3654807,55.6201351 95.5688464,55.4690104 96.5552118,54.9118203 C98.5027732,53.8112384 99.3422041,51.1619571 98.0884997,49.2676421 C96.1933177,46.4113857 94.2858912,43.5649853 92.3805054,40.7185848 C91.105033,38.8163851 89.7472501,36.9634651 88.4744986,35.0566659 C87.568403,33.6958867 86.6623074,32.3383929 85.7534907,30.9782708 C85.0569127,29.9335393 84.4542095,28.8270439 83.8161331,27.7488021 C82.6460997,25.7868096 81.6733394,23.7328281 80.7400337,21.6597917 C80.155017,20.1978248 79.5917684,18.7345436 79.0890621,17.2410376 C78.7516572,16.2377011 78.1509947,15.4006018 77.1918394,14.8591812 C76.5564841,14.5004244 75.8292947,14.3157895 75.0993843,14.3157895 C74.7334088,14.3157895 74.366753,14.3617839 74.0109812,14.4564011" id="Fill-95"></path>
                    <path d="M240.446062,21.9991778 C239.347038,23.5284781 238.306675,25.0662875 237.351124,26.7038843 C236.641529,27.9214456 235.984942,29.1637604 235.316339,30.4083959 C234.192578,32.5085732 233.140907,34.6567103 232.086409,36.7994326 C229.201381,42.6613639 226.349572,48.5441809 223.492108,54.4215831 C222.351384,56.7662009 222.934468,59.7095433 225.090111,61.0903228 C227.119949,62.3929742 230.040315,61.6859532 231.181039,59.3405619 C233.988322,53.5722296 236.78783,47.7984826 239.623384,42.0448477 C240.702619,39.860354 241.774079,37.6665776 242.916924,35.5207611 C244.314204,32.8953461 245.707951,30.2877227 247.395006,27.8672974 C247.795037,27.111543 247.997173,26.2962256 248,25.4228922 C248,24.1442207 247.529999,22.9026794 246.704494,21.9991778 C245.876869,21.0956761 244.744626,20.5789474 243.577045,20.5789474 C242.524667,20.5789474 241.13092,21.0500369 240.446062,21.9991778" id="Fill-97"></path>
                    <path d="M0.60653601,87.9174643 C0.00549504086,88.8094626 -0.158171967,89.8941132 0.157322308,90.8899868 C0.473513038,91.8852565 1.21314862,92.644995 2.20072231,93.1921518 C5.59315634,95.0770041 9.21959936,96.6906937 12.8105232,98.2693556 C15.1694174,99.3044843 17.5143826,100.359543 19.9087961,101.333675 C22.8415696,102.527032 25.8286666,103.609871 28.9083922,104.492207 C31.7457513,105.301467 34.6457914,105.865534 37.5729932,106.358337 C38.7945759,106.566088 39.9374592,106.525625 41.0392515,105.966993 C42.0456295,105.454864 42.7964084,104.610576 43.106331,103.63584 C43.4246111,102.628492 43.2616406,101.531762 42.6522421,100.630705 C42.099953,99.8117819 41.0664133,99.0242628 39.9646209,98.8376497 C37.6739793,98.4505333 35.3993561,98.0308049 33.1546805,97.469154 C31.0311881,96.9370954 28.9439114,96.2993498 26.8970291,95.5740349 C23.0790609,94.1288406 19.364168,92.4819351 15.667383,90.8217432 C12.63432,89.4629103 9.57897032,88.1179676 6.68937706,86.5326625 C6.0242622,86.1684953 5.27487624,86.0006039 4.52618674,86 C2.96891257,86 1.41094194,86.7259188 0.60653601,87.9174643" id="Fill-99"></path>
                </g>
            </g>
        </g>
    </g>
</svg>