<?xml version="1.0" encoding="UTF-8" standalone="no"?>
<svg width="206px" height="329px" viewBox="0 0 206 329" version="1.1" xmlns="http://www.w3.org/2000/svg" xmlns:xlink="http://www.w3.org/1999/xlink">
    <!-- Generator: Sketch 49.1 (51147) - http://www.bohemiancoding.com/sketch -->
    <title>superhero0001B</title>
    <desc>Created with Sketch.</desc>
    <defs>
        <polygon id="path-1" points="0.31575436 0.523763798 122.097884 0.523763798 122.097884 228.205255 0.31575436 228.205255"></polygon>
    </defs>
    <g id="Page-1-Copy" stroke="none" stroke-width="1" fill="none" fill-rule="evenodd">
        <g id="Artboard" transform="translate(-7954.000000, -877.000000)">
            <g id="superhero0001B" transform="translate(7940.000000, 877.581810)">
                <ellipse id="Oval-49" fill="#FFFFFF" cx="165" cy="48" rx="39" ry="42"></ellipse>
                <rect id="Rectangle-29" fill="#FFFFFF" x="151" y="108" width="31" height="101"></rect>
                <g id="standing002B" transform="translate(97.000000, 0.000000)">
                    <g id="Group-3" transform="translate(0.659844, 99.270861)">
                        <mask id="mask-2" fill="white">
                            <use xlink:href="#path-1"></use>
                        </mask>
                        <g id="Clip-2"></g>
                        <path d="M89.3764801,26.3067564 C89.2681915,31.2880318 86.2465904,64.9867443 88.4228418,65.8076418 C89.0166825,66.0312053 103.178036,46.3785717 104.09325,43.1892979 C107.076426,32.7900994 95.7899596,33.0590743 89.3764801,26.3067564 M45.8095326,58.4894286 C44.7580852,55.073098 46.1972756,36.3671163 41.7888818,35.2842303 C39.3436554,34.6834033 29.6850113,47.8876257 27.6275279,49.8577795 C22.0209732,55.2233048 14.954269,57.0222927 16.1105117,64.3439991 C16.9349023,69.5383586 42.0334044,92.5025274 45.5335713,90.5253872 C48.0696204,89.0931832 45.8095326,62.2236386 45.8095326,58.4894286 M53.3303502,16.0018738 C57.5291532,17.8078482 51.719994,22.7052872 51.3811555,24.0606413 C51.3881419,24.0396822 55.8594129,33.8380536 56.0969492,34.9349123 C56.9178466,38.759945 57.75621,42.7212117 58.3675166,46.6091216 C59.9499273,56.6799611 59.8416388,66.7542937 59.8556115,76.9124627 C59.8625978,82.3059334 58.4164211,100.662597 63.2894079,103.107823 C69.6679556,106.31107 71.08968,98.8007318 71.1909823,95.4088536 C71.2398868,93.8369223 69.5701465,92.3383479 70.0137804,89.187499 C70.3596053,86.7352863 73.9261426,82.3932629 74.6352583,78.969946 C76.8150029,68.4380067 75.8229397,56.5122884 76.3888349,45.7707583 C76.7486325,38.9660426 80.0427017,22.8799463 76.6263712,17.0044166 C72.9480521,10.6817599 58.8810141,14.1120632 53.3303502,16.0018738 M2.09237828,61.9895955 C-1.99795483,54.3981956 0.380719819,56.4214657 5.93837004,52.0130719 C11.9815723,47.216935 17.2213431,41.8898347 22.4261821,36.1749914 C26.4119011,31.8015293 37.1918562,23.5855687 39.5532462,17.9196299 C42.256968,11.4432732 40.9819571,17.6017505 41.3766865,14.4474085 C41.6177159,12.4877342 37.1150062,10.4686759 38.6520057,6.78337041 C40.0632506,3.38799894 49.9838833,3.65697384 52.9286345,3.1260104 C60.7463725,1.725245 72.1411274,-1.22299936 79.9483859,1.92086311 C84.6432205,3.8071806 84.1926002,6.36418874 87.5390671,10.0564806 C92.4365062,15.4569377 101.204389,20.7630789 107.530539,24.4483843 C112.427978,27.2988196 117.622338,27.7389604 120.444828,33.0206493 C122.806218,37.4430159 122.746834,35.4204644 119.55756,42.3684004 C116.588356,48.8272912 112.871612,55.4608411 108.309519,61.786991 C102.580702,69.7339767 96.4152389,77.7473328 91.5492384,85.8375389 C82.7988212,100.376156 84.3672592,112.053859 82.4774486,128.915441 C80.9544219,142.552818 80.0182495,156.644308 81.2618217,170.980321 C81.9115533,178.476686 82.1106646,185.857777 82.5333395,193.403047 C82.7603962,197.504041 83.0817688,201.496746 83.2424551,205.622192 C83.5603345,213.782262 83.3647164,212.388483 88.8874348,216.335777 C91.2593044,218.02997 93.9106284,219.406283 94.1551511,221.393902 C94.8642667,227.171623 87.5285876,228.76102 82.8791643,228.044918 C66.7406703,225.557774 71.3237231,189.123901 70.6006348,175.95461 C69.6085715,157.915826 72.3157864,138.905937 70.1500145,121.076744 C69.7762442,118.002745 72.3401559,113.729139 63.6666714,115.676287 C60.9105174,116.295028 60.9140452,125.352397 60.3900681,129.058662 C58.0636099,145.591885 58.2173098,162.547783 57.1064784,179.154364 C56.5405832,187.660258 54.4446748,195.956562 53.5364479,204.438004 C52.8447982,210.93532 55.2970109,216.377695 50.2423787,220.202728 C45.6802849,223.657483 30.8622131,225.292292 29.4544613,217.40469 C28.015271,209.328457 37.7263128,212.283688 41.4535365,208.172214 C45.701244,203.484366 44.8838397,186.266479 45.2925419,180.121975 C45.9981643,169.579556 46.2461801,159.002205 46.7841299,148.449307 C47.2137911,139.981837 48.3401559,115.729139 48.3401559,112.729139 C48.3401559,109.729139 49.3401559,108.729139 46.7841299,106.698813 C44.228104,104.668487 7.34015589,71.7291391 2.09237828,61.9895955 Z" id="Fill-1" fill="#000000" mask="url(#mask-2)"></path>
                    </g>
                    <path d="M69.7049656,12.429673 C60.30831,12.9431705 52.83989,15.486206 46.5416855,22.549417 C45.2876337,23.9606619 36.2507757,34.3633535 36.3381052,35.2366487 C36.5197506,36.9797458 40.4111537,37.6993409 40.9735558,39.4144926 C42.4476779,43.8787773 41.3927374,40.1445673 41.2809557,47.5466168 C41.1552012,56.1258682 39.1920337,62.7419521 42.8808323,70.7657878 C52.4207084,91.4768552 63.347377,82.0347882 79.1854575,73.6581413 C86.5316162,69.7772177 89.4204765,68.9807726 92.8961911,61.8861229 C96.2671103,54.9975709 97.3115713,47.3125738 98.2791823,39.7777834 C100.748861,20.4849473 86.6119593,13.8933157 69.7049656,12.429673 M62.0793525,0.786902313 C67.2283006,1.71259515 72.6462236,-0.526533565 78.0606534,0.385186552 C83.6357695,1.32834529 89.4065038,3.57795355 94.1851747,6.59606153 C103.012442,12.1746708 108.839067,20.6351541 110.98388,30.8003094 C113.974042,44.9511837 109.384003,69.0261839 97.26616,79.1948324 C88.8441017,86.2580434 75.6468657,93.6251612 64.8284856,95.7420286 C52.7909855,98.0964323 43.5445366,91.6654869 35.6289896,82.9255492 C27.975431,74.465066 23.6089554,66.0150623 24.3145778,54.5015393 C24.684855,48.4338847 25.6629455,42.4745187 29.1107147,37.3849547 C28.6356421,38.0800976 34.4168559,34.1886945 34.3295264,34.6986989 C34.301581,34.8523988 32.6318407,29.3192009 32.5445112,28.1489854 C32.464168,27.0276744 33.2606132,21.5503674 33.5540403,20.5093996 C37.0611936,8.11210188 49.570273,0.954574978 62.0793525,0.786902313" id="Fill-4" fill="#000000"></path>
                </g>
                <path d="M151.11355,133.114083 C152.790093,122.709912 152.615453,122.487246 143.962047,122.072477 C135.889319,121.683903 127.921375,122.587664 120.250318,125.019525 C105.532543,129.678043 99.5380292,141.758757 95.7701739,155.267151 C91.6530389,170.02422 88.1558755,184.955929 84.1085964,199.730463 C82.5543015,205.419356 80.1486373,210.86812 78.2712586,216.469694 C72.8748865,232.606419 50.4336628,242.560891 33.3189552,231.838003 C23.2771625,225.550968 14.208987,218.521713 8.39784523,207.698407 C11.8033228,210.414057 15.2699243,213.064217 18.5968138,215.867187 C20.7317863,217.661612 22.6964849,219.652506 24.6873794,221.608473 C41.1078935,237.723367 60.5540434,233.890022 69.2991351,211.990182 C73.0538924,202.59019 75.5294126,193.081049 76.6340098,182.873349 C78.1970367,168.391337 80.6507269,153.88313 86.3134248,140.21756 C94.0325072,121.600949 108.169605,112.113638 128.074185,110.969747 C135.732143,110.528781 143.411931,110.362873 150.903982,112.53714 C154.946895,113.711593 158.919952,115.196032 161.884464,118.287158 C165.394725,121.950229 164.71363,125.70062 160.308339,128.2198 C157.640715,129.747899 154.881405,131.114456 151.11355,133.114083" id="Fill-246" fill="#000000" transform="translate(86.261378, 173.500000) rotate(-8.000000) translate(-86.261378, -173.500000) "></path>
            </g>
        </g>
    </g>
</svg>