<?xml version="1.0" encoding="UTF-8"?>
<svg width="402px" height="314px" viewBox="0 0 402 314" version="1.1" xmlns="http://www.w3.org/2000/svg" xmlns:xlink="http://www.w3.org/1999/xlink">
    <!-- Generator: Sketch 51.1 (57501) - http://www.bohemiancoding.com/sketch -->
    <title>tandem_bicycle</title>
    <desc>Created with Sketch.</desc>
    <defs></defs>
    <g id="transport" stroke="none" stroke-width="1" fill="none" fill-rule="evenodd">
        <g id="tandem_bicycle_DL" transform="translate(-199.000000, -267.000000)" fill="#2C2C2C">
            <g id="tandem_bicycle" transform="translate(199.000000, 267.000000)">
                <g id="Group-33" transform="translate(0.000000, 116.000000)">
                    <path d="M330.588862,183.412085 C330.838562,183.445674 331.088263,183.479263 331.339734,183.513737 C331.088263,183.479263 330.838562,183.445674 330.588862,183.412085 M334.849707,95.5248348 C337.468906,95.5124598 340.0518,95.5982009 342.656831,95.8015045 C345.481456,96.253192 348.278633,96.8021116 351.061641,97.4862723 C353.853505,98.1739688 356.536456,99.0835313 359.199042,100.129219 C361.753602,101.318987 364.340923,102.513174 366.764434,103.950442 C369.419051,105.526487 371.970069,107.199763 374.483897,108.986183 C375.579214,109.862156 376.651509,110.75404 377.712293,111.677746 C379.071478,112.86221 380.294302,114.249094 381.43832,115.660728 C382.780681,117.53996 383.929126,119.562388 384.91376,121.651996 C385.837298,124.119924 386.410192,126.632049 386.878602,129.21754 C387.141584,131.979817 387.129188,134.751817 386.83787,137.509674 C386.419932,139.999701 385.814276,142.431388 385.15195,144.866612 C384.622443,146.812138 383.864487,148.706397 383.121584,150.584746 C382.425611,152.144879 381.706615,153.683799 380.953086,155.220951 C380.036633,157.08604 378.908553,158.867156 377.843342,160.649156 C375.976787,163.780915 373.92517,166.779201 371.754901,169.703237 C369.788289,172.06421 367.754381,174.288174 365.383113,176.255799 C363.542236,177.580808 361.602188,178.733451 359.551456,179.710192 C357.464421,180.495121 355.369417,181.183701 353.182324,181.680469 C350.860641,182.206406 348.539844,182.669585 346.194254,183.044371 C340.671624,183.611853 335.156078,183.752397 329.61928,183.275076 C328.675377,183.136299 327.735016,182.976308 326.80528,182.754442 C325.363747,182.40971 323.974456,181.983656 322.586051,181.492192 C320.345831,180.447388 318.243743,179.225799 316.230201,177.792067 C314.747051,176.503299 313.460474,175.073987 312.234108,173.562469 C309.552928,169.755388 307.162179,165.743237 305.199994,161.518058 C304.272915,159.159737 303.484853,156.775781 302.880082,154.302549 C302.275311,151.817826 301.807787,149.315424 301.409329,146.793576 C301.015298,143.020969 300.854144,139.257201 301.187078,135.47929 C301.58465,133.35079 302.07254,131.252344 302.682624,129.169808 C303.371514,126.818558 304.266716,124.442558 304.643923,122.022362 C305.014047,120.654924 305.014047,119.287487 304.643923,117.920049 C304.310104,116.730281 303.733668,115.681942 302.911073,114.777683 C303.419329,113.823924 303.662831,112.764094 303.734553,111.618522 C303.754919,111.280862 303.778826,110.944969 303.806276,110.609076 C303.902791,110.190094 304.01613,109.783487 304.149835,109.378647 C304.559804,108.632612 305.019359,107.931656 305.511677,107.244844 C306.942584,105.645817 308.477976,104.214737 310.118738,102.834924 C311.023681,102.179933 311.939249,101.54704 312.876069,100.925638 C313.935082,100.226451 315.097694,99.668692 316.240826,99.110933 C320.067796,97.639192 324.001906,96.6580313 328.052011,95.9721027 C330.310826,95.7343259 332.579381,95.5398616 334.849707,95.5248348 M334.20332,79.8492455 C331.097117,80.0737634 328.025448,80.4635759 324.944038,80.932942 C322.688765,81.2750223 320.475108,81.9556473 318.295985,82.6185938 C315.708663,83.4088259 313.115144,84.4792634 310.714655,85.7123438 C308.63913,86.7792455 306.674289,87.973433 304.82013,89.3930223 C302.261144,91.3509241 299.74643,93.3777723 297.632831,95.8289063 C296.377245,97.2856205 295.190725,98.8050938 294.10869,100.393513 C293.160359,101.784817 292.448448,103.269817 291.829509,104.834371 C290.971496,107.006183 290.743047,109.301746 290.597831,111.618522 C290.526108,112.768513 290.828937,113.857513 291.385007,114.806853 C289.987747,116.191085 289.041188,117.91121 288.411624,119.888558 C288.083117,120.928058 287.841386,121.997612 287.585487,123.058326 C287.059522,125.205388 286.591998,127.360406 286.22276,129.542826 C285.738412,132.394379 285.409906,135.253888 285.347038,138.143451 C285.295681,140.491165 285.579029,142.874237 285.817219,145.204272 C286.862064,155.293433 289.615853,165.345469 294.793152,174.114924 C297.501782,178.704281 300.555743,183.254746 304.409276,186.969897 C306.69554,189.176183 309.475893,191.086353 312.319113,192.535996 C314.785126,193.792942 317.383073,194.995085 320.06691,195.712835 C330.16384,198.413237 340.795589,197.694603 350.996117,196.020442 C353.164615,195.664219 355.343738,195.149772 357.470619,194.607924 C360.293474,193.886638 363.011844,192.992103 365.682399,191.81471 C370.915483,189.505004 375.495095,185.986085 379.376078,181.818362 C381.292219,179.760576 382.965743,177.495951 384.674685,175.268451 C386.006421,173.535067 387.22039,171.681469 388.389201,169.840246 C389.731562,167.738263 391.04913,165.631862 392.277267,163.463585 C394.86813,158.898978 396.870161,154.026763 398.627804,149.089138 C399.402584,146.906719 399.88339,144.627951 400.402271,142.380121 C401.062826,139.496746 401.349716,136.503763 401.494932,133.554978 C401.636606,130.609728 401.294818,127.733424 400.883078,124.822647 C400.592646,122.764862 400.190646,120.765415 399.5965,118.769504 C398.818179,116.148656 397.635201,113.652442 396.392897,111.221638 C394.601606,107.707138 392.152417,104.502897 389.465038,101.619522 C387.898655,99.9374063 386.155179,98.4736205 384.394879,97.0027634 C383.066685,95.8978527 381.631351,94.8866384 380.250915,93.840067 C379.327377,93.1426473 378.338315,92.4620223 377.355452,91.8547634 C375.308263,90.5836741 373.250448,89.3585491 371.116483,88.2359598 C368.390144,86.7995759 365.595624,85.573567 362.752404,84.3829152 C358.546456,82.6221295 354.022628,81.5897009 349.539531,80.8162634 C345.658549,80.1480134 341.758086,79.7228438 337.836373,79.7219598 C336.626831,79.7219598 335.416404,79.7626205 334.20332,79.8492455" id="Fill-3"></path>
                    <path d="M53.3982171,89.9936518 C54.6228119,89.8654821 55.8748559,89.8831607 57.1056489,89.8345446 C59.1413273,89.755875 61.1894022,89.9344286 63.2179969,90.1218214 C65.708803,90.5416875 68.1429396,91.0640893 70.5850453,91.7791875 C73.136063,92.5225714 75.6392656,93.4577679 78.1203317,94.4185982 C79.3493537,94.9728214 80.5615519,95.5535625 81.7507282,96.1952946 C83.0753801,96.908625 84.3123713,97.7121161 85.5360806,98.566875 C87.3211731,100.090768 89.0230321,101.66858 90.6673361,103.352464 C92.2487722,104.968286 93.7009308,106.688411 95.1380365,108.42533 C96.3838823,110.113634 97.5943097,111.819616 98.6329572,113.648464 C99.7778603,115.657634 100.780204,117.697741 101.715252,119.793536 C102.398829,121.570232 103.081521,123.346045 103.62431,125.170473 C104.195433,127.100089 104.626653,129.019098 104.971984,130.984071 C105.084437,132.359464 105.107459,133.720714 105.006517,135.097875 C104.465499,138.045777 103.466697,140.834571 102.351015,143.605688 C101.85427,144.603643 101.357526,145.602482 100.860781,146.602205 C100.313565,147.700929 99.608737,148.74308 98.9853713,149.803795 C97.7448383,151.924339 96.2165299,153.908759 94.7661423,155.894946 C92.6968163,158.509607 90.5646224,161.039411 88.2942964,163.497616 C85.9593317,166.029188 83.3693537,168.442313 80.6908295,170.628268 C79.14127,171.74467 77.5191026,172.711688 75.7942216,173.559375 C75.5046753,173.701688 75.2098163,173.834277 74.9123008,173.964214 C72.1585123,174.983384 69.3940982,175.872616 66.5765564,176.691134 C63.6934903,177.52733 60.7369308,178.07625 57.7839132,178.597768 C54.3341511,178.993768 50.9100674,179.231545 47.4346268,178.912446 C45.1120586,178.493464 42.8682964,177.839357 40.6670365,176.988134 C39.3335299,176.386179 38.0177326,175.731188 36.7683449,174.97808 C35.4605167,174.195804 34.2190982,173.363143 32.9741379,172.491589 C29.6873008,169.799143 26.5943801,166.944938 23.8928339,163.658491 C22.6168823,161.88975 21.5215652,160.022893 20.5980277,158.04908 C19.1591511,154.219902 18.345411,150.210402 17.7415255,146.171732 C17.2660321,141.507241 17.0783141,136.825955 17.0110189,132.138482 C16.9463801,127.725911 17.388226,123.337205 17.6574066,118.939661 C17.8885123,117.73133 17.8415828,116.523884 17.516618,115.316438 C17.2323845,114.289313 16.7400674,113.332018 16.0839396,112.502009 C19.4823449,112.392402 22.2688956,109.533777 22.2759793,106.121813 C22.2759793,105.514554 22.2759793,104.908179 22.306085,104.302688 C22.340618,104.166563 22.3786929,104.030438 22.4194242,103.89608 C22.6496445,103.47533 22.9020013,103.072259 23.1729528,102.678027 C24.2700409,101.406938 25.4786973,100.250759 26.7723581,99.1820893 C28.975389,97.6095804 31.3103537,96.3570536 33.738292,95.1557946 C36.2636312,94.1233661 38.8199616,93.1475089 41.4480145,92.4209196 C43.2047722,91.933875 44.9517898,91.4574375 46.7262568,91.0534821 C48.1137766,90.7361518 49.5092656,90.4895357 50.9109528,90.2499911 C51.7406312,90.16425 52.5694242,90.0785089 53.3982171,89.9936518 M56.4176445,73.4721429 C54.6679704,73.5923571 52.9731951,73.7443929 51.2297193,73.9865893 C50.0157502,74.1554196 48.7601643,74.2491161 47.5594771,74.5045714 C45.1935211,75.0084107 42.8868912,75.5750089 40.5554682,76.2273482 C37.7193317,77.0246518 34.8761114,78.1817143 32.1851907,79.3723661 C30.1477414,80.2739732 28.0483097,81.1340357 26.1286268,82.2769554 C24.6445916,83.1573482 23.192433,84.0271339 21.7916312,85.0356964 C20.2766048,86.1264643 18.8129352,87.3038571 17.4263008,88.5537321 C15.9528912,89.8831607 14.714129,91.4335714 13.521411,93.0149196 C11.8266356,95.26275 10.4736489,97.8623839 9.89632728,100.631732 C9.51557838,102.455277 9.48104534,104.274402 9.48458719,106.121813 C9.48724358,107.353125 9.85205415,108.512839 10.4763053,109.496652 C9.54745503,109.418866 8.60443741,109.501071 7.69683829,109.751223 C7.06019071,110.019938 6.42354314,110.286 5.78689556,110.555598 C4.59063565,111.262741 3.63610701,112.2165 2.92330966,113.414223 C0.540529921,116.604321 0.177490273,120.578464 0.0384726519,124.428857 C-0.0376771278,126.572384 0.0039396123,128.734473 0.121706132,130.878 C0.246556352,133.157652 0.439587189,135.425813 0.671578379,137.697509 C0.972635648,140.64983 1.27369292,143.633089 1.80939776,146.554473 C3.05789996,153.32183 4.65970173,159.982232 7.73491318,166.194482 C9.21806296,169.187464 11.2900453,171.856929 13.4213537,174.411482 C14.1368075,175.268009 14.8912216,176.106857 15.6792832,176.894438 C17.4085916,178.617214 19.2113934,180.236571 21.0646665,181.828527 C21.8394462,182.491473 22.6664682,183.09608 23.4651555,183.730741 C24.7490762,184.746375 26.1215431,185.837143 27.5329704,186.679527 C28.452966,187.228446 29.3596797,187.840125 30.3177502,188.320098 C32.3959308,189.36225 34.471455,190.312473 36.6302127,191.196402 C42.191803,193.47517 48.3032656,194.141652 54.2659704,193.761563 C57.2030497,193.575054 60.1188779,193.185241 63.0169969,192.691125 C65.4626445,192.273027 67.8631334,191.700241 70.2671643,191.092982 C72.30727,190.577652 74.3969616,189.959786 76.3644594,189.217286 C79.7478119,187.943545 83.1479881,186.63533 86.2329396,184.735768 C89.4321158,182.770795 92.2717942,180.198563 94.9804242,177.613071 C98.3283581,174.415018 101.490345,171.041946 104.336222,167.385134 C106.139023,165.071893 108.013548,162.782518 109.639257,160.341107 C111.022349,158.262991 112.326636,156.180455 113.591962,154.029857 C115.090164,151.481491 116.124385,148.643196 117.269288,145.926 C119.026931,141.761813 119.960208,137.155661 120.057609,132.656464 C120.095684,130.940759 119.825618,129.234777 119.614878,127.535866 C119.397054,125.789223 119.123446,124.034625 118.69134,122.325991 C118.085684,119.933196 117.352521,117.598741 116.567116,115.26075 C116.238609,114.287545 115.830411,113.33467 115.463829,112.378259 C114.854631,110.793375 114.148918,109.098 113.357314,107.589134 C112.281477,105.534884 111.216266,103.470027 109.895155,101.560741 C106.875728,97.2029732 103.595975,92.9804464 99.8230189,89.2405446 C96.1740277,85.622625 91.9645387,82.3352946 87.2467942,80.21475 C82.2899749,77.9916696 77.0985079,75.8437232 71.7573978,74.7255536 C67.7790145,73.891125 63.6368207,73.3660714 59.5353581,73.3660714 C58.4922832,73.3660714 57.4527502,73.4005446 56.4176445,73.4721429" id="Fill-5"></path>
                    <path d="M300.713874,46.1637336 C298.473616,46.774409 296.826936,49.3195318 297.601844,51.6051367 C299.006752,55.7327791 300.798339,59.7364382 302.648045,63.6831111 C304.376864,67.367956 306.068488,71.0682026 307.800408,74.7468868 C311.486645,82.5801663 315.513066,90.2447977 319.190779,98.0811575 C320.855282,101.627388 322.398898,105.231374 324.024655,108.793005 C325.768973,112.612615 327.503992,116.432994 329.178568,120.279556 C330.905838,124.588938 332.501373,128.936824 334.116281,133.288561 C334.873366,135.33082 335.678496,137.352286 336.489824,139.373753 C336.983441,140.601264 337.49178,141.822615 338.012518,143.037805 C338.212445,143.500625 338.417795,143.961134 338.641744,144.412403 C339.186504,145.495139 339.940489,146.361482 340.954844,147.032224 C342.54108,148.076455 344.826284,147.658301 346.12193,146.367642 C346.91776,145.576768 347.371856,144.490951 347.371856,143.371251 C347.371856,142.461784 347.087465,141.717114 346.617871,141.02327 C346.641893,141.053303 346.66514,141.082566 346.687613,141.112599 C346.490011,140.769142 346.322631,140.411054 346.16145,140.049885 C344.761966,136.63996 343.508165,133.159187 342.25049,129.693815 C340.794438,125.687076 339.332187,121.691888 337.74595,117.733664 C336.14809,113.744636 334.298385,109.848789 332.515321,105.94139 C330.747756,102.064024 329.010413,98.1743375 327.260671,94.2908113 C324.299747,87.7058356 320.909525,81.3141506 317.698307,74.8493078 C316.099672,71.6334431 314.662217,68.3336395 313.133324,65.0846613 C311.524615,61.6654949 309.906607,58.2532592 308.349817,54.8109903 C307.581109,52.9758836 306.830223,51.1400069 306.189374,49.2533047 C305.808119,48.1374551 305.185093,47.2164364 304.143617,46.6088413 C303.459373,46.2114787 302.675941,46.0058667 301.89096,46.0058667 C301.494982,46.0058667 301.098229,46.0574622 300.713874,46.1637336" id="Fill-7" transform="translate(322.389731, 96.813787) rotate(-5.000000) translate(-322.389731, -96.813787) "></path>
                    <path d="M99.653852,44.9283214 C98.4637903,45.2562589 97.42957,46.0509107 96.8070899,47.1142768 C96.212059,48.1290268 95.8906361,49.6449643 96.3262837,50.7808125 C98.671874,56.9029018 101.054654,62.9931696 103.634892,69.0189107 C104.762971,71.6432946 105.962773,74.2358571 107.131583,76.8425625 C108.286226,79.4139107 109.391284,82.0011696 110.488372,84.5928482 C114.035535,93.666375 117.363103,102.822991 120.646398,111.999938 C122.223407,116.408973 123.634834,120.856018 124.865627,125.375545 C125.446491,127.505813 125.892764,129.684696 126.394821,131.836179 C126.906619,134.053071 127.567174,136.238143 128.358777,138.368411 C128.656293,139.177205 128.971517,139.974509 129.285856,140.775348 C129.715306,141.869652 130.112878,143.026714 130.755724,144.021134 C131.441072,145.077429 132.368152,145.868545 133.602486,146.207089 C134.834165,146.54475 136.172984,146.368848 137.272729,145.727116 C138.33794,145.105714 139.133085,144.073286 139.462478,142.885286 C139.517376,142.463652 139.575817,142.042902 139.631601,141.621268 C139.631601,140.787723 139.424403,140.005446 139.014433,139.279741 C138.300751,137.496857 137.626028,135.697179 137.030112,133.873634 C136.321742,131.698286 135.826768,129.453991 135.322055,127.222955 C134.329451,122.855464 133.190746,118.53217 131.72442,114.2955 C130.091627,109.576205 128.376486,104.886964 126.643636,100.197723 C125.070169,95.9336518 123.540975,91.6457143 121.870107,87.4152321 C120.085015,82.8921696 118.276015,78.3761786 116.273984,73.9388571 C114.479152,69.9726696 112.681663,66.0117857 110.952354,62.0190804 C109.084028,57.4509375 107.287425,52.8598125 105.520041,48.2536607 C105.059601,47.0479821 104.478737,46.0818482 103.330293,45.4082946 C102.596244,44.9804732 101.75594,44.7594911 100.912094,44.7594911 C100.488843,44.7594911 100.065592,44.8151786 99.653852,44.9283214" id="Fill-9"></path>
                    <path d="M194.122418,26.6946367 C192.858095,27.0379476 191.759925,27.8757288 191.097042,28.9902084 C190.46791,30.0577176 190.126949,31.6453172 190.586467,32.8392195 C193.983957,41.6628234 197.286255,50.5171715 200.74086,59.3134472 C204.114984,67.903907 207.521994,76.4875348 211.011214,85.0344403 C212.761882,89.3275353 214.529857,93.6172141 216.233795,97.9308052 C217.883213,102.104339 219.252247,106.407682 220.610897,110.681135 C223.430312,119.557687 226.033381,128.49829 228.991257,137.331288 C229.616928,139.19644 230.278945,141.047928 230.941828,142.902832 C231.255962,143.783314 231.567499,144.667211 231.885094,145.547693 C232.046921,145.998609 232.216536,146.441838 232.385285,146.889338 C232.722784,147.773236 233.050764,148.704104 233.595089,149.477834 C234.064992,150.258397 234.694124,150.879261 235.485084,151.342987 C236.698349,152.043273 238.179018,152.233716 239.537668,151.866493 C240.853048,151.509518 241.991891,150.63843 242.681601,149.477834 C243.330637,148.383851 243.706213,146.705727 243.212945,145.477664 C242.807081,144.467373 242.546601,143.379368 242.198717,142.348581 C241.849969,141.32121 241.475258,140.304088 241.103144,139.286111 C240.345935,137.211727 239.581802,135.143321 238.872189,133.051857 C237.39152,128.68788 235.954986,124.311092 234.565182,119.918078 C231.789902,111.157671 229.106353,102.334067 225.648286,93.8076578 C222.193681,85.2940586 218.603211,76.8342618 215.168509,68.3104145 C211.683616,59.6576121 208.299972,50.9706494 204.980366,42.2537965 C203.44864,38.2271518 201.900472,34.2039232 200.352303,30.1841107 C199.865959,28.9227418 199.243749,27.902203 198.027022,27.198501 C197.248178,26.7492931 196.355104,26.5178571 195.459433,26.5178571 C195.009435,26.5178571 194.559436,26.5767836 194.122418,26.6946367" id="Fill-11"></path>
                    <path d="M289.309597,13.2222547 C289.309597,15.3834601 290.18532,17.1963976 291.610029,18.7671387 C293.436738,20.7833797 306.108341,32.4880772 307.828795,34.593595 C309.219856,36.4480772 310.544508,38.3538272 311.600865,40.4151486 C311.482213,40.9481575 311.336112,41.4272468 311.169645,41.90722 C309.497891,45.4066933 307.300173,48.6798808 304.983803,51.7895415 C302.161834,55.1926665 299.238037,58.490604 296.217724,61.720479 C293.02209,65.1421665 289.905262,68.6434075 286.760984,72.1137111 C280.23424,79.3230325 273.932403,86.7117915 267.637649,94.1217647 C264.680204,97.6062111 261.826358,101.179934 258.883081,104.674104 C255.984077,108.112586 252.920376,111.393729 249.910689,114.732327 C246.673438,118.320193 243.543328,121.9938 240.343266,125.612604 C238.769799,127.390184 237.175081,129.144783 235.556455,130.884354 C234.864909,131.63039 234.173363,132.379961 233.484473,133.132184 C232.260764,134.47222 230.963561,135.78397 229.994865,137.328193 C228.791521,139.241015 228.866786,141.837113 229.994865,143.757006 C230.562447,144.713416 231.323059,145.476247 232.281129,146.042845 C233.654482,146.843684 235.656513,147.251175 237.199874,146.684577 C237.742662,146.484809 238.278367,146.260291 238.807874,146.011908 C239.357746,145.607952 239.894336,145.186318 240.419416,144.751425 C240.807248,144.361613 241.133984,143.938211 241.401394,143.480336 C244.204768,140.324711 247.018768,137.179693 249.800006,134.00639 C252.913292,130.456533 255.967253,126.862479 259.118614,123.347095 C262.397482,119.684095 265.703799,116.061756 268.868442,112.294452 C271.78427,108.821497 274.614209,105.274291 277.553944,101.818131 C283.714107,94.5672647 289.908803,87.361479 296.384191,80.3828629 C299.6179,76.8993004 302.838328,73.4113183 306.199543,70.048854 C309.530654,66.719979 312.827231,63.3398361 315.826292,59.7077736 C317.953173,57.12847 319.883482,54.4139254 321.758006,51.6516486 C323.43153,49.1863718 324.808425,46.5275147 325.759411,43.6962915 C326.835248,40.4885147 326.57935,36.9050683 325.403455,33.776845 C324.006195,30.064345 310.844932,17.2750672 308.347042,14.2263976 C306.528302,11.9997815 304.646694,9.81029046 302.712844,7.6800226 C301.3085,6.12961189 299.317095,5.40037081 297.309751,5.40037081 C295.211205,5.39948689 293.096721,6.1950226 291.610029,7.6800226 C290.143703,9.14380831 289.309597,11.1538619 289.309597,13.2222547 Z" id="Fill-13" transform="translate(277.780823, 76.174339) rotate(-6.000000) translate(-277.780823, -76.174339) "></path>
                    <path d="M113.034785,135.32858 C110.465173,137.890205 110.312873,142.434482 113.034785,144.979313 C113.459807,145.376196 113.920248,145.745679 114.417878,146.046214 C116.397772,147.244821 118.862014,147.243054 120.881754,146.261009 C122.515433,146.146098 124.149111,146.210625 125.787217,146.322884 C128.04249,146.481107 130.301305,146.595134 132.556578,146.723304 C137.326565,146.992018 142.095666,147.285482 146.865653,147.531214 C156.304684,148.014723 165.723349,148.625518 175.142014,149.398955 C179.89075,149.788768 184.657195,149.916938 189.420098,150.05483 C194.1343,150.189188 198.841419,150.420777 203.545882,150.773464 C208.419468,151.139411 213.275344,151.615848 218.128565,152.164768 C220.338679,152.413152 222.555878,152.596125 224.769534,152.817107 C226.541344,152.990357 228.326437,153.1035 230.100904,153.306804 C231.256433,153.510107 232.343781,153.827438 233.461234,154.211946 C235.052411,154.75733 237.026992,154.391384 238.445503,153.559607 C239.895005,152.717223 240.973499,151.315313 241.419772,149.699491 C241.880212,148.035054 241.644679,146.215045 240.769842,144.723857 C239.877296,143.204384 238.534935,142.313384 236.903027,141.754741 C235.996314,141.443598 235.110851,141.157205 234.163406,141.008705 C232.582856,140.760321 231.02267,140.618009 229.427952,140.58 C227.317895,140.532268 225.218463,140.393491 223.11549,140.244991 C218.363212,139.90733 213.627759,139.39642 208.879023,139.002188 C204.293212,138.622982 199.675525,138.280902 195.074662,138.135938 C190.04612,137.980366 185.016693,137.876946 179.990807,137.669223 C175.490886,137.483598 171.008675,137.009813 166.514952,136.72342 C161.597093,136.409625 156.674807,136.15417 151.753406,135.911973 C147.253485,135.690991 142.753565,135.500946 138.2563,135.23842 C133.833415,134.978545 129.355631,134.885732 124.953111,134.342116 C123.717005,134.156491 122.4809,133.954071 121.274014,133.636741 C120.370842,133.401616 119.503089,133.22925 118.54856,133.18417 C118.441419,133.178866 118.335164,133.176214 118.228023,133.176214 C116.316309,133.176214 114.375375,133.986777 113.034785,135.32858" id="Fill-15"></path>
                    <path d="M162.323953,70.9090308 C161.970009,70.9536859 161.617796,70.998341 161.262122,71.0438231 C161.616931,70.998341 161.970874,70.9536859 162.323953,70.9090308 M293.971026,56.6499885 C291.729672,56.7500491 289.484857,56.99896 287.253888,57.2181009 C284.955419,57.4446843 282.656949,57.6770563 280.355019,57.8581577 C277.927607,58.0483554 275.500195,58.1715705 273.066725,58.287343 C268.428248,58.5073108 263.767271,58.4618288 259.125333,58.4816755 C254.260989,58.5040031 249.403569,58.4874641 244.539226,58.4328856 C239.827191,58.3816149 235.114291,58.1972058 230.405718,58.0516632 C225.740414,57.9094284 221.075975,57.8515421 216.40721,57.8515421 C206.955447,57.8482343 197.537435,58.8753021 188.154039,59.8312525 C178.7767,60.7880299 169.406284,61.7150372 160.069618,62.9943237 C150.89478,64.2570714 141.751096,65.7232479 132.572796,66.9702836 C129.435766,67.3969881 126.316044,67.9005986 123.191995,68.4240559 C120.132851,68.934282 117.05986,69.4097764 114.014561,69.9969086 C111.766284,70.4302286 110.501953,72.9400119 111.07657,74.9395691 C111.367341,75.9443094 112.070901,76.8167382 113.010711,77.3393685 C114.037926,77.9149234 115.109276,77.9628863 116.248991,77.7470532 C119.409387,77.1425552 122.594013,76.6546566 125.768254,76.1345071 C128.838649,75.6267618 131.906447,75.1496136 134.993285,74.739448 C139.450896,74.1605853 143.893795,73.5031627 148.339291,72.8399514 C153.01671,72.1428353 157.703649,71.5201444 162.391453,70.8999344 C166.777237,70.3458801 171.162155,69.8389617 175.558324,69.3833141 C179.919011,68.9309742 184.290083,68.5406554 188.650771,68.1172587 C198.146668,67.1935592 207.648623,66.2731675 217.201635,66.3054184 C226.56859,66.3376693 235.922563,66.8412799 245.289517,66.9545716 C250.187611,67.0157656 255.083108,67.0223812 259.981201,67.0025345 C264.450062,66.9868225 268.938827,67.0157656 273.404226,66.809029 C275.855004,66.6957373 278.2928,66.5667336 280.740116,66.3790167 C283.052431,66.2020501 285.357824,65.9630625 287.663216,65.7397869 C289.759185,65.536358 291.868134,65.3130823 293.971026,65.2229452 C296.276418,65.1228846 298.551522,65.1261924 300.856914,65.209714 C303.300768,65.3006781 305.343083,63.1911371 305.343083,60.9236492 C305.343083,58.5172342 303.300768,56.7211059 300.856914,56.6334496 C299.744026,56.5929292 298.638926,56.5714286 297.53296,56.5714286 C296.348245,56.5714286 295.16353,56.596237 293.971026,56.6499885" id="Fill-21"></path>
                    <path d="M106.105096,77.7217578 C104.608691,79.3546358 103.076805,80.9051069 101.468635,82.4036921 C99.941184,83.8300441 98.3640598,85.1973887 96.8091112,86.5881327 C93.7772718,89.306544 90.7835744,92.0758237 87.8102784,94.8776592 C84.736749,97.7710579 81.7918377,100.810958 78.8779722,103.906813 C77.6334811,105.230411 76.4209227,106.589616 75.1631263,107.892867 C73.7270385,109.381278 72.2758714,110.821873 70.7901104,112.235 C69.6210161,113.200483 68.4519218,114.152741 67.2420245,115.05413 C65.8360955,116.104056 64.411539,117.121425 62.9807734,118.126586 C61.6156473,119.083931 60.2434251,120.034154 58.8916044,121.019985 C57.2772253,122.200134 55.6353486,123.364004 54.2036959,124.835121 C52.3817538,126.703011 52.5476269,130.207849 54.2036959,132.107277 C55.0392702,133.068692 56.189737,133.614002 57.3739107,133.614002 C58.6317071,133.614002 59.616301,133.020875 60.5450124,132.107277 C60.5565437,132.095069 60.568075,132.084895 60.5804933,132.072687 C63.9476268,129.32172 67.6420712,127.098768 71.1094381,124.532962 C73.4378695,122.811573 75.690017,121.015916 77.8454792,119.016785 C79.6638732,117.327951 81.3997742,115.539416 83.1188218,113.715272 C86.6429581,109.971353 90.191044,106.264058 93.9262914,102.794828 C97.7271784,99.2737126 101.566207,95.8034654 105.425638,92.3667913 C106.635535,91.2893971 107.840997,90.2160723 109.029606,89.111209 C110.318448,87.9157999 111.52391,86.6237407 112.723163,85.3123514 C114.569055,83.2938904 114.493658,79.7524273 112.723163,77.7217578 C111.81574,76.6799715 110.638663,76.1743389 109.45715,76.1743389 C108.249914,76.1743389 107.038243,76.7023536 106.105096,77.7217578" id="Fill-23"></path>
                    <path d="M113.187439,39.7300259 C109.939562,40.0473562 106.743928,40.5688741 103.572201,41.3113741 C100.981337,41.919517 98.4356326,42.6929545 95.8341436,43.2692759 C92.9847251,43.8977491 90.0963463,44.356508 87.2389586,44.9611152 C85.2572934,45.3827491 83.434126,46.942883 82.4353242,48.6524009 C81.3453198,50.5059991 81.0513463,52.7644366 81.6224696,54.8363652 C82.1758837,56.8419991 83.5209013,58.5824545 85.3192758,59.6360973 C87.2672934,60.7719455 89.3525577,60.902767 91.5139718,60.444008 C95.4020379,59.6219545 99.3379189,59.0482848 103.18791,58.0574009 C104.951752,57.6021777 106.709395,57.1080616 108.483862,56.6837759 C110.319426,56.2426955 112.162073,55.902383 114.028628,55.6124545 C114.667932,55.5346688 115.309007,55.4621866 115.950967,55.3923563 C117.133945,55.2606509 118.316923,55.0953563 119.496359,54.9221063 C120.077223,54.8363652 120.627981,54.6321777 121.205302,54.5429009 C122.969144,54.2591598 124.692254,52.6778116 125.556465,51.200767 C126.91565,48.8831063 126.788144,46.1871241 125.556465,43.8597402 C123.727985,40.4079991 119.916954,39.5647312 116.251139,39.5647312 C115.200981,39.5647312 114.164104,39.6336777 113.187439,39.7300259" id="Fill-25"></path>
                    <path d="M205.565622,23.6838054 C204.580102,23.9569393 203.600781,24.2565911 202.611719,24.5023232 C200.131538,25.123725 197.634534,25.6417071 195.126904,26.1349393 C190.239151,27.0984214 185.372648,28.1688589 180.485781,29.1394125 C178.91497,29.4496714 177.448644,30.7313679 176.663239,32.0740554 C175.799027,33.5484482 175.563494,35.3437071 176.020393,36.99135 C176.459582,38.5859571 177.528336,39.9710732 178.956587,40.8063857 C180.523856,41.7212518 182.149565,41.7937339 183.885957,41.4525375 C188.78345,40.4855196 193.666776,39.4875643 198.596146,38.6929125 C201.124142,38.2827696 203.649481,37.8646714 206.171278,37.3917696 C209.156173,36.8322429 212.400507,36.2417786 214.655781,34.0319571 C216.305397,32.4161357 216.938503,29.9367161 216.325763,27.7198232 C216.018507,26.6184482 215.461552,25.6655732 214.655781,24.8541268 C213.365662,23.5697786 211.829384,23.0862696 210.054917,22.9554482 C209.902618,22.9439571 209.748547,22.9377696 209.592706,22.9377696 C208.261856,22.9377696 206.832719,23.3346536 205.565622,23.6838054" id="Fill-27"></path>
                    <path d="M126.476726,143.590396 C126.497978,143.750387 126.519229,143.909494 126.54048,144.069485 C126.507718,143.909494 126.487352,143.750387 126.476726,143.590396 M139.200823,132.432565 C139.555894,132.513003 139.900339,132.609351 140.245669,132.722494 C140.662722,132.941708 141.062951,133.178601 141.45344,133.438476 C141.770436,133.734592 142.067951,134.037779 142.359268,134.357762 C142.758612,134.961485 143.112797,135.579351 143.440418,136.232574 C144.091233,137.953583 144.55433,139.715253 144.866013,141.535262 C145.006801,142.909771 145.036907,144.252458 144.927995,145.630503 C144.700431,146.814967 144.379008,147.953467 143.959299,149.082244 C143.43422,150.164172 142.840074,151.189529 142.154726,152.180413 C141.481775,152.976833 140.761894,153.706958 139.968519,154.385815 C139.344268,154.803029 138.706735,155.170744 138.037326,155.498681 C137.362603,155.724967 136.687881,155.901753 135.995449,156.043181 C135.192334,156.096217 134.401616,156.090913 133.595845,156.030806 C132.588189,155.843413 131.617722,155.577351 130.655224,155.227315 C129.984044,154.892306 129.346511,154.528128 128.720489,154.116217 C128.118374,153.600887 127.558762,153.054619 127.02837,152.458851 C126.456361,151.622654 125.978211,150.753753 125.542563,149.831815 C125.493863,149.702762 125.446048,149.573708 125.400004,149.444654 C125.578867,149.308529 125.750647,149.160913 125.910916,149.000038 C126.845079,148.067494 127.374585,146.790217 127.374585,145.471396 C127.374585,144.501726 127.101863,143.705306 126.650277,142.961922 C126.673299,142.890324 126.695436,142.81961 126.717572,142.748896 C127.261246,141.645753 127.917374,140.611556 128.629286,139.608297 C129.420004,138.795967 130.24437,138.015458 131.099726,137.27119 C131.600013,136.834529 131.992273,136.255556 132.272079,135.620012 C132.432348,135.478583 132.593502,135.338922 132.757312,135.201029 C133.735748,134.530128 134.746061,133.952038 135.820127,133.449083 C136.870286,133.039824 137.937268,132.669458 139.037013,132.432565 C139.091026,132.431681 139.14681,132.431681 139.200823,132.432565 M137.142123,122.406163 C135.758145,122.616538 134.44766,123.083253 133.143374,123.583556 C131.524748,124.204958 129.971647,124.920056 128.494696,125.827851 C127.682726,126.325503 126.906176,126.895637 126.163273,127.509967 C124.936022,127.700012 123.936334,128.299315 122.943731,129.129324 C120.799141,130.917512 119.184057,133.192744 117.509647,135.409637 C115.573141,137.972146 114.375995,141.044681 114.120096,144.245387 C113.991704,145.826735 114.189163,147.322342 114.410528,148.893083 C114.684136,150.836842 115.60059,152.729333 116.402819,154.493654 C117.800079,157.576797 119.986286,160.152565 122.694916,162.162619 C124.095718,163.202119 125.578867,163.964949 127.204577,164.603146 C127.958991,164.903681 128.712519,165.155601 129.494383,165.376583 C130.670277,165.711592 131.909039,165.815896 133.119467,165.974119 C134.741634,166.188029 136.416044,166.050137 138.020502,165.767279 C139.771061,165.459672 141.313537,164.872744 142.94633,164.171788 C144.374581,163.553922 145.695691,162.563038 146.882211,161.572154 C148.275929,160.401833 149.448281,159.072404 150.524119,157.604199 C152.378277,155.073512 153.699387,152.176878 154.477709,149.145003 C154.92044,147.41869 155.07274,145.585422 155.13118,143.814029 C155.194048,141.901208 154.827467,139.925628 154.5087,138.047279 C153.989819,134.985351 152.879449,131.939333 151.260823,129.287547 C149.255251,126.010824 145.975497,123.762994 142.347757,122.637753 C141.596885,122.402628 140.57329,122.285065 139.82596,122.233797 C139.618762,122.218771 139.416876,122.210815 139.218533,122.210815 C138.52433,122.210815 137.867317,122.296556 137.142123,122.406163" id="Fill-29"></path>
                    <path d="M242.842444,135.912946 C243.103656,135.972169 243.359555,136.041115 243.617224,136.118017 C243.682748,136.155142 243.747387,136.193151 243.812911,136.232044 C244.006828,136.411481 244.192775,136.596222 244.373409,136.790687 C244.572638,137.111553 244.755929,137.435954 244.930365,137.770963 C245.280123,138.745053 245.543105,139.727981 245.738793,140.748919 C245.835308,141.856481 245.849475,142.949901 245.767127,144.061883 C245.5617,145.125249 245.273925,146.15149 244.899374,147.167124 C244.357471,148.266731 243.732334,149.297392 243.02485,150.295347 C242.371378,151.064365 241.677176,151.775928 240.921876,152.452133 C240.397682,152.807472 239.861978,153.123919 239.297052,153.40766 C238.903022,153.530526 238.510762,153.633946 238.110533,153.721454 C237.628841,153.747972 237.155119,153.748856 236.672541,153.723222 C236.144806,153.610079 235.630352,153.471303 235.116784,153.30424 C234.642176,153.063812 234.19059,152.800401 233.747859,152.506937 C233.40607,152.197562 233.084647,151.876696 232.776506,151.535499 C232.524149,151.151874 232.293044,150.761178 232.079647,150.352803 C232.007039,150.132704 231.94063,149.911722 231.881304,149.687204 C231.879533,149.522794 231.882189,149.361035 231.888387,149.197508 C231.91318,149.104696 231.939744,149.011883 231.967193,148.919954 C232.271793,148.33391 232.616237,147.784106 232.997872,147.242258 C233.767339,146.315901 234.554515,145.405454 235.410757,144.555999 C237.243665,142.742178 237.457947,139.837588 236.081052,137.754169 C236.699991,137.399713 237.33044,137.067356 237.976828,136.760633 C238.996881,136.403526 240.023132,136.136579 241.081259,135.942115 C241.672748,135.903222 242.253612,135.889963 242.842444,135.912946 M235.490449,126.422204 C232.820779,127.371544 230.440656,128.853008 228.137568,130.472365 C225.971726,131.99449 223.917453,133.635062 222.22622,135.672517 C221.354039,136.72174 220.531444,137.816044 219.808022,138.973106 C219.033242,140.205303 218.53207,141.655829 217.989281,142.995865 C217.49785,144.204196 217.875057,145.885428 218.508163,146.959401 C219.016418,147.827419 219.776145,148.529258 220.673119,148.973874 C220.60848,150.689579 220.908652,152.41324 221.572748,154.020222 C221.831304,154.707919 222.132361,155.380588 222.475035,156.033812 C222.903599,156.900062 223.578321,157.684106 224.166268,158.439865 C224.813541,159.265454 225.512171,159.983204 226.321484,160.653222 C228.482898,162.449365 230.948911,163.692169 233.692074,164.333901 C236.625612,165.021597 239.769004,164.851883 242.615766,163.895472 C247.832026,162.141758 251.947656,157.669963 254.400387,152.873767 C255.721497,150.28474 256.475026,147.556937 256.779625,144.677097 C257.087766,141.787535 256.74155,138.848472 255.995105,136.044651 C255.268141,133.316847 253.836348,130.845383 251.920207,128.790249 C250.962136,127.764892 249.661392,126.94991 248.392524,126.370053 C246.839422,125.655838 245.244704,125.241276 243.528678,125.140508 C243.216995,125.123713 242.903541,125.114874 242.590088,125.114874 C240.180744,125.114874 237.745722,125.618713 235.490449,126.422204" id="Fill-31"></path>
                </g>
                <g id="Group-50" transform="translate(75.000000, 0.000000)">
                    <path d="M111.238064,76.2784 C109.870405,77.4561893 109.396455,78.8297843 109.232164,80.4405627 C108.536293,87.3011486 108.20427,94.1735567 107.756986,101.048182 C107.349268,107.295489 106.311912,113.502158 105.388098,119.703655 C105.155854,121.162222 104.908127,122.617834 104.568363,124.06384 C104.121938,125.977563 103.560252,127.864686 102.985664,129.752548 C101.85369,133.47581 100.85246,137.167301 100.294215,140.988835 C100.177233,141.800136 100.116161,142.616608 100.062831,143.430864 C100.012082,144.166798 99.9484296,144.917509 100.049069,145.653443 C100.149708,146.40046 100.200457,147.220627 100.486031,147.950649 C100.929875,149.075977 101.611984,150.202044 102.689768,150.978617 C104.134841,152.020451 105.77173,152.782245 107.636563,153.06524 C109.239046,153.307596 110.640251,153.30464 112.219509,153.148734 C113.33772,153.039379 114.456792,152.926329 115.579304,152.836923 C117.746054,152.666979 119.913663,152.53989 122.074392,152.329306 C124.523275,152.089906 126.953234,151.757406 129.408998,151.596328 C132.120231,151.414562 134.828882,151.235011 137.533234,151.010389 C142.958279,150.55745 148.35752,149.874717 153.750739,149.1942 C157.503628,148.810716 161.253077,148.60161 165.031771,148.444227 C166.950794,148.363688 168.865516,148.227733 170.781098,148.077738 C172.75001,147.92331 174.701719,147.661005 176.655148,147.415693 C179.186607,147.141566 181.718065,146.87261 184.244363,146.559321 C184.504992,146.527549 184.766481,146.496515 185.028831,146.464743 C185.23527,149.496405 185.207745,152.548756 185.275698,155.575985 C185.366875,159.611059 185.517403,163.643177 185.702338,167.675295 C186.079089,175.86071 186.317354,184.037996 186.334558,192.232277 C186.357782,204.839204 185.571594,217.44687 186.068767,230.056752 C186.176288,232.752959 188.608828,235.003615 191.827556,235.003615 C195.070369,235.003615 197.449579,232.750003 197.587205,230.056752 C197.788483,226.091134 197.872779,222.12256 198.033629,218.153987 C198.19534,214.153641 198.386296,210.155511 198.534244,206.152949 C198.83014,198.223929 198.994431,190.297865 198.83014,182.363673 C198.662408,174.227026 198.222005,166.097028 197.963096,157.963336 C197.839232,154.037618 197.82547,150.112639 197.674081,146.186921 C197.633653,145.087454 197.516671,143.97912 197.361842,142.887781 C197.123577,141.182424 196.854346,139.522879 195.883223,137.984512 C194.788236,136.255511 193.078232,135.097672 190.883958,134.549416 C189.019125,134.084655 186.939252,134.50065 185.087322,134.757783 C184.113618,134.893 183.142494,135.028955 182.16449,135.147178 C180.021825,135.407267 177.898943,135.752328 175.76574,136.054534 C175.006217,136.095172 174.253574,136.067834 173.482008,136.03015 C172.232192,135.969561 170.989257,135.978428 169.739441,136.021284 C167.060895,136.108472 164.370306,136.200834 161.69176,136.33605 C155.628474,136.649339 149.658085,137.490195 143.65329,138.22539 C139.995019,138.622912 136.335027,138.967974 132.661273,139.245796 C128.330354,139.574602 124.047605,140.109557 119.750232,140.639341 C118.230325,140.795246 116.708698,140.937113 115.193091,141.110013 C114.627104,141.175774 114.064558,141.246708 113.503732,141.321336 C114.122189,138.448534 115.110515,135.661445 116.059275,132.849971 C116.694935,130.976148 117.292748,129.097153 117.766698,127.189341 C118.226884,125.322168 118.529662,123.434307 118.841901,121.547184 C119.594543,116.983804 120.225902,112.408602 120.844359,107.831184 C121.341533,104.139694 121.560014,100.404609 121.757852,96.6931688 C122.050307,91.2667667 122.386631,85.8521869 122.937995,80.4405627 C123.085083,78.9539176 122.1174,77.3002837 120.928655,76.2784 C119.651314,75.1789329 117.894002,74.5553104 116.083359,74.5553104 C114.275298,74.5553104 112.517985,75.1789329 111.238064,76.2784" id="Fill-34" transform="translate(149.445505, 154.779463) rotate(4.000000) translate(-149.445505, -154.779463) "></path>
                    <path d="M144.551605,13.6308938 C145.236349,13.7753846 145.902491,13.960652 146.566861,14.1849231 C147.385365,14.5980073 148.162235,15.0633919 148.920503,15.5828498 C149.749637,16.2990989 150.518534,17.0641026 151.236054,17.8929304 C151.864105,18.818381 152.412432,19.7721978 152.900522,20.7792015 C153.748259,23.1078974 154.282412,25.5030769 154.673062,27.9541026 C155.132806,31.8402857 155.318829,35.7574945 154.929952,39.6534286 C154.476408,42.2445128 153.78192,44.7478388 152.8332,47.2006374 C151.709085,49.6534359 150.383003,51.9652894 148.807117,54.1530403 C147.289696,55.977348 145.617255,57.6367766 143.79068,59.1534872 C141.11194,61.1036703 138.248948,62.7338462 135.229164,64.0945421 C133.045601,64.9402125 130.840778,65.582 128.5394,65.9897656 C126.959085,66.1510989 125.385857,66.2140366 123.801999,66.1023443 C122.931231,65.9294872 122.083495,65.706989 121.241959,65.4206667 C120.341074,64.9765568 119.48005,64.4766007 118.646487,63.9119341 C117.351408,62.7967839 116.169715,61.5699414 115.074833,60.2562271 C112.769026,57.0189231 110.974341,53.4749084 109.381625,49.836044 C107.948357,46.3212821 106.69757,42.7471282 106.019026,39.0134139 C105.978278,38.3982198 105.967648,37.7901172 105.992452,37.1731502 C106.238711,35.9392161 106.577983,34.7318755 106.999637,33.5440366 C107.427491,32.6886154 107.905837,31.8775165 108.445306,31.0885788 C109.112333,30.3120513 109.813022,29.5789597 110.570404,28.8919634 C111.045207,28.5852527 111.529755,28.3033626 112.029361,28.0427473 C114.907412,27.0871575 117.944912,26.5951795 120.943436,26.1501832 C121.448357,26.0819267 121.953278,26.0145568 122.4582,25.9454139 C123.810857,25.5642418 124.987235,24.8790183 125.987333,23.8888571 C127.479066,22.3925348 128.330345,20.3430696 128.330345,18.2271209 C128.330345,17.6269963 128.261251,17.0321905 128.129263,16.4542271 C131.982609,15.3115971 135.917452,14.4216044 139.854066,13.7904542 C141.423751,13.61937 142.973948,13.5289524 144.551605,13.6308938 M136.983987,0.719794872 C135.101605,1.02827839 133.257314,1.52646154 131.413022,2.00425641 C126.602983,3.25769231 121.904558,4.87191209 117.343436,6.84868864 C114.729361,7.97890842 112.190581,9.24120879 109.792648,10.7800806 C107.974046,11.1851868 106.197963,11.8978901 104.522865,12.6832821 C102.640483,13.5697289 101.080542,14.8267106 99.4506208,16.1147179 C98.2636129,17.0534652 97.2909752,18.2652381 96.3644003,19.4495311 C95.0250303,21.1701245 93.7653846,22.8357582 92.8210933,24.8063297 C91.0210933,28.556 90.1494397,32.386337 89.7685342,36.5136337 C89.5780814,38.5843736 90.0422547,40.7410989 90.4329043,42.7639707 C90.7721759,44.5058388 91.3116444,46.1847692 91.8936326,47.8574945 C93.052294,51.212696 94.4988492,54.4810256 95.9834948,57.705033 C97.4229633,60.8324176 99.0528846,63.9101612 101.004361,66.7494505 C102.945207,69.5718974 105.159774,72.207304 107.744617,74.4544469 C110.737826,77.0543956 114.108396,78.9141612 117.897078,80.0984542 C119.696192,80.6595751 121.641467,80.8182491 123.509676,81.0017436 C125.059873,81.1542125 126.633987,81.0052894 128.17444,80.8430696 C131.928574,80.4450549 135.486054,79.675619 138.980641,78.2457802 C142.181133,76.9373846 145.257609,75.4481538 148.17818,73.5919341 C151.326408,71.590337 154.277983,69.1978168 156.866369,66.5109963 C161.818141,61.3793553 165.292353,54.8551062 167.354558,48.0649231 C169.205936,41.9670549 169.316664,35.5092894 168.708101,29.2172894 C168.091566,22.8189158 166.862924,16.2157729 163.164597,10.8137656 C162.27877,9.52575824 161.275129,8.30334799 160.202392,7.17046886 C158.953377,5.85498168 157.437727,4.75401465 155.974341,3.70091575 C154.651802,2.75241758 153.174243,2.11151648 151.67631,1.49898168 C149.852392,0.743728938 148.105542,0.40156044 146.146979,0.148923077 C145.332904,0.0443223443 144.522373,0 143.715385,0 C141.461841,0 139.231329,0.347487179 136.983987,0.719794872" id="Fill-36"></path>
                    <path d="M128.825787,100.168498 C128.698228,100.195092 128.570669,100.221685 128.444882,100.248278 C128.570669,100.219912 128.698228,100.193319 128.825787,100.168498 M129.647835,100.168498 L129.330709,100.289941 C129.435236,100.248278 129.539764,100.207502 129.647835,100.168498 M131.33622,100.168498 C130.962402,100.193319 130.590354,100.219026 130.216535,100.243846 C130.583268,100.206615 130.957087,100.181795 131.33622,100.168498 M118.927432,90.6715705 C116.884578,91.1969571 115.09039,91.8757126 113.315198,92.5670521 C111.021952,93.4644565 109.84252,95.0524139 109.84252,96.3863296 C109.84252,97.81148 111.103114,99.1973052 113.315198,100.20482 C115.529008,101.212336 118.563068,101.784126 121.700739,101.784126 C124.774516,101.784126 127.211089,101.25638 129.502608,100.421896 C129.766815,100.424256 130.027568,100.428188 130.290047,100.43448 C131.555822,100.568973 132.778426,100.735713 133.994122,100.933912 C137.409814,101.710981 140.59929,102.646138 143.669614,103.674102 C155.16347,107.884274 196.821675,124.945968 198.74365,125.619218 C200.814133,126.16584 201.323664,128.531653 203.725701,128.534799 C207.239823,128.534799 210.64688,127.892222 213.128351,126.762012 C215.611549,125.631015 217.027559,124.076878 217.027559,122.476336 C216.865236,121.941511 216.70982,121.403541 216.549224,120.866356 C215.920654,119.839965 214.780939,118.948853 213.128351,118.193019 C209.579693,116.137877 205.485352,114.328125 201.411733,112.490845 C197.215509,110.601655 193.074543,108.678646 188.81788,106.816197 C180.926215,103.369724 173.000013,99.9712279 164.514315,96.8196948 C161.012281,95.5164529 157.411817,94.2572554 153.619673,93.1356966 C149.653119,91.9653743 145.342923,91.0805541 140.925663,90.324721 C139.191914,90.0297809 137.349375,89.8819176 135.522377,89.7623686 C133.519241,89.6310219 131.669794,89.5311355 129.742639,89.5311355 C129.089893,89.5311355 128.426786,89.5429331 127.744683,89.5688879 C124.695082,89.6852909 121.626485,89.980231 118.927432,90.6715705 Z" id="Fill-38" transform="translate(163.435039, 109.032967) scale(-1, -1) translate(-163.435039, -109.032967) "></path>
                    <path d="M16.4929429,75.4162418 C16.5159744,75.4339707 16.5390059,75.4516996 16.5620374,75.4694286 C16.5381201,75.4516996 16.5159744,75.4339707 16.4929429,75.4162418 M28.0777854,39.8023516 C27.916565,39.8245128 27.7553445,39.8457875 27.5932382,39.8670623 C27.5958957,39.8661758 27.599439,39.8644029 27.6020965,39.86263 C27.758002,39.8342637 27.916565,39.8138755 28.0777854,39.8023516 M32.9427461,39.4699341 C34.5345768,38.5382784 35.725128,36.9940879 36.2132185,35.2141026 C36.7181398,33.3756117 36.4585925,31.3740147 35.4965846,29.7296557 C35.2671555,29.3369597 35.0093799,28.9814945 34.7268012,28.6597143 C35.1325098,28.6676923 35.5382185,28.688967 35.9456988,28.722652 C36.9759154,28.9238755 37.9706988,29.1969011 38.9601673,29.5505934 C40.4377264,30.2570916 41.8231594,31.0992161 43.1510138,32.0592381 C45.1662697,33.7443736 46.9822146,35.6271868 48.6395965,37.6660147 C50.2668602,39.8865641 51.6832972,42.2294432 52.8357579,44.7309963 C53.7171555,47.0242344 54.3611516,49.360022 54.7686319,51.7809084 C54.9254232,53.4651575 54.9325098,55.1210403 54.7872343,56.80263 C54.5666634,58.004652 54.2592815,59.1623516 53.8438287,60.3094139 C53.3256201,61.3669451 52.7392028,62.3704029 52.0695177,63.3384029 C51.1075098,64.447348 50.053376,65.4446007 48.923061,66.3815751 C46.5242421,68.1012821 43.9447146,69.454 41.2509154,70.6551355 C35.290187,73.0139707 28.9742421,74.528022 22.6414665,75.4969084 C21.6971752,75.6112601 20.7537697,75.7140879 19.8077067,75.803619 C18.9954035,75.8825128 18.1937303,75.8656703 17.3911713,75.8018462 C17.2795571,75.7770256 17.1679429,75.7513187 17.0572146,75.7238388 C16.9854626,75.6511502 16.9145965,75.5766886 16.8437303,75.5022271 C16.6399902,75.1875385 16.4486516,74.8675311 16.2679429,74.5368864 C15.7993406,73.1008425 15.5211909,71.616044 15.2846752,70.1206081 C14.9436319,66.7042418 14.9958957,63.2524176 15.3741437,59.8378242 C15.827687,56.9887839 16.4752264,54.2026813 17.4841831,51.4999048 C18.4461909,49.4265055 19.5844783,47.4710037 20.915876,45.6138974 C21.9956988,44.3205714 23.1570177,43.1291868 24.4450098,42.0432894 C24.8365453,41.7551941 25.2325098,41.4741905 25.6346752,41.2011648 C26.1493406,40.8510183 26.6613484,40.4822564 27.1839862,40.1338828 L27.4621358,40.1870696 C28.1424508,40.3182637 28.8050492,40.3953846 29.4552461,40.3953846 C30.6564272,40.3953846 31.8106594,40.1329963 32.9427461,39.4699341 M32.8807382,18.0675604 C31.0399902,18.2404176 29.2302461,18.600315 27.4585925,19.1304103 C26.0084941,19.5665421 24.6000295,20.2171941 23.2650886,20.9174872 C21.8185335,21.6683077 20.5278839,22.8286667 19.309872,23.8950623 C17.1847736,25.7512821 15.3023917,27.8627985 13.808002,30.2624103 C13.4864469,30.7800952 13.2074114,31.327033 12.9531791,31.8881538 C12.8052461,32.0211209 12.6590846,32.1549744 12.5138091,32.2888278 C11.1638091,33.5280806 10.0361516,35.0758168 8.93595472,36.5269304 C7.96331693,37.8149377 7.10140748,39.1587912 6.30947835,40.5611502 C5.31646654,42.3127692 4.57591535,44.210652 3.82119094,46.0704176 C3.09126969,47.874337 2.63772638,49.7544908 2.25062008,51.655033 C1.58270669,54.9313407 1.2886122,58.3344103 1.13979331,61.6727692 C0.973257874,65.3914139 1.2850689,69.0763736 1.79353346,72.7569011 C2.23999016,76.0012967 3.08418307,79.2386007 4.77345472,82.071685 C5.28191929,82.9271062 6.06056102,83.9172674 6.69038386,84.6308571 C7.17758858,85.1813407 7.66567913,85.6591355 8.23349409,86.126293 C9.07768701,86.8150623 9.80760827,87.3903663 10.7660728,87.8468864 C11.976998,88.4257363 13.0603642,88.7927253 14.365187,88.9904029 C16.205935,89.2669744 17.9527854,89.4362857 19.8077067,89.2740659 C21.7388091,89.1038681 23.6867421,88.7785421 25.6036713,88.480696 C29.1505217,87.9302125 32.676998,87.0889744 36.1334941,86.1333846 C39.5660728,85.1875458 42.9224705,83.9757729 46.1920571,82.5698681 C49.2446161,81.2614725 52.2094783,79.7518535 54.9050492,77.799011 C57.7839862,75.7105421 60.3785728,73.3561392 62.4381201,70.4370696 C64.448061,67.5906886 65.8946161,64.2665128 66.5589862,60.8457143 C66.9150886,59.0134286 67.0745374,57.1297289 67.1197146,55.267304 C67.1613484,53.3658755 66.8424508,51.4582418 66.5696161,49.584293 C66.0159744,45.8000513 64.6075098,42.1851209 62.9634154,38.753685 C61.8844783,36.4959048 60.4689272,34.397685 58.9674508,32.4031795 C57.1435335,29.982293 55.1681398,27.7555385 52.9296555,25.7167106 C50.7531791,23.7355018 48.3339862,22.0078168 45.7287697,20.6506667 C44.4452067,19.9822857 43.078376,19.4486447 41.7150886,18.9743956 C40.1365453,18.4239121 38.4481594,18.2581465 36.8014075,18.0462857 C36.2406791,17.9735971 35.679065,17.9443443 35.1174508,17.9443443 C34.3715846,17.9443443 33.6248327,17.9966447 32.8807382,18.0675604" id="Fill-42"></path>
                    <path d="M20.5786417,89.8214469 C19.3367126,95.1605165 18.2391732,100.524407 17.1496063,105.898934 C16.1565945,110.798326 15.4302165,115.760656 14.6577756,120.701711 C13.2121063,129.998766 11.976378,139.327733 10.5989173,148.635425 C10.125,151.831066 9.57135827,155.016956 9.14261811,158.223234 C8.90698819,159.961557 9.38090551,161.928582 10.329626,163.400084 C11.6716535,165.484121 13.7276575,166.617 16.0564961,167.298678 C16.7376969,167.496355 17.4817913,167.561952 18.184252,167.655916 C19.5059055,167.83941 20.8142717,167.998084 22.1465551,168.092048 C24.294685,168.248062 26.457874,168.213491 28.6068898,168.126619 C33.5542323,167.928941 38.4785433,167.070861 43.3745079,166.353725 C45.490748,166.045242 47.6069882,165.734985 49.7223425,165.423842 C52.8439961,165.080788 55.9479331,164.765212 59.0917323,164.673908 C59.5266732,164.661498 59.9616142,164.65352 60.3974409,164.647315 C60.2787402,166.697667 60.1777559,168.760429 60.1405512,170.81344 C60.0395669,176.014223 59.9500984,181.212348 59.9084646,186.416678 C59.8287402,196.247374 59.5762795,206.070978 59.2547244,215.894582 C59.1537402,218.948392 59.0749016,222.005747 59.0430118,225.059557 C59.0261811,226.673777 59.0297244,228.290656 59.067815,229.903989 C59.0988189,231.15122 59.2370079,232.370084 59.4442913,233.602245 C59.5497047,234.222758 59.7623031,234.807813 59.9430118,235.401733 C59.9819882,238.287117 62.0273622,240.879974 64.8008858,241.643205 C68.1918307,242.57752 72.0992126,240.528055 72.9434055,237.016839 C73.3827756,235.181007 73.4412402,233.353154 73.4864173,231.483637 C73.513878,230.309095 73.6316929,229.131894 73.7007874,227.958238 C73.8425197,225.540897 73.9674213,223.127989 74.0923228,220.710648 C74.3376969,215.86267 74.5697835,211.019125 74.7496063,206.167601 C75.1021654,196.482282 75.1305118,186.794304 75.303248,177.101894 C75.3865157,172.451593 75.4830709,167.804839 75.7355315,163.160744 C75.7975394,161.945425 75.8639764,160.733652 75.9224409,159.518333 C75.942815,159.064473 75.9605315,158.614158 75.9747047,158.161183 C75.9844488,157.880179 75.9950787,157.600062 75.9879921,157.319945 C75.9499016,155.436245 75.6283465,154.951359 74.9152559,153.264451 C74.6176181,152.561498 74.0294291,152.032289 73.5555118,151.443689 C72.9434055,150.674253 70.9883858,149.556443 70.0334646,149.386245 C69.075,149.213388 68.1298228,148.995322 67.167815,149.122971 C66.0525591,149.273667 64.9426181,149.441205 63.8309055,149.604311 C61.6641732,149.850744 59.4912402,150.022714 57.3271654,150.286875 C54.025689,150.691982 50.7419291,151.159139 47.4581693,151.6653 C45.2294291,152.011015 43.0184055,152.482604 40.8002953,152.880619 C37.5812008,153.460355 34.373622,154.061366 31.1359252,154.531183 C28.0939961,154.894626 25.0042323,155.121557 21.9304134,155.04089 C22.0003937,154.458495 22.0712598,153.877872 22.1430118,153.295476 C22.3609252,151.485352 22.5646654,149.674341 22.765748,147.859784 C23.149311,144.390231 23.5133858,140.917132 23.8934055,137.447579 C24.6809055,130.233674 25.5109252,123.025974 26.3887795,115.825366 C26.8750984,112.3567 27.357874,108.888033 27.9106299,105.427344 C28.1382874,104.010802 28.3739173,102.596033 28.6086614,101.180377 C29.2562008,100.389667 29.6503937,99.3782308 29.6787402,98.2879011 C29.7150591,96.837674 29.7115157,95.377696 29.7690945,93.9230366 C29.8550197,93.3362088 29.9391732,92.7484945 30.0197835,92.1607802 C30.0959646,91.8407729 30.1411417,91.5172198 30.1508858,91.188348 C30.1544291,91.1644139 30.1570866,91.1404799 30.1597441,91.1165458 C30.1579724,91.1165458 30.155315,91.1174322 30.1526575,91.1174322 C30.1579724,90.6954835 30.1057087,90.2646703 29.9834646,89.8214469 C29.6477362,88.5990366 28.8345472,87.5432784 27.7449803,86.9023773 C27.0026575,86.4689048 26.1690945,86.265022 25.3373031,86.265022 C23.2095472,86.265022 21.0959646,87.5982381 20.5786417,89.8214469" id="Fill-44"></path>
                    <path d="M21.1417618,97.4440923 C20.1071161,101.197308 22.3774902,105.287374 26.162628,106.290832 C29.7511122,107.247308 33.3670571,108.050429 36.9936319,108.85355 C41.2766043,109.802048 45.5542618,110.782459 49.8762106,111.554554 C55.3506201,112.527873 60.9215846,113.015418 66.4819193,113.005667 C69.7692224,112.998576 73.049439,112.755689 76.3261122,112.513689 C78.2536713,112.368312 80.1812303,112.226481 82.1087894,112.081103 C83.5686319,111.971184 85.0453051,111.811623 86.5148917,111.738048 C87.2891043,112.001323 88.09875,112.13429 88.9429429,112.136063 C90.9387106,112.136063 92.8733563,111.332942 94.2818209,109.923492 C95.6938287,108.514041 96.4963878,106.575382 96.4963878,104.580876 C96.4060335,103.912495 96.316565,103.240568 96.2262106,102.572188 C95.866565,101.291272 95.2190256,100.179667 94.2818209,99.2373744 C91.5242421,95.8201216 86.8488484,96.2358652 82.9423524,96.4672278 C81.2575098,96.5682828 79.5753248,96.7446857 77.8975689,96.9104513 C74.9043602,97.2020923 71.9182382,97.4893011 68.9179429,97.6763414 C63.8713878,97.9928029 58.776998,97.8394476 53.7517028,97.2375502 C49.5635138,96.6134916 45.4072146,95.7908689 41.2597736,94.9407663 C37.4843799,94.1686711 33.7125295,93.4001216 29.982313,92.4197114 C29.3693209,92.258378 28.7492421,92.1812571 28.1380217,92.1812571 C24.9765059,92.1812571 22.020502,94.2493377 21.1417618,97.4440923" id="Fill-46"></path>
                </g>
            </g>
        </g>
    </g>
</svg>