<?xml version="1.0" encoding="UTF-8"?>
<svg width="500px" height="416px" viewBox="0 0 500 416" version="1.1" xmlns="http://www.w3.org/2000/svg" xmlns:xlink="http://www.w3.org/1999/xlink">
    <!-- Generator: Sketch 51.1 (57501) - http://www.bohemiancoding.com/sketch -->
    <title>thought_bubble_002</title>
    <desc>Created with Sketch.</desc>
    <defs></defs>
    <g id="shapes" stroke="none" stroke-width="1" fill="none" fill-rule="evenodd">
        <g id="thought_bubble_002_DL" transform="translate(-176.000000, -235.000000)" fill="#000000">
            <g id="thought_bubble_002" transform="translate(176.000000, 235.000000)">
                <g id="Group-20" transform="translate(44.000000, 317.000000)">
                    <path d="M40.8899514,5.77869231 C41.207172,5.84538462 41.5134808,5.93247692 41.8221278,6.03996923 C42.1222014,6.19453846 42.4043484,6.36244615 42.681819,6.54996923 C43.2087014,7.03015385 43.6794661,7.548 44.126069,8.0988 C44.705172,8.92813846 45.1852896,9.79906154 45.6108484,10.7194154 C46.020819,11.7755077 46.3380396,12.8457231 46.5367896,13.9638 C46.6092749,14.7970615 46.6225249,15.6177692 46.5593925,16.4502462 C46.4401425,17.0748 46.2795837,17.6797385 46.0714808,18.2831077 C45.8399955,18.7554462 45.579672,19.1822769 45.2795984,19.6193077 C45.0052455,19.9229538 44.7199808,20.2062 44.4144514,20.4753231 C44.1416572,20.6542154 43.8680837,20.8142769 43.5804808,20.9649231 C43.0364514,21.1610769 42.4893043,21.3117231 41.9195543,21.4278462 C41.3108337,21.4717846 40.7106867,21.4623692 40.0965102,21.4145077 C39.3607455,21.2858308 38.6475837,21.1061538 37.9367602,20.8574308 C37.4620984,20.6244 37.0123778,20.3646923 36.5712308,20.0657538 C36.282069,19.8115385 36.0116131,19.5463385 35.752069,19.2583846 C35.460569,18.8276308 35.204922,18.3843231 34.9718778,17.9174769 C34.6858337,17.1156 34.4925396,16.2988154 34.3491278,15.4569231 C34.294569,14.7954923 34.281319,14.1466154 34.3257455,13.4851846 C34.3997896,13.0811077 34.4878631,12.6809538 34.586069,12.2839385 C35.9024955,12.3671077 37.2298337,11.5103077 37.5579661,10.1741077 C37.7216425,9.50953846 37.8798631,8.84810769 38.0910837,8.19766154 C38.2672308,7.83438462 38.4581867,7.4868 38.6795396,7.14627692 C38.9250543,6.86381538 39.1807014,6.59783077 39.4573925,6.3444 C39.674069,6.20787692 39.8923043,6.08390769 40.120672,5.967 C40.3342308,5.89403077 40.5470102,5.83126154 40.7675837,5.77869231 C40.8081131,5.77790769 40.849422,5.77790769 40.8899514,5.77869231 M40.3069514,0.0196153846 C39.7286278,0.0690461538 39.1986278,0.182030769 38.6507014,0.350723077 C37.6748778,0.650446154 36.7832308,1.13847692 35.990569,1.75832308 C35.6694514,1.49861538 35.2968925,1.30481538 34.8970543,1.1934 C34.1082896,0.976061538 33.2524955,1.08669231 32.5463484,1.50332308 C32.3421425,1.6626 32.1355984,1.82187692 31.9313925,1.98115385 C31.5533778,2.36404615 31.2922749,2.81833846 31.1457455,3.33618462 C30.4816867,4.94543077 29.9283043,6.59390769 29.3437455,8.23061538 C28.716319,9.98972308 28.3024514,11.7676615 28.0982455,13.6248462 C27.9883484,14.6236615 28.1286425,15.6507231 28.2689367,16.6377692 C28.4084514,17.6522769 28.6188925,18.6299077 28.950922,19.6012615 C29.5385984,21.318 30.518319,22.8778154 31.7817455,24.1653692 C32.409172,24.7993385 33.1823484,25.3266 33.9282455,25.8020769 C34.8658778,26.3960308 35.9710837,26.7914769 37.0279661,27.1100308 C37.9445543,27.3893538 38.918819,27.4780154 39.8626867,27.5949231 C40.7060102,27.6961385 41.5462161,27.6592615 42.3833043,27.5486308 C44.5508484,27.2669538 46.6030396,26.5341231 48.3052749,25.1178923 C49.757319,23.9103692 50.8290102,22.3780154 51.5445102,20.6314615 C52.314569,18.7523077 52.5951572,16.7295692 52.5031867,14.7005538 C52.4182308,12.7915846 51.9552602,10.9304769 51.2553484,9.16195385 C50.9139661,8.30123077 50.5304955,7.46169231 50.097922,6.64333846 C49.5928631,5.68689231 48.9233484,4.84107692 48.2592896,3.99526154 C47.2273484,2.68338462 45.9304072,1.56452308 44.4167896,0.865430769 C43.6132161,0.495092308 42.8221131,0.222046154 41.9507308,0.102784615 C41.525172,0.0423692308 41.158069,0 40.7668043,0 C40.6187161,0 40.4667308,0.00627692308 40.3069514,0.0196153846" id="Fill-16"></path>
                    <path d="M16.6986932,78.2560577 C17.0056908,78.3170734 17.3021282,78.3967527 17.6008286,78.4950955 C17.8912317,78.6365083 18.1642861,78.7901242 18.4328147,78.9616858 C18.9427173,79.4009985 19.3983108,79.8747672 19.8305211,80.3786847 C20.3909614,81.1374323 20.8556064,81.9342249 21.2674509,82.776241 C21.6642094,83.7424418 21.971207,84.7215636 22.1635519,85.7444731 C22.2337012,86.5068098 22.2465242,87.2576613 22.1854264,88.0192802 C22.0700195,88.5906739 21.914635,89.1441218 21.7132385,89.696134 C21.4892132,90.1282684 21.2372791,90.5187686 20.946876,90.9186005 C20.6813646,91.1964012 20.405293,91.4555383 20.1096098,91.7017544 C19.845607,91.8654199 19.5808499,92.0118575 19.3025154,92.1496811 C18.7760184,92.3291389 18.2465041,92.4669625 17.6951153,92.5732015 C17.1060118,92.6134001 16.5252056,92.6047861 15.9308221,92.5609984 C15.2187687,92.4432741 14.5285898,92.2788907 13.8406739,92.0513382 C13.3813089,91.8381423 12.9460814,91.6005402 12.5191511,91.3270465 C12.2393081,91.0944692 11.9775681,90.8518422 11.7263883,90.5883982 C11.4442824,90.1943088 11.196874,89.7887342 10.9713402,89.3616246 C10.6945143,88.6280011 10.5074495,87.8807388 10.3686594,87.1105059 C10.3158588,86.5053742 10.3030358,85.9117278 10.3460306,85.306596 C10.4176885,84.9369129 10.5029237,84.570819 10.5979647,84.2075964 C11.871967,84.2836865 13.1565294,83.4998148 13.4740871,82.2773483 C13.6324888,81.6693452 13.7856104,81.0642135 13.990024,80.4691314 C14.1604945,80.1367755 14.3452964,79.8187763 14.5595159,79.5072376 C14.7971184,79.2488183 15.0445268,79.0054735 15.3123011,78.7736141 C15.5219948,78.6487114 15.7331971,78.5352941 15.9542052,78.4283372 C16.1608817,78.3615789 16.3668039,78.3041524 16.580269,78.2560577 C16.6194923,78.2553399 16.6594699,78.2553399 16.6986932,78.2560577 M15.7538041,72.9871765 C15.2307624,73.0323999 14.7514249,73.1357676 14.2558745,73.2901013 C13.3733296,73.5643129 12.5669148,74.0108039 11.8500233,74.5778905 C11.5596012,74.3402884 11.2226551,74.1629841 10.8610373,74.0610521 C10.1476703,73.8622128 9.37368124,73.963427 8.73503454,74.3445954 C8.55034862,74.4903151 8.36354799,74.6360349 8.17886207,74.7817546 C7.83698166,75.1320562 7.60083746,75.5476805 7.46831475,76.0214491 C6.86773307,77.493721 6.36724835,79.0018844 5.8385673,80.4992803 C5.27111631,82.1086579 4.89681012,83.7352635 4.71212421,85.43437 C4.61273217,86.3481691 4.73961563,87.2878102 4.86649908,88.1908419 C4.99267762,89.1189977 5.1830028,90.0134154 5.48329363,90.9020904 C6.01479432,92.4727051 6.90086375,93.8997536 8.04351973,95.0777147 C8.61097072,95.6577223 9.31023952,96.1401049 9.98483654,96.5751106 C10.8328409,97.1185088 11.8324006,97.4802958 12.7882559,97.7717352 C13.6172278,98.0272832 14.4983629,98.1083981 15.3520065,98.2153549 C16.1147171,98.3079552 16.874608,98.2742171 17.6316792,98.1730029 C19.5920286,97.9153015 21.4480515,97.2448471 22.9875707,95.9491618 C24.3008144,94.8444195 25.270063,93.4424951 25.9171686,91.8446028 C26.6136178,90.125397 26.8673847,88.2748281 26.7842055,86.4185166 C26.7073706,84.6720332 26.2886552,82.9693376 25.6556477,81.351346 C25.346898,80.5638851 25.0000832,79.7958057 24.6088593,79.0471077 C24.1520788,78.1720715 23.5465628,77.3982494 22.9459811,76.6244274 C22.0126828,75.4242136 20.8397158,74.4005862 19.4707844,73.7609986 C18.7440242,73.4221823 18.0285425,73.172377 17.2404552,73.0632667 C16.8555754,73.0079937 16.5235637,72.9692308 16.1696999,72.9692308 C16.0357674,72.9692308 15.8983103,72.9749734 15.7538041,72.9871765" id="Fill-16" transform="translate(15.737942, 85.619419) rotate(-26.000000) translate(-15.737942, -85.619419) "></path>
                    <path d="M21.0367819,55.2243135 C21.0702966,55.2287642 21.1030319,55.2332149 21.1365466,55.2376657 C21.1030319,55.2339567 21.0702966,55.229506 21.0367819,55.2243135 M21.8801055,55.2013181 C21.7889143,55.2198628 21.6977231,55.2332149 21.6065319,55.2413746 C21.6041937,55.239891 21.6018555,55.2391492 21.5995172,55.2376657 C21.6930466,55.2257971 21.7865761,55.2131867 21.8801055,55.2013181 M27.8846937,39.1839178 C28.116179,39.2343593 28.3398702,39.2922186 28.5643408,39.3612048 C28.7927084,39.4761817 29.0109437,39.5993183 29.229179,39.7335817 C29.4653408,39.9331223 29.6843555,40.1415644 29.8932378,40.3663258 C30.1106937,40.6927119 30.302429,41.022807 30.4770172,41.366996 C30.6570614,41.8706692 30.7918996,42.3713752 30.8908849,42.8898841 C30.938429,43.5070507 30.9376496,44.114574 30.8901055,44.7332241 C30.7303261,45.5499313 30.4848114,46.333258 30.1753849,47.1113923 C29.6960466,48.0883254 29.1262966,48.9881127 28.4598996,49.8611956 C27.9111937,50.5080336 27.3383261,51.1274255 26.7147966,51.7156624 C26.0943849,52.3031575 25.4170761,52.8394692 24.7327525,53.3594617 C23.8372084,53.9847879 22.9058114,54.5685741 21.9268702,55.0700219 C21.7920319,55.1137873 21.6571937,55.1545856 21.5200172,55.1931585 C21.4607819,55.1590363 21.4031055,55.1241723 21.3446496,55.0885665 C21.2113702,54.9654299 21.0851055,54.8408098 20.9642966,54.7102553 C20.6720172,54.2733429 20.4226055,53.824562 20.1934584,53.3572364 C19.7811496,52.3209603 19.516929,51.2653979 19.3251937,50.1697789 C19.2043849,49.0689674 19.1895761,47.9718649 19.2908996,46.868828 C19.3820908,46.8777295 19.4740614,46.8821802 19.5660319,46.8821802 C21.1310908,46.8821802 22.3641202,45.6567486 22.3945172,44.1902362 C22.4023114,43.7555492 22.4225761,43.3230876 22.4498555,42.8891424 C22.5223408,42.5523712 22.6166496,42.2282104 22.7327819,41.9040496 C22.8722966,41.6570346 23.0211643,41.4233718 23.1856202,41.1911926 C23.4747819,40.8774168 23.7787525,40.5873782 24.1092231,40.30995 C24.5527084,40.0199114 25.0078849,39.7669621 25.4911202,39.5407172 C25.9533114,39.384942 26.4139437,39.2603218 26.8909437,39.1698238 C27.2260908,39.1557299 27.5534437,39.1609224 27.8846937,39.1839178 M27.0896937,33.7384615 C26.2307819,33.7414287 25.3391349,33.9298425 24.5137378,34.1501532 C23.5332378,34.4134874 22.577679,34.860043 21.703179,35.3525894 C20.2464584,36.1715219 19.0570761,37.3613478 18.1373702,38.7010146 C17.7523408,38.6520567 17.357179,38.6750521 16.9783849,38.7744515 C16.3267966,38.9458042 15.5107525,39.4294492 15.237179,40.0495828 C14.4055466,41.9211107 13.7905908,43.8104414 13.4647966,45.8273595 C13.1608261,47.6988874 13.1881055,49.536293 13.4920761,51.4055955 C13.6144437,52.1525748 13.766429,52.8913943 13.9612819,53.6279885 C14.2138114,54.5663487 14.6463849,55.4587181 15.0633702,56.3429279 C15.4102084,57.0817474 15.8700614,57.7219093 16.3907084,58.3598459 C16.9292819,59.0141018 17.569179,59.4836528 18.2628555,59.9851006 C18.5247378,60.1557115 18.8053261,60.2981346 19.1007231,60.4049519 C19.7546496,60.6890562 20.311929,60.8715357 21.0367819,60.9093668 C22.0570319,60.964259 23.0492231,60.7298544 23.9868555,60.3589611 C25.6766202,59.6898695 27.2143996,58.6350488 28.6360466,57.5394298 C30.0701643,56.4356512 31.3733408,55.2562103 32.5362231,53.8883556 C33.6655908,52.5612992 34.6305025,51.1852849 35.3428849,49.6149224 C35.7146643,48.8034078 36.0342231,47.988926 36.2836349,47.1373548 C36.5704584,46.1544874 36.6795761,45.1004085 36.7224437,44.0826772 C36.7988261,42.361732 36.3787231,40.6059229 35.6538702,39.0385276 C35.2852084,38.2411068 34.8409437,37.5549541 34.2711937,36.8710268 C33.6172672,36.0854747 32.8253849,35.486111 31.9516643,34.9238367 C31.2572084,34.4772811 30.4076496,34.1961439 29.6071937,33.9877019 C28.8488261,33.7896448 28.0109584,33.7384615 27.2206349,33.7384615 C27.1769878,33.7384615 27.1333408,33.7384615 27.0896937,33.7384615" id="Fill-18"></path>
                </g>
                <path d="M486.664898,157.934849 C486.691832,158.092915 486.719728,158.25098 486.745701,158.409046 C486.717804,158.25098 486.69087,158.092915 486.664898,157.934849 M32.1946235,156.535735 C32.1840421,156.60303 32.1734608,156.669542 32.1638413,156.736055 C32.1734608,156.669542 32.1840421,156.602247 32.1946235,156.535735 M225.499675,12.4112739 C225.415024,12.441009 225.330373,12.4707441 225.245723,12.4996967 C225.330373,12.4707441 225.415024,12.441009 225.499675,12.4112739 M264.379431,0.102507842 C260.80197,0.23083827 257.247596,0.582181941 253.685526,0.872490409 C252.411916,0.973433246 251.126762,1.04698849 249.859884,1.21209654 C248.751728,1.35529452 247.639723,1.50240501 246.530605,1.64638549 C244.742355,1.87800626 242.953144,2.11040954 241.168742,2.34281281 C238.887978,2.64251131 236.633187,3.04315265 234.386092,3.47118158 C227.314859,4.81239105 220.419662,6.85472286 214.133373,9.82588527 C211.044579,11.2868176 208.169335,13.0779661 205.445117,14.9512774 C202.442897,17.0116067 199.763889,19.3747646 197.295547,21.8568629 C195.00324,24.1582031 192.811937,26.5424885 191.136235,29.1803048 C189.423017,31.8791563 188.382196,34.7650259 187.859862,37.7604459 C187.279811,41.0673019 187.436608,44.4070231 187.048945,47.7193566 C187.042212,47.7514392 187.034516,47.7835218 187.027783,47.8156045 C186.302479,47.5980687 185.582946,47.3656655 184.86149,47.1442172 C183.478218,46.7193183 182.09206,46.2975494 180.702055,45.8820405 C178.334716,45.1754406 175.955835,44.4852733 173.558676,43.8522287 C170.744035,43.1096338 167.937089,42.3881664 165.096476,41.7128666 C159.58455,40.3982622 154.008175,39.3497087 148.270193,38.9435899 C144.655217,38.6892765 141.025811,38.9521974 137.452198,39.4170039 C133.724674,39.8998081 130.188577,40.9694891 126.788113,42.2809635 C123.631983,43.4977551 120.809646,45.1605731 118.077732,46.9149439 C115.030301,48.8712005 112.335903,51.1975807 109.859865,53.6209913 C107.624313,55.8096511 105.595578,58.1391614 103.742878,60.5539644 C101.736268,63.1675231 100.060566,65.9422774 98.4820196,68.7365942 C96.9900482,71.3806705 95.6789218,74.0943896 94.5399829,76.8519288 C93.2740677,79.920904 92.3987009,83.0814321 91.7744008,86.2724777 C91.2751531,88.8492588 90.963484,91.4440374 90.8846048,94.0482061 C90.8057256,96.5303044 90.9894564,99.0217927 91.2790008,101.491371 C91.606061,104.294295 92.2072745,107.060442 92.7738581,109.835979 C93.4568366,113.18822 94.6409868,116.462211 95.4182356,119.797237 C93.9185686,119.22288 92.4477599,118.609398 90.9702176,117.981831 C89.761057,117.468509 88.5615158,116.93406 87.3590888,116.411348 C84.4588349,115.151519 81.4335285,114.094358 78.3033705,113.283685 C76.5228166,112.825921 74.621058,112.571608 72.7693205,112.41902 C70.882953,112.266432 69.0562259,112.272692 67.1737061,112.443277 C65.3662178,112.608386 63.5895117,112.898694 61.837816,113.293075 C59.9177806,113.727364 58.0727766,114.384666 56.2470114,115.029449 C52.9475517,116.200072 49.8847296,117.819853 47.0027526,119.562486 C43.8244975,121.485095 40.901157,123.61272 38.3116102,126.05491 C33.4008983,130.688891 30.819047,136.517753 28.7864644,142.322357 C26.667307,148.371102 25.284035,154.634253 24.7578529,160.913054 C24.2393664,167.12456 25.0589406,173.399448 26.5316732,179.491231 C27.3473997,182.844255 28.3766772,186.164413 29.3424666,189.486919 C29.9927391,191.714704 30.570866,193.958922 31.1759273,196.196097 C31.4462329,197.195353 31.6645937,198.203998 31.9089268,199.207167 C32.3466103,201.020225 32.7967989,202.834066 33.1315546,204.661992 C33.2469876,205.493793 33.3316385,206.319333 33.3633825,207.157393 C33.389355,207.979804 33.2354443,208.817081 33.1036583,209.630102 C32.9949589,210.296794 33.5249887,211.094164 34.080991,211.54645 C34.7004814,212.054295 35.5575713,212.341473 36.436786,212.341473 C37.3160006,212.341473 38.1692428,212.054295 38.792581,211.54645 C39.4803692,210.986961 39.6458232,210.382087 39.7699136,209.630102 C39.9392154,208.575288 40.0402192,207.542385 40.0027035,206.475834 C39.9536445,205.045419 39.6458232,203.596224 39.367822,202.186937 C39.0744299,200.704877 38.6992726,199.234554 38.3452781,197.764232 C37.8344871,195.62174 37.2823326,193.487855 36.7147871,191.353971 C35.118926,185.388171 33.1777278,179.483406 32.1272876,173.429966 C31.3029036,167.935233 31.312523,162.434239 32.1320973,156.941071 C32.7236914,153.512927 33.5586567,150.133298 34.5879342,146.769319 C35.6316408,143.359173 36.9158329,139.979544 38.5463239,136.720421 C39.6727575,134.675742 40.9983131,132.735135 42.6172608,130.921294 C44.87109,128.660644 47.4490935,126.691867 50.257001,124.887416 C53.3457955,123.01254 56.6038918,121.384152 60.12556,120.111021 C61.3347206,119.723682 62.5486909,119.373903 63.7953672,119.070292 C64.9756696,118.783896 66.1857921,118.596878 67.3997624,118.44742 C69.0821983,118.316742 70.7184609,118.318307 72.398011,118.449767 C73.4205549,118.58201 74.4296317,118.747118 75.4406323,118.951352 C76.8248663,119.230705 78.1686987,119.664212 79.4913684,120.094588 C83.121736,121.399802 86.5683728,123.061055 90.0688783,124.581458 C91.5714311,125.2325 93.1499773,125.782599 94.7208279,126.314701 C95.4384364,126.558842 96.1483493,126.803765 96.9034734,126.950093 C97.8808061,127.140241 98.8388999,127.084684 99.7969938,126.864801 C102.07391,126.338959 103.396579,124.202727 103.431209,122.392798 C103.475458,119.966258 102.765546,117.60623 102.108539,115.255592 C101.743964,113.962898 101.397665,112.666291 101.04848,111.370466 C100.762783,110.300785 100.477086,109.240494 100.259688,108.158293 C99.9634097,106.695013 99.6700175,105.230951 99.3737395,103.767671 C99.0091636,101.293398 98.7677163,98.819907 98.6811415,96.3229412 C98.5936048,93.700775 98.80427,91.0895638 99.2025139,88.4885251 C99.695028,85.8021936 100.38474,83.1588998 101.292813,80.5445586 C102.122007,78.1524481 103.187838,75.8135478 104.346978,73.5169027 C105.668685,71.0175893 107.119293,68.5675737 108.710345,66.1715507 C110.386047,63.6464147 112.346484,61.2464792 114.48007,58.9592241 C117.296635,56.086657 120.399859,53.4457107 123.923451,51.1443706 C126.4447,49.623968 129.09004,48.3234486 131.947968,47.2615926 C134.716436,46.3624971 137.558012,45.7537101 140.505401,45.3851513 C143.813518,45.1026679 147.10432,45.1331855 150.402818,45.4469691 C153.98605,45.889083 157.533691,46.5017826 161.012072,47.3304528 C162.902287,47.7803918 164.814627,48.1927707 166.689451,48.6849648 C170.165908,49.6020579 173.655832,50.4941109 177.087078,51.5184068 C178.991722,52.0865037 180.897329,52.6616431 182.794278,53.2485201 C183.512848,53.4715333 184.230456,53.6945466 184.951913,53.9175598 C185.673369,54.140573 186.379434,54.3549788 187.123015,54.5294768 C187.672283,54.6116396 188.224438,54.6578073 188.78044,54.6695448 C189.74623,54.7125825 190.584081,54.3025511 191.410389,53.9731175 C191.899055,53.7070666 192.34251,53.3979781 192.736906,53.0466344 C193.10533,52.7195483 193.413151,52.3588146 193.657484,51.9675633 C194.14615,51.2734835 194.364511,50.4487257 194.567481,49.6748307 C194.946486,48.2444159 195.021517,46.7560959 195.104244,45.2951635 C195.217753,43.1839715 195.298556,41.070432 195.571748,38.9670649 C195.931514,37.1641789 196.462506,35.4184156 197.260917,33.7047349 C197.84193,32.6452264 198.492203,31.6224955 199.21943,30.6201096 C200.075559,29.4408782 201.092331,28.3375495 202.111027,27.2475234 C205.285434,23.9586649 208.801331,20.9554199 212.816475,18.3379487 C214.531617,17.2862651 216.293894,16.3018769 218.13505,15.3949563 C220.241702,14.3581404 222.463787,13.4817375 224.722426,12.6828023 C227.96417,11.6217288 231.300183,10.7852335 234.679484,10.0582885 C237.305585,9.48940914 239.98844,8.99408499 242.675143,8.64587133 C245.566739,8.26948758 248.454488,7.89545133 251.346084,7.51985008 C254.453156,7.26866674 257.555417,7.0174834 260.663451,6.76317005 C263.439614,6.53937431 266.24656,6.48459912 269.035228,6.45095151 C273.298554,6.40478386 277.580156,6.61918957 281.810775,7.04174098 C288.538594,7.8563262 295.052863,9.35090618 301.342999,11.4456657 C310.584372,14.6914865 319.428463,18.7980602 327.436627,23.7692993 C330.200285,25.5479277 332.838891,27.425934 335.334168,29.4557457 C337.719783,31.3963522 339.923591,33.4817217 342.01389,35.6351688 C348.102019,42.1792382 352.915575,49.469815 356.902823,56.9904475 C360.230179,63.5079118 362.734113,70.2491718 363.990408,77.2392676 C364.529096,80.8466046 364.810944,84.5181068 364.52621,88.148919 C364.455026,89.0785321 364.383842,90.0073626 364.308811,90.9401058 C364.267447,91.4643825 364.177025,91.9925718 364.085641,92.517631 C363.969246,93.0912054 363.85766,93.6679099 363.745113,94.2438318 C363.597936,94.9840792 363.357451,95.7110242 363.234322,96.4544016 C363.11408,97.1907366 363.031353,97.8175212 363.278572,98.5538561 C363.583507,99.4560817 364.285724,100.323877 365.285182,100.800421 C367.445703,101.830977 369.907311,101.393558 372.191922,100.959269 C373.597319,100.694001 375.018107,100.381782 376.44178,100.192417 C377.901046,99.999921 379.359349,99.8050778 380.819577,99.6125822 C383.146513,99.4373016 385.474412,99.2252434 387.808082,99.1563832 C390.78433,99.0703079 393.752882,98.9787551 396.732977,98.9576275 C399.667861,98.9388474 402.601782,98.9271099 405.536666,98.9451075 C410.630147,98.9779726 415.708237,99.0217927 420.770936,99.5171169 C423.326814,99.8207279 425.850949,100.214327 428.352959,100.758166 C430.879018,101.305135 433.337741,102.034428 435.757024,102.839623 C443.586267,105.650372 450.85085,109.5488 457.646967,113.754752 C460.386577,115.497385 463.074242,117.294794 465.602224,119.23853 C467.923389,121.027331 470.101225,122.958548 472.087634,125.000097 C475.060034,128.285043 477.518757,131.835257 479.521519,135.57249 C483.065312,142.683091 485.312408,150.169293 486.634115,157.756439 C487.129515,160.930269 487.447918,164.10723 487.613372,167.304535 C487.77113,170.359426 487.761511,173.410403 487.355572,176.451991 C486.954442,178.509973 486.295512,180.499094 485.356657,182.438136 C484.113828,184.639316 482.637248,186.769288 480.869199,188.722414 C480.128504,189.538565 479.388771,190.354715 478.65,191.173213 C477.558196,192.243676 476.456773,193.296925 475.318796,194.337653 C474.702192,194.894012 474.056729,195.431592 473.414152,195.966823 C472.992821,196.311907 472.553214,196.645253 472.128998,196.987989 C471.042966,197.862045 470.546604,199.4114 470.952543,200.607064 C471.425819,202.010091 472.82352,203.049255 474.071158,204.021123 C474.729126,204.528185 475.397675,205.029769 476.040252,205.54935 C478.237327,207.327979 480.393038,209.10113 482.338084,211.065211 C484.281206,213.178751 485.93767,215.412796 487.27573,217.818991 C489.079371,221.532749 490.289494,225.455434 491.034036,229.398465 C491.767998,234.256241 491.872849,239.213395 491.167746,244.075866 C490.48092,247.755976 489.29196,251.332796 487.570085,254.782067 C485.154649,259.170342 482.049502,263.246398 478.501861,267.083791 C473.024566,272.767107 466.641121,277.787644 459.664159,282.247909 C449.178995,288.73016 437.612609,294.087173 425.521003,298.321295 C421.215353,299.779097 416.845252,301.065531 412.364528,302.127388 C407.373013,303.310531 402.275684,304.159547 397.131221,304.751901 C390.905534,305.399813 384.652914,305.78637 378.381055,305.90844 C375.182599,305.969475 371.981257,305.972605 368.783763,305.89592 C365.485266,305.818452 362.200235,305.567269 358.928672,305.23627 C351.620801,304.378648 344.539949,302.776082 337.696696,300.522475 C331.924085,298.49188 326.401578,295.997262 321.171502,293.159125 C318.304916,291.60351 315.576849,289.897654 312.818001,288.213709 C312.330296,287.915575 311.843554,287.615877 311.356811,287.315396 C311.22214,287.21993 311.081696,287.133073 310.934519,287.053257 C307.873621,285.155688 304.843505,283.220559 301.718156,281.394198 C300.549397,280.712639 299.3816,280.031079 298.216689,279.349519 C297.205688,278.759512 296.111961,278.254798 295.063444,277.714089 C293.098198,276.699183 291.05792,275.79148 288.983973,274.935422 C287.875817,274.480005 286.759964,274.037109 285.654694,273.581692 C284.982296,273.306251 284.227172,272.951778 283.509564,272.78041 C283.324871,272.734242 283.137292,272.691987 282.953562,272.645819 C282.238839,272.490101 281.52123,272.490101 280.80747,272.645819 C280.559289,272.682597 280.308222,272.716244 280.060041,272.753022 C279.492496,272.92439 278.940341,273.131753 278.406464,273.367287 C277.590737,273.706893 276.944312,274.388453 276.403701,274.962809 C275.591822,275.818867 274.907882,276.747698 274.254724,277.689831 C273.427454,278.884712 272.664634,280.106982 271.830631,281.296386 C270.207835,283.607898 268.407081,285.809078 266.440872,287.931225 C261.898584,292.595723 256.674279,296.775852 250.929563,300.458309 C245.178115,304.012436 239.122692,307.214437 233.116329,310.471995 C232.424693,310.845249 231.669569,311.159815 230.955808,311.501769 C229.355137,312.266274 227.750619,313.027649 226.149948,313.791371 C221.940491,315.796926 217.531913,317.517649 213.049265,319.079524 C209.397735,320.304141 205.703879,321.416077 201.928258,322.358992 C199.267528,323.022555 196.611607,323.686117 193.950876,324.348897 C193.214029,324.532785 192.432932,324.639988 191.681656,324.780056 C190.012687,325.095404 188.348528,325.40997 186.683407,325.724536 C185.545431,325.938942 184.410339,326.152565 183.275248,326.369318 C182.347937,326.543816 181.392729,326.660409 180.453874,326.797347 C178.913805,327.025838 177.368927,327.221464 175.820201,327.400657 C172.632326,327.723048 169.429061,327.953104 166.216176,328.047786 C162.95808,328.146382 159.674011,327.997706 156.439001,327.675315 C152.951963,327.219899 149.586129,326.432701 146.313604,325.359107 C143.010297,324.139186 139.979219,322.607828 137.084736,320.840937 C132.837764,318.080268 129.109278,314.846185 125.744407,311.374221 C122.064018,307.417105 118.687603,303.258886 116.219261,298.713329 C114.81675,295.801636 113.918297,292.768656 113.34017,289.684031 C113.049663,287.730122 112.871704,285.784821 112.74569,283.818391 C112.662963,282.534305 112.554263,281.256478 112.565807,279.970044 C112.580236,278.591274 112.554263,277.209374 112.655267,275.833735 C112.692783,275.343106 112.733185,274.854042 112.78032,274.366542 C112.965012,274.154484 113.145857,273.940861 113.324779,273.72489 C114.22227,272.634082 114.891781,271.328867 115.195755,270.041651 C115.526663,268.626103 115.51512,266.676107 114.023148,265.643203 C113.366142,265.187787 112.790901,264.790275 111.929963,264.60717 C111.077683,264.429542 110.277348,264.365377 109.412562,264.557872 C107.530042,264.979641 106.361283,266.340413 105.756222,267.770828 C105.281985,268.898414 104.980897,270.069821 104.775042,271.256877 C103.199381,272.763977 101.431333,274.103622 99.5334218,275.340758 C96.4792572,277.172597 93.2403998,278.719604 89.7831817,279.986476 C85.9113667,281.245523 81.8769836,282.049936 77.7531399,282.54839 C74.5085109,282.874693 71.2379094,283.098489 67.9701938,283.136049 C66.0318814,283.161089 64.0926072,283.182217 62.1533329,283.206474 C56.2604786,283.2769 50.3493474,283.442008 44.4853514,282.899733 C41.6591669,282.542912 38.8974326,281.975598 36.2299685,281.137538 C33.83281,280.223574 31.6030294,279.106161 29.4732907,277.827551 C26.7356049,276.024665 24.2999687,273.989376 22.0846172,271.758461 C18.9207912,268.28415 16.4245528,264.478057 14.3198245,260.509204 C11.9370952,255.805581 9.98435372,250.954064 9.00413522,245.917095 C8.72998187,243.879458 8.71555274,241.864514 8.98008668,239.825312 C9.3966074,237.901138 10.0815098,236.05678 10.9578386,234.243721 C12.253574,231.932991 13.834044,229.771719 15.6867436,227.730952 C17.6096648,225.786433 19.7547946,224.03754 22.1346382,222.460014 C23.7401187,221.494406 25.4119732,220.612526 27.1405823,219.802635 C28.4382415,219.194631 29.7676448,218.675049 31.1307161,218.183638 C31.5549323,218.042787 31.9801105,217.904284 32.4081745,217.769694 C33.4942066,217.42461 34.3705354,217.009101 34.9784825,216.159303 C35.5614191,215.351761 35.7191775,214.365025 35.414242,213.462799 C35.117964,212.585614 34.3965078,211.828151 33.4345662,211.369605 C32.4947493,210.922796 31.1720796,210.718563 30.1206774,211.017479 C28.5681036,211.458028 26.9905194,211.910314 25.4947002,212.476064 C24.213394,212.958868 22.9955759,213.478449 21.7633287,214.044199 C20.4223821,214.658463 19.1333803,215.413578 17.8934376,216.159303 C14.988374,217.904284 12.3728547,219.894188 10.0430322,222.140753 C7.84884335,224.258988 5.9701714,226.569718 4.37334833,229.015039 C2.5091055,231.867261 1.13833871,235.000401 0.48806618,238.185187 C0.176397099,239.710284 0.0330677999,241.251032 0.00324761004,242.79491 C-0.0304203462,244.359915 0.202369523,245.92492 0.484218413,247.468015 C1.05945949,250.628543 2.03198246,253.685781 3.21998034,256.726586 C4.34352814,259.609326 5.76335395,262.40599 7.24378208,265.178397 C8.77326924,268.045486 10.6182732,270.777985 12.6999149,273.404064 C16.8372257,278.628052 22.4395736,283.090664 29.0154065,286.257452 C39.2927906,291.209129 51.6094909,290.601124 63.1085409,290.457144 C67.3199213,290.405498 71.5062911,290.340551 75.7070901,289.995467 C79.2393397,289.702029 82.7340736,289.243482 86.1797484,288.547055 C89.9034244,287.79507 93.4693419,286.593146 96.8851965,285.181511 C99.4757053,284.110265 101.880559,282.801138 104.194991,281.385591 C104.272908,282.685328 104.34794,283.985065 104.426819,285.285584 C104.553795,287.519629 104.888551,289.735676 105.272365,291.948594 C105.76007,294.742128 106.636399,297.517665 107.841711,300.161741 C109.134561,303.001443 110.874713,305.715944 112.798597,308.302116 C114.609933,310.738046 116.660792,313.066774 118.783797,315.328989 C121.188651,317.89325 123.796475,320.317443 126.607268,322.594526 C129.121784,324.633728 131.950854,326.421746 134.85207,328.081434 C138.015896,329.89371 141.465418,331.241962 145.057308,332.391458 C152.00926,334.619243 159.700945,335.181863 167.118477,334.952589 C170.819066,334.839909 174.509074,334.479175 178.176958,334.069144 C180.810754,333.775706 183.467637,333.433752 186.056222,332.941558 C189.295079,332.327293 192.533936,331.713029 195.769908,331.095634 C196.412485,330.975911 197.035823,330.804543 197.666857,330.645695 L203.325959,329.22467 C204.472594,328.937492 205.622114,328.650313 206.767786,328.362352 C208.28573,327.980491 209.773854,327.488297 211.261977,327.029751 C213.381135,326.375578 215.47432,325.663501 217.559809,324.938904 C221.043,323.731502 224.443463,322.365252 227.79583,320.928578 C229.06944,320.381608 230.293992,319.767344 231.533935,319.174207 C234.123482,317.933158 236.72361,316.725756 239.218886,315.365767 C242.751136,313.440028 246.293967,311.533069 249.766576,309.536905 C253.218985,307.550131 256.616562,305.492931 259.836181,303.264364 C263.199129,300.937984 266.318705,298.383113 269.23435,295.692869 C272.116327,293.037055 274.750124,290.176225 277.087642,287.186283 C278.195798,285.768388 279.18756,284.279285 280.172588,282.803486 C280.897892,281.711894 281.566442,280.603871 282.356196,279.549057 C285.051556,280.623433 287.749802,281.720502 290.269127,283.032759 C291.768794,283.812131 293.29732,284.560986 294.740232,285.410784 C296.388038,286.37874 298.035844,287.350608 299.68365,288.319346 C301.917278,289.723939 304.155716,291.126966 306.389345,292.532341 C306.421089,292.552686 306.453795,292.571466 306.486501,292.590246 C308.753797,294.006575 311.048028,295.393953 313.329754,296.796197 C318.060582,299.697717 323.185807,302.161035 328.445704,304.364562 C335.164866,307.173747 342.338065,309.264594 349.680565,310.685619 C353.449452,311.416476 357.303952,311.841375 361.148833,312.195849 C365.281334,312.575362 369.42634,312.706823 373.581928,312.71543 C381.462154,312.73421 389.326988,312.336699 397.14565,311.538546 C404.901785,310.747436 412.4992,309.365537 419.909998,307.332595 C423.377797,306.381854 426.756136,305.241748 430.119084,304.074254 C433.756185,302.815207 437.314407,301.41844 440.824532,299.941858 C447.682214,297.053641 454.272476,293.77339 460.570308,290.144925 C472.955306,283.007719 483.976271,274.055106 491.622745,263.332473 C495.414718,258.016933 498.040819,252.199809 499.20573,246.123676 C500.412005,239.841745 500.163824,233.422876 499.002761,227.151117 C498.454454,224.170565 497.484817,221.23618 496.357421,218.372221 C495.151146,215.312636 493.422537,212.415028 491.292799,209.712264 C489.398736,207.309981 487.045826,205.130712 484.630391,203.070382 C483.713661,202.29101 482.724785,201.560152 481.774386,200.80895 C481.284758,200.420828 480.773005,200.049922 480.264138,199.675886 C481.250128,198.870691 482.21207,198.04515 483.116295,197.171095 C485.456699,194.900272 487.666279,192.543375 489.65365,190.061276 C491.649679,187.56744 493.197443,184.816161 494.301752,181.985849 C495.474359,178.981039 495.812962,175.777474 495.974568,172.644333 C496.132327,169.603528 495.910118,166.534553 495.659052,163.502355 C495.387784,160.215844 494.858716,156.941853 494.230568,153.689773 C493.043532,147.500177 491.089829,141.414654 488.40986,135.542754 C487.140097,132.754698 485.622153,130.049586 483.889696,127.436027 C482.036996,124.648753 479.820683,122.053975 477.386009,119.583614 C472.710973,114.846343 466.868139,110.964348 460.931036,107.326493 C454.99778,103.689421 448.677823,100.40604 441.996177,97.750226 C436.393829,95.5247885 430.41921,93.9723034 424.268555,93.1592832 C419.477124,92.5293686 414.626053,92.2664477 409.774981,92.2515801 C404.871965,92.2359301 399.971834,92.2515801 395.064008,92.3063553 C393.061246,92.3306129 391.062331,92.4166882 389.059569,92.4863309 C388.21787,92.514501 387.364627,92.511371 386.526776,92.5755362 C385.204107,92.6788266 383.877589,92.7860294 382.554919,92.8901023 C381.454458,92.975395 380.338606,93.0340827 379.244878,93.1866707 C378.024174,93.3549088 376.806356,93.5254944 375.58469,93.6968625 C374.300498,93.875273 373.031697,94.1021988 371.765782,94.3416446 C371.978371,93.2132758 372.121701,92.0731695 372.29004,90.9401058 C372.451647,89.8547746 372.45838,88.7420559 372.541107,87.6512473 C372.740229,85.0251685 372.534374,82.3630947 372.274649,79.7432759 C371.030859,67.2568818 365.379452,55.333107 358.213949,44.3475529 C354.681699,38.9341998 350.4809,33.8111553 345.663497,29.1067496 C343.404858,26.9000922 340.950945,24.8303728 338.370056,22.8741163 C335.446715,20.6580689 332.26365,18.6595572 329.040184,16.7369483 C326.086061,14.9731874 322.959751,13.3987922 319.811316,11.8736946 C316.4147,10.2288741 312.93151,8.70690653 309.357897,7.33126695 C305.934347,6.01666256 302.435765,4.82178108 298.873695,3.78574762 C295.059597,2.67615892 291.110826,1.87487625 287.142817,1.24574415 C281.482753,0.350561169 275.706293,0 269.939454,0 C268.083868,0 266.230207,0.03599512 264.379431,0.102507842" id="Fill-12"></path>
            </g>
        </g>
    </g>
</svg>