<?xml version="1.0" encoding="UTF-8"?>
<svg width="207px" height="387px" viewBox="0 0 207 387" version="1.1" xmlns="http://www.w3.org/2000/svg" xmlns:xlink="http://www.w3.org/1999/xlink">
    <!-- Generator: Sketch 51.1 (57501) - http://www.bohemiancoding.com/sketch -->
    <title>hourglass</title>
    <desc>Created with Sketch.</desc>
    <defs></defs>
    <g id="ALL" stroke="none" stroke-width="1" fill="none" fill-rule="evenodd">
        <g id="hourglass_DL" transform="translate(-297.000000, -275.000000)">
            <g id="hourglass" transform="translate(298.000000, 273.000000)">
                <path d="M29.4355469,378.210938 L171.664062,381.476562 C159.945313,333.283854 138.807943,309.1875 108.251953,309.1875 C77.6959635,309.1875 51.4238281,332.195312 29.4355469,378.210938 Z" id="Path-2" fill="#D3D3D3"></path>
                <path d="M29.4355469,194.210938 L171.664062,197.476562 C159.945313,149.283854 138.807943,125.1875 108.251953,125.1875 C77.6959635,125.1875 51.4238281,148.195312 29.4355469,194.210938 Z" id="Path-2" fill="#D3D3D3" transform="translate(100.549805, 161.332031) scale(1, -1) translate(-100.549805, -161.332031) "></path>
                <path d="M26.748094,21.1349812 C25.2140439,23.5932484 23.7617301,26.0877682 22.7609593,28.7514664 C21.9116996,31.00085 21.296684,33.252823 20.8491281,35.5859326 C19.9500293,40.2625098 19.5872,45.0607919 19.365914,49.7908847 C19.1555927,54.3025991 19.0030848,58.8134504 19.0000944,63.3251648 C18.9921201,67.9542684 19.490512,72.5738773 20.0546915,77.1727704 C20.6587425,82.0780838 21.5379057,86.9402395 22.5426636,91.7920372 C23.5244956,96.5264458 24.564141,101.233233 25.8290595,105.916716 C27.0172256,110.29982 28.1266459,114.699324 29.3845869,119.066029 C30.6963542,123.611406 32.1367067,128.132615 33.5740688,132.646919 C34.9127493,136.861708 36.2334877,141.120518 38.0595954,145.199791 C40.1697865,149.903989 42.3816495,154.593514 44.9354093,159.131986 C47.3845068,163.474522 50.0598742,167.662553 52.9754665,171.778942 C55.6318951,175.52849 58.2055906,179.335007 61.0205077,182.996513 C62.2276128,184.568319 63.5433672,186.078841 64.7773855,187.639427 C66.5177698,189.844789 68.1694404,192.120931 70.3842937,194.001747 C71.9033921,195.286986 73.4643553,196.530793 74.9714923,197.825526 C75.6024564,198.368451 76.1706231,198.955397 76.723838,199.55529 C77.6887246,200.607477 79.1220996,201.419706 80.6093008,201.777053 C83.0823212,202.363999 86.2979454,201.797768 87.9456288,200.010173 C88.8138274,199.254912 89.4178783,198.361546 89.7488105,197.333528 C90.0837298,196.258036 90.0837298,195.182544 89.7488105,194.107052 C89.3072353,192.723413 88.3483294,191.600448 87.0903884,190.827061 C86.7474948,190.47403 86.4245369,190.106326 86.0766594,189.754158 C85.4606471,189.126644 84.7519339,188.563867 84.0711306,187.987279 C82.5520323,186.705492 80.9053456,185.499664 79.5028709,184.117752 C78.608756,183.024134 77.7913933,181.883042 76.8992719,180.785108 C75.6213952,179.210712 74.3285668,177.642358 73.0985357,176.0343 C70.7969622,173.02016 68.6907582,169.880863 66.502818,166.80285 C64.2720161,163.670458 62.0252657,160.541519 60.07456,157.271023 C58.0371341,153.859832 56.1641776,150.398578 54.3699669,146.886397 C52.5767531,143.137712 50.8802272,139.355365 49.5694567,135.455627 C48.0663069,130.971534 46.636919,126.466725 45.2354412,121.959326 C43.876825,117.582264 42.6577585,113.188802 41.4775667,108.772035 C40.231587,104.095457 38.9038712,99.4361434 37.8532612,94.7224505 C36.7976672,90.0165261 35.8636809,85.2812544 35.0592765,80.5382142 C34.5937785,77.0976759 34.2110135,73.6562744 33.8810781,70.203652 C33.5381845,66.5783984 33.5541331,62.9410606 33.6478308,59.3097649 C33.8272518,52.5020565 34.1332644,45.7064323 35.0493086,38.9418817 C35.342363,37.4702013 35.6573467,36.0114683 36.1198543,34.5682721 C36.5255453,33.3132439 37.0020079,32.0918787 37.5203354,30.8756924 C38.1373445,29.7604953 38.7932282,28.6694666 39.4730347,27.5784379 C41.3808786,24.5168249 40.3801078,20.6464351 36.8285675,18.8458925 C35.7022019,18.2753466 34.4173478,18 33.1334904,18 C30.5707595,18 28.0169997,19.0970708 26.748094,21.1349812" id="Fill-15" stroke="#000000" stroke-width="3" fill="#000000"></path>
                <path d="M169.931052,15.8461697 C170.207862,19.8201834 170.414708,23.8002418 170.228141,27.7803003 C170.03042,32.0781417 169.661341,36.3656207 169.277052,40.6530996 C168.580466,48.4223741 167.712521,56.1864673 166.571823,63.9168825 C164.926176,73.218078 163.183189,82.5020026 161.3165,91.7703836 C160.448555,96.0949947 159.597848,100.453284 158.464247,104.7304 C157.169428,109.607678 155.79552,114.454731 154.310078,119.292285 C152.654291,124.675597 150.896095,130.083088 148.610643,135.304918 C146.188307,140.834168 143.603738,146.304698 140.972527,151.764001 C139.691904,154.255316 138.375791,156.725905 137.013037,159.186996 C135.55193,161.821658 133.817054,164.382056 132.121723,166.911366 C130.216504,169.755005 128.323452,172.602099 126.422288,175.442283 C125.510743,176.808405 124.560669,178.144302 123.59437,179.483653 C122.756845,180.645115 121.830091,181.754765 120.904351,182.871323 C119.137029,184.720163 117.307856,186.501648 115.37526,188.23391 C114.365362,189.141491 113.359519,190.045618 112.361789,190.959244 C111.794988,191.48255 111.244411,192.018808 110.69789,192.558521 C110.032736,193.206177 109.347303,193.908235 108.780503,194.60943 C108.10014,195.460017 107.70774,196.421138 107.252475,197.369306 C106.915842,198.438369 106.915842,199.507432 107.252475,200.576495 C107.739172,202.081647 108.923471,203.38991 110.504225,204.179187 C112.139733,204.992642 114.132152,205.214572 115.958283,204.786256 C117.589735,204.405434 119.451355,203.370049 120.187485,202.016881 C120.35276,201.714642 120.510936,201.452125 120.695476,201.19479 C123.834678,198.059275 127.475786,195.310625 130.501425,192.089619 C132.549612,189.910042 134.509585,187.687289 136.229251,185.309098 C137.638647,183.362678 138.969968,181.386033 140.29622,179.399026 C143.121096,175.165951 145.992613,170.952736 148.625852,166.628125 C151.403072,162.071221 153.68751,157.304477 155.961809,152.555004 C158.029261,148.240756 160.03689,143.906645 161.925886,139.53454 C163.760129,135.29801 165.293227,130.976853 166.687414,126.618563 C169.625852,117.439991 172.145528,108.194062 174.074068,98.8203288 C175.947855,89.7056581 177.674619,80.5607634 179.247261,71.4063699 C180.137513,66.2320348 180.934481,61.0637445 181.556035,55.8626396 C182.118779,51.1805227 182.569988,46.4819984 182.98571,41.789519 C183.349719,37.6436607 183.729952,33.4943483 183.908408,29.3424452 C184.103087,24.8287187 183.972287,20.3529879 183.658975,15.8461697 C183.548454,14.2607092 182.989765,12.8574557 181.64729,11.714128 C180.36768,10.6208857 178.609484,10 176.795521,10 C173.218291,10 169.708996,12.661432 169.931052,15.8461697" id="Fill-17" stroke="#000000" stroke-width="3" fill="#000000"></path>
                <path d="M169.931052,196.516386 C170.207862,200.266224 170.414708,204.021767 170.228141,207.777309 C170.03042,211.832708 169.661341,215.878329 169.277052,219.92395 C168.580466,227.254958 167.712521,234.581077 166.571823,241.875417 C164.926176,250.65193 163.183189,259.412146 161.3165,268.157695 C160.448555,272.238354 159.597848,276.350791 158.464247,280.386634 C157.169428,284.988783 155.79552,289.562413 154.310078,294.127079 C152.654291,299.206717 150.896095,304.30917 148.610643,309.236435 C146.188307,314.453779 143.603738,319.615715 140.972527,324.767057 C139.691904,327.117836 138.375791,329.449059 137.013037,331.771319 C135.55193,334.257359 133.817054,336.673325 132.121723,339.059956 C130.216504,341.743184 128.323452,344.429672 126.422288,347.109642 C125.510743,348.3987 124.560669,349.659239 123.59437,350.923037 C122.756845,352.018981 121.830091,353.066035 120.904351,354.119607 C119.137029,355.864154 117.307856,357.545144 115.37526,359.179689 C114.365362,360.036074 113.359519,360.889199 112.361789,361.751287 C111.794988,362.245072 111.244411,362.751081 110.69789,363.260348 C110.032736,363.871469 109.347303,364.533924 108.780503,365.195565 C108.10014,365.99817 107.70774,366.905074 107.252475,367.799755 C106.915842,368.808512 106.915842,369.817269 107.252475,370.826026 C107.739172,372.246272 108.923471,373.480736 110.504225,374.225489 C112.139733,374.993057 114.132152,375.202468 115.958283,374.798313 C117.589735,374.438974 119.451355,373.461995 120.187485,372.185159 C120.35276,371.89997 120.510936,371.652262 120.695476,371.409443 C123.834678,368.450803 127.475786,365.857205 130.501425,362.817897 C132.549612,360.761271 134.509585,358.663903 136.229251,356.419867 C137.638647,354.583244 138.969968,352.718103 140.29622,350.843184 C143.121096,346.848897 145.992613,342.873351 148.625852,338.792692 C151.403072,334.492845 153.68751,329.994994 155.961809,325.51344 C158.029261,321.442559 160.03689,317.352937 161.925886,313.227463 C163.760129,309.229917 165.293227,305.152517 166.687414,301.04008 C169.625852,292.379273 172.145528,283.654909 174.074068,274.809951 C175.947855,266.209441 177.674619,257.580413 179.247261,248.942421 C180.137513,244.059971 180.934481,239.183226 181.556035,234.275516 C182.118779,229.857519 182.569988,225.42404 182.98571,220.996264 C183.349719,217.084275 183.729952,213.169026 183.908408,209.251333 C184.103087,204.992227 183.972287,200.768973 183.658975,196.516386 C183.548454,195.020361 182.989765,193.696266 181.64729,192.617434 C180.36768,191.585861 178.609484,191 176.795521,191 C173.218291,191 169.708996,193.5113 169.931052,196.516386" id="Fill-17" stroke="#000000" stroke-width="3" fill="#000000" transform="translate(145.500000, 283.000000) scale(1, -1) translate(-145.500000, -283.000000) "></path>
                <path d="M80.9584957,191.27677 C78.4796803,192.120172 76.024107,192.978534 73.8413752,194.374541 C72.128537,195.469467 70.5258459,196.729894 68.9746916,198.019307 C67.1385694,199.54622 65.3782366,201.196556 63.732093,202.906735 C59.9820385,206.800221 56.4805728,210.941491 53.3944325,215.302494 C51.9655516,217.322169 50.4851339,219.34652 49.2573472,221.475595 C47.9669081,223.711263 46.8260265,225.997424 45.7558816,228.331271 C43.5731497,233.086859 41.4773229,237.886393 39.6179588,242.762601 C37.8727838,247.331181 35.9740092,251.853011 34.3046236,256.447772 C32.575617,261.2071 30.9890943,266.046841 29.6622763,270.915568 C28.2930163,275.948862 27.2228714,281.036387 26.1608106,286.131392 C25.0633816,291.384419 24.2943728,296.705703 24.0063735,302.053168 C23.7375741,307.104227 23.5081851,312.155285 23.1726912,317.207279 C22.8574077,321.991853 22.4976611,326.776427 22.2258302,331.561001 C21.9418729,336.506401 21.6649893,341.445256 21.5902106,346.397201 C21.5508001,348.826422 21.5669685,351.259383 21.4477267,353.687668 C21.3254533,356.182342 21.1597273,358.673275 21.041496,361.167948 C20.9980435,362.092698 20.9788435,363.016512 21.0334118,363.940327 C21.0940433,364.97167 21.2718955,366.000209 21.4416635,367.027812 C21.5336212,367.798281 21.6185052,368.567815 21.6963156,369.339219 C21.863052,370.982075 21.8509258,372.600621 22.1581251,374.236932 C22.4905875,375.336533 23.0898282,376.289334 23.9629209,377.100009 C25.2695285,378.309009 27.0652296,379 28.9165096,379 C32.745385,379 35.923483,376.048095 35.9265146,372.512727 C35.9305567,370.018054 35.7062204,367.578548 35.3707264,365.10538 C34.9998641,362.351702 35.4252947,359.513871 35.6273995,356.756453 C35.9740092,351.956919 35.942683,347.149904 36.176114,342.35037 C36.6490392,332.434324 37.4705953,322.532303 38.1062149,312.626543 C38.4720245,306.876078 38.5639822,301.127483 39.1824229,295.391044 C39.8877687,291.010405 40.7992613,286.668102 41.753196,282.3258 C42.8779092,277.215834 44.3037586,272.204982 45.8660287,267.193194 C47.3585726,262.423581 49.0916213,257.740926 50.9226908,253.073231 C52.699192,248.558882 54.361504,244.008067 56.2521944,239.52925 C56.9706769,237.830291 57.7124016,236.138813 58.4551367,234.45014 C59.8011547,231.576777 61.246204,228.765127 63.0257368,226.091862 C64.9447218,223.209149 66.9485909,220.381604 69.1171754,217.655977 C72.7742618,213.365101 76.635474,209.246272 81.1717163,205.731476 C81.9003041,205.267699 82.6440497,204.846933 83.433269,204.479464 C83.8728469,204.326118 84.3144459,204.175578 84.7560449,204.024102 C86.5638723,203.406979 88.0281216,202.566383 89.0265193,200.985238 C89.9935908,199.458326 90.254306,197.599477 89.7450019,195.893038 C89.2559083,194.238961 88.0594479,192.807423 86.464841,191.94158 C85.4219802,191.376819 84.0557518,191 82.7471232,191 C82.1246404,191 81.5142839,191.086023 80.9584957,191.27677" id="Fill-19" stroke="#000000" stroke-width="3" fill="#000000"></path>
                <path d="M189.976012,2.08266262 C187.348756,2.32001073 184.748137,2.68258044 182.138638,3.00013585 C179.464026,3.26285566 176.79336,3.53948898 174.124667,3.83658335 C169.103973,4.3685705 164.079332,4.79416022 159.033974,5.09780212 C153.699548,5.41372065 148.370054,5.816394 143.036615,6.12085434 C132.738716,6.70849554 122.44575,7.14963566 112.133053,7.46637262 C106.771989,7.62924254 101.418818,7.81830259 96.0587413,7.87559351 C90.8861141,7.93288444 85.7144734,7.96480367 80.5428327,8.14731618 C70.1837661,8.50906745 59.8207532,8.51479654 49.4498477,8.47960354 C45.8083892,8.46732692 42.1738367,8.43213392 38.5363244,8.25616894 C36.9212966,8.17923541 35.3023225,8.06710889 33.6843349,8.05810603 C31.6993405,8.04173719 29.7182923,8.09657279 27.7293515,8.15713748 C24.34243,8.25944271 20.954522,8.27826687 17.5715468,8.37156923 C15.8983109,8.41903885 14.2260616,8.52789161 12.556772,8.64656567 C11.7438319,8.70385659 10.9348381,8.76442128 10.1218981,8.83480727 C8.18327274,8.99767719 6.2367548,9.07461072 4.52997526,9.95689095 C2.37923572,11.066698 1,12.9335637 1,15.0623308 C1.00394631,16.1303973 1.33149013,17.124804 1.97473884,18.045551 C2.82615545,19.2535711 4.50235108,20.5262481 6.23280849,20.7627777 C7.36638635,20.9199185 8.38749434,21.0508692 9.50923327,20.9804832 C10.0597437,20.9452902 10.6072943,20.9002759 11.1587913,20.8552616 C12.3841209,20.7562302 13.6015579,20.6252795 14.8229411,20.5360694 C17.2588017,20.3502831 19.6907159,20.2447041 22.1305227,20.1456726 C27.132472,19.9443359 32.11173,19.5318413 37.1255182,19.71108 C42.3011052,19.9001401 47.4687996,19.8674024 52.6483328,19.8453045 C57.7005976,19.8232066 62.7528624,19.8133853 67.8051271,19.7364517 C73.2283451,19.6570629 78.6347913,19.4041644 84.0491301,19.2216519 C89.1438177,19.0489606 94.2434382,19.0235889 99.3420721,18.8926383 C104.606451,18.75514 109.87083,18.5022415 115.135209,18.3328241 C120.337434,18.1634066 125.539658,17.9530671 130.738923,17.7255403 C140.639231,17.2909477 150.516848,16.5715374 160.409263,16.0346396 C165.111293,15.7784673 169.797537,15.3659727 174.475889,14.9060084 C176.746004,14.6825738 179.012173,14.4583207 181.289195,14.2954508 C183.803982,14.1137567 186.29805,13.7839247 188.795079,13.4745537 C189.612952,13.3959833 190.429838,13.3313264 191.255604,13.287949 C191.938315,13.2511191 192.623,13.2781277 193.304726,13.3313264 C194.001249,13.4385423 194.693827,13.554761 195.386405,13.6717982 C197.225386,13.9852614 198.974588,13.9083278 200.632039,13.1029811 C202.154328,12.3647467 203.290866,11.1395393 203.757517,9.73018258 C204.242913,8.27171933 203.992323,6.68312384 203.070859,5.37852765 C202.231281,4.18605798 200.678408,3.07052184 199.005172,2.78570411 C196.644291,2.38384919 194.246907,2 191.836698,2 C191.217127,2 190.59657,2.0253717 189.976012,2.08266262" id="Fill-23" stroke="#000000" stroke-width="3" fill="#000000" transform="translate(102.500000, 11.500000) rotate(1.000000) translate(-102.500000, -11.500000) "></path>
                <path d="M186.205485,370.009627 C183.651767,370.163654 181.094033,370.259046 178.540315,370.39907 C176.04183,370.532969 173.539327,370.638863 171.039837,370.53647 C165.921356,370.327308 160.801871,370.013127 155.675356,370.231916 C153.344574,370.330808 151.026847,370.576727 148.689035,370.655491 C146.22871,370.741256 143.761355,370.748257 141.298017,370.761384 C138.725219,370.775387 136.136354,370.748257 133.570586,370.922413 C130.961637,371.100069 128.372772,371.39062 125.771856,371.609409 C115.106094,372.505567 104.374054,372.269275 93.7123086,373.209191 C88.3929844,373.673897 83.1047909,374.313635 77.7704034,374.641818 C72.5133406,374.9665 67.2492482,375.099524 61.9771221,375.16516 C58.0034453,375.208918 54.0297685,375.291182 50.0641255,375.568606 C47.8277398,375.725259 45.595371,375.889788 43.3599895,376.067444 C41.3515605,376.224972 39.3431315,376.446386 37.3306857,376.546154 C33.4353377,376.740438 29.5520402,376.505021 25.6526753,376.49802 C23.6251663,376.494519 21.596653,376.508522 19.5721566,376.566282 C17.8900973,376.61354 16.1869495,376.827953 14.5048902,376.75094 C13.8461255,376.655548 13.2014198,376.55228 12.5396424,376.593412 C11.774431,376.641545 10.9108065,376.761441 10.126515,376.901466 C7.11387151,377.444937 5,380.197297 5,382.771126 C5,386.032825 8.17733467,388.931336 11.9823034,388.856073 C12.7746286,388.839445 13.5508864,388.95234 14.3391948,388.989096 C15.4659235,389.04073 16.6026943,388.897205 17.7213892,388.805314 C20.0742638,388.613655 22.4361763,388.538392 24.7980888,388.511262 C26.5273461,388.490258 28.2576077,388.517388 29.9878693,388.548894 C33.1180059,388.596152 36.2481425,388.651287 39.3822959,388.401868 C44.6463883,387.99142 49.9064638,387.550343 55.1866236,387.307925 C60.1845992,387.078635 65.197638,387.184528 70.1986261,387.003371 C75.4516722,386.811713 80.7197814,386.558793 85.9326589,385.984692 C91.401611,385.379085 96.8504789,384.860119 102.353574,384.603698 C107.648797,384.354279 112.953058,384.299145 118.248281,384.090858 C123.501327,383.885197 128.702154,383.294468 133.94315,382.959284 C135.669394,382.849889 137.414719,382.85339 139.148998,382.856891 C139.607924,382.856891 140.06685,382.856891 140.525776,382.85339 C142.761157,382.842888 145.00156,382.832386 147.236941,382.808757 C151.383343,382.767625 155.502631,382.351051 159.653049,382.357178 C164.026403,382.364179 168.392728,382.6276 172.762065,382.631101 C174.900038,382.634601 177.029977,382.442943 179.159916,382.281914 C181.505761,382.100757 183.855623,381.991363 186.205485,381.847838 C188.053239,381.734943 189.669021,381.280738 191.010651,380.115032 C192.27797,379.010588 193,377.49307 193,375.92742 C193,374.365269 192.27797,372.846877 191.010651,371.742432 C189.885931,370.762259 188.161695,370 186.5188,370 C186.414361,370 186.309923,370.002625 186.205485,370.009627" id="Fill-25" stroke="#000000" stroke-width="3" fill="#000000" transform="translate(99.000000, 379.500000) rotate(3.000000) translate(-99.000000, -379.500000) "></path>
                <g id="Group-32" opacity="0.502757" transform="translate(37.000000, 136.000000)"></g>
            </g>
        </g>
    </g>
</svg>