<?xml version="1.0" encoding="UTF-8" standalone="no"?>
<svg width="135px" height="310px" viewBox="0 0 135 310" version="1.1" xmlns="http://www.w3.org/2000/svg" xmlns:xlink="http://www.w3.org/1999/xlink">
    <!-- Generator: Sketch 49.1 (51147) - http://www.bohemiancoding.com/sketch -->
    <title>womanarmsfolded0001B</title>
    <desc>Created with Sketch.</desc>
    <defs></defs>
    <g id="Page-1-Copy" stroke="none" stroke-width="1" fill="none" fill-rule="evenodd">
        <g id="Artboard" transform="translate(-6858.000000, -1329.000000)">
            <g id="womanarmsfolded0001B" transform="translate(6857.824874, 1329.635201)">
                <path d="M58.8706136,102.783943 L102.870614,96.783943 L82.8706136,135.783943 L96.8706136,210.783943 C66.2039469,223.45061 46.8706136,228.783943 38.8706136,226.783943 C30.8706136,224.783943 31.5372803,211.783943 40.8706136,187.783943 L74.8706136,135.783943 L58.8706136,102.783943 Z" id="Path-16" fill="#FFFFFF"></path>
                <path d="M78.8706136,81.783943 C96.819868,81.783943 114.870614,67.0991906 114.870614,45.283943 C114.870614,23.4686954 112.819868,8.78394298 94.8706136,8.78394298 C76.9213592,8.78394298 49.8706136,23.4686954 49.8706136,45.283943 C49.8706136,67.0991906 60.9213592,81.783943 78.8706136,81.783943 Z" id="Oval-13" fill="#FFFFFF"></path>
                <path d="M86.5451655,102.683878 C81.1506126,102.387632 76.3341655,104.676805 71.4087041,106.326356 C64.8381189,108.521269 61.8749138,108.494338 68.752721,115.792759 C71.2104964,118.398377 72.4030461,122.226008 76.0632816,123.673574 C79.5352199,121.966793 81.1109711,118.39501 83.5456223,115.674934 C85.4781474,113.520419 87.149699,111.113421 88.8476783,108.753553 C89.6140814,107.689761 90.2252218,106.498044 90.7868103,105.302961 C91.3384884,104.117978 90.8099345,103.168644 89.6669368,102.869032 C88.6792018,102.609817 87.5890594,102.731008 86.5451655,102.683878 M96.0789559,159.58329 C98.5532487,158.957134 99.7854399,156.765587 101.34137,155.021776 C104.529211,151.456726 107.581609,147.770484 110.756236,144.191969 C113.399005,141.212677 116.183824,138.354578 118.816683,135.365187 C120.871436,133.028884 120.835098,132.143513 119.249436,129.733149 C115.381082,123.825063 110.145096,119.40494 104.387162,115.563842 C102.183753,114.092712 101.480116,114.173506 99.8515091,116.492977 C95.7188786,122.374131 91.328578,128.039834 86.419634,133.247702 C84.0642658,135.74896 83.5324085,138.102096 85.2469051,141.118417 C88.6659879,147.107298 91.9826634,153.156773 95.3588013,159.172585 C95.4678155,159.367838 95.8080721,159.435167 96.0789559,159.58329 M37.4160835,174.903916 C38.6086332,174.611036 39.4179813,173.964681 39.9465352,172.978317 C42.586001,168.029664 45.519475,163.28973 48.7601709,158.708018 C52.9357465,152.803298 58.0329878,147.730087 62.5025715,142.104782 C64.3161719,139.818975 66.0570962,137.459107 67.7187374,135.055476 C68.5181752,133.90079 68.5446029,132.597981 67.7385582,131.305272 C64.0485915,125.390453 59.8895333,119.859408 54.7988988,115.136305 C52.7441457,113.230906 49.8172786,113.540617 47.7228839,115.557109 C46.1966847,117.028239 44.8521758,118.704722 43.2566038,120.084959 C34.621355,127.561801 26.3957354,135.479646 18.3551097,143.609576 C17.0535458,144.929217 15.652878,146.154598 14.4041695,147.528101 C13.370186,148.669321 13.499021,150.046192 14.4008661,151.177312 C15.2267315,152.20744 16.2739288,153.059147 17.2418431,153.96135 C22.8874591,159.216349 28.3051362,164.676699 32.6524918,171.150345 C33.3759499,172.234336 34.357078,173.180303 35.3580269,174.021911 C35.9361327,174.506677 36.7851223,174.648067 37.4160835,174.903916 M49.2325659,264.959303 C49.0376617,267.746707 49.3184559,272.813185 50.177356,277.896496 C50.7554618,281.320156 50.7587652,284.811144 50.1410179,288.329064 C49.5893398,291.480044 49.6488021,294.745481 49.440684,297.957056 C48.9121301,306.097086 47.9937678,307.006022 40.6006206,308.955185 C36.3920104,310.066107 34.0729803,308.662306 31.2551275,304.841407 C30.8190706,304.252281 30.743091,303.339979 30.6307733,302.558967 C30.3202479,300.407818 31.1824514,299.067978 33.2570253,298.334096 C39.6855617,296.051656 39.6921686,296.051656 39.2594151,289.503949 C39.186739,288.440157 38.6945232,287.278738 38.9687105,286.332771 C40.825256,279.909621 39.5534232,273.526869 39.0546005,267.103719 C38.3476597,257.936928 39.3386982,248.8341 40.4883029,239.744737 C41.6015695,230.944887 42.7610845,230.207639 32.5071395,230.544282 C26.5774258,230.739535 22.894066,228.066589 21.3249217,223.404082 C20.2843313,220.320432 21.7411579,218.061557 25.0247988,217.947098 C28.453792,217.82254 31.9554614,217.482531 35.3117784,217.990862 C48.4199144,219.977056 61.032531,217.778777 73.5460438,214.042039 C77.0873548,212.984979 80.774018,212.432885 84.3054185,211.348894 C88.5701875,210.039353 90.2153114,207.305811 89.7462199,202.831825 C89.5744399,201.23277 89.3200733,199.61015 88.8476783,198.078424 C87.4569209,193.577507 87.4337967,188.982329 88.4545664,184.511709 C89.6405091,179.334138 89.3531079,174.351821 87.7178944,169.426733 C85.1874428,161.768103 82.0722784,154.372055 77.2459209,147.864744 C76.2647928,146.545104 74.8806424,146.434011 73.9655835,147.794049 C69.1788675,154.927516 61.9178588,159.785275 57.2963159,167.144293 C53.5898319,173.052379 50.0815556,178.953732 47.3760205,185.434111 C44.2806769,192.840258 40.6138344,200.004023 37.0956477,207.225017 C36.0352365,209.406464 33.9441453,210.07975 31.7539502,209.31557 C27.4132016,207.79731 24.9785503,202.710633 26.8119716,198.452098 C28.2853155,195.021705 30.1484678,191.769733 31.816716,188.423501 C32.6029399,186.844645 32.5566914,185.471142 31.1758444,184.077439 C29.6859832,182.576011 28.367902,180.865864 27.1687454,179.105221 C21.1201071,170.190913 13.8359741,162.444756 5.84159686,155.34832 C4.4508395,154.11284 3.02044059,152.890825 1.81798055,151.480291 C0.12660817,149.497463 0.153035863,147.039969 1.77173208,144.868621 C2.72973597,143.586011 3.8562164,142.438058 4.91332413,141.239609 C7.55609347,138.240119 10.1294901,135.213698 12.5145894,131.968459 C15.0219169,128.561631 18.3485028,125.774226 21.390991,122.791569 C29.3490301,114.984816 37.8818716,107.844617 46.378375,100.66402 C47.2570959,99.9200388 48.2283136,99.5968614 49.2854213,99.7180529 C52.8961049,100.138857 55.9418966,98.5196036 59.093399,97.1225349 C68.617279,92.8976644 78.398829,89.9520376 88.9831202,90.5445293 C92.3955961,90.7330495 95.8411067,90.0429312 99.2667964,90.1270919 C104.628315,90.2617492 108.526399,94.0119529 107.951597,99.3679442 C107.409829,104.410857 109.467886,107.938877 112.863845,110.517563 C120.593945,116.391984 126.388217,124.091011 132.787022,131.224478 C134.97061,133.661773 135.13248,135.001613 132.981926,137.5601 C128.86251,142.45489 124.498637,147.140962 120.21735,151.894362 C117.723237,154.668301 115.186178,157.401843 112.672244,160.162316 C110.161613,162.926155 107.793031,165.622666 107.637768,169.834071 C107.535361,172.577712 105.586319,174.863518 103.406034,176.401977 C100.908617,178.169353 100.158731,180.593183 100.105876,183.333458 C99.9770407,190.046121 99.514556,196.795814 101.344674,203.390652 C101.774124,204.93921 102.246519,206.501234 102.44803,208.090189 C102.616507,209.396364 102.910515,211.093045 102.292767,212.02218 C99.6797291,215.944072 97.5556033,220.451723 92.7424596,222.252763 C91.5036615,222.717331 90.1987941,222.996744 88.9765133,223.488243 C87.536204,224.067269 85.6895689,223.834986 84.7018339,225.299383 C83.614995,226.911903 85.124677,228.305605 85.3526159,229.817133 C85.9967909,234.102599 86.0430393,238.377966 85.038787,242.633134 C82.8155573,252.065873 81.5073865,261.633269 80.6220587,271.288192 C80.0340426,277.711342 79.0529144,284.097461 78.1576763,290.486946 C77.711709,293.654758 77.6852813,296.388299 81.4974761,297.499222 C83.357325,298.041217 84.2690804,299.902853 85.3625262,301.404281 C86.8887255,303.5083 86.2941024,305.349738 83.8363269,306.474126 C82.362983,307.150778 80.902853,307.632178 79.2511221,307.245038 C76.674422,306.639081 74.1043289,306.053322 71.7786918,304.679818 C68.3298779,302.639761 66.9192997,299.344026 67.4346397,295.213415 C68.9079837,283.484771 70.2657064,271.739294 71.6828915,260.00055 C72.3931357,254.132862 73.1760561,248.275272 73.8268381,242.400851 C74.2133431,238.936794 74.5172616,235.452538 74.6460966,231.968282 C74.7584143,228.988991 73.9127281,228.369568 70.6885495,228.780272 C65.9745097,229.379497 61.2802907,230.106646 56.5629474,230.685672 C54.1315996,230.985284 53.0414572,232.214031 52.4204064,234.695091 C50.1178937,243.875347 49.6488021,253.230658 49.2325659,264.959303" id="Fill-22" fill="#000000"></path>
                <path d="M60.0412576,53.2756143 C59.5160072,57.5476148 59.7142149,61.5570337 59.9983126,65.5799184 C60.2163411,68.6534696 61.346125,71.2624534 63.1167804,73.6728177 C64.1375501,75.06652 65.3631344,75.7903026 67.1470037,75.5209882 C77.0970302,74.0296594 86.7233175,71.4341413 95.6228433,66.5561833 C99.355755,64.5127599 102.200035,61.5233694 104.737094,57.9078229 C108.982042,51.8650798 111.271341,45.1759821 113.240204,38.1805391 C114.782921,32.6865243 114.07598,27.4382588 112.02453,22.4727736 C109.887191,17.2952032 106.038658,13.8412453 100.175013,13.0669663 C86.247619,11.2288951 74.827552,15.9452645 65.6141974,26.5192233 C64.6066416,27.673909 63.9690735,29.2460321 63.4206989,30.7238952 C60.6821292,38.0660805 59.1162883,45.613618 60.0412576,53.2756143 M46.4409059,49.1416374 C46.649024,45.3847008 46.9694598,41.6311306 47.0388325,37.8708275 C47.1379363,32.8279143 48.3536102,28.3135308 52.1294669,24.7922443 C53.7349493,23.2941827 54.7821466,21.5975016 54.8878574,19.2275344 C54.9869612,17.0460873 56.0143378,15.2012833 57.6991033,13.6695574 C68.4816022,3.86314481 80.8960111,-1.00471395 95.4477598,0.604439917 C98.0574945,0.890586525 100.654015,1.46287974 103.197681,2.12943301 C107.637533,3.2908516 111.076437,5.93349968 114.422844,9.195571 C121.062802,15.6658508 123.576736,24.0684617 126.232719,32.4946377 C126.543245,33.474269 126.619224,34.6424205 126.437534,35.6557161 C125.278019,41.9913386 124.240732,48.3673583 122.724443,54.6188201 C121.095836,61.3314829 116.953295,66.6369776 111.994799,71.1143304 C105.232613,77.2176692 97.8526799,82.3346439 88.6855738,84.1053864 C84.2853628,84.9537269 79.957828,86.1993063 75.5708309,87.1149754 C72.4688804,87.7646965 69.3272884,87.9431174 66.1295375,87.5593443 C63.9591631,87.3001291 61.8251269,86.8153631 60.2460722,85.4418594 C52.6514138,78.8133574 46.7283071,71.0739332 45.9685109,60.4124473 C45.7042339,56.6723428 45.9288693,52.8952076 45.9288693,49.1349045 C46.0973459,49.138271 46.2691259,49.138271 46.4409059,49.1416374" id="Fill-58" fill="#000000"></path>
            </g>
        </g>
    </g>
</svg>