<?xml version="1.0" encoding="UTF-8"?>
<svg width="294px" height="452px" viewBox="0 0 294 452" version="1.1" xmlns="http://www.w3.org/2000/svg" xmlns:xlink="http://www.w3.org/1999/xlink">
    <!-- Generator: Sketch 51.1 (57501) - http://www.bohemiancoding.com/sketch -->
    <title>hiker</title>
    <desc>Created with Sketch.</desc>
    <defs></defs>
    <g id="ALL" stroke="none" stroke-width="1" fill="none" fill-rule="evenodd">
        <g id="hiker_DL" transform="translate(-254.000000, -243.000000)" fill="#000000">
            <g id="hiker" transform="translate(254.000000, 243.000000)">
                <path d="M149.097501,15.9047497 C152.531072,16.4790582 155.856718,17.3451849 159.111748,18.5790822 C162.044339,19.9329047 164.77041,21.5678852 167.38989,23.4573738 C170.776826,26.2196514 173.812011,29.3083922 176.552739,32.7036085 C179.158894,36.2613901 181.447941,40.0217122 183.28131,44.0325446 C184.882844,48.1712974 186.016708,52.4366378 186.709551,56.8139085 C187.147907,61.1019015 187.085285,65.3419244 186.608289,69.6232549 C185.746233,75.1331527 184.305919,80.4644951 182.240713,85.6386023 C179.979647,90.6648016 177.248246,95.4111755 173.987887,99.8537388 C171.179208,103.344895 168.066744,106.521581 164.605194,109.367807 C162.029683,111.2493 159.315604,112.868291 156.416322,114.210121 C152.241943,115.797131 147.951646,116.832485 143.54543,117.518724 C138.832766,118.050393 134.142751,118.146333 129.422092,117.659969 C125.103815,116.953743 120.878804,115.822449 116.779039,114.291403 C114.504649,113.240059 112.366162,112.006161 110.323607,110.545739 C107.989259,108.59229 105.88808,106.444296 103.949452,104.095094 C101.17275,100.272145 98.9263398,96.1680369 97.0063652,91.8547263 C94.5081331,85.6492623 92.5548487,79.1186676 91.4862716,72.5014602 C91.3343791,70.9490948 91.2784187,69.4367045 91.3756832,67.8883366 C91.5395672,67.1554603 91.7380934,66.4479015 91.9819208,65.7416751 C93.0251825,63.6269937 94.1963537,61.6082524 95.5580568,59.6894488 C98.4386849,56.29823 101.755005,53.2068243 105.079319,50.2539987 C108.311698,47.3851209 107.999919,41.9671658 105.079319,39.0476528 C103.601698,37.5685751 101.572467,36.725101 99.4739522,36.725101 C97.7231912,36.725101 96.3001982,37.2860846 94.9678078,38.2041788 C95.4661218,37.4326598 95.9870865,36.6718009 96.5333665,35.921602 C99.2554402,32.5943433 102.315941,29.6175327 105.657576,26.9245452 C109.051175,24.4500881 112.648629,22.3820443 116.475254,20.6564535 C121.951379,18.477812 127.62603,16.9960692 133.452573,16.1059575 C138.678208,15.5103289 143.869201,15.3477636 149.097501,15.9047497 M137.391119,0.253175472 C132.383996,0.68090877 127.398191,1.51372282 122.526971,2.73696011 C117.378615,4.02682251 112.38748,6.01624872 107.625517,8.33746805 C103.211307,10.4814646 99.2447811,13.3649999 95.4621246,16.4670657 C91.3503678,19.846292 87.8888174,23.863787 84.7243902,28.1211325 C81.7997932,32.0573448 79.7172669,36.5638682 78.1250604,41.1863193 C77.3655978,43.3836159 76.9379005,45.6675252 76.615462,47.963427 C76.3090122,50.1500636 76.0691819,52.3460276 76.0851706,54.5579818 C76.1011593,56.8978561 76.1571197,59.233733 76.2623785,61.5682774 C75.6161692,63.5603686 75.3510235,65.5764448 75.1005341,67.7164438 C74.7940843,70.2988336 75.2524266,72.9691686 75.6161692,75.5195784 C75.8973036,77.4716945 76.2463899,79.4078206 76.7140589,81.3226267 C77.1777308,83.2067852 77.6467322,85.0962737 78.1090717,86.9804323 C78.6713404,89.276334 79.5254027,91.5295957 80.3368285,93.7428824 C81.4147323,96.6783853 82.6578526,99.5565907 83.9849135,102.382828 C86.1087438,106.905342 88.8001725,111.101392 91.9326224,114.984304 C95.1343566,118.951164 98.8290753,122.234451 102.998125,125.160626 C106.823418,127.850948 111.35621,129.557884 115.791738,130.938357 C121.058677,132.582665 126.497495,133.508754 131.993605,133.888517 C137.297852,134.258953 142.574118,133.649999 147.810412,132.88914 C153.202596,132.109626 158.396254,130.578581 163.383392,128.402605 C172.058586,124.618297 179.465344,118.216956 185.357175,110.882862 C191.639395,103.06507 196.322748,94.2212508 199.45653,84.6951905 C201.09537,79.6943087 201.933444,74.5308615 202.599639,69.3194443 C203.297812,63.8655116 203.031334,58.3835964 202.19859,52.9603113 C201.507079,48.499093 200.39853,44.1644624 198.795664,39.947092 C196.906335,34.9768577 194.386785,30.3810567 191.372917,26.009116 C188.500284,21.8397157 185.149322,17.982121 181.437282,14.5415996 C177.488077,10.8878778 172.969941,7.70719438 168.124037,5.36465501 C160.384181,1.62565303 151.842226,0 143.294941,0 C141.323003,0 139.35373,0.0866126616 137.391119,0.253175472" id="Fill-2"></path>
                <path d="M140.070886,171.604966 C144.022805,177.738063 147.695108,184.049184 151.455289,190.301409 C155.236775,196.592452 159.293884,202.709487 163.257786,208.885417 C166.996664,214.709316 170.700922,220.559986 174.46643,226.374516 C178.341122,232.345652 182.13326,238.374345 185.607167,244.591769 C192.628215,257.176531 199.228506,269.970103 205.850101,282.775721 C209.438518,289.713268 213.006962,296.652155 216.491522,303.643243 C219.841599,310.350565 222.9307,317.168985 226.057083,323.98205 C230.384488,333.419953 234.108719,343.134929 238.436124,352.567477 C240.625125,357.32993 242.804805,362.10443 245.020436,366.850821 C247.306638,371.76185 249.504959,376.687602 251.668662,381.652172 C255.904192,392.230493 259.700325,403.035024 264.821309,413.218482 C267.156776,417.851099 269.367081,422.55198 271.759803,427.152473 C273.018079,429.579209 274.313637,431.979175 275.587892,434.393864 C276.779592,436.647932 277.892734,438.963571 279.317449,441.077093 C280.502492,442.827877 281.948511,444.14498 284.02966,444.720544 C286.062874,445.280045 288.278505,444.992263 290.098678,443.921448 C291.862928,442.885433 293.178459,441.165436 293.719052,439.183088 L294,437.081612 C293.994674,435.649396 293.636498,434.31623 292.924141,433.082115 C291.659207,430.11194 290.094684,427.267585 288.580758,424.417877 C287.08281,421.594939 285.579536,418.766647 284.18012,415.890168 C281.140285,409.659359 277.892734,403.524923 275.016674,397.216479 C272.413574,390.916067 269.958271,384.55676 267.375143,378.244301 C264.373922,370.909213 261.034497,363.734747 257.675099,356.566974 C251.470267,343.349092 245.754098,329.911693 239.964696,316.510433 C238.550634,313.248461 237.000757,310.037352 235.51213,306.806165 C234.28581,304.13448 233.063484,301.478857 231.751948,298.848665 C228.095624,291.539009 224.403349,284.254785 220.647162,277.002685 C214.182685,264.522327 207.82606,252.000476 200.955473,239.739635 C197.481566,233.538273 193.887823,227.405176 190.002479,221.454117 C185.861486,215.117565 181.716498,208.781012 177.628765,202.410997 C173.815322,196.482693 169.90468,190.610607 166.112542,184.666241 C162.368338,178.799509 159.002283,172.68649 155.252753,166.825112 C154.613629,165.821222 153.967847,164.817332 153.323397,163.818797 C152.220907,162.104153 150.728285,160.82319 148.735016,160.274397 C148.071925,160.091019 147.390192,160 146.707128,160 C145.351652,160 144.002833,160.356046 142.82711,161.048061 C139.342551,163.097335 137.798,168.069935 140.070886,171.604966 Z" id="Fill-4"></path>
                <path d="M203.721683,261.302139 C196.056509,264.135852 188.659208,267.525927 181.292712,271.039786 C175.139679,273.977318 169.018791,277.091874 163.106843,280.481949 C156.493069,284.277981 150.042697,288.306939 143.607059,292.398455 C137.711183,296.147901 131.646548,299.677732 125.442619,302.906755 C119.602997,305.942782 113.471394,308.397159 107.789816,311.735324 C105.854437,312.873335 103.87084,314.256252 102.338609,315.868101 C100.286705,318.015015 99.2728076,320.82344 99.0424372,323.719711 C98.8174242,326.605334 99.517911,329.453689 100.417963,332.172937 C101.375607,335.074532 102.740418,337.845688 104.022188,340.616845 C104.687852,342.056994 105.341461,343.507792 106.027215,344.937294 C109.165342,351.483186 112.268646,358.04505 115.197832,364.684113 C118.153806,371.396381 121.084332,378.113974 124.123347,384.788974 C126.721711,390.495001 129.366952,396.183725 131.965316,401.897738 C133.210924,404.968371 134.398939,408.040335 135.529361,411.160215 C136.784344,414.638136 137.826368,418.199911 138.976881,421.715101 C140.201059,425.46854 141.540422,429.191367 143.136942,432.805051 C143.738316,434.161347 144.438803,435.461741 145.291977,436.672957 C145.977731,437.644592 146.777331,438.680116 147.64122,439.537284 C148.044368,439.932593 148.514484,440.265345 148.933705,440.650006 C151.623146,443.134996 155.540782,443.8005 158.784719,441.913132 C160.606252,440.857643 161.960348,439.106038 162.520202,437.088231 C163.132291,434.889408 162.709052,432.846312 161.70453,430.86045 C161.119228,429.705136 160.294181,428.713535 159.451722,427.737907 C158.830257,426.784906 158.311924,425.769348 157.832432,424.735155 C155.550158,418.990529 153.938904,412.970385 152.019597,407.104637 C149.765449,400.231317 146.777331,393.592254 143.700814,387.046362 C137.36027,373.564592 131.385372,359.92177 125.107778,346.41338 C122.415659,340.619507 119.408789,334.970713 116.813104,329.13691 C116.356381,327.996237 115.935821,326.852902 115.599641,325.678954 C120.570017,322.408669 126.09221,320.000878 131.380015,317.288285 C137.758061,314.01667 143.868234,310.221969 149.906082,306.368704 C155.77651,302.625912 161.500947,298.663505 167.501293,295.123026 C173.989167,291.291057 180.617673,287.750578 187.341275,284.344532 C192.12414,281.916775 197.019511,279.707303 201.932295,277.540424 C203.824814,276.800384 205.715995,276.056351 207.619229,275.350917 C209.471568,274.669442 210.972994,273.749716 212.004303,272.007428 C212.992753,270.322373 213.259286,268.273953 212.740953,266.391909 C212.233334,264.572423 211.009157,262.992517 209.372455,262.040847 C208.302304,261.417936 206.893295,261 205.545896,261 C204.911038,261 204.288234,261.09317 203.721683,261.302139" id="Fill-6"></path>
                <path d="M204.457191,133.322579 C206.130851,133.650471 207.741883,134.130932 209.35558,134.726491 C211.827427,135.881473 214.127378,137.259956 216.33272,138.875324 C218.41147,140.569654 220.386283,142.367036 222.282477,144.266131 C224.211984,146.204038 225.972259,148.262395 227.748525,150.340827 C229.188992,152.284087 230.622797,154.228685 231.959327,156.253584 C233.69695,158.888762 235.410586,161.538662 236.970982,164.283584 C240.078447,169.757368 243.311171,175.209738 246.065516,180.87758 C248.823858,186.565497 251.317026,192.357804 253.908802,198.123344 C255.216016,201.030204 256.647156,203.895576 258.010336,206.775669 C259.104346,209.078941 260.11707,211.422363 261.119135,213.7698 C261.650815,215.125532 262.186493,216.477248 262.670202,217.84904 C263.834836,221.164092 264.569061,224.588887 265.091414,228.056509 C265.810981,234.117821 266.064162,240.225974 266.641149,246.299331 C267.398027,254.27446 267.967019,262.198732 267.056899,270.185906 C266.401293,274.51943 265.44187,278.780683 263.868149,282.874645 C263.013996,284.676042 262.017261,286.33156 260.859291,287.942914 C258.925786,290.29838 256.809725,292.391534 254.461803,294.320072 C250.244337,297.427682 245.744375,299.961147 241.00589,302.147984 C235.967585,304.075184 230.801357,305.721334 225.500543,306.739806 C225.48322,306.739806 225.467229,306.741144 225.449906,306.742483 C226.236101,304.408429 225.708418,301.702319 223.890844,299.858096 C221.645526,297.585606 219.457508,295.290364 217.458709,292.801064 C212.718892,286.328883 209.022447,279.139356 204.875606,272.281736 C201.701513,267.016732 198.416821,261.819984 195.184097,256.592454 C192.497712,252.248223 190.047185,247.699228 187.761892,243.135511 C185.266058,238.152896 182.900813,233.146191 180.667489,228.045802 C177.165594,219.074953 174.048801,210.007745 171.282463,200.774582 C168.629391,191.905447 166.2295,182.97341 164.755719,173.819209 C164.551842,171.901378 164.454567,170.023696 164.602478,168.097834 C165.0089,165.921704 165.611205,163.825874 166.373414,161.746104 C168.012429,158.10316 169.786029,154.551224 172.092643,151.278998 C173.250614,149.908545 174.497864,148.689323 175.86904,147.53568 C179.069783,145.19895 182.455748,143.220893 185.92966,141.301723 C189.859298,139.140314 193.631697,136.628263 197.659943,134.654221 C199.131058,134.114872 200.622162,133.681252 202.155907,133.350684 C202.923446,133.298489 203.680324,133.287782 204.457191,133.322579 M189.526165,121.64562 C186.304101,123.176674 183.363202,125.309977 180.250406,127.045795 C177.273529,128.708006 174.196712,130.287239 171.381071,132.226484 C168.705345,134.072046 166.076259,135.969803 163.676368,138.166008 C161.933416,139.759963 160.532924,141.751403 159.169743,143.66522 C158.200992,145.019613 157.38948,146.478396 156.613946,147.946548 C154.235376,152.463423 152.084668,157.273394 150.898715,162.250656 C150.008583,166.003342 149.752737,169.867111 150.252436,173.684038 C150.528271,175.821356 150.814765,177.95466 151.205197,180.071903 C151.866133,183.64793 152.652327,187.187822 153.573107,190.704962 C155.369361,197.596041 157.472097,204.397451 159.658783,211.177448 C164.098781,224.974327 169.611468,238.488818 176.507323,251.233767 C178.683348,255.264827 180.838053,259.326669 183.284583,263.199806 C185.793741,267.178671 188.390847,271.114709 190.858697,275.120341 C193.523762,279.443158 196.136858,283.787388 198.723304,288.163739 C201.128525,292.24164 203.553734,296.292776 206.406686,300.077582 C208.400154,302.724806 210.573514,305.171279 212.852145,307.54816 C212.037968,308.186545 211.343718,308.964116 210.836023,309.832695 C208.675988,313.539878 209.836624,318.903918 213.746274,320.972982 C221.345707,325.004042 230.41359,322.176144 238.079649,319.776512 C241.94799,318.563982 245.711062,317.099845 249.402177,315.416222 C252.60825,313.952085 255.595788,312.185485 258.604646,310.355983 C260.696722,309.080551 262.659542,307.54816 264.579721,306.031828 C266.261377,304.704201 267.848423,303.324379 269.358183,301.797341 C271.190415,299.942411 272.752143,297.798401 274.313871,295.711939 C276.020845,293.418035 277.18148,290.8926 278.270159,288.262775 C280.939222,281.806655 282.033231,274.811186 282.715488,267.883973 C283.54832,259.35745 282.355704,250.820222 281.658789,242.336526 C281.366965,238.771206 281.15376,235.200533 280.804636,231.644581 C280.466173,228.183651 280.059751,224.733427 279.440123,221.30997 C278.779187,217.687102 277.613221,214.220818 276.24471,210.812083 C274.704303,206.969728 272.981338,203.210349 271.242383,199.446956 C269.811244,196.346037 268.213537,193.32408 266.802385,190.213794 C263.877477,183.763027 261.165773,177.20787 257.87042,170.933763 C254.424492,164.382621 250.776018,157.95862 246.964975,151.612243 C245.055456,148.428348 242.816802,145.442526 240.615458,142.45269 C238.294187,139.294223 235.733059,136.304386 232.973385,133.523329 C229.090385,129.602012 224.802296,125.910889 220.054483,123.093697 C217.76919,121.739304 215.270691,120.7302 212.804174,119.763923 C210.377632,118.817722 207.692579,118.263652 205.099471,118.06424 C204.537143,118.021413 203.974814,118 203.416483,118 C198.562067,118 193.899536,119.568527 189.526165,121.64562" id="Fill-8"></path>
                <path d="M52.3781441,164.350041 C49.9646665,166.762767 49.1108104,171.112077 51.1280454,174.060965 C53.5575328,177.622037 56.80352,180.569591 59.5718816,183.870585 C62.2134988,187.483673 64.5495957,191.330164 67.0324491,195.052618 C70.1023285,199.65267 73.5844604,203.981973 77.0118921,208.324614 C81.2985164,214.138365 85.3076376,220.142839 89.390137,226.096632 C94.6386836,233.756271 100.459581,241.403907 108.391103,246.468098 C110.663161,247.921869 113.462208,248.39001 116.051793,247.660457 C118.35587,247.01493 119.980865,245.326421 121.196276,243.363164 C121.972751,242.11212 122.654502,240.79439 123.378946,239.518006 C124.947906,236.757175 126.407467,233.937659 127.924395,231.150153 C129.592083,228.102569 131.311802,225.086994 132.999502,222.043411 C136.684425,215.412081 139.462126,208.284602 142.177121,201.215807 C145.277686,193.124038 147.841923,184.85088 149.801789,176.411006 C150.651643,172.753904 148.717125,168.960762 144.986841,167.93512 C141.479361,166.97083 137.356837,169.091468 136.506983,172.74857 C135.762527,175.952201 134.980715,179.141161 134.04681,182.292776 C133.20763,185.121628 132.269722,187.914469 131.331815,190.712645 C129.649451,195.752829 127.690919,200.698318 125.649669,205.605129 C124.414246,208.319279 123.16815,211.017425 121.768627,213.650218 C120.351759,216.312352 118.829494,218.91847 117.339248,221.543261 C115.863678,224.138709 114.420128,226.748828 112.967238,229.353612 C112.747103,229.749731 112.525634,230.148518 112.304165,230.548639 C110.293601,228.596051 108.439133,226.504754 106.668715,224.297423 C102.252678,218.412985 98.35696,212.14043 94.2371044,206.049262 C90.8710436,201.063761 87.1541014,196.343674 83.5372204,191.540894 C80.0670959,186.935508 77.2680489,181.881986 74.0367373,177.124554 C72.2289639,174.462419 70.2063923,171.983006 68.1531352,169.512929 C67.351311,168.544637 66.5641624,167.569677 65.7930236,166.580046 C65.4434763,166.142581 65.0992656,165.699781 64.7457158,165.266317 C64.0306113,164.386052 62.9939766,163.745859 62.0920912,163.094996 C60.8419925,162.370778 59.4971692,162.005335 58.0482821,162 C55.93232,162 53.8737264,162.849589 52.3781441,164.350041" id="Fill-10"></path>
                <path d="M44.0895956,163.511785 C44.1017183,163.608026 44.115188,163.705603 44.1286576,163.801843 C44.1232698,163.79917 44.1192289,163.796497 44.115188,163.793823 C44.1044122,163.700256 44.0949834,163.606689 44.0895956,163.511785 M49.6970222,160.019052 C49.9192719,160.037765 50.1401746,160.067172 50.3610773,160.107273 C50.1401746,160.077866 49.9192719,160.048459 49.6970222,160.019052 M48.913087,160.011032 C49.2255835,160.198166 49.5299982,160.394658 49.830372,160.600506 C51.0345612,161.664499 52.1161763,162.82206 53.1506475,164.047792 C53.9911554,165.222729 54.7360285,166.433757 55.3987367,167.719639 C55.6640893,168.452137 55.884992,169.188645 56.053363,169.947877 C56.0574039,170.073525 56.0627918,170.197835 56.0641387,170.323483 C55.7287438,169.859657 55.344858,169.418554 54.9178692,168.998838 C53.7338845,167.83994 52.2347095,167.036598 50.7301465,166.378954 C48.8605553,165.570265 46.9586368,164.944701 45.0621063,164.254976 C45.5604843,163.362077 46.1046593,162.497248 46.6878963,161.648459 C47.0232913,161.26617 47.369462,160.901258 47.7385312,160.551049 C47.9836793,160.400004 48.2288274,160.26099 48.4807104,160.125986 C48.623489,160.084549 48.7676145,160.045785 48.913087,160.011032 M42.2321271,147.550544 C38.3703706,149.298915 35.7599471,152.442776 33.4930004,155.910112 C32.9824996,156.688057 32.5299185,157.523479 32.0935009,158.342861 C31.003804,160.383964 30.2777884,162.421058 30.04611,164.712119 C29.6568363,168.608528 31.7769635,172.48756 34.718741,174.947043 C36.0926481,176.095247 37.5648839,177.113794 39.2176133,177.818222 C40.0864075,178.183134 40.9538547,178.548047 41.8253428,178.907613 C42.5958083,179.244455 43.360886,179.60402 44.0936365,180.01438 C45.4998708,181.896419 47.7573887,183.096753 50.2034821,183.096753 C52.5283484,183.096753 54.6727211,181.995333 56.0856902,180.292408 C56.136875,180.389986 56.1907537,180.487563 56.2486733,180.58514 C57.1592235,182.126327 58.6691743,183.279878 60.4054157,183.755734 C62.1995768,184.246294 64.1567209,183.989653 65.7623064,183.060663 C67.1927862,182.230588 68.660981,180.61722 68.9559669,178.935683 C69.4610798,176.03777 70.0456638,173.062331 69.997173,170.121645 C69.9298246,165.694576 68.1248878,161.386471 65.7353671,157.721307 C63.4886249,154.270011 60.6061139,151.027236 57.1955916,148.677361 C56.4601472,148.170761 55.7543361,147.717628 54.9542373,147.320635 C53.3863669,146.548037 52.0919309,146.280702 50.3610773,146.082874 C49.8694341,146.026734 49.3777909,146 48.8888416,146 C46.5882207,146 44.3374376,146.593484 42.2321271,147.550544" id="Fill-12"></path>
                <path d="M57.8819334,148.029482 C56.4947405,148.942796 55.0563025,150.716015 54.7774339,152.557332 C54.2459149,156.041012 53.3985832,159.400514 52.4952394,162.780045 C51.5227743,166.419951 50.5777193,170.066532 49.6982104,173.738484 C48.1429813,180.190437 46.5698759,186.64773 45.18745,193.151758 C42.245028,207.046423 39.8937122,221.093307 37.3946199,235.097463 C36.1599705,242.003402 34.9551149,248.914683 33.5953321,255.788576 C32.2450834,262.631759 30.8161794,269.458918 29.4385205,276.298095 C28.0787377,283.041133 26.6963118,289.780166 25.4902644,296.560591 C24.2150957,303.737588 23.0793613,310.941289 21.910258,318.138314 C20.7649897,325.21116 19.4528768,332.253296 18.2885405,339.320801 C17.1301629,346.345579 15.5046208,353.246177 13.8850373,360.152117 C12.311932,366.87112 10.9616832,373.630182 9.69008975,380.42663 C8.42922198,387.201715 7.17192946,393.966117 6.03619508,400.767907 C5.11020807,406.322568 3.61099101,411.731687 2.62899192,417.27166 C2.07006283,420.400163 1.63745886,423.530001 1.2692092,426.695891 C1.05946183,428.509167 0.983190052,430.335796 0.840180476,432.155749 C0.387316818,434.559208 -0.473124131,437.041448 0.328921241,439.459595 C0.650692788,440.732093 1.22273109,441.837684 2.05099489,442.771027 C3.40124364,444.283872 4.9469388,444.768569 6.7858036,444.972863 C6.80487155,444.972863 6.82274774,444.972863 6.84181569,444.978204 C9.11805144,445.222556 11.5063114,443.375898 12.6051016,441.268865 C13.2593704,440.015061 13.5489648,438.59702 13.496528,437.199008 C13.7694379,435.575338 14.0280469,433.962349 14.1126609,432.29328 C14.2080006,430.504039 14.2556705,428.717467 14.4153645,426.936237 C14.8014903,424.186947 15.3008321,421.447003 15.8871714,418.741776 C16.603411,415.450372 17.4698107,412.201697 18.1777081,408.904952 C18.8844137,405.593519 19.3968647,402.25004 19.992738,398.911902 C20.6076791,395.464274 21.2726737,392.031333 21.9483939,388.594386 C23.2557398,381.902087 24.4808552,375.18976 26.0265503,368.554877 C27.6044226,361.790475 29.3634404,355.046101 30.596898,348.181554 C33.1531942,333.969099 35.1684375,319.631129 37.6687216,305.395974 C40.0796247,291.678899 43.0732918,278.096683 45.8810465,264.473075 C48.7162113,250.713271 51.0711023,236.83463 53.5249083,222.981358 C54.7774339,215.881806 56.0287676,208.788931 57.4076183,201.721426 C58.6732531,195.233421 60.2189482,188.812179 61.7038643,182.385596 C62.6584532,178.27034 63.6035082,174.149742 64.6832305,170.077214 C65.87021,165.612121 67.1132015,161.184415 67.816332,156.588467 C68.1333365,154.497458 68.1190356,152.640118 67.1322695,150.746726 C66.2479936,149.057628 64.7809537,147.789136 63.0910572,147.268386 C62.5059097,147.088127 61.9040777,147 61.3046293,147 C60.1104993,147 58.9223281,147.349837 57.8819334,148.029482" id="Fill-14"></path>
                <path d="M145.263131,431.269541 C140.817458,431.947279 136.474774,432.904926 132.141333,434.084165 C128.699138,435.019782 125.270148,436.107015 121.765896,436.817151 C121.377709,436.635729 120.972356,436.484113 120.55248,436.372668 C117.297778,435.491478 113.930844,436.928595 112.18664,439.713415 C109.876,443.407935 111.041883,448.227267 114.797004,450.510586 C116.436899,451.501925 117.922311,451.709264 119.789308,451.92697 C121.74477,452.160226 123.663262,451.78572 125.596278,451.491558 C128.031033,451.127419 130.455225,450.307135 132.81736,449.639763 C135.278523,448.94129 137.727802,448.192279 140.219332,447.609138 C143.246932,446.905482 146.274531,446.304199 149.353625,445.832503 C151.215341,445.544821 153.041407,443.888702 153.948499,442.360873 C154.990267,440.619227 155.274146,438.492708 154.727515,436.543723 C154.196727,434.655643 152.912011,433.021554 151.188934,432.034103 C150.574963,431.776225 149.967595,431.522235 149.353625,431.269541 C148.669675,431.089415 147.987046,431 147.307057,431 C146.624428,431 145.94444,431.089415 145.263131,431.269541" id="Fill-18"></path>
                <path d="M280.77542,434.011493 C271.911649,434.610426 263.062718,435.317908 254.235373,436.280798 C253.593189,436.361252 252.949654,436.440428 252.311517,436.52599 C251.08381,436.850359 250.019348,437.433968 249.118131,438.287032 C247.763606,439.564075 247,441.320008 247,443.125746 C247,444.936593 247.769003,446.692526 249.118131,447.969569 C250.336394,449.121461 252.438335,450.178852 254.235373,449.974526 C263.062718,448.977155 271.911649,448.288829 280.77542,447.689896 C282.746496,447.55453 284.458539,447.036051 285.887266,445.68494 C287.236394,444.407897 288,442.657072 288,440.850056 C288,439.044318 287.236394,437.293493 285.887266,436.01645 C284.693287,434.887545 282.859822,434 281.112702,434 C280.999375,434 280.887397,434.003831 280.77542,434.011493" id="Fill-20"></path>
            </g>
        </g>
    </g>
</svg>