<?xml version="1.0" encoding="UTF-8" standalone="no"?>
<svg width="146px" height="151px" viewBox="0 0 146 151" version="1.1" xmlns="http://www.w3.org/2000/svg" xmlns:xlink="http://www.w3.org/1999/xlink">
    <!-- Generator: Sketch 48.2 (47327) - http://www.bohemiancoding.com/sketch -->
    <title>worried0001</title>
    <desc>Created with Sketch.</desc>
    <defs></defs>
    <g id="Page-1" stroke="none" stroke-width="1" fill="none" fill-rule="evenodd">
        <g id="worried0001" fill="#000000">
            <path d="M118.49788,115.005979 C126.57988,117.129979 148.66588,128.790979 146.25288,139.720979 C144.70488,146.733979 133.84688,129.277979 132.76388,128.488979 C111.35588,112.873979 59.2898797,129.951979 38.9038797,141.161979 C32.3378797,144.772979 19.2828797,158.375979 11.6108797,152.029979 C1.69787966,143.830979 26.0188797,135.209979 30.1148797,133.063979 C50.9168797,122.162979 95.1388797,106.780979 118.49788,115.005979" id="Fill-39" transform="translate(77.845549, 133.186035) rotate(8.000000) translate(-77.845549, -133.186035) "></path>
            <path d="M65.8604,4.8606 C65.7424,6.9236 65.3444,8.6476 63.9374,10.0506 C55.9864,17.9766 47.1494,23.8186 38.1464,29.2826 C35.1784,31.0846 32.2114,32.9236 29.2144,34.6006 C25.2834,36.7996 21.1014,38.2476 16.9974,39.8826 C14.6564,40.8156 12.2544,41.4776 9.8794,42.2606 C6.1334,43.4966 2.2694,41.2056 0.5764,36.7486 C0.0804,35.4426 0.1184,34.3846 1.3874,34.0226 C2.6854,33.6526 3.9884,33.1556 5.3014,33.0726 C7.1544,32.9546 8.9494,32.4736 10.7694,32.1196 C18.3384,30.6486 25.2494,26.5746 32.2724,22.9176 C41.6734,18.0226 49.9934,10.6966 58.2284,3.1666 C59.0664,2.4006 59.9084,1.6286 60.7984,0.9746 C63.7234,-1.1734 65.8794,0.4996 65.8604,4.8606" id="Fill-43"></path>
            <path d="M141.626,51.804 C140.843,51.804 139.962,51.498 138.855,50.841 L137.832,50.235 C134.833,48.465 131.732,46.635 129.048,44.152 C125.11,40.511 121.708,36.34 118.418,32.305 C116.271,29.671 114.049,26.948 111.716,24.421 C109.78,22.325 108.255,19.951 106.78,17.655 C105.34,15.412 103.979,13.293 102.257,11.388 C101.176,10.19 100.771,8.659 100.414,7.308 C100.277,6.79 99.859,5.214 101.129,4.065 C101.603,3.636 102.157,3.419 102.78,3.419 C103.409,3.419 103.998,3.65 104.429,3.819 C106.555,4.65 108.227,6.342 109.137,8.583 C110.611,12.216 112.932,15.215 115.389,18.39 C116.563,19.907 117.775,21.475 118.872,23.103 C120.692,25.804 122.858,28.37 124.954,30.852 C125.849,31.912 126.743,32.971 127.617,34.046 C129.048,35.807 130.776,37.511 133.22,39.572 C134.437,40.597 135.655,41.075 137.056,41.075 C137.361,41.075 137.683,41.052 138.012,41.007 C138.491,40.94 138.952,40.906 139.383,40.906 C141.026,40.906 142.314,41.391 143.21,42.349 C144.225,43.434 144.667,45.066 144.524,47.199 L144.498,47.598 C144.434,48.636 144.236,51.804 141.626,51.804" id="Fill-67"></path>
            <path d="M96.3633,49.0828 C98.1763,57.0448 96.1003,63.9598 93.7163,70.8478 C93.1413,72.5048 92.1173,73.3188 90.3983,73.0018 C88.6783,72.6848 87.4753,71.7158 87.1813,69.8738 C86.9823,68.6248 87.5073,67.5108 87.8073,66.3478 C89.9073,58.2288 90.9023,50.0528 88.9983,41.7358 C88.8493,41.0888 88.6943,40.4098 88.7403,39.7588 C88.8473,38.2328 89.9383,37.7178 91.2473,38.5838 C93.7963,40.2728 95.7133,42.4128 95.9983,45.6448 C96.1163,46.9788 96.2803,48.3088 96.3633,49.0828" id="Fill-71"></path>
            <path d="M52.4825,76.3162 C47.9535,76.6022 48.5695,69.3922 48.9735,65.3102 C49.5805,59.1822 49.6915,53.0022 50.4445,46.8752 C50.6145,45.4942 50.9015,44.2752 52.1325,43.3992 C53.7885,42.2212 55.0905,42.2532 56.2745,43.9112 C57.9735,46.2932 58.7255,48.9942 58.1175,51.9142 C57.7625,53.6132 57.1505,55.2572 56.7225,56.9432 C55.6055,61.3462 53.9895,65.6252 54.1145,70.3152 C54.1615,72.0772 55.1055,76.1502 52.4825,76.3162" id="Fill-73"></path>
        </g>
    </g>
</svg>